<?xml version="1.0" encoding="UTF-8"?>
<svg id="Capa_1" data-name="Capa 1" xmlns="http://www.w3.org/2000/svg" width="1080" height="1080" viewBox="0 0 1080 1080">
  <defs>
    <style>
      .cls-1 {
        fill: #ffff8f;
      }

      .cls-2 {
        fill: #e0b0ff;
      }

      .cls-3 {
        fill: #702963;
      }
    </style>
  </defs>
  <path class="cls-2" d="M936.57,668.66c-11.5,32.98-52.11,41.17-73.45,26.66l-24.88-16.89c-11.03-7.49-22.24-14.09-35.54-16.44-29.57-5.23-48.88,13.19-64.3,37.81l-14.91,23.82c-8.84,14.11-19.44,26.02-33.47,34.08-24.4,14.01-53.14,12.74-74.93-6.15-19.98-17.32-29.77-42.18-47.98-56.09-23.56-17.99-49.51-8.64-70.83,12.41l-31.46,31.05c-21.13,20.85-46.02,36.73-74.97,27.38-22.71-7.33-41.01-22.38-53.61-42.26l-17.79-28.12c-13.98-22.09-37.15-36.38-62.54-30.67-8.66,1.95-16.56,4.72-24.43,9.33l-24.95,14.56c-15.01,8.75-34.05,8.98-46.14-1.87-14.47-12.98-21.44-30.7-23.76-49.58-3.72-30.2-.14-59.89,12.06-87.73,4.15-9.45,10.21-17.03,18.7-23.06,14.09-10.01,29.43-17.52,45.9-22.64l31.37-9.75.08,23.68c.03,8.96,3.32,16.84,10.27,22.46,13.34,10.77,29.28,16.22,45.85,20.64,72.06,19.14,163.01,22.87,239.21,23.04,61,.14,119.9-2.6,179.8-11.21,33.97-4.88,87.52-14.81,108.21-35.75,11.32-11.45,4.66-26.35,7.64-42.86l32.2,10.43c16.82,5.45,47.56,20.76,54.06,31.7,23.32,39.26,29.75,88.52,14.59,132.02Z"/>
  <path class="cls-1" d="M911.62,828.68c.02,11.62-7.48,20.08-16.68,25.63-66.58,40.15-250.16,51.42-335.94,51.35l-46.24-.04c-81.93-.07-268.54-11.64-328.91-52.47-5.34-3.61-15.29-10.17-15.31-18.25l-.6-124.32c16.06,3.5,30.72,1.19,44.91-6.68l14.84-8.22c24.63-16.24,49.02-22.79,69.06-.95,19.83,21.6,27.9,54.99,67.79,78.21,42.86,24.94,79.04,10.1,112.93-23.44l31.42-31.09c12.03-11.91,27.03-20.11,40.94-14.08,6.65,2.89,12.32,6.84,16.56,12.62l21.12,28.88c28.41,38.81,74.95,49.44,112.9,24.57l6.42-4.21c12.76-8.37,21.61-20.18,29.69-32.8l21.94-34.29c12.57-19.66,34.85-27.73,54.81-16.72l8.22,4.53,27.05,18.87c33.37,23.28,62.85,5.5,62.86,12.53l.22,110.37Z"/>
  <path class="cls-2" d="M830.14,413.43c-4.02,1.79-8.96.58-13.04-1.19l-4.47-1.93c-8.88-3.84-18.99-1.8-24.6,5.65l-13.42,17.82c-4.42,5.88-8.1,12.13-13.77,17.45-14.64,13.71-31.98,7.69-47.21-6.71l-17.12-16.19c-9.85-9.32-24.69-9.88-35.92-2.37-5.98,3.99-10.28,9.35-13.9,15.4l-12.45,20.81c-11.04,18.43-34.47,21.79-52.52,9.85-8.34-5.5-14.37-13.18-20.35-21.09l-14.37-18.96c-12.29-16.23-42.62-13.66-57.14.55l-20.03,19.61c-6.31,6.17-11.82,13-19.62,17.88-28.4,17.78-63.32,5.12-77.32-22.39l-8.46-16.62c-3.97-7.82-6.66-16.24-11.66-23.56-13.38-19.54-40.86-14.2-62.99.03l-14.04,9.02-10.86,6.03c-4.49,2.5-10.15,3.19-14.87-.2-18.28-13.18-12.91-52.57,2.8-76.65,8.09-12.38,21.6-19.6,35.48-25.04,49.86-19.63,122.7-26.78,178.32-29.44.93,22.49,12.17,40.96,31.33,52.48,27.11,16.32,61.45,15.1,87.19-3.46,16.01-11.55,25.06-28.59,26.64-48.2,8.28-1.15,15.89-.15,24.19.44,51.24,3.63,109.01,10.72,155.75,28.19,23.48,8.78,41.33,26.69,47.13,51.35,3.93,16.71,1.54,36.92-8.7,41.44Z"/>
  <path class="cls-1" d="M819.99,440.8l-.98,18.99-.08,56.21c0,7.49-2.82,12.56-9.19,15.71l-13.81,6.82c-32.09,15.87-121.81,24.66-166.28,27.29-45.81,2.71-89.6,3.57-135.5,2.05-64.82-2.16-147-7.55-205.71-27.5-12.67-4.31-26.99-11.15-27-20.85l-.11-69.99c-.01-7.87,11.42-14.76,21.71-19.52,19.3-8.94,47.68-32.25,58.54-9.44l12.06,25.32c5.47,11.47,12.2,21.65,21.71,30.51,22.6,21.06,54.9,24.43,81.34,8.5,7.86-4.75,14.14-10.52,20.58-17.04l16.54-16.77c11.29-11.43,26.73-18.67,37.18-11.35,12.06,8.44,19.45,30.65,40.39,44.82,28.08,19.01,62.23,12.34,79.49-18.16l8.31-14.68c2.96-5.23,6.33-10.18,12.09-12.89,15.82-7.47,26.46,19.5,50.01,31.36,17.04,8.61,35.97,6.31,49.97-6.5,17.04-15.57,21.7-38.1,37.48-36.48,6.52.66,11.55,7.8,11.26,13.59Z"/>
  <path class="cls-3" d="M591.68,307.39c-12.36,27.12-45.45,37.4-73.07,28.02-11.77-4-21.75-10.91-28.57-21.58-12.89-20.15-5.3-47.19,11.91-52.79,9.15-2.99,17.9,10.54,31.34,9.53-14.48-44.98-7.14-77.48,35.61-98.74l21.81-7.39c-19.7,14.38-37.95,30.56-45.94,54.03-8.2,24.11-3.32,52.92.8,50.92l19.56-9.47c5.97-2.9,13.77-1.11,18.9,3.89,11.42,11.1,14.39,28.79,7.65,43.58Z"/>
</svg>