<?xml version="1.0" encoding="UTF-8"?>
<svg id="Capa_1" data-name="Capa 1" xmlns="http://www.w3.org/2000/svg" xmlns:xlink="http://www.w3.org/1999/xlink" viewBox="0 0 660 529.33">
  <defs>
    <style>
      .cls-1 {
        fill: url(#Degradado_sin_nombre_28);
      }

      .cls-2 {
        fill: #fefefe;
      }

      .cls-3 {
        fill: #121212;
      }

      .cls-4 {
        fill: #232323;
      }

      .cls-5 {
        fill: #191919;
      }

      .cls-6 {
        fill: url(#Amarillo_primavera);
      }

      .cls-7 {
        fill: #1f1f1f;
      }

      .cls-8 {
        fill: #1c1c1c;
      }

      .cls-9 {
        fill: #131313;
      }

      .cls-10 {
        fill: #202020;
      }

      .cls-11 {
        fill: #242424;
      }

      .cls-12 {
        fill: #151515;
      }

      .cls-13 {
        fill: #1b1b1b;
      }

      .cls-14 {
        fill: #1e1e1e;
      }

      .cls-15 {
        fill: #ed1e79;
      }

      .cls-16 {
        fill: #040404;
      }

      .cls-17 {
        fill: #010101;
      }

      .cls-18 {
        fill: #2e2e2e;
      }

      .cls-19 {
        fill: #2a2a2a;
      }

      .cls-20 {
        fill: #212121;
      }

      .cls-21 {
        fill: #fcfcfc;
      }

      .cls-22 {
        fill: #ff7bac;
        stroke: #000;
        stroke-miterlimit: 10;
        stroke-width: .25px;
      }

      .cls-23 {
        fill: #8c6239;
      }

      .cls-24 {
        fill: #161616;
      }

      .cls-25 {
        fill: #171717;
      }
    </style>
    <linearGradient id="Amarillo_primavera" data-name="Amarillo primavera" x1="118.49" y1="330.4" x2="503.45" y2="330.4" gradientUnits="userSpaceOnUse">
      <stop offset="0" stop-color="#fef7e5"/>
      <stop offset=".53" stop-color="#fceec7"/>
      <stop offset="1" stop-color="#fbe3b9"/>
    </linearGradient>
    <linearGradient id="Degradado_sin_nombre_28" data-name="Degradado sin nombre 28" x1="171.43" y1="374.8" x2="496.31" y2="374.8" gradientUnits="userSpaceOnUse">
      <stop offset="0" stop-color="#fef7e5"/>
      <stop offset=".53" stop-color="#fceec7"/>
      <stop offset="1" stop-color="#fbe3b9"/>
    </linearGradient>
  </defs>
  <path class="cls-2" d="M510.25,0l-6.76,3.88c-53,6.58-97.6,31.79-142.33,57.63-44.42,19.63-70.21,8.61-102.3-25.46-28.79-23.54-62.86-35.34-85.21,2.1,10.19,25.09,12.12,55.76,2.92,81.46-14.77,41.25-56.35,61.88-93.52,79.66C20.85,228.43-9.62,280.31,10.57,347.92c33.03,110.65,130.26,208.57,251.8,166.62l64.53-24.43c32.21-10.23,66.31-12.28,99.33-5.69,27.84,6.9,55.98,11.09,84.42,12.59,92.96-.96,149.9-85.58,138.35-173.62-4.4-39.09-5.29-75.31-2.04-114.49,1.5-18.08,6.26-42.87,10.03-60.83l3.01-1.18v382.45H0V0h510.25Z"/>
  <path class="cls-17" d="M556.01,0c56.93,1.05,103.24,43.58,103.99,101.16v45.73l-9.86,59.65c-12.08,73.1,17.37,139.28-9.13,204.28-20.02,49.1-66.39,84.03-119.57,88.47-45.99,3.84-88.44-15.42-130.47-15.92-26.1-.31-51.22,4.34-75.39,13.66l-49.9,19.23c-21.04,8.11-43.13,12.9-65.54,11.21-67.01-5.06-119.14-42.48-154.77-97.69-19.06-29.54-33.49-61.37-41.16-95.63-10.55-47.11,8.59-93.39,48.13-119.79,13.06-8.72,25.63-15.9,39.74-22.76,28.01-13.61,51.54-25.97,70.59-51.56,21-28.21,20.96-69.52,8.36-102,11.25-22.83,32.76-32.37,58.33-23.28,30.24,10.75,42.87,34.86,65.11,47.19,29.12,16.15,64.73-.13,90.52-16.78C423.72,20.17,465.56,6.74,510.25,0h45.76Z"/>
  <path class="cls-2" d="M556.01,0h103.99v101.16c-2.37-6.94-3.24-14.58-5.25-22.27-7.95-30.48-27.91-54.34-56.69-66.94-13.92-6.09-28.01-8.46-42.06-11.94Z"/>
  <path class="cls-22" d="M161.02,505.64c-61.57-19.35-103.17-72.77-127.99-130.12-7.64-17.65-13.67-34.91-16.26-53.98-7.03-51.92,23.38-87.05,66.68-109.37l36.77-18.94c15.82-8.15,30.01-17.69,42.96-30.74,29.85-30.08,38.26-76.87,24.36-116.62-.67-1.92-2.37-2.39-2.36-3.72.03-2.98,14.28-22.81,37.56-15.13,9.47,3.12,17.88,8.02,25.34,14.79l24.59,22.32c20.51,18.62,47.46,23.29,74.15,14.92,18.03-5.65,33.86-14.41,50.28-24.49,44.95-27.6,95.65-42.25,148.56-40.09,39.95,1.62,75.94,18.36,91.4,57.19,14.44,36.28,8.2,77.99,1.55,116.18-4.65,26.72-6.59,52.41-4.9,79.67l4.3,69.19c1.39,22.37-.64,43.9-8.62,65.13-16.03,42.62-54.38,74.43-99.44,81.96-68.92,11.51-110.55-35.33-212.2-2.57-18.42,5.94-35.16,13.11-53.04,20.24-33.76,13.47-68.79,15.16-103.69,4.19Z"/>
  <path class="cls-23" d="M513.16,325.66c3.17,4.15-5.28,14.45-9.92,13.84-12.32-4.27-16.2-14.92-11.64-31.95-3.53-17.48-9.82-11.68-13.63,2.08-.87,9.75-4.35,24.67-16.96,24.06-7.26-.35-10.25-4.39-10.74-11.17,3.35-11.75,1.05-18.15-6.89-19.19-7.23,3.73-13.31,3.85-18.24.35-4.89-8.14-9.93-10.44-15.14-6.92-7.4,11.9-25.58,23.16-34.15,6.34-5.78-31.95-9.84-5.49-11.65,7.54-3.71,21.69-26.97,19.03-24.9-3.36,3.58-7.92,3.55-13.28-.07-16.07-4.25,20.35-25.46,19.49-22.19-2.88-3.94-12.25-14.67-4.86-17.47,4.69-.73,7.06-3.29,19.85-10.54,23.01-20.39,8.89-18.17-23.58-14.91-34.82.24-6.8-3.85-5.94-12.26,2.58-10.86,4.89-15.76-.62-21.36-9.27-3.31,16.25-18.07,33.03-30.37,13.58-3.68-16.78-7.94-12.79-12.78,11.98-1.55,4.34-4.59,7.3-9.01,8.57-16.14,4.63-16.16-17.31-13.39-27.65.1-14.68-12.21-11.88-18.34-2.41-2.86,8.84-7.93,14.85-15.2,18.02-6.14,23.14-12.32,46.27-18.56,69.37l-3.84,2.51c1.34,3.83,1.1,7.99-.71,12.46-.35,4.89-1.47,9.18-3.36,12.85,111.14,8.74,222.54,18.19,334.2,28.37l5.69,3.18c3.68.49,3.5,1.81-.03,2.86l-1.45,2.68c-73.59-4.84-147.02-10.62-220.28-17.33l-1.39-2.9c-9.47-1.5-19.03-1.37-29.41-2.38l-91.72-8.87c-5.96-2.47,7.25-40.97,8.31-44.86l9.84-36.16c1.78-6.55,2.21-13.77,5.2-19.69,2.55-5.05.47-8.56.94-13.39,1.16-11.92,4.73-24.05,8.77-35.31,2.74-7.65,11.53-10.14,17.87-13.59l41.43-22.58,62.55-35.6,41.86-23.35,8.23-4.45,31.36-17.42c10.43-5.79,20.91-11.23,31.51-17.02,16.25,1.81,30.07,8,44.46,13.96,12.09,5.01,33.2,18.69,42.47,27.3l14.97,13.9c13.71,12.73,24.87,34.62,31.15,52.45,4.23,12.02,10.29,32.87,10.44,45.19.08,6.79,2.19,13.7.41,20.59-3.27,12.65-7.64,24.9-9.14,36.3Z"/>
  <path class="cls-15" d="M231.67,410.65l58.06,4.87,30.61,2.98,57.97,4.55,76.49,5.14,1.45-1.33c7.11.98,14.16,1.33,21.15,1.06,2.54-10.76,6.12-19.58,11.88-29.45,0-6.23,1.06-11.65,3.21-16.27,1.67-7.4,3.27-14.94,4.8-22.61l1.42-.42c.38-3.24.05-6.02-1-8.35l3.01-2.03c-3.68-2.4-1.08-8.19,2.52-9.3,3.27-4.85,7.67-9.24,9.92-13.84,1.45.19,2.74.63,3.18,1.57.68,1.44.28,3.62.51,5.29l1.93,13.84c.58,4.14-.62,7.75-3.31,10.14s-6.32,2.52-10.41,2.69l2.19,5.25c-2.37,7.07-.08,13.71-.18,20.97-.07,5.25-9,7.93-13.29,5.17-2.56,2.82-.61,5.23.42,7.87,3.46,8.89,1.29,18.38,1.87,27.39.29,4.5-.72,6.1-3.93,8.4-4.15,2.97-15.56,1.06-17.12-2.53-4.31,5.99-32.17,2.88-40.71,3.81-6.12.66-10.87,1.42-17.07-.53-4.18-1.32-9.46,3.01-13.51,1.41-5.04-1.99-9.59.32-13.93-.31-8.4-1.22-15.42-.98-23.69-.14-4.46.45-9.44-1.72-14,.21-7.23,3.04-7.46-7.52-10.63-9.41-8.74-5.21-21.39-2.53-31.02-1.91-5.94.38-11.89-3.1-17.12-1.73s-10.17,4-15.91,1.98c-4.89-1.72-9.23-.26-13.95-.26-5.87,0-10.96-2.02-17.19.18-3.42,1.21-9.62.75-11.93-2.12-2.91-3.61-2.79-8.47-2.68-12.24Z"/>
  <path class="cls-6" d="M503.23,339.49c.65,2.92-2.05,5.89-2.52,9.3-.27,2.86-1.72,3.34-4.33,1.42-100.19-7.88-200.19-16.7-300.01-26.46l-.87-.89c-6.28.41-12.29-.05-18.03-1.39-8.7-.49-17.48-1.13-26.34-1.91l.1,1.53c-1.02,2.47-.15,2.57,2.62.3-.03-.79.02-1.43.32-1.59.9-.47,15.82.95,16.37,3.05,6.43-.77,15.23-.96,20.8,1.39,59.29,3.85,122.91,10,182.74,16.18l1.68,2.87c1.61,3.15-.08,4.11-3.13,5.12,0,0-13.97.3-41.9.9l-.77,2.51c4.5,31.08-38,23.05-32.5-4.06-7.48.8-14.94,1.67-22.4,2.59-1.12,8.14-11.4,10.87-14.48,4.17-1.01-5.34-.67-11.49-.18-1.54.05,1.03-.93,1.44-2.14,1.32.1,7.36-15.12,8.2-16.2-.48.3-5.25,0-10.2-.92-14.85-18.73-1.49-37.48-1.68-56.24-.59l.69,9.51c.91,6.86-.91,10.76-5.45,11.69-5.81-1.8-7.51,1.83-5.13,10.87,1.27-3.1,2.76-5.97,4.45-8.59l18.22-2.19c.52-5.01.5-10.16-.04-15.44-.14-8.61,28.59-6.17,30.56-3.42,2.68,3.75,2.41,22.69,0,26.76-1.32,2.21-15.11,3.81-18.02,1.75-6.67,11.08-2.83,13.6,7.49,17.6.53,1.42,0,2.52-1.38,3.37-.4,1.14-1.09,2.24-2.12,2.23-11.31-.12-22.79-.72-33.91-3.14-.46,1.22-.92,1.22-1.39,0-9.78-.9-19.49-1.82-29.12-2.77-5.34-.45-10.89-.92-16.64-1.39-5,8.9-8.14-5.47-7.57-10.82-5.95.57-8.14-1.41-6.55-5.93,7.65-20.37,12.8-53.05,20.52-74.79,14.78-.83,9.7-25.23,29.2-25.4,14.4-.12,7.15,21.36,7.46,28.13.26,5.69,3.81,9.77,8.98,9.84,4.5.06,8.47-2.96,9.81-7.84l5.54-20.22c.7-2.54,4.62-3.56,6.25-3,5.26,1.8,3.68,14.06,10.54,17.44,7.55,3.72,15.29-2.1,17.33-9.7,1.26-4.7,2.35-9.04,5.42-12.6,5.68,2.93,5.68,12.23,14.42,12.51,9.93.32,14.15-12.24,19.19-8.79,8.04,5.5-1.93,20.34,1.56,33.07.95,3.48,3.55,6.22,6.28,6.87s6.44.35,8.49-2.08c10.32-12.26,1.8-20.32,13.81-30.23,4.08-3.37,8.55-2.88,12.02-.68,9.17,5.8-1.73,20.96,9.74,21.76,12.45.87,7.33-16.66,15.25-13.97,5.05,1.72,4.58,8.45,2.92,12.6-4.64,11.62.14,20.22,5.33,21.12,19.97,3.47,8.55-43.53,23.88-36.37,5.52,2.58,3.16,16.99,8.16,20.32,8.65,5.75,18.84-.41,23.91-8.18,2.54-3.89,6.28-6.46,10.19-6.28,9.38.43,9.78,16.58,22.13,10.35,4.47-2.25,9.24-2.8,13.09.43,9.44,7.92-2.71,21.51,5.89,26.71,7.04,4.26,15.09-1.68,16.94-9.03,1.14-4.53,2.86-31.39,14.88-25.42,14.52,7.21-2.31,28.64,8.7,38.5,2.5,2.24,7.74,1.64,6.41,5.93Z"/>
  <path class="cls-21" d="M133.11,385.22c6.14-.21,11.68.71,16.64,2.77,9.79-.65,19.5-.19,29.12,1.39.46,0,.93.05,1.39,0,17.18,2.24,34.47,3.92,51.88,5.07l.81,1.81,5.51-1.43c80.33,7.26,159.94,14.57,238.82,21.92,5.06-1.76,2.05,10.3-.26,11.44-1.46.72-18.84-.92-21.4-1.36-.34-.06-.59-.69-.81-1.49-8.76-.52-18.04-1.53-27.69-2.6-16.16-1.78-31.77-2.19-47.73-3.59l-39.71-3.48c-12.59-1.1-24.84-1.73-37.5-3.15l-35-3.91-52.33-4.26c-7.03-.57-13.63-1.11-20.78-1.74l-29.83-2.62c-16.66-1.47-34.86-2.25-51.01-4.71,1.12-9.95,2.64-18.56,5.74-26.8-.3,5.93,8.8.04,9.32,6.18l.6,7.06c.13,1.48.07,2.53,1.07,3.32.83.66,2.42-.26,3.13.18Z"/>
  <path class="cls-16" d="M454.79,428.2l.03-2.86,14.68.87c3.05.18,4.84,2.13,6.68.2,1.47-1.54,3.55-7.54.71-7.79l-62.95-5.58-17.53-1.4-98.64-9.53c-22.2-2.14-43.33-4.25-64.82-5.86-3.98-1.94-3.51-3.42.96-3.49,6.73-2.94,14.32-3.53,22.77-1.78l219.47,20.96,9.77-15.23c-1.07-7.38.65-12.2,5.17-14.46.36-1.22.82-1.22,1.4-.05-4.34,7.71,3.8,7.87-7.91,29.95-2.96,5.58-2.78,12.02-6.16,17.54-8.5.73-16.13-1-23.62-1.5Z"/>
  <path class="cls-16" d="M195.5,322.87l47.25,3.22,66.24,5.34,54.3,5.24,55.42,5.62,82,6.51c-.47,3.42-.25,6.07-2.01,10.38-1.43,2.09-2.08.2-1.96-5.68-.58.82-1.16.4-1.75-1.27l-1.8,2.65c-38.56-2.91-77.1-5.8-115.63-8.66l-1.82-2.91-37.65-4.1c-30.15-3.28-59.53-5.58-89.77-8.46l-12.74-1.21-28.56-2.9c-5.68-.58-10.51-2.71-15.68-2.39-2.04-2.43,2.03-2.71,4.16-1.39Z"/>
  <path class="cls-19" d="M498.7,359.17c-1.38,3.39-1.07,13.89-6.22,23.04l-1.4.05-2.46-1.73c1.93-9.64,4.05-19.08,6.37-28.3.59.04,1.48-.52,2.05-.24,1.79.87-.15,9.52,1.66,7.19Z"/>
  <path class="cls-1" d="M258.26,354.31c.68-3.69,1.5-3.32,2.31.22,3.15.3,6.35,1.04,9.97.48l1.75-6.58c5.7-2.45,11.39-2.03,17.56-2.18,3.54-.08,6.88-2.65,10.73-.23-.44,5.27-1.2,15.12,3.34,18.46,5.89,4.33,14.94,5.69,20.22,2.52,6.04-3.63-.73-20.17,7.03-20.56l21.64-1.08c8.35-.42,16.48,4.05,22.93-2.07l38.76,2.8c16.17,1.17,27.05,2.24,43.39,3.43l37.1,2.7c2.56,3.8.77,8.51-.25,13.18l-3.66,16.85c-.98,4.52-3.25,7.25-2.22,12.71.87,4.57-7.55,11.18-10.45,19.98l-66.25-6.27c-12.34-1.17-24.08-1.53-36.44-3.53-16.17-2.61-31.89-2.66-47.94-4.3l-44.95-4.6c-16.81-1.72-32.88-3.45-48.94-3.48-.4.96-.8,1.72-1.2,1.72-4.63.03-14.46-.39-16.42-4.2,1.46-2.87-9.58-3.33-11.24-7.62-.8-2.07-1.87-11.29,4.18-16.22,1.46-1.19,2.97.84,4.94,1.17,4.09.68,7.89-1.4,12.22-1.49.9-8.15,1.29-15.74,0-23.8-6.03-.71-23.79-3.15-25.84,1.55-1.31,3.01,3.32,17.91-2.72,18.52l-17.79,1.8c-.64,4.26-1.44,9.37-6.63,10-2.51-5.81-2.7-12.61-.24-18.3,3.58-.13,5.81,1.48,9.11.76.95-7.28.7-13.61-1.07-21.87,9.03,2.68,16.5-.32,24.3-.12,10.03.26,19.88,1.18,30.29.48,2.87-.19,5.83.54,7.24,1.86,4.12,3.87-.76,16.27,3.26,19.32,3.64,2.76,8.75-.75,11.96-2.02Z"/>
  <path class="cls-3" d="M216.28,390.29c5.73.36,11.8,2.46,17.62,2.48-.87.94-.96,2.26-.96,3.49-11.45-.85-11.85-.38-23.9-2.17-4.26-.63-27.21-1.05-28.79-4.7,5.85-.59,11.65.44,17.96,1.2s12.47-.64,18.07-.29Z"/>
  <path class="cls-2" d="M151.24,321.1c.22-2.19,2.32-1.86,2.62.3-.1,1.91,1.17,5.63-1.12,7.35-2.46,1.85-12.08,3.01-15.2-1.06-2.64-3.44,9.14-3.28,13.69-6.59Z"/>
  <path class="cls-3" d="M178.72,344.81c-1.16.69-19.51-9.79-12.57-10.79,5.46-.78,12.19,3.92,12.57,10.79Z"/>
  <path class="cls-18" d="M177.48,321.48c-1.76.6-4.07,1.07-6.93,1.39-4.28-.09-12.65-2.68-16.68-1.47-.63.19-2-.12-2.62-.3l-8.6-1.69c5.83-2.74,12.02-.72,18.44-.09,1.46.14,19.76.61,16.4,2.17Z"/>
  <path class="cls-8" d="M164.11,367.9c-4.35.82-6.7-4.65-7.53-7.3,2.77-2.7,5.48-1.94,7.38-.09,1.45,1.41,3.65,6.73.15,7.39Z"/>
  <path class="cls-8" d="M178.87,389.38c-9.82,0-19.53.58-29.12-1.39-1.21-.39-1.19-.86,0-1.39,2.94.27,29.15-1.11,29.12,2.77Z"/>
  <path class="cls-2" d="M166.94,347.08c.56,5.37-3.42,7.96-6.98,9.91-1.63-2.83-.93-10.85,2.93-12.48,1.17-.5,3.75-.32,4.05,2.58Z"/>
  <path class="cls-24" d="M145.06,341.7c5.05,1.51-4.08,10.25-6.4,9.41-1.58-.57-2.79-2.69-1.15-4.66,1.52-1.83,5.37-5.22,7.54-4.74Z"/>
  <path class="cls-8" d="M260.58,354.53l-2.31-.22c2.62.32-7.45-16.99,1.5-12.03,2.13,1.18,5.02,10.19.82,12.25Z"/>
  <path class="cls-8" d="M220.98,362.13c-4.84,1.28-8.89-1.2-11.68-4.83-.64-.83.87-3.54,1.95-3.37,4.14.64,7.31,4.27,9.73,8.21Z"/>
  <path class="cls-25" d="M316.34,352.58c-.59,3.77-2.98,6.13-5.45,7.54-4.12-2.85,1-11.28,3.08-11,1.04.14,2.76.98,2.37,3.45Z"/>
  <path class="cls-10" d="M177.48,321.48l15.33-.02c1.44,0,2.79.31,2.7,1.41-1.48-.1-3.6-.36-4.16,1.39-7.02.44-13.81-1.23-20.8-1.39,1.32-2.29,4.63-1.38,6.93-1.39Z"/>
  <path class="cls-7" d="M193.86,379.48c-2.39,2.19-5.01,3.09-7.61,4.15-1.25-1.22-1.76-2.11-1.82-3.26-.16-2.87,5.74-4.22,6.25-4.22,1.13,0,2.29.86,3.19,3.34Z"/>
  <path class="cls-8" d="M149.75,386.61v1.39c-5.35-1.1-11.71.32-16.64-2.77,1.46-2.82,15.41.03,16.64,1.39Z"/>
  <path class="cls-11" d="M135.6,374.44c-2.02.33-5.23-2.11-4.91-4.46.36-2.59,4.07-2.83,5.11-1.74,1.58,1.66,2.77,5.7-.2,6.19Z"/>
  <path class="cls-14" d="M355.29,371.54c-3.53,3.96-10.11,2.36-13.71-1.22,3.56-3.38,9.05-3.43,13.71,1.22Z"/>
  <path class="cls-5" d="M288.49,374.36c-4.31,2.77-9.47,3.86-14.14,1.62,2.73-5.92,9.52-6.39,14.14-1.62Z"/>
  <path class="cls-5" d="M469.19,379.65c-1.89,2.41-10.88-3.31-8.48-6.48,2.72-3.61,11.04,2.96,8.48,6.48Z"/>
  <path class="cls-14" d="M436.01,366.67c-1.41,3.2-10.38-2.79-7.52-6.29,2.26-2.75,9.63,1.49,7.52,6.29Z"/>
  <path class="cls-20" d="M324.38,386.2c-2.46,2.06-4.91-.13-6.64-.77-1.82-.67-3.83-4.52-1.63-5.85,3.23-1.96,7.11,2.15,8.27,6.62Z"/>
  <path class="cls-13" d="M405.35,380.94c-.57,3.89-7.59,3.32-10.2,3.44-.25-4.32,1.79-5.17,3.78-5.66,1.63-.4,6.88-.98,6.41,2.22Z"/>
  <path class="cls-8" d="M391.5,359.22c2.11,2.88-3.94,11.16-6.05,8.64-1.84-1.94.51-7.05,2.32-9.24.92-1.11,3.17-.16,3.73.61Z"/>
  <path class="cls-7" d="M243.58,384.78c-1.74-1.56-5.21-7.83-2.47-10.25,1.87-1.65,5.05.83,4.88,2.77-.15,1.7,1.04,2.77-2.41,7.48Z"/>
  <path class="cls-9" d="M438.71,391.33c-.35,1.99-5.42,6.38-7.68,5.35-3.25-1.47-1.1-4.54.27-5.47,2.08-1.41,6.13-2.69,7.41.12Z"/>
  <path class="cls-4" d="M486.82,366.78c-2.44.6-5.96.21-6.32-2.14-.32-2.06,1.17-3.29,2.1-3.56,1.69-.5,3.68.09,4.54.95,1.21,1.21,1.45,4.32-.32,4.75Z"/>
  <path class="cls-12" d="M371.43,394.33c-2.33.11-3.03-2.65-3.05-4.28-.03-1.9,1.59-5.12,3.87-4.13,1.56.69,1.09,3.52,1.68,4.42.76,1.16.53,3.84-2.5,3.98Z"/>
  <path class="cls-20" d="M469.88,404.78c-2.04,1.1-6.46-1.83-6.08-3.79.57-2.93,3.33-2.87,4.74-2.15,1.76.91,3.91,4.55,1.34,5.94Z"/>
</svg>