<?xml version="1.0" encoding="UTF-8"?>
<svg id="Capa_1" data-name="Capa 1" xmlns="http://www.w3.org/2000/svg" width="1080" height="1080" viewBox="0 0 1080 1080">
  <defs>
    <style>
      .cls-1 {
        fill: #f6f6f6;
      }

      .cls-2 {
        fill: #f8f8f8;
      }

      .cls-3 {
        fill: #f3f3f3;
      }

      .cls-4 {
        fill: #fdfdfd;
      }

      .cls-5 {
        fill: #eb5f94;
      }

      .cls-6 {
        fill: #f7f7f7;
      }

      .cls-7 {
        fill: #f8f5f6;
      }

      .cls-8 {
        fill: #f5f5f5;
      }

      .cls-9 {
        fill: #702963;
      }
    </style>
  </defs>
  <path class="cls-2" d="M686.56,143.14c-1.19-4.61-2.45-9.19-3.79-13.76,1.77,4.28,2.99,8.88,3.79,13.76Z"/>
  <path class="cls-9" d="M363.42,583.3c-20.09,4.23-39.06,4.66-55.1.82,15.67,3.24,33.93,2.57,53.19-1.56l1.91.74Z"/>
  <path class="cls-9" d="M910.11,936.68c.05-.87.37-1.72,1.13-2.51-2.68,1.65-4.97,2.55-6.88,2.6h0l-6.12-5.85c-.06-.23-.13-.47-.19-.72-25.67,1.39-51.45,2.46-77.36,3.23-4.61-.57-8.76-1.25-12.49-2.02-.04,0-.08-.01-.12-.02-.04-.01-.09-.02-.13-.03-34.1-8.01-26.5-25.15,22.82-51.43l-.09-4.11c-39.15-46.74-72.98-96-101.51-147.79,5.97-6.37,9.54-12.97,10.72-19.79-10.16-10.46-28.56-81.47-26.35-88.16,2.18-6.6,3.68-10.21,11.41-11.98,50.51.08,87.98-25.98,102.9-74.33,33.35-108.06-41.42-224.54-126.82-285.89-.85-35.89-5.67-70.79-14.45-104.7,0-.01,0-.03,0-.04-.8-4.88-2.02-9.48-3.79-13.76,0-.01,0-.03-.01-.04-1.87-6.37-3.87-12.7-6.02-19-21.45-18.96-40.88-29.34-58.37-32.97-.03,0-.05-.01-.08-.02-61.75-15-99.72,53.38-116.53,126.87,2.78,5,8.11,8.6,15.99,10.8,16.13,3.21-16.36,50.58-20.27,52.47-2.6,1.26-49.31,7.22-61.26,7.35.31-13.64-37.94-45.58-48.51-46.23h-.03c-1.68-.57-3.03-.75-3.95-.46-31.28,10.04-42.28,20.92-34.07,55.57-1.31,1.68-2.65,3.32-4.12,4.84-2.87,2.97-75,24.11-79.76,23.84-2.38-.14-4.62-.42-6.72-.83-.02,0-.03,0-.05-.01-15.36-3.99-23.34-15.31-32.35-28.85-6.84-23.16-11.21-30.08-13.62-27.85-5.67-5.93-6.12,15.88-3.36,38.04,5.79,46.33,22.49,77.22,55.94,109.88-1.95,7.92-2.92,11.87-2.92,11.87-63.65,20.47-49.2,60.35-4.07,93.19-4.81,45.3,16.61,69.39,49.5,76.23t.02,0s.06.01.09.02.05.01.08.02c16.04,3.84,35.01,3.41,55.1-.82h.01l4.55,1.78c11.17,27.4,22.37,54.72,33.61,81.96-17.27,97.19-58.44,188.11-122.51,262.08-8.3,15.18-4.53,21.54,9.94,31.88,21.73,9.65,28.65,17.57,26.63,24-11.06-12.02-31.71-9.83-44.69-32.88-6.35-11.29-1.29-21.24,5.44-29.93l15.27-19.71c6.45-8.33,12.98-15.9,18.95-24.61l12.55-18.29,9.47-16.88c27.76-49.48,46.74-100.32,58.5-156.02,1.8-8.54,7.2-16.5,2.51-25.55-1.87-3.6-7.02-9.61-7.33-13.33-1.78-21.52-23.05-32.8-19.78-56.96-37.27,5.79-76.6,8.89-97.73-19.88-12.59-17.15-20.92-35.69-14.63-59.55-29.15-16.05-48.05-45.98-37.76-73.78,4.29-11.61,24.64-21.6,42.98-27.76,1.68-3.26,1.16-4.73.62-5.89-.55-1.17-5.79-2.27-6.97-3.73l-21.55-26.66c-31.38-38.81-37.52-132.57-18.01-130.27,9.17,1.09,13.45,13.15,15.06,19.78,6.31,26,28.05,46.34,46.69,40.14l45.74-15.21c7.98-2.66,15.86-2.83,25.02-6.43-8.55-16.16-7.09-37.28,8.1-47.05,9.03-5.81,16.71-8.6,26.67-9.16l-6.61-18.46c-8.17-22.82-18.42-42.6-38.05-58.52-7.29-5.91-13.35-11.81-12.33-23.14,9.12,1.82,13.47,6.5,18.91,12.41l20.93,22.74c16.16,17.56,23.24,39.8,28.73,62.77l21.14,9.55c11.94,5.38,26.32,23.53,26.24,36.83,18.54-6.11,36.44-11.13,56.93-8.23l5.33-12.02c4.53-10.2,18.44-21.34,16.17-25.54-1.05-1.95-27.63-6.21-21.61-23.47l15.76-45.17c10.12-29,21.07-55.06,44.71-73.54,24.75-19.34,65.08-14.95,98.17-.11,23.43,10.5,37.48,31.45,41.04,56.06l8.31,57.56c2.06,14.24,6.92,28.95,3.25,43.42-2.31,9.08,11.75,11.79,24.49,24.11l42.14,40.75,16.91,22.22c4.12,5.42,7.95,10.2,10.92,15.8l10.35,19.57c32.68,61.74,45.32,147.33,10.56,204.65-17.9,29.51-48.08,47.29-81.53,49.89l-20.29,1.58,16.24,69.49c1.51,6.45,4.75,9.71,8.39,14.57,6.51,8.67.77,21.62-9.62,28.31l25.03,38.91c3.38,5.25,6.72,9.99,10.85,15.25l19.1,24.34c9.52,12.11,18.9,25.21,28.58,37.78l11.22,14.58c5.04,6.55,9.27,11.84,8.48,19.5-.71,6.92-6.15,10.61-13.44,14.79l-34.66,19.93c40.53,27.53,107.27-6.21,117.52,12.66,1.16,2.13.6,6.9,4.86,7.55-1.36.84-2.62,1.48-3.78,1.92Z"/>
  <path class="cls-5" d="M247.54,380.62c-7.21-7.09-12.8-15.38-15.59-23.28,4.43,8.02,9.6,15.71,15.59,23.28Z"/>
  <path class="cls-9" d="M256.42,1054.77l3.22,9.34c.82-.07,1.64-.04,2.47.07l.18.52c-2.2.19-4.83-.82-7.7-1.58-35.14-9.42-73.34-18.48-62.59-43.48,3.36-7.79,10.56-10.98,20.2-13.39l20.4-5.07c28.46-2.88,54.19-7.82,83.04-16.15-4.7,14.71-56.12,21.7-84.23,24.11-75.35,16.16-11.65,37.63,25.01,45.63Z"/>
  <path class="cls-9" d="M381.03,611.13c-1-1.41-2.08-2.82-3.26-4.22-1.38-1.64-1.52-3.35-.49-4.96,1.24,3.06,2.5,6.12,3.75,9.18Z"/>
  <path class="cls-5" d="M603.67,566.03c.01.18.01.36.02.54.03-.25.05-.44.06-.53h-.08ZM603.67,566.03c.01.18.01.36.02.54.03-.25.05-.44.06-.53h-.08ZM603.67,566.03c.01.18.01.36.02.54.03-.25.05-.44.06-.53h-.08ZM603.67,566.03c.01.18.01.36.02.54.03-.25.05-.44.06-.53h-.08ZM603.67,566.03c.01.18.01.36.02.54.03-.25.05-.44.06-.53h-.08ZM603.67,566.03c.01.18.01.36.02.54.03-.25.05-.44.06-.53h-.08ZM603.67,566.03c.01.18.01.36.02.54.03-.25.05-.44.06-.53h-.08ZM603.67,566.03c.01.18.01.36.02.54.03-.25.05-.44.06-.53h-.08ZM603.67,566.03c.01.18.01.36.02.54.03-.25.05-.44.06-.53h-.08ZM603.67,566.03c.01.18.01.36.02.54.03-.25.05-.44.06-.53h-.08ZM603.67,566.03c.01.18.01.36.02.54.03-.25.05-.44.06-.53h-.08ZM603.67,566.03c.01.18.01.36.02.54.03-.25.05-.44.06-.53h-.08ZM603.67,566.03c.01.18.01.36.02.54.03-.25.05-.44.06-.53h-.08ZM603.67,566.03c.01.18.01.36.02.54.03-.25.05-.44.06-.53h-.08ZM603.67,566.03c.01.18.01.36.02.54.03-.25.05-.44.06-.53h-.08ZM603.67,566.03c.01.18.01.36.02.54.03-.25.05-.44.06-.53h-.08ZM603.67,566.03c.01.18.01.36.02.54.03-.25.05-.44.06-.53h-.08ZM603.67,566.03c.01.18.01.36.02.54.03-.25.05-.44.06-.53h-.08ZM603.67,566.03c.01.18.01.36.02.54.03-.25.05-.44.06-.53h-.08ZM603.67,566.03c.01.18.01.36.02.54.03-.25.05-.44.06-.53h-.08ZM603.67,566.03c.01.18.01.36.02.54.03-.25.05-.44.06-.53h-.08ZM603.67,566.03c.01.18.01.36.02.54.03-.25.05-.44.06-.53h-.08ZM603.67,566.03c.01.18.01.36.02.54.03-.25.05-.44.06-.53h-.08ZM603.67,566.03c.01.18.01.36.02.54.03-.25.05-.44.06-.53h-.08ZM603.67,566.03c.01.18.01.36.02.54.03-.25.05-.44.06-.53h-.08ZM603.67,566.03c.01.18.01.36.02.54.03-.25.05-.44.06-.53h-.08ZM603.67,566.03c.01.18.01.36.02.54.03-.25.05-.44.06-.53h-.08ZM603.67,566.03c.01.18.01.36.02.54.03-.25.05-.44.06-.53h-.08ZM603.67,566.03c.01.18.01.36.02.54.03-.25.05-.44.06-.53h-.08ZM603.67,566.03c.01.18.01.36.02.54.03-.25.05-.44.06-.53h-.08ZM603.67,566.03c.01.18.01.36.02.54.03-.25.05-.44.06-.53h-.08ZM603.67,566.03c.01.18.01.36.02.54.03-.25.05-.44.06-.53h-.08ZM603.67,566.03c.01.18.01.36.02.54.03-.25.05-.44.06-.53h-.08ZM603.67,566.03c.01.18.01.36.02.54.03-.25.05-.44.06-.53h-.08ZM219.24,277.37c-.12.9-.25,1.8-.37,2.69,13.72,19.71,27.48,39.37,47.29,42.97-19.47-5.07-33.05-25.79-46.92-45.66ZM295.16,397.98c-5.26,1.4-10.71,1.43-16.13.4,6.27,1.59,12.66,1.82,18.78.19,2.95-.78,5.93-.95,8.77-.52-3.58-1.06-7.52-1.1-11.42-.07ZM264.02,495.77c-1.64.92-3.78,1.14-6.21.79,3.52,1.01,6.65,1.04,8.86-.2,17.18-9.65,32.93-16.15,44.59-14.31-11.87-3.42-28.72,3.32-47.24,13.72ZM303.82,574.11c-3.14-.09-6.1-.4-8.89-.93,3.55.9,7.4,1.4,11.54,1.52,39.26,1.1,61.02-11.18,74.51-9.33-13.25-4.18-35.22,9.91-77.16,8.74ZM382.96,247.76c-.59-.25-1.32-.38-2.16-.39,2.23,1.23,4.39,4.12,7.02,7.89.83.03,1.52-.05,2.1-.21-2.55-3.67-4.75-6.36-6.96-7.29ZM366.89,287.95c7.34,2.25,28.38,1.21,35.91,1.87-1.52-1.61-25.18-.09-35.91-1.87ZM384.03,318.54c-5.2-8.26-13.45-13.24-22.52-14.94,8.01,2.12,15.18,6.9,19.87,14.35,1.73,2.74,4.86,11.33,9.98,10.89-3.59-1.96-5.93-8.07-7.33-10.3ZM315.65,985.01h0s0,0,.02,0h-.01ZM400.54,244.58c1.39.56,2.82,1.34,4.18,1.6.65.12,1.27.25,1.88.4-2.04-.64-4.2-2.13-6.06-2ZM422.86,255.66c-1.1-1.22-2.25-2.44-3.46-3.66h0c-3.06-2.49-7.13-4.33-12.03-5.23-.07,0-.13-.03-.2-.04,12.9,3.4,19.12,13.68,14.35,24.82-2.73,6.39-11.43,14.02-18.13,18.32,1.94.22,2.71.58,1.68,1.21,6.8-4.17,16.24-12.24,19.1-18.94,2.6-6.07,1.93-11.89-1.31-16.48ZM420.91,1017.59l-57.26-18.22c-4.19-1.33-7.75-2.65-11.14-3.24,2.61.68,5.37,1.66,8.49,2.65l57.26,18.22c4.08,1.3,6.14,3.42,5.08,5.74l-3.68,8.13c-1.41,3.1-1.56,14.24-8.94,14.19-11.01-.08-21.52-1.79-31.03-3.81,10.19,2.28,21.64,4.31,33.68,4.4,7.38.05,7.53-11.09,8.94-14.19l3.68-8.13c1.06-2.32-1-4.44-5.08-5.74ZM430.12,683.56l.04.16h.01c1.59.41,3.14.77,4.66,1.09-1.54-.37-3.11-.79-4.71-1.25ZM471.69,816.43c-4.61-5.8-.01-13.65-7.35-29.48l-23.6-50.88-27.1-55.56c-.88-1.79-2.43-2.26-3.56-1.82.34.3.66.71.91,1.23l27.1,55.56,23.6,50.88c7.34,15.83,2.74,23.68,7.35,29.48,2.67,3.35,5.97,5.15,10.89,6-3.51-1-6.08-2.7-8.24-5.41ZM523.83,825.52l-3.36,47.33c-2.93,41.18-4.27,95.27-22.12,117.91-13.18,16.7-35.67,19.13-55.61,15.04,20.57,4.87,44.5,2.99,58.26-14.45,17.85-22.64,19.19-76.73,22.12-117.91l3.39-47.73-2.68-.19ZM516.1,284.47c-2.62-.97-5.39-1.74-8.29-2.31,1.95.47,3.83,1.05,5.64,1.72,15.29,5.68,24.54,26.24,19.19,41.82-2.41,4.96-16.25,7.92-16.85,17.05-.38,5.81,2.89,10.37,6.77,14.28,2.15,2.16,4.57,3.27,7.02,3.48-1.53-.56-3-1.51-4.37-2.89-3.88-3.91-7.15-8.47-6.77-14.28.6-9.13,14.44-12.09,16.85-17.05,5.35-15.58-3.9-36.14-19.19-41.82ZM563.92,150.12c-6.01-2.39-15.52,2.66-19.13,8.78-14.24,24.16,5.99,41.94,4.94,46.22-.94,3.82-6.02,4.56-13.42,3.11,8.82,2.17,15.02,1.74,16.07-2.52,1.05-4.28-19.18-22.06-4.94-46.22,3.11-5.28,10.62-9.76,16.48-9.37ZM563.44,188.97c3.43,1.08,7.47.85,10.45,1.15-2.23-.99-6.46-.55-10.45-1.15ZM572.84,174.54c-.92-1.64-2.77-2.46-4.9-2.57.96.42,1.74,1.08,2.25,1.98,3.59,6.41,10.57,9.56,19.41,11.34-7.58-1.87-13.54-4.99-16.76-10.75ZM573.35,580.2c-17.08-10.28-13.19-25.24-21.46-40.62l-1.81,1.07c7.18,14.79,4.16,29.05,20.62,38.96,10.12,6.09,21.26,10.34,33.01,12.88-10.78-2.59-21-6.66-30.36-12.29ZM603.67,566.03c.01.18.01.36.02.54.03-.25.05-.44.06-.53h-.08ZM608.96,187.96c-.76-.06-1.51-.12-2.26-.19,2.69,2.7,4.39,3.45,5.71,3.11-.95-.56-2.08-1.5-3.45-2.92ZM626.97,181.78c2.78,1.46,4.85,5.12,6.31,5.34.34-.2.66-.4.94-.61-1.79-1.82-4.18-5.03-7.25-4.73ZM637.65,122.05c-4.57,14.02-6.85,25.06-16.32,33.29-9.61,8.34-21.11,11.07-32.01,9.07,11.66,3,24.26.54,34.66-8.48,9.05-7.87,11.53-18.3,15.73-31.45-.67-.82-1.36-1.63-2.06-2.43ZM654.78,173.76l-6.68-16.8c-.67.47-1.28.95-1.85,1.42l5.88,14.79c8.77,22.06,2.45,47.59-17.27,61.14-5.87,4.03-11.54,5.15-16.89,4.28,6.12,1.75,12.7,1.01,19.54-3.69,19.72-13.55,26.04-39.08,17.27-61.14ZM659.31,472.41c-.59-.97-2.08-1.47-3.81-1.56.51.24.91.57,1.16.97,6.1,9.99,3.81,18.16-1.88,25.08.54.58,1.07,1.2,1.58,1.84,6.45-7.19,9.42-15.74,2.95-26.33ZM674.07,219.26c-1.3,1.17-2.5,1.75-3.57,1.9,1.35.95,3.43.98,5.79-.95-.82-.25-1.57-.56-2.22-.95ZM677.27,119.45c-3.34-4.62-7.66-8.71-13.14-12.21-10.69-6.83-22.67-11.63-35.13-14.24,11.51,2.72,22.55,7.31,32.48,13.65,9.13,5.82,15.01,13.29,18.63,22.1-.91-3.11-1.86-6.21-2.84-9.3ZM681.22,334.21c-8.73-7.42-19.39-12.15-30.96-14.58,10.55,2.58,20.25,7.14,28.31,13.99,24.24,20.6,20.53,92.13-15.03,107l-28.13,11.77c-3.46,1.45-5.59,3.65-6.09,5.38-.95,3.32,5.14,14.79,12.61,15.15-6.19-2.43-10.8-11.64-9.96-14.56.5-1.73,2.63-3.93,6.09-5.38l28.13-11.77c35.56-14.87,39.27-86.4,15.03-107ZM689.28,165.83v-.04c-1.58-7.78-3.37-15.52-5.36-23.2.22,1.34.41,2.71.57,4.09l8.09,70.23c-1.63,3.1-8.36,4.59-13.81,3.83,5.64,1.82,14.55.39,16.46-3.24l-5.95-51.67ZM717.04,655.31c-.47-2.17-.89-4.58-1.31-7.12-.01-.03-.01-.06-.02-.09-1.8-7.26-3.23-13.87-4.09-18.96t0-.02c-1.38-4.16-3.23-7.96-5.83-10.88-11.73-9.5-27.26-14.76-34.91-26.51-.65.15-1.3.3-1.95.44,7.88,11.04,22.83,16.26,34.21,25.48,7.97,8.96,8.84,26.08,11.25,37.07l11.4,51.82-38.53,35.59c-14.25,13.17-30.62,22.25-48.23,31.28-48.16,24.69-101.72,33.12-154.88,29.87l.19.43c53.97,3.67,108.44-4.64,157.34-29.71,17.61-9.03,33.98-18.11,48.23-31.28l38.53-35.59-11.4-51.82ZM820.36,865.99s0-.02-.02-.04c-2.82-3.47-5.64-6.96-8.4-10.45-.03-.03-.06-.07-.09-.11-4.08-5.12-8.08-10.27-12.02-15.45-.16-.21-.31-.43-.48-.64-4.91-6.46-9.73-12.98-14.44-19.54-.02-.03-.04-.06-.06-.09-.72-.93-1.45-1.84-2.17-2.75l-13.82-17.33-16.43-22.81-17.1-26.57c-1.61-2.51-4.96-11.72-8.02-9.68,2.18,2.09,4.21,7.3,5.37,9.09l17.1,26.57,16.43,22.81,13.82,17.33c10.79,13.52,20.92,29.27,30.66,40.18,3.63,4.06,11.92,11.67,5.27,15.77l-29.28,18.03-21.79,11.14-50.19,24.46-68.88,28.26c-.97.4-2.01.54-3.07.46,1.96.73,3.95.85,5.72.13l68.88-28.26,50.19-24.46,21.79-11.14,29.28-18.03c2.94-1.81,2.96-4.3,1.75-6.88ZM603.67,566.03c.01.18.01.36.02.54.03-.25.05-.44.06-.53h-.08ZM603.67,566.03c.01.18.01.36.02.54.03-.25.05-.44.06-.53h-.08ZM603.67,566.03c.01.18.01.36.02.54.03-.25.05-.44.06-.53h-.08ZM603.67,566.03c.01.18.01.36.02.54.03-.25.05-.44.06-.53h-.08ZM603.67,566.03c.01.18.01.36.02.54.03-.25.05-.44.06-.53h-.08ZM603.67,566.03c.01.18.01.36.02.54.03-.25.05-.44.06-.53h-.08ZM603.67,566.03c.01.18.01.36.02.54.03-.25.05-.44.06-.53h-.08ZM603.67,566.03c.01.18.01.36.02.54.03-.25.05-.44.06-.53h-.08ZM603.67,566.03c.01.18.01.36.02.54.03-.25.05-.44.06-.53h-.08ZM603.67,566.03c.01.18.01.36.02.54.03-.25.05-.44.06-.53h-.08ZM603.67,566.03c.01.18.01.36.02.54.03-.25.05-.44.06-.53h-.08ZM603.67,566.03c.01.18.01.36.02.54.03-.25.05-.44.06-.53h-.08ZM603.67,566.03c.01.18.01.36.02.54.03-.25.05-.44.06-.53h-.08ZM603.67,566.03c.01.18.01.36.02.54.03-.25.05-.44.06-.53h-.08ZM603.67,566.03c.01.18.01.36.02.54.03-.25.05-.44.06-.53h-.08ZM603.67,566.03c.01.18.01.36.02.54.03-.25.05-.44.06-.53h-.08ZM603.67,566.03c.01.18.01.36.02.54.03-.25.05-.44.06-.53h-.08ZM603.67,566.03c.01.18.01.36.02.54.03-.25.05-.44.06-.53h-.08ZM603.67,566.03c.01.18.01.36.02.54.03-.25.05-.44.06-.53h-.08ZM603.67,566.03c.01.18.01.36.02.54.03-.25.05-.44.06-.53h-.08ZM603.67,566.03c.01.18.01.36.02.54.03-.25.05-.44.06-.53h-.08ZM603.67,566.03c.01.18.01.36.02.54.03-.25.05-.44.06-.53h-.08ZM603.67,566.03c.01.18.01.36.02.54.03-.25.05-.44.06-.53h-.08ZM603.67,566.03c.01.18.01.36.02.54.03-.25.05-.44.06-.53h-.08ZM603.67,566.03c.01.18.01.36.02.54.03-.25.05-.44.06-.53h-.08ZM603.67,566.03c.01.18.01.36.02.54.03-.25.05-.44.06-.53h-.08ZM603.67,566.03c.01.18.01.36.02.54.03-.25.05-.44.06-.53h-.08ZM603.67,566.03c.01.18.01.36.02.54.03-.25.05-.44.06-.53h-.08ZM603.67,566.03c.01.18.01.36.02.54.03-.25.05-.44.06-.53h-.08ZM603.67,566.03c.01.18.01.36.02.54.03-.25.05-.44.06-.53h-.08ZM603.67,566.03c.01.18.01.36.02.54.03-.25.05-.44.06-.53h-.08ZM603.67,566.03c.01.18.01.36.02.54.03-.25.05-.44.06-.53h-.08ZM603.67,566.03c.01.18.01.36.02.54.03-.25.05-.44.06-.53h-.08ZM603.67,566.03c.01.18.01.36.02.54.03-.25.05-.44.06-.53h-.08Z"/>
  <path class="cls-9" d="M898.23,930.92c-24.86,1.33-49.82,2.35-74.9,3.1-5.72-.72-10.77-1.59-15.14-2.61,3.73.77,7.88,1.45,12.49,2.02,25.91-.77,51.69-1.84,77.36-3.23.06.25.13.49.19.72Z"/>
  <path class="cls-9" d="M911.24,934.17c-.76.79-1.08,1.64-1.13,2.51-2.3.87-4.21.93-5.75.09,1.91-.05,4.2-.95,6.88-2.6Z"/>
  <path class="cls-9" d="M308.13,584.07c-32.89-6.84-54.31-30.93-49.5-76.23-45.13-32.84-59.58-72.72,4.07-93.19,0,0,.97-3.95,2.92-11.87-33.45-32.66-50.15-63.55-55.94-109.88-2.76-22.16-2.31-43.97,3.36-38.04-3.07,2.85-2.95,20.63-.71,38.63,3.1,24.84,9.34,45.24,19.62,63.85,2.79,7.9,8.38,16.19,15.59,23.28h.01c6.05,7.64,12.93,15.15,20.72,22.75-1.95,7.92-2.92,11.87-2.92,11.87-63.65,20.47-49.2,60.35-4.07,93.19-4.67,44.07,15.47,68.06,46.85,75.64Z"/>
  <path class="cls-9" d="M262.11,1064.18c-.83-.11-1.65-.14-2.47-.07l-3.22-9.34c.9.2,1.78.4,2.65.59l3.04,8.82Z"/>
  <path class="cls-9" d="M234.06,1009.73c-73.57,15.78-14.59,36.62,22.36,45.04-36.66-8-100.36-29.47-25.01-45.63,28.11-2.41,79.53-9.4,84.23-24.11h0s0-.01.02-.01h-.01v-.02c2.02-6.43-4.9-14.35-26.63-24-14.47-10.34-18.24-16.7-9.94-31.88,64.07-73.97,105.24-164.89,122.51-262.08-11.24-27.24-22.44-54.56-33.61-81.96l-4.55-1.78c.24-.05.49-.1.73-.15l6.47,2.52c2.21,5.43,4.43,10.86,6.65,16.28-1.03,1.61-.89,3.32.49,4.96,1.18,1.4,2.26,2.81,3.26,4.22,7.72,18.87,15.45,37.7,23.21,56.5-17.27,97.19-58.44,188.11-122.51,262.08-8.3,15.18-4.53,21.54,9.94,31.88,71.44,31.74-17.18,44.68-57.61,48.14Z"/>
  <path class="cls-9" d="M910.11,936.68c-2.3.87-4.21.93-5.75.09h0c-2.88.1-4.91-1.75-6.12-5.85-24.86,1.33-49.82,2.35-74.9,3.1-5.72-.72-10.77-1.59-15.14-2.61-.04,0-.08-.01-.12-.02-.04-.01-.09-.02-.13-.03-37.1-7.74-30.38-25.08,20.17-52.02l-.09-4.11c-2.57-3.07-5.11-6.15-7.66-9.24,1.21,2.58,1.19,5.07-1.75,6.88l-29.28,18.03-21.79,11.14-50.19,24.46-68.88,28.26c-1.77.72-3.76.6-5.72-.13t-.02,0c-5.5-.39-11.63-6.42-12.17-12.15-3.55-10.56-5.59-19.33-6.95-29.17l-14.46-104.51c28.42-7.48,52.66-20.53,76.92-37.88,5.67-4.06,9.61-10.73,17.68-12.44l20.65-18.34c.96-.85,1.95-.53,2.91.39,3.06-2.04,6.41,7.17,8.02,9.68l17.1,26.57,16.43,22.81,13.82,17.33c.72.91,1.45,1.82,2.17,2.75-21.44-29.8-40.88-60.54-58.34-92.23,5.97-6.37,9.54-12.97,10.72-19.79-6.29-6.48-15.75-36.19-21.5-59.46.42,2.54.84,4.95,1.31,7.12l11.4,51.82-38.53,35.59c-14.25,13.17-30.62,22.25-48.23,31.28-48.9,25.07-103.37,33.38-157.34,29.71l-.19-.43c-.82-.05-1.64-.1-2.46-.16l-17.93-40.17-18.41-38.44-15.29-32.27-2.59-9.27c.91.26,1.8.51,2.69.75l-.04-.16c1.6.46,3.17.88,4.71,1.25.08.02.15.03.22.05,16.56,3.37,28.82.64,30.89-10.46,1.37-7.4-3.64-16.75-11.35-24.4,7.33-24.09-13.14-31.09-14.16-37.93-1.36-8.99,2.8-17.81-6.09-27.73l60.04-18.95,36.97-15.86,17.89-10.54c.3.55.58,1.11.84,1.66l1.81-1.07c8.27,15.38,4.38,30.34,21.46,40.62,9.36,5.63,19.58,9.7,30.36,12.29.21.05.41.1.62.15,20.21,4.28,42.2,3.54,63.9-1.5.23.35.46.7.7,1.03.65-.14,1.3-.29,1.95-.44,7.65,11.75,23.18,17.01,34.91,26.51,2.6,2.92,4.45,6.72,5.83,10.88-.84-4.91-1.14-8.38-.73-9.63,2.17-6.6,3.67-10.21,11.4-11.98,50.51.08,87.98-25.98,102.9-74.33,33.35-108.06-41.42-224.54-126.82-285.89-.66-27.75-3.69-54.89-9.09-81.46l5.95,51.67c-1.91,3.63-10.82,5.06-16.46,3.24h-.01c-.87-.11-1.69-.29-2.47-.53-2.36,1.93-4.44,1.9-5.79.95h-.01c-3.72.54-5.71-4.04-3.2-6.98,3.46-28.72-7.47-65.25-27.58-89.7-4.2,13.15-6.68,23.58-15.73,31.45-10.4,9.02-23,11.48-34.66,8.48-.05-.01-.1-.02-.14-.03-8.31-1.55-16.26-5.88-22.74-12.58-.73-.75-1.58-1.31-2.51-1.67h-.01c-5.86-.4-13.37,4.08-16.48,9.36-14.24,24.16,5.99,41.94,4.94,46.22-1.05,4.26-7.25,4.69-16.07,2.52-.02,0-.04,0-.05-.01-7.06-1.39-16.24-4.75-25.96-9.32l16.16-44.89c10.3-28.62,27.62-55.77,56.6-61.77,15.13-3.13,30.93-2.78,45.94.76,12.46,2.61,24.44,7.41,35.13,14.24,5.48,3.5,9.8,7.59,13.14,12.21-1.02-3.24-2.08-6.47-3.18-9.7-20.37-18.01-38.92-28.27-55.72-32.38-.03,0-.05-.01-.08-.02-60.19-12.44-97.31,55.02-113.88,127.46,2.78,5,8.11,8.6,15.99,10.8,16.13,3.21-16.36,50.58-20.27,52.47-2.91,1.41-61.1,8.71-63.92,7.14.01-.13.01-.25.01-.38-1.43.02-2.36-.04-2.66-.21.36-4.71-4.18-11.76-10.7-18.97,3.24,4.59,3.91,10.41,1.31,16.48-2.86,6.7-12.3,14.77-19.1,18.94,1.03-.63.26-.99-1.68-1.21-.33.22-.65.42-.97.62.44-.27.55-.49.38-.67-7.53-.66-28.57.38-35.91-1.87h-.02c-1.86-.31-3.32-.71-4.22-1.25-7.33-4.4-12.39-13.97-7.81-23.64,5.51-11.67,20.55-17.98,25.47-15.89.14.06.27.12.41.19.03,0,.06.01.08.01.84.01,1.57.14,2.16.39,2.21.93,4.41,3.62,6.96,7.29,4.2-1.16,2.43-6.83,6.21-10.3,1.27-1.17,2.81-.83,4.41-.17,1.86-.13,4.02,1.36,6.06,2,.19.06.38.11.57.15.07.01.13.03.2.04,4.9.9,8.97,2.74,12.03,5.22-10.53-10.67-24.27-20.83-31.69-23.38h-.03c-.5-.03-.93.01-1.3.13-31.28,10.04-42.28,20.92-34.07,55.57-1.31,1.68-2.65,3.32-4.12,4.84-2.87,2.97-75,24.11-79.76,23.84-3.41-.2-6.52-.68-9.37-1.42-.02,0-.03,0-.05-.01-17.12-3.32-25.49-15.14-35-29.44-4.83-16.34-8.43-24.6-10.97-27.26-3.07,2.85-2.95,20.63-.71,38.63,3.1,24.84,9.34,45.24,19.62,63.85-.08-.22-.16-.45-.23-.67l-14.96-44.85c-3.72-11.16-1.92-22.29-.17-35.04.76,1.09,1.52,2.18,2.28,3.28.12-.89.25-1.79.37-2.69,13.87,19.87,27.45,40.59,46.92,45.66,6.07,1.1,12.7.69,20.07-1.68l52.94-17.05c7.34-2.36,15.18-2.59,22.34-.7,9.07,1.7,17.32,6.68,22.52,14.94,1.4,2.23,3.74,8.34,7.33,10.3.22-.02.45-.05.68-.11,8.48-2.49,14.13-12,20.33-18.21,20.77-20.84,65.64-35.68,95.44-28.36,2.9.57,5.67,1.34,8.29,2.31,15.29,5.68,24.54,26.24,19.19,41.82-2.41,4.96-16.25,7.92-16.85,17.05-.38,5.81,2.89,10.37,6.77,14.28,1.37,1.38,2.84,2.33,4.37,2.89,4.06.33,8.21-1.82,11.36-5.74,22.48-27.94,71.28-44.36,109.21-35.17.04.01.08.01.11.03,11.57,2.43,22.23,7.16,30.96,14.58,24.24,20.6,20.53,92.13-15.03,107l-28.13,11.77c-3.46,1.45-5.59,3.65-6.09,5.38-.84,2.92,3.77,12.13,9.96,14.56,1.48.08,3.01-.28,4.55-1.23,2.45-1.51,6.77-1.92,9.01-.84h.01c1.73.09,3.22.59,3.81,1.56,6.47,10.59,3.5,19.14-2.95,26.33-.51-.64-1.04-1.26-1.58-1.84-.34.42-.7.84-1.07,1.25-7.42-9.29-17.31-12.55-26.32-17.83-.76-3.27-2-5.07-3.8-5.9-5.12-.23-13.17,3.25-24.93,4.79-1.26,3.84-3.35,12.43-10.14,12.04-10.09-.57-20.47-4.03-31.78-.27-5.64,1.88-6.59,14.99-1.84,22.52l-56.37,27.49c-6.79,3.31-13.95,6.74-21.95,8.91l-84.62,22.92c-.25-.38-.49-.75-.75-1.1l-1.9.51c-2.37-3.71-5.09-5.84-8.33-6.86-13.49-1.85-35.25,10.43-74.51,9.33-4.14-.12-7.99-.62-11.54-1.52-16.16-3.07-26.54-13.56-30.21-31.77-1.23-6.1,1.54-21.49,8.75-22.36,31.71-3.82,59.02-9.19,50.13-26.35-3.01-5.79-7.21-9.17-12.34-10.65-11.66-1.84-27.41,4.66-44.59,14.31-2.21,1.24-5.34,1.21-8.86.2-.01,0-.02,0-.03-.01-14.46-2.17-38.98-24.85-27.8-43.97,6.39-10.92,17.37-16.17,27.77-20.3l19.46-7.74c22.49-8.94,45.43,1.19,43.12-10.46-1.7-8.59-7.11-14.04-13.73-16.02-.01,0-.02-.01-.02-.01-2.84-.43-5.82-.26-8.77.52-6.12,1.63-12.51,1.4-18.78-.19-11.42-2.18-22.65-9.06-31.48-17.75,6.05,7.63,12.93,15.14,20.72,22.74-1.95,7.92-2.92,11.87-2.92,11.87-63.65,20.47-49.2,60.35-4.07,93.19-4.67,44.07,15.47,68.06,46.85,75.64t.02,0s.06.01.09.02.05.01.08.02c15.67,3.24,33.93,2.57,53.19-1.56l1.91.74h.01c.24-.05.49-.1.73-.15l6.47,2.52c2.21,5.43,4.43,10.86,6.65,16.28,2.24-3.55,10.17-6.58,22.78-7.17l5.07-.25c4.58-.21,7.29.31,8.82,2.23,1.55,1.94.31,6.71-4.1,6.68l-13.88-.21c-4.61,8.69,3.39,19.64,14.01,21.24,5.39.81,12.03-1.45,17.53,3.09-7.43,3.26-13.23,2-18.27,2.11-1.76,3.35-2.14,10.44-.23,13.98,1.74,3.23,4.57,6.34,9.26,7.31,4.41.93,12.12,8.06,22.76,10.52-5.28,5.14-12.53,3.6-17.56-2.54-5.01,2.75-9.85.6-10.32-3.18-21.12-2.6-17.29-23.69-32.12-44.63,7.72,18.87,15.45,37.7,23.21,56.5-17.27,97.19-58.44,188.11-122.51,262.08-8.3,15.18-4.53,21.54,9.94,31.88,71.44,31.74-17.18,44.68-57.61,48.14-73.57,15.78-14.59,36.62,22.36,45.04.9.2,1.78.4,2.65.59l3.04,8.82c2.57.37,5.29,1.53,8.56,2.95,1.55.67,2.83.27,2.16,1.25l145.92,7.87c1.78-3.7,4.52-7.81,4.84-10.05.01-.06.02-.12.02-.18l-2.81-.43-5.13-.79c-21.14-1.46-72.44-.03-72.99-4.23l-60.59-11.21-56.19-13.48c-4.92-1.18-7.87-3.76-14.88-3.24,2.88-5.75,6.69-7.47,13.15-8.43l33.98-5.06c6.52-.97,11.14-3.67,19.35-1.45-5.24,3.7-5.95,8.13-3.64,13.16,1.65,3.63,4.66,7.83,10.54,9.2l60.06,13.97c4.69,1.1,8.62,1.69,12.13,1.3,7.01-.79,9.7,5.33,22.08,4.42,7,3.51,22.03,2.14,32.64,4.38l4.36.67c3.75.26,6.55.61,7.95,1.1h0c0,.05,0,.08-.01.12h.01l.05-.1,13.37-26.9c1.52-3.25,4.89-12.85,8.41-12.35,27.8,6.44,58.2-1.42,69.04-24.81,10.43-22.5,14-46.96,16.07-71.99l3.63-43.97,5.28-62.29c17.51-3.27,37.12-6.23,57.15-8.19l18.2,115.12c4.31,27.2,21.12,50.48,40.21,44.48,10.45-3.28,19.54-9.71,31.82-10.23.52,14.03,1.8,30.09,10.97,40.9,6.47,7.62,19.46,7.39,28.77,6.92l18.25-.92c41.27-9.1,79.6-22.89,117.71-39.92,11.24-5.02,24.13-7.08,32.89-15.29l15.97-13.28c-.01-2.06-1.43-4.37-1.3-6.52ZM567.94,171.97c2.13.11,3.98.93,4.9,2.57,3.22,5.76,9.18,8.88,16.76,10.75,5.06,1.02,10.73,1.59,16.71,2.08.13.14.26.27.39.4.75.07,1.5.13,2.26.19,1.37,1.42,2.5,2.36,3.45,2.92,3.05-.78,4.19-7.34,11.01-9.51,1.29-.41,2.47-.17,3.55.41,3.07-.3,5.46,2.91,7.25,4.73,8.9-6.46-5.41-18.3,11.23-30.14l.8,2.01c.57-.47,1.18-.95,1.85-1.42l6.68,16.8c8.77,22.06,2.45,47.59-17.27,61.14-6.84,4.7-13.42,5.44-19.54,3.69-23.73-3.83-41.4-46.59-43.43-48.11-.19-.14-.41-.26-.65-.36-2.98-.3-7.02-.07-10.45-1.15-3.77-.55-7.32-2.02-8.77-6.48-2.65-8.15,7.96-12.85,13.27-10.52ZM710.56,467.11c-8.62-2.47-19.32-3.19-26.71-1.12-1.93.54-4.46,4.06-10.63,2.83-4.88-.98-5.48-6.7-1.47-8.88,1.58-.86,4.84-.57,6.5-.93l20.32-22.45c23.17-37.51,10.32-100.72-28.39-125.21-24.94-15.78-57.8-19.56-85.1-9.28l-38.03,14.31c-3.5-33.92-34.79-49.57-34.79-49.72.33-7.3,12.4-18.84,24.45-29.11,13.07-11.13,38.73-15.51,45.05-7.89l13.79,16.62c8.64,10.43,23.85,17.04,37.14,12.16,28.65-10.52,48.97-2.55,72.1,10.64,5.26,3,12.13,6.04,16.13,10.05l45.69,45.78c20.13,20.18,30.81,45.57,42.89,70.97,28.59,60.17,30.33,149.41-21.93,180.68-27.52,16.46-61.3,21.64-92.45,15.24-14.3-2.94-20.17-13.49-22.98-26.13-7.76-35-5.86-75.43,14.13-77.34l30.93-2.96c4.89-3.49-.83-16.6-6.64-18.26ZM580.15,537.76c5.4-.68,6.11,3.46,5.7,4.72l12.64.18c.79,2.27.67,3.56.78,3.84,1.37,1.29,10.74,2.92,12.03.05,4.76-10.63-4.17-19.42-12.41-21.02-2.4-.47-4.96-3.29-8.78-5.07l-13.24-6.18c3.62-3.26,12.11-3.88,16.2-.96,8.97,6.42,19.19-.39,19.87,7.29,6.56.02,11.94,5.16,21.55,4.8.88-5.61.36-9.78-.22-13.11-4.35-1.48-7.63-5.31-13.1-11.26,2.16-2.95,7.04-3.98,9.97,1.8,2.97-.44,8.19.58,7.86,5.13,25.22,3.33,11.48,25.41,20.84,52.34,5.39,15.52-20.9,15.17-54.97,11.44-1.34,2.87-1.65,1.74-1.61-.26l-13.9-2.25-5.71-.69-2.21-2.17,2.21-2.17h4.4l15.62,1.82c-.26-5.43-2.17-10.13-4.72-14.59-1.58.5-5.75-4.57-7.81-4.63-5.9,1.51-9.34-.51-10.29-4.36-9.6,3.05-8.87-7.05-.7-4.69ZM425.99,1023.33l-3.68,8.13c-1.41,3.1-1.56,14.24-8.94,14.19-12.04-.09-23.49-2.12-33.68-4.4-.46-.1-.91-.2-1.36-.3-.9-.19-1.78-.39-2.65-.59l-75.44-17.12c-2.72-.62-2.09-9.54,1-11.52,8.58-5.53,24.15-4.48,33.63-11.94,6.55-5.15,11.67-5.2,17.6-3.66.01.01.02.01.04.01,3.39.59,6.95,1.91,11.14,3.24l57.26,18.22c4.08,1.3,6.14,3.42,5.08,5.74ZM523.12,873.44c-2.93,41.18-4.27,95.27-22.12,117.91-13.76,17.44-37.69,19.32-58.26,14.45-.08-.02-.16-.04-.24-.05-3.63-.76-7.18-1.73-10.56-2.87l-111.78-37.63-40.29-17.49,14.18-19.09c4.61-6.21,8.79-11.22,13.51-17.37,42.29-55.13,70.72-116.31,87.16-183.04l11.56-46.94c-1.04-2.86,1.86-4.37,3.79-2.63h.01c1.13-.44,2.68.03,3.56,1.82l27.1,55.56,23.6,50.88c7.34,15.83,2.74,23.68,7.35,29.48,2.16,2.71,4.73,4.41,8.24,5.41h.03c1.24.22,2.6.37,4.07.48l39.83,2.8-.03.4,2.68.19-3.39,47.73ZM699.77,968.19c-3.08.47-4.3-10.65.06-12.35l13.49-5.25,45.07-21.14c4.57-2.14,10.92-4.79,15.66-2.94h.01c1.77.68,3.3,1.99,4.44,4.17,1.98,3.81,2.33,15.66-.25,20.21-4.76,8.4-19.85,8.21-29.9,9.77l-47.41,7.35-1.17.18ZM860.54,947.57l-50.02,21.36c-3.6,1.53-6.93,3.55-10.18,4.04-.95.93-2.39,1.93-4.15,2.96-.87.87-1.95,1.41-3.1,1.69t-.02.01c-10.59,5.37-27.49,10.87-29.79,10.47-5.86-1.03-4.82,2.97-18.18,3.06l-1.27.03c.58,1.78-8.62,3.49-12.12,3.41l-27.31-.67c4.41-8.82,10.54-9.08,18.02-9.07l13.68-1.8c-.72-.93,3.41-.81,5.29-.9l20.91-1.04c3.85-.19,14.25-5.31,23.87-8.27,2.24-2.84,5.03-4.47,7.2-5.25-1.27-10.7-1.33-18.17.74-29.22.87.31,1.74.61,2.6.88,4.22,1.4,8.32,2.48,12.38,3.33.02.01.04.01.06.01,16.47,3.45,32.25,3.18,52.22,4.62l-.83.35Z"/>
  <path class="cls-9" d="M259.01,311.56c-17.12-3.32-25.49-15.14-35-29.44-4.83-16.34-8.43-24.6-10.97-27.26,2.41-2.23,6.78,4.69,13.62,27.85,9.01,13.54,16.99,24.86,32.35,28.85Z"/>
  <path class="cls-9" d="M387.68,228.61c-.5-.03-.93.01-1.3.13-31.28,10.04-42.28,20.92-34.07,55.57-1.31,1.68-2.65,3.32-4.12,4.84-2.87,2.97-75,24.11-79.76,23.84-3.41-.2-6.52-.68-9.37-1.42,2.1.41,4.34.69,6.72.83,4.76.27,76.89-20.87,79.76-23.84,1.47-1.52,2.81-3.16,4.12-4.84-8.21-34.65,2.79-45.53,34.07-55.57.92-.29,2.27-.11,3.95.46Z"/>
  <path class="cls-9" d="M618.29,77.35c-60.19-12.44-97.31,55.02-113.88,127.46,2.78,5,8.11,8.6,15.99,10.8,16.13,3.21-16.36,50.58-20.27,52.47-2.91,1.41-61.1,8.71-63.92,7.14.01-.13.01-.25.01-.38,11.95-.13,58.66-6.09,61.26-7.35,3.91-1.89,36.4-49.26,20.27-52.47-7.88-2.2-13.21-5.8-15.99-10.8,16.81-73.49,54.78-141.87,116.53-126.87Z"/>
  <path class="cls-7" d="M809.5,395.88c-12.08-25.4-22.76-50.79-42.89-70.97l-45.69-45.78c-4-4.01-10.87-7.05-16.13-10.05-23.13-13.19-43.45-21.16-72.1-10.64-13.29,4.88-28.5-1.73-37.14-12.16l-13.79-16.62c-6.32-7.62-31.98-3.24-45.05,7.89-12.05,10.27-24.12,21.81-24.45,29.11,0,.15,31.29,15.8,34.79,49.72l38.03-14.31c27.3-10.28,60.16-6.5,85.1,9.28,38.71,24.49,51.56,87.7,28.39,125.21l-20.32,22.45c-1.66.36-4.92.07-6.5.93-4.01,2.18-3.41,7.9,1.47,8.88,6.17,1.23,8.7-2.29,10.63-2.83,7.39-2.07,18.09-1.35,26.71,1.12,5.81,1.66,11.53,14.77,6.64,18.26l-30.93,2.96c-19.99,1.91-21.89,42.34-14.13,77.34,2.81,12.64,8.68,23.19,22.98,26.13,31.15,6.4,64.93,1.22,92.45-15.24,52.26-31.27,50.52-120.51,21.93-180.68ZM573.98,294.66c-13.18-3.1-11.06-30.76-3.84-43.97,4.74-8.66,17.59,9.24,3.84,43.97Z"/>
  <path class="cls-7" d="M604.87,571.75c-1.34,2.87-1.65,1.74-1.61-.26l-13.9-2.25-5.71-.69-2.21-2.17,2.21-2.17h4.4l15.62,1.82c.01.18.01.36.02.54.03-.25.05-.44.06-.53h-.08c-.26-5.44-2.17-10.14-4.72-14.6-1.58.5-5.75-4.57-7.81-4.63-5.9,1.51-9.34-.51-10.29-4.36-9.6,3.05-8.87-7.05-.7-4.69,5.4-.68,6.11,3.46,5.7,4.72l12.64.18c.79,2.27.67,3.56.78,3.84,1.37,1.29,10.74,2.92,12.03.05,4.76-10.63-4.17-19.42-12.41-21.02-2.4-.47-4.96-3.29-8.78-5.07l-13.24-6.18c3.62-3.26,12.11-3.88,16.2-.96,8.97,6.42,19.19-.39,19.87,7.29,6.56.02,11.94,5.16,21.55,4.8.88-5.61.36-9.78-.22-13.11-4.35-1.48-7.63-5.31-13.1-11.26,2.16-2.95,7.04-3.98,9.97,1.8,2.97-.44,8.19.58,7.86,5.13,25.22,3.33,11.48,25.41,20.84,52.34,5.39,15.52-20.9,15.17-54.97,11.44Z"/>
  <path class="cls-7" d="M441.03,661.48c-5.28,5.14-12.53,3.6-17.56-2.54-5.01,2.75-9.85.6-10.32-3.18-21.12-2.6-17.29-23.69-32.12-44.63-1.25-3.06-2.51-6.12-3.75-9.18,2.24-3.55,10.17-6.58,22.78-7.17l5.07-.25c4.58-.21,7.29.31,8.82,2.23,1.55,1.94.31,6.71-4.1,6.68l-13.88-.21c-4.61,8.69,3.39,19.64,14.01,21.24,5.39.81,12.03-1.45,17.53,3.09-7.43,3.26-13.23,2-18.27,2.11-1.76,3.35-2.14,10.44-.23,13.98,1.74,3.23,4.57,6.34,9.26,7.31,4.41.93,12.12,8.06,22.76,10.52Z"/>
  <path class="cls-7" d="M267.37,542c3.47,17.2,12.91,27.51,27.56,31.18-16.16-3.07-26.54-13.56-30.21-31.77-1.23-6.1,1.54-21.49,8.75-22.36,31.71-3.82,59.02-9.19,50.13-26.35-3.01-5.79-7.21-9.17-12.34-10.65,6.34,1.01,11.48,4.48,14.99,11.24,8.89,17.16-18.42,22.53-50.13,26.35-7.21.87-9.98,16.26-8.75,22.36Z"/>
  <path class="cls-7" d="M279.86,425.13l-19.46,7.74c-10.4,4.13-21.38,9.38-27.77,20.3-10.52,17.99,10.58,39.15,25.15,43.38-14.46-2.17-38.98-24.85-27.8-43.97,6.39-10.92,17.37-16.17,27.77-20.3l19.46-7.74c22.49-8.94,45.43,1.19,43.12-10.46-1.7-8.59-7.11-14.04-13.73-16.02,7.79,1.19,14.45,6.9,16.38,16.61,2.31,11.65-20.63,1.52-43.12,10.46Z"/>
  <path class="cls-7" d="M361.51,303.6c-6.42-1.21-13.25-.78-19.69,1.29l-52.94,17.05c-8.46,2.72-15.95,2.86-22.72,1.09,6.07,1.1,12.7.69,20.07-1.68l52.94-17.05c7.34-2.36,15.18-2.59,22.34-.7Z"/>
  <path class="cls-7" d="M650.15,319.6c-37.52-7.84-84.6,8.47-106.56,35.76-3.84,4.79-9.17,6.93-14.01,5.15,4.06.33,8.21-1.82,11.36-5.74,22.48-27.94,71.28-44.36,109.21-35.17Z"/>
  <path class="cls-7" d="M507.81,282.16c-29.75-5.85-72.62,8.72-92.79,28.95-6.2,6.21-11.85,15.72-20.33,18.21-1.21.29-2.32.07-3.33-.48.22-.02.45-.05.68-.11,8.48-2.49,14.13-12,20.33-18.21,20.77-20.84,65.64-35.68,95.44-28.36Z"/>
  <path class="cls-7" d="M365.3,287.29c.41.25.94.46,1.57.66-1.86-.31-3.32-.71-4.22-1.25-7.33-4.4-12.39-13.97-7.81-23.64,5.51-11.67,20.55-17.98,25.47-15.89.14.06.27.12.41.19-6.24-.06-18.4,6.06-23.23,16.29-4.58,9.67.48,19.24,7.81,23.64Z"/>
  <path class="cls-9" d="M904.35,936.77c-2.88.1-4.91-1.75-6.12-5.85l6.12,5.85Z"/>
  <path class="cls-4" d="M914.06,943.79c-.02-2.9-2.81-6.28-.17-9.03,3.54,1.67,3.12,6.57.17,9.03Z"/>
  <path class="cls-2" d="M219.24,277.37c-.12.9-.25,1.8-.37,2.69,13.72,19.71,27.48,39.37,47.29,42.97-19.47-5.07-33.05-25.79-46.92-45.66ZM295.16,397.98c-5.26,1.4-10.71,1.43-16.13.4,6.27,1.59,12.66,1.82,18.78.19,2.95-.78,5.93-.95,8.77-.52-3.58-1.06-7.52-1.1-11.42-.07ZM264.02,495.77c-1.64.92-3.78,1.14-6.21.79,3.52,1.01,6.65,1.04,8.86-.2,17.18-9.65,32.93-16.15,44.59-14.31-11.87-3.42-28.72,3.32-47.24,13.72ZM303.82,574.11c-3.14-.09-6.1-.4-8.89-.93,3.55.9,7.4,1.4,11.54,1.52,39.26,1.1,61.02-11.18,74.51-9.33-13.25-4.18-35.22,9.91-77.16,8.74ZM384.03,318.54c-5.2-8.26-13.45-13.24-22.52-14.94,8.01,2.12,15.18,6.9,19.87,14.35,1.73,2.74,4.86,11.33,9.98,10.89-3.59-1.96-5.93-8.07-7.33-10.3ZM516.1,284.47c-2.62-.97-5.39-1.74-8.29-2.31,1.95.47,3.83,1.05,5.64,1.72,15.29,5.68,24.54,26.24,19.19,41.82-2.41,4.96-16.25,7.92-16.85,17.05-.38,5.81,2.89,10.37,6.77,14.28,2.15,2.16,4.57,3.27,7.02,3.48-1.53-.56-3-1.51-4.37-2.89-3.88-3.91-7.15-8.47-6.77-14.28.6-9.13,14.44-12.09,16.85-17.05,5.35-15.58-3.9-36.14-19.19-41.82ZM659.31,472.41c-.59-.97-2.08-1.47-3.81-1.56.51.24.91.57,1.16.97,6.1,9.99,3.81,18.16-1.88,25.08.54.58,1.07,1.2,1.58,1.84,6.45-7.19,9.42-15.74,2.95-26.33ZM681.22,334.21c-8.73-7.42-19.39-12.15-30.96-14.58,10.55,2.58,20.25,7.14,28.31,13.99,24.24,20.6,20.53,92.13-15.03,107l-28.13,11.77c-3.46,1.45-5.59,3.65-6.09,5.38-.95,3.32,5.14,14.79,12.61,15.15-6.19-2.43-10.8-11.64-9.96-14.56.5-1.73,2.63-3.93,6.09-5.38l28.13-11.77c35.56-14.87,39.27-86.4,15.03-107Z"/>
  <path class="cls-7" d="M623.59,474.42c-5.12-.23-13.17,3.25-24.93,4.79-1.26,3.84-3.35,12.43-10.14,12.04-10.09-.57-20.47-4.03-31.78-.27-5.64,1.88-6.59,14.99-1.84,22.52l-56.37,27.49c-6.79,3.31-13.95,6.74-21.95,8.91l-84.62,22.92c-.25-.38-.49-.75-.75-1.1l82.72-22.41c8-2.17,15.16-5.6,21.95-8.91l56.37-27.49c-4.75-7.53-3.8-20.64,1.84-22.52,11.31-3.76,21.69-.3,31.78.27,6.79.39,8.88-8.2,10.14-12.04,14.03-1.84,22.79-6.43,27.58-4.2Z"/>
  <path class="cls-7" d="M678.57,333.62c-8.06-6.85-17.76-11.41-28.31-13.99-.03-.02-.07-.02-.11-.03-37.52-7.84-84.6,8.47-106.56,35.76-3.84,4.79-9.17,6.93-14.01,5.15-2.45-.21-4.87-1.32-7.02-3.48-3.88-3.91-7.15-8.47-6.77-14.28.6-9.13,14.44-12.09,16.85-17.05,5.35-15.58-3.9-36.14-19.19-41.82-1.81-.67-3.69-1.25-5.64-1.72-29.75-5.85-72.62,8.72-92.79,28.95-6.2,6.21-11.85,15.72-20.33,18.21-1.21.29-2.32.07-3.33-.48-5.12.44-8.25-8.15-9.98-10.89-4.69-7.45-11.86-12.23-19.87-14.35-6.42-1.21-13.25-.78-19.69,1.29l-52.94,17.05c-8.46,2.72-15.95,2.86-22.72,1.09-19.81-3.6-33.57-23.26-47.29-42.97-1.61,11.64-2.92,21.98.54,32.35l14.96,44.85c5.67,17.01,24.61,36.03,44.66,41.12,5.42,1.03,10.87,1,16.13-.4,3.9-1.03,7.84-.99,11.42.07,0,0,.01.01.02.01,7.79,1.19,14.45,6.9,16.38,16.61,2.31,11.65-20.63,1.52-43.12,10.46l-19.46,7.74c-10.4,4.13-21.38,9.38-27.77,20.3-10.52,17.99,10.58,39.15,25.15,43.38.01.01.02.01.03.01,2.43.35,4.57.13,6.21-.79,18.52-10.4,35.37-17.14,47.24-13.72,6.34,1.01,11.48,4.48,14.99,11.24,8.89,17.16-18.42,22.53-50.13,26.35-7.21.87-9.98,16.26-8.75,22.36,3.47,17.2,12.91,27.51,27.56,31.18,2.79.53,5.75.84,8.89.93,41.94,1.17,63.91-12.92,77.16-8.74,4.08.56,7.41,2.43,10.23,6.35l82.72-22.41c8-2.17,15.16-5.6,21.95-8.91l56.37-27.49c-4.75-7.53-3.8-20.64,1.84-22.52,11.31-3.76,21.69-.3,31.78.27,6.79.39,8.88-8.2,10.14-12.04,14.03-1.84,22.79-6.43,27.58-4.2,3.29.15,5.36,1.81,6.45,6.49,8.39,4.91,17.53,8.08,24.74,15.99,5.69-6.92,7.98-15.09,1.88-25.08-.25-.4-.65-.73-1.16-.97h-.01c-2.15-.12-4.69.4-6.36,1.43-2.49,1.53-4.95,1.53-7.2.64-7.47-.36-13.56-11.83-12.61-15.15.5-1.73,2.63-3.93,6.09-5.38l28.13-11.77c35.56-14.87,39.27-86.4,15.03-107ZM482.11,425.24c-27.19,12.33-35.1,52.09-45.88,34.08-2.65-4.42-5.01-10.88-1.61-16.06l8.69-13.22c9.17-13.95,22.7-24.79,38.35-28.56,5.56-1.34,10.16,5.91,10.61,9.44.73,5.65-2.79,10.97-10.16,14.32Z"/>
  <path class="cls-7" d="M725.79,706.54l-38.53,35.59c-14.25,13.17-30.62,22.25-48.23,31.28-48.16,24.69-101.72,33.12-154.88,29.87l-17.74-39.74-18.41-38.44-15.29-32.27-2.54-9.11c1.59.41,3.14.77,4.66,1.09.08.02.15.03.22.05,17.9,4.23,31.37,1.82,33.54-9.87,1.37-7.4-3.64-16.75-11.35-24.4,7.33-24.09-13.14-31.09-14.16-37.93-1.36-8.99,2.8-17.81-6.09-27.73l60.04-18.95,36.97-15.86,16.08-9.47c7.18,14.79,4.16,29.05,20.62,38.96,10.12,6.09,21.26,10.34,33.01,12.88.21.05.41.1.62.15,20.33,4.78,42.59,4.38,64.6-.47,7.88,11.04,22.83,16.26,34.21,25.48,7.97,8.96,8.84,26.08,11.25,37.07l11.4,51.82Z"/>
  <path class="cls-2" d="M434.83,684.81c-1.52-.32-3.07-.68-4.66-1.09h-.01l-.04-.16c1.6.46,3.17.88,4.71,1.25Z"/>
  <path class="cls-2" d="M603.71,592.49c-11.75-2.54-22.89-6.79-33.01-12.88-16.46-9.91-13.44-24.17-20.62-38.96l1.81-1.07c8.27,15.38,4.38,30.34,21.46,40.62,9.36,5.63,19.58,9.7,30.36,12.29Z"/>
  <path class="cls-2" d="M728.44,707.13l-38.53,35.59c-14.25,13.17-30.62,22.25-48.23,31.28-48.9,25.07-103.37,33.38-157.34,29.71l-.19-.43c53.16,3.25,106.72-5.18,154.88-29.87,17.61-9.03,33.98-18.11,48.23-31.28l38.53-35.59-11.4-51.82c-2.41-10.99-3.28-28.11-11.25-37.07-11.38-9.22-26.33-14.44-34.21-25.48.65-.14,1.3-.29,1.95-.44,7.65,11.75,23.18,17.01,34.91,26.51,2.6,2.92,4.45,6.72,5.83,10.88t0,.02c2.02,6.04,3.08,12.87,4.09,18.96,0,.03,0,.06.02.09.42,2.54.84,4.95,1.31,7.12l11.4,51.82Z"/>
  <path class="cls-7" d="M523.83,825.52l-3.36,47.33c-2.93,41.18-4.27,95.27-22.12,117.91-13.18,16.7-35.67,19.13-55.61,15.04-.08-.02-.16-.04-.24-.05-2.71-.65-5.35-1.42-7.91-2.28l-111.78-37.63-40.29-17.49,14.18-19.09c4.61-6.21,8.79-11.22,13.51-17.37,42.29-55.13,70.72-116.31,87.16-183.04l11.56-46.94c-.59-1.62.09-2.81,1.14-3.22,0,0,.01-.01.01,0,.34.3.66.71.91,1.23l27.1,55.56,23.6,50.88c7.34,15.83,2.74,23.68,7.35,29.48,2.67,3.35,5.97,5.15,10.89,6h.03c1.93.56,4.14.89,6.72,1.07l37.15,2.61Z"/>
  <path class="cls-2" d="M479.93,821.84c-4.92-.85-8.22-2.65-10.89-6-4.61-5.8-.01-13.65-7.35-29.48l-23.6-50.88-27.1-55.56c-.25-.52-.57-.93-.91-1.23,1.13-.44,2.68.03,3.56,1.82l27.1,55.56,23.6,50.88c7.34,15.83,2.74,23.68,7.35,29.48,2.16,2.71,4.73,4.41,8.24,5.41Z"/>
  <path class="cls-2" d="M526.51,825.71l-3.39,47.73c-2.93,41.18-4.27,95.27-22.12,117.91-13.76,17.44-37.69,19.32-58.26,14.45,19.94,4.09,42.43,1.66,55.61-15.04,17.85-22.64,19.19-76.73,22.12-117.91l3.36-47.33,2.68.19Z"/>
  <path class="cls-2" d="M818.61,872.87l-29.28,18.03-21.79,11.14-50.19,24.46-68.88,28.26c-1.77.72-3.76.6-5.72-.13h-.02c-4.66-1.71-9.06-6.74-9.52-11.56-3.55-10.56-5.59-19.33-6.95-29.17l-14.46-104.51c28.42-7.48,52.66-20.53,76.92-37.88,5.67-4.06,9.61-10.73,17.68-12.44l20.65-18.34c.09-.08.17-.14.26-.2,3.06-2.04,6.41,7.17,8.02,9.68l17.1,26.57,16.43,22.81,13.82,17.33c.72.91,1.45,1.82,2.17,2.75.02.03.04.06.06.09,4.95,6.37,9.75,13.12,14.44,19.54.17.21.32.43.48.64,4.08,5.57,8.08,10.87,12.02,15.45.03.04.06.08.09.11.47.55.93,1.08,1.4,1.6,2.02,2.26,5.48,5.61,7,8.85.02.02.02.03.02.04,1.21,2.58,1.19,5.07-1.75,6.88Z"/>
  <path class="cls-9" d="M807.94,931.36c-37.1-7.74-30.38-25.08,20.17-52.02l-.09-4.11c-2.57-3.07-5.11-6.15-7.66-9.24,0-.01,0-.02-.02-.04-1.52-3.24-4.98-6.59-7-8.85-.47-.52-.93-1.05-1.4-1.6-.03-.03-.06-.07-.09-.11-4.08-5.12-8.08-10.27-12.02-15.45-.16-.21-.31-.43-.48-.64-4.69-6.42-9.49-13.17-14.44-19.54-.02-.03-.04-.06-.06-.09-21.44-29.8-40.88-60.54-58.34-92.23,5.97-6.37,9.54-12.97,10.72-19.79-6.29-6.48-15.75-36.19-21.5-59.46-.01-.03-.01-.06-.02-.09-1.01-6.09-2.07-12.92-4.09-18.96t0-.02c-.84-4.91-1.14-8.38-.73-9.63,2.17-6.6,3.67-10.21,11.4-11.98,50.51.08,87.98-25.98,102.9-74.33,33.35-108.06-41.42-224.54-126.82-285.89-.66-27.75-3.69-54.89-9.09-81.46v-.04s-2.14-18.52-2.14-18.52c-.16-1.38-.35-2.75-.57-4.09,8.78,33.91,13.6,68.81,14.45,104.7,85.4,61.35,160.17,177.83,126.82,285.89-14.92,48.35-52.39,74.41-102.9,74.33-7.73,1.77-9.23,5.38-11.41,11.98-2.21,6.69,16.19,77.7,26.35,88.16-1.18,6.82-4.75,13.42-10.72,19.79,28.53,51.79,62.36,101.05,101.51,147.79l.09,4.11c-49.32,26.28-56.92,43.42-22.82,51.43Z"/>
  <path class="cls-9" d="M682.76,129.34c-1.45-3.51-3.25-6.82-5.49-9.89-1.02-3.24-2.08-6.47-3.18-9.7-20.37-18.01-38.92-28.27-55.72-32.38,17.49,3.63,36.92,14.01,58.37,32.97,2.15,6.3,4.15,12.63,6.02,19Z"/>
  <path class="cls-7" d="M692.58,216.91c-1.63,3.1-8.36,4.59-13.81,3.83h-.01c-.75-.24-1.43-.53-2.04-.89-.15.13-.29.25-.43.36-.82-.25-1.57-.56-2.22-.95-1.3,1.17-2.5,1.75-3.57,1.9h-.01c-1.83-1.3-2.36-4.27-.55-6.39,3.58-29.69-8.22-67.72-29.64-92.13-.2.62-.4,1.23-.59,1.84-.67-.82-1.36-1.63-2.06-2.43-4.57,14.02-6.85,25.06-16.32,33.29-9.61,8.34-21.11,11.07-32.01,9.07-.05-.01-.1-.02-.14-.03-7.34-1.92-14.3-6.01-20.09-11.99-1.38-1.42-3.17-2.13-5.16-2.26h-.01c-6.01-2.4-15.52,2.65-19.13,8.77-14.24,24.16,5.99,41.94,4.94,46.22-.94,3.82-6.02,4.56-13.42,3.11-.02,0-.04,0-.05-.01-6.64-1.63-14.77-4.71-23.31-8.73l16.16-44.89c10.3-28.62,27.62-55.77,56.6-61.77,14.25-2.95,29.08-2.81,43.29.17,11.51,2.72,22.55,7.31,32.48,13.65,9.13,5.82,15.01,13.29,18.63,22.1-.91-3.11-1.86-6.21-2.84-9.3,2.24,3.07,4.04,6.38,5.49,9.89.01.01.01.03.01.04,1.34,4.57,2.6,9.15,3.79,13.76,0,0,0,.03,0,.04.22,1.34.41,2.71.57,4.09l2.13,18.52c-1.57-7.78-3.36-15.52-5.35-23.2.22,1.34.41,2.71.57,4.09l8.09,70.23Z"/>
  <path class="cls-6" d="M547.44,159.49c-14.24,24.16,5.99,41.94,4.94,46.22-1.05,4.26-7.25,4.69-16.07,2.52,7.4,1.45,12.48.71,13.42-3.11,1.05-4.28-19.18-22.06-4.94-46.22,3.61-6.12,13.12-11.17,19.13-8.78-5.86-.39-13.37,4.09-16.48,9.37Z"/>
  <path class="cls-6" d="M639.71,124.48c-4.2,13.15-6.68,23.58-15.73,31.45-10.4,9.02-23,11.48-34.66,8.48,10.9,2,22.4-.73,32.01-9.07,9.47-8.23,11.75-19.27,16.32-33.29.7.8,1.39,1.61,2.06,2.43Z"/>
  <path class="cls-6" d="M676.29,220.21c-2.36,1.93-4.44,1.9-5.79.95,1.07-.15,2.27-.73,3.57-1.9.65.39,1.4.7,2.22.95Z"/>
  <path class="cls-6" d="M680.11,128.75c-3.62-8.81-9.5-16.28-18.63-22.1-9.93-6.34-20.97-10.93-32.48-13.65,12.46,2.61,24.44,7.41,35.13,14.24,5.48,3.5,9.8,7.59,13.14,12.21.98,3.09,1.93,6.19,2.84,9.3Z"/>
  <path class="cls-6" d="M686.56,143.14c-1.19-4.61-2.45-9.19-3.79-13.76,1.77,4.28,2.99,8.88,3.79,13.76Z"/>
  <path class="cls-6" d="M695.23,217.5c-1.91,3.63-10.82,5.06-16.46,3.24,5.45.76,12.18-.73,13.81-3.83l-8.09-70.23c-.16-1.38-.35-2.75-.57-4.09,1.99,7.68,3.78,15.42,5.35,23.2v.04s5.96,51.67,5.96,51.67Z"/>
  <path class="cls-7" d="M423.34,1022.74l-3.68,8.13c-1.41,3.1-1.56,14.24-8.94,14.19-11.01-.08-21.52-1.79-31.03-3.81-.46-.1-.91-.2-1.36-.3l-75.44-17.12c-2.72-.62-2.09-9.54,1-11.52,8.58-5.53,24.15-4.48,33.63-11.94,5.56-4.37,10.08-5.07,14.95-4.25.01.01.02.01.04.01,2.61.68,5.37,1.66,8.49,2.65l57.26,18.22c4.08,1.3,6.14,3.42,5.08,5.74Z"/>
  <path class="cls-1" d="M425.99,1023.33l-3.68,8.13c-1.41,3.1-1.56,14.24-8.94,14.19-12.04-.09-23.49-2.12-33.68-4.4,9.51,2.02,20.02,3.73,31.03,3.81,7.38.05,7.53-11.09,8.94-14.19l3.68-8.13c1.06-2.32-1-4.44-5.08-5.74l-57.26-18.22c-3.12-.99-5.88-1.97-8.49-2.65,3.39.59,6.95,1.91,11.14,3.24l57.26,18.22c4.08,1.3,6.14,3.42,5.08,5.74Z"/>
  <path class="cls-3" d="M563.44,188.97c3.43,1.08,7.47.85,10.45,1.15-2.23-.99-6.46-.55-10.45-1.15ZM572.84,174.54c-.92-1.64-2.77-2.46-4.9-2.57.96.42,1.74,1.08,2.25,1.98,3.59,6.41,10.57,9.56,19.41,11.34-7.58-1.87-13.54-4.99-16.76-10.75ZM608.96,187.96c-.76-.06-1.51-.12-2.26-.19,2.69,2.7,4.39,3.45,5.71,3.11-.95-.56-2.08-1.5-3.45-2.92ZM626.97,181.78c2.78,1.46,4.85,5.12,6.31,5.34.34-.2.66-.4.94-.61-1.79-1.82-4.18-5.03-7.25-4.73ZM654.78,173.76l-6.68-16.8c-.67.47-1.28.95-1.85,1.42l5.88,14.79c8.77,22.06,2.45,47.59-17.27,61.14-5.87,4.03-11.54,5.15-16.89,4.28,6.12,1.75,12.7,1.01,19.54-3.69,19.72-13.55,26.04-39.08,17.27-61.14Z"/>
  <path class="cls-7" d="M652.13,173.17l-5.88-14.79c-14.14,11.75.07,23.27-10.32,29.33-.5-.08-1.06-.55-1.71-1.2-.28.21-.6.41-.94.61-1.46-.22-3.53-3.88-6.31-5.34-.29.03-.59.08-.9.18-8.47,2.69-8.17,12.15-13.66,8.92-1.32.34-3.02-.41-5.71-3.11-6.2-.54-12.02-1.23-17.1-2.48-8.84-1.78-15.82-4.93-19.41-11.34-.51-.9-1.29-1.56-2.25-1.98-5.52-.27-12.88,4.16-10.62,11.11,1.1,3.39,3.42,5.05,6.12,5.89,3.99.6,8.22.16,10.45,1.15,1.39.14,2.55.39,3.3.95,1.96,1.46,18.39,41.13,40.78,47.52,5.35.87,11.02-.25,16.89-4.28,19.72-13.55,26.04-39.08,17.27-61.14ZM641.69,219.1c-1.34,2.45-2.4,5.87-8.29,8.02-16.26,5.9-33.43-10.7-34.39-23.6-.22-2.92,3.62-5.67,7.42-2.27,1.22,3.15,2.15,9.47,8.28,11.96,14.23,5.77,33.49-5.97,26.98,5.89Z"/>
  <path class="cls-7" d="M421.52,271.55c-2.73,6.39-11.43,14.02-18.13,18.32-.19-.02-.38-.04-.59-.05-1.52-1.61-25.18-.09-35.91-1.87h-.02c-.63-.2-1.16-.41-1.57-.66-7.33-4.4-12.39-13.97-7.81-23.64,4.83-10.23,16.99-16.35,23.23-16.29.03,0,.06.01.08.01,2.23,1.23,4.39,4.12,7.02,7.89.83.03,1.52-.05,2.1-.21.18.26.36.53.55.8,6.89.22,4.01-6.56,8.31-10.51.55-.5,1.14-.72,1.76-.76,1.39.56,2.82,1.34,4.18,1.6.65.12,1.27.25,1.88.4.19.06.38.11.57.15,12.9,3.4,19.12,13.68,14.35,24.82Z"/>
  <path class="cls-8" d="M389.92,255.05c-.58.16-1.27.24-2.1.21-2.63-3.77-4.79-6.66-7.02-7.89.84.01,1.57.14,2.16.39,2.21.93,4.41,3.62,6.96,7.29Z"/>
  <path class="cls-8" d="M402.8,289.82c-7.53-.66-28.57.38-35.91-1.87,10.73,1.78,34.39.26,35.91,1.87Z"/>
  <path class="cls-8" d="M406.6,246.58c-.61-.15-1.23-.28-1.88-.4-1.36-.26-2.79-1.04-4.18-1.6,1.86-.13,4.02,1.36,6.06,2Z"/>
  <path class="cls-9" d="M436.22,274.84c-1.43.02-2.36-.04-2.66-.21.36-4.71-4.18-11.76-10.7-18.97-.94-1.34-2.1-2.57-3.46-3.66h0c-10.53-10.68-24.27-20.84-31.69-23.39,10.57.65,48.82,32.59,48.51,46.23Z"/>
  <path class="cls-8" d="M424.17,272.14c-2.86,6.7-12.3,14.77-19.1,18.94,1.03-.63.26-.99-1.68-1.21,6.7-4.3,15.4-11.93,18.13-18.32,4.77-11.14-1.45-21.42-14.35-24.82.07.01.13.03.2.04,4.9.9,8.97,2.74,12.03,5.22h0c1.36,1.1,2.52,2.33,3.46,3.67,3.24,4.59,3.91,10.41,1.31,16.48Z"/>
  <path class="cls-9" d="M482.11,425.24c-27.19,12.33-35.1,52.09-45.88,34.08-2.65-4.42-5.01-10.88-1.61-16.06l8.69-13.22c9.17-13.95,22.7-24.79,38.35-28.56,5.56-1.34,10.16,5.91,10.61,9.44.73,5.65-2.79,10.97-10.16,14.32Z"/>
  <path class="cls-9" d="M573.98,294.66c-13.18-3.1-11.06-30.76-3.84-43.97,4.74-8.66,17.59,9.24,3.84,43.97Z"/>
  <path class="cls-9" d="M641.69,219.1c-1.34,2.45-2.4,5.87-8.29,8.02-16.26,5.9-33.43-10.7-34.39-23.6-.22-2.92,3.62-5.67,7.42-2.27,1.22,3.15,2.15,9.47,8.28,11.96,14.23,5.77,33.49-5.97,26.98,5.89Z"/>
</svg>