<?xml version="1.0" encoding="UTF-8"?>
<svg id="Capa_1" xmlns="http://www.w3.org/2000/svg" version="1.1" xmlns:xlink="http://www.w3.org/1999/xlink" viewBox="0 0 362 324">
  <!-- Generator: Adobe Illustrator 30.3.0, SVG Export Plug-In . SVG Version: 2.1.3 Build 182)  -->
  <defs>
    <style>
      .st0 {
        fill: #010101;
      }

      .st1 {
        fill: url(#Degradado_sin_nombre);
      }

      .st2 {
        fill: #ff7bac;
      }

      .st3 {
        fill: #ed1e79;
      }

      .st4 {
        fill: #fefefe;
      }
    </style>
    <radialGradient id="Degradado_sin_nombre" data-name="Degradado sin nombre" cx="180.6" cy="179.29" fx="180.6" fy="179.29" r="75.73" gradientTransform="translate(0 326) scale(1 -1)" gradientUnits="userSpaceOnUse">
      <stop offset="0" stop-color="#fcebf4"/>
      <stop offset=".45" stop-color="#f9d1e4"/>
      <stop offset="1" stop-color="#f6bad6"/>
    </radialGradient>
  </defs>
  <path class="st4" d="M342.94,284.25c-25.26,34.61-71.94,34.92-108.12,14.48-10.94,26.37-39.25,26.6-63.47,19.54-24.28-6.62-49.55-15.86-57.1-43.15-17.15,13.83-41.44,15.85-59.96,3.49-21.06-14.05-26.22-43.33-22.44-66.92-17.16-12.44-24.38-18.12-31.85-37.23l2.72,1.43,5.29,10.66c6.84,9.44,15.34,17.59,25.5,24.45-9.36,50.07,30.7,95.2,79.12,63.24l2.06-.47c5.93,13.32,12.09,22.56,24.86,30.19,16.41,9.8,48.66,19.13,67.61,15.22,13.58-2.8,20.37-10.43,27.24-21.97,30.85,15.33,70.24,21.23,97.77-3.94,27.65-25.28,24.78-64.84-8.24-83.28-1.98-2.08-1.2-2.9.9-4.89,20.55-14.81,41.2-39.38,32.08-66.21-4.32-12.69-16.36-21.07-29.71-21.18-2.81-.84-3.83-1.17-2.79-3.97,15.65-18,24.27-45.42,3.12-62.67-18.19-14.84-46.66-25.6-69.46-17.6-2.63.45-5.12-.07-7.16-1.82-15.02-16.19-34.97-25.59-56.58-29.16-.5-.81-.42-1.63.11-2.48h.02c.19.69.93.86,1.98,1.03,21.22,3.37,40.43,12.99,55.12,28.48,5.67,5.98,11.45-2.82,27.81-.71,17.65,2.28,34.86,8.93,48.53,19.97,13.67,11.04,17.4,26.44,12.17,41.86-3.18,9.38-8.31,17-14.92,25.1,18.73-.64,33.14,12.13,35.52,30.34,3.44,26.36-16.41,47.61-36.63,62.08,29.21,13.73,37.72,50.29,18.9,76.09Z"/>
  <path class="st4" d="M168.52.01l-1.95,2.48c-26.71,5.45-51.58,19.96-54.74,49.5-.43,1.94-1.52,2.52-3.31,1.7C55.51,23.65,3.28,78.74,37.56,129.83c1.04,2.76.19,3.21-2.46,4.57-13.73,4.79-26.52,11.77-32.34,25.81l-2.76,1.29c7.51-17.61,17.87-22.79,36.7-29.83-15-19.56-16.08-46.14-2.52-66.63,17.09-23.96,51.57-28.18,75.85-12.33C113.5,18.3,140.25,6.27,168.52.01Z"/>
  <path class="st0" d="M342.94,284.25c-25.26,34.61-71.94,34.92-108.12,14.48-10.94,26.37-39.25,26.6-63.47,19.54-24.28-6.62-49.55-15.86-57.1-43.15-17.15,13.83-41.44,15.85-59.96,3.49-21.06-14.05-26.22-43.33-22.44-66.92-17.16-12.44-24.38-18.12-31.85-37.23v-12.96c7.51-17.61,17.87-22.79,36.7-29.83-15-19.56-16.08-46.14-2.52-66.63,17.09-23.96,51.57-28.18,75.85-12.33C113.5,18.3,140.25,6.27,168.52.01h25.94c.19.69.93.86,1.98,1.03,21.22,3.37,40.43,12.99,55.12,28.48,5.67,5.98,11.45-2.82,27.81-.71,17.65,2.28,34.86,8.93,48.53,19.97,13.67,11.04,17.4,26.44,12.17,41.86-3.18,9.38-8.31,17-14.92,25.1,18.73-.64,33.14,12.13,35.52,30.34,3.44,26.36-16.41,47.61-36.63,62.08,29.21,13.73,37.72,50.29,18.9,76.09Z"/>
  <path class="st3" d="M232.34,292.36c-3.17,10.02-7.93,17.41-16.97,21.58-7.32,3.38-15.55,5.03-23.99,3.9-16.72-2.25-33-6.87-48.01-14.42-11.66-5.86-20.57-15.36-24.4-27.59-.94-2.99-.02-6.38-3.35-8.13-15.57,16.64-40.7,19.82-59.28,7.05-19.91-13.68-24.52-43.81-19.65-66.03-10.71-4.74-23.99-17.18-29.1-27.53-6.27-12.69-2.97-26.4,8.53-34.58,7.32-5.21,15.52-8.64,24.16-11.49,1.25-.41,2.27-1.18,2.5-2.12.31-1.27-.55-1.74-1.62-3-16.46-19.44-16.76-49.68,1.68-68.26,17.96-18.1,47.54-18.64,67.19-3.46,1.19.92,1.82,1.55,2.79,1.11.58-.26,1.45-1.19,1.43-2.2-.25-18.55,9.72-34.53,26.52-43.18,35.88-18.48,80.59-10.25,108.29,19.06,7.29,7.72,16.24-2.97,32.86.19,14.93,2.84,29.3,8.33,41.31,17.25,13.79,10.24,18.43,26.54,11.65,42.21-4.33,9.99-10.83,18.28-18.66,25.94-.7.68-1.23,1.74-1,2.41,1.59,4.53,7.41-3.66,19.51-.11,14.01,4.11,22.64,16.82,22.02,31.67-.56,13.51-7,25.43-16.08,35.43-6.75,7.44-14.58,13.11-22.69,19.02-.97.71-1.11,1.72-.9,2.71.45,2.15,9.93,2.26,19.14,12.35,16.72,18.33,16.51,44.81.19,63.54-13.55,15.55-33.21,23.35-54.22,22.6-17.6-.71-33.38-6.35-49.83-15.9l-.02-.02Z"/>
  <path class="st0" d="M161.17,244.09c-19.17-4.55-67.68-15.06-73.64-33.95l-4-58.58c-.39-5.76.92-11.96,1.95-17.32,2.27-11.76,10.72-19.71,21.61-23.46,19.06-6.56,38.84-7.77,58.06-1.61l18.63,5.98c1.46-9.69,6.92-15.7,13.14-21.87,17.54-17.37,42.9-20.25,63.81-7.07,9.28,5.85,14.35,14.07,16.06,25.06,5.54,35.78,4.86,59.36-4.59,94.25-1.59,5.86-5.17,10.93-7.34,16.46-3.15,7.99-8.82,13.44-15.2,18.75-9.2,7.66-19.93,11.53-32.27,11.03-38.27-1.57-19.64,1.02-56.23-7.67h0Z"/>
  <path class="st1" d="M104.99,169.89c-8.77-6.77-11.33-15.27-11.62-25.31-.28-9.52,1.38-17.9,9.71-23.65,22.4-15.45,57.48-10.49,80.95,2.96,1.82,1.04,3.71.7,5.15.13,5.38-2.13-2.55-12.5,18.61-29.84,13.66-11.2,32.22-13.04,46.87-2.98,17.64,12.11,14.31,33.64,8.74,51.51-3.59,10.61-8.14,20.36-13.8,30.1l-20.92,36-59.42-11c-23.45-4.34-45.62-12.72-64.26-27.91h0Z"/>
  <path class="st2" d="M226.86,244.86c-25.58.81-30.52,1.38-54.46-4.62l-19.84-4.98c-15.39-3.86-29.84-9.13-44.46-15.2-6.57-2.73-12.43-8.64-12.98-15.83-.87-11.3-1.46-22.26-1.07-33.28,23.37,18.9,49.56,30.3,78.29,32.72l56.51,11.58-1.99,29.62h0Z"/>
  <path class="st2" d="M235.77,240.7c.23-9.95.08-28.93,4.09-36.03l25.05-44.39c2.78-4.92,2.89-10.28,7.16-15.17-.55,16.22-1.34,31.72-4.65,47.52-2.81,13.4-14.83,44.13-31.65,48.08h0Z"/>
</svg>