<?xml version="1.0" encoding="UTF-8"?>
<svg id="Capa_1" data-name="Capa 1" xmlns="http://www.w3.org/2000/svg" viewBox="0 0 406.48 201.82">
  <defs>
    <style>
      .cls-1 {
        fill: #b4e430;
      }

      .cls-2 {
        fill: #f8f2ac;
      }

      .cls-3 {
        fill: #fdb044;
      }

      .cls-4 {
        fill: #3a3a3a;
      }

      .cls-5 {
        fill: #ff4390;
      }

      .cls-6 {
        fill: #b7e231;
      }

      .cls-7 {
        fill: #575757;
      }

      .cls-8 {
        fill: #555;
      }

      .cls-9 {
        fill: #984d38;
      }

      .cls-10 {
        fill: #852e1b;
      }

      .cls-11 {
        fill: #f6f3ab;
      }

      .cls-12 {
        fill: #64260f;
      }

      .cls-13 {
        fill: #fefefe;
      }

      .cls-14 {
        fill: #fdb046;
      }
    </style>
  </defs>
  <path class="cls-13" d="M215.77,3.1c-2.16-.21-3.6-1.51-4.29-3.1h-7.98c-.67,1.53-2.08,2.7-4.22,2.75l.3,1.15c9.09.94,18.15,1.14,27.19.6l.32-.58c-3.8-.21-7.58-.46-11.32-.82h0Z"/>
  <path class="cls-13" d="M9.33,39.93c3.8-2.15,8.35-5.45,7.08-9.4-2.16.73-4.28,1.52-6.41,2.25-.18,2.38-.41,4.77-.67,7.15Z"/>
  <path class="cls-13" d="M.51,19.46c-.02-.72-.04-1.44-.08-2.16-.14.2-.29.39-.43.58v2.68c.18-.36.35-.73.51-1.1Z"/>
  <path class="cls-13" d="M6.51,100.34c.02.08.05.15.06.22.01.05.03.11.04.16.02-1.52-.1-3.1-.39-4.74.17-2.03.35-4.03.53-6.04-.67,3.48-.98,6.91-.24,10.4Z"/>
  <path class="cls-13" d="M31.63,152.41c-1.8-2.45-4.8-4-6.75-7.06l-10.72-16.77c-4.35-6.81-7.81-14.8-8.13-22.78.05-.07.11-.14.15-.21.02-.02.03-.04.04-.06l.8.64c.02.1.04.21.07.31,2.77,13.42,11.16,27.49,19.29,38.44,2.85,2.25,4.6,4.74,5.25,7.49Z"/>
  <path class="cls-13" d="M39.41,156.43l-.22,1.75c-2.63-2.28-5.38-2.76-7.54-5.74,0-.01-.01-.01-.02-.02.01,0,.02-.01.03-.01.17-.08.35-.13.52-.15.96-.18,1.88.26,2.77,1.33l3.54,2.26.92.58Z"/>
  <path class="cls-13" d="M405.84,105.94c-.7,13.06-4.28,21.11-13.43,30.94-4.76,5.11-8.8,10.64-13.68,15.34-2.48,2.39-4.28,5.41-7.4,6.93h0s-4.29,4.08-4.29,4.08l-7.81,4.8c-8.23,5.05-15.92,8.91-24.51,11.94v-.02h0c-14.86,5.24-29.81,10.43-45.7,13.54-9.99,1.95-19.66,2.74-29.17,4.28h0s-14.01,2.26-14.01,2.26c-3.76.61-7.46,1.62-11.52.98-3.57-.56-6.97.51-10.43.61-7.09.2-13.95.34-21.01-.04-3.2-.17-19.2-1.58-20.94-1.29-2.82.48-5.53-.67-8.19-.61-4.91.11-9.07-.79-13.42-1.64-2.74-.54-5.96-.11-9.12-.55-8.57-1.17-16.74-2.68-25.43-3.11-15.96-.8-30.81-5.45-45.51-11.33-1.89-.76-3.93-1.87-5.38-2.29-6.65-1.96-24.21-12.57-28.84-16.61l-6.83-5.95s-.01,0-.02-.02h.03s1.58-.58,1.58-.58c9.64,9.02,21.28,16.05,33.41,21.32.13.05.27.11.4.17l.26,1.64h0s.02,0,.02,0l1.53-1.02c17.97,8.25,37.47,13.17,57.52,13.85,8.42,1.48,16.78,2.41,25.07,2.79.11.01.23.02.34.02l.95,1.65.03-.02,1.88-1.13c31.71,3.34,64.83,5.6,96.34-.43l1.28,1.31h.01s.02-.02.02-.02l3.33-2c22.9-2.23,45.36-7.67,66.96-15.77,0,0,1.52-.01,4.55-.01v-.02s1.3-1.36,1.3-1.36l1-1.06c10.28-4.29,19.99-9.45,29.12-15.49,1.73-2.41,3.46-3.38,5.2-2.9l.07-1.74c.25-.19.49-.39.73-.59,1.77-1.46,3.38-3.1,4.82-4.93l.37.07,1.41.26.71-2.83c8.63-8.47,15.84-17.71,21.63-27.72,1.65-5.68,2.47-8.52,2.47-8.52-.06-3.05.7-5.45,2.28-7.19h.01s-.96-1.25-.96-1.25c.01-.17.02-.33.02-.5.05-1.1.08-2.21.09-3.34.02-1.95-.02-3.92-.11-5.92v-.03l-1.96-2.01c-5.17-17.97-17.07-36.4-31.54-47.89l-.08-1.8c-.27-.24-.55-.46-.82-.69.06.02.11.05.17.07t.02.02h0c.23.12.45.23.68.34-.02.09-.02.16-.05.26,2.84,1.73,4.82,3.02,7.26,5.8,11.38,12.99,23.1,28.98,26.32,45.91l.02-.04c0,.07.01.13.01.2.4,2.18.69,4.61,1.41,6.93.56,1.81-.41,2.75-.47,3.95Z"/>
  <path class="cls-4" d="M29.87,52.61c-3.41,3.07-6.56,6.33-9.4,9.81-8.87,10.87-14.35,24.34-11.83,38.37l-1.03,2.24h0s-.01.03-.01.03v.02c.27,1.36.35,2.88-.04,3.32-.11.13-.26.17-.47.08-.23-.11-.53-.4-.91-.89.02-.02.03-.04.04-.06.66-1.02.95-2.33.6-3.87-.09-.37-.17-.74-.26-1.11-.01-.07-.04-.14-.06-.22-.85-4.02-.32-7.97.57-12.01.11-.56.15-1.09.11-1.59.02-.07.03-.13.04-.2.31-1.68.82-3.3,1.46-4.87.63-1.56,1.38-3.08,2.16-4.57,2.81-5.39,5.76-11.26,9.4-16.25.36-.22.68-.48.96-.77.13-.13.25-.25.36-.39.13-.15.24-.3.35-.46h.01s.04-.04.06-.06c.94-.81,2.02-1.64,2.91-2.54h.01c1.68-1.31,3.34-2.65,4.97-4.01Z"/>
  <path class="cls-4" d="M138.92,8.15c-9.31,1.76-18.48,4.1-27.9,5.16-.09.04-.18.09-.28.12-9.14,3.57-19.27,4.86-28.06,9.29-8.19,4.12-17.16,6.12-25.25,10.44-4.14,2.21-7.82,4.62-11.59,7.41-3.38,2.5-7.22,4.33-10.35,7.16-.69.62-1.38,1.23-2.08,1.84C66.49,22.45,120.79,11.63,160.08,6.92l2.31-1.7c1.21-.12,2.24-.25,3.12-.4-8.92.3-17.86,1.69-26.6,3.34h.01Z"/>
  <path class="cls-5" d="M404.97,100.84c-.04,1.14-.11,2.26-.22,3.36-.01.11-.02.22-.03.33l-1.02.14h-.07s.01.02.01.03c.01.02.01.04.02.06.2.52.37,1.05.45,1.58.56,3.85-7.01,15.39-9.73,19.04-2.7,3.62-11.23,13.71-14.73,15.35-.97.46-1.95.72-3.04.61h-.03s0,.02-.01.03h0s-.01.04-.01.06c-.7,3.13-4.59,6.08-8.01,6.46-.48.06-.96.07-1.41.01-.02,0-.04,0-.06-.01-.02.01-.03,0-.05,0-.01.02-.02.03-.03.05-.32.63-.67,1.24-1.1,1.8-.44.56-.86,1.09-1.4,1.41-9.63,5.67-19.12,10.53-29.5,14.72-.43.18-.93.22-1.45.22-.18.01-.36,0-.54,0-.7-.01-1.4-.12-2.1-.27h0s-.03-.01-.05-.01c-.03.02-.05.04-.08.06-.79.67-1.61,1.32-2.48,1.88-.89.57-1.77,1.12-2.73,1.45-18.9,6.44-39.62,11.23-59.43,13.76-1.01.13-2.04.03-3.09-.09-1.03-.12-2.04-.34-3.05-.59-.03-.01-.07-.02-.1-.03l-.09.04-4.38,1.99c-30.45,3.27-61.14,4.68-91.51.8l-1.35-1.14-.04-.04s-.05.01-.07.02c-.06.02-.12.04-.18.06-.03.01-.05.01-.08.02-.13.03-.26.07-.39.11-.01,0-.03.01-.05.02-.63.17-1.26.32-1.9.41-.89.13-1.76.25-2.59.14-25.6-3.43-51.8-8.1-75.77-17.71l-2-1.76-.07-.06s-.05.01-.08.01c-.04,0-.09.01-.13.01-.77.09-1.53.14-2.29.1-.08,0-.17,0-.25-.02-7.07-.58-24-10.44-30.84-14.41-.64-.37-1.16-.97-1.7-1.6-.46-.54-.87-1.13-1.24-1.74h0c-.06-.09-.11-.17-.15-.25-.02-.02-.03-.04-.04-.06-.02,0-.03,0-.05,0-3.42.58-8.33-3.27-8.88-6.66,0-.02-.01-.03-.01-.05h-.05c-.22.03-.44.05-.67.05-.72.03-1.44-.05-2.08-.4-4.48-2.46-12.57-12.38-15.66-16.89-3.32-4.86-7.17-10.94-7.74-16.85-.07-.62-.09-1.24-.07-1.86.01-.48.04-.95.11-1.42v-.04s.01-.03.01-.04h0c-1.03-4.2-1.3-8.49-.92-12.75.12-.67.25-1.33.4-2,.11-.56.15-1.09.11-1.59.02-.07.03-.13.04-.2.3-1.67.82-3.28,1.44-4.84.63-1.56,1.38-3.08,2.16-4.57,2.81-5.39,5.76-11.26,9.4-16.25.01-.01.01-.02.02-.03.34-.22.66-.47.94-.74.13-.13.25-.25.36-.39.13-.15.25-.3.35-.46h.01s.02-.04.03-.05c.02-.01.03-.03.05-.04.94-.81,2.02-1.64,2.91-2.54,2.91-2.26,5.73-4.6,8.5-7.02.7-.62,1.4-1.24,2.1-1.87,2.34-2.12,5.08-3.67,7.73-5.36,0-.02.01-.02.02-.02.88-.57,1.76-1.16,2.6-1.78,3.77-2.79,7.45-5.2,11.59-7.41,8.09-4.32,17.06-6.32,25.25-10.44,1.92-.97,3.91-1.78,5.94-2.51.21-.07.43-.14.64-.21,1.5-.49,3.01-.96,4.51-1.42.38-.13.77-.24,1.15-.36,3.73-1.06,7.5-2.01,11.18-3.17.12-.03.24-.06.36-.09,2.88-.77,5.75-1.48,8.59-2.15.11-.03.22-.05.33-.08,7.9-1.19,15.67-3.09,23.54-4.58.77-.15,1.55-.29,2.32-.43.45-.07.89-.14,1.33-.2,7.11-1.07,13.8-1.83,19.83-2.31.01,0,.03-.01.04-.01.35-.1.7-.19,1.06-.26h.03c.07-.02.15-.04.22-.05,1.67-.08,3.33-.15,5-.15,4.26-.01,8.48-.36,12.7-.76,1.64.08,3.29.11,4.93,0,3.01-.2,5.95-.8,8.93-1.12,1.27-.05,2.54-.08,3.81-.08h.14c.1,0,.19-.01.28-.01.11-.01.22-.03.32-.04.12-.02.24-.04.35-.06.11-.02.22-.05.33-.08h.01c4.92.91,12.89-.05,15.61.67,1.94.51,3.7.51,5.37.35.04,0,.09,0,.13,0,12.61.88,25.52.95,37.87,3.22,14.06,2.59,28.18,4.66,41.93,8.65,6.64,1.93,13.2,4.15,19.87,5.99,5.93,1.63,11.36,4.01,17.19,5.95,5.86,1.95,11.58,4.74,17.24,7.21,5.18,2.26,9.84,5.53,14.85,7.98t.02.02h0c.21.21.42.39.62.6h0c2.84,1.73,4.82,3.02,7.26,5.8,11.38,12.99,23.1,28.98,26.32,45.91l.02-.04c0,.07.01.13.01.2.11,1.97.14,3.89.07,5.78Z"/>
  <path class="cls-10" d="M261.19,195.79l-1.33,1.94-.02.03-14.01,2.27c-3.76.61-7.46,1.62-11.52.98-3.57-.56-6.97.51-10.43.61-7.09.2-13.95.34-21.01-.04-3.2-.17-19.2-1.58-20.94-1.29-2.82.48-5.53-.67-8.19-.61-4.91.11-9.07-.79-13.42-1.64-.56-.16-1.39-.45-1.38-.88,0-.14.03-.42.07-.81.31-2.81,1.55-11.14,1.85-11.6.2-.32.53-.5.89-.62.02-.01.04-.02.05-.02.13-.04.26-.08.39-.11.03-.01.05-.01.08-.02.08-.02.15-.03.23-.05.02,0,.04.01.06.01,9.47,1.28,19.14.93,29,1.73,9.88.8,19.38.36,29.27-.17l10.83-.58c9.65-.52,18.88-1.53,28.14-2.63.03,0,.05-.01.08-.01h0s.01.01.01.01c.8.85.57,1.67-.71,2.48l2.01,11.02Z"/>
  <path class="cls-9" d="M162.5,183.93l-2.17,14.07v.04c-2.75-.54-5.97-.11-9.13-.55-8.57-1.17-16.74-2.68-25.43-3.11-15.96-.8-30.81-5.45-45.51-11.33-1.89-.76-3.93-1.87-5.38-2.29v-.02s-.01-.01-.01-.01l-.66-1.81-.25-.71c1-4.32,1.91-8.63,2.71-12.96.01-.07.03-.15.04-.22l2.5.14h.11s.08.01.08.01c.03.01.06.02.09.03,27.22,10.16,54.31,14.83,82.96,18.71.02.01.03.01.05.01Z"/>
  <path class="cls-9" d="M336.02,178.69l-1.3,1.26h0c-14.86,5.24-29.81,10.43-45.7,13.54-9.99,1.95-19.66,2.74-29.17,4.28h0v-.03c-.22-4.56-1.44-8.99-2.31-13.79l2.35-1.66h.01s.07-.01.1-.01c24.09-2.87,47.86-8.33,70.78-16.41.02,0,.05-.01.07-.02h0s.05-.02.07-.03c.97-.24,1.83-.21,2.58.06.02.07.04.14.06.21,1.16,4.05,1.97,8.22,2.45,12.48.01.04.02.08.02.12Z"/>
  <path class="cls-4" d="M371.34,42.93c-.02.09-.02.16-.05.26h0s0,0,0,0c-1.12-.67-2.23-1.34-3.35-2,.83.46,1.68.9,2.53,1.31.06.04.13.07.19.09h0c.23.12.45.23.68.34Z"/>
  <path class="cls-10" d="M79.4,165.18h-.08c-.39,0-1.4.13-1.47.84-.6,5.21-1.81,9.95-2.96,14.71-.01.01-.01.02-.01.03-6.65-1.96-24.21-12.57-28.84-16.61l-6.83-5.95s-.01,0-.02-.02l-1.05-1.31c.11-.34.23-.68.35-1.02,1.12-3.1,2.51-5.98,4.2-8.63.02.01.03.02.05.03,11.57,7.25,23.82,13.13,36.6,17.91.02,0,.04.01.06.02Z"/>
  <path class="cls-10" d="M372.36,157.65l-1.03,1.49-4.29,4.09-7.81,4.8c-8.23,5.05-15.92,8.91-24.51,11.94v-.04s-1.9-11.52-1.9-11.52c-.23-1.39-.75-2.53-1.98-2.57.02-.01.04-.01.06-.02h0c12.68-4.48,24.65-10.95,36.09-17.88.01,0,.01-.01.02-.01.04-.01.08-.02.12-.03.49-.11,1.12-.22,1.41-.01.04.03.07.06.1.1.46.73,2.73,6.53,3.47,8.8.15.44.23.75.24.86Z"/>
  <path class="cls-10" d="M405.84,105.94c-.7,13.06-4.28,21.11-13.43,30.94-4.76,5.11-8.8,10.64-13.68,15.34-.75.07-1.14-.01-1.42-.29-.19-.18-.32-.45-.46-.82-.7-1.83-.45-7.38-.29-9.68v-.04h.01v-.02s.03-.02.04-.03c12.38-10.15,21.77-21.19,27-36.62h.01l.02-.02s.04-.02.06-.03c.43-.25.77-.41,1.05-.47.04-.02.09-.02.13-.02.67-.1.91.44.95,1.76h.01Z"/>
  <path class="cls-10" d="M33.32,151.87l-1.14.39-.53.18s-.01-.01-.02-.02h0c-1.8-2.46-4.8-4.01-6.75-7.07l-10.72-16.77c-4.35-6.81-7.81-14.8-8.13-22.78.05-.07.11-.14.15-.21.02-.02.03-.04.04-.06.03-.04.06-.09.09-.13.49.03.96-.14,1.09-.53.04-.11.07-.22.09-.33.13-.52.11-.99.11-1.42v-.04c3.73,15.13,14.11,27.86,26.11,37.41h0s.02.02.03.03h.01c.16,3.49.01,7.27-.44,11.35Z"/>
  <path class="cls-9" d="M42.12,151.24l-2.9,6.93v.03s-.02,0-.03-.02c-2.63-2.28-5.38-2.76-7.54-5.74,0-.01,0-.02,0-.03.69-1.82.22-10.52,1.38-11.87.18-.21.4-.25.67-.05,0,.01.03.02.04.03h.01s.01.01.01.02c2.84,2.25,5.81,4.72,8.88,6.66,0,0,.03.01.04.02.07.09.14.18.2.27h0c.64,1.11-.22,2.42-.77,3.75Z"/>
  <path class="cls-9" d="M378.73,152.22c-2.48,2.39-4.28,5.41-7.4,6.93h0s-.01-.03-.01-.03l-4.3-11.19s.04-.02.06-.04c3.23-1.95,6.55-4.1,9.48-6.5h.01c2.36.36.87,8.28,2.15,10.8,0,0,.01.02.01.03Z"/>
  <path class="cls-7" d="M162.7,4.95c-.1.08-.21.16-.29.27l5.75-.46c-1.82.02-3.64.09-5.46.19Z"/>
  <path class="cls-7" d="M195.45,2.85c-.54.06-1.08.11-1.62.18,1.43.11,2.81.17,4.1-.24-.83.01-1.65.02-2.48.06Z"/>
  <path class="cls-8" d="M242.39,4.79l11.37,1.11c-3.76-.5-7.56-.84-11.37-1.11Z"/>
  <path class="cls-9" d="M405.84,105.94h-.01s-.01-.01-.02-.01c-.82-.18-1.61-.51-2.15-1.17-.02-.01-.03-.03-.04-.04h0s.01-.03.01-.04c1.02-3.06-.2-6.83,1.23-9.76,0-.01.01-.01.01-.02.01.05.02.11.03.16.4,2.18.69,4.61,1.41,6.93.56,1.81-.41,2.75-.47,3.95Z"/>
  <path class="cls-12" d="M260.4,38c6.9-.36,13.8,1.38,19.83,5.21,2.75,1.74,5.08,1.53,8.16,1.28l14.79-1.21c7.32-.6,14.84-.76,21.38,2.43,2.73,1.33,5.95,3.42,5.92,6.54-.08,7.18-10.17,11.49-7.86,13.62,7.96,7.35,34.4,8.18,33.94,21.92-.11,3.15-2.02,5.51-5.17,7.66-7.5,5.15-17.16-2.02-24.1-2.89l-1.81.71c-10.83-4.23-23.42-.93-32.69,5.73l-2.29-.23c.86,2.92-5.46,5.92-8.32,5.93.34,3.27-7.79,5.63-9.63,2.98-6.1-1.48-11.75-3.03-18.04-3.87l-2.32,1.25c-10.73-.15-21.25,1.75-31.56,5.7-1.99,1.17-3.72,1.39-5.18.66.07,2.57-4.71,5.39-7.22,5.14,1.15,2.36-3.95,4.95-6.03,3.72-3.76-.38-8.38.31-11.91-1.5l-1.86.78c-12.41-3.92-27.61-.17-38.33,6.96l-2.5.02c.61,2.18-3.86,6.05-5.96,5.92,1.5,1.89-1.25,3.72-3.11,3.64-1.71,8.45-6.86,8.23-10.14,10.04-3.51,1.93-6.12,2.07-9.83,1.49-17.79-2.76-13.66-14.61-25.76-15.23l-14.33-.73c-25.69-1.31-15.16-7.73-26.2-16.45-6.48-5.12-6.69-14.58-1.63-20.53,1.12-1.32,1.01-3.29,2.4-4.26,9.01-6.24,19.49-7.88,30.04-7.48.64-1.89,5.67-3.37,6.87-1.56,1.42-3.13,4.58-3.6,7.47-2.97l1.05-2.07c7.49-2.97,14.77-6.37,21.85-10.22,3.52-1.89,6.31-2.02,8.37-.41,4.09-.57,8.13-.21,12.07.8,1.47-1.05,3.51-1.47,6.11-1.28l4.84-1.83,1.72.69c-.96-2.21,2.83-4.27,4.59-2.84l.84-2.17c6.56-4.18,13.55-7.11,20.97-8.81l2.02,1.24c3.54-.36,7.22.54,11.08-.22,7.58-1.49,11.91,4.13,18.76,3.22.32-2.1,5.61-4.33,6.89-2.3.3-2.36,4.2-4.26,6-3.01.18-.53.39-1.04.68-1.51,2.47-3.96,25.63-11.04,31.05-10.88,1.55.05,2.68.29,4.07,1.16l.02.02Z"/>
  <path class="cls-2" d="M254.53,103.82c8.35,8.99,24.38,18.79,29.65,30.2,1.34,2.91-.37,4.93-2.58,6.54-10.73,7.83-23.87,10.5-37.09,9.29-7.69-.7-14.12-3.63-19.84-8.59-2.05-1.78-4.17-3.16-6.04-5.32-5.49-6.36-11.81-10.11-16.41-15.65,1.68-1.27,4.61-2.21,6.03-3.72l1.79-.76c9.7,4.37,19.53,8.22,29.49,11.54,4.06.36,4.52-.27,1.4-1.89l-24.84-10.93c-1.57-.84-2.1-1.82-.63-3.1,3.53-2.2,7.61-2.74,11.83-4.15,9.02-3.01,18.08-4.69,27.23-3.46h.01Z"/>
  <path class="cls-2" d="M190.31,118.78c.26.71.66,1.5,1.4,2.21l11.1,10.63c3.31,3.17,7.27,5.62,9.86,9.56,3.09,4.71,2.17,11.48-1.57,15.88-5.41,6.37-13.28,9.78-21.72,11.21-10.26,1.74-20.85-2.77-27.62-10.57-3.92-2.94-7.55-5.72-10.7-9.57-4.58-3.8-8.82-7.7-12.5-12.02.39-1.92,2.29-2.23,3.11-3.64l2.68-.22c5.13,2.83,10.27,5.62,15.61,8.04,4.78,2.16,10.32,4.67,15.32,6.07,1.33.38,3.22-.35,4.12-1.32-10.46-5.19-20.81-10.56-31.08-16.11l-.69-2.37c7.69-6.2,17.36-9.02,27.5-9.88,5.66-.48,10.55-.25,15.18,2.12v-.02Z"/>
  <path class="cls-2" d="M327.31,92.56c.64,1.24,2.01,2.38,3.3,3.46,6.38,5.32,12.03,10.58,18.98,15.62-.92,2.76.19,6.43-1.35,8.96-6.41,10.56-23.7,13.09-35.33,13.2-7.22.07-14.16-1.75-19.68-6.61l-20.24-17.82c-.31-.28-.71-1.01-.93-1.26-.11-.13.45-.25.51-.42,3.33-.23,6.8-.97,9.63-2.98l3.21-.85c7.1,3.91,14.37,6.48,21.81,7.7-5.14-4.17-10.66-7.82-16.57-10.95l-.13-1.82c6.48-4.62,13.25-8.15,21.6-8.67,5.39-.34,10.68-.26,15.18,2.46v-.02Z"/>
  <path class="cls-11" d="M128.72,65.72c-6.23.3-11.63,3.42-17.16,6.61-4.57,2.64-9.56,4.06-14.11,6.09-1.57.67-2.76.63-3.56-.12-4.18-5.61-7.57-11.66-10.17-18.17,1.73,6.87,4.22,13.56,7.47,20.07l-1.21,1.19c-2.25.71-4.44,1.65-6.87,1.56-4.01-4.31-8.17-8.58-12.82-12.61-1.4-1.22-2.92-2.04-2.29-4.7,2.58-10.94,11.64-18.65,22.88-20.47,5.64-.91,11.48-.67,17.02.25s9.38,4.2,12.81,8.17c3.61,4.17,8.29,6.78,11.63,11.23-1.36-.45-2.67.84-3.62.89h0Z"/>
  <path class="cls-2" d="M260.4,38c-12.62.66-24.76,5.11-35.79,11.22l-2.32.58c-5.37-6.84-8.03-13.1-9.32-21.49-.28,7.61,2.45,14.99,6.04,21.6l-.41,2.33c-2.32.61-4.44,1.97-6.89,2.3-2.34-3.33-5.46-6.1-8.64-9.13-.85-.81-2.96-.3-3.63-1.76-1.84-4-2.18-10.71,1.59-14.29,8.56-8.12,21.67-11.2,32.93-8.05,3.52.98,6.04,3.16,9.82,3.02,5.82,4.54,11.54,8.78,16.62,13.67h0Z"/>
  <path class="cls-2" d="M181.87,51.53c-8.66.88-16.25,5.59-23.83,9.74l-1.94.48c-3.07-4.08-5.47-8.54-7.21-13.4,1.2,4.96,3.05,9.71,5.56,14.25l-1,1.5c-3.61,2.43-8.18,3.57-12.67,2.42-5.71-6.94-6.64-16.22.03-23.47,8.43-9.15,23.31-12.55,34.78-6.88,6.87,3.39,11.38,9.24,16.54,14.23-2.15.95-11.47-.28-10.27,1.13h0Z"/>
  <path class="cls-14" d="M263.09,8.98c3.13-.63,9.6,2.53,8.51,6.28-1.69,5.78-8.67,4.83-12.79,3.14-3.85-1.58-7.23-2.42-10.7-4.51s-8.02,1.41-11.24.51c-5.98-1.68-11.2-4.23-17.58-1.68-8.3,3.32-14.18-4.93-21.67-.21,4.76-9.68,11.51-.33,21.01-2.79,13.71-3.55,13.78,3.46,23.34,1.02,10.13-2.59,15.04,8.46,26.45,4.77.96-1.04-1.19-2.59-1.97-3.16-1.24-.91-2.86.7-4.39.89-1.26.15-1.46-1.54-1.12-2.07.51-.8.48-1.84,2.15-2.18h0Z"/>
  <path class="cls-14" d="M104.15,25.55c-.96-3.2,3.84-7.52,6.15-6.69,1.45.52,2.14,1.77,2.14,3.24,0,1.31-1.21,3.57-2.87,2.94-1.37-.52.67-1.63.87-2.26.47-1.54-1.8-1.31-2.62-.73-.87.61-1.69,1.6-1.35,2.84.28,1.01,1.61,1.61,2.86,1.8,11.37,1.74,12.9-14.13,30.64-11.8,11.37,1.5,10.09-9.29,25.73-3.56-1.1,6.34-6.29-2.04-13.16,3.34-11.81,9.24-15.33-3.73-29.79,10.54-4.18,4.13-10.5,6.14-15.7,4.1-1.7-.66-2.56-2.69-2.89-3.76h0Z"/>
  <path class="cls-14" d="M346.62,38.11c10.1-.52,10.28,3.95,15.78,11.38-2.3,1.53-4.63-.67-5.55-2.77-5.17-11.78-13.23.41-23.29-10.52-5.49-5.97-16.57-1.32-26.54-4.09-3.39-.94-7.03-2.82-7.1-6.71-.07-3.6,4.05-6.83,7.36-5.63,1.71.62,3.05,2.13,2.45,3.58-.56,1.37-2.68,2.22-4.3,1.44l2.05-2.18c-1.19-1.09-2.47-.87-3.5-.44-1.16.49-1.47,1.64-1.39,2.84s1.05,2.41,2.65,3.02c12.22,4.68,22.21-2.94,33.1,7.81,2.19,2.17,5.21,2.43,8.28,2.27h0Z"/>
  <path class="cls-14" d="M35.92,53.91c7.75.35,6.4-9.94,14.44-12.37,4.14-1.25,8.19-.12,12.56.32s10.61-1.85,11.37-6.53c.37-2.28-3.51-2.73-4.96-2.61-1.82.15-3.75.91-4.66,2.97.81,1.07,2.24.58,3.21,1.33.73.57.12,1.7-.44,2.2-.5.45-1.4.92-2.52.56-1.58-.51-2.71-1.66-3.1-3.19-.29-1.14.27-2.86,1.45-4.13,2.88-3.1,8.13-3.5,11.69-1.22,1.69,1.08,2.65,2.85,2.76,4.28.17,2.13-.91,3.81-2.31,5.36-10.61,11.72-22.52-2.6-28.34,7.61-5.48,9.63-14.16,8.79-13.04,6.46.22-.47.94-1.08,1.87-1.04h.02Z"/>
  <path class="cls-14" d="M387.65,117.39c-2.82,1.1-4.98,2.25-7.47,3.39-.77.35-1.61-1.71-1.27-2.28,2.63-4.49,3.01-2.45,8.15-4.24,2.67-7.92-2.44-9.29,3.82-16.29,7.98-8.93-13.23-19.6-7.66-28.6,1.2-1.95,3.52-2.31,5.36-1.79,1.71.48,4.21,1.76,4.1,4.13-.08,1.85-2.35,2.46-3.61,2.25-1.76-.29-2.6-1.3-3.18-3.07-2.23,5.5,6.43,11.66,8.9,18.51.91,2.54,1.03,7.23-.8,9.34-2.63,3.05-3.68,5.38-3.14,9.77.35,2.87.22,7.57-3.18,8.89h-.02Z"/>
  <path class="cls-14" d="M19.44,93.34c8.92,13.87.6,21.04,7.52,24.76,1.09.58,2.05,4.09.92,3.95-6.38-.81-9.1-7.47-7.9-13.08,2.08-9.72-4.92-12.34-6.85-21.86-.89-4.4-.05-10.05,3.48-12.84,1.69-1.34,3.75-1.71,4.99-1.28,2.17.74,3.44,2.21,3.3,4.72-.05,1-.6,1.88-1.33,2.14-1.43.5-3.34-1.88-3.34-2.46,0-.3.69-.57,1.07-.42.29.11.16.77.82,1.52.76-1.14.4-2.69-1.02-3.4-3.15-1.57-8.19,8.07-1.65,18.25h-.01Z"/>
  <path class="cls-14" d="M156.12,173.88c3.81,3.67,13.29-4.49,20.12,5.1-2.47,4.84-4.71-4.22-11.85-1.32-4.13,1.68-8.86.8-11.91-2.52s-7.28-4.26-11.85-3.54l-11.81,1.86c-4.63.73-9.54-2.32-8.98-7.46.35-3.18,5.68-5.28,7.79-2.72,1.2,1.46-1.57,4.28-3.49,4.06-.27-1.36,1.7-1.36,1.78-3.08-1.72-1.13-3.13.32-3.63,1.53-.63,1.52.54,3.65,2.45,4.18,9.68,2.68,19.34-7.71,31.39,3.91h-.01Z"/>
  <path class="cls-14" d="M214.09,170.07c1.78-.78,4.22-.25,4.64,1.5.26,1.08.1,3.08-1.38,3.58.11-1.55.6-2.98-.4-3.41-.78-.34-3-.18-3.48,1.19-1.14,3.25,3.16,6.15,6.56,5.56,4.22-.73,7.76-2.31,11.31-4.4,16.53-9.74,24.99,3.67,32.84-1.85l-2.99-4.28c1.54-1.23,3.07.09,3.93,1.54.9,1.54.78,3.4,1.18,5.15-12.66,8.75-13.7-8.8-36.28,3.5-4.79,2.61-10.54,4.12-15.53,1.72-1.89-.91-3.2-3.17-3.38-4.71-.23-2,.64-4.08,2.98-5.1h0Z"/>
  <path class="cls-14" d="M306.65,156.1c2.17-.05,3.22.85,3.74,2.32.41,1.16.18,3.81-1.98,3.61-1.55-.15-.37-2.4-.59-3.18-1.08-1.02-4.34-.3-4.45,1.89-.17,3.1,3.41,5.28,6.34,4.05,3.31-1.39,7.18-3.32,9.15-6.36,6.47-9.99,14.91-3.04,20.49-6.5,3.76-2.33,6.18-5.74,9.03-8.96,2.51-2.83,7.81-4.43,9.68.17-3.08-.13-6.02-1.13-8.05,1.41-2.98,3.72-5.71,8.59-10.37,10.44s-13.85-2.25-17.83,3.33c-2.96,4.16-7.02,7.47-12.12,8.85-4.05,1.1-7.64-1.68-8.07-5.78-.32-3.06,1.58-5.22,5.04-5.3h-.01Z"/>
  <path class="cls-14" d="M78.65,153.9c3.73,5.26,6.64,1.28,11.52,2.88.67.22,1.66,2.21.61,2.5-2.85.79-6.07.48-9.16.69-1.83.13-3.29-1.21-4.15-2.58-7.39-11.74-15.3-3.92-25.63-10.98-1.89-1.29-3.46-2.66-3.77-4.29-.43-2.26-.57-4.71,1.33-6.14,1.56-1.17,7.22-2.09,8.19,1.95.23.96.04,2.04-1.81,2.53.25-1.9-.52-2.97-1.55-3.32-1.84-.62-3.66-.13-3.94.93-.55,2.08.18,3.31,1.63,4.54,8.94,7.62,18.99.38,26.73,11.28h0Z"/>
  <path class="cls-14" d="M286.21,173.74c-10.78,2.29-16.28-2.55-14.16-5.3,4.97-6.44,14.12-7.63,21.38-4.87.49,4.8-2.35,9.13-7.22,10.17h0Z"/>
  <path class="cls-14" d="M294.75,24.07c-6.5,4.09-14.53-2.35-14.91-3.36-.43-1.17-1.07-3.25.44-4.03,5.62-2.9,16.55,1.39,16.68,3.87.08,1.56-.74,2.6-2.21,3.53h0Z"/>
  <path class="cls-14" d="M83.08,32.39c-1.35-.33-2.43-.69-2.74-1.51-1.68-4.33,14.27-9.24,19.19-8.29-1.2,8.07-8.75,11.66-16.45,9.8h0Z"/>
  <path class="cls-14" d="M191.2,182.51c-2.28-.57-4.54-.45-5.8-2.26-4.14-5.94,13.15-7.91,17.76-4.95-.57,6.04-6.47,8.58-11.96,7.21h0Z"/>
  <path class="cls-14" d="M112.03,162.58c-2.85,6.31-12.11,4.83-15.85.16-.84-1.05-2.28-1.34-2.34-2.61-.26-5.56,15.69-3.29,18.19,2.45h0Z"/>
  <path class="cls-14" d="M381.15,64.35c-6.78,2.79-12.07-2.47-13.22-8.44-.31-1.62.06-6.13,2.47-5.52,5.93,1.51,9.84,8.04,10.75,13.96Z"/>
  <path class="cls-14" d="M186.74,14.82c-4.91,2.79-11.55,2.35-12.58-1.32-1.1-3.94,9.85-7.7,14.58-5.24,2.28,1.18-.13,5.5-2,6.57h0Z"/>
  <path class="cls-14" d="M378.69,126.5c2.16,5.05-8.2,14.26-12.84,10.85-2.7-5.76,7.21-14.22,12.84-10.85Z"/>
  <path class="cls-14" d="M44.46,134.47c-2.52,1.94-5.9.76-8.15-.53-1.89-1.09-5.06-3.79-3.77-6.79,1.87-4.37,10.14.3,13.36,3.44,1.24,1.21-.08,2.84-1.44,3.88Z"/>
  <path class="cls-14" d="M31.69,61.21c1.35,3.62-3.68,8.11-7.04,8.04-2.48-.92-1.38-5.34-.08-7.03s5.91-4.25,7.12-1.01Z"/>
  <path class="cls-6" d="M215.29,77.65c3.01,3.86,0,10.06-3.61,10.65-9.58-7.41-9.95-17.37-22.28-16.61-14.74.91-21.68,8.12-20.72,8.04-.4.03-.89-.1-.88-.35.3-7.74,16.48-10.18,21.1-11.47,8.72-2.43,16.49-7.1,26.08-5.97,1.66.2,5.45.07,5.62,2.36.19,2.7-3.52,2.75-5.79,4.14,3.77.9,16.51,3.13,14.47,9.09-1.89,5.52-7.65-.58-13.98.12h-.01Z"/>
  <path class="cls-6" d="M148.29,98.06c-4.4.2-8.85,1.4-13.18.87-2.42-.3-3.64.4-4.41,2.09-2.03,4.46,1.53,5.12,1.69,8.25.03.66-1.09,2.12-1.99,1.61-3.74-2.13-5.46-6.86-5.94-10.5-.67-5.05,2.33-8.46,5.07-12.3,9.13-12.8,20.63-12.05,21.61-9.09.51,1.54.35,3.51-.93,4.54l-9.64,7.69,7.53.84c1.73.19,3.1,1.05,3.09,2.5,0,1.75-.75,3.4-2.9,3.5Z"/>
  <path class="cls-6" d="M273.83,63.54c-12.48,8.28-14.6-.72-17.01,11.02-.31,1.53-.82,3.91-2.28,3.91-5.57-3.85-.55-10.41,1.2-14.21-1.68-4.46-1.98-17.14,2.24-17.21,4.6-.07,4.73,7.59,3.98,12.23,2.94-2.92,20.69-14.48,19.15-5.02-.69,4.19-3.74,6.93-7.27,9.27h0Z"/>
  <path class="cls-3" d="M141.67,132.46c1.49-2.6,3.7-4.1,5.96-5.92,9.02,7.1,23.49,11.01,33.13,17.69,1.05,2.3-3.64,4.34-6.03,3.51-13.46-4.66-21.13-8.63-33.05-15.28h-.01Z"/>
  <path class="cls-3" d="M208.25,116.56c2.09-2.22,4.58-3.49,7.22-5.14,0,.78.75,1.61,1.75,1.98,7.05,2.63,13.38,5.88,20.21,9.05,2.44,1.13,6.25,1.75,7.17,4.64.72,2.28-2.48,1.67-3.55,1.74-4.1.25-6.87-1.32-10.31-2.77l-22.5-9.5h.01Z"/>
  <path class="cls-3" d="M282.2,104.71l8.32-5.93,13.02,7.82c3.08,1.85,5.21,4.67,8.38,6.43.57.31-.12,1.49-.48,1.72-.48.31-1.99.4-2.36-.09-2.07-2.76-4.64-1.54-7.17-2.19-6.56-1.69-14.64-7.42-19.7-7.75h-.01Z"/>
  <path class="cls-3" d="M224.61,49.22c-2.05,1.13-3.68,2.4-6,3.01-4.8-8.3-8.12-17.42-7.03-27.69,3.88,2.66,3.81,6.8,4.3,10.56.59,4.52,3.94,7.72,6.14,11.47.74,1.26,1.14,2.78,2.6,2.65h0Z"/>
  <path class="cls-3" d="M97.44,78.43c-2.46,1.09-4.89,2.16-7.47,2.97-1.74-6.54-10.91-19.24-6.89-28.2,2.3,8.64,5.67,15.44,10.67,22.06,1.09,1.45,1.56,3.72,3.68,3.17h.01Z"/>
  <path class="cls-14" d="M158.04,61.27c-1.33.73-3.29,1.96-4.59,2.84-1.29-3.59-9.19-16.5-4.81-20.16,1.65,3.64,6.47,16.4,9.4,17.33h0Z"/>
  <path class="cls-1" d="M186.76,89.59c.27,1.32-.67,3.39-1.95,3.72-2.35-.97-6.79-5.12-5.49-7.66,2.09-2.22,6.92,1.36,7.44,3.94Z"/>
  <path class="cls-1" d="M109.08,85.35c.09,1.85-.43,5.15-2.44,5.94-1.84.72-3.15-2.26-3.29-3.62-.19-1.86,1.16-3.83,3.2-4.3,1.29-.3,2.45.42,2.53,1.98h0Z"/>
  <path class="cls-1" d="M165.79,98.88c.73,1.89-.43,6.56-2.6,7.1-2.56.64-3.16-3.54-2.36-5.15.64-1.29.9-2.17,1.7-2.49s2.65-1.05,3.26.54h0Z"/>
  <path class="cls-1" d="M236.08,50.87c2.44-1.59,7.59,3.79,6.98,6.03-.19.71-1.22,1.95-2.18,1.46-2.78-1.43-4.63-4.35-4.8-7.49Z"/>
  <path class="cls-1" d="M310.86,57.78c-.34,2.63-3.91,6.1-6.1,6.44-2.43-1.76.25-5.22,1.99-6.79,1.09-.98,4.44-2.18,4.12.35h-.01Z"/>
  <path class="cls-1" d="M81.95,109.61c-2.32-.12-4.38-4.2-3.44-5.85,1.22-2.14,4.48-.9,5.35.45s.8,5.54-1.92,5.4h.01Z"/>
  <path class="cls-1" d="M330.76,79.72c.41.87-.68,2.19-1.2,2.48-.88.5-7.7-3.67-5.4-6.17,1.77-1.18,5.72,1.84,6.6,3.69h0Z"/>
  <path class="cls-1" d="M124.44,133.67c-3.03-1.05-1.95-3.26-1.1-5.56.53-1.43,3.21-4.39,4.15-2.29,1.03,2.31-1.86,5.37-3.04,7.85h0Z"/>
  <path class="cls-1" d="M181.51,60.2c.52,2.52-2.99,1.93-3.9,1.22-1.28-1-2.76-1.78-2.32-4.34,1.47.47,5.76.9,6.22,3.12Z"/>
  <path class="cls-1" d="M285.45,88.18c-2.51-1.01-3.08-4.51-2.74-6.75,2.48-.33,3.31.93,3.65,2.29.31,1.25.68,3.69-.91,4.47h0Z"/>
  <path class="cls-1" d="M204.01,104.59c3.16-.42-1.2,6.35-3.34,6.24-.92-2.84.77-5.9,3.34-6.24Z"/>
  <path class="cls-1" d="M65.8,96.32c-.11,1.79-2.47,1.67-3.38.92-1.19-.97-2.92-1.75-2.31-3.91,1.91.4,4.2,1.32,5.69,2.99Z"/>
  <path class="cls-1" d="M242.99,85.65c.61,1.49-1.4,4.3-2.57,4.33-1.72.05-.78-2.87-.5-3.87.25-.9,2.35-2.21,3.07-.46Z"/>
  <path class="cls-12" d="M277.61,137.41c-11.22,11.41-34.75,11.26-36.81,6.64-.58-1.3-.81-3.46.09-4.74,12.4-17.5,38.23-11.34,38.21-5.19,0,1.1-.51,2.3-1.49,3.29h0Z"/>
  <path class="cls-3" d="M239.01,114.1c-1.53.52-2.72,0-3-.94-1.27-4.27,9.78-5.71,13.03-5.86.81-.04,1.39,1.08,1.59,1.54.21.51-.55,1.53-1.33,1.79l-10.28,3.47h-.01Z"/>
  <path class="cls-3" d="M259.17,117.51c-19.78,5.64-11.27-1.57-10.67-1.7,4.26-.93,9.29-2.24,11.59-.03.33.32-.09,1.49-.92,1.73h0Z"/>
  <path class="cls-12" d="M203.56,158.19c-8.04,5.42-26.13,10.86-29.38,2.92-3.76-9.19,11.02-15.46,18.35-17.67,4.45-1.34,11.52-1.8,14.81,2.1s-.19,10.23-3.78,12.65h0Z"/>
  <path class="cls-3" d="M189.57,131.7c-1.85.87-14.53,4.33-15.58,1.61-1.52-3.95,12.32-5.66,15.19-5.98.79-.09,2.14.99,2.1,1.6-.05.73-.75,2.32-1.71,2.77h0Z"/>
  <path class="cls-3" d="M181.05,123.5c-1.62,2.79-13.87,2.68-20.16,5.86-4.59-4.83,16.61-8.09,19.53-8.33.9-.07.92,1.98.63,2.47Z"/>
  <path class="cls-12" d="M317.17,130.38c-4.29.55-8.35.69-11.46-2.05-1.47-1.3-1.79-3.23-.62-4.74,4.27-5.51,9.92-8.86,16.52-10.96s13.08-3.59,19.77-2.09c2.4.54,4.19,1.9,3.72,4.5-2.34,12.93-16.6,13.91-27.94,15.35h.01Z"/>
  <path class="cls-3" d="M321.31,95.83c-2.43,1.02-13.22,5.63-14.32,3.83-3.03-4.94,12.17-7.55,14.48-5.51.33.29.59,1.37-.16,1.68h0Z"/>
  <path class="cls-3" d="M327.58,99.51c2.88,1.32-11.6,8.25-12.8,5.93-1.59-3.1,10.55-6.91,12.8-5.93Z"/>
  <path class="cls-3" d="M96.12,59.79c-1.17.43-2.16-.13-2.43-.53-2.16-3.27,14.67-7.27,19.05-7.43,1.3-.05,1.7,2.11,1.19,2.63-4.1,4.15-7.05,1.36-17.8,5.34h-.01Z"/>
  <path class="cls-3" d="M102.25,66.65c-1.11.24-2.18-.15-2.43-.53-2.07-3.13,19.22-9.49,16.11-3.79-.35.64-1.07,1.56-2.28,1.83l-11.4,2.5h0Z"/>
  <path class="cls-3" d="M239.33,29.55c-1.89.93-13.02,5.51-13.91,3.65-2.01-4.19,7.64-6.33,12.61-6.26,1.08.01,2.17,2.19,1.31,2.61h-.01Z"/>
  <path class="cls-3" d="M244,33.43c2.04,3.19-19.82,9.5-14.14,5.13.33-.25.65-1,1.31-1.39,2.06-1.22,11.5-5.81,12.82-3.75h.01Z"/>
  <path class="cls-3" d="M173.24,38.85c1.9,3.29-9.65,4.34-17.03,7.16-1.41.54-5.02-5.38,15.27-8.31.83-.12,1.5.72,1.75,1.16h.01Z"/>
  <path class="cls-3" d="M172.05,45.95c1.56,3.13-10.31,6.23-11.42,4.86-2.49-3.06,10.69-6.32,11.42-4.86Z"/>
  <path class="cls-10" d="M290,165.87c-.81,6.85-12.57,5.8-16.71,4.2,4.82-4.01,10.58-6.1,16.71-4.2Z"/>
  <path class="cls-10" d="M292.86,21.04c-3.68,1.84-7.73.48-10.75-2.36,3.73-1.11,7.36-.35,10.75,2.36Z"/>
  <path class="cls-10" d="M95.26,25.77c-2.83,4.52-7.54,4.66-12.2,3.75,3.56-2.34,7.64-3.62,12.2-3.75Z"/>
  <path class="cls-10" d="M198.52,177.07c.65,3.26-7.27,2.41-11.18,1.19,2.91-2.22,7.48-2.64,11.18-1.19Z"/>
  <path class="cls-10" d="M108.31,162.4c-2.99,2.95-9.05-.79-12.62-3.81,6,.87,6.95-.03,12.62,3.81Z"/>
  <path class="cls-10" d="M377.37,61.93c-4.37-.16-6.65-4.44-6.53-9.35,2.68,2.03,5.79,4.52,6.53,9.35Z"/>
  <path class="cls-10" d="M185.1,10.94c-2.07,3.16-5.48,3.07-8.52,1.45,2.58-1.12,5.18-2.28,8.52-1.45Z"/>
  <path class="cls-10" d="M368.47,134.92c1.56-3.45,4.79-6.44,8.63-6.57-1.09,3.77-4.19,6.21-8.63,6.57Z"/>
  <path class="cls-10" d="M42.33,131.9c-3.35.24-6.07-1.81-7.34-4.81,3.07.84,4.82,2.52,7.34,4.81Z"/>
  <path class="cls-10" d="M30.49,61.48c-1.74,2.56-2.22,3.65-4.31,3.8.62-2.42,2.83-3.88,4.31-3.8Z"/>
  <path class="cls-1" d="M256.85,135.83c-1.77.2-3.3-2.06-2.47-3.3.61-.92,2.52-.36,2.89.33.4.73.81,2.84-.42,2.98h0Z"/>
  <path class="cls-1" d="M265.7,137.91c-1.54.63-2.07-1.66-1.47-2.47.75-1.01,2.35-2.65,3.05-.95.33.82-.42,2.95-1.58,3.42Z"/>
  <path class="cls-1" d="M253.79,140.11c1.29-.18,1.88.36,1.76.87-.23.95-.54,1.63-1.04,1.78-.59.17-1.76-.11-1.94-.6-.3-.81-.02-1.88,1.22-2.05Z"/>
  <path class="cls-1" d="M186.32,152.11c.26,1.45-.09,3.71-1.82,4.51s-4.41-2.47-3.27-4.04,3.59-.9,5.09-.47Z"/>
  <path class="cls-1" d="M193.7,158.19c.21,1.92-.67,2.75-1.81,2.98s-3.48-.1-3.09-2.07,3.38-1.8,4.9-.91Z"/>
  <path class="cls-1" d="M199.23,149.72c1.26.91.1,2.44-.84,2.88-.87.41-2.89.05-2.78-1.77.08-1.31,2.54-1.9,3.62-1.12h0Z"/>
  <path class="cls-1" d="M192.12,148.31c-.89.45-2.07-.5-1.97-1.34.11-.9.82-1.71,1.96-2.36.98-.56,1.28.75,1.18,1.49-.09.7-.17,1.72-1.17,2.22h0Z"/>
  <path class="cls-1" d="M205.33,149.25c1.02-.04.85.7.82,1.19-.05,1.05-.7,2.24-1.44,2.04-1.11-.3-1.62-1.06-1.55-1.94s1.15-1.26,2.16-1.29h.01Z"/>
  <path class="cls-1" d="M180.87,160.43c-.39.96-1.61.76-2.1.58-.63-.23-1.79-1.18-1.12-2.28.54-.88,1.71-.42,2.19-.27.57.18,1.39,1.09,1.03,1.97Z"/>
  <path class="cls-1" d="M337.71,116.21c1.23,1.11-2.62,5.43-4.15,3.86-1.88-1.95,2.21-5.61,4.15-3.86Z"/>
  <path class="cls-1" d="M324.6,123.9c-.32-.8-.54-1.16.02-1.44,1.73-.88,3.58-.61,3.83.48.23,1.01-.46,1.95-1.06,2.34-.98.63-2.17.15-2.79-1.38h0Z"/>
  <path class="cls-1" d="M328.67,113.56c2.39-.15.07,5.22-1.31,4.4-1.83-1.08-.47-4.29,1.31-4.4Z"/>
  <path class="cls-1" d="M321.68,121.62c.55,1.71-1.13,2.02-2.19,1.68-.78-.25-2.14-1.18-1.4-2.43.59-1.01,3.1-.79,3.59.74h0Z"/>
  <path class="cls-1" d="M311.5,122.9c.8.39-.17,2.83-1.19,2.99-.81.13-1.27-.47-1.43-.92-.31-.85-.08-1.79,1.05-2.24.58-.23,1.33.05,1.57.17Z"/>
</svg>