<?xml version="1.0" encoding="UTF-8"?>
<svg id="Capa_1" data-name="Capa 1" xmlns="http://www.w3.org/2000/svg" width="1080" height="1080" viewBox="0 0 1080 1080">
  <defs>
    <style>
      .cls-1 {
        fill: #fefefe;
      }

      .cls-2 {
        fill: #ffdead;
      }

      .cls-3 {
        fill: #010101;
      }

      .cls-4 {
        fill: #fcf55f;
      }
    </style>
  </defs>
  <path class="cls-1" d="M971.71,487.17c-12.41-27.6-38.53-44.27-68.35-52.73-45.94-13.09-104.6-4.63-156.54,3.08-10.43,1.55-20.49,7.29-33.03,1.36,67.86-54.83,169.87-196.48,97.01-243.9-45.57-29.58-97.44-8.77-136.22,30.87-32.05,32.79-56.75,77.5-73.85,119.55-4.57,3.58-10.06-1.3-5.99-4.88,4.63-51.81,7.72-129.92-11.05-168.33-10.69-21.79-34.58-26.86-57-17.29-25.74,11-46.06,29.15-57.79,53.6l-11.49,23.9c-12.04,34.7-13.46,69.22-14.63,105.46-42.05-63.66-107.88-107.75-183.82-94.29-34.28,6.12-62.68,25.2-79.35,54.22-51.25,88.98,65.02,158.2,152.76,196.85,14.82,6.55,38.6,8.58,53.29,25.57-16.61,3.27-32.6,0-50.32-.75-80.58-3.27-157.96,17.6-188.46,88.24-16.42,37.98-2.41,78.11,36.74,96.7,13.59,6.42,30.63,6.98,46.44,4.01l97.81-18.46-43.23,30.2c-55.2,38.59-88.73,111.57-55.26,168.69,8.7,14.82,21.61,26.18,36.37,35.01,51.62,30.88,109.72,6.05,148.38-43.04,14.88-18.89,25.25-39.51,36.43-60.94l25.99-49.96c.25,67.43,12.11,167.65,64.04,196.18,29.27,16.11,60.7-2.78,77.37-35.51,29.51-57.86,35.19-119.91,22.97-186.41,55.32,52.73,119.97,99.47,197.1,88.17,30.75-4.51,51-25.62,58.1-53.04,14.7-57.24-25.5-113.62-81.69-144.37-21.36-11.67-43.22-20.44-67.74-26.98-4.81-1.24-7.96-3.52-9.88-7.23l95.46-7.1,51.07-3.7,26.68-4.76c22.66-4.01,43.03-13.95,56.99-32.41,14.32-18.84,14.45-44.03,4.69-65.58ZM586.22,422.83c9.63-15.38,16.73-30.81,24.64-46.87l29.94-61.31c12.6-25.75,29.7-47.86,51.19-68.17,38.47-36.43,93.37-47.67,112.2-15.75,25.75,43.66-35.51,110.04-74.04,150.73-36.74,38.77-97.37,109.91-128.19,96.14-22.84-10.13-28.34-34.7-15.74-54.77ZM604.74,582.51c-23.65,31.43-65.08,52.48-95.95,25.75-14.39-12.48-28.35-26.06-35.69-42.98-10.75-24.76-2.66-47.98,18.03-64.22,22.41-17.53,50.88-23.46,77.37-8.83,34.88,19.21,59.83,58.91,36.24,90.28ZM465.07,269.26c4.75-43.84,35.69-79.53,81.88-90.27,33.4-7.78,35.01,103.73,24.33,166.04-4.7,27.6-8.53,53.84-11.61,82.31-.93,8.7-5.68,18.21-13.83,21.3-16.61,6.3-33.66,1.67-42.55-11.67-31.49-47.36-44.33-112.01-38.22-167.71ZM358.8,469.76l-65.51-32.98-25.88-14.45c-47.05-26.24-89.65-67.42-60.32-107.38,13.4-18.21,33.65-30.93,56.31-37.04,67.99-18.22,152.95,56.37,176.17,115.03l22.29,56.32c7.16,18.09,5.25,38.16-4.82,53.72-5.74,8.83-16.61,12.22-25.99,6.6l-29.52-17.78-42.73-22.04ZM271.3,668.46c-38.53,11.86-88.42,11.8-105.52-16.92-9.02-15.19-3.34-32.41,7.84-44.7,39.46-43.16,108.06-55.64,170.79-54.09l72.99,1.79c19.76.49,31.8,10.37,37.91,27.6,4.45,12.66,3.46,24.2-9.07,32.05-10.81,6.85-24.58,8.02-39.15,12.53l-135.79,41.74ZM450.56,759.97l-23.03,47.3c-24.15,49.52-69.59,96.33-128.99,89.35-15.57-1.79-27.17-10.13-37.73-19.94-21.74-20.13-27.3-48.6-12.48-74.72,34.34-60.51,154.25-107.26,224.27-158.94,8.34-6.17,21.8-8.7,30.75-4.01,15.63,8.21,10.25,25.93-6.36,44.21-20.68,22.78-33.16,49.4-46.43,76.75ZM601.53,906.25c-7.1,13.34-18.27,24.09-34.27,30.57-29.88,12.1-51.37-29.33-60.26-68.54-14.64-64.9-10.19-136.65,28.77-191.42,7.35-10.31,19.2-20.44,32.67-21.74,9.69-.98,17.35,9.51,19.82,16.43l22.47,61.5c20.94,57.3,19.7,119.17-9.2,173.2ZM775.35,650.06c20.07,8.28,38.66,17.1,55.89,29.39,33.65,24.02,58.9,66.57,38.53,92.62-17.85,22.73-49.16,30.08-77,20.51l-23.1-7.91c-50.63-17.47-130.04-84.72-152.39-137.08-7.47-17.54-6.36-36.43,12.47-46.37,7.41-3.89,21-5.5,29.89-1.42l55.26,25.38,60.45,24.88ZM952.01,527.37c-2.84,6.67-10.31,14.02-20.93,18.09-28.09,10.74-148.75,15.19-206.73,17.29-43.47,1.61-81.76,10.62-91.08-22.04-8.52-30.14,17.91-42.36,55.33-56.13,63.16-23.28,130.96-30.2,198.21-21.06,43.1,5.8,77.18,35.63,65.2,63.85Z"/>
  <path class="cls-3" d="M971.71,487.17c-12.41-27.6-38.53-44.27-68.35-52.73-45.94-13.09-104.6-4.63-156.54,3.08-10.43,1.55-20.49,7.29-33.03,1.36,67.86-54.83,169.87-196.48,97.01-243.9-45.57-29.58-97.44-8.77-136.22,30.87-32.05,32.79-56.75,77.5-73.85,119.55-4.57,3.58-10.06-1.3-5.99-4.88,4.63-51.81,7.72-129.92-11.05-168.33-10.69-21.79-34.58-26.86-57-17.29-25.74,11-46.06,29.15-57.79,53.6l-11.49,23.9c-12.04,34.7-13.46,69.22-14.63,105.46-42.05-63.66-107.88-107.75-183.82-94.29-34.28,6.12-62.68,25.2-79.35,54.22-51.25,88.98,65.02,158.2,152.76,196.85,14.82,6.55,38.6,8.58,53.29,25.57-16.61,3.27-32.6,0-50.32-.75-80.58-3.27-157.96,17.6-188.46,88.24-16.42,37.98-2.41,78.11,36.74,96.7,13.59,6.42,30.63,6.98,46.44,4.01l97.81-18.46-43.23,30.2c-55.2,38.59-88.73,111.57-55.26,168.69,8.7,14.82,21.61,26.18,36.37,35.01,51.62,30.88,109.72,6.05,148.38-43.04,14.88-18.89,25.25-39.51,36.43-60.94l25.99-49.96c.25,67.43,12.11,167.65,64.04,196.18,29.27,16.11,60.7-2.78,77.37-35.51,29.51-57.86,35.19-119.91,22.97-186.41,55.32,52.73,119.97,99.47,197.1,88.17,30.75-4.51,51-25.62,58.1-53.04,14.7-57.24-25.5-113.62-81.69-144.37-21.36-11.67-43.22-20.44-67.74-26.98-4.81-1.24-7.96-3.52-9.88-7.23l95.46-7.1,51.07-3.7,26.68-4.76c22.66-4.01,43.03-13.95,56.99-32.41,14.32-18.84,14.45-44.03,4.69-65.58ZM586.22,422.83c9.63-15.38,16.73-30.81,24.64-46.87l29.94-61.31c12.6-25.75,29.7-47.86,51.19-68.17,38.47-36.43,93.37-47.67,112.2-15.75,25.75,43.66-35.51,110.04-74.04,150.73-36.74,38.77-97.37,109.91-128.19,96.14-22.84-10.13-28.34-34.7-15.74-54.77ZM604.74,582.51c-23.65,31.43-65.08,52.48-95.95,25.75-14.39-12.48-28.35-26.06-35.69-42.98-10.75-24.76-2.66-47.98,18.03-64.22,22.41-17.53,50.88-23.46,77.37-8.83,34.88,19.21,59.83,58.91,36.24,90.28ZM465.07,269.26c4.75-43.84,35.69-79.53,81.88-90.27,33.4-7.78,35.01,103.73,24.33,166.04-4.7,27.6-8.53,53.84-11.61,82.31-.93,8.7-5.68,18.21-13.83,21.3-16.61,6.3-33.66,1.67-42.55-11.67-31.49-47.36-44.33-112.01-38.22-167.71ZM358.8,469.76l-65.51-32.98-25.88-14.45c-47.05-26.24-89.65-67.42-60.32-107.38,13.4-18.21,33.65-30.93,56.31-37.04,67.99-18.22,152.95,56.37,176.17,115.03l22.29,56.32c7.16,18.09,5.25,38.16-4.82,53.72-5.74,8.83-16.61,12.22-25.99,6.6l-29.52-17.78-42.73-22.04ZM271.3,668.46c-38.53,11.86-88.42,11.8-105.52-16.92-9.02-15.19-3.34-32.41,7.84-44.7,39.46-43.16,108.06-55.64,170.79-54.09l72.99,1.79c19.76.49,31.8,10.37,37.91,27.6,4.45,12.66,3.46,24.2-9.07,32.05-10.81,6.85-24.58,8.02-39.15,12.53l-135.79,41.74ZM450.56,759.97l-23.03,47.3c-24.15,49.52-69.59,96.33-128.99,89.35-15.57-1.79-27.17-10.13-37.73-19.94-21.74-20.13-27.3-48.6-12.48-74.72,34.34-60.51,154.25-107.26,224.27-158.94,8.34-6.17,21.8-8.7,30.75-4.01,15.63,8.21,10.25,25.93-6.36,44.21-20.68,22.78-33.16,49.4-46.43,76.75ZM601.53,906.25c-7.1,13.34-18.27,24.09-34.27,30.57-29.88,12.1-51.37-29.33-60.26-68.54-14.64-64.9-10.19-136.65,28.77-191.42,7.35-10.31,19.2-20.44,32.67-21.74,9.69-.98,17.35,9.51,19.82,16.43l22.47,61.5c20.94,57.3,19.7,119.17-9.2,173.2ZM775.35,650.06c20.07,8.28,38.66,17.1,55.89,29.39,33.65,24.02,58.9,66.57,38.53,92.62-17.85,22.73-49.16,30.08-77,20.51l-23.1-7.91c-50.63-17.47-130.04-84.72-152.39-137.08-7.47-17.54-6.36-36.43,12.47-46.37,7.41-3.89,21-5.5,29.89-1.42l55.26,25.38,60.45,24.88ZM952.01,527.37c-2.84,6.67-10.31,14.02-20.93,18.09-28.09,10.74-148.75,15.19-206.73,17.29-43.47,1.61-81.76,10.62-91.08-22.04-8.52-30.14,17.91-42.36,55.33-56.13,63.16-23.28,130.96-30.2,198.21-21.06,43.1,5.8,77.18,35.63,65.2,63.85Z"/>
  <path class="cls-4" d="M601.53,906.25c-7.1,13.34-18.27,24.09-34.27,30.57-29.88,12.1-51.37-29.33-60.26-68.54-14.64-64.9-10.19-136.65,28.77-191.42,7.35-10.31,19.2-20.44,32.67-21.74,9.69-.98,17.35,9.51,19.82,16.43l22.47,61.5c20.94,57.3,19.7,119.17-9.2,173.2Z"/>
  <path class="cls-4" d="M869.77,772.07c-17.85,22.73-49.16,30.08-77,20.51l-23.1-7.91c-50.63-17.47-130.04-84.72-152.39-137.08-7.47-17.54-6.36-36.43,12.47-46.37,7.41-3.89,21-5.5,29.89-1.42l55.26,25.38,60.45,24.88c20.07,8.28,38.66,17.1,55.89,29.39,33.65,24.02,58.9,66.57,38.53,92.62Z"/>
  <path class="cls-4" d="M952.01,527.37c-2.84,6.67-10.31,14.02-20.93,18.09-28.09,10.74-148.75,15.19-206.73,17.29-43.47,1.61-81.76,10.62-91.08-22.04-8.52-30.14,17.91-42.36,55.33-56.13,63.16-23.28,130.96-30.2,198.21-21.06,43.1,5.8,77.18,35.63,65.2,63.85Z"/>
  <path class="cls-4" d="M730.15,381.46c-36.74,38.77-97.37,109.91-128.19,96.14-22.84-10.13-28.34-34.7-15.74-54.77,9.63-15.38,16.73-30.81,24.64-46.87l29.94-61.31c12.6-25.75,29.7-47.86,51.19-68.17,38.47-36.43,93.37-47.67,112.2-15.75,25.75,43.66-35.51,110.04-74.04,150.73Z"/>
  <path class="cls-4" d="M571.28,345.03c-4.7,27.6-8.53,53.84-11.61,82.31-.93,8.7-5.68,18.21-13.83,21.3-16.61,6.3-33.66,1.67-42.55-11.67-31.49-47.36-44.33-112.01-38.22-167.71,4.75-43.84,35.69-79.53,81.88-90.27,33.4-7.78,35.01,103.73,24.33,166.04Z"/>
  <path class="cls-2" d="M604.74,582.51c-23.65,31.43-65.08,52.48-95.95,25.75-14.39-12.48-28.35-26.06-35.69-42.98-10.75-24.76-2.66-47.98,18.03-64.22,22.41-17.53,50.88-23.46,77.37-8.83,34.88,19.21,59.83,58.91,36.24,90.28Z"/>
  <path class="cls-4" d="M457.04,502.98c-5.74,8.83-16.61,12.22-25.99,6.6l-29.52-17.78-42.73-22.04-65.51-32.98-25.88-14.45c-47.05-26.24-89.65-67.42-60.32-107.38,13.4-18.21,33.65-30.93,56.31-37.04,67.99-18.22,152.95,56.37,176.17,115.03l22.29,56.32c7.16,18.09,5.25,38.16-4.82,53.72Z"/>
  <path class="cls-4" d="M446.24,614.19c-10.81,6.85-24.58,8.02-39.15,12.53l-135.79,41.74c-38.53,11.86-88.42,11.8-105.52-16.92-9.02-15.19-3.34-32.41,7.84-44.7,39.46-43.16,108.06-55.64,170.79-54.09l72.99,1.79c19.76.49,31.8,10.37,37.91,27.6,4.45,12.66,3.46,24.2-9.07,32.05Z"/>
  <path class="cls-4" d="M496.99,683.22c-20.68,22.78-33.16,49.4-46.43,76.75l-23.03,47.3c-24.15,49.52-69.59,96.33-128.99,89.35-15.57-1.79-27.17-10.13-37.73-19.94-21.74-20.13-27.3-48.6-12.48-74.72,34.34-60.51,154.25-107.26,224.27-158.94,8.34-6.17,21.8-8.7,30.75-4.01,15.63,8.21,10.25,25.93-6.36,44.21Z"/>
</svg>