<?xml version="1.0" encoding="UTF-8"?>
<svg id="Capa_2" data-name="Capa 2" xmlns="http://www.w3.org/2000/svg" xmlns:xlink="http://www.w3.org/1999/xlink" viewBox="0 0 822.89 813.57">
  <defs>
    <style>
      .cls-1 {
        fill: url(#Degradado_sin_nombre_144);
      }

      .cls-2 {
        fill: url(#Neutro_8-2);
      }

      .cls-3 {
        fill: url(#Neutro_8);
      }

      .cls-4 {
        fill: url(#Degradado_sin_nombre_149);
      }

      .cls-5 {
        fill: #8b9b74;
      }

      .cls-6 {
        fill: none;
      }

      .cls-7 {
        fill: url(#Neutro_8-3);
      }
    </style>
    <linearGradient id="Neutro_8" data-name="Neutro 8" x1="197.09" y1="112.03" x2="577.03" y2="112.03" gradientUnits="userSpaceOnUse">
      <stop offset=".02" stop-color="#faf3ea"/>
      <stop offset=".2" stop-color="#fae7d1"/>
      <stop offset=".51" stop-color="#f7d8b7"/>
      <stop offset=".71" stop-color="#fae7d1"/>
      <stop offset="1" stop-color="#faf3ea"/>
    </linearGradient>
    <linearGradient id="Degradado_sin_nombre_149" data-name="Degradado sin nombre 149" x1="233.42" y1="708.26" x2="388.71" y2="708.26" gradientUnits="userSpaceOnUse">
      <stop offset="0" stop-color="#00793a"/>
      <stop offset=".02" stop-color="#097e3d"/>
      <stop offset=".13" stop-color="#34944b"/>
      <stop offset=".23" stop-color="#55a656"/>
      <stop offset=".32" stop-color="#6db35e"/>
      <stop offset=".41" stop-color="#7cbb63"/>
      <stop offset=".49" stop-color="#81be65"/>
      <stop offset=".56" stop-color="#7aba62"/>
      <stop offset=".66" stop-color="#67b05c"/>
      <stop offset=".78" stop-color="#489f52"/>
      <stop offset=".92" stop-color="#1d8843"/>
      <stop offset="1" stop-color="#00793a"/>
    </linearGradient>
    <linearGradient id="Degradado_sin_nombre_144" data-name="Degradado sin nombre 144" x1="439.49" y1="734.54" x2="652.77" y2="734.54" gradientUnits="userSpaceOnUse">
      <stop offset="0" stop-color="#00793a"/>
      <stop offset=".04" stop-color="#148440"/>
      <stop offset=".14" stop-color="#3b984d"/>
      <stop offset=".23" stop-color="#59a957"/>
      <stop offset=".32" stop-color="#6fb45f"/>
      <stop offset=".41" stop-color="#7cbb63"/>
      <stop offset=".49" stop-color="#81be65"/>
      <stop offset=".81" stop-color="#32934a"/>
      <stop offset="1" stop-color="#00793a"/>
    </linearGradient>
    <linearGradient id="Neutro_8-2" data-name="Neutro 8" x1="390.72" y1="43.59" x2="434.13" y2="43.59" xlink:href="#Neutro_8"/>
    <linearGradient id="Neutro_8-3" data-name="Neutro 8" x1="554.62" y1="37.2" x2="581.43" y2="37.2" xlink:href="#Neutro_8"/>
  </defs>
  <path d="M349.6,660.37c-14.52,2.63-.42,41.75,2.86,51.1,19.08,4.55,33.8,16.5,39.31,35.55,7.41,25.62-5.19,62.23-26.88,63.92-29.88,2.32-58.99,4.22-88.81.6-14.3-1.74-26.23-15.28-32.78-27.38-13.57-25.06-17.61-53.53-13.15-81.85,4.15-26.32,11.45-51.56,22.02-75.47,12.16-27.51,39.12-23.36,69.96-22.6,4.69.12,11.36,5.56,15.68,8.88,12.83-2.36,25.94-5.76,39.44-10.32-23.71-34.98-46.68-66.25-71.59-99.24-37.6-12.38-69.11-35.12-93.07-66.58-56.38-9.63-114.43-32-149.96-77.54-25.41-32.58-31.37-79.56.3-111.32-11.93-31.75-18.27-64.23-15.82-99.01-10.59-5.2-6.28-16.66-9.16-24.2-3.9-10.22-12.43-18.64-13.11-31.07s-5.68-23.84-13.22-33.63c-7.51-9.76-19.04-26.03-5.05-35.42,6.09-4.09,14.59-1.97,20.13,3.37l17,16.39c2.78-10.61,5.96-18.23,14.11-21.53s16.2-1.16,23.19,5.83c8.91-7.83,23.58-7.46,29.97,3.53,3.6,6.2,2.71,16.29,2.57,23.84l14.76-8.98c11.19-6.81,28.79-4.33,34.83,8.48,6.11,12.98-24.84,16.25-35.83,44.04-4.04,10.21-14.54,19.67-19.02,28.57-.32,8.92-3.72,17.68-9.61,23.06-3.21,26.4,6.13,54.33,19.6,75.66,12.67,1.12,22.68,3.46,34.48,6.85l-2.94-49.17c-3.58-59.94,186.87-91.28,228.21-91.86l54.78-.76C453.84,65.26,466.08,6.01,502.21.37c13.57-2.12,24.46,5.06,27.31,18.13,5.77,26.51-8.32,37.8-3.52,57.57,13.91.94,21.72-18.5,36.58-12.42,17.92,7.33,5.88,34.32-.22,47.45,26.46,12,60.34,16.42,62.61,49.24,2.1,30.34,1.8,60.27.89,90.68,67.07-19.21,90.05-5.35,126.8,48.32,7.26.28,15.03,1.15,20.22,5.29,4.87,3.89,6.21,12.31,7.59,18.73l26.17,23.76c13.51,12.27,17.48,30.48,15.95,48.02-.92,10.54-10.84,12.89-15.83,18.66-8.71,10.05-15.54,14.56-29.62,16.82-7.91,1.27-15.03,12.96-26.78,7.53-12.65-5.84-7.69-14.58-19.81-16.49-31.29-4.93-17.83-43.03-12.5-63.9-13.35-8.66-9.14-21.71-7.2-32.1-3.64-17.04-26.35-25.83-42.38-22.4-17.72,3.79-32.87,10.12-48.95,17.64-2.72,14.61-5.01,27.5-8.69,41.87-15.74,61.47-59.06,110.55-117.77,134.23-.01,47.82-8.18,92.73-43.58,125.57l24.12,48.81c6.04-.98,11.42-.92,15.19,1.88,3.09,2.29,4.9,8.52,6.77,13.78,6.09,2.69,15.8,4.85,23.85,6.19,14.6-19.59,34.15-32.49,58.08-34.67,28.61-2.61,55.49,7.04,73.66,28.58,10.34,12.26,12.7,27.51,4.41,42.14-28.45,50.25-76.92,68.47-131.94,75.3l-52.98,6.58c-9.44,1.17-12.48-3.33-15.46-10.98-9.28-23.82-5.64-50.19-12.93-74.09-2.67-8.73-12.69-16.2-5.83-27.77l-30.26-51.09c-18.79,5.23-38.2,9.78-56.55,13.11ZM577.03,169.45l-23.04-9.75c-11.46-4.11-15.34-16.41-9.74-27.12l16.96-32.37c4.42-8.43,9.52-27.19-.5-31.44-1.99-.85-7.45-.44-9.52.9l-16.19,10.37c-2.75,1.76-10.13,1.4-12.38-.77-1.97-1.9-4.08-7.99-3.48-11.19l5.94-32.02c1.63-8.76-.17-21.12-6.95-26.69-8.26-6.78-21.37-4.4-29.23,2.03-8.3,6.79-14.89,15.56-19.81,25.04l-23.93,46.02c-5.12,9.84-12.73,18.5-21.17,25.76-16.63,14.31-39.05-14.07-67.17,13.57-19.28,18.96-42.06,29.71-68.64,35.27-31.92,6.68-61.85,16.82-91.08,32.91,22,10.11,42.78,15.87,65.79,20.05,77.87,14.16,156.4,10.96,233-8.9,28.93-7.5,54.66-16.19,81.16-31.69ZM76.65,34.6c-.38-4.45-8.01-8.02-11.62-7.81-4.25.24-10.12,2.97-12.27,7.39-4.93,10.12-3.39,22.43,1.96,32.13,1.25,2.27,7.51,4.12,10.06,3.78,10.02-1.36,12.72-25.75,11.88-35.5ZM158.17,56.83c-21.56-25.13-49.77,16.42-63.24,21.3-11.2,4.06-16.54,11.74-22.52,22.49-3.92-10.27,3.49-15.57,10.48-22.47-1.4-2.24-5.78-6.87-7.79-8.4-6.66,5.51-11.8,6.8-17.86,4.74-4.3-1.46-9.45-7.74-10.44-13.05-1.47-7.94-4.08-10.84-9.26-15.67l-16.77-15.63c-2.51-2.34-9.99-2.02-12.45-.07-9.28,7.32,6.75,26.29,12.54,34.55,5.27,7.52,8.17,18.43,9.2,27.98,2.28,21.16,16.62,35.61,38.57,36.8,2.6.14,6.19,2.42,5.48,5.55-10.3.54-20.23-3.13-29.93-6.86-1.99,8.89,3.09,17.38,12.14,19.44,11.59,2.64,24.68,2.81,36.18.03,7.2-1.74,12.63-10.97,7.93-15.44-4.98,1.34-10.55,3.02-14.58.36,21.9-9.43,28.72-18.5,38.67-39.23,12.03-25.09,30.11-22.11,33.64-36.41ZM92.1,73.2c11.53-2.66,17.15-14.21,16.66-25.84-.31-7.46-1.1-14.27-7.53-17.19-4.64-2.11-15.63-2.03-17.33,4.77-2.51,10.05-6.51,26.29-2.47,33.05,1.53,2.57,7.32,5.99,10.65,5.22ZM584.54,165.81c5.58-3.91,12.57-9.97,16.42-13.88l-7.16-9.52c4.93-.6,9.57,2,11.1,5.04,1.94,3.86-.14,9.67-3.49,12.31-38.46,30.37-94.28,46.07-142.6,54.99-75.93,14.02-153.12,12.81-227.71-6.66-13.15-3.43-68.6-20.9-63.2-36.71,1.01-2.97,5.41-5.74,9.82-6.48l-5.27,11.06c5.43,3.75,11.76,7.72,18.14,11.08,31.58-17.07,64.13-28.63,99.17-35.81,25.32-5.19,45.76-16.21,64.27-33.86,34.22-32.63,58.76,7.1,72.82-20.64-75.06-1.95-197.35,18.17-258.07,60.98-8.47,5.97-14.03,15.23-13.61,26.12,2.5,64.44,14.88,165.6,44.7,222.86,22.39,42.99,58.62,74.9,104.41,90.89,57.61,20.12,133.93,16.86,190.18-6.95,60.43-25.59,102.03-78.33,114.67-143.25,12.01-61.7,13.89-124.04,10.55-186.9-.58-10.93-5.84-20.08-14.94-25.13-14.78-8.2-29.12-13.85-46.07-19.38l-10.74,21.99c-3.52,7.22,2.09,14.87,8.48,17.27l28.16,10.59ZM156.72,266.65c-25.9-11.07-42.65-31.39-53.34-55.73-7.14-17.81-10.51-36.44-11.85-56.79-12.77,1.41-25.17,1.42-39.22-1.62-3.72,83.94,35.64,159.19,117.31,184.63l-12.91-70.49ZM153.65,240.08c-11.38-3.83-19.75-7.2-30.11-5.75,10.02,12.51,19.24,19.72,32.4,26.04l-2.29-20.29ZM741.69,325.58c3.42-2.41,7.66-5.96,8.84-9.02,4.74-12.21-32.05-61.96-62.08-66.99-21.63-3.62-43.58.61-62.98,8.01l-4.75,56.68c20.73-8.43,49.04-22.67,70.16-14.86,27.66,10.24,27.87,42.35,50.81,26.17ZM183.44,385.08c-25-8.32-47.49-18.9-64.91-36.39-12.24-12.33-18.99-27.48-16.02-44.02-15.89-15.05-26.77-32.34-37.53-51.1-20.69,22.5-23.18,53.95-10.88,81.08,24.84,54.76,94.67,86.46,152.9,95.5-9.07-15.81-16.19-29.64-23.57-45.07ZM778.48,405.47c2.04,8.12,1.92,11.15,1.63,18.19,5.24.36,12.61-1.92,16.36-6.22,3.97-4.54,4.62-11.46,4.85-18.05l.17-4.74c.03-.8,1.57-.71,3.54-1.01l2.87,13.06c4.25-2.35,8.57-7.35,9.27-12.66,3.99-30.11-17.58-49.06-39.07-64.47-6.81,7.74-10.84,18-21.97,16.12,8.82-9.65,25.66-21.1,15.64-34.15-3.71-4.84-10-7.04-15.8-5.82,3.02,13.27-3.96,20.02-13.31,25.36-8.8,5.02-17.36,6.55-26.45-2.01-3,5.24-3.72,11.39-1.55,17.08,1.43,3.74,8.23,7.84,12.96,7.14l18.71-2.78c-6.07,10.41-14.23,5.94-23.06,8.25-3.75,15.2-13.62,43.05-1.8,53.55,3.21,2.85,10.26,4.8,14.49,5.04-1.49-9.52-3.37-15.52-2.78-23.57,10.48,10.37,5.61,23.33,12.12,33.68,4.28,6.8,13.22,7.29,19.98,4.04,16.02-7.69,5.58-23.02,13.19-26.02ZM181.35,378.4l-10.08-34.91c-24.01-7.17-43.47-18.35-63.53-33.69-4.61,34.61,46,60.63,73.61,68.6ZM447.06,617.24c33.32-29.92,41.16-78.12,40.33-117.56l-51.05,13.52c1.25,22.59-1.25,43.26-11.48,62.47l22.2,41.57ZM383.64,516.19c-23.43-.62-44.32-3.79-68.4-8.92,45.07,60.47,87.61,120.29,124.61,186.19,8.77-9.45,16.9-15.52,27.86-21.34-26.72-54.54-51.23-105.77-84.06-155.92ZM422.05,569.45c8.36-18.66,10.51-37.61,8.38-55.89l-39.52,3.15,31.13,52.74ZM338.27,716.16c-41.57,2.43-48.4,24.56-51.17,18.36-.39-.88.39-3.43,1.04-4.13,14.68-15.74,35.88-19.78,57.75-19.35l-8.71-34.6c-8.78,6.19-19.29,9-29.51,7.31-23.12-3.84-27.07-30.57-20.74-23.68,4.63,5.04,9.16,19.87,28.34,19.02,9.57-.43,20.96-5.44,23.95-16.45-7.43-.64-18.37,2.43-24.6-.57-16.33-7.88-16.33-32.45-3.37-43.08l18.95-4.97c-9.64-7.34-21.06-6.9-30.45-1.11s-13.2,18.44-14.34,28.33c-1.39,12.03-14.4-4.94,8.28-31.21-16.65-2.41-30.66,4.12-37.06,19.29-12.02,28.51-20.66,58.32-22.98,89.46-1.95,26.16,7.92,50.45,28.4,65.95,1.14.86,1.09,5.14.02,6.03l-13.2-8.87c4.84,10.53,15.49,23.22,28.51,24.51,8.15.8,99.97,6.12,99.46-8.8-12.74.58-104.5,9.42-108.04-6.28,24.34,3.82,45.38,6.02,68.18,4l44.53-3.95c3.95-7.26,6.29-16.13,6.99-24.37,2.54-29.81-20.19-52.6-50.24-50.84ZM403.01,642.01l-22.43-34.26c-22.45,7.09-42.38,10.76-64.8,15.69-7.14,1.57-8.53,12.9-8.23,18.92.26,5,4.68,15.44,11.02,15.97,29.26-1.72,56.14-7.04,84.42-16.32ZM520.28,775.6c-18.57,12.87-38.21,19.16-59.15,24.34-.43,3.24,4,6.48,7.6,6.03,24.22-3.05,46.64-13.01,64.75-29.48l43.31-39.39c19.45-17.69,48.71-37.68,75.96-34.04.12-1.59-.18-5.02-1.52-5.66-1.01-.48-4.3-1.24-5.53-1.25-22.4-.22-42.11,7.58-59.91,22.07-15.48,12.6-34.36,30.55-48.53,43.36-.87.79-4.98.64-4.7,0,3.85-8.62,40.87-40.1,50.64-48.08,18.79-15.34,39.34-21.93,63.44-23.66-29.85-32.58-78.05-35.61-109.73-8.08-18.95,16.47-21.03,37.47-23.28,32.8-.44-.91-1.63-3.83-1.34-4.76l3.44-11.07-16.86-4.58c-5.93-1.61-11.77.06-19.06,1.48-.75-2.81,3.97-6.15,7.4-7.64,2.34-1.02,1.76-7.47-.09-9.16-10.61-9.73-35.24,6.02-45.82,22.63-3.95,6.21-1.02,17.95,5.61,17.22,8.8-5.97,12.3-20.69,25.1-18.98-7.88,8.6-16.96,16.46-21.87,25.42.6,23.54,3.1,45.31,8.47,69.01,20.66-2.71,41.4-11.35,58.05-22.53,1.32-.88,4.22-.8,5.34-.4.84.31-.96,3.88-1.7,4.39ZM640.14,742.98c8.69-11.13,13.23-19.55,15.48-32.42-15.74-5-30.32-.43-45.17,8.6l29.69,23.82ZM612.19,770.27l24.23-22.9-31.38-25.57-27.49,21.38,34.64,27.1ZM576.76,787.83c10.96-4.83,20.34-9.38,29.63-14.81l-32.82-26.32-22.96,22.31,26.15,18.82ZM569.03,789.36l-22.97-16.32c-12.43,10.9-22.9,18.45-36.45,27.18,21.29-1.82,39.47-4.13,59.42-10.86Z"/>
  <path d="M432.45,61c-6.39,14.27-20.52,16.99-33.39,12.69-9.22-3.08-15.89-9.85-12.96-20.8,5.48-20.44,26.71-48.29,46.13-39.98,12.41,5.31,5.83,35.54.22,48.08ZM428.88,55.63c3.37-11.35,8.21-25.03,2.85-35.8-2.9-5.82-14.86-1.8-19.16,1.72-13.07,10.71-28.02,35.87-19.19,43.24,1.78,1.49,5.31,3.09,8.32,4.08,11.76,3.9,23.31-.19,27.19-13.24Z"/>
  <path d="M586.55,37.86c-1.65,8.82-6.6,16.05-12.55,17.9-8.38,2.61-18.57,1.51-22.61-6.56-5.82-11.61,1.62-25.17,13.26-30.15,5.05-2.16,12.05-1.44,16.16,1.48,4.62,3.28,7.03,10.49,5.75,17.32ZM578.41,25.07c-1.48-1.17-6.03-2.41-8.17-2.08-11.17,1.74-19.9,14.53-13.38,25.2,2.29,3.75,12.39,4.14,16.77,1.9,7.54-3.85,10.56-20.46,4.77-25.02Z"/>
  <path class="cls-3" d="M577.03,169.45c-26.5,15.5-52.23,24.19-81.16,31.69-76.59,19.86-155.12,23.06-233,8.9-23-4.18-43.78-9.95-65.79-20.05,29.23-16.09,59.15-26.23,91.08-32.91,26.58-5.56,49.36-16.32,68.64-35.27,28.12-27.65,50.54.74,67.17-13.57,8.44-7.26,16.06-15.92,21.17-25.76l23.93-46.02c4.93-9.47,11.51-18.24,19.81-25.04,7.85-6.43,20.97-8.81,29.23-2.03,6.79,5.57,8.58,17.92,6.95,26.69l-5.94,32.02c-.59,3.2,1.51,9.28,3.48,11.19,2.25,2.17,9.63,2.53,12.38.77l16.19-10.37c2.08-1.33,7.53-1.74,9.52-.9,10.03,4.25,4.92,23.01.5,31.44l-16.96,32.37c-5.61,10.7-1.72,23,9.74,27.12l23.04,9.75Z"/>
  <path class="cls-4" d="M338.27,716.16c30.05-1.76,52.78,21.04,50.24,50.84-.7,8.24-3.04,17.1-6.99,24.37l-44.53,3.95c-22.8,2.02-43.84-.18-68.18-4,3.54,15.7,95.3,6.86,108.04,6.28.51,14.92-91.31,9.6-99.46,8.8-13.02-1.28-23.68-13.98-28.51-24.51l13.2,8.87c1.07-.89,1.12-5.17-.02-6.03-20.48-15.5-30.35-39.79-28.4-65.95,2.32-31.14,10.96-60.95,22.98-89.46,6.4-15.17,20.4-21.71,37.06-19.29-22.68,26.27-9.67,43.24-8.28,31.21,1.14-9.89,5.11-22.64,14.34-28.33s20.81-6.23,30.45,1.11l-18.95,4.97c-12.96,10.63-12.96,35.2,3.37,43.08,6.23,3,17.17-.06,24.6.57-3,11.01-14.38,16.03-23.95,16.45-19.18.85-23.71-13.98-28.34-19.02-6.33-6.89-2.38,19.84,20.74,23.68,10.22,1.7,20.73-1.11,29.51-7.31l8.71,34.6c-21.87-.43-43.06,3.61-57.75,19.35-.65.7-1.43,3.25-1.04,4.13,2.77,6.19,9.6-15.93,51.17-18.36Z"/>
  <path class="cls-1" d="M520.28,775.6c.74-.51,2.54-4.08,1.7-4.39-1.13-.41-4.03-.49-5.34.4-16.65,11.18-37.39,19.82-58.05,22.53-5.38-23.69-7.88-45.46-8.47-69.01,4.92-8.96,13.99-16.82,21.87-25.42-12.8-1.72-16.31,13-25.1,18.98-6.63.73-9.56-11.02-5.61-17.22,10.58-16.61,35.21-32.36,45.82-22.63,1.84,1.69,2.43,8.15.09,9.16-3.43,1.49-8.16,4.83-7.4,7.64,7.29-1.42,13.13-3.09,19.06-1.48l16.86,4.58-3.44,11.07c-.29.93.91,3.85,1.34,4.76,2.25,4.67,4.33-16.34,23.28-32.8,31.69-27.53,79.89-24.5,109.73,8.08-24.1,1.73-44.65,8.32-63.44,23.66-9.77,7.98-46.79,39.46-50.64,48.08-.28.63,3.83.78,4.7,0,14.17-12.8,33.06-30.76,48.53-43.36,17.79-14.49,37.51-22.28,59.91-22.07,1.23.01,4.53.77,5.53,1.25,1.34.64,1.65,4.07,1.52,5.66-27.24-3.65-56.51,16.35-75.96,34.04l-43.31,39.39c-18.11,16.47-40.52,26.43-64.75,29.48-3.6.45-8.03-2.79-7.6-6.03,20.93-5.18,40.58-11.47,59.15-24.34Z"/>
  <path class="cls-5" d="M778.48,405.47c-7.61,3,2.83,18.33-13.19,26.02-6.76,3.24-15.7,2.76-19.98-4.04-6.51-10.35-1.64-23.31-12.12-33.68-.59,8.06,1.3,14.06,2.78,23.57-4.22-.24-11.28-2.18-14.49-5.04-11.82-10.5-1.94-38.36,1.8-53.55,8.84-2.31,16.99,2.17,23.06-8.25l-18.71,2.78c-4.73.7-11.53-3.39-12.96-7.14-2.17-5.69-1.45-11.85,1.55-17.08,9.09,8.57,17.65,7.04,26.45,2.01,9.35-5.34,16.34-12.09,13.31-25.36,5.8-1.21,12.09.98,15.8,5.82,10.01,13.05-6.83,24.51-15.64,34.15,11.13,1.87,15.16-8.38,21.97-16.12,21.49,15.4,43.06,34.36,39.07,64.47-.7,5.31-5.02,10.31-9.27,12.66l-2.87-13.06c-1.97.3-3.51.2-3.54,1.01l-.17,4.74c-.24,6.59-.88,13.51-4.85,18.05-3.76,4.3-11.13,6.58-16.36,6.22.28-7.04.4-10.07-1.63-18.19Z"/>
  <path class="cls-5" d="M158.17,56.83c-3.53,14.3-21.61,11.32-33.64,36.41-9.95,20.74-16.77,29.81-38.67,39.23,4.03,2.66,9.6.98,14.58-.36,4.7,4.47-.73,13.7-7.93,15.44-11.5,2.78-24.6,2.61-36.18-.03-9.06-2.07-14.14-10.55-12.14-19.44,9.7,3.73,19.63,7.4,29.93,6.86.71-3.13-2.87-5.41-5.48-5.55-21.96-1.19-36.29-15.64-38.57-36.8-1.03-9.55-3.93-20.46-9.2-27.98C15.07,56.35-.97,37.38,8.32,30.06c2.46-1.94,9.94-2.27,12.45.07l16.77,15.63c5.18,4.83,7.79,7.73,9.26,15.67.98,5.31,6.14,11.58,10.44,13.05,6.06,2.07,11.2.77,17.86-4.74,2.01,1.52,6.39,6.16,7.79,8.4-6.99,6.91-14.39,12.2-10.48,22.47,5.98-10.74,11.32-18.43,22.52-22.49,13.47-4.88,41.68-46.43,63.24-21.3Z"/>
  <path class="cls-5" d="M92.1,73.2c-3.33.77-9.12-2.65-10.65-5.22-4.05-6.77-.05-23.01,2.47-33.05,1.7-6.79,12.68-6.88,17.33-4.77,6.43,2.92,7.22,9.73,7.53,17.19.48,11.64-5.13,23.18-16.66,25.84Z"/>
  <path class="cls-5" d="M76.65,34.6c.84,9.74-1.86,34.14-11.88,35.5-2.54.34-8.81-1.51-10.06-3.78-5.35-9.7-6.89-22.02-1.96-32.13,2.16-4.43,8.03-7.15,12.27-7.39,3.62-.21,11.24,3.36,11.62,7.81Z"/>
  <path class="cls-2" d="M428.88,55.63c-3.87,13.05-15.43,17.14-27.19,13.24-3.01-1-6.54-2.6-8.32-4.08-8.83-7.37,6.12-32.52,19.19-43.24,4.3-3.52,16.27-7.54,19.16-1.72,5.36,10.77.52,24.45-2.85,35.8Z"/>
  <path class="cls-7" d="M578.41,25.07c5.79,4.57,2.77,21.17-4.77,25.02-4.38,2.24-14.48,1.85-16.77-1.9-6.52-10.67,2.21-23.46,13.38-25.2,2.14-.33,6.69.91,8.17,2.08Z"/>
  <path d="M447.64,366.56l-41.96,1.61-2.05-51.36c-.39-9.83,2.57-21.48,7.53-29.67,5.9-9.76,17.56-14.07,27.6-13.29,31.27,2.44,36.99,42.35,38.04,68.02,6.68,1.62,15.35,1.42,15.5,10.25-17.52-8.21-37.02-5.01-44.66,14.43ZM445.15,332.77c-7.69-4.77-11.68-13.34-13.81-21.92l9.22-2.01c1.98-.43,5.25-2.71,5.72-4.45.38-1.39-2.89-4.42-4.31-4.54l-11.56-1,6.41-19.21c-30.73-.66-28.57,36.64-27.09,59.37l1.58,24.2,31.38-2.02c7.95-7.94,13.9-18.03,28.23-18.58l-1.2-17.48c-7.71,8.07-14.99,13.58-24.57,7.64Z"/>
  <path d="M344.47,371.38c-15.57-32.38-50.19-3.59-45.47-12.54.48-.91,1.91-3.72,2.77-4.08l12.23-5.11c-2.23-27.88,1.83-73.59,38.88-71.26,38.52,2.42,31.27,61.41,34.21,90.37l-42.62,2.63ZM357.62,337.11c-7.58-4.46-14.1-14.41-12.25-22.4,5.17-.58,14.2-1.87,12.66-7.22-.94-3.25-9.03-4.04-13.8-4.87-.16-5.08,2.49-12.49,5.27-18.12-29.42-2.43-32.98,44.34-29.56,65.24,12.66.66,21.07,6.38,28.24,15.92l33.51-1.12-2.02-31.29c-7.25,5.82-14.65,8.2-22.04,3.86Z"/>
  <path d="M335.94,408.73l14.24-18.1,3.86,7.2c29.53,8.27,62.03,8.29,89.37-5.99l-.66-3.68c-.16-.91,2.93-2.86,3.69-2.16l15.09,13.94-9.69,1.82c-9.03,20.04-26.93,34.31-47.22,36.55-41.07,4.55-58.55-30.37-60.24-30.24l-8.42.64ZM429.55,422.14c9.9-8,14.85-15.57,18.5-26.12l-23.9,9.33,5.4,16.79ZM372.99,407.34l-24.19-4.84c4.28,10.16,10.39,15.67,20.61,22.67,2.05-6.67,3.29-12.47,3.58-17.84ZM424.81,426.15l-5.95-19.69-17.45,2.4,1.36,24.82c8.08-1.74,14.51-4.05,22.05-7.53ZM397.09,433.97l-.99-24.91-17.12-.52-4.34,20.68,22.46,4.74Z"/>
  <path class="cls-6" d="M445.15,332.77c9.58,5.94,16.86.43,24.57-7.64l1.2,17.48c-14.32.54-20.28,10.63-28.23,18.58l-31.38,2.02-1.58-24.2c-1.49-22.73-3.64-60.03,27.09-59.37l-6.41,19.21,11.56,1c1.41.12,4.69,3.15,4.31,4.54-.48,1.74-3.74,4.02-5.72,4.45l-9.22,2.01c2.13,8.58,6.12,17.14,13.81,21.92Z"/>
  <path class="cls-6" d="M357.62,337.11c7.4,4.35,14.79,1.96,22.04-3.86l2.02,31.29-33.51,1.12c-7.17-9.54-15.58-15.26-28.24-15.92-3.42-20.9.15-67.67,29.56-65.24-2.77,5.63-5.43,13.04-5.27,18.12,4.77.83,12.86,1.62,13.8,4.87,1.54,5.35-7.49,6.64-12.66,7.22-1.85,7.99,4.67,17.94,12.25,22.4Z"/>
</svg>