<?xml version="1.0" encoding="UTF-8"?>
<svg id="Capa_1" data-name="Capa 1" xmlns="http://www.w3.org/2000/svg" width="1080" height="1080" viewBox="0 0 1080 1080">
  <defs>
    <style>
      .cls-1 {
        fill: #70423e;
      }

      .cls-2 {
        fill: #f9c699;
      }

      .cls-3 {
        fill: #fdfcfc;
      }
    </style>
  </defs>
  <path class="cls-1" d="M942.63,315.99l1.65-119.27c.42-30.14-17.83-71.6-54.96-71.71l-677.33-1.92c-4.83-.01-8.2-1.83-14.44-.78-23.39,3.88-55.09,18.84-58.46,48.58-5.44,48.2-3.21,99.15-.9,149.33,1.02,21.97,22.49,37.61,37.68,48.47v408.87c-18.28,10.97-34.84,25.38-34.86,40.91l-.03,83.63c14.91,6.45,39.19,4.61,63.98,4.11l29.49-.6,19.82-.42c8.66-.18,16.16.77,24.57.72l64.33-.4,241,.39,20.04-.33,145.14.46c8.77.03,15.94-.08,22.25-.08l88.71-.12,44.54-.18c14.23-.05,27.4,1.1,36.74-3.55l-.68-84.73c-.01-2.73-2.3-9.71-4.23-11.66l-32.43-32.62.43-406.12c20.16-10.48,37.64-28.89,37.95-50.99ZM908.71,871.5l-540.7.4-192.84,1.59c-4.2-33.71,1.04-64.58,16.55-64.61l485.96-.81,216.02.6c17.85,13.99,17.75,34.58,15.01,62.82ZM231.72,521.06c3.88,4.99,19.27,7.47,21.66,2.49l19.37-40.23,8.89-21.55,10.98-27.77,21.47-59.07c6.25-2.3,12.27-1.42,18.84-1.37l59.75.54c-2.75,68.45,44.14,75.61,44.31,84.57l.95,49.86c.46,23.55,35.73,12.62,82.1,14.44l2.32-32.99,2.19-31.14,30.37.33c-.2,22.13-1.95,41.12,1.55,61.68l16.98,3.79c11.59,2.58,24.77.48,36.93-.33l27.15-1.79,2.52-34.37c.77-10.37-3.02-21.92,1.91-30.64,5.65-9.99,35.16-12.08,42.85-56.59,1.21-7.08-.52-18.08,4.06-24.65,3.79-5.4,51.41-3.8,87.44-1.29l.07,88.72c.01,7.79-9.1,9.82-12.58,11.57-4.07,7.01-2.75,18.86-1.21,26.07,23.33,5.21,45.48,3.13,67.4-3.11.93-8.49,1.96-16.51-1.02-23.37-2.12-4.87-11.48-6.78-17.61-6.62l-.54-94.18,54.75-.86c2.96-.04,4.91,3.6,4.91,7.15l-.35,394.07-208.31.21,26.21-29.82c.99-4.75,7.35-11.76,10.9-12.98,50.61-.72,87.91-26.54,99.72-74.12,9.52-38.29-17.32-71.3-60-77.4-3.6-.52-6.85-2.43-8.68-3.21-4.5-1.93.23-28.43-8.93-28.45l-353.16-.44-20,5.08c-11.12,61.08,1.68,136.79,33.71,187.16l20.8,23.58c2.59,2.92,5,5.97,4.44,11.12l-190.92-.8c-1.75-.52-4.43-4.57-4.44-6.38l-1.07-146.64-.77-236.69c-.03-7.26,1.49-11.72,9.8-11.58l60.04,1.06-21.59,53.93-11.78,32.27c-8.19,22.44-25.6,46.29-14.39,60.76ZM451.11,425.06c-18.79-10.69-26.11-27.72-23.81-51.29l63.52-.12,59.1-.09,59.41.09c13.17.03,25.22-4.37,43.05,2.47,5.82,11.17-2.92,45.65-21.11,45.95l-180.17,2.99ZM608.66,492.63l-23.43.07-.09-34.24,23.43-.05.09,34.23ZM490.46,459.05l-.26,33.88-19.4-.16.26-33.88,19.4.16ZM639.27,744.98l-15.04,9.9c-16.11,10.6-42.68,13.22-65.83,13.17l-70.97-.16c-24.82-.05-66.32-24.35-75.72-42.73l-5.1-9.97c-15.03-29.39-26.81-57.98-27.86-90.12l-1.37-42.48,315.79-.26-2.26,57.21c-1.27,32.13-24.2,87.38-51.64,105.44ZM717.02,675.59l3.68-16.48,3.77-21.03,4.82-24.87c.93-4.86,13.49,1.24,17.26,2.95l10.99,5.03c16.54,17.48,10.37,42.41-6.76,58.35-9.78,9.1-23.24,20.25-36.83,14.75-4.57-2.48,2.22-14.93,3.07-18.71ZM882.58,340.31l-685.23.12c-13.59-6.66-20.12-13.39-26.59-26.49-.48-44.37-2.98-89.8.86-134.1.93-10.76,11.37-16.4,20.81-22.21l697.04.17c7.92,0,18.32,14.97,19.03,21.66,4.19,39.27,2.28,80.86,1.62,121.36-.31,19.29-8.89,31.57-27.55,39.49Z"/>
  <path class="cls-3" d="M641.98,457.51c5.65-9.99,35.15-12.07,42.84-56.6,1.22-7.08-.52-18.08,4.07-24.65,3.77-5.41,51.41-3.8,87.43-1.29l.07,88.71c0,7.8-9.1,9.82-12.6,11.58-4.06,7.01-2.75,18.86-1.21,26.06,23.33,5.21,45.48,3.14,67.4-3.1.93-8.5,1.96-16.52-1.02-23.37-2.12-4.88-11.48-6.78-17.62-6.63l-.53-94.17,54.75-.86c2.96-.05,4.91,3.59,4.91,7.14l-.35,394.07-208.31.21,26.21-29.82c.99-4.75,7.35-11.76,10.89-12.97,50.62-.71,87.91-26.54,99.73-74.13,9.51-38.28-17.33-71.3-60.01-77.4-3.6-.52-6.85-2.42-8.68-3.21-4.5-1.93.25-28.44-8.92-28.45l-353.15-.44-20.01,5.08c-11.12,61.07,1.69,136.79,33.71,187.17l20.8,23.57c2.58,2.93,5,5.97,4.43,11.13l-190.92-.8c-1.75-.52-4.43-4.57-4.44-6.39l-1.07-146.64-.77-236.69c-.02-7.25,1.49-11.72,9.81-11.57l60.04,1.06-21.59,53.92-11.78,32.28c-8.19,22.43-25.59,46.29-14.38,60.75,3.87,4.99,19.26,7.47,21.65,2.49l19.37-40.24,8.89-21.55,10.98-27.76,21.47-59.08c6.25-2.3,12.27-1.43,18.83-1.37l59.76.54c-2.76,68.44,44.13,75.61,44.3,84.56l.96,49.86c.45,23.55,35.73,12.62,82.11,14.44l2.32-32.98,2.19-31.14,30.36.33c-.19,22.13-1.95,41.13,1.55,61.68l16.99,3.79c11.58,2.58,24.77.48,36.93-.32l27.15-1.79,2.53-34.37c.76-10.37-3.03-21.92,1.9-30.64Z"/>
  <path class="cls-2" d="M908.51,179.46c-.72-6.68-11.11-21.66-19.03-21.66l-697.04-.17c-9.44,5.81-19.88,11.45-20.81,22.21-3.84,44.29-1.34,89.72-.86,134.1,6.48,13.09,13,19.83,26.59,26.49l685.23-.12c18.66-7.92,27.23-20.2,27.55-39.49.67-40.5,2.57-82.09-1.62-121.36ZM266.69,300.32c-28.89,0-52.31-23.42-52.31-52.31s23.42-52.3,52.31-52.3,52.3,23.42,52.3,52.3-23.42,52.31-52.3,52.31ZM397.69,299.97c-28.58,0-51.74-23.16-51.74-51.74s23.16-51.72,51.74-51.72,51.72,23.16,51.72,51.72-23.16,51.74-51.72,51.74ZM590.24,275.61c-12.01,20.57-35.1,30.52-56.62,28.2-19.02-2.05-40.86-15.46-46.57-37.39-7.25-27.87-.37-53.11,23.16-68.71,26.02-17.26,57.43-9.26,74.42,14.78,12.75,18.03,18.67,40.7,5.6,63.12ZM653.83,285.14c-.27-42.31-8.08-77.57,14.58-78.89,8.2-.47,19.07,1.72,19.19,10.97l.85,67.23c-9.91,10.43-24.57,9.95-34.62.69ZM760.13,284c-1.66,11.64-28.38,11.28-30.44.78-4.56-23.16-4.23-47.56-.08-71.46,1.62-9.32,28.41-9.5,30.03-.16,3.92,22.62,4.18,44.99.5,70.84ZM833.38,289.41c-6.33,3.02-20.34,2.45-29.09-1.7-2.85-41.61-9.96-77.96,11.57-80.86,12.96-1.75,20.35,4.97,22.66,17.57,4.6,24.92,1.61,61.76-5.14,64.99Z"/>
  <path class="cls-2" d="M624.23,754.87c-16.11,10.6-42.67,13.23-65.83,13.18l-70.96-.16c-24.82-.06-66.32-24.35-75.73-42.73l-5.1-9.97c-15.03-29.39-26.81-57.97-27.85-90.11l-1.37-42.49,315.79-.25-2.26,57.2c-1.27,32.12-24.2,87.37-51.66,105.43l-15.04,9.9Z"/>
  <path class="cls-2" d="M908.7,871.5l-540.69.4-192.84,1.6c-4.21-33.71,1.04-64.58,16.54-64.61l485.96-.81,216.01.6c17.85,13.99,17.76,34.58,15.02,62.82Z"/>
  <path class="cls-2" d="M652.39,376.12c5.82,11.17-2.92,45.65-21.11,45.95l-180.16,2.98c-18.78-10.69-26.1-27.71-23.81-51.28l63.53-.13,59.09-.08,59.42.09c13.17.02,25.23-4.38,43.05,2.47Z"/>
  <path class="cls-3" d="M713.95,694.3c-4.56-2.48,2.23-14.94,3.07-18.72l3.68-16.47,3.77-21.04,4.81-24.87c.94-4.85,13.5,1.24,17.26,2.96l11,5.02c16.54,17.48,10.36,42.42-6.77,58.35-9.78,9.1-23.23,20.25-36.83,14.76Z"/>
  <rect class="cls-2" x="585.17" y="458.43" width="23.44" height="34.23" transform="translate(-1.25 1.57) rotate(-.15)"/>
  <rect class="cls-2" x="463.69" y="466.21" width="33.88" height="19.4" transform="translate(.95 952.78) rotate(-89.55)"/>
  <path class="cls-1" d="M584.64,212.49c-17-24.03-48.41-32.04-74.42-14.78-23.52,15.6-30.4,40.84-23.16,68.71,5.71,21.93,27.55,35.34,46.57,37.39,21.51,2.32,44.61-7.62,56.62-28.2,13.07-22.41,7.15-45.09-5.6-63.12ZM540.21,273.04c-14.35,0-25.99-11.63-25.99-25.99s11.64-26,25.99-26,26.01,11.64,26.01,26-11.64,25.99-26.01,25.99Z"/>
  <path class="cls-1" d="M266.69,195.72c-28.89,0-52.31,23.42-52.31,52.3s23.42,52.31,52.31,52.31,52.3-23.42,52.3-52.31-23.42-52.3-52.3-52.3ZM286.21,256.73c-6.25,10.86-19.65,13.19-28.46,9.78-6.46-2.49-13.42-13.9-11.75-22.9l8.97-12.18c6.87-9.33,23.92-6.32,29.01,5.22,3.07,6.97,6.87,12.02,2.23,20.08Z"/>
  <path class="cls-1" d="M397.69,196.51c-28.58,0-51.74,23.16-51.74,51.72s23.16,51.74,51.74,51.74,51.72-23.16,51.72-51.74-23.16-51.72-51.72-51.72ZM414.23,256.63c-4.66,6.84-10.48,9.99-14.62,10.61-7.87,1.17-13.2-1.95-18.85-9.37-4.54-5.98-4.62-15.64.39-21.63,4.65-5.55,8.94-8.88,13.59-9.1,16.31-.77,25.94,20.05,19.49,29.49Z"/>
  <path class="cls-1" d="M838.53,224.42c4.59,24.92,1.6,61.77-5.15,64.98-6.32,3.01-20.33,2.46-29.09-1.69-2.84-41.6-9.95-77.96,11.57-80.86,12.97-1.75,20.36,4.97,22.67,17.57Z"/>
  <path class="cls-1" d="M688.44,284.44c-9.91,10.44-24.56,9.96-34.62.7-.28-42.31-8.08-77.58,14.58-78.89,8.2-.48,19.08,1.72,19.19,10.97l.85,67.22Z"/>
  <path class="cls-1" d="M760.13,284c-1.66,11.65-28.38,11.28-30.44.78-4.55-23.15-4.23-47.55-.08-71.45,1.62-9.32,28.41-9.51,30.03-.17,3.92,22.62,4.18,44.99.49,70.84Z"/>
  <circle class="cls-2" cx="540.22" cy="247.04" r="26"/>
  <path class="cls-2" d="M286.2,256.73c-6.25,10.86-19.64,13.18-28.46,9.78-6.46-2.49-13.42-13.91-11.75-22.91l8.97-12.18c6.87-9.33,23.92-6.32,29.01,5.22,3.07,6.97,6.86,12.02,2.23,20.08Z"/>
  <path class="cls-2" d="M414.24,256.63c-4.67,6.84-10.48,9.99-14.62,10.61-7.87,1.18-13.2-1.94-18.85-9.38-4.54-5.98-4.62-15.63.4-21.63,4.64-5.54,8.94-8.87,13.58-9.09,16.31-.77,25.94,20.04,19.5,29.48Z"/>
</svg>