<?xml version="1.0" encoding="UTF-8"?>
<svg id="Capa_1" data-name="Capa 1" xmlns="http://www.w3.org/2000/svg" width="1080" height="1080" viewBox="0 0 1080 1080">
  <defs>
    <style>
      .cls-1 {
        fill: #913831;
      }

      .cls-2 {
        fill: #eb5f94;
      }

      .cls-3 {
        fill: #f7f7f7;
      }

      .cls-4 {
        fill: #f8f5f6;
      }

      .cls-5 {
        fill: #f4f4f4;
      }

      .cls-6 {
        fill: #868686;
      }
    </style>
  </defs>
  <path class="cls-1" d="M923.98,167.92l22.95-78.45-117.07-43.67c-9.42-3.18-15.12-.54-19.74,9.06l-37.14,77.11c-121.93-29.24-239.5-56.09-362.97-72.12-.09-.01-.18-.02-.26-.03-.2-.01-.4-.01-.6,0-.13,0-.27.01-.41.03t-.02,0c-6.3.47-5.05,9.71-18.76,17.14-9.9,5.36-.58,12.47-8.16,12.47-.01,0-4.32,4.32-4.32,4.33,0,.08-3.26,6.65-3.26,6.72l-16.65,64.1,40.54,7.61c3.12-5.68,6.52-7.02,10.21-2.08.57.77.93,2.26,1.13,4.21l323.06,60.65-58.79,166.32c-10.46,29.57-19.17,57.78-24.75,89.42-.43,4.68,1.92,6.93,5.08,7.19,3.14.26,6.72,1.28,9.94-4.02,24.3-85.99,52.45-168.69,85.49-254.04l121.07,25.62-66.94,182.41c-1.58,4.31-1.13,9.98.96,13.42,1.3,2.15,4.02,5.2,10.95,2.29l72.48-195c10.8,2.77,20.17,5.31,34.88,7.63.04-.08.07-.15.11-.23,16.91,2.07,23.62-6.85,22.97,3.19,13.47,1.4,30.45,2.72,52.81,3.97l13.76-76.77-88.55-38.49ZM822.76,67.98l101.22,34.17-18.29,60.54-113.66-25.74,30.73-68.97ZM743.54,203.46l-369.31-68.88c-.27-13.73,14.45-29.57,25.18-45.11.17.29.36.55.57.79.09.11.18.21.29.31.37.35.79.62,1.26.8,121.89,18.17,240.18,41.43,358.24,73.43l-16.23,38.66ZM881.9,232.93l-116.66-25.04c.53-14.8,6.1-27.1,13.93-39.97l115.32,26.52-12.59,38.49ZM983.48,256.76c-16.72-2.42-68.7-15.01-83.9-19.92,2.21-14.79,6.09-23.61,12.84-35.14,10.93-1.26,70.57,15.41,81.86,19.78l-10.8,35.28Z"/>
  <polygon class="cls-4" points="923.98 102.15 905.69 162.69 792.03 136.95 822.76 67.98 923.98 102.15"/>
  <path class="cls-4" d="M894.49,194.44l-12.59,38.49-116.66-25.04c.53-14.8,6.1-27.1,13.93-39.97l115.32,26.52Z"/>
  <path class="cls-4" d="M994.28,221.48l-10.8,35.28c-16.72-2.42-68.7-15.01-83.9-19.92,2.21-14.79,6.09-23.61,12.84-35.14,10.93-1.26,70.57,15.41,81.86,19.78Z"/>
  <path class="cls-4" d="M759.77,164.8l-16.23,38.66-369.31-68.88c-.27-13.73,14.45-29.57,25.18-45.11.17.29.36.55.57.79.09.11.18.21.29.31.37.35.79.62,1.26.8,121.89,18.17,240.18,41.43,358.24,73.43Z"/>
  <path class="cls-1" d="M922.88,276.26c-29.54,65.7-39.4,124.99-61.03,194.06,6.58,4.69,1.93,18-1.62,22.57-1.45,1.85-4.17,3.3-7.26,4.69l-102.5,310.39c-5.52,16.72-27.05,4.3-40.49,10.58,4.02-1.17,7.8-2.03,9.33-.31,3.22,14.92-2.67,19.34-8.97,25.26,6,2.36,12.4,5.37,15.56,6.83-3.11-.78-9.63-1.7-18.14-2.69,11.97,4.43,24.52,4.9,35.39.53,8.41-3.39,15.82-15.54,19.97-27.3l53.06-154.05c-3-2.51-6.04-5.07-9.09-7.69-5.21-6.44,8.79-24.07,19.67-23.01l10.9-31.65c.53-5.57,1.83-11.1,3.54-16.59h-.01c.9-10.68,6.54-26.46,11.31-29.74,2.17-5.77,4-11.42,4.99-16.92h0s-.01-.01-.01-.01c.01-.02.01-.04.02-.06l74.99-223.74c.83.37.82-3.53,1.55-3.41.63.11,1.86-5.93,2.4-6,.3-.03.83-1.99.96-2.28-.36,3.92,2.11-7.72,3.12-4.92,2.79-1.02,5.31-19.86,5.41-21.11.01-.16.02-.32.03-.48-9.11-.95-16.62-1.93-23.08-2.95ZM725.91,850.33c1.26.31,1.95.6,1.99.87,0,.04-.75-.29-1.99-.87Z"/>
  <path class="cls-6" d="M727.9,851.2s-.75-.29-1.99-.87c1.26.31,1.95.6,1.99.87Z"/>
  <path class="cls-1" d="M945.96,279.21c-9.11-.95-16.62-1.93-23.08-2.95h0c.04-.09.07-.16.11-.24,16.91,2.07,23.62-6.85,22.97,3.19Z"/>
  <path class="cls-1" d="M705.11,846.59c.87.37,1.75.72,2.63,1.05-.71-.08-1.43-.17-2.17-.25-.83.4-1.35.26-1.74-.2-4.69-.52-9.84-1.06-15.28-1.61-.5-3.61-1.3-7.18-2.54-10.65-3.78-.56-7.55.54-10.86.37,2.11,1.69,2.58,3.79,2.33,6.12-.1.96-.33,1.96-.61,2.99-11.66-1.14-23.89-2.3-34.99-3.4-.55-5.28-1.78-9.47-4.11-12.25-3.21-3.84-6.39.93-8.86,10.93-14.42-1.54-25-2.89-26.52-3.84-36.74-8.76-73.73-16.76-110.1-26.64-.31-3.81-1.88-5.42-4.89-4.05-1.04.47-2.04,1.1-3.01,1.86h-.01c-13.84-3.87-27.57-8.05-41.15-12.67h-.01c-2.1-1.09-4.28-2.27-6.74-2.88-.24.23-.47.46-.7.7-2.65-1.71-5.57-4.2-6.38-3.58-28.46-7.1-57.8-18-85.02-34.56-9.91-6.03-4.54-100.76,4.43-202.67,1.76-4.23,2.89-9.6,1.41-15.73,1.69-18.67,3.48-37.43,5.3-55.79.91.14,1.82.27,2.73.39,9.85,1.31,16.95-14.41,15.86-23.58.45-3.16-.48-5.88-3.22-6.86-4.07-.87-8.1-1.69-12.07-2.48,5.8-56.11,11.45-105.31,14.72-131.94,4.89-39.91,12.83-121.91,24.57-143.14l11.34,2.13c.79,7.88-1.07,23.16-1.7,28l-29.72,229.85c-1.2,9.32-.81,14.95,1.55,21.72-1.34,1.38-2.65,2.8-3.92,4.26,2.04,5.8,1.5,17.66-1.44,23.26.66.21,1.29.37,1.89.49-5.25,13.41-4.4,28.91-5.72,45.39-5.33,66.48-12.74,129.25-11.17,198.02,98.24,46.27,229.61,75.39,339.77,95.56,2.46.45,6.83-1.12,10.95-2.34-2.18,1.03-4.15,2.55-5.8,4.77-3.81,5.12-6.93,19.91.97,23.25Z"/>
  <path class="cls-2" d="M374.11,456.65c-.32-2.69-1.34-4.82-3.22-5.79-4.07-1.24-8.1-2.41-12.07-3.55,3.97.79,8,1.61,12.07,2.48,2.74.98,3.67,3.7,3.22,6.86Z"/>
  <path class="cls-6" d="M348.81,551.36c.46-5.23.93-10.48,1.41-15.73,1.48,6.13.35,11.5-1.41,15.73Z"/>
  <path class="cls-1" d="M358.25,480.23c-.91-.12-1.82-.25-2.73-.39.33-3.26.65-6.51.98-9.75.58.06,1.17.12,1.75.18,8.51.79,14.97-7.29,15.86-13.62,1.09,9.17-6.01,24.89-15.86,23.58Z"/>
  <path class="cls-1" d="M409.45,174.36l-11.34-2.13c3.12-5.68,6.52-7.02,10.21-2.08.57.77.93,2.26,1.13,4.21Z"/>
  <path class="cls-6" d="M443.22,794.35c-1.04-.35-2.09-.71-3.13-1.07-.81.84-2.5.05-4.31-1.11.23-.24.46-.47.7-.7,2.46.61,4.64,1.79,6.74,2.88Z"/>
  <path class="cls-6" d="M492.29,809.21c-2.64-.72-5.27-1.44-7.9-2.19.97-.76,1.97-1.39,3.01-1.86,3.01-1.37,4.58.24,4.89,4.05Z"/>
  <path class="cls-1" d="M725.9,850.33c-3.11-.78-9.63-1.7-18.14-2.69h-.02c-.88-.33-1.76-.68-2.63-1.05-7.9-3.34-4.78-18.13-.97-23.25,1.65-2.22,3.62-3.74,5.8-4.77t.02-.01s.01,0,.02-.01c4.02-1.17,7.8-2.03,9.33-.31,3.22,14.92-2.67,19.34-8.97,25.26,6,2.36,12.4,5.37,15.56,6.83Z"/>
  <path class="cls-6" d="M727.9,851.2s-.75-.29-1.99-.87c1.26.31,1.95.6,1.99.87Z"/>
  <path class="cls-4" d="M355.52,479.84c-1.82,18.36-3.61,37.12-5.3,55.79-.19-.79-.42-1.59-.7-2.4-91.63,12.32-199.9-34.29-205.05-124.35l32.69,22.94c9.26.99,12.54-13.61,14.89-16.6,6.09.81,14.72,5.15,18.92,1.46,8.94-7.86,6.87-26.75,14.27-34.95,3.17-3.51,10.41-2.74,12.93,2.05,10.02,19.06,2.19,55.73,42.72,72.67,23.98,10.02,48.57,19.52,74.63,23.39Z"/>
  <path class="cls-1" d="M355.52,469.99c.33.04.65.07.98.1-.33,3.24-.65,6.49-.98,9.75-26.06-3.87-50.65-13.37-74.63-23.39-40.53-16.94-32.7-53.61-42.72-72.67-2.52-4.79-9.76-5.56-12.93-2.05-7.4,8.2-5.33,27.09-14.27,34.95-4.2,3.69-12.83-.65-18.92-1.46-2.35,2.99-5.63,17.59-14.89,16.6l-32.69-22.94c5.15,90.06,113.42,136.67,205.05,124.35.28.81.51,1.61.7,2.4-.48,5.25-.95,10.5-1.41,15.73-.83,2.01-1.8,3.77-2.7,5.23-12.68,20.54-117.98,13.94-176.05-38.2-46.13-41.41-62.61-109.24-27.95-137.35,8.97-7.27,22.62,1.95,32.24,1.38,5.53-.77,11.67-13.49,16.68-14.89,5.63-1.57,11.75,1.02,18.43,5.91,6.64-11.26,13.39-24.12,26.86-27.62,13.89-3.61,24.96,13.63,25.28,25.96,1.38,52.29,43.94,60.29,97.22,75.53-1.1,7.41-2.2,15-3.3,22.68Z"/>
  <path class="cls-2" d="M358.82,447.31c-.77,7.48-1.55,15.09-2.32,22.78-.33-.03-.65-.06-.98-.1,1.1-7.68,2.2-15.27,3.3-22.68Z"/>
  <path class="cls-6" d="M348.81,551.36c.46-5.23.93-10.48,1.41-15.73,1.48,6.13.35,11.5-1.41,15.73Z"/>
  <path class="cls-1" d="M374.11,456.65c-.89,6.33-7.35,14.41-15.86,13.62-.58-.06-1.17-.12-1.75-.18.77-7.69,1.55-15.3,2.32-22.78,3.97,1.14,8,2.31,12.07,3.55,1.88.97,2.9,3.1,3.22,5.79Z"/>
  <path class="cls-2" d="M355.52,469.99c1.1-7.68,2.2-15.27,3.3-22.68-.77,7.48-1.55,15.09-2.32,22.78-.33-.03-.65-.06-.98-.1Z"/>
  <path class="cls-2" d="M374.11,456.65c-.32-2.69-1.34-4.82-3.22-5.79-4.07-1.24-8.1-2.41-12.07-3.55,3.97.79,8,1.61,12.07,2.48,2.74.98,3.67,3.7,3.22,6.86Z"/>
  <path class="cls-1" d="M861.85,470.32c-1.36,4.35-2.77,8.74-4.23,13.17l-4.65,14.09c-4.54,2.06-9.86,4.01-12.97,6.96-12.24,11.59-21.91,30.28-41.98,30.72-24.31.54-72.37-49.41-100.87-21.56l-39.55,38.65c-46.06,45.01-93.29-20.76-135.74-68.57-32.05-36.1-89.73-42.92-126.28-12.41-7.32,6.12-10.73,12.38-19.47,10.57.6-1.56,1.29-3.1,2.08-4.6.73-13.46.73-8.86,1.44-23.26-.02-.05-.04-.1-.05-.15,45-46.53,123.02-45.14,164.37,7.6,26.94,34.36,67.64,80.25,97.09,72.37,21.92-5.87,44.9-54.61,79.98-59.58,25.19-3.56,50.19,11.45,70.05,24.72,31.27,20.9,42.45-41.69,69.48-29.47.48.22.91.46,1.3.75Z"/>
  <path class="cls-1" d="M379.63,454.08c-.71,14.4-.71,9.8-1.44,23.26-.79,1.5-1.48,3.04-2.08,4.6-.6-.12-1.23-.28-1.89-.49,2.94-5.6,3.48-17.46,1.44-23.26,1.27-1.46,2.58-2.88,3.92-4.26.01.05.03.1.05.15Z"/>
  <path class="cls-1" d="M860.23,492.89c-1.45,1.85-4.17,3.3-7.26,4.69l4.65-14.09c1.46-4.43,2.87-8.82,4.23-13.17,6.58,4.69,1.93,18-1.62,22.57Z"/>
  <path class="cls-4" d="M484.38,807.02c-14.68,11.63-21.24,55.13-46.65,87.61-19.07,24.37-48.77,24.77-74.82,5.15,25.52-.86,49.07-14.25,59.13-40.49l17.67-46.1c1.54-4.01,1.23-8.81,2.46-12.35.77-2.24,2.15-3.97,5-4.68-1.31-.45-2.61-1.11-3.94-1.81,13.58,4.62,27.31,8.8,41.15,12.67Z"/>
  <path class="cls-1" d="M387.69,946.54c-42.55-7.97-90.8-47.79-69.32-75.58,15.52-20.07,51.21,6.12,78.27-9.28,20.39-11.6,18.03-48.07,39.14-69.51,1.81,1.16,3.5,1.95,4.31,1.11,1.04.36,2.09.72,3.13,1.07h.01c1.33.7,2.63,1.36,3.94,1.81-2.85.71-4.23,2.44-5,4.68-1.23,3.54-.92,8.34-2.46,12.35l-17.67,46.1c-10.06,26.24-33.61,39.63-59.13,40.49,26.05,19.62,55.75,19.22,74.82-5.15,25.41-32.48,31.97-75.98,46.65-87.61h.01c2.63.75,5.26,1.47,7.9,2.19,2.12,25.28-50.9,147.38-104.6,137.33Z"/>
  <path class="cls-6" d="M443.22,794.35c-1.04-.35-2.09-.71-3.13-1.07-.81.84-2.5.05-4.31-1.11.23-.24.46-.47.7-.7,2.46.61,4.64,1.79,6.74,2.88Z"/>
  <path class="cls-6" d="M492.29,809.21c-2.64-.72-5.27-1.44-7.9-2.19.97-.76,1.97-1.39,3.01-1.86,3.01-1.37,4.58.24,4.89,4.05Z"/>
  <path class="cls-4" d="M840,504.54c-12.24,11.59-21.91,30.28-41.98,30.72-24.31.54-72.37-49.41-100.87-21.56l-39.55,38.65c-46.06,45.01-93.29-20.76-135.74-68.57-32.05-36.1-89.73-42.92-126.28-12.41-7.32,6.12-10.73,12.38-19.47,10.57-5.25,13.41-4.4,28.91-5.72,45.39-5.33,66.48-12.74,129.25-11.17,198.02,98.24,46.27,229.61,75.39,339.77,95.56,2.46.45,6.83-1.12,10.95-2.34t.02-.01s.01,0,.02-.01c13.44-6.28,34.97,6.14,40.49-10.58l102.5-310.39c-4.54,2.06-9.86,4.01-12.97,6.96ZM429.32,569.61c-10.88-1.73-28.01-9.87-31.82-25.61-5.43-22.38,2.97-48.33,22.24-61.63,13.69-9.45,44.51-22.23,60.56-6.43,20.62,20.31,9.26,57.01-8.44,76.11-13.89,14.99-25.38,20.3-42.54,17.56ZM502.54,752.32c-8.33-.29-20.76-6.46-24.6-18.58-5.36-16.94,6.39-36.33,19.03-42.68,15.61-7.83,40.04-6.94,48.91,11,10.23,20.68-15.27,51.23-43.34,50.26ZM535.74,641.06c-16.89,24.88-41.22,34.35-64.55,23.19-23.97-11.45-34.55-40.88-20.92-67.56,10.6-20.76,31.91-37.39,53.76-47.66,18.09-8.51,46.49-2.68,52.99,16.9,8.83,26.55-6.43,53.27-21.28,75.13ZM709.31,720.02c-4.67,13.42-14.88,24.46-26.85,33.76-34.33,26.66-74.79,21.2-97.9-15.3-4.56-26.27,6.85-53.4,29.86-69.52,21.21-2.7,41.84-6.23,62.1-1.89,26.28,5.64,41.76,27.23,32.79,52.95ZM802.86,607.68c-2.84,18.99-13.98,37.64-31.02,48.64-14.58,9.4-30.43,8.79-42.79,1.4-11.32-6.78-20.14-21.35-17.22-38.44,4.86-28.49,28.56-49.67,58.09-49.2,19.7.31,35.89,17.82,32.94,37.6Z"/>
  <path class="cls-1" d="M480.3,475.94c-16.05-15.8-46.87-3.02-60.56,6.43-19.27,13.3-27.67,39.25-22.24,61.63,3.81,15.74,20.94,23.88,31.82,25.61,17.16,2.74,28.65-2.57,42.54-17.56,17.7-19.1,29.06-55.8,8.44-76.11ZM450.95,533.68c5.14-9.42,8.86-17.3,11.74-27.96,1.24-1.76,6.7.64,7.96,2.19,5.37,6.59-4.62,22.47-19.7,25.77Z"/>
  <path class="cls-1" d="M769.92,570.08c-29.53-.47-53.23,20.71-58.09,49.2-2.92,17.09,5.9,31.66,17.22,38.44,12.36,7.39,28.21,8,42.79-1.4,17.04-11,28.18-29.65,31.02-48.64,2.95-19.78-13.24-37.29-32.94-37.6ZM764.79,631.49c4.71-7.14,8.12-13.1,10.76-21.18,1.14-1.33,6.14.48,7.3,1.66,4.91,4.99-4.24,17.02-18.06,19.52Z"/>
  <path class="cls-1" d="M557.02,565.93c-6.5-19.58-34.9-25.41-52.99-16.9-21.85,10.27-43.16,26.9-53.76,47.66-13.63,26.68-3.05,56.11,20.92,67.56,23.33,11.16,47.66,1.69,64.55-23.19,14.85-21.86,30.11-48.58,21.28-75.13ZM504.13,637.03c8.38-18.79,14.46-34.5,19.17-55.77,2.02-3.51,10.94,1.28,13,4.36,8.76,13.15-7.54,44.82-32.17,51.41Z"/>
  <path class="cls-1" d="M676.52,667.07c-20.26-4.34-40.89-.81-62.1,1.89-23.01,16.12-34.42,43.25-29.86,69.52,23.11,36.5,63.57,41.96,97.9,15.3,11.97-9.3,22.18-20.34,26.85-33.76,8.97-25.72-6.51-47.31-32.79-52.95ZM688.58,718.69c-3.09,9.1-16.66,15.41-26.49,13.09l15.64-28.19c5.15.73,13.37,7.68,10.85,15.1Z"/>
  <path class="cls-1" d="M502.54,752.32c-8.33-.29-20.76-6.46-24.6-18.58-5.36-16.94,6.39-36.33,19.03-42.68,15.61-7.83,40.04-6.94,48.91,11,10.23,20.68-15.27,51.23-43.34,50.26Z"/>
  <path class="cls-4" d="M888,268.62l-72.48,195c-6.93,2.91-9.65-.14-10.95-2.29-2.09-3.44-2.54-9.11-.96-13.42l66.94-182.41-121.07-25.62c-33.04,85.35-61.19,168.05-85.49,254.04-3.22,5.3-6.8,4.28-9.94,4.02-3.16-.26-5.51-2.51-5.08-7.19,5.58-31.64,14.29-59.85,24.75-89.42l58.79-166.32-323.06-60.65c.79,7.88-1.07,23.16-1.7,28l-29.72,229.85c-1.2,9.32-.81,14.95,1.55,21.72,45-46.53,123.02-45.14,164.37,7.6,26.94,34.36,67.64,80.25,97.09,72.37,21.92-5.87,44.9-54.61,79.98-59.58,25.19-3.56,50.19,11.45,70.05,24.72,31.27,20.9,42.45-41.69,69.48-29.47.48.22.91.46,1.3.75,21.63-69.07,31.49-128.36,61.03-194.06h0c-14.71-2.33-24.08-4.87-34.88-7.64ZM586.95,310.78c34.97-4.14,40.95-46.72,53.06-46.33,23.4.75-30.67,92.82-67.3,73.75-17.7-9.21-5.46-55.62,21.23-86.21,21.45,16.05-13.13,36.22-6.99,58.79ZM517.38,231.32c19.42,11.28-8.5,28.12-6.96,54.46,28.73-5.05,35.63-42.04,47.31-43.21,26.96-2.71-30.44,84.67-57.75,73.68-19.99-8.05-9.4-60.41,17.4-84.93ZM459.71,379.21c-43.93-49.11-20.1-129.44-5.79-127.87,18.31,2-18.92,45.43,17.33,93.12,14.44,19,42.98,35.18,72.59,32.16,94.96-9.67,131.01-85.65,144.37-77.25,29.71,18.68-145.37,172.78-228.5,79.84Z"/>
  <path class="cls-1" d="M572.71,338.2c-17.7-9.21-5.46-55.62,21.23-86.21,21.45,16.05-13.13,36.22-6.99,58.79,34.97-4.14,40.95-46.72,53.06-46.33,23.4.75-30.67,92.82-67.3,73.75Z"/>
  <path class="cls-1" d="M459.71,379.21c-43.93-49.11-20.1-129.44-5.79-127.87,18.31,2-18.92,45.43,17.33,93.12,14.44,19,42.98,35.18,72.59,32.16,94.96-9.67,131.01-85.65,144.37-77.25,29.71,18.68-145.37,172.78-228.5,79.84Z"/>
  <path class="cls-1" d="M499.98,316.25c-19.99-8.05-9.4-60.41,17.4-84.93,19.42,11.28-8.5,28.12-6.96,54.46,28.73-5.05,35.63-42.04,47.31-43.21,26.96-2.71-30.44,84.67-57.75,73.68Z"/>
  <path class="cls-3" d="M884.7,559.51c-.72-.52-1.43-1-2.12-1.37l2.12,1.37h0Z"/>
  <path class="cls-3" d="M948.9,729.1l-2.63-6.79c1.18,1.05,1.96,3.54,2.63,6.79Z"/>
  <path class="cls-5" d="M884.7,559.51c-.72-.52-1.43-1-2.12-1.37l2.12,1.37h0Z"/>
  <path class="cls-4" d="M688.58,718.69c-3.09,9.1-16.66,15.41-26.49,13.09l15.64-28.19c5.15.73,13.37,7.68,10.85,15.1Z"/>
  <path class="cls-4" d="M504.13,637.03c8.38-18.79,14.46-34.5,19.17-55.77,2.02-3.51,10.94,1.28,13,4.36,8.76,13.15-7.54,44.82-32.17,51.41Z"/>
  <path class="cls-4" d="M841.2,587.88c-1.71,5.49-3.01,11.02-3.54,16.59l-10.9,31.65c1.31.12,2.57.51,3.75,1.23,23.31,14.22,42.66,33.47,61.19,52.98,30.24,31.85,8.28,62.24,9.76,83.72.37,5.4,6.69,9.03,11.01,7.1,10.08-4.52,15.8-22.64,27.15-26.22,5.34-1.69,11.48,5.77,16.73,8.97,3.35-1.79,12.25-13.83,20.32-9.18l20.65,34.18c31.63-84.49-67.3-175.31-156.12-201.02ZM946.27,722.31c1.18,1.05,1.96,3.54,2.63,6.79l-2.63-6.79Z"/>
  <path class="cls-1" d="M988.25,815.32c-11.14,3.03-19.91-10.91-28.94-14.27-5.37-1.53-16.12,7.63-21.27,6.89-5.79-.83-10.34-5.67-14.48-12.84-10.62,7.62-21.98,16.67-35.72,14.43-14.17-2.3-17.34-22.54-12.66-33.95,19.92-48.59-16.16-73.09-59-108.76l10.58-30.7c1.31.12,2.57.51,3.75,1.23,23.31,14.22,42.66,33.47,61.19,52.98,30.24,31.85,8.28,62.24,9.76,83.72.37,5.4,6.69,9.03,11.01,7.1,10.08-4.52,15.8-22.64,27.15-26.22,5.34-1.69,11.48,5.77,16.73,8.97,3.35-1.79,12.25-13.83,20.32-9.18l20.65,34.18c31.63-84.49-67.3-175.31-156.12-201.02,3.15-10.15,7.7-20.12,11.3-29.74,19.89-13.68,133.5,49.09,165.6,120.23,25.49,56.5,13.21,125.22-29.85,136.95Z"/>
  <path class="cls-1" d="M826.76,636.12l-10.58,30.7c-3-2.51-6.04-5.07-9.09-7.69-5.21-6.44,8.79-24.07,19.67-23.01Z"/>
  <path class="cls-1" d="M852.5,558.14c-3.6,9.62-8.15,19.59-11.3,29.74h-.01c.9-10.68,6.54-26.46,11.31-29.74Z"/>
  <path class="cls-4" d="M450.95,533.68c5.14-9.42,8.86-17.3,11.74-27.96,1.24-1.76,6.7.64,7.96,2.19,5.37,6.59-4.62,22.47-19.7,25.77Z"/>
  <path class="cls-4" d="M764.79,631.49c4.71-7.14,8.12-13.1,10.76-21.18,1.14-1.33,6.14.48,7.3,1.66,4.91,4.99-4.24,17.02-18.06,19.52Z"/>
  <path class="cls-4" d="M704.35,961.18c-29.74,8.41-54.51-2.87-60.75-32.21-7-32.93.37-68.1-1.72-87.96,11.1,1.1,23.33,2.26,34.99,3.4-.79,2.93-2.05,6.09-2.28,9.23l-3.65,48.72c-2.07,27.74,12.33,48.66,33.41,58.82Z"/>
  <path class="cls-1" d="M664.8,994.92c-44.5-9.53-45.04-118.22-35.89-155.23,4.06.42,8.42.86,12.97,1.32,2.09,19.86-5.28,55.03,1.72,87.96,6.24,29.34,31.01,40.62,60.75,32.21-21.08-10.16-35.48-31.08-33.41-58.82l3.65-48.72c.23-3.14,1.49-6.3,2.28-9.23,3.98.39,7.9.78,11.68,1.17,3.42,25.03-8.25,52.3,2.76,68.31,16.54,24.05,57,13.17,61.99,37.26,6.89,33.35-49.59,52.1-88.5,43.77Z"/>
  <path class="cls-1" d="M641.88,841.01c-4.55-.46-8.91-.9-12.97-1.32,2.47-10,5.65-14.77,8.86-10.93,2.33,2.78,3.56,6.97,4.11,12.25Z"/>
  <path class="cls-1" d="M677.48,841.42c.25-2.33-.22-4.43-2.33-6.12,3.31.17,7.08-.93,10.86-.37,1.24,3.47,2.04,7.04,2.54,10.65-3.78-.39-7.7-.78-11.68-1.17.28-1.03.51-2.03.61-2.99Z"/>
</svg>