<?xml version="1.0" encoding="UTF-8"?>
<svg id="Capa_1" data-name="Capa 1" xmlns="http://www.w3.org/2000/svg" width="1080" height="1080" viewBox="0 0 1080 1080">
  <defs>
    <style>
      .cls-1 {
        fill: none;
      }

      .cls-1, .cls-2 {
        stroke: #000;
        stroke-miterlimit: 10;
      }

      .cls-3 {
        font-family: CooperBlackStd, 'Cooper Std';
        font-size: 88px;
      }

      .cls-2 {
        fill: #93c572;
      }

      .cls-4 {
        fill: #80461b;
      }
    </style>
  </defs>
  <g>
    <path class="cls-2" d="M603.19,272.16h-312.14c-45.93,0-83.16,37.23-83.16,83.16v369.36c0,45.93,37.23,83.16,83.16,83.16h314.3c73.67,0,140.35-29.86,188.63-78.13,48.27-48.27,78.13-114.97,78.13-188.63,0-148.52-120.4-268.92-268.92-268.92ZM349.01,658.76c-33.95,1.65-60.42-19.85-77.27-48.21-12.35-21.81-19.5-46.16-20.33-70.97v-22.34c.84-22.78,6.84-44.93,17.32-65.18,13.7-26.48,37.24-49.35,67.33-53.32-13.31,40.99-20.78,79.21-4.55,119.49l11,27.34c15.03,37.84,16.12,73.32,6.5,113.19ZM356.88,657.92c4.43-17.9,7.97-35.31,9.24-53.79,2.43-27-1.91-52.98-12.02-77.91l-11.08-27.33c-13.02-34.33-11.63-66.2-.59-100.66,14.11-.55,26.66,3.04,38.49,9.71,13.05,7.54,23.38,17.91,32.07,30.31,10.18,14.8,17.03,31.21,21.28,48.64-33.74,29.79-58.62,71.79-60.45,117.17-.34,15.54,2.2,30.32,8.65,44.11-8.15,4.89-16.33,7.9-25.59,9.75ZM402.61,543.26c16.26-29.75,40.78-54.2,70.59-70.36,34.11-18.47,79.11-25.71,111.57-1.2-38.97,19.89-70.69,41.05-88.38,82.48l-11.24,26.33c-15.91,37.03-40.54,63.01-75.17,84.13-34.36-31.39-28.46-82.8-7.37-121.38ZM524.87,666.89c-33.1,17.87-76.89,24.96-108.62,2.64,42.33-25.82,71.5-49.39,91.12-95.18l12.55-29.33c15.04-32.33,38.26-52.85,69.71-69.29,13.89,12.86,21.41,30.42,23.03,49.26l.1,17.38c-4.66,52.33-42.41,99.97-87.89,124.52Z"/>
    <path class="cls-1" d="M342.51,545.57c15.03,37.84,16.12,73.32,6.5,113.19-33.95,1.65-60.42-19.85-77.27-48.21-12.35-21.81-19.5-46.16-20.33-70.97v-22.34c.84-22.78,6.84-44.93,17.32-65.18,13.7-26.48,37.24-49.35,67.33-53.32-13.31,40.99-20.78,79.21-4.55,119.49l11,27.34Z"/>
    <path class="cls-1" d="M382.47,648.17c-8.15,4.89-16.33,7.9-25.59,9.75,4.43-17.9,7.97-35.31,9.24-53.79,2.43-27-1.91-52.98-12.02-77.91l-11.08-27.33c-13.02-34.33-11.63-66.2-.59-100.66,14.11-.55,26.66,3.04,38.49,9.71,13.05,7.54,23.38,17.91,32.07,30.31,10.18,14.8,17.03,31.21,21.28,48.64-33.74,29.79-58.62,71.79-60.45,117.17-.34,15.54,2.2,30.32,8.65,44.11Z"/>
    <path class="cls-1" d="M409.98,664.64c-34.36-31.39-28.46-82.8-7.37-121.38,16.26-29.75,40.78-54.2,70.59-70.36,34.11-18.47,79.11-25.71,111.57-1.2-38.97,19.89-70.69,41.05-88.38,82.48l-11.24,26.33c-15.91,37.03-40.54,63.01-75.17,84.13Z"/>
    <path class="cls-1" d="M612.76,542.37c-4.66,52.33-42.41,99.97-87.89,124.52-33.1,17.87-76.89,24.96-108.62,2.64,42.33-25.82,71.5-49.39,91.12-95.18l12.55-29.33c15.04-32.33,38.26-52.85,69.71-69.29,13.89,12.86,21.41,30.42,23.03,49.26l.1,17.38Z"/>
    <text class="cls-3" transform="translate(478.94 368.99) rotate(-20.23)"><tspan x="0" y="0">C</tspan></text>
    <text class="cls-3" transform="translate(536.84 345.96) rotate(-.56)"><tspan x="0" y="0">A</tspan></text>
    <text class="cls-3" transform="translate(608.91 345.76) rotate(18.14)"><tspan x="0" y="0">F</tspan></text>
    <text class="cls-3" transform="translate(663.53 362.83) rotate(35.35)"><tspan x="0" y="0">É</tspan></text>
    <text class="cls-3" transform="translate(712.02 399.21) rotate(47.85)"><tspan x="0" y="0"> </tspan></text>
    <text class="cls-3" transform="translate(730.97 415.4) rotate(61.73)"><tspan x="0" y="0">D</tspan></text>
    <text class="cls-3" transform="translate(763.94 476.92) rotate(80.69)"><tspan x="0" y="0">E</tspan></text>
    <text class="cls-3" transform="translate(773.84 535.91) rotate(97.49)"><tspan x="0" y="0">L</tspan></text>
    <text class="cls-3" transform="translate(765.4 590.87) rotate(109.15)"><tspan x="0" y="0"> </tspan></text>
    <text class="cls-3" transform="translate(759.38 615.09) rotate(121.68)"><tspan x="0" y="0">P</tspan></text>
    <text class="cls-3" transform="translate(729.41 666.18) rotate(140.14)"><tspan x="0" y="0">R</tspan></text>
    <text class="cls-3" transform="translate(678.43 710.35) rotate(160.37)"><tspan x="0" y="0">A</tspan></text>
    <text class="cls-3" transform="translate(610.88 735.08) rotate(-178.92)"><tspan x="0" y="0">D</tspan></text>
    <text class="cls-3" transform="translate(541.11 734.39) rotate(-159.03)"><tspan x="0" y="0">O</tspan></text>
  </g>
  <g>
    <path class="cls-4" d="M353.81,609.39c.07,16.41-2.55,32.45-5.63,48.48-58.82-.4-91.69-61.61-95.17-114.46l-1.6-3.82c.57-.19,1.13-.49,1.42-1.04.48-.91.18-18.28,0-20.65-.03-.4-.87-.58-1.42-.65l1.61-3.81c3.47-47.85,29.89-102.77,80.63-112.89,2.11-1.62,2.28-1.67.52-.16-12.81,37.53-19.84,78.73-4.67,116.68,12.28,29.31,24.14,58.2,24.29,92.33Z"/>
    <path class="cls-4" d="M252.83,538.54c-.29.55-.84.85-1.42,1.04v-22.34c.56.06,1.4.25,1.43.65.17,2.37.46,19.74-.01,20.65Z"/>
    <g>
      <path class="cls-4" d="M349.01,658.76c-33.95,1.65-60.42-19.85-77.27-48.21-12.35-21.81-19.5-46.16-20.33-70.97l1.6,3.82c3.48,52.86,36.34,114.06,95.17,114.47,3.07-16.03,5.7-32.07,5.63-48.48-.15-34.13-12.01-63.03-24.29-92.33-15.17-37.96-8.15-79.16,4.67-116.69,1.75-1.51,1.58-1.46-.53.17-50.75,10.12-77.16,65.03-80.63,112.89l-1.61,3.81c.83-22.78,6.83-44.93,17.31-65.18,13.7-26.48,37.24-49.35,67.33-53.32-13.31,40.99-20.78,79.21-4.55,119.49l11,27.34c15.03,37.84,16.12,73.32,6.5,113.19Z"/>
      <path class="cls-4" d="M612.76,542.37c-4.66,52.33-42.41,99.97-87.89,124.52-33.1,17.87-76.89,24.96-108.62,2.64,42.33-25.82,71.5-49.39,91.12-95.18l12.55-29.33c15.04-32.33,38.26-52.85,69.71-69.29,13.89,12.86,21.41,30.42,23.03,49.26l.1,17.38Z"/>
      <path class="cls-4" d="M584.77,471.7c-38.97,19.89-70.69,41.05-88.38,82.48l-11.24,26.33c-15.91,37.03-40.54,63.01-75.17,84.13-34.36-31.39-28.46-82.8-7.37-121.38,16.26-29.75,40.78-54.2,70.59-70.36,34.11-18.47,79.11-25.71,111.57-1.2Z"/>
      <path class="cls-4" d="M373.82,604.06c-.34,15.54,2.2,30.32,8.65,44.11-8.15,4.89-16.33,7.9-25.59,9.75,4.43-17.9,7.97-35.31,9.24-53.79,2.43-27-1.91-52.98-12.02-77.91l-11.08-27.33c-13.02-34.33-11.63-66.2-.59-100.66,14.11-.55,26.66,3.04,38.49,9.71,13.05,7.54,23.38,17.91,32.07,30.31,10.18,14.8,17.03,31.21,21.28,48.64-33.74,29.79-58.62,71.79-60.45,117.17Z"/>
    </g>
  </g>
</svg>