<?xml version="1.0" encoding="UTF-8"?>
<svg id="Capa_1" data-name="Capa 1" xmlns="http://www.w3.org/2000/svg" width="1080" height="1080" viewBox="0 0 1080 1080">
  <defs>
    <style>
      .cls-1 {
        fill: none;
      }

      .cls-2 {
        fill: #cf9fff;
      }
    </style>
  </defs>
  <rect class="cls-2" x="177.12" y="177.12" width="725.76" height="725.76" rx="217.12" ry="217.12"/>
  <path class="cls-1" d="M902.88,524.48v72.5c-.07.08-.15.15-.22.23-34.73-14.22-67.02-30.11-53.69-55.48,4.1-7.56,17.68-14.48,27.8-6.28,5.26,4.23,9.1,11.15,17.43,9.22.22-9,3.58-16,8.68-20.19Z"/>
  <g>
    <g>
      <path d="M829.11,686.98l-47.03-3.66.34-152.58c.36-116-84.82-211.27-202.22-211.97-17.76,0-6.44-38.5-38.83-38.84-15.85-.35-26.13,8.7-28.57,26.64-1.04,6.8-7.31,12.73-15.5,12.9-109.38,1.04-198.04,87.43-198.21,197.34l-.35,167.03c-16.2,2.09-30.83-2.26-47.9,3.83,1.56,15.85,15.51,26.83,23.16,38.32,17.77,26.3,43.2,33.45,73.51,33.45l381.28.69c38.14,0,65.13-10.63,84.99-43.37,4.7-7.83,16.2-15.32,15.33-29.78ZM328.88,444.88c29.42-68.63,98.75-111.14,173.13-110.61,28.55.18,22.82-36.06,34.83-39.54,19.85-5.57,12.71,40.93,41.28,40.24,100.16-2.79,185.33,75.41,187.24,177.31,1.05,58.17,2.79,112.69-.35,171.56l-81.16.87-.53-103.28c-.18-23.87-16.19-41.28-39.88-44.24-14.64-1.74-29.44,2.78-46.5-3.31,25.08-11.85,52.76-22.47,68.97-46.16,12.71-18.29,7.13-41.28-6.8-55.9-13.06-13.77-35.71-12.9-55.57-2.45-14.27-22.29-37.61-34.13-63.04-18.46-25.26-13.24-51.04-6.8-62.53,18.99-20.03-14.64-44.42-12.37-58.35,3.13-15.33,17.07-16.54,43.55-1.05,61.65,16.55,19.52,40.06,28.57,62.35,39.2-14.11,5.4-26.46,2.61-38.31,2.79-29.09.34-45.64,21.6-45.64,49.8l-.17,96.5-82.03.35-.36-134.12c0-35.88,0-70.71,14.47-104.32ZM662.32,618.67c-.14.13-.28.26-.43.38-4.7,4.18-17.23,4.87-24.56-2.44-.35-.36-.7-.71-1.06-1.06-19.62-19.2-51.93-25.55-74.18-3.98-13.06,12.53-28.39,13.4-40.58,1.56-42.51-40.93-76.12,13.24-99.11,7.49-1.66-.42-3.04-1.21-4.18-2.28-3.05-2.84-4.41-7.68-5.08-13-.08-.66-.15-1.33-.22-2.01-.25-2.71-.36-5.49-.44-8.14-.88-17.24,3.13-41.8,25.08-41.8l211.78,1.05c3.41,0,6.38,1.52,8.9,4.09,12.37,12.61,13.92,50.74,4.08,60.14ZM667.47,683.5h0l-253.24-.18-.53-48.08c44.42,11.15,59.05-45.27,99.46-9.23,16.54,14.81,39.71,14.64,55.39-.69,15.33-14.8,37.27-15.67,52.42-1.05,12.2,11.68,27.87,16.03,46.33,9.76l.18,49.47ZM556.85,468.44c.24-.65.47-1.31.68-1.96.07-.22.14-.43.2-.64.21-.63.4-1.26.57-1.89.21-.75.41-1.5.59-2.25.16-.69.31-1.38.45-2.06.91-4.56,1.23-9.17.93-13.85-.07-1.13-.18-2.27-.33-3.41-.07-.58-.16-1.16-.24-1.74-.28-1.72-.63-3.46-1.08-5.21h0c-.59-2.35-1.33-4.72-2.24-7.12-.9-2.4-1.95-4.83-3.17-7.3,14.39-2.97,22.92.41,28.43,5.98.21.2.41.42.61.63.19.22.39.43.58.65.57.66,1.1,1.34,1.6,2.03,1.33,1.86,2.44,3.84,3.41,5.84.6,1.25,1.15,2.5,1.65,3.73.2.5.4.99.59,1.47.19.48.38.96.56,1.44.09.23.18.47.27.7.36.93.7,1.83,1.04,2.68.08.22.17.43.25.64.26.62.51,1.22.76,1.78.6,1.31,1.21,2.45,1.88,3.33.2.26.4.49.6.7.41.42.84.75,1.31.97,7.14,3.31,26.65-31.88,51.21-10.46.6.52,1.18,1.07,1.74,1.65.38.39.74.79,1.09,1.2.7.83,1.36,1.7,1.98,2.61.77,1.13,1.47,2.34,2.09,3.58,2.6,5.21,3.87,11.26,3.4,17.1-.08,1.07-.22,2.12-.43,3.17-.2,1.04-.46,2.07-.79,3.08-.48,1.52-1.11,3-1.89,4.41-.26.47-.53.93-.83,1.38-1.9,2.96-4.51,5.58-7.92,7.65l-63.93,38.31-34.3-41.98c1.73-2.63,3.29-5.25,4.66-7.87h.01c1.58-3,2.92-5.98,4.01-8.97ZM566.8,535.45l-52.78.51,25.79-34.3,26.99,33.79ZM543.8,457.23c-6.96,26.48-25.95,47.73-44.4,66.72-47.21-19.33-91.1-40.93-72.98-75.42,5.57-10.27,24.03-19.68,37.78-8.53,7.15,5.75,12.37,15.15,23.7,12.53.51-21.42,14.11-34.48,30.65-33.44,18.29,1.23,30.31,18.3,25.25,38.14ZM785.39,726.34c-9.67,9.92-21.89,17.25-36.59,17.25h-421.67c-11.93,0-21.69-6.23-29.96-14.7-2.07-2.12-4.04-4.38-5.94-6.71-.94-1.17-1.87-2.36-2.78-3.56-1.82-2.4-3.56-4.84-5.23-7.27-1.25-1.82-2.47-3.64-3.66-5.42-.79-1.18-1.56-2.35-2.33-3.5-.38-.57-.75-1.14-1.13-1.7h527.23c-4.42,8.62-10.41,17.9-17.94,25.61Z"/>
      <path d="M753.51,648.84c0,7.31-6.78,8.01-9.05,8.01-2.09-.18-6.97-.69-7.31-5.93-1.74-45.45-4.19-109.9,7.31-110.07,2.43-.18,8.36,4.19,8.54,8.71l.52,99.28Z"/>
      <path d="M513.32,357.61c-7.49,16.54-32.57,17.24-48.77,7.31,12.02-14.11,31.7-14.11,48.77-7.31Z"/>
      <path d="M440.68,382.18c-33.95,15.85-59.56,41.27-78.38,75.41-3.83,4.19-8.36,5.06-10.28,4.19-1.92-.71-4.17-4.88-3.83-9.94,21.6-51.2,93.53-97.7,98.23-80.12.87,3.66-.34,7.83-5.75,10.45Z"/>
    </g>
    <polygon class="cls-1" points="566.8 535.45 514.02 535.96 539.8 501.65 566.8 535.45"/>
    <path class="cls-1" d="M661.89,619.05c-4.7,4.17-17.24,4.87-24.56-2.45-19.51-20.02-52.59-27-75.24-5.04-13.06,12.53-28.4,13.4-40.59,1.56-42.5-40.93-76.12,13.24-99.1,7.49-8.89-2.27-9.58-14.8-9.92-25.43-.88-17.24,3.13-41.8,25.08-41.8l211.79,1.05c20.39,0,24.92,54.17,12.55,64.62Z"/>
    <path class="cls-1" d="M646.4,488.95l-63.93,38.32-34.31-41.99c13.76-20.89,16.54-40.93,5.04-64.27,37.98-7.84,35.19,28.57,43.55,32.57,7.14,3.32,26.64-31.87,51.2-10.45,12.55,10.81,15.67,35.37-1.56,45.82Z"/>
    <path class="cls-1" d="M667.46,683.5l-253.25-.18-.53-48.08c44.42,11.15,59.05-45.28,99.46-9.23,16.54,14.8,39.72,14.64,55.39-.69,15.33-14.8,37.27-15.67,52.43-1.05,12.19,11.68,27.86,16.03,46.32,9.76l.18,49.46Z"/>
    <path class="cls-1" d="M765.36,512.28c-1.91-101.9-87.08-180.1-187.24-177.31-28.57.69-21.43-45.81-41.28-40.24-12.01,3.48-6.28,39.72-34.83,39.54-74.38-.53-143.71,41.98-173.13,110.61-14.47,33.61-14.47,68.44-14.47,104.32l.36,134.12,82.03-.35.17-96.5c0-28.2,16.55-49.46,45.64-49.8,11.85-.18,24.2,2.61,38.31-2.79-22.29-10.63-45.8-19.68-62.35-39.2-15.49-18.1-14.28-44.58,1.05-61.65,13.93-15.5,38.32-17.77,58.35-3.13,11.49-25.79,37.27-32.23,62.53-18.99,25.43-15.67,48.77-3.83,63.04,18.46,19.86-10.45,42.51-11.32,55.57,2.45,13.93,14.62,19.51,37.61,6.8,55.9-16.21,23.69-43.89,34.31-68.97,46.16,17.06,6.09,31.86,1.57,46.5,3.31,23.69,2.96,39.7,20.37,39.88,44.24l.53,103.28,81.16-.87c3.14-58.87,1.4-113.39.35-171.56ZM444.02,379.92c-.86.83-1.96,1.59-3.33,2.26-33.96,15.84-59.56,41.26-78.38,75.41-3.83,4.18-8.36,5.05-10.27,4.18-.34-.12-.68-.35-1.02-.67-.12-.11-.23-.23-.34-.35-1.47-1.68-2.74-5.04-2.48-8.91,4.89-11.6,12.37-22.96,21.06-33.38,2.04-2.46,4.16-4.86,6.32-7.2.54-.58,1.08-1.17,1.63-1.74,1.09-1.16,2.2-2.3,3.31-3.42,26.09-26.32,57.16-43.39,64.54-36.72.11.09.21.19.31.31.49.54.85,1.22,1.07,2.03.65,2.73.14,5.75-2.42,8.2ZM509.06,363.8c-10.28,10.34-30.64,9.62-44.5,1.13.44-.52.9-1.02,1.36-1.5,12.1-12.6,30.96-12.36,47.4-5.82h.01c-1.08,2.39-2.53,4.45-4.27,6.19ZM753.34,650.73c-.07.38-.17.74-.28,1.08-.06.17-.12.33-.19.49-.2.47-.44.89-.72,1.27-.18.26-.38.5-.59.71-2.19,2.26-5.61,2.56-7.1,2.56-1.44-.12-4.2-.4-5.89-2.26-.61-.68-1.09-1.57-1.31-2.73-.02-.15-.05-.3-.07-.45-.01-.16-.03-.32-.04-.48-1.61-42.03-3.82-100.28,4.94-108.98.71-.71,1.5-1.09,2.37-1.1,1.31-.09,3.64,1.13,5.53,3.01.11.09.21.2.32.32.21.21.42.44.61.68.2.23.38.47.55.72.18.25.34.5.49.75.08.13.15.26.21.39.21.39.38.79.51,1.2.05.14.09.27.12.41.07.27.13.55.16.82,0,.14.02.28.03.42l.52,99.28c0,.69-.06,1.31-.17,1.89Z"/>
    <path class="cls-1" d="M803.32,700.73c-10.1,19.68-28.4,42.86-54.52,42.86h-421.67c-23.87,0-39.02-24.92-51.04-42.86h527.23Z"/>
  </g>
</svg>