<?xml version="1.0" encoding="UTF-8"?>
<svg id="Capa_1" data-name="Capa 1" xmlns="http://www.w3.org/2000/svg" viewBox="0 0 616.03 555.09">
  <defs>
    <style>
      .cls-1 {
        fill: #fef3b7;
      }

      .cls-2 {
        fill: #5d1705;
      }

      .cls-3 {
        fill: #e29417;
      }

      .cls-4 {
        fill: #fce784;
      }

      .cls-5 {
        fill: #ffbe00;
      }

      .cls-6 {
        fill: #51ac00;
      }

      .cls-7 {
        fill: #3f2a1e;
      }

      .cls-8 {
        fill: #d87b0f;
      }

      .cls-9 {
        fill: #fe9600;
      }

      .cls-10 {
        fill: #c50b02;
      }

      .cls-11 {
        fill: #7d280b;
      }

      .cls-12 {
        fill: #e64229;
      }

      .cls-13 {
        fill: #c4780a;
      }

      .cls-14 {
        fill: #e54228;
      }

      .cls-15 {
        fill: #76c603;
      }
    </style>
  </defs>
  <path class="cls-3" d="M565.22,94.42c-10.13-12.23-21.27-23.34-34.13-33.2-29.79-22.82-67.38-37.02-104.46-46.15C390.22,6.1,352.97,1.82,315.28.41c-38.19-1.42-76.08.7-113.31,8.74-41.16,8.89-78.9,23.7-110.89,49.84-13.7,11.2-26.58,22.68-38.09,35.74.51.56.67,1.13.45,1.76-4.69,13.69-9.1,31.55-4.54,44.98,4.72,13.94,17.46,15.75,31.7,18.02,16.6,2.64,33.04,4.72,49.94,6.53,71.94,7.72,143.89,12.66,216.36,14.71,41.65,1.18,153.3,2.89,184.5-15.15,13.78-7.97,23.4-20.3,28.55-34.7,4.1-11.48,5.16-23.2,4.53-35.29-.03-.5.1-.95.74-1.17ZM101.25,101.07c-2.52-1.97-3.27-4.86-3.54-7.81-.41-4.37.41-8.54,3.27-12.27,3.61-4.72,8.91-8.57,14.99-10.3,3.05-.87,6.66.82,8.86,2.29,2.39,1.6,3.34,3.93,3.49,6.74.72,13.87-19.36,27.37-27.07,21.35ZM187.82,50.35c-9.63,7.92-26.2,10.9-29.98,3.47-1.23-2.42-1.05-5.45.42-7.78,2.35-10.34,16.13-15.63,26.92-14.48,3.17.33,5.74,3.17,6.95,5.36,2.48,4.52-.4,10.21-4.31,13.43ZM230.1,76.65c-5.64,8.68-18.05,16.79-24.68,11.27-2.3-1.91-2.9-4.81-3.18-7.54-.51-4.86.66-9.48,4.03-13.34,3.55-4.08,8.2-7.36,13.66-9.11,3.38-1.08,7.43.58,9.73,2.61,1.16,1.02,2.15,1.75,2.59,3.23,1.3,4.36.4,8.94-2.15,12.88ZM235.14,26.7c-2.67-.79-5.26-2.5-6.25-4.92-1.36-3.29.34-6.8,2.78-9.1,6.09-8.76,21.29-9.85,30.87-5.5,2.64,1.2,4.34,4.9,4.53,7.55.73,9.67-16.91,16.41-31.93,11.97ZM312.67,54.82c-3.08,8.25-11.05,14.71-20.09,16.78-3.95.91-7.75-.64-9.4-3.77-.96-1.81-1.07-3.62-1.18-5.5-.25-4.05.57-8,3.3-11.41,4.04-5.04,9.82-8.96,16.56-10.39,2.92-.62,6.57,1.1,8.71,2.87,3.36,2.77,3.64,7.31,2.1,11.42ZM358.8,32.43c-8.4,5.79-24.44,6.88-32.49,0-1.81-1.55-2.9-3.03-3.04-5.42-.16-2.7.38-6.47,3.11-8.21,9.05-5.75,22.94-7,31.12.26,1.34,1.18,2.69,2.2,3.65,3.65,2.28,3.45,1.2,7.27-2.35,9.72ZM404.15,87.65c-.66,4.85-5.11,7.44-10.27,6.47-5.79-1.1-10.52-4.37-14.59-8.37-4.25-4.17-7.07-9.43-6.11-15.25.32-1.92,1.09-3.49,2.84-4.41,5.99-6.21,14.77-2,21.56,3.47,4.71,3.8,7.09,9.26,7.01,14.83l-.44,3.26ZM438.48,47.68c-3.6,9.32-34.62,6.25-37.42-9.04-.18-.99.24-1.45.49-2.4.65-2.45,2.76-5.68,5.66-6.61,4.91-1.58,10.28-1.24,15.24-.34,5.96,1.08,10.75,4.28,13.92,8.86,1.92,2.77,3.42,6.12,2.11,9.53ZM504.92,82.87c-5.31,6.99-21.23.81-28.53-8.69-3.36-4.37-4.71-10.25-.99-14.26,1.81-1.95,4.93-4.13,8.19-3.8,5.96.61,11.69,3.17,16.12,6.76,4.16,3.38,6.33,7.92,6.58,12.74.13,2.47.31,5.03-1.37,7.25Z"/>
  <path class="cls-3" d="M587.96,478.77c-2.85,9.62-7.33,17.99-14.76,25.28-15.79,15.46-41.02,25.05-63.1,31.02-20.67,5.58-41.2,10.04-62.57,12.99l-55.16,4.81c-52.91,2.83-105.64,2.88-158.59.56-37.12-1.63-82.43-5.21-118.04-13.41-11.71-2.69-22.3-6.43-32.91-11.76-14.21-7.15-27.2-15.59-38.31-26.58-19.01-18.82-31.03-44.05-24.72-69.86l3.56-10.01c8.55,5.01,17.46,8.92,27.08,12.23,29.88,10.3,65.92,16.54,97.73,20.61,75.85,9.68,161.86,11.13,238.22,6.39,52.6-3.26,134.84-12.04,181.29-33.04,7.33-3.31,13.88-7.25,19.89-12.46,3.65,4.22,6.11,8.86,7.03,14.53,2.53,15.63-2.1,33.37-6.64,48.7Z"/>
  <path class="cls-8" d="M586.81,193.02c-1.28,2.28-4.03,3.9-6.31,5.02-10.61,5.19-33.38,8.22-45.92,8.59l-51.6,1.5-80.85-1.4-93.4-2.97-78.71-1.54-103.75.15c-18.61.03-36.49-.25-54.89-1.38-12.69-.78-30.39-2.21-40.07-8.27-4.78-2.99-6.69-7.53-7.78-12.61-2.24-10.38-3.09-20.58-.94-31.05,4.26-20.79,16.31-38.36,30.4-54.33.51.56.67,1.13.45,1.76-4.69,13.69-9.1,31.55-4.54,44.98,4.72,13.94,17.46,15.75,31.7,18.02,16.6,2.64,33.04,4.72,49.94,6.53,71.94,7.72,143.89,12.66,216.36,14.71,41.65,1.18,153.3,2.89,184.5-15.15,13.78-7.97,23.4-20.3,28.55-34.7,4.1-11.48,5.16-23.2,4.53-35.29-.03-.5.1-.95.74-1.17,9.51,11.48,17.32,23.79,22.71,37.5,7.68,19.54,9.34,42.61-1.12,61.1Z"/>
  <path class="cls-5" d="M607.34,351.04c-7.77-14.01-22.99-22.03-39.2-26.55-13.73-3.84-27.51-5.13-42.01-4.95-28.85.37-56.84,6.43-83.05,17.61-15.39,6.56-29.77,13.86-44.04,22.27l-41.29,24.34c-8.16,4.81-16.19,8.98-25.03,12.39-6.36,2.45-12.88,2.47-18.92-.66-4.85-2.51-9.13-5.54-13.29-9.04l-21.89-18.42c-22.4-18.18-47.99-31.52-76.42-39.6-65.63-18.66-134.65-12.67-194.69,17.96,4.06-15.67,18.77-33.62,29.98-46.8,1.48-1.74,2.79-3.44,4.81-4.49,3.97,9.34,18.54,13.81,29.52,16.24,31.21,6.89,70.93,5.52,103.05,1.82l59.1-8.16c10.7-1.47,20.74-3.53,31.09-6.2,24.1-6.2,34.3-16.05,37.46-39.74l9.32-6.63c.36,17.59,6.17,34.2,24.18,41.77,6.51,2.73,13.05,4.87,20.13,6.18l27.92,5.14,53.28,7.34c33.14,4.57,100,6.91,127.57-9.53,3.71-2.21,6.97-5.33,7.65-9.2,13.53,8.78,27.16,24.99,32.42,39.77,2.06,5.78,3.64,11.55,2.35,17.14Z"/>
  <path class="cls-15" d="M608.57,228.38c-.47,5.72-5.23,10.24-11.39,9.43l-9.22-1.21c-5.99-.79-11.43-.13-16.07,3.52l-9.19,7.22c-3.7,2.92-8.44,4.49-13.27,3.41-5.51-1.22-10.05-4.48-12.88-8.93l-5.93-9.34c-2.31-3.65-4.65-7.03-8.22-9.77-13.87-10.64-34.93-11.83-47.85.33l-7.39,6.96-12,11.27c-4.45,4.18-9.58,7.32-15.38,9.65-7.61,3.05-15.7,3.18-23.49.65-5.2-1.69-10.02-3.85-14.25-7.13l-14.38-11.11c-5.63-4.35-10.87-8.64-17.19-12.06-17.16-9.27-34.93-4.57-51.17,4.82l-14.89,8.61c-26.1,15.09-43.56,13.52-68.68-1.87-7.14-4.38-13.98-8.46-21.53-12-21.42-10.06-46.47-3.98-60.04,14.44-7.27,9.86-19.23,17.42-30.16,9.57-4.03-2.89-6.91-6.75-10.01-10.54l-5.93-7.27c-8.96-9.29-23.11-9.03-35.32-4.65-12.34,4.42-22.79,12.42-38.5,17.67-2.96.99-6.65,1.54-9.31-.12-2.61-1.63-3.9-4.47-4.94-7.18-3.19-8.27-5.45-16.52-7.73-25.02-.12-.44-.41-.73-.65-.96,5.61-5.61,12.42-10.14,19.7-14.05,9.68,6.06,27.38,7.49,40.07,8.27,18.4,1.13,36.28,1.41,54.89,1.38l103.75-.15,78.71,1.54,93.4,2.97,80.85,1.4,51.6-1.5c12.54-.37,35.31-3.4,45.92-8.59l23.8,8.83,3.48,1.9c-.41-.07-1.1.07-1.16.69-.6,6.03,2.55,11.87,1.95,18.92Z"/>
  <path class="cls-6" d="M615.91,222.87l-3.16,24.83c-.63,4.93-1.68,11.63-4.95,12.1-5.67.8-18.68-15.74-31.97-4.83l-4.27,2.76c-9.98,7.9-22.6,11.56-35.6,9.84-1.77-.23-3.29-1.31-4.75-.99-8.16-4.94-9.16-13.92-15.06-21.59-5.37-6.99-13.35-11.76-22.28-13.81-3.21-.74-6.31.53-8.28,2.75-4.22,4.76-6.41,12.8-14.86,20.98-5.87,5.69-13.04,9.53-20.65,12.54-9.7,3.18-19.71,5.82-30.02,6.95l-9.15.14c-5.15-.3-9.53-2.1-13.51-4.51-5.71-4.15-12.96-14.93-15.45-15.81-.1-.71-.46-1.18-1.04-1.73-10.46-10.04-22.2-18.33-37.24-16.05-5.67.86-11.01,2.94-15.97,5.68-5.53,3.05-10.97,6.4-15.86,10.31l-9.32,6.63-7.88,4.93c-15.02,9.4-30.21,6.37-46.06-.61-.95-.42-2.29-1.33-3.2-1.1l-14.09-7.84-19.72-12.23c-3.41-2.12-6.66-4.15-10.39-5.6-13.24-5.17-22.22,2.22-31.15,10.91-4.38,4.26-8.63,8.2-13.51,11.93-21.3,16.3-49.91,5.73-63.97-14.73-2.75-4-7.14-5.92-12.01-4.21-2.89,1.02-5.54,2.48-8.1,4.14l-11.98,7.79c-5.87,3.82-12.48,6.4-19.49,7.65l-2.09.18c-6.95.58-14.06.98-21-.84-7.92-2.07-13.92-7.19-16.2-14.65-2.14-7.05-2.25-14.51-.25-21.66,1.79-6.39,5.58-11.75,10.18-16.35.24.23.53.52.65.96,2.28,8.5,4.54,16.75,7.73,25.02,1.04,2.71,2.33,5.55,4.94,7.18,2.66,1.66,6.35,1.11,9.31.12,15.71-5.25,26.16-13.25,38.5-17.67,12.21-4.38,26.36-4.64,35.32,4.65l5.93,7.27c3.1,3.79,5.98,7.65,10.01,10.54,10.93,7.85,22.89.29,30.16-9.57,13.57-18.42,38.62-24.5,60.04-14.44,7.55,3.54,14.39,7.62,21.53,12,25.12,15.39,42.58,16.96,68.68,1.87l14.89-8.61c16.24-9.39,34.01-14.09,51.17-4.82,6.32,3.42,11.56,7.71,17.19,12.06l14.38,11.11c4.23,3.28,9.05,5.44,14.25,7.13,7.79,2.53,15.88,2.4,23.49-.65,5.8-2.33,10.93-5.47,15.38-9.65l12-11.27,7.39-6.96c12.92-12.16,33.98-10.97,47.85-.33,3.57,2.74,5.91,6.12,8.22,9.77l5.93,9.34c2.83,4.45,7.37,7.71,12.88,8.93,4.83,1.08,9.57-.49,13.27-3.41l9.19-7.22c4.64-3.65,10.08-4.31,16.07-3.52l9.22,1.21c6.16.81,10.92-3.71,11.39-9.43.6-7.05-2.55-12.89-1.95-18.92.06-.62.75-.76,1.16-.69,5.48,3,8.94,7.72,8.13,14.1Z"/>
  <path class="cls-9" d="M607.34,351.04l-.93,4.04c-.94,4.05-4.36,7.5-8.59,7.75l-1.15.07c-3.5.21-7.13-.43-10.48-2.01l-15.61-7.38c-31.09-14.69-64.55-20.43-98.63-11.8-30.96,7.84-58.2,24.06-84.92,40.29-13.86,8.41-26.75,17.24-39.22,27.28-3.26,2.62-6.75,4.78-10.86,5.69-8.38,1.86-25.51-1.71-32.74-7.36l-14.93-11.69c-17.54-15.59-36.88-28.45-58.31-39.05-12.78-6.33-25.53-11.26-39.55-14.7-33.63-8.26-68.16-8.75-102.58-4.71-18.17,2.13-35.65,5.58-52.69,11.56-4.74,1.67-7.9,5.04-9.51,9.06l-2.06,3.3c-1.31,2.1-3.41,4.61-6.57,4.26-5.21-.58-9.49-4.33-10.79-9.02-.97-3.52-.55-7,.29-10.23,60.04-30.63,129.06-36.62,194.69-17.96,28.43,8.08,54.02,21.42,76.42,39.6l21.89,18.42c4.16,3.5,8.44,6.53,13.29,9.04,6.04,3.13,12.56,3.11,18.92.66,8.84-3.41,16.87-7.58,25.03-12.39l41.29-24.34c14.27-8.41,28.65-15.71,44.04-22.27,26.21-11.18,54.2-17.24,83.05-17.61,14.5-.18,28.28,1.11,42.01,4.95,16.21,4.52,31.43,12.54,39.2,26.55Z"/>
  <path class="cls-13" d="M587.57,415.54c-6.01,5.21-12.56,9.15-19.89,12.46-46.45,21-128.69,29.78-181.29,33.04-76.36,4.74-162.37,3.29-238.22-6.39-31.81-4.07-67.85-10.31-97.73-20.61-9.62-3.31-18.53-7.22-27.08-12.23,3.22-7.17,7.26-14.14,13.27-19.87,7.6,9.49,17.98,17.36,30.42,20.97,12.9,3.75,26.08,3.88,39.49,2.95,12.93,6.31,31.96,13.47,45.96,11.37l30.67-4.61c15.14,9.32,33.17,10.7,51.26,9.29,14.78-1.15,29.1-2.7,43.45-5.75,1.79,2.03,3.82,3.26,6.38,4.12,8.76,2.93,17.81,5.1,27.19,5.95h16.94c13.09-.99,25.45-4.16,37.86-8.47,26.7,8.51,57.68,7.87,84.78.85,4.69-1.21,8.64-2.93,12.27-5.88,7.69,2.73,15.45,4.24,23.5,3.97,6.09-.2,10.88-2.38,16.09-4.93l29.11-14.26c6.21,4.62,14.29,2.68,21.08-.7,4.54-2.25,9.06-3.94,13.96-5.4,6.17-1.84,8.8-5.04,9.97-4.41,4.09,2.2,7.69,5.22,10.56,8.54Z"/>
  <path class="cls-12" d="M576.01,256.56c.15,12.56-1.27,25.12-3.44,37.57-.68,3.87-3.94,6.99-7.65,9.2-27.57,16.44-94.43,14.1-127.57,9.53l-53.28-7.34-27.92-5.14c-7.08-1.31-13.62-3.45-20.13-6.18-18.01-7.57-23.82-24.18-24.18-41.77,4.89-3.91,10.33-7.26,15.86-10.31,6.9,5.14,14.27,9.11,22.4,12.68,15.26,6.7,31.06,11.51,47.3,15.23,3.98,2.41,8.36,4.21,13.51,4.51l9.15-.14c26.88,5,54.18,7.44,81.8,6.61,20.24-.6,48.69-3.38,65.04-13.73,4.39-2.77,7.51-6.27,9.11-10.72Z"/>
  <path class="cls-12" d="M302.52,259.06c-3.16,23.69-13.36,33.54-37.46,39.74-10.35,2.67-20.39,4.73-31.09,6.2l-59.1,8.16c-32.12,3.7-71.84,5.07-103.05-1.82-10.98-2.43-25.55-6.9-29.52-16.24-1.8-11.55-3.09-23.16-3.42-34.83l2.09-.18c.49,1.72,1.72,3.13,3.19,4.39,17.01,14.58,57.92,16.9,81.57,16.68,32.02-.31,63.4-4.32,94.35-11.68l25.3-7.2c.91-.23,2.25.68,3.2,1.1,15.85,6.98,31.04,10.01,46.06.61l7.88-4.93Z"/>
  <path class="cls-10" d="M576.01,256.56c-1.6,4.45-4.72,7.95-9.11,10.72-16.35,10.35-44.8,13.13-65.04,13.73-27.62.83-54.92-1.61-81.8-6.61,10.31-1.13,20.32-3.77,30.02-6.95,24.55,2.59,57.67,4.23,81.13-.87,1.46-.32,2.98.76,4.75.99,13,1.72,25.62-1.94,35.6-9.84l4.27-2.76.18,1.59Z"/>
  <path class="cls-7" d="M597.82,362.83c-.54,15.33-8.73,30.96-19.9,42.42-.65.67-1.2.92-.91,1.75-1.17-.63-3.8,2.57-9.97,4.41-4.9,1.46-9.42,3.15-13.96,5.4-6.79,3.38-14.87,5.32-21.08.7l-29.11,14.26c-5.21,2.55-10,4.73-16.09,4.93-8.05.27-15.81-1.24-23.5-3.97-3.63,2.95-7.58,4.67-12.27,5.88-27.1,7.02-58.08,7.66-84.78-.85-12.41,4.31-24.77,7.48-37.86,8.47h-16.94c-9.38-.85-18.43-3.02-27.19-5.95-2.56-.86-4.59-2.09-6.38-4.12-14.35,3.05-28.67,4.6-43.45,5.75-18.09,1.41-36.12.03-51.26-9.29l-30.67,4.61c-14,2.1-33.03-5.06-45.96-11.37-13.41.93-26.59.8-39.49-2.95-12.44-3.61-22.82-11.48-30.42-20.97-8.9-11.11-12.62-25.04-11.48-39.06.07-.81-.02-1.36-.57-1.5l2.06-3.3c-3.31,19.26,3.44,38.53,18.95,51.76,8.71,7.43,18.61,12.48,30.36,14.17,10.42,1.51,20.54,1.84,31.07.89,12.62,6.42,31.71,13.47,45.42,11.41l31.14-4.66c12.4,7.93,28.13,10.25,43.21,9.71,13.03-.46,25.6-1.89,38.44-3.79l13.68-2.71c.22,1.18.74,2.04,1.75,2.6,8.23,4.52,21.34,6.6,31.31,8.08l15.35-.14c13.45-.96,26.17-4.1,38.9-8.69,26.17,8.59,57.28,7.91,83.96,1.19,4.87-1.51,9.37-3.02,12.89-6.35,6.57,2.64,13.07,3.9,19.9,4.23,6.97.34,12.76-1.55,18.82-4.52l30.38-14.93c5.24,4.57,13.01,3.32,19.37.12,4.73-2.37,9.49-4.26,14.61-5.72,5.76-1.65,10.13-4.81,13.86-9.17,9.13-10.68,16.67-25.26,16.66-38.66l1.15-.07Z"/>
  <path class="cls-1" d="M506.29,75.61c-4.81,6.01-14.03,5.75-20.34.72-5.31-4.22-8.64-10.09-10.55-16.41,1.81-1.95,4.93-4.13,8.18-3.8,5.97.61,11.7,3.17,16.12,6.76,4.16,3.38,6.33,7.92,6.58,12.74Z"/>
  <path class="cls-1" d="M357.5,19.06c1.09,4.27-1.38,8.62-5.55,10.96-8.56,4.8-19.8,1.09-28.69-3.01-.16-2.7.38-6.47,3.11-8.21,9.05-5.75,22.94-7,31.12.26Z"/>
  <path class="cls-1" d="M404.59,84.39c-2.36,2.84-6.02,4.33-10.12,3.96-10.98-.99-16.76-12.37-18.45-22.26,5.99-6.21,14.77-2.01,21.56,3.47,4.71,3.8,7.09,9.26,7.01,14.83Z"/>
  <path class="cls-1" d="M267.08,14.73c-.62-.16-1.01.25-1.65.71-9.5,7.02-23.56,11.9-31.6,3.23-1.56-1.68-1.75-3.81-2.16-5.99,6.1-8.75,21.29-9.85,30.88-5.5,2.64,1.2,4.33,4.9,4.53,7.55Z"/>
  <path class="cls-1" d="M229.66,60.54c-1.47,9.48-5.66,20.36-15.88,22.86-4.34,1.06-8.39-.14-11.54-3.02-.51-4.86.66-9.48,4.03-13.35,3.55-4.07,8.21-7.36,13.66-9.1,3.39-1.08,7.43.58,9.74,2.61Z"/>
  <path class="cls-1" d="M310.57,43.4c-1.61,11.94-11.28,26.06-24.04,21.74l-4.53-2.8c-.25-4.06.57-8,3.3-11.41,4.04-5.04,9.82-8.96,16.56-10.39,2.92-.62,6.57,1.1,8.71,2.87Z"/>
  <path class="cls-1" d="M436.37,38.15c.32,3.62-2.01,6.75-5.63,8.38-10.24,4.6-21.65-2.71-29.2-10.29.65-2.45,2.76-5.68,5.66-6.62,4.91-1.58,10.28-1.24,15.24-.34,5.95,1.08,10.75,4.28,13.92,8.87Z"/>
  <path class="cls-1" d="M192.13,36.92c-4.68,7.84-13.51,16.19-23.29,15.76-4.76-.21-8.52-2.65-10.58-6.64,2.35-10.34,16.13-15.63,26.93-14.49,3.16.33,5.73,3.18,6.94,5.37Z"/>
  <path class="cls-1" d="M124.83,72.98c-.48,7.18-3.06,14.63-8.62,19.71-4.23,3.87-10.4,5.2-15.42,2.7-1.2-.6-1.84-1.78-3.07-2.12-.41-4.37.41-8.54,3.27-12.27,3.61-4.72,8.92-8.56,15-10.3,3.04-.87,6.66.82,8.85,2.29Z"/>
  <path class="cls-4" d="M282,62.33l4.53,2.8c12.77,4.32,22.43-9.8,24.04-21.74,3.36,2.77,3.64,7.31,2.1,11.42-3.08,8.24-11.05,14.71-20.1,16.78-3.95.9-7.74-.64-9.4-3.78-.95-1.81-1.07-3.62-1.18-5.49Z"/>
  <path class="cls-4" d="M97.71,93.26c1.23.34,1.86,1.52,3.07,2.12,5.03,2.5,11.19,1.16,15.42-2.7,5.56-5.08,8.14-12.53,8.62-19.71,2.4,1.6,3.34,3.94,3.49,6.75.72,13.87-19.36,27.37-27.06,21.35-2.52-1.97-3.27-4.86-3.54-7.81Z"/>
  <path class="cls-4" d="M158.26,46.04c2.06,3.99,5.82,6.43,10.58,6.64,9.78.44,18.61-7.92,23.29-15.76,2.49,4.52-.4,10.21-4.3,13.43-9.63,7.92-26.2,10.9-29.98,3.47-1.23-2.42-1.05-5.45.42-7.78Z"/>
  <path class="cls-4" d="M436.37,38.15c1.92,2.77,3.42,6.12,2.11,9.53-3.6,9.32-34.62,6.25-37.42-9.04-.18-.98.23-1.44.48-2.39,7.55,7.58,18.96,14.89,29.2,10.29,3.62-1.63,5.95-4.76,5.63-8.38Z"/>
  <path class="cls-4" d="M267.08,14.73c.73,9.68-16.92,16.42-31.94,11.98-2.67-.79-5.26-2.5-6.25-4.92-1.36-3.29.34-6.8,2.78-9.11.42,2.18.61,4.32,2.16,5.99,8.04,8.66,22.09,3.79,31.6-3.23.63-.47,1.03-.87,1.65-.71Z"/>
  <path class="cls-4" d="M506.29,75.61c.13,2.48.31,5.03-1.37,7.25-5.31,6.99-21.23.82-28.53-8.68-3.36-4.37-4.71-10.25-.99-14.26,1.91,6.32,5.24,12.19,10.55,16.41,6.31,5.03,15.53,5.29,20.34-.72Z"/>
  <path class="cls-4" d="M202.24,80.38c3.15,2.87,7.2,4.08,11.54,3.02,10.22-2.5,14.41-13.38,15.88-22.86,1.16,1.02,2.15,1.75,2.59,3.23,1.29,4.36.4,8.94-2.15,12.87-5.64,8.69-18.05,16.8-24.68,11.28-2.3-1.92-2.89-4.82-3.18-7.54Z"/>
  <path class="cls-4" d="M376.02,66.09c1.69,9.89,7.47,21.28,18.45,22.26,4.1.37,7.75-1.13,10.12-3.96l-.44,3.26c-.65,4.84-5.11,7.44-10.27,6.46-5.79-1.09-10.52-4.37-14.59-8.36s-7.07-9.43-6.11-15.25c.32-1.92,1.09-3.49,2.83-4.4Z"/>
  <path class="cls-4" d="M323.27,27.01c8.89,4.1,20.13,7.81,28.69,3.01,4.17-2.34,6.64-6.69,5.55-10.96,1.34,1.19,2.69,2.21,3.64,3.65,2.28,3.45,1.2,7.27-2.35,9.72-8.4,5.79-24.44,6.88-32.48,0-1.81-1.55-2.91-3.03-3.05-5.42Z"/>
  <path class="cls-14" d="M231.29,254.44c-13.78,4.24-27.56,7.28-42.03,9.65-32.54,5.33-76.88,8.96-108.56,1.95-8.42-1.86-19.96-5.89-20.24-13.61l11.98-7.79c2.56-1.66,5.2-3.13,8.1-4.14,4.87-1.71,9.26.21,12.01,4.21,14.06,20.46,42.67,31.03,63.97,14.73,4.88-3.74,9.13-7.67,13.51-11.93,8.94-8.7,17.91-16.08,31.15-10.92,3.73,1.45,6.97,3.48,10.39,5.6l19.71,12.23Z"/>
  <path class="cls-10" d="M60.46,252.44c.28,7.72,11.81,11.74,20.24,13.61,31.68,7.01,76.02,3.38,108.56-1.95,14.48-2.37,28.25-5.41,42.03-9.65l14.09,7.83-25.29,7.2c-30.95,7.37-62.33,11.37-94.35,11.68-23.65.23-64.56-2.09-81.58-16.68-1.47-1.26-2.69-2.67-3.19-4.38,7.02-1.25,13.62-3.84,19.5-7.65Z"/>
  <path class="cls-14" d="M531.21,266.58c-23.46,5.1-56.58,3.46-81.12.87,7.6-3.01,14.77-6.85,20.65-12.54,8.45-8.18,10.64-16.22,14.86-20.98,1.97-2.22,5.06-3.49,8.27-2.76,8.94,2.06,16.91,6.82,22.29,13.81,5.9,7.67,6.9,16.65,15.06,21.59Z"/>
  <path class="cls-10" d="M343.67,236.44c3.42,3.84,13.41,9.01,18.74,10.89l19.54,6.89c2.49.88,9.74,11.66,15.45,15.8-16.24-3.72-32.04-8.52-47.3-15.23-8.13-3.57-15.5-7.54-22.4-12.68,4.96-2.74,10.3-4.82,15.97-5.68Z"/>
  <path class="cls-14" d="M381.95,254.22l-19.54-6.89c-5.33-1.88-15.32-7.05-18.74-10.89,15.04-2.28,26.78,6.01,37.24,16.05.58.55.94,1.03,1.04,1.73Z"/>
  <path class="cls-11" d="M586.19,360.89l-15.61-7.38c-31.09-14.69-64.55-20.43-98.63-11.8-30.96,7.84-58.2,24.06-84.92,40.29-13.86,8.41-26.75,17.24-39.22,27.28-3.26,2.62-6.75,4.78-10.86,5.69-8.38,1.86-25.51-1.71-32.74-7.36l-14.93-11.69c-17.54-15.59-36.88-28.45-58.31-39.05-12.78-6.33-25.53-11.26-39.55-14.7-33.63-8.26-68.16-8.75-102.58-4.71-18.17,2.13-35.65,5.58-52.69,11.56-4.74,1.67-7.9,5.04-9.51,9.06-3.31,19.26,3.44,38.53,18.95,51.76,8.71,7.43,18.61,12.48,30.36,14.17,10.42,1.51,20.54,1.84,31.07.89,12.62,6.42,31.71,13.47,45.42,11.41l31.14-4.66c12.4,7.93,28.13,10.25,43.21,9.71,13.03-.46,25.6-1.89,38.44-3.79l13.68-2.71c.22,1.18.74,2.04,1.75,2.6,8.23,4.52,21.34,6.6,31.31,8.08l15.35-.14c13.45-.96,26.17-4.1,38.9-8.69,26.17,8.59,57.28,7.91,83.96,1.19,4.87-1.51,9.37-3.02,12.89-6.35,6.57,2.64,13.07,3.9,19.9,4.23,6.97.34,12.76-1.55,18.82-4.52l30.38-14.93c5.24,4.57,13.01,3.32,19.37.12,4.73-2.37,9.49-4.26,14.61-5.72,5.76-1.65,10.13-4.81,13.86-9.17,9.13-10.68,16.67-25.26,16.66-38.66-3.5.21-7.13-.43-10.48-2.01ZM244.74,419.77c-5.71,2.02-11.85,1.75-16.86-1.58l-9.2-6.12c-4.25-2.82-9.33-3.12-14.15-1.34-8.18,3-14.88,2.6-19.65,4.67-7.89,3.42-16.56,6.72-21.57-.96-2.06-3.16-2.13-6.43-2.8-10.35-2.84,5.03-5.68,9.7-10.51,12.78-6.21,3.96-13.34,3.36-18.56-1.49-7.01-6.51-13.11-16.27-14.11-26.18l-10.35,14.57-2.98,6.47c-1.53,3.34-5.43,5.01-9.47,4.35-13.45-2.19-18.62-13.48-20.56-25.33-.74,3.44-.9,6.2-2.37,9.05-2.25,4.37-7.36,6.56-12.58,4.99-7.07-2.12-13.56-7.09-16.2-13.85-2.91-7.5-2.55-15.81.06-23.27,1.54,3.42,1.48,6.41,3.26,9.31,2.45,4,7.47,7.11,12.41,5.32,8.6-3.1,5.05-14.53,6.75-20.71.86-3.11,3.47-5.17,6.63-5.31,8.44-.37,9.39,13.31,9.28,21.91-.05,3.15-.02,5.9,1.29,8.76,1.83,3.97,6.53,5.51,10.62,3.17,2.74-1.56,4.81-4,6.4-6.71,6.73-11.53,13.96-23.9,26.21-30.86-4.75,13.61-3.9,43.19,12.07,44.41,6.42.49,11.5-3.77,14.17-8.93l4.81-12.49c2-5.17,5.94-9.65,10.37-13.24l7.89-4.82c-5.06,11.32-9.97,21.75-5.55,33.4,2.96,7.83,10.08,13.07,19.06,13.35,8.29.27,15.91-2.75,22.14-7.78,5.08-4.11,8.15-9.17,12.01-14.81-1.37,5.09-2.35,9.79-.5,14.63,2.33,6.12,8.02,9.81,14.98,9.2,11.94-1.06,18.32-10.74,23.36-20.34,2.65,14.84-.64,30.77-15.8,36.13ZM542.3,347.99l.27.25-.27.26-.27-.26.27-.25ZM506.78,393.13l.28.26-.28.26-.27-.26.27-.26ZM538.78,401.89c-18.8,20.76-49.31,28.17-76.78,19.18-9.48-3.11-12.87-3.87-17.98-14.19-5.44,11.13-15.76,19.66-28.64,22.73-10.8,2.57-26.53,1.83-35.78-3.99-4.47-2.72-6.64-6.84-6.6-12.43-7.07,8.35-15.12,15.09-25.17,19.7-9.26,4.24-20.29,1.08-30.05,2.64-5.3.84-10.17,1.54-15.66,1.44-15.72-.3-28.72-12.5-27.97-27.3l2-3.01c6.08,17.18,24.9,26.07,44.1,24.41,12.7-1.11,24.14-5.77,34.5-12.68,8.86-5.91,16.07-13.09,23.47-20.51l5.36-5.38c-2.02,8.99-1.98,19.2,4.82,25.32,9.44,8.49,26.54,2.91,37.8-3.1,16.03-8.57,25.46-24.15,24.74-41.75,2.69,7.23,10.9,10.93,18.91,8.81,6.58-1.83,11.41-6.47,14.08-12.44,2.22-5.01,2.22-10.19,2.31-16.14,6.62,4.92,8.2,13.09,5.09,20.12-5.54,12.51-20.86,17.81-34.42,21.58-1.18,2.97-.6,6.21,1.01,8.98,6.73,11.55,22.33,10.87,34.31,3.03,5.56-3.64,9.54-8.28,14.29-13.22l-4.9,14.47c12.26-4.07,21.52-12.8,26.34-24.11,3.7-7.7,4.57-15.55,5.83-24.36,4.77,11.38,3.5,22.54,0,34.51,11.58-12.64,13.77-29.49,8.77-45.51,11.92,16.53,9.79,38.21-3.78,53.2Z"/>
  <path class="cls-2" d="M163.31,414.44c-2.06-3.16-2.13-6.44-2.8-10.36-2.84,5.04-5.69,9.7-10.51,12.78-6.21,3.96-13.34,3.36-18.56-1.49-7.01-6.51-13.11-16.27-14.11-26.18l-10.35,14.58-2.98,6.47c-1.54,3.33-5.43,5.01-9.47,4.35-13.45-2.19-18.62-13.49-20.57-25.33-.73,3.43-.9,6.2-2.37,9.05-2.25,4.37-7.36,6.56-12.58,4.99-7.07-2.13-13.56-7.09-16.19-13.86-2.92-7.49-2.56-15.8.05-23.26,1.55,3.41,1.49,6.41,3.26,9.3,2.46,4.01,7.47,7.11,12.41,5.33,8.6-3.11,5.05-14.54,6.75-20.72.86-3.11,3.47-5.16,6.63-5.3,8.44-.37,9.39,13.3,9.27,21.91-.04,3.14-.01,5.9,1.3,8.76,1.82,3.97,6.53,5.51,10.62,3.17,2.74-1.57,4.81-4,6.4-6.71,6.73-11.53,13.96-23.9,26.21-30.86-4.75,13.61-3.89,43.19,12.08,44.41,6.42.49,11.49-3.77,14.17-8.93l4.81-12.49c1.99-5.17,5.93-9.65,10.36-13.25l7.89-4.82c-5.05,11.33-9.97,21.76-5.55,33.41,2.97,7.83,10.09,13.07,19.07,13.35,8.28.26,15.91-2.75,22.13-7.79,5.08-4.11,8.15-9.16,12.01-14.81-1.36,5.09-2.35,9.79-.5,14.63,2.34,6.13,8.02,9.81,14.98,9.2,11.94-1.05,18.32-10.74,23.36-20.34,2.65,14.84-.64,30.77-15.8,36.13-5.71,2.02-11.85,1.75-16.86-1.58l-9.2-6.12c-4.25-2.82-9.33-3.12-14.15-1.35-8.18,3.01-14.88,2.6-19.65,4.67-7.89,3.42-16.55,6.72-21.56-.95Z"/>
  <path class="cls-2" d="M542.56,348.69c5,16.02,2.81,32.87-8.77,45.51,3.5-11.97,4.77-23.13,0-34.51-1.26,8.81-2.13,16.66-5.83,24.36-4.82,11.31-14.08,20.04-26.34,24.11l4.9-14.47c-4.75,4.94-8.73,9.58-14.29,13.22-11.98,7.84-27.58,8.52-34.31-3.03-1.61-2.77-2.19-6.01-1.01-8.98,13.56-3.77,28.88-9.07,34.42-21.58,3.11-7.03,1.53-15.2-5.09-20.12-.09,5.95-.09,11.13-2.31,16.14-2.67,5.97-7.5,10.61-14.08,12.44-8.01,2.12-16.22-1.58-18.91-8.81.72,17.6-8.71,33.18-24.74,41.75-11.26,6.01-28.36,11.59-37.8,3.1-6.8-6.12-6.84-16.33-4.82-25.32l-5.36,5.38c-7.4,7.42-14.61,14.6-23.47,20.51-10.36,6.91-21.8,11.57-34.5,12.68-19.2,1.66-38.02-7.23-44.1-24.41l-2,3.01c-.75,14.8,12.25,27,27.97,27.3,5.49.1,10.36-.6,15.66-1.44,9.76-1.56,20.79,1.6,30.05-2.64,10.05-4.61,18.1-11.35,25.17-19.7-.04,5.59,2.13,9.71,6.6,12.43,9.25,5.82,24.98,6.56,35.78,3.99,12.88-3.07,23.2-11.6,28.64-22.73,5.11,10.32,8.5,11.08,17.98,14.19,27.47,8.99,57.98,1.58,76.78-19.18,13.57-14.99,15.7-36.67,3.78-53.2ZM533.56,394.67l-.28-.25.28-.26.27.26-.27.25Z"/>
  <polygon class="cls-2" points="542.3 347.99 542.57 348.24 542.3 348.5 542.03 348.24 542.3 347.99"/>
  <polygon class="cls-2" points="506.78 393.13 507.06 393.39 506.78 393.65 506.51 393.39 506.78 393.13"/>
  <polygon class="cls-11" points="533.56 394.16 533.83 394.42 533.56 394.67 533.28 394.42 533.56 394.16"/>
</svg>