<?xml version="1.0" encoding="UTF-8"?>
<svg id="Capa_1" data-name="Capa 1" xmlns="http://www.w3.org/2000/svg" width="1080" height="1080" viewBox="0 0 1080 1080">
  <defs>
    <style>
      .cls-1 {
        fill: #d7c095;
      }

      .cls-2 {
        fill: #b7c665;
      }

      .cls-3 {
        fill: #758c7c;
      }

      .cls-4 {
        fill: #726e26;
      }

      .cls-5 {
        fill: #f7efd0;
      }

      .cls-6 {
        fill: #43261d;
      }

      .cls-7 {
        fill: #120600;
      }

      .cls-8 {
        fill: #a3c0ae;
      }

      .cls-9 {
        fill: #e3d68f;
      }

      .cls-10 {
        fill: #898e39;
      }

      .cls-11 {
        fill: #cab188;
      }

      .cls-12 {
        fill: #c0c667;
      }

      .cls-13 {
        fill: #edd99d;
      }

      .cls-14 {
        fill: #e1c898;
      }

      .cls-15 {
        fill: #e7d0b1;
      }

      .cls-16 {
        fill: #fceed9;
      }
    </style>
  </defs>
  <path class="cls-8" d="M347.35,901.24s-.04.05-.04.08c.01-.01.04-.03.05-.04,0-.01-.01-.03-.01-.04Z"/>
  <path class="cls-16" d="M602.92,496.28c.52,2.22.49,4.06-2.29,4.42l-10.35-5.56c-18.8-10.11-33.09,26.61-52.88,19.5-8.79-3.15-14.3-9.06-19.16-16.75l-3.44-5.46-3.7-5.57-4.41-6.45c-2-2.93-4.32-6.17-7.44-8.21l-6.7-4.36c-8.74-5.69-24.32-.39-35.29,12.78l-9.1,10.94c-6.1,7.32-13.13,16.84-22.15,19.85-7.82,2.61-16.15,3.75-22.71-1.41-2.64-2.09-6.08-5.12-7.19-7.89l-3.95-9.97c-3.28-8.26-4.89-22.94-15.23-27.43-9.11-3.95-20.09-4.6-28.38.89-19.88,13.17-18.23,41.25-14.92,68.57l2,16.53,1.87,29.7,2.74,18.98,1.62,25.86,1.33,5.13c1.36,5.28,1.22,10.58,1.53,16.01l1.63,27.97,2.61,17.35,1.84,27.44,2.29,17.92,2.01,27.5,2.16,20.14,2.38,26.86,1.96,20.14,2.41,35.84,2.55,19.36c1.34,10.17,5.3,17.62,6.32,25.15-1.23.19-12.41-7.67-23.09-11.2l-1.72-8.97-1.99-13.59-.57-14.76c-1.29-.34-2.26-1.41-2.26-2.6l.15-22.65c.01-1.84-1.45-2.36-2.31-2.1l.08-20.24c0-1.22-.97-2.26-2.19-2.6l-.05-15.17c0-2.72-1.31-4.65-1.43-7.67l-.97-23.12c-.55-.72-1.75-.78-2.16-.55v-15.65s.1-4.65.1-4.65c.04-1.81-1.5-2.38-2.34-2.07v-13.42l-.36-8.52c-.47-.6-1.38-.67-1.86-.41l.09-13.46c.01-1.53-1.56-3.34-1.65-5.2l-1.16-25.49c-.04-.78-1.96-2.31-1.95-2.97l.15-13.22-.34-8.59c-.45-.62-1.38-.68-1.86-.43v-13.42s-.31-8.55-.31-8.55c-.6-.55-1.47-.58-1.92-.39v-15.66l.09-4.65c.04-1.8-1.5-2.38-2.33-2.07v-13.42s.06-6.64.06-6.64c.01-2.31-1.43-3.34-1.57-5.28l-1.27-18.77c-.06-.94-1.9-2.31-1.9-3.02l.18-13.22c.03-1.78.55-4-.49-6.26-.35-.77-1.21-.83-1.72-.5l.06-15.71c0-1.41-.72-2.43-2.3-2.17v-20.14l.1-6.89c.03-1.8-1.5-2.38-2.34-2.07l-.08-24.62c1.55.23,2.36-.63,2.35-2.15l-.04-36,.6-3.22c.34,0,1.27-.96,2.05-1.85l285.67-.18,4.74.75.49,18.05-.41,51.6Z"/>
  <path class="cls-14" d="M768.4,469.29v40.27c-.48-.28-1.52-.16-1.92.41l-.3,13.01v24.6c-.87-.28-2.35.26-2.34,2.09l.09,15.81v22.36c-.85-.28-2.34.28-2.33,2.09l.09,15.82v22.37c-.48-.28-1.52-.16-1.92.41l-.3,13.01v29.07c-.85-.29-2.36.26-2.35,2.07l.1,11.35v26.85c-.45-.23-1.5-.14-1.97.41l-.25,15.25v24.61c-.52-.38-1.58-.21-1.82.45l-.41,10.72v29.09c-.85-.29-2.36.26-2.34,2.07l.09,11.35v24.6c-.93-.19-2.24.25-2.28,2.14l-.73,37.44c-.04,2.07-2.68,4.75-1.46,7.48.5,1.14-.03,3.09-.06,4.44-.11,3.7,1.06,8.74-.72,12.54-1.06,2.29-2.29,4.45-1.99,6.33-3.95.47-7.29,2.78-10.07,6.26-5.34,1.02-8.7,4.64-13.03,3.66,6.08-13.3,6.15-28.93,7.39-44.65l3.17-40.2,9.75-118.4,2.7-32.04,2.55-35.14,2.12-33.57,2.06-44.77.88-87.26c.1-8.71-14.73-27.35-35.85-26.28-13.84.69-24.7,8.53-31.25,19.97l-9.8,17.12c-5.83,10.19-12.73,20.3-23.39,23.76-2.84.18-2.41-8.79-2.38-20.98l.13-45.07c0-.53,1.82-6.52,1.67-16.4.01-1.13.72-1.7,1.85-1.4,2.58.69,5.62.68,9.29.67l100.64-.03c1.45-.98,2.55-2.54,4.44-2.69l.21,46.29c0,.74,1.53,1.14,2.04.62Z"/>
  <path class="cls-6" d="M787.11,85.78l-3.02,8.07-61.73,143.96-3.05,7.98-11.83,28.75c-.63,1.52-1.5,3.22-2.17,4.58l8.7,11.24c1.5,1.94,1.33,3.78-.04,5.29-10.97-15.06-23.95-29.02-42.7-35.47l-6.4-2.2,1.52-2.85c.92-.33,2.43-1.36,3.26-3.29l28.68-67.75,2.76-6.15,37.39-87.79,8.85-20.34c3.86-8.9,13.12-14.35,22.36-10.36l5.69,2.46c10.09,4.39,15.54,13.61,11.71,23.87Z"/>
  <path class="cls-5" d="M604.06,386.21l.45,20.46-301.47.06c.23-1.11-.34-2.31-1.16-2.3l-3.29-.05c.44-1.35-.83-2.66-2.2-2.25.87-1.99.1-4.46-2.28-4.49v-11.14c.89-.01,2.71.43,3.44-.06,1.29-.88,1.47-3.34,1.04-4.78,4.34-2.68,8.84-3.27,13.9-3.59l8.45-.54,11.2.04c-.34.83.28,2.53,2.15,2.25l55.56-.03c.58-1.16.52-1.89.45-2.22h17.9c.33,2.33,1.85,2.55,4.47,2.5,2.64.05,4.15-.18,4.47-2.5h6.71c-.34.83.28,2.49,2.1,2.26h27.12c1.82.23,2.44-1.43,2.1-2.26h4.47c-.4,2.69,2.63,2.69,2.24,0h22.37c-.06.34-.13,1.07.45,2.22l57.79.03c1.87.28,2.49-1.42,2.15-2.25h11.19c-.26.89.26,2.3,2.12,2.3l44.97-.09c1.7-.01,2.09,1.41,1.76,2.17-2.29.82-1.29,2.9-.67,4.25Z"/>
  <path class="cls-13" d="M624.77,178.14c-5.91-9.29-10.68-17.12-23.99-22.54-2.56,1.84-4.78.09-4.74-1.68-9.84-1.48-16.45,2.49-24.38,4.53-1.31,4.37-9.83,5.13-13.39,13.25-1.72,3.93-4.91,2.5-7.78.93-3.97-2.16-13.36-.65-22.08,1.75-2.29.64-4.58,6-8.38,4.1-1.43-.34-2.59.85-2.19,2.33.64,2.43-.44,4.27-2.04,6.55l-4.49,6.41c-2.07,7.55-2.38,12.92-.21,20.8l-8.89-.3h-9c-1.8.01-5.2-.34-6.69.54-4.41,2.61-10.75,4.85-17.56,9.18-.38,2.39-4.86.28-4.89,3.7-.8,5.44-4.36,12.96-6.77,13.39.68,5.71-4,9.85-1.24,20.14l2.73,10.21c2.44,2.06-.34,5.23-2.56,3.13-4.84-4.85-10.04-7.16-15.5-10.06-4.74-2.51-12.19,1.11-12.44-3.19-3.02-.08-6.23-.4-9.2.38-7.2,1.91-14.69,3.88-21.31,9.15l-4.89,3.9c-9.21,7.33-15.6,26.51-13.49,40.71.59,1.73,1.96,1.89,4.06,1.92,3.24.24,4.9.39,6.95.09l.24-6.93c-2.06.43-3.85-2.1-2.1-3.93,1.11-1.17,3.33-.94,4.16-.73l3.66-11.7c.65-2.06,2.16-2.88,3-4.07,9.06-12.82,15.71-13.2,33.69-10.65,1.78.25,5.24,2.69,6.69,3.77l6.59,4.93,11.11,8.61c3.34,2.59,8.91.24,12.57-1.07,4.27-1.53,8.5-7.06,6.81-11.38l-1.95-4.99.46-22.49c.09-4.34,1.99-6.55,3.47-9.96l3.39-7.73c1.75-3.97,3.91-5.71,8.21-7.78l10.32-4.99c8.71-4.21,28.41-3.8,36.84,4.09,1.08,1.01,3.65,1.6,4.09,2.4,1.04,1.86,1.42,3.57,5.07,4.16-.11,1.29.7,3.04,2.28,2.82-.88-8.42-7.7-16.68-15.69-20.44-4.98-2.35-23.15,1.63-11.97-5.27,4.56-.97,7.54,1.6,12.05,2.66l6.69,1.58c4.03-11.59,14.59-20.55,23.59-25.38,1.26-.68,3.44-1.27,4.69-1.47,1.7-2.43,3.33-3.32,5.48-2.48,2.02-.29,3.09-1.76,6.91-1.87,2.15-.06,3.92.15,4.22,2.53,4.31-.15,10.33-1.61,15.02.67,2.54,1.23,5.29,4.44,7.92,5.28,6.02,1.92,5.29,6.55,12.76,12.31.34-1.32.4-2.35,1.66-3.78-.1-1.13-.08-3.32,2.3-3.15.95-7.53.82-15.3.14-22.85ZM546.95,186.31c-.72.94-2.25,1.78-4.55,1.03-2.46.23-2.98-2.31-2.21-3.31.72-.94,2.25-1.77,4.55-1.03,2.46-.21,2.98,2.31,2.21,3.31ZM593.57,172.3c-.67-2.46,2.39-3.32,2.68-.48,1.87,4.19-3.47,5.52-2.68.48Z"/>
  <path class="cls-9" d="M752.11,374.87c-.44.74-3.29.58-4.22.58-6.34-24.75-31.35-28.52-56.58-19.97-4.89-.08-8.6-8.62-17.35-13.03-1.89.06-2-2.07-1.61-2.92-.04-1.19,1.08-1.82,2.26-1.18,12.62-3.75,24.28-5.27,38.01-3.68,5.56-34.45-16.8-59.74-49.71-66.28l-8.82-1.76c-2.2-.43-5.4-.75-7.43-1.09-6.65-1.12-12.97-1.19-20.2.96l-10.08,3c-4.75,1.41-15.88,8.91-17.4,10.43l-15.57,15.54c-.99.99-.8,3.97-.97,4.93l-5.69-3.97c4.84-15.89,17.08-28.34,32.87-35.16,2.44,1.03,4.69-.25,4.24-2.46.57-.28.91-.26,1.52-.01,4.88,1.96,11.15.92,15.5-2.5.53.38,1.53,1.5,3.24,1.35l9-.78,4.47-.09,6.74.04c3.43.01,7.28.05,10.55,1.18l6.4,2.2c18.75,6.45,31.73,20.41,42.7,35.47-.38,1.72-.13,3.18,2.85,4.32-.87,1.65-.23,4.25,2.35,3.78-.74,2.98-.15,6.05,2.21,8.72,1.91,9.28,4.22,16.91,3.43,27.2,10.31,4.16,15.82,11.41,23.27,18.35-.62.78-.79,1.86-.19,2.77.68,1.02,1.65,1.19,2.66,1.09l.04,6.44c1.17.4,1.82.34,2.09.33.21,1.51.57,4.29-.58,6.22Z"/>
  <path class="cls-13" d="M440.01,975.46l-9.73-.48c-2.88-.14-5.61.06-8.48-1.03.21-.99-2.74-1.62-3.87-2.01l-11.82-4.09-4.9-1.92-6.06-4.45-5.22-2.36-8.53-6.6c-.52.23-1.45.11-1.81-.25-.88-4.4-3.09-5.93-5.82-7.39-4.2-2.26-7.96-12.31-14.57-17.33.6-.9.63-1.91.09-2.99-.4-.82-1.52-1.52-2.54-1.16.73-2.28-.75-3.47-1.24-4.88l-3.73-10.57-1.96-7.11c10.68,3.53,21.86,11.39,23.09,11.2.88-.14,1.78-.13,2.69.31,1.46.72.67,1.67.74,2.36.57,5.09,5.24,9.67,8.14,14.12,10.67,16.33,32.78,33.38,51.18,43.4,1.94.04,4.55.38,4.35,3.23Z"/>
  <path class="cls-9" d="M407.79,351.12c-3.6-3.07-8.42-7.93-13.86-10.9-.94-.46-3.62-.44-3.53-2.49.3-6.75-13.49-10.48-26.95-9.45-3.62.29-4.99,2.38-7.4,3.46-7.87,3.53-14.4,7.62-15.49,16.16-1.17.25-3.14.65-3.87,1.76-.72,1.12-.19,3.28,1.61,3.49l.21,2.17c.34,3.66-.43,8.45,1.17,12.59,1.13,2.94,1.99,4.79,1.27,7.32l-11.45.2c-.21-1.57.21-4.85-2.93-6.44-3.65-20.48-.85-34.68,16.48-47.44,1.19-.88.83-2.53-.48-3.05,1.17-.64,2.45-2.25,3.96-2.07,4.37,3.23,12.22-4.16,25.93-1.32,2.84.59,4.94.69,6.93.29.59,1.73,1.96,1.89,4.06,1.92,3.24.24,4.9.39,6.95.09-.06,1.77-.77,5.29,1.67,6.33,9.13,3.91,15.93,17.02,15.72,27.36Z"/>
  <path class="cls-11" d="M742.05,904.2l-1.03,7.19-6.8,13.8c-1.7,3.43-3.76,6.15-4.42,9.04-1.08-.08-1.87,1.23-2.09,1.67l-19.42,19.33c-.79.79-.54,1.5.08,2.14-1.43-1.18-3.61-1.03-4.85.68-.8,1.09-1.01,1.91-.19,3.13-3.44-2.19-27.97,17.23-48.24,12.85,11.25-4.56,26.08-11.99,35.22-21.1l9.16-9.15c6.3-6.3,11-12.77,14.72-20.93l5.98-13.1c4.34.98,7.69-2.64,13.03-3.66,2.78-3.48,6.12-5.79,10.07-6.26.29,1.87.63,2.19-1.22,4.37Z"/>
  <path class="cls-11" d="M381.4,952.52c-.5,2.74.4,5.76,4.88,6.78l8,6.37c2.5,1.99,4.19,1.66,6.89,3.13l11.26,6.11c13.75,16.3,33.35,29.18,51.75,29.17l174.46-.03c20.04,0,43.31-15.86,56.22-35.58,2.06-3.14,10.49-4.11,8.48-7.29.99.63,2.09.74,3.5.25s3.03-2.49,1.53-4.07c1.11,1.06,2.13.79,3.73-.47l6.1-4.81c2.15,1.55,2.38,3.75.96,7.03l-6.08,14.05c-3.52,8.15-9.19,14.22-15.38,20.5-11.75,11.95-26.39,20.19-43.41,23.82-1.86.4-2.23.92-2.23,2.13h-212.5c-.08-1.29-.39-1.6-2.34-2.04-34.64-7.88-60.45-34.63-67.76-69.61-.29-1.37,3.98-3.23,4.31-3.1,2.72,1.46,4.93,2.99,5.81,7.39.37.37,1.3.48,1.81.25Z"/>
  <path class="cls-7" d="M768.52,415.98l-.11,10.78v24.62s-.01,6.69-.01,6.69v6.83s0,4.39,0,4.39c-.5.53-2.04.13-2.04-.62l-.21-46.29c-.03-5.63-2.16-10.01-2.93-10.51l-4.46-2.94-154.7.1-1.45-.11-292.35-.04c-.82,7.09,1.14,13.54.14,19.02l-.6,3.22.04,36-2.27-.05-.03-57.77c-2.53.41-4.51-.73-4.47-2.56l301.47-.06,42.61-.05,119.02-.14c.08.8.03,1.96-2.14,3.38-.03.65,2.28,1.67,4.71,2.04.94.14-.19,3.04-.2,4.09Z"/>
  <path class="cls-7" d="M768.52,375.42l-.04,2.16h-212.61s-223.71-.01-223.71-.01l-11.2-.04.02-2.17c1.58-.04,3.39.31,4.84-.52,1.82-1.06,2.64.62,3.67.6l11.45-.2,51.41.08,17.6-.09,20.43.08,30.53-.06,18.64.03,15.47.05h49.81c2.92-.03,6.9.23,9.5-.64.72-.23,2.16.64,3.68.64l69.43.03,27.23-.08,23.93.03,22.22.48,5.22-.48,41.83.15c.93,0,3.78.16,4.22-.58,1.14-1.94.79-4.71.58-6.22l2.33-.03.15,6.65,13.36.15Z"/>
  <path class="cls-6" d="M725.21,953.21c.16,8.91-6.98,12.13-5.29,18.49-4.58,4.21-10.99,14-12.02,18.65-.7,3.17-2.84,2.54-4.42,3.91l-12.13,10.5-21.49,12.07-11.7,4.3c-2.33.85-4.31.73-6.08.73v-2.22c-.01-1.22.36-1.73,2.22-2.14,17.02-3.63,31.66-11.87,43.4-23.82,6.18-6.28,11.85-12.36,15.39-20.5l6.07-14.05c1.42-3.28,1.19-5.48-.96-7.03l-6.1,4.8c-1.61,1.27-2.63,1.55-3.73.48-.62-.64-.87-1.35-.08-2.14l19.42-19.33c2.83,2.27-2.7,6.47-2.5,17.31Z"/>
  <path class="cls-6" d="M708.36,957.37c1.5,1.58-.15,3.59-1.53,4.07s-2.51.37-3.5-.25c-.82-1.22-.62-2.04.18-3.14,1.25-1.71,3.42-1.86,4.86-.68Z"/>
  <path class="cls-6" d="M421.8,973.95c-.54,2.48,1.14,4.15,4.31,3.13,2.34.64,4.07.01,4.16-2.1l9.73.48,6.55.92,138.32.17,4.56.53,46.99-.1,11.43-.93c3.25-.26,5.47.06,7.23-2.03,20.27,4.4,44.79-15.03,48.24-12.84,2.01,3.18-6.42,4.15-8.48,7.29-12.91,19.71-36.18,35.57-56.22,35.58.4-.71-.1-2.69-2.32-2.33h-171.58c-.79,1.24-.66,2.06-.56,2.37-18.4,0-38-12.87-51.75-29.17l-11.26-6.11c-2.7-1.47-4.39-1.14-6.89-3.13l-8-6.37c-4.48-1.01-5.38-4.04-4.88-6.78l8.54,6.59,5.21,2.36,6.06,4.45,4.9,1.93,11.82,4.08c1.13.39,4.09,1.01,3.87,2Z"/>
  <path class="cls-6" d="M439.56,1019.63v2.25c-5.89,0-25.74-7.65-32.58-12.62l-8.65-6.28c-16.97-12.34-24.03-32.62-25.64-33.55-1.58-.9-2.44-4.8-2.93-6.75l-4.2-16.69c-1.17-4.65-.69-8.97-5.27-12.62-1.51-1.21-1.99-4.46-1.09-5.82,6.61,5.03,10.37,15.07,14.57,17.33-.34-.14-4.6,1.72-4.31,3.09,7.3,34.98,33.11,61.73,67.75,69.61,1.96.45,2.26.75,2.35,2.05Z"/>
  <path class="cls-6" d="M419.07,261.66c-7.2,1.91-14.69,3.88-21.31,9.15l-4.89,3.9c-9.21,7.33-15.6,26.51-13.49,40.71-1.99.4-4.09.3-6.93-.29-13.71-2.84-21.56,4.55-25.93,1.32,7.77-4.39,17.56-6.54,28.22-5.09l2.2-14.35c2.15-13.91,19.86-33.35,34.3-36.38l7.7-1.62.11,2.65Z"/>
  <path class="cls-6" d="M347.31,901.31s.03-.05.04-.08c0,.01.01.03.01.04-.01.01-.04.03-.05.04Z"/>
  <path class="cls-6" d="M347.31,901.31c-.34.45-.43,1.12-.06,1.96,1.36.94,1.22,1.81,1.21,2.29-2.78.67-4.05-2.65-1.14-4.25Z"/>
  <path class="cls-6" d="M347.35,901.24c-2.43-5.08-2.61-8.64-2.68-13.58-.08-4.73-2.46-8.03-2.78-12.28l-1.48-20.63c-.1-1.45-1.72-2.35-1.67-5.27l.23-13.27,2.15-.05c.87-.26,2.33.26,2.31,2.1l-.15,22.65c0,1.19.97,2.26,2.26,2.6l.57,14.76,1.99,13.59,1.72,8.97c-.74-.48-1.9-.31-2.46.4Z"/>
  <path class="cls-6" d="M343.05,321.57c-17.33,12.76-20.12,26.96-16.48,47.44,3.14,1.58,2.71,4.86,2.93,6.44-1.03.01-1.85-1.66-3.67-.6l-3.13-10.51-.87-6.67c-1.97-15.22,7.99-32.13,20.74-39.14,1.31.53,1.67,2.17.48,3.05Z"/>
  <path class="cls-6" d="M748,902.38l-2.55,4.47c-1.96,3.41-.92,5.47-4.19,11.41l-8.09,14.77c-.85,1.55-1.86,2.14-3.37,1.19.67-2.89,2.73-5.61,4.42-9.04l6.8-13.8,1.03-7.19c1.85-2.19,1.51-2.5,1.22-4.37-.3-1.89.93-4.05,1.99-6.33,1.77-3.81.6-8.85.72-12.54l4.54-.04c.04,5.05-3.27,11.04-2.51,21.47Z"/>
  <path class="cls-6" d="M752.16,860.06c-.03,1.07-1.95,2.34-1.89,5.4l.2,10.97-4.44.08c-1.22-2.73,1.42-5.4,1.46-7.48l.73-37.44c.04-1.89,1.34-2.33,2.29-2.14l2.19.08-.54,30.53Z"/>
  <path class="cls-6" d="M654.19,240.66c.5,2.8.2,3.93-1.81,5.82-.08,1.12-.19,3.83-2.8,3.87-.98-.1-1.63-.7-2.01-1.46-.99-1.94,1.24-3.21,1.51-4.02l2.58-7.93c2.07-6.41-4.76-19.57-10.47-18.7-.06-1.19-.41-3.1-2.61-4.01l-11.38-4.64c-2.54-1.03-4.86-.38-6.52-1.66.34-1.32.4-2.35,1.66-3.78-.1-1.13-.08-3.32,2.3-3.15.78.41,1.63.64,2.53.7-.43,1.53.5,4.61,2.99,5.27,5.27,1.37,8.06,5.23,13.2,7.4l4.35,1.82c2.98,4.06,5.58,8.8,7.06,13.58.49,1.56-1.28,4.55,3,6.57-1.61,2.2-3.53,3.57-3.57,4.32Z"/>
  <path class="cls-6" d="M456.21,274.53c-4.84-4.85-10.04-7.16-15.5-10.06-4.74-2.51-12.19,1.11-12.44-3.19l.08-2.3c7.2-.03,15.06,2.99,23.35,6.59,1.96-.24,2.56-2.22,1.01-3.96,1.08.13,2.15,0,3.34-.41l2.73,10.21c2.44,2.06-.34,5.23-2.56,3.13Z"/>
  <path class="cls-6" d="M748.09,358.03c-7.44-6.94-12.96-14.19-23.27-18.35.79-10.29-1.52-17.92-3.43-27.2-2.36-2.68-2.95-5.74-2.21-8.72,1.63-.29,6.67,10.96,7.1,14.15l2.61,19.06c.51,3.78,14.47,7.68,17.45,16.34.97.83,3.46,2.61,1.75,4.73Z"/>
  <path class="cls-6" d="M338.95,798.16l-2.32.1c-3.29.3-1.21-3.92-3.65-12.08-1.89-6.32-.74-13.25-.75-19.32l2.16-.04c.41-.23,1.61-.16,2.16.55l.97,23.12c.13,3.02,1.43,4.95,1.43,7.67Z"/>
  <path class="cls-6" d="M571.65,158.45c-1.31,4.37-9.83,5.13-13.39,13.25-1.72,3.93-4.91,2.5-7.78.93-3.97-2.16-13.36-.65-22.08,1.75-2.29.64-4.58,6-8.38,4.1-.11-2.28,2.4-2.77,3.83-2.56,16.42-14.86,31.01-5.51,33.13-6.35,1.65-.64,2.82-4.86,4.32-5.82,2.38-1.5,6.61-2.54,5.81-7.62l4.47.09.06,2.24Z"/>
  <path class="cls-6" d="M627.36,177.57c-.98-.01-1.84.18-2.59.58-5.91-9.29-10.68-17.12-23.99-22.54-2.56,1.84-4.78.09-4.74-1.68l.06-2.38c8.86-.47,13.42,7.83,18.3,7.19,1.74-.23,12.97,15.46,12.96,18.83Z"/>
  <path class="cls-7" d="M772.92,491.79c.01,1.23-.96,2.24-2.14,2.56l-.14,15.21h-2.25v-38.04c.85-.33,2.46.28,2.25,2.1-.2,1.6.93,2.54,2.05,2.84l.23,15.32Z"/>
  <path class="cls-6" d="M330.01,708.62l-2.33.13c-4.52-.21-.24-7.84-3.62-16.72-1.97-5.17-.77-11.7-.79-16.89l1.99-.18c-.01.65,1.91,2.19,1.95,2.97l1.16,25.49c.09,1.86,1.66,3.67,1.65,5.2Z"/>
  <path class="cls-7" d="M341.19,815.93l-.08,20.24-2.15.05c.05-2.77-1.4-4.89-1.47-7.6l-.87-30.36,2.32-.1.05,15.17c1.22.34,2.19,1.38,2.19,2.6Z"/>
  <path class="cls-6" d="M314.3,587.9c.44-2.74-.43-4.73-1.42-7.68-2.01-6-.77-13.2-.79-19.17l1.97-.19c0,.7,1.84,2.07,1.9,3.02l1.27,18.77c.14,1.94,1.58,2.97,1.57,5.28l-4.5-.03Z"/>
  <path class="cls-6" d="M515.79,187.35l-4.49,6.41c-2.07,7.55-2.38,12.92-.21,20.8l-8.89-.3c-.13-1.36-.44-2.51-.16-4.03,1.84,2.14,4.78.89,4.25-1.72-.25-2.94-.15-5.76-.2-7.92,0-.31,7.93-19.61,8.26-19.82.74-.49,2.15-.34,3.48.04.64,2.43-.44,4.27-2.04,6.55Z"/>
  <path class="cls-6" d="M768.71,410.94c2.72,1.82,2.19,4.54-.19,5.04.01-1.04,1.14-3.95.2-4.09-2.44-.36-4.74-1.38-4.71-2.04,2.16-1.42,2.21-2.58,2.14-3.38,9.41-.01,12.8-8.27,15.6-9.2.59-.2,1.27-.14,2.06-.43-2.25,8.3-9,9.28-15.1,14.09Z"/>
  <path class="cls-6" d="M486.52,214.8c-4.41,2.61-10.75,4.85-17.56,9.18-1.38-1.84-.53-2.71,1.03-3.67,5.41-3.68,10.32-7.62,16.35-7.92.24.7.23,1.42.18,2.41Z"/>
  <path class="cls-6" d="M320.99,375.36l-.02,2.17-8.45.54c-5.07.33-9.57.92-13.9,3.59-.77.47-1.72.54-2.69.19,1.41-3.23,4.7-6,9.44-6.11l15.62-.39Z"/>
  <path class="cls-6" d="M783.88,388.57c-.73.13-1.48.1-2.61.11-3.33-7.06-10.42-11.1-12.78-11.1l.04-2.16c7.37.09,14.07,5.79,15.36,13.15Z"/>
  <path class="cls-4" d="M766.15,587.86l-.21,17.48c-.5.54-1.56.63-2.01.41h-2.24l-.09-15.82c-.01-1.81,1.47-2.36,2.34-2.09h2.21Z"/>
  <path class="cls-4" d="M768.39,547.6l-.21,17.47c-.5.55-1.56.64-2.01.43h-2.24s-.09-15.82-.09-15.82c-.01-1.82,1.47-2.36,2.34-2.09h2.21Z"/>
  <path class="cls-7" d="M307.55,493.89l-2.26-.04c.08-10.34-5.49-15.44.72-19.86-2.26-2.51-.23-4.97,1.47-4.73l.08,24.62Z"/>
  <path class="cls-4" d="M355.5,918.52c-1.18.75-2.24.62-3.13-.11l-2.25-6.16c-.99-2.72-1.7-4.93-1.67-6.69.01-.48.15-1.34-1.21-2.29-.36-.84-.28-1.51.06-1.96,0-.03.03-.05.04-.08.57-.72,1.72-.88,2.46-.4l1.96,7.11,3.73,10.57Z"/>
  <path class="cls-4" d="M759.44,710.9l-.25,15.25c-.47.55-1.51.64-1.97.41h-2.22l.25-15.25c.48-.55,1.52-.64,1.97-.41h2.22Z"/>
  <polygon class="cls-7" points="754.97 762.36 754.97 789.19 754.96 791.44 752.75 791.43 752.75 762.35 754.97 762.36"/>
  <polygon class="cls-7" points="761.69 641.55 761.69 661.68 761.67 670.64 759.46 670.63 759.46 641.55 761.69 641.55"/>
  <path class="cls-4" d="M761.67,670.64l-.3,13c-.4.58-1.45.69-1.92.43h-2.24s-.1-11.36-.1-11.36c-.01-1.81,1.5-2.36,2.35-2.07h2.21Z"/>
  <polygon class="cls-7" points="759.45 684.06 759.45 704.19 759.44 710.9 757.21 710.9 757.21 684.05 759.45 684.06"/>
  <path class="cls-4" d="M754.96,791.44l-.29,13c-.41.58-1.46.68-1.94.41h-2.24l-.09-11.35c-.03-1.81,1.48-2.36,2.34-2.07h2.21Z"/>
  <path class="cls-6" d="M464.07,227.67c-.8,5.44-4.36,12.96-6.77,13.39l-2.11.05c-.49-2.99,5.58-13.44,5.47-13.37.77-.44,2.33-.16,3.42-.06Z"/>
  <path class="cls-4" d="M763.91,628.13l-.3,13c-.4.58-1.45.69-1.92.43h-2.22l.3-13.01c.4-.58,1.45-.69,1.92-.41h2.22Z"/>
  <path class="cls-4" d="M770.74,520.91c.01,1.81-1.48,2.36-2.34,2.09h-2.22s.3-13.02.3-13.02c.4-.58,1.45-.69,1.92-.41h2.25l.09,11.35Z"/>
  <polygon class="cls-7" points="752.74 804.86 752.7 829.53 750.51 829.45 750.5 804.86 752.74 804.86"/>
  <polygon class="cls-7" points="768.4 523 768.4 543.12 768.39 547.6 766.17 547.58 766.17 522.99 768.4 523"/>
  <rect class="cls-7" x="754.98" y="726.56" width="2.22" height="24.61"/>
  <path class="cls-6" d="M770.67,428.88l-.06,22.12c-1.18.52-1.89.44-2.21.39v-24.62c.84-.33,2.49.29,2.28,2.11Z"/>
  <polygon class="cls-7" points="766.16 565.5 766.16 585.72 766.15 587.86 763.94 587.84 763.92 565.48 766.16 565.5"/>
  <path class="cls-4" d="M757.2,751.17l-.4,10.72c-.25.67-1.32.84-1.82.47h-2.23s.41-10.73.41-10.73c.24-.67,1.31-.83,1.81-.45h2.22Z"/>
  <polygon class="cls-7" points="763.94 619.27 763.91 628.13 761.69 628.13 761.69 605.76 763.92 605.76 763.92 612.44 763.94 619.27"/>
  <path class="cls-7" d="M627.36,177.57l-.2,24.13c-.89-.06-1.75-.29-2.53-.7.95-7.53.82-15.3.14-22.85.75-.4,1.61-.59,2.59-.58Z"/>
  <path class="cls-3" d="M332.15,731.02h-2.22c-.48.26-1.41.2-1.86-.41l-.36-8.52h2.22c.48-.25,1.4-.19,1.86.41l.36,8.52Z"/>
  <path class="cls-4" d="M502.2,214.26h-9s-.05-2.22-.05-2.22c.16-2.09,1.92-2.88,4.44-2.34,2.2.1,3.48.04,4.45.53-.28,1.52.04,2.68.16,4.03Z"/>
  <path class="cls-3" d="M323.2,639.3h-2.22c-.48.26-1.4.2-1.86-.41l-.36-8.52h2.22c.45-.19,1.32-.16,1.92.39l.3,8.55Z"/>
  <path class="cls-4" d="M325.41,661.74l-2.19-.05c-.49.25-1.41.19-1.87-.43l-.36-8.52h2.23c.48-.26,1.41-.2,1.86.41l.34,8.59Z"/>
  <path class="cls-4" d="M309.89,495.96l-.1,6.89h-2.22c-.88.29-2.35-.26-2.33-2.05l.05-6.95,2.26.04c.84-.3,2.36.28,2.34,2.07Z"/>
  <path class="cls-4" d="M757.27,773.37v13.76c.16,1.8-1.46,2.4-2.3,2.06v-17.89c.84-.34,2.46.26,2.3,2.06Z"/>
  <polygon class="cls-7" points="320.98 614.71 320.98 630.37 318.75 630.37 318.74 614.71 320.98 614.71"/>
  <polygon class="cls-7" points="312.09 525.16 312.03 540.87 309.79 540.89 309.79 525.22 312.09 525.16"/>
  <path class="cls-4" d="M770.6,527.83v14.92c-1.19.49-1.89.41-2.2.38v-15.66c.31-.05,1.01-.11,2.2.36Z"/>
  <path class="cls-4" d="M309.79,516.27v4.47c-3.49-.99-5.57-4.06-4.32-9.2-.75-2-.13-4.27,2.1-4.3l.29,8.64c.62.55,1.5.57,1.94.39Z"/>
  <path class="cls-10" d="M654.33,256.79l-6.74-.04-.21-6.86c-3.71,1.5-4.75,4.1-4.26,6.95l-9,.78c-1.71.15-2.71-.97-3.24-1.35-1.27-4.29-3.39-7.84-6.77-12.36-1.47-.15-3.47-1.5-3.57-3.07,15.9-.58,17.03-9.3,20.65-22.61,5.71-.87,12.54,12.29,10.47,18.7l-2.58,7.93c-.26.82-2.5,2.09-1.51,4.02.38.75,1.03,1.36,2.01,1.46.69,3.08,4.94.65,4.73,4.21l.03,2.22Z"/>
  <path class="cls-4" d="M759.45,704.19v-15.66c.31-.05,1.01-.11,2.19.36l.08,13.22c.23,1.8-1.42,2.43-2.26,2.07Z"/>
  <polygon class="cls-7" points="334.4 751.17 334.39 766.82 332.23 766.86 332.16 751.17 334.4 751.17"/>
  <polygon class="cls-7" points="332.15 731.02 332.15 744.45 329.93 744.47 329.93 731.04 332.15 731.02"/>
  <polygon class="cls-7" points="318.75 594.56 318.74 607.98 316.54 608.09 316.5 598.96 316.5 594.58 318.75 594.56"/>
  <path class="cls-3" d="M334.49,746.52l-.09,4.65h-2.24c-.5.33-1.37.26-1.72-.5-1.06-2.26-.52-4.5-.52-6.2l2.22-.03c.84-.3,2.38.26,2.34,2.07Z"/>
  <path class="cls-3" d="M321.06,610.06l-.09,4.65h-2.24c-.5.34-1.38.28-1.74-.52-.98-2.21-.62-4.45-.46-6.1l2.2-.11c.83-.3,2.36.28,2.33,2.07Z"/>
  <path class="cls-7" d="M596.1,151.55l-.06,2.38c-9.84-1.48-16.45,2.49-24.38,4.53l-.06-2.24c2.24.05,6.66-1.96,11.95-4l12.56-.67Z"/>
  <path class="cls-7" d="M456.05,261.19c-1.19.41-2.26.54-3.34.41-1.16-10.57,3.18-16.09,2.48-20.5l2.11-.05c.68,5.71-4,9.85-1.24,20.14Z"/>
  <path class="cls-7" d="M309.79,502.85v13.42c-.44.18-1.32.16-1.94-.39l-.29-8.64v-4.39h2.22Z"/>
  <path class="cls-1" d="M297.57,386.44c-.73.49-2.55.05-3.43.06l-2.29-.03c-.01-1.6-.5-3.23,1.14-4.44.68-.49,2.06-.45,2.93-.19.97.35,1.92.28,2.69-.19.43,1.43.25,3.9-1.04,4.78Z"/>
  <polygon class="cls-7" points="323.21 652.73 320.99 652.74 320.98 639.32 323.2 639.3 323.21 652.73"/>
  <path class="cls-3" d="M314.24,547.64l-2.2-.04c-.84.31-2.38-.26-2.34-2.07l.09-4.64h2.24c.52-.34,1.37-.28,1.72.49,1.04,2.26.52,4.47.49,6.26Z"/>
  <polygon class="cls-7" points="314.24 547.64 314.06 560.86 312.09 561.05 312.04 547.6 314.24 547.64"/>
  <polygon class="cls-7" points="330.01 708.62 329.93 722.09 327.7 722.09 327.69 708.75 330.01 708.62"/>
  <path class="cls-4" d="M318.8,587.92l-.05,6.64-2.25.03c-.5.33-1.38.26-1.75-.54-.92-2.1-.7-4.56-.45-6.15l4.5.03Z"/>
  <polygon class="cls-7" points="325.41 661.74 325.26 674.96 323.28 675.14 323.23 661.69 325.41 661.74"/>
  <path class="cls-4" d="M763.87,650.83v10.52c-1.19.44-1.89.38-2.19.33v-11.17c.3-.05.99-.11,2.19.33Z"/>
  <path class="cls-7" d="M666.4,255.12l-1.52,2.85c-3.27-1.13-7.11-1.17-10.55-1.18l-.03-2.22,12.09.55Z"/>
  <polygon class="cls-7" points="294.14 386.51 294.13 397.64 291.88 397.73 291.85 386.48 294.14 386.51"/>
  <path class="cls-4" d="M745.97,880.95c.04-1.34.57-3.29.06-4.44l4.44-.08.04,4.47-4.54.04Z"/>
  <path class="cls-6" d="M356.75,923.4c-1.65.59-4.46.24-4.44-1.16l.06-3.83c.89.73,1.95.87,3.13.11.49,1.41,1.97,2.6,1.24,4.88Z"/>
  <path class="cls-7" d="M428.34,258.98l-.08,2.3c-3.02-.08-6.23-.4-9.2.38l-.11-2.65,9.39-.03Z"/>
  <path class="cls-4" d="M766.16,585.72v-9.14c2.1.24,2.78,1.94,2.35,4.56.43,2.63-.24,4.32-2.35,4.58Z"/>
  <path class="cls-10" d="M755.01,368.62l-2.33.03c-.26.01-.92.08-2.09-.33l-.04-6.44c2.14-.2,2.8,2.33,2.33,3.85,1.92.99,2.11,2.06,2.12,2.89Z"/>
  <path class="cls-4" d="M316.54,608.09c-2.17-.24-2.8-1.96-2.38-4.58-.44-2.63.23-4.32,2.34-4.56l.04,9.14Z"/>
  <path class="cls-6" d="M296.4,402.13c-1.62.5-3.58.41-4.47-1.08-.58-.96-.04-2.51-.05-3.32l2.25-.09c2.38.03,3.14,2.5,2.28,4.49Z"/>
  <path class="cls-7" d="M783.81,396.85c-.79.29-1.47.23-2.06.43.03-2.69.65-6.21-.48-8.6,1.13-.01,1.89.01,2.61-.11.44,2.49.58,5.88-.08,8.28Z"/>
  <path class="cls-4" d="M763.94,619.27v-6.83c.92-.1,2.1.24,2.44,2.21.48,2.79-.45,4.39-2.44,4.61Z"/>
  <path class="cls-6" d="M768.41,464.9v-6.83c.92-.1,2.1.24,2.44,2.21.48,2.79-.44,4.39-2.44,4.61Z"/>
  <path class="cls-7" d="M493.2,214.27c-1.8,0-5.2-.35-6.69.53.05-.99.06-1.71-.18-2.41l6.81-.35.05,2.24Z"/>
  <path class="cls-6" d="M303.05,406.73l-3.27-.09c-.74,0-1.55-1.12-1.18-2.26l3.29.05c.82-.01,1.38,1.19,1.16,2.3Z"/>
  <path class="cls-3" d="M309.83,467.12c.01,1.52-.8,2.38-2.35,2.15l.08-2.2,2.27.05Z"/>
  <path class="cls-4" d="M312.09,525.16l-2.3.06v-2.24c1.58-.25,2.3.77,2.3,2.17Z"/>
  <polygon class="cls-7" points="652.07 1021.85 439.54 1021.88 439.56 1019.63 652.05 1019.63 652.07 1021.85"/>
  <path class="cls-15" d="M604.06,409.04l.41,4.02.34,11.86c-.09,1.3-.91,1.88-1.96,1.71l-4.74-.75-285.66.17c-.78.89-1.71,1.85-2.06,1.85,1.01-5.48-.95-11.92-.14-19.01l292.35.03,1.46.12Z"/>
  <path class="cls-13" d="M650.51,508.28c-1.28.41-2.51,1.61-3.18,2.85-9.06,1.33-19.29,4.55-28.27-.03l-13.29-6.77c-1.7-.87-2.2-1.51-3.32-.53-.72-.82-1.73-2.3-1.82-3.1,2.78-.36,2.8-2.2,2.29-4.42l.41-51.6-.49-18.05c1.04.16,1.87-.41,1.96-1.71l45.12.9c.15,9.88-1.67,15.88-1.67,16.4l-.13,45.07c-.04,12.19-.47,21.15,2.38,20.98Z"/>
  <path class="cls-4" d="M714.95,447.43c-13.84.69-24.7,8.53-31.25,19.97l-9.8,17.12c-5.83,10.19-12.73,20.3-23.39,23.76-1.28.41-2.51,1.61-3.18,2.85,1.46.31,2.05,1.42,1.61,3.12l-.55,133.93-1.24,6.56c6.39,8.46,6.05,9.58,5.17,18.29l-2.22,22.27c-.4,4.02-.19,7.44-3.39,8.96l.57,6.61-.52,31.6c2.28,0,4.63.93,6.17,2.45.9.88,1.58,4.44.47,5.02-2.93,1.52-6.11-.24-8.25-.85,1.89,14.57.93,30.67.24,46.76l-1.41,32.13-3.41,79.78-2.17,31.46c-.28,4.03-5.33,4.5-7.78,4.98l-11.48,2.3-11.33,2.02-13.83,2.11h-.05v.23c.01.62,0,1.21-.03,1.8-.04.62-.07,1.22-.14,1.81-.06.58-.15,1.16-.24,1.71-.26,1.51-.6,2.92-.99,4.25h0c-.13.45-.26.88-.4,1.31h0c-.16.54-.34,1.07-.52,1.57-.18.52-.34,1.02-.52,1.52-.13.36-.24.72-.36,1.07-.13.41-.26.82-.38,1.22-.09.29-.16.58-.24.85-.08.26-.14.53-.2.79-.09.36-.16.72-.23,1.07-.05.3-.09.59-.11.88-.03.15-.04.29-.04.44-.01.13-.03.26-.03.39-.01.23-.03.45-.01.68,2.61.97,6.05,2.05,3.52,1.8-3.67-2.19-4.49,1.89-3.58,3.08l46.98-.1,11.44-.93c3.26-.26,5.47.06,7.23-2.02,11.25-4.56,26.08-11.99,35.22-21.1l9.16-9.15c6.3-6.3,11-12.77,14.72-20.93l5.98-13.1c6.08-13.3,6.15-28.93,7.39-44.65l3.17-40.2,9.75-118.4,2.7-32.04,2.55-35.14,2.12-33.57,2.06-44.77.88-87.26c.1-8.71-14.73-27.35-35.85-26.28ZM670.96,758.09c-1.5.87-4.29.63-6.08-2.15-.87-1.34-1.08-4.96.03-5.24,2.79-.72,5.19.62,6.49,2.5,1.48,2.16.44,4.37-.43,4.89ZM706.1,681.96c-11.5,11.1-.13,40.7-13.08,34.53-2.26-1.08-3.65-3-5.62-5.54-10.72,3.31-23.18-.62-28.34-11.34-3.12-6.45-1.33-14.67,1.31-20.41,3.99-8.72,11.38-12.46,20.24-13.75,16.68-2.45,31.27,10.95,25.5,16.52Z"/>
  <path class="cls-4" d="M670.96,758.09c-1.5.87-4.29.63-6.08-2.15-.87-1.34-1.08-4.96.03-5.24,2.79-.72,5.19.62,6.49,2.5,1.48,2.16.44,4.37-.43,4.89Z"/>
  <path class="cls-1" d="M766.15,422.38c-1.89.15-3,1.71-4.45,2.69l-.28-11.68-93.71-.13c-3.84,0-7.12-1.1-11.52.04-2.82-.66-5.66.77-3.72,4.8l-.7,6.33c-1.14-.31-1.84.26-1.85,1.39l-45.12-.91-.34-11.86-.41-4.02,154.7-.11,4.45,2.94c.77.51,2.91,4.88,2.94,10.51Z"/>
  <path class="cls-11" d="M761.71,425.07l-100.64.03c-3.67,0-6.71.02-9.29-.67l.7-6.33c-1.94-4.03.9-5.47,3.72-4.8,4.4-1.13,7.68-.04,11.52-.04l93.71.13.28,11.68Z"/>
  <path class="cls-1" d="M768.49,377.58c2.36,0,9.45,4.04,12.79,11.1,1.13,2.39.49,5.9.48,8.59-2.81.93-6.2,9.19-15.61,9.2l-119.02.14v-22.79c1.78-1.8.18-5.02-2.2-2.43-1.25.74-4.31.73-6.22.72l-33.97-.17c.32-.76-.06-2.18-1.76-2.17l-44.98.09c-1.86,0-2.38-1.4-2.12-2.3l212.62.02Z"/>
  <path class="cls-13" d="M647.13,406.62l-42.62.05-.45-20.47c-.62-1.34-1.62-3.44.67-4.26l33.97.17c1.92,0,4.97.01,6.22-.72,2.38-2.59,3.99.63,2.2,2.43v22.79Z"/>
  <path class="cls-1" d="M544.69,377.57c.34.83-.28,2.53-2.16,2.25l-57.78-.03c-.59-1.15-.53-1.88-.46-2.22h60.4Z"/>
  <path class="cls-1" d="M390.33,377.57c.06.34.13,1.07-.46,2.22l-55.55.03c-1.88.27-2.5-1.42-2.15-2.26h58.17Z"/>
  <path class="cls-1" d="M455.2,377.57c.34.84-.28,2.49-2.1,2.26h-27.12c-1.82.23-2.44-1.43-2.1-2.26h31.32Z"/>
  <path class="cls-1" d="M417.17,377.57c-.32,2.32-1.84,2.55-4.47,2.5-2.63.05-4.15-.18-4.47-2.5h8.95Z"/>
  <path class="cls-1" d="M459.68,377.57h2.24c.4,2.69-2.64,2.69-2.24,0Z"/>
  <path class="cls-12" d="M534.68,243.51c-.08-.01-.14-.03-.2-.03s-.13.01-.19.03c.14-.03.28-.01.44.03-.03,0-.04-.01-.05-.03ZM534.68,243.51c-.08-.01-.14-.03-.2-.03s-.13.01-.19.03c.14-.03.28-.01.44.03-.03,0-.04-.01-.05-.03ZM534.68,243.51c-.08-.01-.14-.03-.2-.03s-.13.01-.19.03c.14-.03.28-.01.44.03-.03,0-.04-.01-.05-.03ZM534.68,243.51c-.08-.01-.14-.03-.2-.03s-.13.01-.19.03c.14-.03.28-.01.44.03-.03,0-.04-.01-.05-.03ZM534.68,243.51c-.08-.01-.14-.03-.2-.03s-.13.01-.19.03c.14-.03.28-.01.44.03-.03,0-.04-.01-.05-.03ZM534.68,243.51c-.08-.01-.14-.03-.2-.03s-.13.01-.19.03c.14-.03.28-.01.44.03.06.01.11.03.16.05-.08-.04-.14-.06-.21-.08ZM638.57,214.23l-11.38-4.64c-2.54-1.03-4.86-.38-6.52-1.66-7.47-5.76-6.74-10.38-12.76-12.31-2.63-.84-5.38-4.05-7.92-5.28-4.69-2.27-10.71-.82-15.02-.67l-8.64.3c-.78,3.09-3.87,1.07-2.5-.96-2.15-.84-3.78.05-5.48,2.48-1.24.2-3.43.79-4.69,1.47,1.34.85,1.77,2.15,2.14,2.92,6.23-.64,1.19,6.8-4.88,21.2-2.44,5.82-1.04,11.92-4.41,12.24.28,5.68,4.86,9.24,3.68,13.93-1.16,4.65-8.16,5.09-9.8,1.66-.88-1.84-1.29-3.98-1.41-5.12-1.57.23-2.39-1.52-2.28-2.82-3.65-.59-4.02-2.3-5.07-4.16-.44-.8-3-1.4-4.09-2.4-8.43-7.88-28.13-8.3-36.84-4.09l-10.32,4.99c-4.3,2.07-6.46,3.81-8.21,7.78l-3.39,7.73c-1.48,3.41-3.38,5.62-3.47,9.96l-.46,22.49,1.95,4.99c1.68,4.31-2.54,9.84-6.81,11.38-3.66,1.31-9.23,3.66-12.57,1.07l-11.11-8.61-6.59-4.93c-1.45-1.08-4.9-3.52-6.69-3.77-17.97-2.55-24.62-2.17-33.69,10.65-.84,1.19-2.35,2.01-3,4.07l-3.66,11.7c-.26.84.55,2.43-.69,4.37-.35.55-.92.6-1.37.29l-.24,6.93c-.06,1.77-.77,5.29,1.67,6.33,9.13,3.91,15.93,17.02,15.72,27.36.68,1.01,1.32,2.69,2.49,3.49,2.87,1.99,16.05-9.68,34.38-12.48-.11-7.27-6.57-9.83-11.16-8.95l-7.86.09c-2.33-.2-1.85-3.51.75-2.17,2.4-2.93,4.85-1.9,7.29-2.2l6.42-.75c-2.28-3.98,5.47-8.76,15.11-15.52,21.72-15.23,47.02-23.23,73.15-19.48l9.01,2.21c10.75,2.64,21.09,8.43,30.51,14.77,1.21-.06,3.12,1.28,1.57,3.15-.18.59-.08,2.65,1.78,2.38l4.42-.63c-.04-1.47-.43-4.3-1.21-5.49-7.96-12.19-22.71-25.57-35.65-29.48-11.45-3.46-17.62-3.39-16.5-5.4h-15.67c-2.9,0-6.08.77-9.01-.94.04-.06.59-.63,1.19-1.28h10.07c-.39-2.69,2.64-2.69,2.24-.01h10.9c-3.38-5.44,19.13-7.03,38.35-4.07,13.65,2.1,18.82-1.87,25.63-.33,1.19-1.37,5.14-.41,5.42-3.87-.93-2.74,1.82-4.02,3.54-6.21l4.91-6.21c2.65-3.36,1.75-8.94,3.86-12.07-1.12.08-2.55-1.96-6.21-.55-4.15,1.24-3.97-4.15.16-2.33,8.91-1.71,16.97.85,22.84,4.07,15.9-.58,17.03-9.3,20.65-22.61-.06-1.19-.41-3.1-2.61-4.01ZM405.61,316.37c4.09-4.12,9.18-7.62,16.32-5.04-11.02,1.43-12.43,7.55-16.32,5.04ZM428.42,290.78c-2.16,0-3.92-1.76-3.92-3.92s1.76-3.92,3.92-3.92,3.93,1.75,3.93,3.92-1.76,3.92-3.93,3.92ZM438.64,304.37c-2.99-2.36-5.1-4.47-5.82-10.27l6.62,3.62c-.44.62-2,3.12-.8,6.65ZM494.35,276.9h-2.24l-1.12-1.12,1.12-1.12h2.24l1.12,1.12-1.12,1.12ZM502.89,248.61c-2.2,0-3.97-1.77-3.97-3.97s1.77-3.96,3.97-3.96,3.97,1.77,3.97,3.96-1.78,3.97-3.97,3.97ZM512.24,252.29l-1.12-1.12,1.12-1.12,1.12,1.12-1.12,1.12ZM516.29,256.45c-.11-.06-.21-.15-.31-.24s-.2-.21-.29-.34l1.26-1.27c.3.21.5.44.62.67h0c.04.06.06.13.08.18.01.04.03.06.03.09.03.09.04.16.04.25,0,.57-.51.97-1.12.79-.09-.04-.18-.08-.28-.13h-.01ZM522.31,261.53c-3.37.45-4.91-1.06-4.53-3.66l1.18-1.06c.92-.28,3.77-.58,4.94.41,1.65,1.4.87,3.96-1.6,4.3ZM532.42,241.09l-.23,2.34c-4.36.73-2.78-4.11.23-2.34ZM534.39,245.49c-.28-.2-.48-.41-.59-.63-.04-.06-.06-.13-.09-.19,0-.01,0-.03-.01-.03-.13-.36-.04-.7.19-.92.06-.08.15-.13.25-.18.05-.01.1-.04.15-.05.14-.03.28-.01.44.03.06.01.11.03.16.05.05.01.1.04.15.08h.01c.2.13.4.3.59.58l-1.26,1.26ZM538.65,247.5c-.2-.13-.4-.3-.59-.58l1.26-1.26c.28.2.48.41.59.63.04.06.06.13.09.19,0,.01,0,.03.01.03.13.36.04.7-.19.92-.25.26-.7.34-1.16.08h-.01ZM541.31,250.07l.23-2.34c4.36-.73,2.78,4.11-.23,2.34ZM555.03,260.89c-2.14,0-3.87-1.73-3.87-3.86s1.73-3.87,3.87-3.87,3.86,1.73,3.86,3.87-1.74,3.86-3.86,3.86ZM571.11,212.01c.58-3.63,4.8-2.97,4.79-.25-1.9,3.34-4.59,1.99-4.79.25ZM534.68,243.51c-.08-.01-.14-.03-.2-.03s-.13.01-.19.03c.14-.03.28-.01.44.03-.03,0-.04-.01-.05-.03ZM534.68,243.51c-.08-.01-.14-.03-.2-.03s-.13.01-.19.03c.14-.03.28-.01.44.03-.03,0-.04-.01-.05-.03ZM534.68,243.51c-.08-.01-.14-.03-.2-.03s-.13.01-.19.03c.14-.03.28-.01.44.03-.03,0-.04-.01-.05-.03ZM534.68,243.51c-.08-.01-.14-.03-.2-.03s-.13.01-.19.03c.14-.03.28-.01.44.03-.03,0-.04-.01-.05-.03ZM534.68,243.51c-.08-.01-.14-.03-.2-.03s-.13.01-.19.03c.14-.03.28-.01.44.03-.03,0-.04-.01-.05-.03Z"/>
  <path class="cls-6" d="M563.67,192.97c1.34.86,1.76,2.15,2.13,2.92-8.8,3.81-15.33,14.27-18.35,25.57.43,3.19,6.2,7.17,9.06,7.88.27,5.69,4.87,9.24,3.68,13.94-1.17,4.64-8.17,5.08-9.81,1.65-.88-1.84-1.3-3.99-1.42-5.11-.87-8.43-7.69-16.69-15.68-20.44-.07-1.14-.13-1.86.09-2.6l6.69,1.59c4.04-11.59,14.59-20.55,23.59-25.38Z"/>
  <path class="cls-2" d="M533.38,216.77c-.21.74-.16,1.46-.09,2.6-4.98-2.34-23.15,1.64-11.96-5.26,4.57-.98,7.54,1.59,12.05,2.66Z"/>
  <path class="cls-11" d="M544.74,183.01c2.46-.23,2.97,2.31,2.21,3.3-.72.94-2.25,1.78-4.55,1.02-2.46.23-2.97-2.31-2.21-3.3.72-.94,2.25-1.78,4.55-1.02Z"/>
  <path class="cls-9" d="M392.69,305.84c-.26.84.56,2.42-.69,4.37-.35.55-.91.6-1.38.28-2.05.43-3.84-2.09-2.09-3.94,1.11-1.17,3.33-.93,4.15-.72Z"/>
  <path class="cls-4" d="M584.98,189.69l-8.65.3c-.78,3.09-3.87,1.07-2.5-.96,2.02-.29,3.1-1.76,6.92-1.87,2.15-.06,3.92.15,4.23,2.53Z"/>
  <path class="cls-2" d="M596.24,171.82c1.88,4.18-3.47,5.52-2.68.48-.67-2.46,2.39-3.33,2.68-.48Z"/>
  <path class="cls-10" d="M662.91,268.38l-8.82-1.76c-2.2-.43-5.4-.75-7.43-1.09,12.66,7.5,18.21,21.48,13.54,35.45-1.76,5.27-6.88,11.77-14.74,14.39l-12.02,4c-.01.41.13,3.73,1.01,4.01,7.76,2.29,14.86,3.77,22.07,7.64l15.84,8.51c-.04-1.19,1.08-1.82,2.26-1.18,12.62-3.75,24.28-5.27,38.01-3.68,5.56-34.45-16.8-59.74-49.71-66.28ZM679.1,310.46c-1.94.41-3.02,1.29-4.27,2.94-.53,1.92-2.93,1.63-2.59-.57-.69-2.35-.55-4.24,2.83-4.95,1.14-.24,1.97-2.26,4.05-.92,1.48.96,2.84,2.88-.01,3.49Z"/>
  <path class="cls-12" d="M646.66,265.53c-6.65-1.12-12.97-1.19-20.2.96l-10.08,3c-4.75,1.41-15.88,8.91-17.4,10.43l-15.57,15.54c-.99.99-.8,3.97-.97,4.93l8.86,10.23,4.73,2.39c11.71,5.91,29.45,9.01,37.41,6.36l12.02-4c7.87-2.63,12.98-9.13,14.74-14.39,4.68-13.96-.88-27.94-13.54-35.45ZM643.23,289.36c-2.09,2.3-8.28,2.85-9.02-1.24-.93-5.09,7.15-8.79,10.63-5.98,2.72,2.19-.3,5.78-1.61,7.23Z"/>
  <path class="cls-6" d="M613.85,258.79c.45,2.22-1.79,3.5-4.23,2.47-15.79,6.81-28.03,19.27-32.87,35.15l5.7,3.98,8.86,10.24,4.72,2.38c11.72,5.91,29.44,9.01,37.4,6.36,0,.42.13,3.73,1.01,4.01,7.76,2.29,14.86,3.78,22.07,7.65l15.85,8.51c-.4.84-.28,2.98,1.61,2.91,8.74,4.41,12.45,12.96,17.34,13.03-2.21,4.77,7.72,8.98,9.53,20.31l-22.22-.48c-9.81-17.46-25.63-35.22-44.44-44.27-10-4.81-19.69-6.4-29.38-8.22,1.23-1.31.23-4.14-1.56-3.88l-20.74.42c-.51,2.27.15,3.5.27,4.62-.7.01-2.56.13-3.23-.13s-1.1-.9-.98-2.01c2.27-.14,2.06-2.32.41-3.04.54-2.8-.94-4.22-3.3-3.76-.04-1.48-.42-4.3-1.2-5.49-7.97-12.2-22.71-25.57-35.65-29.47-11.46-3.46-17.63-3.4-16.51-5.41.13-.68.07-1.73-.28-2.24,5.18,0,7.31,1.31,11.42,2.45l13.8,3.84,6.69,2.37c6.67,2.36,11.55,8.59,16.92,7.18,2.15-6.61,6.51-10.46,10.48-14.95l4.66-5.28c1.2-1.36,5.14-.41,5.43-3.86,6.92-.46,12.81-6.03,22.43-5.36Z"/>
  <path class="cls-10" d="M747.89,375.45l-41.84-.15-5.22.48c-1.81-11.32-11.74-15.53-9.53-20.31,25.22-8.54,50.24-4.77,56.58,19.98Z"/>
  <path class="cls-10" d="M615.38,258.78c-.62-.25-.95-.27-1.53.01-9.62-.67-15.51,4.9-22.43,5.36-.93-2.74,1.82-4.03,3.54-6.21l4.91-6.22c2.65-3.36,1.74-8.93,3.86-12.07,7.07-.49,13.91,7.27,14.9,10.38l2.2,6.93c-2.84-.79-4.72-.19-5.46,1.81Z"/>
  <path class="cls-6" d="M620.54,240.86c.1,1.57,2.09,2.91,3.56,3.07,3.39,4.51,5.5,8.06,6.77,12.35-4.35,3.43-10.61,4.47-15.49,2.51.74-2,2.62-2.6,5.46-1.81l-2.2-6.93c-.99-3.11-7.83-10.87-14.9-10.38-1.13.08-2.56-1.95-6.22-.55-4.14,1.24-3.96-4.15.17-2.33,8.91-1.71,16.97.85,22.84,4.08Z"/>
  <path class="cls-7" d="M647.6,256.76l-4.48.08c-.49-2.85.55-5.46,4.26-6.95l.22,6.87Z"/>
  <path class="cls-10" d="M593.92,950.85c.01.62,0,1.21-.03,1.8-.04.62-.07,1.22-.14,1.81-.06.58-.15,1.16-.24,1.71-.25,1.51-.59,2.92-.99,4.25h0c-.13.45-.26.88-.4,1.31-.34,1.07-.69,2.1-1.03,3.09-.13.36-.24.72-.36,1.07-.13.41-.26.82-.38,1.22-.09.29-.16.58-.24.85-.08.26-.15.53-.2.79-.09.36-.16.72-.23,1.07-.05.3-.09.59-.11.88-.03.15-.04.29-.04.44-.01.13-.03.26-.03.39-.01.23-.03.45-.01.68,2.61.97,6.05,2.05,3.52,1.8-3.67-2.19-4.49,1.89-3.58,3.08l-4.56-.53-138.31-.18-6.55-.92c.2-2.85-2.41-3.19-4.35-3.23-18.4-10.02-40.51-27.07-51.18-43.4-2.9-4.45-7.58-9.02-8.14-14.12,2.38-.29,4.32,1.07,7.19,2.46,63.19,30.87,138.41,42.89,210.4,33.67Z"/>
  <polygon class="cls-10" points="593.92 950.64 593.97 950.62 593.93 950.85 593.92 950.85 593.92 950.64"/>
  <path class="cls-10" d="M648.94,514.25l-.55,133.93-1.24,6.56c-6.81-.29-13.51-2.15-21.85.97-1.31-4.31.21-6.2.54-9.28l1.02-9.19c.57-5.23-1.21-7.91-4.51-9.43-2.59-1.18-8.65-1.6-9.18,3.48l-1.7,16.54-4.64,35.62c-.38,2.88-1.56,6.36-1.38,9.28.23,3.75,3.62,4.54,5.34,4.8,2.07.33,6.15-.34,6.59-3.08l1.92-11.99c1.37-8.5,7.93-15.61,17.09-16.65,7.67-.88-2.05,16.1,1.38,35.09.62,3.44,6.59,4.39,8.91,3.36l.57,6.61-.52,31.6-4.59.26c-.33,2.09-.24,3.85.35,4.3l2.63,2.05c1.89,14.57.93,30.67.24,46.76l-1.41,32.13-3.41,79.78-2.17,31.46c-.28,4.03-5.33,4.5-7.78,4.98l-11.48,2.3-11.33,2.02-13.83,2.11,3.54-20.7,1.09-69.14,1.08-94.03.41-4.39c.18.05.36.11.54.18.18.06.35.13.53.21.24.11.48.23.72.36.01,0,.02,0,.04.01.13.08.26.15.39.23.16.1.31.19.47.3.15.1.31.2.47.33.15.11.3.23.45.35.14.11.29.24.44.36.29.25.57.5.83.77.01.01.03.03.04.04.88.88,1.67,1.84,2.36,2.77,3.76.03,4.85-.69,5.64-1.67,1.21-1.52,1.78-3.8,1.08-6.26,5.49.73,9.05-2.36,10.08-6.27,1.26-4.81-1.89-9-7.27-10.51l-16.69-4.68c-.03-2.95,0-5.3.05-5.91,10.14,2.34,18.25,8.9,28.03,8.94.23-2.19.25-4.25-.44-4.53l-27.72-10.91.49-33.56c.02-1.71-.87-2.64-2.09-2.54-.13-1.78-.4-4.5.05-6.06,2.02-.54,2.66-1.95,2.3-4.59l-.65-16.72.45-9.94.93-25.33.83-123.93c1.12-.98,1.62-.34,3.32.53l13.29,6.77c8.97,4.58,19.21,1.36,28.27.03,1.46.31,2.05,1.42,1.61,3.12Z"/>
  <path class="cls-10" d="M599.72,762.26c.13.03.25.06.39.1l-.41,4.39-1.14-4.65c.2.01.39.03.58.05.08.01.14.03.2.04.14.01.26.04.39.08Z"/>
  <path class="cls-10" d="M600.22,738.88h-.01c-.4-2.25-.1-4.11.06-5.91-.05.6-.08,2.95-.05,5.91Z"/>
  <path class="cls-7" d="M430.28,974.99c-.1,2.11-1.82,2.74-4.16,2.1-3.18,1.01-4.85-.65-4.31-3.13,2.87,1.1,5.6.9,8.48,1.04Z"/>
  <path class="cls-12" d="M398.64,362.59c-1.78-14.34-12.96-22.05-28.95-23.63,5.05-4.39,13.24-.19,20.7-1.22.3-6.75-13.49-10.48-26.95-9.45-3.62.29-4.99,2.38-7.4,3.46-7.87,3.53-14.4,7.62-15.49,16.16-1.17.25-3.14.65-3.87,1.76-.72,1.12-.19,3.28,1.61,3.49,1.13-.63,2.3-.2,2.82.92l-1.12,1.12-1.48.14c.34,3.66-.43,8.45,1.17,12.59,1.13,2.94,1.99,4.79,1.27,7.32l51.41.08c1.99-4.6,7.04-6.6,6.28-12.73ZM341.1,356.37l1.13-1.14c1.37-.11,3.08-.67,5.82.83-1.75,2.25-5.28,2.09-6.95.31ZM361.51,362.54c-2.09,0-3.78-1.68-3.78-3.78s1.7-3.77,3.78-3.77,3.78,1.68,3.78,3.77-1.7,3.78-3.78,3.78ZM366.84,341.77h-2.24l-1.12-1.12,1.12-1.12h2.24l1.12,1.12-1.12,1.12Z"/>
  <path class="cls-6" d="M440.12,328.15l13.48,4.03c1.93.58,2.4,1.12,3.25,3.12l2.91,7.3-2.28.4c-.56.1-.32,3.04-.22,3.27-19.44.44-38.94,11.79-47.29,28.97l-17.59.08c1.99-4.6,7.04-6.59,6.28-12.72-1.78-14.35-12.96-22.06-28.95-23.64,5.05-4.39,13.23-.19,20.71-1.21-.09,2.05,2.59,2.01,3.54,2.49,5.43,2.97,10.27,7.83,13.85,10.89.69,1,1.33,2.69,2.49,3.5,2.87,1.99,16.06-9.67,34.38-12.48-.11-7.27-6.57-9.82-11.15-8.94l.19-4.28,6.43-.76Z"/>
  <path class="cls-10" d="M338.51,355.34l-.21-2.18c1.12-.62,2.3-.2,2.81.92.22.49.63.91,1.12,1.15,1.36-.11,3.08-.67,5.81.83-1.75,2.25-5.28,2.09-6.94.32l-1.11-1.17-1.48.14Z"/>
  <path class="cls-12" d="M654.68,375.27l-.62-4.8c-.26-1.92-2.5-4.73-4.19-6.42l-24.46-24.69-4.69-1.9c-8.03-3.26-16.77-13.16-29.22-11.36-2.36.49-4.07.08-4.42-2.16l-4.32.04c-.7.01-2.56.13-3.23-.13-.67-.26-1.11-.9-.98-2.02-9.41,2.27-12.44-3.17-18.21-2.92l-13.55.59-10.28,1.08-23.51,11.88c-11.45,5.79-16.45,22.18-17.55,36.17,9.18.97,13.5-12.36,22.31-17.89.28-1.48,1.78-3.37,4.64-2.34l11.46,4.12c5.49,1.97,9.02,5.29,12.46,9.95,6.38-13.12,19.87-21.37,31.86-22.94-.4-2.1,1.81-3.02,2.9-1.23,1.67.67,3.36.44,5.14-.15,4.34-1.45,10.29-1.5,15.56.44,1.92,2.72-.94,4.76-3.31,2.75-2.69.16-6.64-.47-9.34.67-4.15,1.75-4.81,9.43-4.14,13.05.99,2.21,2.78,3.86,2.69,6.64,6.66,2.99,13.37,6.26,21.46,7.33l13.94,1.84c1.72.23,3.67-.1,4.31,1.06.44.79.25,2.28.05,3.42l27.23-.08ZM536.86,330.59h-2.24l-1.12-1.12,1.12-1.12h2.24l1.12,1.12-1.12,1.12ZM616.36,347.59l1.27-1.26c.4.29.62.6.7.89h0c.2.7-.36,1.27-1.06,1.08-.05-.01-.11-.04-.16-.06-.05-.01-.09-.04-.13-.06-.21-.11-.43-.31-.63-.59ZM618.51,349.6c.25-.46.64-.85,1.18-1.11.89.52,1.72,2.05,1.06,3.36l-1.17,1.09c-.91-.5-1.75-2.06-1.07-3.34ZM621.62,355.12c-.33-.24-.54-.5-.64-.75-.03-.06-.05-.11-.06-.16-.03-.09-.04-.18-.04-.26s.01-.18.04-.25c.03-.08.06-.15.1-.23.04-.04.08-.09.11-.13.15-.15.36-.24.59-.24.09,0,.16.01.25.04.09.03.19.06.28.11.11.06.23.14.33.24.06.05.11.1.16.16.06.06.11.13.16.2l-1.28,1.27Z"/>
  <path class="cls-9" d="M569.46,313.27c-.17.6-.07,2.66,1.79,2.38l4.41-.62c2.36-.46,3.83.96,3.3,3.76,1.65.72,1.86,2.9-.41,3.04-9.41,2.28-12.44-3.17-18.22-2.92l-13.54.59-10.28,1.08-23.51,11.88c-11.46,5.79-16.45,22.19-17.55,36.17l-.43,6.69-15.47-.05c1.66-26.23,15.44-47.44,40.13-57.97,1.44-3.08,4.72-2.59,6.27-3.29.53-.24.85-.46,1.12-.72,4.6-1.39,8.32.74,8.98-2.65-.02-.39.08-1.05.8-1.17,11.19-1.87,23.2-.76,32.61,3.8Z"/>
  <path class="cls-9" d="M604.79,322.81c9.69,1.82,19.38,3.41,29.38,8.22,18.8,9.05,34.63,26.81,44.44,44.27l-23.94-.03-.61-4.79c-.26-1.92-2.5-4.74-4.19-6.43l-24.46-24.68-4.69-1.9c-8.03-3.26-16.76-13.16-29.21-11.36-2.37.49-4.08.07-4.43-2.16l4.79.24c1.79.12,2.48-1.57,2-2.48,3.9-.73,7.3.42,10.92,1.1Z"/>
  <path class="cls-10" d="M585.01,355.07c-2.21-.61-3.05,2.39-.24,2.42-.69,4.14,1.49,3.56,2.93,4.21,6.66,2.99,13.36,6.26,21.46,7.33l13.94,1.84c1.71.23,3.66-.11,4.31,1.05.44.79.25,2.27.06,3.42l-69.44-.02c-1.52,0-2.98-.87-3.69-.64-.67-2.02-.3-4.03.56-6.78l1.66-5.33c3.87-12.44,14.88-19.99,29.24-21.01.38-.21.93-2.54.43-3.41,4.34-1.44,10.3-1.5,15.56.44,1.93,2.72-.94,4.76-3.3,2.75-2.69.16-6.63-.47-9.33.67-4.14,1.74-4.82,9.43-4.14,13.05Z"/>
  <path class="cls-6" d="M525.95,314.01c-1.55.69-4.83.2-6.27,3.29-24.69,10.53-38.47,31.75-40.13,57.97l-18.64-.02c.06-3.73,1.5-6.99,3.04-11.2l2.41-6.62c.57-.19,1.52-.3,2.49-2.23l4.28-8.48c-1.59-1.12-5.3-.88-6.48-.65l-.29-4.27,9.88.73c13.27-14.47,32.18-29.57,49.71-28.51Z"/>
  <path class="cls-9" d="M457.24,346.26l9.41-.2c1.18-.23,4.89-.47,6.48.65l-4.28,8.48c-.98,1.93-1.93,2.05-2.49,2.23-7.24-4.56-18.38,3.6-30.04,9.55-4.08,2.08-6.1,3.96-5.94,8.33l-20.43-.07c8.35-17.18,27.85-28.53,47.29-28.97Z"/>
  <path class="cls-10" d="M544.84,375.3l-49.82.02.43-6.69c9.18.97,13.5-12.36,22.31-17.88,12.83,1.19,22.44,11.83,27.08,24.56Z"/>
  <path class="cls-6" d="M586.22,338.16c.5.87-.06,3.2-.43,3.41-14.36,1.02-25.37,8.57-29.24,21.01l-1.66,5.33c-.85,2.75-1.22,4.76-.56,6.78-2.6.86-6.58.62-9.5.62-4.64-12.73-14.25-23.37-27.08-24.56.28-1.48,1.79-3.36,4.64-2.34l11.47,4.12c5.49,1.97,9.02,5.29,12.45,9.96,6.39-13.12,19.88-21.37,31.87-22.94,1.17-.15,2.16-.89,2.9-1.23,1.67.66,3.36.44,5.14-.16Z"/>
  <path class="cls-12" d="M466.36,357.43l-2.41,6.62c-1.54,4.21-2.98,7.47-3.04,11.2l-30.52.06c-.16-4.37,1.86-6.25,5.94-8.33,11.66-5.95,22.8-14.1,30.04-9.55Z"/>
  <path class="cls-5" d="M397.41,680.89l-1.32,12.24c-.76,7.05,2.26,14.79,0,21.43-1.15,3.36-8.62,3.37-9.93,1.11-1.08-1.86-3.36-4.91-3.4-6.56l-.91-38.49c-.29-12.23-2.36-23.93,7.45-24.72,2.86-.23,6.17.9,8.3,4.28l5,7.94c1.71,2.72,2.11,4.69,3.71,7.88l5.15,10.25c1.13,2.25,1.68,4.23,5.42,3.47l2.02-23.16,1.29-14.27c.1-1.16,1.8-3.55,2.56-4.26,1.19-1.11,5.69-1.93,7.9-.93,5.93,2.67,7.06,9.72,9.46,14.97l2.67,5.84,3.45,10.45,9.45,19.61,1.96,4.8c1.81,4.43,1.24,7.23-1.3,9.42-2.92,2.52-8.43,2.1-10.4-2.1l-14.14-30.27-5.61,32.22c-.56,3.22-2.14,5.65-3.78,6.3-3.25,1.28-7.06.7-9.06-2.51l-9.44-15.13c-1.27-2.04-2.04-3.49-4.48-5.15,1.22-2.26-.87-4.74-2.03-4.63Z"/>
  <path class="cls-5" d="M503.26,659.09c.59-2.68-.01-5.53-2.97-6.9-13.14-6.13-29.34-2.11-37.13,10.43-7.33,11.78-1.71,30.72,9.9,34.47l5.14,1.67c4.84,1.56,15.8-6.26,21.7-3.73,3.41,1.47,7.19.62,8.26-1.22,3.1-5.34-9.11-15.5-4.9-34.72ZM475.2,684.05c-.85-1.04-1.11-4.05-1.43-5.24-2.56-9.13,4.93-18.65,14.49-19.22,1.52,3.62.01,7.4,1.07,11.41l2.44,9.31c1.62,6.16-11.82,9.63-16.57,3.73Z"/>
  <path class="cls-5" d="M574.11,662.19c-5.25,4.99-8.61,14.61-3.16,19.47,9.44,8.42,18.38-4.76,27.64,2.65-.45,1.56-.18,4.27-.05,6.06-12.54,7.68-28.22,8.64-37.87-1.78-11.88-12.83-1.53-35.87,14.08-41.62,8.25-3.04,17.6,4.5,25.94,6.1l-.45,9.94c-10.95,2.39-13.14-4.21-18.65-4.55-3.23-.2-4.68,1.07-7.48,3.73Z"/>
  <path class="cls-5" d="M526.45,690l-1.27-19.41c-.22-3.36.19-7.92-1.47-10.69-6.85-2.44-12.28-2.38-13.6-5.05-.63-1.26-.93-3.68-.13-5.89,1.92-5.26,9.94-1.17,12.61-4.24,2.64-3.04-.77-8.79,2.01-11.05,1.46-1.18,4.29-2.93,7.25-2.4,4.48.8,7.22,6.95,4.85,13.12,8.85,2.66,16.95-.49,16.89,7.23-.02,2.8-2.11,6.32-6.82,5.57-15.89-2.56-4.53,18.34-8.37,33.77-.75,3-4.38,3.98-6.03,4.08-1.96.13-5.67-.99-5.93-5.03Z"/>
  <path class="cls-5" d="M600.22,738.88h-.01l-8.09-1.72,7.13,14.4c.31.08.62.16.91.25.01-4.47.09-10.13.08-12.93ZM600.21,757.26c-.01-.23-.01-.48-.03-.77-.07.05-.15.11-.23.19-.09.08-.18.16-.26.26-.05.04-.1.09-.15.15-.05.05-.11.11-.16.18-.09.11-.19.21-.28.33-.14.15-.28.31-.41.49-.05.06-.1.13-.15.19-.25.29-.5.6-.75.9-.11.13-.23.26-.34.39-.29.31-.58.62-.84.85-.09.09-.16.16-.24.21-.19.16-.38.29-.54.38-.08.04-.15.08-.23.1-.04.01-.09.03-.13.04-.21.05-.4.04-.57-.06,1.55.87,2.5.96,3.65,1.01.2.01.39.03.58.05.08.01.14.03.2.04.14.01.26.04.39.08.13.03.25.06.39.1l.5-5.22c-.14.11-.28.15-.4.11Z"/>
  <path class="cls-10" d="M600.66,756.58l-.05.57c-.14.11-.28.15-.4.11-.01-.23-.01-.48-.03-.77.01-.01.01-.03.03-.03.15.04.3.08.45.11Z"/>
  <path class="cls-10" d="M624.18,754.06c-1.03,3.91-4.59,7-10.08,6.27.7,2.46.13,4.74-1.08,6.26-.79.98-1.89,1.7-5.64,1.67-.69-.93-1.48-1.89-2.36-2.77-.01-.01-.03-.03-.04-.04-.26-.26-.54-.52-.83-.77-.15-.13-.3-.25-.44-.36-.15-.13-.3-.24-.45-.35-.15-.13-.31-.23-.47-.33-.15-.11-.3-.2-.47-.3-.13-.08-.26-.15-.39-.23-.01-.01-.03-.01-.04-.01-.24-.15-.48-.26-.72-.36-.18-.09-.35-.15-.53-.21-.18-.08-.36-.13-.54-.18l.5-5.22c.14-.1.29-.29.43-.52.47.06.93.04,1.41-.1.53-.15,1.07-.47,1.6-.98l1.71,1.89c.21.04,3.19-.18.92-2.36l-.97-.83c-.2-.18-.45-.35-.73-.52-.09-.06-.19-.13-.29-.18-.26-.15-.55-.3-.88-.44-.15-.08-.31-.15-.49-.21-.82-.34-1.76-.67-2.82-.98-.11-.04-.23-.08-.35-.1.01-4.47.09-10.13.08-12.93l16.69,4.68c5.38,1.51,8.52,5.69,7.27,10.51Z"/>
  <path class="cls-2" d="M597.34,732.29l-12.91-2.97c-11.65-2.69-23.09-3.75-35.23-3.36l-30.77,1.02c-4.98.18-9.29,2.12-14.23,2.98l-13.32,2.3-23.83,6.21-8.89,2.35c-1.01-.21-2.54-.99-2.89-1.94-.28-.75.05-2.11.36-3.21,3.29.25,6.55-1.16,10.68-2.46l8.59-2.73,9.49-3.28c5.56-1.92,12.03-.77,17.04-3.56,3.22-1.8,6.22-.84,9.63-1.14,26.92-2.45,52.55-3.17,78.85,1.23.93.15,4.73,5.19,7.43,8.55Z"/>
  <path class="cls-10" d="M628.3,741.91c-9.78-.04-17.89-6.6-28.03-8.94l-.21-.05.09-6.45,27.72,10.91c.69.28.67,2.34.44,4.53Z"/>
  <path class="cls-5" d="M600.14,726.47l-.09,6.45-2.72-.63c-2.7-3.36-6.5-8.4-7.43-8.55,1.37.23,9.05,2.26,10.23,2.73Z"/>
  <circle class="cls-5" cx="584.63" cy="625.54" r="7.59"/>
  <circle class="cls-15" cx="565.94" cy="628.74" r="3.94"/>
  <path class="cls-5" d="M652.31,673.03l-2.22,22.27c-.4,4.02-.19,7.44-3.39,8.96-2.32,1.03-8.3.09-8.91-3.36-3.43-18.99,6.28-35.97-1.38-35.09-9.16,1.04-15.72,8.16-17.09,16.65l-1.92,11.99c-.44,2.74-4.51,3.41-6.59,3.08-1.72-.26-5.12-1.06-5.34-4.8-.18-2.92,1.01-6.4,1.38-9.28l4.64-35.62,1.7-16.54c.53-5.08,6.59-4.66,9.18-3.48,3.31,1.52,5.08,4.2,4.51,9.43l-1.02,9.19c-.33,3.08-1.85,4.96-.54,9.28,8.33-3.12,15.03-1.26,21.85-.97,6.39,8.46,6.05,9.58,5.17,18.29Z"/>
  <path class="cls-5" d="M680.6,665.45c-8.86,1.29-16.25,5.03-20.24,13.75-2.64,5.74-4.42,13.96-1.31,20.41,5.17,10.72,17.62,14.64,28.34,11.34,1.97,2.54,3.36,4.46,5.62,5.54,12.96,6.17,1.58-23.43,13.08-34.53,5.77-5.57-8.82-18.97-25.5-16.52ZM688.1,695.38c-.59,2.43-.85,5.07-4.03,5.77-3.92.87-6.86.65-10.06-1.43-3.9-2.55-4.14-8.8-2.3-13.8,2.93-7.99,12.33-11.51,20.76-8.42l-4.37,17.89Z"/>
  <path class="cls-10" d="M646.74,742.47c-.34,2.09-4.83,4.11-4.24,4.56-.59-.45-.68-2.21-.35-4.3l4.59-.26Z"/>
  <path class="cls-10" d="M646.74,742.47l-1.61,6.61-2.63-2.05c-.59-.45,3.9-2.48,4.24-4.56Z"/>
  <path class="cls-4" d="M652.91,744.93c-1.55-1.52-5.51,4.16-7.78,4.16l1.61-6.61c2.28,0,4.63.93,6.17,2.45Z"/>
  <path class="cls-4" d="M653.37,749.94c-2.93,1.52-6.11-.24-8.25-.85,2.28,0,6.23-5.68,7.78-4.16.9.88,1.58,4.44.47,5.02Z"/>
  <path class="cls-10" d="M567.89,310.12c-9.41-6.34-19.76-12.13-30.51-14.77l-9.01-2.21c-26.13-3.75-51.43,4.25-73.15,19.48-9.64,6.76-17.38,11.54-15.11,15.52l13.49,4.03c1.94.58,2.4,1.12,3.24,3.12l2.92,7.3c2.01-.35,4.45-.97,6.61-.82l9.88.73c13.26-14.47,32.18-29.56,49.7-28.51.54-.24.85-.45,1.13-.72-.85-1.16-.14-2.97,1.66-2.92l7.32.26c-.03-.38.09-1.04.79-1.17,11.2-1.86,23.2-.75,32.62,3.81,1.55-1.87-.36-3.22-1.57-3.15ZM464.22,332.74c-2.07.83-3.43-2.05-2.39-3.31.78-.94,5.83-2.55,11.31-5.25-2.29,3.34-5.1,7.04-8.92,8.56Z"/>
  <path class="cls-10" d="M586,268.01l-4.66,5.28c-3.97,4.49-8.33,8.35-10.48,14.95-5.37,1.41-10.25-4.82-16.92-7.18l-6.69-2.37-13.8-3.84c-4.11-1.14-6.25-2.45-11.42-2.45-3.39-5.44,19.13-7.02,38.35-4.07,13.65,2.1,18.81-1.88,25.62-.33Z"/>
  <path class="cls-10" d="M556.52,229.34c-2.86-.71-8.64-4.69-9.06-7.88,3.01-11.3,9.55-21.75,18.35-25.57,6.23-.64,1.19,6.8-4.87,21.2-2.45,5.82-1.04,11.92-4.41,12.24Z"/>
  <circle class="cls-6" cx="428.42" cy="286.85" r="3.93"/>
  <circle class="cls-6" cx="555.03" cy="257.03" r="3.86"/>
  <circle class="cls-6" cx="502.89" cy="244.64" r="3.97"/>
  <path class="cls-10" d="M439.44,297.72c-.44.62-2,3.11-.8,6.65-2.99-2.37-5.1-4.48-5.83-10.27l6.63,3.62Z"/>
  <path class="cls-7" d="M511.13,272.41h10.9c.36.51.41,1.56.28,2.24h-15.68s.02-2.23.02-2.23h2.24s2.24-.01,2.24-.01Z"/>
  <path class="cls-4" d="M433.69,328.91l-.19,4.28-7.86.08c-2.32-.19-1.85-3.51.76-2.17,2.39-2.93,4.85-1.9,7.29-2.19Z"/>
  <path class="cls-4" d="M515.69,255.87c1.26,1.78,3.04,0,1.26-1.26l2.03,2.2c.92-.28,3.76-.58,4.94.42,1.64,1.39.86,3.96-1.6,4.3-3.38.46-4.92-1.06-4.53-3.65l-2.1-2Z"/>
  <path class="cls-4" d="M506.66,272.43l-.02,2.23c-2.9,0-6.08.77-9.01-.94.03-.06.59-.62,1.19-1.28h7.83Z"/>
  <path class="cls-6" d="M421.92,311.33c-11.02,1.43-12.43,7.55-16.31,5.03,4.07-4.12,9.17-7.62,16.31-5.03Z"/>
  <path class="cls-10" d="M575.9,211.75c-1.91,3.35-4.59,1.99-4.79.26.57-3.63,4.79-2.97,4.79-.26Z"/>
  <polygon class="cls-4" points="492.11 274.66 494.35 274.66 495.47 275.78 494.35 276.9 492.11 276.9 491 275.78 492.11 274.66"/>
  <path class="cls-4" d="M538.06,246.93c1.26,1.77,3.03,0,1.26-1.26,1.18,1.59,2.04,2.01,2.2,2.06,4.36-.73,2.78,4.12-.23,2.34l-3.24-3.14Z"/>
  <path class="cls-4" d="M532.19,243.43c-4.36.73-2.78-4.12.23-2.34l3.24,3.14c-1.26-1.77-3.03,0-1.26,1.26-1.18-1.59-2.04-2.01-2.2-2.06Z"/>
  <rect class="cls-4" x="511.46" y="250.38" width="1.58" height="1.58" transform="translate(-27.57 435.78) rotate(-45)"/>
  <path class="cls-10" d="M511.13,272.41h-2.24c-.4-2.68,2.64-2.68,2.24,0Z"/>
  <path class="cls-4" d="M674.83,313.4c-.53,1.93-2.93,1.63-2.6-.57-.69-2.35-.54-4.23,2.83-4.95,1.14-.24,1.97-2.27,4.05-.92,1.48.95,2.83,2.89-.02,3.5-1.94.42-3.01,1.29-4.27,2.94Z"/>
  <path class="cls-6" d="M644.84,282.13c2.72,2.19-.31,5.79-1.61,7.23-2.08,2.3-8.28,2.85-9.03-1.24-.93-5.1,7.16-8.79,10.64-5.99Z"/>
  <path class="cls-7" d="M604.79,322.81c-3.62-.68-7.02-1.83-10.92-1.1l-4.57-.14c-1.91-.03-2.37,1.51-2.23,2.38l-4.32.03c-.12-1.12-.78-2.35-.27-4.62l20.74-.42c1.79-.26,2.79,2.57,1.56,3.88Z"/>
  <path class="cls-7" d="M638.63,1004.05l-174.46.03c-.1-.31-.24-1.12.56-2.35h171.58c2.22-.37,2.72,1.61,2.32,2.32Z"/>
  <circle class="cls-7" cx="361.51" cy="358.76" r="3.78"/>
  <polygon class="cls-6" points="364.6 339.54 366.84 339.54 367.95 340.66 366.84 341.78 364.6 341.78 363.48 340.66 364.6 339.54"/>
  <path class="cls-7" d="M466.36,341.79l.29,4.27-9.41.2c-.1-.22-.34-3.17.22-3.27l2.28-.4c2.01-.35,4.45-.97,6.61-.81Z"/>
  <path class="cls-4" d="M587.7,361.7c-1.44-.65-3.62-.07-2.93-4.21-2.82-.03-1.97-3.04.24-2.42.99,2.21,2.77,3.85,2.69,6.63Z"/>
  <path class="cls-6" d="M616.36,347.59c1.27,1.78,3.04.01,1.27-1.26,1.17,1.59,1.72,1.97,2.06,2.17.89.51,1.72,2.05,1.06,3.35l2.15,2.01c-1.27-1.78-3.04-.01-1.28,1.26-1.16-1.59-1.72-1.98-2.06-2.17-.9-.51-1.74-2.07-1.06-3.35l-2.15-2.01Z"/>
  <polygon class="cls-4" points="534.62 328.35 536.86 328.35 537.98 329.47 536.86 330.59 534.62 330.59 533.5 329.47 534.62 328.35"/>
  <path class="cls-10" d="M578.19,339.55c-.4-2.1,1.81-3.01,2.9-1.23-.74.34-1.72,1.08-2.9,1.23Z"/>
  <path class="cls-4" d="M536.05,310.64c-.65,3.39-4.38,1.26-8.98,2.65-.85-1.16-.13-2.97,1.67-2.92l7.31.27Z"/>
  <path class="cls-6" d="M593.88,321.71c.48.91-.21,2.6-2,2.48l-4.79-.24c-.14-.87.32-2.41,2.23-2.38l4.57.14Z"/>
  <path class="cls-2" d="M598.6,684.32c-9.26-7.42-18.2,5.77-27.64-2.65-5.45-4.86-2.1-14.48,3.16-19.47,2.8-2.66,4.25-3.93,7.48-3.73,5.52.34,7.71,6.94,18.65,4.55l.65,16.72c.36,2.64-.28,4.05-2.3,4.59Z"/>
  <path class="cls-2" d="M491.78,680.31c1.62,6.16-11.82,9.63-16.57,3.74-.85-1.05-1.1-4.06-1.43-5.24-2.56-9.13,4.93-18.66,14.5-19.22,1.52,3.61.01,7.4,1.07,11.41l2.44,9.31Z"/>
  <path class="cls-2" d="M600.18,756.45v.04s.01-.03.03-.03t-.03-.01ZM600.18,756.45v.04s.01-.03.03-.03t-.03-.01ZM600.18,756.45v.04s.01-.03.03-.03t-.03-.01ZM600.18,756.45v.04s.01-.03.03-.03t-.03-.01ZM600.18,756.45v.04s.01-.03.03-.03t-.03-.01ZM600.63,500.7l-10.35-5.56c-18.8-10.11-33.09,26.61-52.88,19.5-8.79-3.15-14.3-9.06-19.16-16.75l-3.44-5.46-3.7-5.57-4.41-6.45c-2-2.93-4.32-6.17-7.44-8.21l-6.7-4.36c-8.74-5.69-24.32-.39-35.29,12.78l-9.1,10.94c-6.1,7.32-13.13,16.84-22.15,19.85-7.82,2.61-16.15,3.75-22.71-1.41-2.64-2.09-6.08-5.12-7.19-7.89l-3.95-9.97c-3.28-8.26-4.89-22.94-15.23-27.43-9.11-3.95-20.09-4.6-28.38.89-19.88,13.17-18.23,41.25-14.92,68.57l2,16.53,1.87,29.7,2.74,18.98,1.62,25.86,1.33,5.13c1.36,5.28,1.22,10.58,1.53,16.01l1.63,27.97,2.61,17.35,1.84,27.44,2.29,17.92,2.01,27.5,2.16,20.14,2.38,26.86,1.96,20.14,2.41,35.84,2.55,19.36c1.34,10.17,5.3,17.62,6.32,25.15.88-.14,1.78-.13,2.69.31,1.46.72.67,1.67.74,2.36,2.38-.29,4.32,1.07,7.19,2.46,63.19,30.87,138.41,42.89,210.4,33.67h.01l.04-.23,3.54-20.7,1.09-69.14,1.08-94.03.41-4.39.5-5.22c-.14.11-.28.15-.4.11-.01-.23-.01-.48-.03-.77-.07.05-.15.11-.23.19-.09.08-.18.16-.26.26-.05.04-.1.09-.15.15-.05.05-.11.11-.16.18-.09.11-.19.21-.28.33-.14.15-.28.31-.41.49-.05.06-.1.13-.15.19-.25.29-.5.6-.75.9-.11.13-.23.26-.34.39-.29.31-.58.62-.84.85-.08.08-.16.15-.24.21-.19.16-.38.29-.54.38-.08.04-.15.08-.23.1-.04.01-.09.03-.13.04-.21.05-.4.04-.57-.06-10.97-6.21-22.89-2.88-28.46-7.77l29.01,1.18c.2.01.41.05.63.11.11.03.23.06.34.11.97.36,2.06,1.08,3.2,1.53.18.08.38.14.55.19-.03-1.16-.04-2.8-.04-4.64.01-4.47.09-10.13.08-12.93-.03-2.95,0-5.3.05-5.91l-.21-.05.09-6.45.49-33.56c.02-1.71-.87-2.64-2.09-2.54-12.54,7.68-28.22,8.64-37.87-1.78-11.88-12.83-1.53-35.87,14.08-41.62,8.25-3.04,17.6,4.5,25.94,6.1l.93-25.33.83-123.93c-.72-.82-1.73-2.3-1.82-3.1ZM509.98,648.96c1.92-5.27,9.94-1.17,12.61-4.25,2.64-3.04-.77-8.79,2.01-11.05,1.46-1.18,4.29-2.93,7.24-2.4,4.49.8,7.23,6.96,4.85,13.12,8.85,2.66,16.96-.49,16.91,7.23-.03,2.8-2.11,6.32-6.83,5.57-15.89-2.55-4.53,18.34-8.37,33.77-.74,2.99-4.37,3.97-6.02,4.09-1.96.13-5.67-.99-5.93-5.04l-1.27-19.41c-.23-3.36.19-7.92-1.47-10.7-6.85-2.44-12.28-2.38-13.6-5.04-.63-1.27-.93-3.68-.13-5.89ZM463.16,662.62c7.79-12.54,23.99-16.57,37.13-10.43,2.95,1.37,3.56,4.22,2.97,6.9-4.21,19.22,8.01,29.37,4.9,34.72-1.07,1.84-4.85,2.69-8.26,1.22-5.89-2.53-16.86,5.29-21.7,3.73l-5.14-1.67c-11.61-3.75-17.23-22.69-9.9-34.47ZM445.94,700.06l-14.14-30.27-5.61,32.22c-.57,3.22-2.14,5.66-3.78,6.3-3.24,1.28-7.05.7-9.05-2.51l-9.44-15.12c-1.28-2.05-2.05-3.49-4.49-5.15,1.22-2.26-.87-4.75-2.02-4.63l-1.32,12.23c-.75,7.06,2.26,14.79,0,21.43-1.14,3.36-8.62,3.37-9.93,1.11-1.08-1.85-3.37-4.9-3.41-6.56l-.9-38.49c-.29-12.23-2.36-23.93,7.44-24.72,2.87-.23,6.17.9,8.31,4.29l4.99,7.93c1.72,2.73,2.11,4.69,3.72,7.88l5.15,10.26c1.13,2.25,1.67,4.24,5.42,3.47l2.01-23.17,1.29-14.27c.1-1.16,1.8-3.56,2.56-4.26,1.19-1.12,5.68-1.94,7.91-.93,5.92,2.66,7.05,9.72,9.45,14.96l2.68,5.84,3.44,10.45,9.45,19.61,1.96,4.8c1.81,4.42,1.24,7.23-1.31,9.41-2.92,2.53-8.43,2.11-10.39-2.1ZM595.52,750.64c-.33-.08-.67-.15-1.01-.23-.67-.14-1.36-.29-2.05-.44-.35-.06-.7-.14-1.06-.21-1.08-.23-2.19-.44-3.31-.67-1.8-.35-3.62-.7-5.39-1.06l-6.28-1.26-18.41.11c-3.85.01-7.42,3.41-11.98-.94,3.18-2.07,6.07-1.85,10.09-1.63,1.92.1,2.79-2.29,2.35-3.9-3.02-.6-7.54-1.28-10.82.33-3.68,1.8-7.06.91-14.68,3.66-5.37,1.94-5.53-5.93-.39-4.54,3.38.9,4.59-.68,6.3-1.34,10.29-4.06,40.02-4.17,53.23-1.37l7.13,14.4c-1.16-.31-2.4-.62-3.72-.92ZM589.91,723.75c.93.15,4.73,5.19,7.43,8.55l-12.91-2.97c-11.65-2.69-23.09-3.75-35.23-3.36l-30.77,1.02c-4.98.18-9.29,2.12-14.23,2.98l-13.32,2.3-23.83,6.21-8.89,2.35c-1.27.34-1.77,2.65-4.16,1.27-1.12-.65-1.5-2.24-1.22-4.42.26-2.22,1.87-2.44,2.85-1.99,3.29.25,6.55-1.16,10.68-2.46l8.59-2.73,9.49-3.28c5.56-1.92,12.03-.77,17.04-3.56,3.22-1.8,6.22-.84,9.63-1.14,26.92-2.45,52.55-3.17,78.85,1.23ZM565.94,632.68c-2.17,0-3.93-1.76-3.93-3.93s1.76-3.93,3.93-3.93,3.93,1.76,3.93,3.93-1.76,3.93-3.93,3.93ZM584.63,633.13c-4.2,0-7.59-3.39-7.59-7.59s3.39-7.59,7.59-7.59,7.59,3.41,7.59,7.59-3.41,7.59-7.59,7.59ZM600.21,756.46s-.01,0-.03-.01v.04s.01-.03.03-.03ZM600.18,756.45v.04s.01-.03.03-.03t-.03-.01ZM600.18,756.45v.04s.01-.03.03-.03t-.03-.01ZM600.18,756.45v.04s.01-.03.03-.03t-.03-.01ZM600.18,756.45v.04s.01-.03.03-.03t-.03-.01ZM600.18,756.45v.04s.01-.03.03-.03t-.03-.01Z"/>
  <path class="cls-10" d="M601.04,756.63c-.14.23-.29.41-.43.52l.05-.57h.01c.13.03.24.04.36.05Z"/>
  <path class="cls-10" d="M605.75,757.43l.92-2.36c2.28,2.19-.7,2.4-.92,2.36Z"/>
  <polygon class="cls-10" points="606.67 755.07 605.75 757.43 604.04 755.55 605.7 754.24 606.67 755.07"/>
  <path class="cls-10" d="M605.7,754.24l-1.66,1.31c-.53.52-1.07.83-1.6.98-.48.14-.94.16-1.41.1.83-1.27,1.67-3.98,2.28-3.73.18.06.34.14.49.21.33.14.62.29.88.44.1.05.2.11.29.18.28.16.53.34.73.52Z"/>
  <path class="cls-2" d="M458.16,740.83c-1.27.34-1.77,2.65-4.16,1.27-1.12-.65-1.5-2.24-1.22-4.42.26-2.22,1.87-2.44,2.85-1.99-.31,1.09-.64,2.45-.36,3.21.35.94,1.89,1.72,2.89,1.94Z"/>
  <path class="cls-10" d="M603.31,752.89c-.6-.25-1.45,2.46-2.28,3.73-.13-.01-.24-.03-.36-.05h-.01c-.15-.04-.3-.08-.45-.11t-.03-.01c-.03-1.16-.04-2.8-.04-4.64.13.03.24.06.35.1,1.06.31,2,.64,2.82.98Z"/>
  <path class="cls-2" d="M600.21,756.46s-.01.01-.03.03c-.07.05-.15.11-.23.19-.09.08-.18.16-.26.26-.05.04-.1.09-.15.15-.05.05-.11.11-.16.18-.09.11-.19.21-.28.33-.14.15-.28.31-.41.49-.05.06-.1.13-.15.19-.25.29-.5.6-.75.9-.11.13-.23.26-.34.39-.29.31-.58.62-.84.85-.08.08-.16.15-.24.21-.19.16-.38.29-.54.38-.08.04-.15.08-.23.1-.04.01-.09.03-.13.04-.21.05-.4.04-.57-.06-10.97-6.21-22.89-2.88-28.46-7.77l29.01,1.18c.2.01.41.05.63.11.11.03.23.06.34.11.97.36,2.06,1.08,3.2,1.53.18.08.38.14.55.19t.03.01Z"/>
  <path class="cls-2" d="M576.42,746.79l-18.41.11c-3.85.01-7.42,3.41-11.98-.94,3.18-2.07,6.07-1.85,10.09-1.63,1.92.1,2.79-2.29,2.35-3.9,8.52-1.38,13.85-.85,17.95,6.36Z"/>
  <path class="cls-2" d="M599.24,751.56c-1.16-.31-2.4-.62-3.72-.92-.33-.08-.67-.15-1.01-.23-.67-.15-1.35-.3-2.05-.44-.35-.06-.7-.14-1.06-.21-1.08-.23-2.19-.44-3.31-.67-1.8-.35-3.62-.7-5.39-1.06l-6.28-1.26c-4.1-7.21-9.43-7.74-17.95-6.36-3.02-.6-7.54-1.28-10.82.33-3.68,1.8-7.06.91-14.68,3.66-5.37,1.94-5.53-5.93-.39-4.54,3.38.9,4.59-.68,6.3-1.34,10.29-4.06,40.02-4.17,53.23-1.37l7.13,14.4Z"/>
  <path class="cls-4" d="M684.07,701.14c-3.92.87-6.87.66-10.05-1.43-3.89-2.55-4.13-8.8-2.3-13.8,2.92-8,12.33-11.52,20.77-8.42l-4.37,17.89c-.59,2.42-.86,5.07-4.04,5.76Z"/>
  <path class="cls-6" d="M464.22,332.74c-2.07.82-3.43-2.05-2.39-3.3.78-.94,5.83-2.56,11.31-5.26-2.29,3.35-5.1,7.05-8.93,8.57Z"/>
</svg>