<?xml version="1.0" encoding="UTF-8"?>
<svg id="Capa_1" data-name="Capa 1" xmlns="http://www.w3.org/2000/svg" viewBox="0 0 421 211">
  <defs>
    <style>
      .cls-1 {
        fill: #fefefe;
      }

      .cls-2 {
        fill: #414141;
      }

      .cls-3 {
        fill: #8b9b74;
      }

      .cls-4 {
        fill: #020202;
      }

      .cls-5 {
        fill: #030303;
      }

      .cls-6 {
        fill: #040404;
      }

      .cls-7 {
        fill: #010101;
      }

      .cls-8 {
        fill: #0c0c0c;
      }
    </style>
  </defs>
  <path class="cls-1" d="M0,118.44V0h421v211h-241.43l3.37-1.66c66.56-8.9,144.52-26.65,196.27-71.64,35.04-30.46,56.16-84.2,17.81-120.46-18.49-17.48-37.82-15.52-60.6-10.25-30.73-2.01-62.15-2.4-91.61,8.25l-49.06,19.58c-12.43,4.02-25.63,5.19-38.59,3.57l-44.28-7.04C61.24,22.96,13.26,67.4,2.7,115.71l-2.7,2.73Z"/>
  <path class="cls-7" d="M179.57,211h-8.98c-9.43-.86-19.48-.81-28.93,0h-8.98c-41.29-1.67-86.66-7.22-116.12-40.26C6.54,159.5.92,147.31,0,132.37v-13.93c3.23-13.97,7.18-26.63,15.2-38.55,12.05-17.91,27.72-32.8,47.02-42.75,16.44-8.48,34.51-10.43,52.64-7.51l38.83,6.25c16.79,2.7,32.82.9,48.42-5.51l33.27-13.69c31.56-12.98,62.05-14.43,95.75-11.73,7.91.63,14.3-1.43,21.71-3.04,15.85-3.46,32.21,2.26,44.38,12.84,15.91,13.83,23.14,33.92,21.8,54.99-.99,15.39-6.3,29.45-14.59,42.35-16.53,25.74-42.73,42.93-69.68,56.76-48.85,25.06-101.4,37.04-155.17,42.16Z"/>
  <path class="cls-1" d="M132.68,211H0v-78.63c.91.4,1.03,1.47,1.25,2.74,2.54,14.59,9.65,27.21,20.04,37.79,26.43,26.9,64.84,33.09,101.18,36.42.16.02,14.23,1.22,10.22,1.68Z"/>
  <path class="cls-2" d="M170.59,211h-28.93c-.08-.77.92-1.02,1.95-1.02h25.03c1.04,0,2.03.25,1.95,1.02Z"/>
  <path class="cls-3" d="M29.78,166.99c-19.5-18.24-24.24-44.41-13.24-68.2,15.09-32.65,53.15-65.88,92.84-59.59l35.28,5.59c33.86,5.37,49.81.82,79.98-12.84,24.97-11.3,50.94-18.23,78.61-17.96,19.05.18,36.98-.73,55.86-2.8,10.92-1.2,21.43,3.2,29.66,9.99,14.72,12.15,21.93,30.47,20.04,49.48-4.23,42.68-43.29,71.48-78.98,89.19-64.29,31.9-135.64,45.45-207.25,39.55-18.66-1.54-36.21-4.5-53.8-10.11-14.67-4.68-27.65-11.69-39-22.3Z"/>
  <path class="cls-4" d="M88.03,108.99c3.47,10.9-1.4,24.73-12.21,28.99-8.91,3.52-18.43,1.03-28.04-1.04l6.86-42.6c9.71-.1,29.94,3.84,33.39,14.65Z"/>
  <path class="cls-4" d="M354.5,90.65c4.4-1.26,15.35-7.36,17.42-4.38.54.78.89,3.01-.46,3.73-3.66,1.94-17.78,9.24-20.35,7.99-.93-.45-1.96-1.69-2.3-3.1-1.4-5.86-9.72-41.62-6.38-43.92,1.83-1.26,21.27-14.13,20.02-6.6-.15.89.07,2.95-1.21,3.6l-13.34,6.74,2.89,16.15,10.59-3.16c1.27-.38,2.59-.1,3.14.94.43.82.4,2.89-1.07,3.46l-11.57,4.48c.57,4.78,1.22,9.19,2.64,14.06Z"/>
  <path class="cls-5" d="M188.08,142.51c-7.01-.58-1.17-17.31-1.28-22.28-2.64-.57-3.98,8.19-9.72,7.87-1.93-.1-4.52-1.13-5.68-3.49-2.98-6.1-.81-14.44,5.23-17.82,2.55-1.43,5.08,0,6.52,1.54,3.9,4.21,1.42,7.39,3.12,8.4,3.27,1.94,3.95-20.86,11.68-20.48,5.62.28.31,15.26-4.2,19.39,10.72,1.94,9.64-9.44,13.04-6.79,2.55,1.98-3.02,10.96-12.71,10.72,3.06,6.69,2.11,23.6-6,22.93Z"/>
  <path class="cls-5" d="M121.17,133.43c-8.58-.07-16.27.4-24.31.91-2.64.17-2.69,7.04-7.61,6.06-1.91-.38-2.39-2.86-1.27-4.8,5.76-10.01,11.19-19.78,17.43-29.46,1.01-1.57,2.14-3.03,3.9-2.92,1.39.09,2.82,1.14,3.81,2.78,6.22,10.33,11.61,20.76,17.26,31.48.68,1.3-.64,2.38-1.4,2.66-3.59,1.32-5.09-4.4-7.8-6.72Z"/>
  <path class="cls-5" d="M147.11,142.52c-7.24,1.61-4.29-11.43-6.27-16.28-7.21-6.33-14.76-11.64-21.31-18.32-1.4-1.43-.79-4.15.12-4.98,1.52-1.4,3.21-.4,4.75.88,6.63,5.54,12.62,10.98,19.19,17.19,3.45-3.99,17.16-24.62,20.3-22.06.94.77,1.31,2.61.31,3.97l-15.78,21.31,1.25,14.06c.2,2.2-.94,3.87-2.56,4.23Z"/>
  <path class="cls-5" d="M330.02,98.76c3.63-.32,13.56-6.06,14.54-1.75.21.9-.38,2.48-1.72,3.06l-13.25,5.74c-.9.39-1.98.45-2.66.29-.74-.18-1.69-1.3-1.91-2.54l-6.5-36.07c-.44-2.45.99-4.75,3.03-5.66,3.46-1.56,13.55-6.54,15.31-4.24.79,1.04.72,3.61-.84,4.27l-11.22,4.75c.46,5.56,1.07,10.63,2.35,15.89,2.73-1.01,8.35-3.63,9.29-.41.33,1.11-.06,2.75-1.37,3.32l-6.96,3.06c.32,3.58.72,6.67,1.91,10.28Z"/>
  <path class="cls-5" d="M269.95,90.29c5.89,8.75,5.78,29.03-6.43,30.54-3.85.48-7.93-1.56-10.26-5.28-6.52-10.42-4.53-30.16,6.72-30.65,3.85-.17,7.57,1.83,9.97,5.39Z"/>
  <path class="cls-5" d="M238.31,123.77c4.12-2.32,2.86-10.21,5.68-11.36,6.27-2.54,2.79,11.04-1.65,14.94s-11,2.04-14.79-2.23c-7.39-8.33-8.36-21.4-2.19-30.67,2.48-3.73,6.65-5.43,10.69-5.4,7.09.06,12.05,7.72,9.3,9.94-3.91,3.16-4.47-5.46-10.37-4.75-9.53,1.16-10.39,17.61-3.96,26.72,1.45,2.05,4.78,4.21,7.29,2.8Z"/>
  <path class="cls-5" d="M311.27,90.91l-6.72,3.18c-.76,4.25,4.52,18.24.26,19.64-1.67.55-3.72-.4-4.21-2.65-2.5-11.5-4.67-22.64-6.4-34.44-.21-1.41.03-4.11,1.46-4.75,5.25-2.32,10.76-4.48,16.69-5.08,1.3-.13,1.33,2.57.86,3.16-2.51,3.18-8.3,3.38-12.66,5.86.31,4.25,1.21,8.07,2.32,11.92l6.56-2c1.65-.5,3.02.24,3.36,1.47s.25,2.85-1.53,3.69Z"/>
  <path class="cls-6" d="M292.61,92.56c2.77,4.02-8.41,6.09-11,7.19-.03,3.94,4.4,18.1,1.22,19.74-1.45.74-3.22-.29-3.57-2.03l-6.83-33.85c-.45-2.23,1.02-4.29,2.86-5.06,3.64-1.52,14.23-5.99,15.59-2.03,1.73,5.03-10.26,4.92-12.09,7.55-1.57,2.75.81,7.2,1.64,10.15l8.92-2.62c1.29-.38,2.58-.02,3.26.97Z"/>
  <path class="cls-8" d="M182.53,131.96c3.79,3.78-5.78.16-13.89,3.62-1.18.5-2.15.36-2.57-.16-3.09-3.79,12.98-6.92,16.46-3.45Z"/>
  <path class="cls-3" d="M83.59,118.92c-1.13,5.4-4.41,10.85-9.03,13.18-6.46,3.26-13.89,2.23-20.5.34l5.26-32.2c9.07.5,27.15,4.87,24.27,18.68Z"/>
  <path class="cls-3" d="M177.41,110.28c-1.35,10.83,7.59,8.09,1.66,13.46-.91.82-3.54,1.27-4.48-.39-2.49-4.36-.95-9.78,2.82-13.07Z"/>
  <path class="cls-3" d="M188.75,139.52c-1.95-6.26.37-11.94,1.9-17.86,2.99,5.47,2.75,12.51-1.9,17.86Z"/>
  <path class="cls-3" d="M118.5,128.7c-6.5.86-12.39.85-19.33.78l10.07-19.09c3.02,6.73,7.06,11.62,9.25,18.31Z"/>
  <path class="cls-3" d="M260.87,89.98c8.26-.05,9.83,23.53,2.8,25.53-1.64.47-3.73.11-4.85-1.5-7.13-10.24-3.22-23.99,2.05-24.03Z"/>
</svg>