<?xml version="1.0" encoding="UTF-8"?>
<svg id="Capa_1" data-name="Capa 1" xmlns="http://www.w3.org/2000/svg" width="1080" height="1080" viewBox="0 0 1080 1080">
  <defs>
    <style>
      .cls-1 {
        fill: #fefefe;
      }

      .cls-2 {
        fill: #cecece;
      }

      .cls-3 {
        fill: #b87333;
      }

      .cls-4 {
        fill: #fff5ee;
      }
    </style>
  </defs>
  <path class="cls-1" d="M957.79,457.86c-8.31-42.03-37.61-89.21-65.12-123.09l-9.81-12.09-12.12-14.52c-14.78-17.73-30.14-33.92-48.02-48.46l-11.98-9.74c-73.41-59.72-168.13-84.13-263.36-84.89-23.96-.19-46.63-.94-70.13,2.54l-42.77,6.34-24.02,4.88-20.94,5.52c-48.99,12.89-95.24,33.67-135.02,65.04l-16.4,12.92c-7.28,5.74-14.17,11.45-20.59,17.84l-13.36,13.31-20.7,22.8-20.48,25.47c-18.13,22.54-38.02,58.51-46.29,86.97-12.41,42.69-7.26,89.01,25.9,117.51,3.42,2.94,7.71,4.79,10.36,8.93l.23,78.99c.15,52.15,21.93,100.23,54.63,139.17l36.04,36.14,8.45,6.15,12.13,9.61,26.46,17.11,31.28,16.96,33.86,14.47,39.38,13.09,21.52,5.55,20.05,3.96c21.17,4.19,42.18,7.49,65.45,8.1l30.33.8,36.27-.89c27.34-.68,60.75-7,87.69-13.36l13.72-3.23,36.38-11.75c24.6-7.94,47.61-18.57,69.19-32.34l23.84-15.21,10.8-8.02,12.13-9.7,28.92-26.64,15.48-18.2c28.48-33.45,48.43-85.84,48.63-131.75l.36-79.11c37.11-19.43,49.17-56.73,41.63-97.18ZM872.95,651.51v11.47l-1.82.87c.29,2.36-.45,3.85-1.07,5.95l-4.91,16.81c-5.58,19.06-15.4,35.81-28.2,51.4l-11.95,14.55-19.36,19.48c-14.5,14.58-30.9,25.29-48.8,35.64-34.63,20.02-71.08,34.79-110.46,43.83l-19.44,4.47-21.12,3.56c-22.37,3.76-44.62,5.89-67.4,4.94l-48.34-2.01-22.28-2.27-28.99-4.8-19.34-4.67-26.05-7.39-12.73-3.86-31.29-12.43-30.45-15.36c-25.27-12.74-47.74-30.13-67.09-51.08l-15.05-16.3-5.27-6.96c-19.44-25.71-29.71-50.72-35.53-80.89-.74-3.8-2.51-7.09-.67-12.95,1.47,2.36,3.17,6.98,4.27,10.58,5.62,18.46,29.41,41.11,48.31,47.31l12.82,4.22c14.13,4.64,29.9,3.8,44.27.06,14.48-3.77,26.58-10.8,39.49-18.2l21.62-12.41c20.81-11.94,47.02-11.16,52.14,8.2l8.1,30.59,8.23,33.08c3.97,15.96,11.19,30.64,21.54,43.48,25.07,31.09,68.55,40.87,107.24,31.23,47.85-11.93,67.17-47.28,77.21-94l6.45-30.03,5.49-18.22c3.86-12.79,25.04-15.96,44.6-6.83l9.85,4.59,35.57,20.36c18.7,10.7,48.32,14.33,66.83,7.76l15.87-5.63c19.86-7.04,34.92-25.84,42.87-43.95,1.61-3.67,2.98-7.81,2.54-10.08.54-.67,1-1.21,1.41-1.77.87-1.19,1.45-2.47,1.87-5.27,3.21,5.01,2.51,12.76-.98,12.93ZM895.92,519.35l-15.33,6.64c-12.72,5.5-22.53,15.34-27.16,28.06l-5.75,15.76-4.24,20.26-5.44,28c-5.06,26.11-18.86,44.96-45.27,49.13-16.45,2.6-30.86-5-45.17-13.35l-26.16-15.29c-30.44-17.79-80.16-17.28-99.32,12.6-1.91,2.96-4.29,5.65-5.52,8.96l-7.19,19.46-5.78,25.26-4.28,20.19-5.41,18.52c-3.88,13.24-12.06,25.79-25.27,32.47-22.05,11.14-48.99,11.25-69.78-1.49-11.61-7.11-18.87-18.83-22.39-30.93l-6.58-22.59-4.45-19.25c-6.52-28.16-13.26-56.19-39.72-68.9-18.51-8.89-51.06-7.99-70.82,2.28l-15.78,8.19-30.86,17.6c-14.97,8.54-31.88,9.08-47.89,1.41-12.81-6.13-24.27-18.63-27.84-34.91l-5.57-25.34-4.87-24.08c-2.36-11.71-7.18-22.35-14.12-32.25-8.75-12.49-19.14-18.87-31.85-25.78-27.24-14.79-26.79-47.05-16.45-77.43,3.02-8.86,6.05-17.41,11.07-25.71l19.92-33.01,22.69-30.41,16.55-19.55c5.29-6.24,10.44-11.86,16.07-17.99,47.68-51.82,125.1-89.02,193.34-100.77l25.18-4.34c41.87-7.22,101.32-6.1,144.73-.4,65.88,8.63,132.39,30.2,182.46,73.02,3.93,3.36,8.25,6.41,11.63,10.16l22.88,25.39c24.87,27.6,47.44,85.83,33.32,124.99-4.74,13.14-12.32,24.29-23.23,32.58l-16.31,12.4-11.98,7.61c-3.95,2.51-7.09,4.24-11.06,6.16l-8,3.88c-9.77,4.73-18.63,9.02-28.62,12.4l-24.91,8.42c-18.11,6.12-35.93,10.51-54.62,13.52l-32.94,5.3-43.58,4.69c-40.2,4.33-80.36,4.2-120.49-.18l-28.26-3.09-39.3-6.79-25.33-6.32c-22.17-5.53-57.43-22.76-73-37.88l-20.84-20.25c-26.64-25.89-35.13-73.61-12.52-109.73,4.73-7.55,9.18-14.59,15.62-20.6l21.19-19.73c30-23.11,63.71-39.49,101.03-46.12l35.65-6.34c29.38-5.22,58.9-3.35,88.33-.47l42.53,7.52c27.46,4.85,64,21.22,87.34,38.24,19.7,14.36,34.98,38.54,28.84,59.8-7.15,24.78-27.25,42.02-50.63,53.73l-7.94,3.97c-8.24,4.12-16.2,6.83-25.05,8.44l-28.4,5.17-28.87,1.8-28.9-1.84-28.41-5.15c-18.44-3.35-47.28-17.29-58.91-32.93-5.93-7.98-7.77-17.99-1.99-26.8,21.26-32.39,74.66-40.79,114.04-32.15l4.88,2.19c10.96,4.91,27.12,10.73,25.48,22.79-.93,6.92-9.85,10.37-15.46,10.72l-15.52.95c-18.48,1.14-20.27-21.51-39.05-20.59-11.58.57-21.88,13.67-17.89,24.99,11.23,31.88,51.38,43.31,86.7,33.35,27.76-7.84,47-31.64,41.81-58.31-6.63-34.1-38.36-51.86-72.32-57.89-19.53-3.47-39.59-4.31-58.91.19l-21.58,5.01-14.4,4.91-20.69,10.48c-2.13,1.08-4.3,2.48-5.9,3.94l-16.34,14.95c-21.77,19.93-26.26,58.08-6.21,85.34,11.66,15.87,27.44,26.47,44.87,34.82,76.02,36.42,190.14,29.44,252.7-29.24,15.31-14.36,27.26-31.15,32.18-51.68,7.11-29.71-1.17-58.84-20.72-81.92-4.91-5.79-9.57-11.57-15.54-15.68-5.84-4.02-10.61-9.52-17.97-13.57l-29.56-16.26c-25.39-13.96-52.68-21.47-81.08-25.48l-27.38-3.86c-14.72-2.08-28.59-3.09-43.49-2.8l-28.97.56-49.77,5.93c-7.4.88-14.7,2.68-21.83,4.7l-24.31,6.88c-14.06,3.98-30.98,11.2-44.05,18.27l-17.43,9.42-18.92,12.56-12.17,9.66c-15.84,12.57-38.32,37.3-45.27,53.66l-10.02,23.56c-6.19,14.57-7.57,44.33-3.26,60.93l4.09,15.75c3.95,15.17,11.82,28.68,21.63,40.92l8.58,10.71,19.43,19.24c3.7,3.67,7.67,6.91,11.9,9.72l29.14,19.39c3.57,2.37,8.21,4.56,12.3,6.43,44.92,20.59,99.18,29.66,148.79,33.13,73.52,5.13,147.55.96,218.72-14.84l20.22-4.49,27.5-8.23,23.48-8.31c27.09-9.58,51.97-23,74.95-40.7l6.94-5.34c20.12-15.5,40.47-46.5,45.97-72.27.53-2.49,3.81-1.82,2.88.72,13.48,31.94,16.73,67.9-13.19,80.85Z"/>
  <path d="M957.79,457.86c-8.31-42.03-37.61-89.21-65.12-123.09l-9.81-12.09-12.12-14.52c-14.78-17.73-30.14-33.92-48.02-48.46l-11.98-9.74c-73.41-59.72-168.13-84.13-263.36-84.89-23.96-.19-46.63-.94-70.13,2.54l-42.77,6.34-24.02,4.88-20.94,5.52c-48.99,12.89-95.24,33.67-135.02,65.04l-16.4,12.92c-7.28,5.74-14.17,11.45-20.59,17.84l-13.36,13.31-20.7,22.8-20.48,25.47c-18.13,22.54-38.02,58.51-46.29,86.97-12.41,42.69-7.26,89.01,25.9,117.51,3.42,2.94,7.71,4.79,10.36,8.93l.23,78.99c.15,52.15,21.93,100.23,54.63,139.17l36.04,36.14,8.45,6.15,12.13,9.61,26.46,17.11,31.28,16.96,33.86,14.47,39.38,13.09,21.52,5.55,20.05,3.96c21.17,4.19,42.18,7.49,65.45,8.1l30.33.8,36.27-.89c27.34-.68,60.75-7,87.69-13.36l13.72-3.23,36.38-11.75c24.6-7.94,47.61-18.57,69.19-32.34l23.84-15.21,10.8-8.02,12.13-9.7,28.92-26.64,15.48-18.2c28.48-33.45,48.43-85.84,48.63-131.75l.36-79.11c37.11-19.43,49.17-56.73,41.63-97.18ZM872.95,651.51v11.47l-1.82.87c.29,2.36-.45,3.85-1.07,5.95l-4.91,16.81c-5.58,19.06-15.4,35.81-28.2,51.4l-11.95,14.55-19.36,19.48c-14.5,14.58-30.9,25.29-48.8,35.64-34.63,20.02-71.08,34.79-110.46,43.83l-19.44,4.47-21.12,3.56c-22.37,3.76-44.62,5.89-67.4,4.94l-48.34-2.01-22.28-2.27-28.99-4.8-19.34-4.67-26.05-7.39-12.73-3.86-31.29-12.43-30.45-15.36c-25.27-12.74-47.74-30.13-67.09-51.08l-15.05-16.3-5.27-6.96c-19.44-25.71-29.71-50.72-35.53-80.89-.74-3.8-2.51-7.09-.67-12.95,1.47,2.36,3.17,6.98,4.27,10.58,5.62,18.46,29.41,41.11,48.31,47.31l12.82,4.22c14.13,4.64,29.9,3.8,44.27.06,14.48-3.77,26.58-10.8,39.49-18.2l21.62-12.41c20.81-11.94,47.02-11.16,52.14,8.2l8.1,30.59,8.23,33.08c3.97,15.96,11.19,30.64,21.54,43.48,25.07,31.09,68.55,40.87,107.24,31.23,47.85-11.93,67.17-47.28,77.21-94l6.45-30.03,5.49-18.22c3.86-12.79,25.04-15.96,44.6-6.83l9.85,4.59,35.57,20.36c18.7,10.7,48.32,14.33,66.83,7.76l15.87-5.63c19.86-7.04,34.92-25.84,42.87-43.95,1.61-3.67,2.98-7.81,2.54-10.08.54-.67,1-1.21,1.41-1.77.87-1.19,1.45-2.47,1.87-5.27,3.21,5.01,2.51,12.76-.98,12.93ZM895.92,519.35l-15.33,6.64c-12.72,5.5-22.53,15.34-27.16,28.06l-5.75,15.76-4.24,20.26-5.44,28c-5.06,26.11-18.86,44.96-45.27,49.13-16.45,2.6-30.86-5-45.17-13.35l-26.16-15.29c-30.44-17.79-80.16-17.28-99.32,12.6-1.91,2.96-4.29,5.65-5.52,8.96l-7.19,19.46-5.78,25.26-4.28,20.19-5.41,18.52c-3.88,13.24-12.06,25.79-25.27,32.47-22.05,11.14-48.99,11.25-69.78-1.49-11.61-7.11-18.87-18.83-22.39-30.93l-6.58-22.59-4.45-19.25c-6.52-28.16-13.26-56.19-39.72-68.9-18.51-8.89-51.06-7.99-70.82,2.28l-15.78,8.19-30.86,17.6c-14.97,8.54-31.88,9.08-47.89,1.41-12.81-6.13-24.27-18.63-27.84-34.91l-5.57-25.34-4.87-24.08c-2.36-11.71-7.18-22.35-14.12-32.25-8.75-12.49-19.14-18.87-31.85-25.78-27.24-14.79-26.79-47.05-16.45-77.43,3.02-8.86,6.05-17.41,11.07-25.71l19.92-33.01,22.69-30.41,16.55-19.55c5.29-6.24,10.44-11.86,16.07-17.99,47.68-51.82,125.1-89.02,193.34-100.77l25.18-4.34c41.87-7.22,101.32-6.1,144.73-.4,65.88,8.63,132.39,30.2,182.46,73.02,3.93,3.36,8.25,6.41,11.63,10.16l22.88,25.39c24.87,27.6,47.44,85.83,33.32,124.99-4.74,13.14-12.32,24.29-23.23,32.58l-16.31,12.4-11.98,7.61c-3.95,2.51-7.09,4.24-11.06,6.16l-8,3.88c-9.77,4.73-18.63,9.02-28.62,12.4l-24.91,8.42c-18.11,6.12-35.93,10.51-54.62,13.52l-32.94,5.3-43.58,4.69c-40.2,4.33-80.36,4.2-120.49-.18l-28.26-3.09-39.3-6.79-25.33-6.32c-22.17-5.53-57.43-22.76-73-37.88l-20.84-20.25c-26.64-25.89-35.13-73.61-12.52-109.73,4.73-7.55,9.18-14.59,15.62-20.6l21.19-19.73c30-23.11,63.71-39.49,101.03-46.12l35.65-6.34c29.38-5.22,58.9-3.35,88.33-.47l42.53,7.52c27.46,4.85,64,21.22,87.34,38.24,19.7,14.36,34.98,38.54,28.84,59.8-7.15,24.78-27.25,42.02-50.63,53.73l-7.94,3.97c-8.24,4.12-16.2,6.83-25.05,8.44l-28.4,5.17-28.87,1.8-28.9-1.84-28.41-5.15c-18.44-3.35-47.28-17.29-58.91-32.93-5.93-7.98-7.77-17.99-1.99-26.8,21.26-32.39,74.66-40.79,114.04-32.15l4.88,2.19c10.96,4.91,27.12,10.73,25.48,22.79-.93,6.92-9.85,10.37-15.46,10.72l-15.52.95c-18.48,1.14-20.27-21.51-39.05-20.59-11.58.57-21.88,13.67-17.89,24.99,11.23,31.88,51.38,43.31,86.7,33.35,27.76-7.84,47-31.64,41.81-58.31-6.63-34.1-38.36-51.86-72.32-57.89-19.53-3.47-39.59-4.31-58.91.19l-21.58,5.01-14.4,4.91-20.69,10.48c-2.13,1.08-4.3,2.48-5.9,3.94l-16.34,14.95c-21.77,19.93-26.26,58.08-6.21,85.34,11.66,15.87,27.44,26.47,44.87,34.82,76.02,36.42,190.14,29.44,252.7-29.24,15.31-14.36,27.26-31.15,32.18-51.68,7.11-29.71-1.17-58.84-20.72-81.92-4.91-5.79-9.57-11.57-15.54-15.68-5.84-4.02-10.61-9.52-17.97-13.57l-29.56-16.26c-25.39-13.96-52.68-21.47-81.08-25.48l-27.38-3.86c-14.72-2.08-28.59-3.09-43.49-2.8l-28.97.56-49.77,5.93c-7.4.88-14.7,2.68-21.83,4.7l-24.31,6.88c-14.06,3.98-30.98,11.2-44.05,18.27l-17.43,9.42-18.92,12.56-12.17,9.66c-15.84,12.57-38.32,37.3-45.27,53.66l-10.02,23.56c-6.19,14.57-7.57,44.33-3.26,60.93l4.09,15.75c3.95,15.17,11.82,28.68,21.63,40.92l8.58,10.71,19.43,19.24c3.7,3.67,7.67,6.91,11.9,9.72l29.14,19.39c3.57,2.37,8.21,4.56,12.3,6.43,44.92,20.59,99.18,29.66,148.79,33.13,73.52,5.13,147.55.96,218.72-14.84l20.22-4.49,27.5-8.23,23.48-8.31c27.09-9.58,51.97-23,74.95-40.7l6.94-5.34c20.12-15.5,40.47-46.5,45.97-72.27.53-2.49,3.81-1.82,2.88.72,13.48,31.94,16.73,67.9-13.19,80.85Z"/>
  <path class="cls-4" d="M895.92,519.35l-15.33,6.64c-12.72,5.5-22.53,15.34-27.16,28.06l-5.75,15.76-4.24,20.26-5.44,28c-5.06,26.11-18.86,44.96-45.27,49.13-16.45,2.6-30.86-5-45.17-13.35l-26.16-15.29c-30.44-17.79-80.16-17.28-99.32,12.6-1.91,2.96-4.29,5.65-5.52,8.96l-7.19,19.46-5.78,25.26-4.28,20.19-5.41,18.52c-3.88,13.24-12.06,25.79-25.27,32.47-22.05,11.14-48.99,11.25-69.78-1.49-11.61-7.11-18.87-18.83-22.39-30.93l-6.58-22.59-4.45-19.25c-6.52-28.16-13.26-56.19-39.72-68.9-18.51-8.89-51.06-7.99-70.82,2.28l-15.78,8.19-30.86,17.6c-14.97,8.54-31.88,9.08-47.89,1.41-12.81-6.13-24.27-18.63-27.84-34.91l-5.57-25.34-4.87-24.08c-2.36-11.71-7.18-22.35-14.12-32.25-8.75-12.49-19.14-18.87-31.85-25.78-27.24-14.79-26.79-47.05-16.45-77.43,3.02-8.86,6.05-17.41,11.07-25.71l19.92-33.01,22.69-30.41,16.55-19.55c5.29-6.24,10.44-11.86,16.07-17.99,47.68-51.82,125.1-89.02,193.34-100.77l25.18-4.34c41.87-7.22,101.32-6.1,144.73-.4,65.88,8.63,132.39,30.2,182.46,73.02,3.93,3.36,8.25,6.41,11.63,10.16l22.88,25.39c24.87,27.6,47.44,85.83,33.32,124.99-4.74,13.14-12.32,24.29-23.23,32.58l-16.31,12.4-11.98,7.61c-3.95,2.51-7.09,4.24-11.06,6.16l-8,3.88c-9.77,4.73-18.63,9.02-28.62,12.4l-24.91,8.42c-18.11,6.12-35.93,10.51-54.62,13.52l-32.94,5.3-43.58,4.69c-40.2,4.33-80.36,4.2-120.49-.18l-28.26-3.09-39.3-6.79-25.33-6.32c-22.17-5.53-57.43-22.76-73-37.88l-20.84-20.25c-26.64-25.89-35.13-73.61-12.52-109.73,4.73-7.55,9.18-14.59,15.62-20.6l21.19-19.73c30-23.11,63.71-39.49,101.03-46.12l35.65-6.34c29.38-5.22,58.9-3.35,88.33-.47l42.53,7.52c27.46,4.85,64,21.22,87.34,38.24,19.7,14.36,34.98,38.54,28.84,59.8-7.15,24.78-27.25,42.02-50.63,53.73l-7.94,3.97c-8.24,4.12-16.2,6.83-25.05,8.44l-28.4,5.17-28.87,1.8-28.9-1.84-28.41-5.15c-18.44-3.35-47.28-17.29-58.91-32.93-5.93-7.98-7.77-17.99-1.99-26.8,21.26-32.39,74.66-40.79,114.04-32.15l4.88,2.19c10.96,4.91,27.12,10.73,25.48,22.79-.93,6.92-9.85,10.37-15.46,10.72l-15.52.95c-18.48,1.14-20.27-21.51-39.05-20.59-11.58.57-21.88,13.67-17.89,24.99,11.23,31.88,51.38,43.31,86.7,33.35,27.76-7.84,47-31.64,41.81-58.31-6.63-34.1-38.36-51.86-72.32-57.89-19.53-3.47-39.59-4.31-58.91.19l-21.58,5.01-14.4,4.91-20.69,10.48c-2.13,1.08-4.3,2.48-5.9,3.94l-16.34,14.95c-21.77,19.93-26.26,58.08-6.21,85.34,11.66,15.87,27.44,26.47,44.87,34.82,76.02,36.42,190.14,29.44,252.7-29.24,15.31-14.36,27.26-31.15,32.18-51.68,7.11-29.71-1.17-58.84-20.72-81.92-4.91-5.79-9.57-11.57-15.54-15.68-5.84-4.02-10.61-9.52-17.97-13.57l-29.56-16.26c-25.39-13.96-52.68-21.47-81.08-25.48l-27.38-3.86c-14.72-2.08-28.59-3.09-43.49-2.8l-28.97.56-49.77,5.93c-7.4.88-14.7,2.68-21.83,4.7l-24.31,6.88c-14.06,3.98-30.98,11.2-44.05,18.27l-17.43,9.42-18.92,12.56-12.17,9.66c-15.84,12.57-38.32,37.3-45.27,53.66l-10.02,23.56c-6.19,14.57-7.57,44.33-3.26,60.93l4.09,15.75c3.95,15.17,11.82,28.68,21.63,40.92l8.58,10.71,19.43,19.24c3.7,3.67,7.67,6.91,11.9,9.72l29.14,19.39c3.57,2.37,8.21,4.56,12.3,6.43,44.92,20.59,99.18,29.66,148.79,33.13,73.52,5.13,147.55.96,218.72-14.84l20.22-4.49,27.5-8.23,23.48-8.31c27.09-9.58,51.97-23,74.95-40.7l6.94-5.34c20.12-15.5,40.47-46.5,45.97-72.27.53-2.49,3.81-1.82,2.88.72,13.48,31.94,16.73,67.9-13.19,80.85Z"/>
  <path class="cls-3" d="M870.06,669.8l-4.91,16.81c-5.58,19.06-15.4,35.81-28.2,51.4l-11.95,14.55-19.36,19.48c-14.5,14.58-30.9,25.29-48.8,35.64-34.63,20.02-71.08,34.79-110.46,43.83l-19.44,4.47-21.12,3.56c-22.37,3.76-44.62,5.89-67.4,4.94l-48.34-2.01-22.28-2.27-28.99-4.8-19.34-4.67-26.05-7.39-12.73-3.86-31.29-12.43-30.45-15.36c-25.27-12.74-47.74-30.13-67.09-51.08l-15.05-16.3-5.27-6.96c-19.44-25.71-29.71-50.72-35.53-80.89.64-1.8,1.75-3.24,3.6-2.37,5.62,18.46,29.41,41.11,48.31,47.31l12.82,4.22c14.13,4.64,29.9,3.8,44.27.06,14.48-3.77,26.58-10.8,39.49-18.2l21.62-12.41c20.81-11.94,47.02-11.16,52.14,8.2l8.1,30.59,8.23,33.08c3.97,15.96,11.19,30.64,21.54,43.48,25.07,31.09,68.55,40.87,107.24,31.23,47.85-11.93,67.17-47.28,77.21-94l6.45-30.03,5.49-18.22c3.86-12.79,25.04-15.96,44.6-6.83l9.85,4.59,35.57,20.36c18.7,10.7,48.32,14.33,66.83,7.76l15.87-5.63c19.86-7.04,34.92-25.84,42.87-43.95.99-.18,2.74.37,2.93,2.44-.61,2.71-.22,4.21.09,5.71.29,2.36-.45,3.85-1.07,5.95Z"/>
  <path d="M871.13,663.85c-.31-1.5-.7-3-.09-5.71-.19-2.07-1.94-2.62-2.93-2.44,4.21-6.8,4.74,3.03,3.02,8.15Z"/>
  <path d="M873.2,647.53l-.25,3.98v11.47l-1.82.87c1.72-5.12,1.19-14.95-3.02-8.15,1.61-3.67,2.98-7.81,2.54-10.08,1.35.2,2.55,1.12,2.55,1.91Z"/>
  <path class="cls-2" d="M872.06,643.85c-.41.56-.87,1.1-1.41,1.77.5-.88.97-1.46,1.41-1.77Z"/>
  <path d="M872.95,651.51l.25-3.98c0-.79-1.2-1.71-2.55-1.91.54-.67,1-1.21,1.41-1.77,2.43-1.78,3.67,4.31.89,7.66Z"/>
  <path d="M872.95,651.51c2.78-3.35,1.54-9.44-.89-7.66.87-1.19,1.45-2.47,1.87-5.27,3.21,5.01,2.51,12.76-.98,12.93Z"/>
  <path d="M199.61,654.09c-3.38-4.63-3.91-3.05-3.6,2.37-.74-3.8-2.51-7.09-.67-12.95,1.47,2.36,3.17,6.98,4.27,10.58Z"/>
  <path d="M199.61,654.09c-1.85-.87-2.96.57-3.6,2.37-.31-5.42.22-7,3.6-2.37Z"/>
</svg>