<?xml version="1.0" encoding="UTF-8"?>
<svg id="Capa_1" data-name="Capa 1" xmlns="http://www.w3.org/2000/svg" viewBox="0 0 637.25 480.99">
  <defs>
    <style>
      .cls-1 {
        fill: #bf5d20;
      }

      .cls-2 {
        fill: #aa7346;
      }

      .cls-3 {
        fill: #fceb94;
      }

      .cls-4 {
        fill: #aa4b18;
      }

      .cls-5 {
        fill: #d16f29;
      }

      .cls-6 {
        fill: #cf7632;
      }

      .cls-7 {
        fill: #d5cfb9;
      }

      .cls-8 {
        fill: #98380d;
      }

      .cls-9 {
        fill: #f7b392;
      }

      .cls-10 {
        fill: #eae8dd;
      }

      .cls-11 {
        fill: #f29580;
      }

      .cls-12 {
        fill: #e9943e;
      }

      .cls-13 {
        fill: #fcc15f;
      }

      .cls-14 {
        fill: #e96444;
      }

      .cls-15 {
        fill: #fdfdfd;
      }

      .cls-16 {
        fill: #ea512d;
      }
    </style>
  </defs>
  <path class="cls-10" d="M527.54,153.44c-.48-3.11-2.52-4.28-4.53-3.9l-2.97-2.14c-1.17,0-2.73.42-4.15-.14-1.01-.4-1.59-2.05-1-3.45l-1.01-.1-6.15-3.22c.54,3.49,2.13,7.28,1.44,11.69-17.7,3.72-28.85-13.72-41.89-15.52,1.26,2.12,3.39,3.69,3.78,7.16-8.01-1.8-11.24-8.1-15.75-13.62-13.49-16.51-36.29-42.65-51.18-51.88-3.52-2.18-6.48-5.16-7.04-9.01-.27-.08-.84.25-.98.41-5.91-.67-10.11-4.4-16.31-6.7.37-.04.67-.12.91-.24h.01c.09-.04.16-.08.23-.13.07-.05.13-.09.18-.14l.02-.02s.1-.11.15-.17c.12-.15.19-.32.24-.49.02-.07.04-.14.05-.21.1-.7-.21-1.45-.39-1.65l-4.89.42c-3.45.3-8.57-.69-8.35-5.47-3.87-.36-7.75-1.93-11.96-.35l6.48,18.7c32.79,9.16,62.41,29.6,84.45,58.71,1.11,1.46.89,4.33.65,5.39-.85,3.81-5.88,2.1-9.77,5.35,11.35,4.92,22.53,11.32,36.45,11.94,8.3.37,22.34.52,27.27,9.4,2.08,11.51-7.29,23.46-15.79,28.97-33.19,21.5-89.03,20.25-127.23,11.64-20.02-4.51-37.39-15.13-54.47-25.11l1.19-1.79,23.32,9.87c23.42,6.8,46.05,13.41,70.23,14.33,28.85,1.09,56.57-.34,82.7-13.14,3.04-1.49,4.08-5.28,3.49-7.35-.9-3.19-4.22-4.67-7.14-3.01-7.48,4.23-15.41,2.83-23.31,3.52-9.1.8-15.98-1.32-24.23-3.84-16.82-5.14-32.97-10.47-49.2-18.15-7.45-3.53-16.77-5.24-21.11-12.85,18.49,7.21,33.43,16.36,50.27,20.32.22-1.8-.51-3.19-2.67-4.02-23.76-9.17-46.21-19.67-68.16-33.11-8.26-5.06-15.82-9.17-23.17-16.13-4.93-4.67-12.37-7.12-14.42-16.02,10.63.46,18.78,5.92,27.49,10.39l18.18,9.35,58.55,34.14c7.63,4.45,16.03,6.2,20.23,15.03-3.93,1.73-6.35,1.05-8.35,2.17,20.43,7.86,55.91,10.14,74.61-5.25-6.27-4.23-12.03-3.43-18.38-4.38-12.3-1.85-24.3-5.14-35.37-11.42l-40.85-23.19c-4.23-2.41-8.1-6.4-12.4-6.53l1.7,5.63c-12.48.65-21.16-10.87-26.11-7.09,13.4,10.12,29.09,14.43,44.55,21.2-15.34.93-52.56-21.39-52.56-20.76-.18-.65.15-2.57.7-3.05.73-.64,2.43-.33,3.75.02l.72-4.97c-1.24.74-3.54,1.2-4.58,2.38-1.42,1.59-2.37,2.25-4.49,1.81-2.29-.47-2.08-2.99-3.15-3.75-1.04-.74-3.31-1.69-4.52-1.84-2.73-.01-6.06-2.17-8.48-3.48-4.13-2.23-8.05-4.24-7.54-12.45-1.86,0-3.51.76-4.9,4.15-4.75-2.39-9.69-5.06-12.68-9.48l-2.16-.16c-2.51-1.23-5.4-2.71-6.68-5.51l-2.77-.65c-.84-.19-1.57-1.13-2.03-1.93-.84-.83-1.9-1.3-3-1.57l-1.79-1.85-1.27.14c-4.28.46-24.69-8.54-28.57-12.49-.64-.65-2.4-.88-3.3-.74-.15.39-.36,1.59-.83,1.95-.98.74-1.88.02-2.05-.72-.15-.61.18-2.31-.12-2.51-3.68-.52-7.67-3.19-11.48-1.94-7.56,2.49-15.99-2.78-19.4,2.19,5.76,4.01,34.53,3.08,66.5,48.93,20.93,30.02,41.98,54.13,77.08,61.09,2.02.4,4.6,3.26,4.94,4.84,2.27,10.59-40.78,6.67-67.8-3.84-18.14-7.06-34.27-16.99-51.67-25.7l-27.22-13.62c-8.99-4.51-18-8.07-27.34-11.31-.93-1.55-.53-4.92-.21-6.33-1.72,1.44-3.17,3.97-3.85,6.38-.55,1.93-.18,4.55-1.52,6.41.23,1.37,1.27,3.03,3.17,3.49,11.94,2.89,29.16,8.63,31.05,16.9,13.55,7.39,26.2,16.05,37.24,27.38-2.26.16-3.45,1.66-2.23,3.45,37.61,21.23,76.12,37.27,116.85,48.4,2.48.68,3.61.74,3.86,3.17l19.08.08c-.5-1.54.21-3.19,1.14-3.29l3.78-.4c2.87-.31,5.34-.01,6.67,1.87l3.72-.09,2.55.11c-.54-1.9.38-4.04,2.56-3.61.86.18,1.92.79,2.53,1.99l3.13-.1c-.7-1.79.54-3.87,2.29-3.69.87.09,1.72.35,2.53,1.34l3.09.16c.58-.52,1.42-1.35,2.17-1.38l6.16-.32c-.22-.67.36-3.07,1.81-3.39,12.83-2.78,23.85-8.6,35.44-14.6,19.09-9.88,34.2-13.52,37.35-37.81.46-3.54,8.66-5.99,11.8-3.66l-1.61-10.44ZM326.18,127.63l-.82-.91.82-.9.82.9-.82.91ZM333.47,132.9c.57-3.12,4.57-1.29,4.8,1.09l-.71.78c-.83,1.07-4.5.41-4.09-1.87ZM338.43,135.77l.8-.87,2.46.9-.81.88-2.45-.91ZM341.69,137.59l.83-.92c1.49.57,2.94,1.51,4.07,2.72l-.81.9c-1.82.31-3.52-.76-4.09-2.7ZM347.26,142.02c-.12-.09-.21-.18-.29-.28-.08-.09-.14-.18-.18-.27-.25-.54.06-1.04.51-1.04.06,0,.12.01.18.03.07.02.13.04.2.09.04.02.08.05.11.08.12.09.24.23.35.41l-.88.98ZM349.5,142.23c2.89-.31,5.05-.21,7.53,4.28-3.04,1.1-5.71-.46-7.53-4.28ZM296.78,174.71l-.81-.9.81-.91.82.91-.82.9ZM299.71,173.83l4.63,3.46-1.05,1.04c-2.41-.22-3.75-1.82-3.58-4.5Z"/>
  <path class="cls-4" d="M493.25,390.07l.2-8.9c-9.67-.8-13.33,13.4-21.5,12.68l13.6-15.84c-2-1.32-3.51-3.16-3.35-4.47.2-1.52,1.27-3.12,1.53-4.5-8.92-4.29-13.03-17-13.36-27.66-10.37,7.41-11.65,26.8-23.92,37.05-1.07-3.28,1.36-5.2,3.07-6.67,1.29-21.98,14.27-34.89,18.58-48.39-9,5.32-15.19,19.66-26.49,21.97-15.48,3.17-29.38-7.91-35.81-22.64-7.1,6.5-1.68,27.02-9.64,38.62,4.74,2.56,7.54,4.22,9.18,7.77.25.54,1.01,1.16,1.53,1.41.02-2.58,2.14-1.77,1.65.28.46.47,1.16,1.13,1.72,1.28.47-2.53,2.24-1.78,3.51-1.15,1.42.7,2.21,2.82,2.84,3.96,8.57,5.39,20.61,7.62,31.06,4.27,5.17,10.18,11.95,18.65,23.85,18.07-2.35,5.9-1.87,9.43-.84,13.98,3.16,1.66,4.4,5.64,8.08,6.03.02-1.7.92-3.74,3.39-3.66l14.78.45c-2.57-8.14-3.85-15.56-3.66-23.94ZM468.5,387.85c-.1-.43-.22-1.66-.45-2.04l10.14-10.02c1.23-1.22,3.09-.4,3.6,1.07-4.34,3.59-8.19,8.76-13.29,10.99Z"/>
  <path class="cls-4" d="M485.29,424.54c-5.41,11.36-13.63,20.18-22.31,29.55-2.31,2.5-4.12,4.96-7.23,4.78,2.68-9.99,22.79-21.06,22.98-41.65,3.35.31,5.07,4.31,6.55,7.32Z"/>
  <path class="cls-8" d="M403.83,307.71c-.84-10.42,1.91-20.33,3.9-31.97-1.44-.89-2.99-.19-4.24.42-.07,9.45-6.38,18.46-10.02,27.08,3.07,2.02,1.35,5.08,1.29,7.61l-.94,37.87c-.15,5.88-1.04,11.82-7.68,13.31-13.66,3.08-28.2,6.52-42.69,6.46l-54.09-.24-39.37-6.61c1.39-12.16.36-32.28-1.42-40.31l-4.52-20.31c-2.46-11.08-1.38-22.59-4.83-32.39l-1.86-5.27c-1.31-.46-2.61.57-2.72,1.63-.11,1.03.55,2.67-1.67,4.26l-4.99-20.14c-.62-2.5,1.16-5.91-1.12-7.73-1.43-1.15-2.01-3.17-2.75-4.49-1.24-2.22-1.01-4.22,1.92-4.55-1.45-.32-3.95-1.13-5.13-1.86-3.95,7.13,6.99,23.03,7.84,38.28-3.81-2.73-4.48-6.15-7.01-8.41l12.55,42.82c1.89,6.36,2.64,12.51,2.78,18.36,3.96,7.08,5.95,28.91,3.99,33.5-2.24,5.24-7.95,8.4-9.1,13.82,4.02-1.06,7.36-3.46,10.5-7.64,9.26,6.02,19.47,8.41,30.64,9.3,34.81,2.79,69.29,2.43,103.98-1.14,6.65-.69,12.29-3.24,17.11-8.61,3.7,3.94,6.79,7.22,11.16,8.33-1.64-3.55-4.44-5.21-9.18-7.77,7.96-11.6,2.54-32.12,9.64-38.62-1.85-4.23-1.58-10.15-1.97-14.99ZM229.85,274.93l-.03,1.18-.03-1.18v-1.23l.03-1.18.03,1.18v1.23ZM238.9,287.3c-1.03,0-1.87-.93-1.87-2.07s.84-2.08,1.87-2.08,1.87.93,1.87,2.08-.83,2.07-1.87,2.07Z"/>
  <path class="cls-12" d="M537.41,452.22l-8.5-12.16c-10.49-9.65-23.3-14.95-36.68-13.8-.6,5.6-5.86,8.07-8.88,12.27-5.75,8-11.49,14.67-17.92,21.93-3.36,3.79-6.32,7.23-11.02,5.06l.36,2.69-.15,1.17c25.76,13.99,57.65,8.22,84.43-3.2,1.07-4.72-.78-9.27-1.64-13.96ZM520.72,447.35c-2.46,13.4-28.18,14.87-31.97,4.81-3.26-8.64,9.72-22.47,19.88-19.59,4.83,1.36,13.75,5.82,12.09,14.78Z"/>
  <path class="cls-4" d="M241.05,355.03c-2.24,5.24-7.95,8.4-9.1,13.82-.12.57-.75,1.03-1.18,1.23-1.12-3.25-5.79,1.55-14.85,2.46-1.79.18-1.83,3.23-1.42,4.33-6.3,4.77-15.16,4.92-23.31,2.38l-6.24,5.38c-1.34,1.15-3.82,1.16-5.23,3.39-3.58,5.66-9.05,5.58-14.4,5.76.09-.62.02-1.66-.4-2.35-.56-.89-1.83-1.33-2.88-1.19-.35-.62-1.08-1.68-1.65-1.88-1.03-1.74-2.61-3.82-1.75-7.6,4.87-1.05,7.66,3.8,10.24,6.81,1.77,1.08,3.28-.21,2.58-2.58-3.34-.97-4.04-5.65-5.52-7.3,7.6.83,13.06-3.26,15.93-11.1,1.85,1.67,3.25,4.29,5.53,6.91,1.25,1.44,6.48-1.92,5.66-4.61-1.65-5.38-3.7-10.45-3.72-15.06,15.2,1.8,31.94-3.1,41.42-17.66l6.3-14.64c3.96,7.08,5.95,28.91,3.99,33.5Z"/>
  <path class="cls-4" d="M160.39,388.35l1.65,1.88,1.55,3.65c.6,1.38,1.01,2.84,2.2,3.85l-.29,1.64c-2.72-.07-2.68,3.33.19,3.52,4.03,6.71-1.66,14.32-5.35,20.22.25.59.06,1.32-.05,1.71-4.12-3.48-8.65-1.93-12.94-.89-7.24,1.77-16.32,1.02-21.43,8.28-.99-.51-2.38.41-3.3.74-3.82,1.39-8.05,4.44-9.58,8.13-1,.68-2.48,1.97-3.39,2.8-4.3,3.87-8.44,8.72-9.65,14.86-1.34-.13-2.21,1.43-3.03,1.81-1.42.65-3.01.79-4.63,4.43-5.17-21.71,18.71-41.68,38.45-48.86l3.67.14c5.33-2.67,16.05-.57,21.74-3.88,7.26-4.21,3.6-17.84.35-23.94l3.86-.09Z"/>
  <path class="cls-2" d="M625.55,388.23c1.01,14.05-4.61,25.03-11.47,36.19-15.26,24.82-38.74,44.05-66.31,46.23-5.33.42-9.12-1.44-14.74,1.07-22.31,9.95-47.03,12.12-70.09,5.12-4.22-1.28-7.52-3.61-8.32-7.46,25.76,13.99,57.65,8.22,84.43-3.2l8.26.73,1.31-.14c.66.93,1.81,1.51,2.84,1.33,1.06-.19,2.06-.9,2.83-1.48,21.04-4.13,39.98-19.32,53.08-38.82,8.87-11.89,17.15-26.37,15.53-39.19.35-1.46,1.29-4.13,1.43-5.64l3.4-5.14c12.51-35.72,5.85-95.08-16.05-123.94-4.14-5.45-7.64-12.86-13.71-13.47.13-.99.07-1.91.56-2.62-8.96-19.71-23.91-35.25-39.57-48.81-.71-.61-1.34-2.39-1.74-3.23-.28-.58-.16-1.93.25-3.09,15.26,13.24,30.52,28.24,41.28,47.24,2.9,5.12,4.24,8.43,8.49,12.73,10.8,10.91,17.57,26.2,22.4,41.7,9.21,29.51,12.44,78.68-4.09,103.89Z"/>
  <path class="cls-2" d="M173.4,475.52c-2.25,3.58-6.42,3.63-10.7,4.32-22.11,3.57-43.55-1.52-64.58-10.2-34.87,4.6-66.41-25.25-82.02-58.36-3.48-7.37-4.9-14.66-4.12-22.78-18.98-29.02-12.7-84.09.15-117.18,6.12-12.37,11.68-23.74,21.61-32.6,10.34-20.16,24.39-37.67,40.92-50.63.8,3.1-.9,5.9-3.01,7.6-10.33,8.28-31.1,32.54-32.15,42.4-.11,1.06-1.48,2.65-1.46,3.8-14.23,3.72-27.97,39.76-31.88,62.68-4.08,23.88-5.08,57.91,5.77,76.39,2.89,4.92,2.88,6.96,3.07,13.17.51,17.4,22.14,46.37,35.42,56.49,12.98,9.9,26.76,17.52,43.08,16.05,1.55-.14,2.76-.65,3.53-1.41,1.22-1.22,1.04-3.11-.08-4.7.83-.38,1.7-1.94,3.04-1.81l-1.41,7.13c24.31,11.74,50.14,14.84,74.86,7.67-.16.48-.05,1.44-.04,1.97Z"/>
  <path class="cls-10" d="M166.9,207.13l-19.42.2c-2.31.03-5.25-.76-6.76,2.07-2.25-1.02-5.42-.1-7.72-.12l-23.27-.27c-7.86-.09-15.65-4.7-21.49-10.44-1.6-1.57-2.05-5.49-4.77-5.27-.17-2.97-1.36-5.35-1.56-9.92-1.53,1.02-2.15,1.73-2.73,2.27,1.76-29.58,14.27-44.05,37.07-57.77-.07,5.36,2.51,11.18,6.68,14.12l-.1,2.83-6.63,7.7c1.89-5.87,3.12-12.97-1.62-14.05-13.3,5.74-15.77,23.41-11.1,37.94,1.02,3.16,4.22,5.53,3.01,9.29-4.53-4.31-9.6-11.69-9.49-19.97.05-4.17,2.56-8.55-.01-12.4.61-1.39,2.29-3.4.42-6.65-9.61,9.03-15.78,23.87-11.42,38.17,2.4,7.88,9.52,17.73,17.7,18.41,1.5.12,5.02-1.61,3.66-4.18-1.77-3.33-4.72-6-4.11-10.51,11.48,9.61,33.99,20.03,42.88,11.45-6.61.99-10.83-.48-15.29-1.23-.09-6.88-7.14-9.28-6.36-16.94,4.94.6,8.02,3.4,11.61,4.89-1.22,2.43-3.71,2.48-6.79,3.27,5.12,1.94,10.44,1.02,15.61.4l.95.27c.28,3.68,3.3,4.41,7.99,3.91l1.67,1.86c.9,1.11,2,1.9,3.35,1.89,2.92,4.93,8.79,3.34,8.04,8.78Z"/>
  <path class="cls-10" d="M206.13,143.73l-20.16-.79c19.63,8.56,37.8,18.48,56.57,29.77,1.45.87,3.41.58,4.37-.42.24,1.89,1.1,2.3,2.72,2.51.57,2.63,2.2,3.57,4.47,4.81l21.84,11.89c2.25,1.22,3.75,2.48,3.75,5.11l-35.97-18.33c-22.84-11.64-44.98-21.91-70.24-25.65-3.81-.56-11.6,2.27-9.45,7.2,4.26,9.81,13.54,15.67,21.95,21.02,27.93,17.75,58.49,27.39,90.13,34.02,7.74,1.62,14.73,3.92,22.69.13-3.93-10.85-16.39-12.38-15.33-18.56,3.81-.17,7.08,4.66,10.87,6.97,15.16,9.22,41.99,20.09,39.33,28.17-2.2,6.65-30.78,8.99-47.63,8.17-2.16-.1-4.08.36-4.7,2.56-3.24-.49-6.44-1.33-9.79-.72.53-2.18-.46-3.9-2.6-3.69-1.5.15-2.94.57-3.99,2.01l-4.8-.07c.31-1.09.1-3.04-1-3.5-1.45-.6-3.28.32-4.01,1.6l-3.29.1c.59-5.58-7.15-2.61-13.01-7.32,4.86-2.97,14.44,2.91,16.48-2.72.48-1.32-1.61-3.92-3.39-4.65l-37.94-15.46c2.3-7.8-9.52-5.53-22.31-13.43-14.98-9.26-29.6-18.1-42.27-31.04-1.73-1.76-2.95-4.31-4.89-4.77-2.45-.59-4.89.73-7.12,1.56l-3.22-10.69c19.54-18.89,69.45-12.47,71.81-8.32.34.59.39,1.51.16,2.54Z"/>
  <path class="cls-10" d="M137.39,160.2c.59,2.51.7,5.37,3.03,7.77,13.29,13.78,28.64,23.56,44.91,30.95-.22,1.23-.06,3.76,1.25,4.79,14.38,11.3,29.97,19.56,47.31,23.49,1.64.37,2.01,2.81,1.57,3.72l-39.15-11.43c-.28.5-.81.38-1.17.37,0-.85-.26-1.75-.67-2.35-.84-1.22-2.4-.91-3.21-1.23-1.56-.62-2.96-1.45-4.62-1.54-.38-2.22-1.82-3.39-4.03-4.66l-16.25-9.39c-2.67-1.54-4.99-2.47-7.49-2.34-.68-1.16-2.15-1.78-3.34-1.89l-1.67-1.86-1.71-3.84c7.98-7.11-21.61-16.04-18.5-30.62,1.34.15,2.81.42,3.75.07Z"/>
  <path class="cls-10" d="M249.64,174.8c.23-.53-.08-1.34-.54-1.57-.63-.32-1.67-.28-2.18-.93-.08-.66-1.49-1.57-1.44-2.2.2-2.21,6.32-.22,12.3,4.84-3.36,3.04-5.6.19-8.14-.14Z"/>
  <path class="cls-7" d="M546.47,174.25c-3.62,1.98-1.98,7.1-2.95,9.42-3.2,7.69-10.19,11.85-17.85,12.21l-18.6.86c-20.88,12.26-41.82,22.35-64.32,26.6-.22-.67.36-3.07,1.81-3.39,12.83-2.78,23.85-8.6,35.44-14.6,19.09-9.88,34.2-13.52,37.35-37.81.46-3.54,8.66-5.99,11.8-3.66l-1.61-10.44c-.48-3.11-2.52-4.28-4.53-3.9.02-2.04,2.15-2.81,2.71-3.93,9.71,3.81,14.09,19.44,20.75,28.64Z"/>
  <path class="cls-7" d="M471.06,143.82c-8.01-1.8-11.24-8.1-15.75-13.62-13.49-16.51-36.29-42.65-51.18-51.88-3.52-2.18-6.48-5.16-7.04-9.01l2.24.69c6.56,2.01,12.54,5.32,18.35,9.5,1.6,1.15,2.77,4.3,5.84,3.21.36-.12.82-.08,1.24-.07l2.05,1.42c1.7,3.3,3.31,6.74,6.73,7.51,1.15.26,2.23,2.15,2.82,3.19.75,1.34,1.98,2.07,3.36,2.21.39.04,1.07.18,1.36.45.88.82,1.92,1.34,3.15,1.4.17,1.97,1.33,4.7,3.04,5.36,1.96.76,4.12-1.29,5.26-2.76l.28,2.62c-2.64,2.12-.87,4.85-.5,7.27.25,1.61-1.42,3.99.92,6.77l9.37,11.16c-.31,1.47-.32,2.9.28,4.35.4.95,1.75,1.68,2.93,1.55l1.47,1.52c1.26,2.12,3.39,3.69,3.78,7.16Z"/>
  <path class="cls-11" d="M325.49,16.33c-7.17,1.34-12.81,6.42-17.03,12.41-.03,1.14-.24,2.28-1.02,2.96l-2.65,2.35c1.04,5.63-7.94,18.76-10.55,19.25l.16,3.71c.34,9.18,5.26-1.5,12.99-2.26.45-.05,1.08-.01,1.52.16,1.78-7.91,9.61-11.38,11.38-16.1.86-2.29,2.77-3.59,4.99-3.74l.42-6.62c.06-1,.49-1.82,1.36-2.26.26-1.45.83-2.79,1.82-4.16-1.55-.42-3.09-4.11-3.39-5.7ZM323.37,22.93c-1.85,6.18-6.11,9.6-11.01,10.77-.2-5.19,3.49-6.82,5.89-9.81l1.93-2.4c.94-1.18,3.84-.74,3.19,1.44Z"/>
  <path class="cls-16" d="M407.18,31.8l-.12,7.46-15.87,14.47c-3.76,3.42-5.53,5.86-9.99,6.24l-4.89.42c-.41-2.86-2.72-4.94-5.3-5.18.86-1.95,2.05-3.74,3.46-5.19l17.49-18.12c4.29,3.67,10.4,1.61,15.22-.1Z"/>
  <path class="cls-11" d="M436.73,11.68c-2.07,3.11-5.33,5.49-6.49,9.19-7.4,3.45-13.98,7.73-23.06,10.93-4.82,1.71-10.93,3.77-15.22.1l1.34-3.02c2.79-8.47,12.47-12.6,20.26-15.3l4.87-.35c-.18,1.66,1.05,3.59,2.33,3.4,4.59-.68,11.49-4.61,10.76-8.78,1.51-.03,3.36.37,4.82-.2l.39,4.03Z"/>
  <path class="cls-11" d="M137.79,51.7l-.5,14.31c-2.22,9.49-4.56,19.48-9.74,27.25l-3.25,4.87c-1.47,2.2-3.78,3.97-6.2,3.33l-.06-1.07,3.31-26.93c-1.14-.75-1.36-2.49-.58-3.25.82-.8,1.66-1.58,1.71-2.39,1.38-.88,2.73-1.64,3.83-1.77.35.3.87.98,1.31,1.14,2.91,1.01,5.31-4.79,5.35-12.58.69-.93,1.6-2.62,2.75-2.97l2.07.06Z"/>
  <path class="cls-11" d="M237.11,21.18c-1.22-.3-2.96-.19-3.21.73l-.89,3.26c-2.15,7.84-15.97,29.11-23.63,26.38.27-.89.02-2.39-.17-3.34,6.46-5.55,6.79-20.9,13.56-28.45,6.75,1.84,9.75-7.42,9.73-13.36l4.87-.04c-.02,4.45-1.58,10.33-.26,14.82Z"/>
  <path class="cls-8" d="M451.56,72.43c-.32,10-3.26,18.49-7.33,26.39-1.23-.06-2.27-.58-3.15-1.4,11.57-16.37,8.89-54.76,2.73-77.18-1.23-4.49-3.74-8.16-7.08-8.56l-.39-4.03c1.01-.39,2-1.15,3.2-1.42,12.18,8.88,12.72,44.29,12.02,66.2Z"/>
  <path class="cls-8" d="M364.48,85.81l-3.35-2c-1.82-17.95-10.82-34.14-19.46-50.12-3.2-5.92-7.46-10.41-12.79-11.66-1.55-.42-3.09-4.11-3.39-5.7l3.26-.61c.4.45,1.07,1.3,1.63,1.44,6.12,1.5,10.89,6.6,14.05,13.21l11.57,24.2,6.48,18.7,2,12.54Z"/>
  <path class="cls-7" d="M294.4,57.01c-.54.05-1.26.06-1.86-.16-4.19,3.72-8.15,14.46-7.8,15.35.41,1.04,2.42,1.32,3.28.93l.23,2.16c-4.28.46-24.69-8.54-28.57-12.49l.98-2.66c2.48.93,5.39,1.98,7.81.55.74-.24,2.18-.04,3,.07.27.97,1.52,1.78,2.14,1.39.66-.42.94-1.52,1.14-1.98l1.57-1.29c.09-.07.17-.15.26-.23l1.74-1.54c.38-.18,1.09-.26,1.5-.17.97.2,2.23.28,3.23-.52.69-.54,1.09-1.98,1-3.09,3.23,2.05,6.78.61,10.19-.03l.16,3.71Z"/>
  <path class="cls-8" d="M193.09,94.77l-.49,4.22c-10.09-16.26-22.46-29.88-37.73-41.26-4.03-2.99-7.81-5.8-12.36-4.71-.33-.55-1.11-1.64-1.71-1.59l-3.01.27-2.07-.06-3.24-3.37c15.18-7,29.72,11.57,44.22,23.61.44.36,1.03,1.03,1.29,1.71.64,1.66,2.63,2.5,3.9,3.21l11.2,17.97Z"/>
  <path class="cls-8" d="M283.05,56.42c-1,.8-2.26.72-3.23.52.67-3.66-.16-6.83-2.31-10.3-10.57-17.03-25.8-40.88-40.14-40.28-.69-1.52-2.8-3.37-3.08-5.74,14.03-5.94,40.53,32.59,49.76,52.71.09,1.11-.31,2.55-1,3.09Z"/>
  <path class="cls-8" d="M526.4,137.07l-.18-4.05c-.88-19.57.94-39.74-5.18-59.03-1.42-4.47-4.15-8.66-7.89-7.47l.55-4.23c1.11-1.36,2.81-1.64,4.56-1.6,3.84,3.8,6.37,8.5,7.43,14.94,3.14,19.09,6.65,48.92.71,61.44Z"/>
  <path class="cls-5" d="M178.39,471.67l-3.24,4.34-1.75-.49c-.01-.53-.12-1.49.04-1.97,4.21-12.55-9.78-43.08-26.1-49.61,4.29-1.04,8.82-2.59,12.94.89,4.32,20.15,33.86,27.45,18.11,46.84Z"/>
  <path class="cls-7" d="M241.9,58.84c-7.56,2.49-15.99-2.78-19.4,2.19-2.46-1.71-6.96-1.03-9.62-.46-2.58-.67-5.28.39-5.84,3.36-.86.12-2.58.37-3.36-.55-8.82.03-17.48,5.98-25.69,10.21-.26-.68-.85-1.35-1.29-1.71,8.15-7.08,18.79-10.28,28.74-13.33.79-3.09,1.89-6.36,3.94-7-.14,2.03-.33,4.14.94,6.61,3.41-.5,6.1-1.17,8.88-1.16-.14,2.02,1.6,1.91,1.62.07,1.73-.38,3.41-1.38,5.06-1.86,1.23-.37,3.76-.44,4.93.08,2.03.9,4,1.5,6.28,1.34.82-.06,1.5-.4,1.77-1.32l2-.15,1.04,3.68Z"/>
  <path class="cls-8" d="M455.76,458.87c-.56,2.09-1.67,4.2-1.35,6.65l.36,2.69c-5.82-2.32-2.42-13.63,4.39-22.18,5.74-7.2,13.33-14.32,16.51-23.5-1.81-3.68-4.22-7.85-5.01-11.34,3.16,1.66,4.4,5.64,8.08,6.03-.2,20.59-20.3,31.67-22.98,41.65Z"/>
  <path class="cls-8" d="M496.91,414.01l22.23,8.47-.05,1.32c-10.16,3.07-17.26-10.84-29.97-.39-.93.77-2.72.89-3.82,1.12-1.48-3.01-3.2-7.01-6.55-7.32.02-1.69.92-3.74,3.4-3.66l14.77.45Z"/>
  <path class="cls-2" d="M518.26,60.69c-1.75-.04-3.45.24-4.56,1.6l-3.98-.13c-4.52-.14-8.35,1.55-12.39,3.42-10.24,4.74-20.41,11.59-27.92,20.73l-1.92-.07-1.92-.87c12.68-14.02,41.54-35.69,52.69-24.68Z"/>
  <path class="cls-2" d="M237.37,6.36l-4.87.04c-5.06.16-7.49,8.13-9.73,13.36-6.77,7.55-7.1,22.9-13.56,28.45,4.16-17.75,11.26-41.75,25.08-47.59.28,2.37,2.39,4.22,3.08,5.74Z"/>
  <path class="cls-6" d="M83.65,196.42c-5.93.55-8.04,7.37-8.51,15.11-3.47-4.74-3.25-10.32-3.49-15.84,2.11-1.7,3.81-4.5,3.01-7.6,1.24-.98,2.42-2.46,4.52-2.44.58-.54,1.2-1.25,2.73-2.27.2,4.57,1.39,6.95,1.56,9.92l.18,3.12Z"/>
  <path class="cls-10" d="M170.2,435.57c-4.74-2.61-6.01-8.43-9.87-12.45,3.69-5.9,9.38-13.51,5.35-20.23-.5-.83-.37-2.46-.18-3.51l.29-1.65,4.57-.58c.83,17.44-10.37,27.34-2.58,32.05,2.51,1.52,2.81,4.24,2.42,6.37Z"/>
  <path class="cls-2" d="M439.54,6.23c-1.2.27-2.19,1.03-3.2,1.42-1.46.57-3.31.17-4.82.2-4.75.08-9.49,1.98-13.09,5.38l-4.87.35c.45-7.05,19.31-12.22,25.98-7.35Z"/>
  <path class="cls-8" d="M393.3,28.88l-1.34,3.02-17.49,18.12c2.3-8.67,13.07-21.61,18.83-21.14Z"/>
  <path class="cls-8" d="M122.93,142c-4.17-2.94-6.75-8.76-6.68-14.12l.06-5.68.09-12.82c.01-1.93-.62-3.28-1.71-3.48l-.03-5.47,3.38-.04.06,1.07-.15,4.22-.03,16.61,5.01,19.71Z"/>
  <path class="cls-2" d="M121.35,73.46l-3.31,26.93-3.38.04,2.79-17.27c.65-4.02,1.61-7.4,3.9-9.7Z"/>
  <path class="cls-2" d="M184.95,384.63c-2.26,6.7-8.28,11.69-14.59,12.52l-4.57.58c-1.19-1-1.6-2.47-2.2-3.84l1.73-.11c5.35-.18,10.82-.1,14.4-5.76,1.41-2.23,3.89-2.24,5.23-3.39Z"/>
  <path class="cls-14" d="M464.26,111.42c-1.69,1.94-2.94,4.3-3.26,7.08-2.7-2.09-6.39-2.93-6.01-7.3,1.71-.79,2.46-2.56,1.87-3.67-1.1-2.07-2.71-3.13-4.05-3.49l-.28-2.62c-.01-.13.01-.24.05-.34l4.01-.62c3.4,6.21,4.93,11.51,7.67,10.96Z"/>
  <path class="cls-2" d="M184.91,457.22v5.44c0,2.23-.16,4.62-1.19,6.8-.95,1.99-3.25,2.7-5.33,2.21,15.75-19.39-13.79-26.69-18.11-46.84.11-.39.3-1.12.05-1.71,3.86,4.02,5.13,9.84,9.87,12.45.49.27.81,1.51,1.18,1.91l1.96,2.16,1.15,1.4c.31,2.57,1.81,4.51,3.93,5.56.55.27,1.06,1.09,1.49,1.55l1.66,2.3c.39,1.14.81,2.35,1.72,3.13-.16,1.5.37,2.99,1.62,3.64Z"/>
  <path class="cls-2" d="M135.72,51.64c-1.15.35-2.06,2.04-2.75,2.97-4.29.82-6.28,6.61-6.66,11.44-1.1.13-2.45.89-3.83,1.77.45-7.07,3.55-16.57,10-19.55l3.24,3.37Z"/>
  <path class="cls-2" d="M294.24,53.3c1.14-7.37,5.43-14.71,10.55-19.25,1.04,5.63-7.94,18.76-10.55,19.25Z"/>
  <path class="cls-10" d="M188.11,468.52c-1.39,5.44-8.52,8.74-12.96,7.49l3.24-4.34c2.08.49,4.38-.22,5.33-2.21,1.03-2.18,1.19-4.57,1.19-6.8,1.55-.78,2.69-.04,2.89,1.25.17,1.09.77,2.78.31,4.61Z"/>
  <path class="cls-4" d="M557.22,185.76c-3.65-1.18-6.25-4.84-9.89-7.91-1.93.38-2.28,4.87-.89,6.29-.97.57-1.97.45-2.92-.47.97-2.32-.67-7.44,2.95-9.42,2.86,2.75,7.75,5.6,11,8.42-.41,1.16-.53,2.51-.25,3.09Z"/>
  <path class="cls-4" d="M525.72,145.61c-.56,1.12-2.69,1.89-2.71,3.93l-2.97-2.14-.32-1.66c5.1-1.59,3-8.73,6.5-12.72l.18,4.05c.12,2.64.21,6.06-.68,8.54Z"/>
  <path class="cls-8" d="M467.49,86.24l-.18,2.42c-4.45,2.01-8.83,6.76-10.72,11.8l-4.01.62c2.79-6.82,7.93-11.39,12.99-15.71l1.92.87Z"/>
  <path class="cls-8" d="M230.77,370.08c-3.97,1.81-8.11,3.54-11.61,6.29l-1.92.64-2.74-.14c-.41-1.1-.37-4.15,1.42-4.33,9.06-.91,13.73-5.71,14.85-2.46Z"/>
  <path class="cls-9" d="M376.31,60.39c-3.45.3-8.57-.69-8.35-5.47l3.05.29c2.58.24,4.89,2.32,5.3,5.18Z"/>
  <path class="cls-2" d="M116.4,109.38l-.09,12.82c-1.09-.2-1.73-1.55-1.72-3.49l.1-12.81c1.09.2,1.72,1.55,1.71,3.48Z"/>
  <path class="cls-10" d="M178.42,446.6c-2.12-1.05-3.62-2.99-3.93-5.56,1.09-.37,3.06-.04,3.63,1.07.67,1.31.53,3.2.3,4.49Z"/>
  <path class="cls-8" d="M416.59,374.87l-1.4-.94-1.61.02c-.92-1.06-2.1-1.56-3.34-1.89.47-2.53,2.24-1.78,3.51-1.15,1.42.7,2.21,2.82,2.84,3.96Z"/>
  <path class="cls-2" d="M308.46,28.74c-.03,1.14-.24,2.28-1.02,2.96-1.48.5-2.1-1.37-.86-1.85.44-.16,1.58-.69,1.88-1.11Z"/>
  <path class="cls-10" d="M184.91,457.22c-1.25-.65-1.78-2.14-1.62-3.64,1.05.9,1.62,2.14,1.62,3.64Z"/>
  <path class="cls-8" d="M408.52,370.78c-.51.02-1.16-.05-1.65-.28.02-2.58,2.14-1.77,1.65.28Z"/>
  <path class="cls-4" d="M415.19,373.93c-.2,1.35-1.4,1.3-1.61.02l1.61-.02Z"/>
  <path class="cls-4" d="M219.16,376.37c-.54.42-1.28.57-1.92.64l1.92-.64Z"/>
  <path class="cls-11" d="M330.38,17.16c-.56-.14-1.23-.99-1.63-1.44.9-.17,1.82.4,1.63,1.44Z"/>
  <path class="cls-10" d="M181.57,450.45l-1.66-2.3c.58.64,1.37,1.44,1.66,2.3Z"/>
  <path class="cls-12" d="M611.68,253.89c-4.14-5.45-7.64-12.86-13.71-13.47l-20.85-2.12c7.5-3.99,14.96-2.27,21.41-.5-8.96-19.71-23.91-35.25-39.57-48.81.22,3.56,1.24,7.62-3.17,11.84l-9.35-16.69c-.97.57-1.97.45-2.92-.47-3.2,7.69-10.19,11.85-17.85,12.21l-18.6.86c-20.88,12.26-41.82,22.35-64.32,26.6l-6.16.32c-.21,1.11-1.19,1.43-2.17,1.38l-3.09-.16.19,2.57c.69,0,1.48,0,2.74.53-.63,2.91-1.04,5.54-.67,8.41,12.61-1.09,25.43-4.82,38-10.22l23.5-10.1c13.5-5.8,26.07-11.81,41-11.26,6.5.24,12.98-1.38,19.46-3-.96,26.61-39.1,10.53-71.21,40.57-12.73,11.92-28.46,32.46-44.6,18.51-6.51-5.62-8.75-14.98-8.13-24.32-1.55.13-3.44-.42-4.84.63-1,.75-1.36,2.48-2.04,4.16l-9.01,22.05c-.82,2.01-.38,5.12-.43,7.28l3.27,7.18c7.4,12.34,18.28,20.12,30.02,26.08,1.47.19,2.29-.33,3.02-.85,1.03-1.08,1.54-1.56,2.54-1.76,1.38-.27,3.19,1.6,2.78,2.87l-.61,2.82c1.04.1,1.31,1.29,1.1,1.79,15.42,3.09,20.79-6.83,27.45-7.49,1.22-.13,2.53-1.41,3.16-2.77,2.39-6.74,9.02-12.62,14.95-17.33,5.8-6.75,10.84-13.37,18.32-15.91,3.2-7.81,11.42-9.47,17.33-14.13,11.14-8,24.96-14.41,38.44-12.52-9.35,3.9-18.4,3.5-25.82,10.6,12.59-.55,22.35-5.92,33.99-2.88-17.07,1.81-32.24,9.38-47.59,17.52-5.62,2.98-9.94,9.36-16.58,10.86l-17.39,17.87c-4.75,4.88-7.96,9.44-8.74,16.35-1.74,15.41,3.51,34.42,16.69,42.69,3.23,2.02,8.29.9,9.86,4.43.8-.3,2.33-.79,3.17-.38-.61-2.17.17-3.82,2.42-3.72,1.35.06,2.36.22,2.58,2.34l22.19-1.63,25.02,2.68c6.02.64,11.13,3.25,16.54,5.2,11.75,4.26,23.08,10.87,30.93,22.37l3.4-5.14c12.51-35.72,5.85-95.08-16.05-123.94ZM588.04,318.84c-23.71,11.5-61.92,11.09-68.01-15.4-5.39-23.45,24.22-39,46.39-48.18,9.61-3.98,21.41-9.48,30.38-.94,7.44,7.1,7.17,20.28,8.04,30.7,1.23,14.52-3.58,27.4-16.8,33.82Z"/>
  <path class="cls-15" d="M222.5,61.03c5.76,4,34.53,3.08,66.5,48.93,20.93,30.02,41.98,54.13,77.07,61.09,2.02.4,4.6,3.26,4.94,4.84,2.27,10.59-40.78,6.67-67.79-3.84-18.14-7.06-34.27-16.99-51.67-25.7l-27.22-13.62c-9-4.5-18-8.07-27.34-11.3-.93-1.55-.53-4.92-.21-6.34.1-.43-.16-1.23-.17-1.67,1.22-.53,1.27-1.86,1.32-2.98.05-1.34-.12-2.78-1.42-3.12l-.06-1.47c-.19-4.22-1.25-7.72-3.35-11.08l-11.21-17.97c5.65-7.03,20.17-6.85,21.8-13.42.78.92,2.5.67,3.36.55.94.12,3.09.53,4.27-.01.91-.42,1.33-2.34,1.56-3.36,2.66-.56,7.16-1.24,9.62.47Z"/>
  <path class="cls-7" d="M437.81,142.71c11.35,4.92,22.52,11.33,36.45,11.94,8.29.37,22.34.52,27.27,9.4,2.08,11.51-7.29,23.46-15.79,28.97-33.19,21.5-89.03,20.25-127.22,11.64-20.03-4.52-37.4-15.13-54.47-25.11-.27-.16-.63-.58-.75-1.22-2.41-.22-3.75-1.82-3.58-4.5l4.63,3.46.88.48,23.32,9.87c23.42,6.8,46.05,13.42,70.23,14.33,28.85,1.09,56.57-.34,82.71-13.14,3.04-1.49,4.08-5.28,3.49-7.35-.91-3.19-4.22-4.66-7.14-3.01-7.48,4.24-15.41,2.83-23.31,3.52-9.11.8-15.98-1.32-24.23-3.84-16.82-5.14-32.98-10.47-49.2-18.15-7.45-3.52-16.77-5.24-21.11-12.85,18.49,7.22,33.43,16.37,50.28,20.32l7.68,1.8c20.43,7.86,55.91,10.14,74.61-5.25-6.27-4.24-12.03-3.43-18.38-4.39-12.3-1.85-24.3-5.14-35.37-11.42l-40.86-23.19c-4.23-2.4-8.1-6.4-12.4-6.52-.72-1.33-1.69-3.58-3.15-4.36-.41-.22-.99-.11-1.21-.03-5.42-2.95-13.23-5.84-15.85-15.01,7.45,2.98,12.46,8.39,18.1,12.58.16.12.31.25.49.29l28.28,17.45c8.71,5.37,17.06,9.58,25.62,13.29Z"/>
  <path class="cls-15" d="M446.93,131.98c-22.04-29.11-51.66-49.55-84.45-58.71l2,12.54c1.45,9.12-.76,16.76-6.19,23.67l-.72,4.97c.92,1.28,2.46,1.76,3.56,2.59,4.95-3.78,13.63,7.74,26.11,7.09l-1.7-5.63c-.72-1.32-1.69-3.58-3.15-4.35l1.52-2.18,28.28,17.46c8.71,5.37,17.07,9.58,25.62,13.29,3.89-3.25,8.92-1.54,9.77-5.35.24-1.06.46-3.93-.65-5.39ZM381.18,114.12c-5.42-2.95-13.23-5.84-15.86-15.02,7.46,2.99,12.46,8.39,18.11,12.58l-2.25,2.44Z"/>
  <path class="cls-6" d="M415.74,228.84c-.13,3.66-.78,7.3-2.04,10.64l-9.84.2c-14.72.44-28.5.24-42.53,5.87-38.33,15.39-79.23,17.6-119,6.99-2.28-.61-3.95-1.74-4.98-2.84.62-2.59-.07-5.14-2.46-8.93l7.32-1.77c-5.25-2.52-10.45-.1-15.35,2.38-1.43-1.15-2.02-3.17-2.75-4.48-1.24-2.23-1.01-4.23,1.92-4.55l25.81,5.69,3.29-.1c.64,2.35,3.19,1.87,5.02,1.9l4.8.07c1.29,2.33,4.38,2.08,6.59,1.68,3.36-.61,6.55.23,9.79.72,25.05,3.82,50.98-.44,76.28-8.25,8.39-2.59,15.75-3.41,23.73-3.38l19.08.08c3.94.02,8.38,1.32,11.6-1.82l3.71-.09Z"/>
  <path class="cls-7" d="M206.13,143.73c2.9.11,6.87.45,10.25,1.54l9.25,3c13.55,7.39,26.2,16.05,37.24,27.38-2.27.16-3.46,1.66-2.23,3.45,37.61,21.23,76.12,37.27,116.85,48.4,2.48.68,3.61.74,3.86,3.17-7.98-.03-15.34.78-23.73,3.38-25.3,7.82-51.23,12.07-76.28,8.25.62-2.2,2.54-2.67,4.7-2.56,16.85.81,45.44-1.53,47.63-8.17,2.67-8.07-24.16-18.95-39.33-28.17-3.79-2.3-7.06-7.14-10.87-6.97l-3.77.17c0-2.63-1.5-3.88-3.75-5.11l-21.84-11.89c-2.28-1.24-3.9-2.17-4.47-4.81,2.54.33,4.78,3.17,8.14.14-5.98-5.06-12.1-7.06-12.3-4.84-.06.63,1.35,1.54,1.44,2.2-.95.99-2.92,1.29-4.37.42-18.77-11.29-36.94-21.21-56.57-29.77l20.16.79Z"/>
  <path class="cls-7" d="M249.64,174.8c-1.62-.21-2.48-.62-2.72-2.51.51.65,1.55.62,2.18.93.47.23.78,1.05.54,1.57Z"/>
  <path class="cls-15" d="M417.93,169.26l-7.68-1.8c.21-1.8-.52-3.19-2.68-4.02-23.76-9.17-46.2-19.66-68.16-33.11-8.26-5.06-15.81-9.17-23.16-16.13-4.93-4.67-12.37-7.12-14.43-16.02,10.63.46,18.78,5.92,27.49,10.39l18.19,9.35,58.54,34.14c7.63,4.45,16.03,6.2,20.24,15.03-3.93,1.73-6.35,1.06-8.35,2.17Z"/>
  <path class="cls-16" d="M361.13,83.8c.56,5.48.73,11.89-.49,18.08l-6.93,9.97c-1.41,1.59-2.37,2.25-4.48,1.82-2.29-.47-2.08-3-3.15-3.75,6.72-3.3,4.46-20.85-.81-33.93-2.35-5.83-6.74-10.71-6.91-17,1.48-2.01,2.79-4.76,2.79-7.37-2.51,2.72-4.37,3.38-6.44,3.66l-1.22-1.37c-.69-5.14.28-9.39,1.07-15.26l-7.71,6.81c-2.66-3.66-1.78-7.23-1.58-10.4l.42-6.62,1.36-2.27c.26-1.44.83-2.79,1.81-4.16,5.33,1.25,9.59,5.74,12.79,11.66,8.64,15.98,17.64,32.17,19.46,50.12Z"/>
  <path class="cls-16" d="M140.8,51.43c-.16,1.16.87,1.78,1.71,1.58,4.55-1.08,8.33,1.72,12.36,4.72,15.27,11.37,27.64,25,37.73,41.26,1.32,2.12,1.84,5.1,3.84,6.86l.06,1.47.1,6.09c0,.43.27,1.23.17,1.67-1.71,1.44-3.16,3.97-3.85,6.38-1.45,1.69-3.99,3.44-5.56,1.17l.24-4.31c1.44-.91,2.59-2.16,3.26-3.27,1.12-1.86.94-4.56-.37-5.71-1.55,2.13-1.84,3.03-2.53,4.52-.52,1.12-2.48.49-3.54-.67-1.2-1.75-3.11-5.07-2.49-7.62.5-2.05.72-3.89-.53-8.03-1.96.71-4.22,1.44-6.48,1.06-.7-1.44-1.75-2.62-1.76-4.47,0-3.41.06-6.55-.82-10.51-3.15,2.61-4.97,3.74-7.42,4.06l-1.47-1.43c-1.11-4.04-3.6-7.28-3.77-13.02-1.31,3.07-3.8,5.1-6.26,5.67-.37.08-1.19.39-1.57.32-.77-4.73-.24-9.79-2.46-14.72-2.3,5.46-2.19,9.9-6.63,10.88-.73-4.67-2.3-8.4-5.48-9.38l.5-14.31,3.01-.27Z"/>
  <path class="cls-16" d="M526.22,133.02c-3.5,3.99-1.4,11.13-6.5,12.72-1.48-.98-3.12-1.77-4.83-1.93l-1.01-.09c-2.94-4.69-3.12-17.34.43-23.78-3.84-3.73-4.62-9.76-2.74-14.49.67-1.7,3.2-2.93,2.93-6.73-2.48.46-4.37.24-6.17-.23l-.58-3.26,6.64-11.31c-4.55,1.42-6.36,4.09-9.76,2.7l2.14-10.96c.77-3.96,4.69-5.96,6.39-9.14,3.75-1.18,6.47,3,7.89,7.47,6.12,19.3,4.3,39.47,5.18,59.03Z"/>
  <path class="cls-15" d="M168.79,128.04l5.03-.35,1.19-.1c-.42,1.88,1.57,2.44,1.95.46l1.4.37,6.99,1.06c2.03.31,4.17-.74,6.04-1.6.23,1.37,1.27,3.03,3.17,3.49,11.95,2.89,29.17,8.63,31.05,16.9l-9.25-3c-3.38-1.09-7.34-1.43-10.25-1.54.23-1.02.18-1.95-.16-2.54-2.36-4.15-52.27-10.57-71.81,8.32-.31-1.08.05-2.71.17-3.82.38-3.55,2.2-7.93,4.89-10.12,1.87-1.53,5.2-1.81,6.91-3.92l1.21-.28c2.98-.68,8.09-.77,8.42-4.7,5.92.1,9.74,4.9,13.03,1.36Z"/>
  <path class="cls-15" d="M461,118.49l4.85,3.75c2.23,1.72,5.38,2.71,7.89,3.03,1.85,5.66,8.93,2.95,11.99,4.31s6.32,7.31,10.82,6.31c1.97.21,5.1,2.85,7.26,2.79,1.46-.04,2.73,1.18,3.93,1.81.54,3.49,2.13,7.27,1.44,11.69-17.7,3.72-28.85-13.72-41.89-15.52l-1.47-1.51c.51-3.29-1.71-4.12-3.21-5.91l-9.38-11.16c-2.33-2.78-.67-5.16-.91-6.76l2.67-.12c-.38,4.37,3.31,5.21,6.01,7.3Z"/>
  <path class="cls-9" d="M333.49,53.91l1.22,1.37c1.17,1.31,2.05,2.83,3.65,3.71.17,6.29,4.56,11.17,6.91,17,5.27,13.08,7.52,30.62.81,33.93-1.04-.74-3.31-1.69-4.52-1.84l1.49-9.54c-1.1-16.35-9.63-42.23-17.28-44.89-6.91-2.4-13.59,12.55-19.24,24.39-1.56,3.28-2.46,5.83-.73,8.62-2.51-1.24-5.4-2.71-6.68-5.51,3.05-8.07,9.11-13.6,10.16-22.08.49.21,1.06.42,1.74.47,3.57-3.68,6.74-8.63,11.62-10.17,3.92-1.24,8.16,1.52,10.87,4.55Z"/>
  <path class="cls-16" d="M341.55,108.07c-2.73,0-6.07-2.17-8.49-3.48,2-.97,3.02-3.13,2.5-5.91l-3.98-21.34c-1.23-6.57-2.6-13.31-7.57-17.96-5.67,7.94-7.54,15.49-9.06,23.31-.49-1.31-1.4-3.73-1.89-3.7-.73.05-1.62,2.45-1.58,3.25s.63,1.55,2.82,2.86c-1.81,1.53-4.23,1.29-6.37,1.72l-2.16-.16c-1.73-2.8-.83-5.34.73-8.62,5.65-11.84,12.33-26.79,19.24-24.39,7.65,2.66,16.18,28.54,17.28,44.89l-1.49,9.54Z"/>
  <path class="cls-4" d="M333.07,104.59c-4.12-2.23-8.05-4.24-7.54-12.44-1.86,0-3.51.76-4.9,4.14-4.75-2.38-9.69-5.06-12.68-9.47,2.14-.43,4.56-.19,6.37-1.72-2.19-1.3-2.78-2.05-2.82-2.86s.85-3.2,1.58-3.25c.48-.03,1.4,2.39,1.89,3.7,1.52-7.82,3.39-15.37,9.06-23.31,4.97,4.65,6.34,11.38,7.57,17.96l3.98,21.34c.52,2.78-.5,4.94-2.5,5.91Z"/>
  <path class="cls-9" d="M507.74,95.22l.58,3.26c.44,2.48.52,5.98,3.24,6.96-1.87,4.73-1.09,10.76,2.74,14.49-3.55,6.44-3.37,19.09-.43,23.78l-6.15-3.22c-1.2-.63-2.47-1.84-3.93-1.81,2.49-15.64,4.03-39.96-2.12-44.89-7.26-5.83-22.1,9.79-32.28,21.52-1.96,2.26-3.36,4.23-3.56,6.93l-4.85-3.75c.32-2.78,1.57-5.14,3.26-7.08l1.55-1.77c9.48-8.19,18.81-17.52,31.34-21.2,4.79-1.41,9.82,2.48,10.59,6.78Z"/>
  <path class="cls-9" d="M431.49,42.52c.41-.16.68.29.53.77l1.21,15.32.03,3.5,1.08,5.74.81,14.41c.14,2.44-3.64,6.06-1.6,9.3-3.43-.77-5.04-4.21-6.74-7.51-.44-.85-.05-2.63.12-3.61,2.41-13.7,2.09-36.13-2.16-40.54-5.9-6.13-19.29,7.26-28.95,17.33-2.21,2.31-3.72,4.28-3.55,7.44-3.23-1.92-7.09-3.23-12.48-1.66,2.58-.27,1.75-2.66,1.4-3.05,4.45-.38,6.23-2.83,9.98-6.25l15.88-14.47c2.01-.6,5.2-1.1,7.53-2.54,7.08-4.38,13.23-.57,16.9,5.81Z"/>
  <path class="cls-16" d="M426.93,80.45l-2.17,2.19c-.43,0-.89-.05-1.24.07l-1.71-5.74c2.54-5.41,1.59-20.09.05-31.58-7.46,3.15-10.85,10.32-15.93,15.94-2.61,2.88-6.44,4.46-6.6,8.67l-2.24-.69c-.27-.08-.83.25-.98.41-1.06-1.64-2.24-4.09-3.84-5.03-.17-3.16,1.34-5.13,3.55-7.44,9.66-10.08,23.05-23.47,28.95-17.33,4.25,4.41,4.56,26.84,2.16,40.54Z"/>
  <path class="cls-4" d="M418.29,228.94l3.09.27c.55,5.09-3.43,8.75-4.95,13.69l-5.27,17.2c-.38,1.24.17,3.46.61,4.34.86,1.72,2.82.09,3.95-1.03-.82,2.02-.38,5.12-.43,7.29-8,8.41-4.02,30.39-11.46,37.02-.84-10.43,1.91-20.33,3.9-31.98-1.44-.89-2.99-.19-4.24.43l.07-9.87,10.14-26.81c1.26-3.34,1.91-6.98,2.04-10.64l2.55.1Z"/>
  <path class="cls-16" d="M307.39,54.74c-.24,1.77.32,3.65,1.87,4.32-1.04,8.48-7.11,14.01-10.16,22.08l-2.77-.64-2.03-1.94c-.84-.83-1.9-1.29-3-1.57-.17-.98-.93-1.94-1.8-1.84l-1.26.14-.24-2.16c.23-5.86,5.21-9.78,4.52-16.28.6.22,1.32.21,1.86.16.34,9.18,5.27-1.5,13-2.26Z"/>
  <path class="cls-1" d="M426.51,227.23l5.01.22c.68,0,1.48,0,2.74.53-.64,2.9-1.05,5.54-.67,8.41l-1.98.17c-1.55.13-3.44-.42-4.84.63-1,.75-1.36,2.48-2.04,4.16l-9,22.05c-1.13,1.12-3.09,2.75-3.95,1.03-.44-.88-.99-3.09-.61-4.34l5.27-17.2c1.51-4.93,5.49-8.59,4.95-13.69l2-1.89,3.13-.1Z"/>
  <path class="cls-16" d="M260.66,60.13l-.98,2.66c-.63-.65-2.39-.88-3.3-.74-.52-1.3-1.86-1.12-3-1.28-1.69-5.5-5.81-13.57-10.97-17.52-3.43,4.22-2.48,8.46-1.54,11.9l-2,.15-1.77,1.32c-2.27.16-4.24-.44-6.28-1.34,1.26-5.85,2.89-12.57,7.63-16.87,5.96-5.39,16.18,9.87,22.22,21.71Z"/>
  <path class="cls-7" d="M357.58,114.45c.91,1.28,2.45,1.76,3.55,2.59,13.4,10.11,29.09,14.43,44.56,21.2-15.39.93-52.78-21.53-52.56-20.76-.18-.64.14-2.57.7-3.06.73-.64,2.43-.33,3.75.03Z"/>
  <path class="cls-4" d="M253.38,60.77c-3.68-.52-7.67-3.19-11.48-1.93l-1.03-3.68c-.94-3.44-1.88-7.68,1.54-11.9,5.16,3.95,9.27,12.01,10.97,17.52Z"/>
  <path class="cls-7" d="M392.28,64.68c1.6.95,2.78,3.39,3.84,5.03-5.91-.67-10.11-4.4-16.31-6.7,5.38-1.57,9.24-.26,12.48,1.66Z"/>
  <path class="cls-14" d="M187.37,122.64c1.57,2.27,4.11.51,5.56-1.17-.55,1.93-.18,4.55-1.52,6.41-1.87.86-4.01,1.91-6.04,1.6-1.24-2.55-1.19-6.7,2.01-6.84Z"/>
  <path class="cls-7" d="M412.02,228.93c-3.21,3.14-7.65,1.84-11.6,1.82-.49-1.54.22-3.19,1.15-3.29l3.78-.41c2.87-.31,5.33,0,6.67,1.88Z"/>
  <path class="cls-7" d="M357.03,146.5c-3.04,1.1-5.71-.46-7.53-4.28,2.89-.31,5.04-.21,7.53,4.28Z"/>
  <path class="cls-7" d="M431.33,224.87l.19,2.57-5.01-.22c-.7-1.79.54-3.87,2.29-3.69.87.09,1.72.35,2.53,1.34Z"/>
  <path class="cls-7" d="M423.38,227.32l-2,1.89-3.09-.27c-.54-1.9.38-4.03,2.56-3.6.87.17,1.92.79,2.53,1.99Z"/>
  <path class="cls-7" d="M337.56,134.76c-.82,1.08-4.49.42-4.08-1.86.56-3.12,4.57-1.29,4.79,1.09.03.36.43.71.96.9l2.45.9c.45.17.65.68.84.87,1.48.57,2.94,1.51,4.07,2.72l1.55,1.65c-.89-1.46-2.19,0-.88.98l-1.48-1.72c-1.82.31-3.51-.76-4.09-2.7-.12-.39-.41-.74-.81-.91l-2.45-.91c-.38-.14-.7-.5-.88-1.01Z"/>
  <path class="cls-9" d="M519.72,145.73l.33,1.66c-1.17,0-2.73.42-4.15-.14-1.01-.4-1.59-2.05-1-3.45,1.71.16,3.35.94,4.83,1.93Z"/>
  <path class="cls-4" d="M364.48,85.8c1.45,9.13-.76,16.77-6.18,23.68-1.24.74-3.54,1.2-4.58,2.37l6.93-9.97c1.22-6.19,1.05-12.61.49-18.08l3.35,2Z"/>
  <path class="cls-7" d="M256.38,62.05c-.15.4-.36,1.59-.83,1.95-.98.74-1.87.02-2.05-.71-.15-.62.18-2.31-.12-2.52,1.15.16,2.49-.03,3,1.28Z"/>
  <path class="cls-9" d="M296.34,80.5c-.84-.2-1.57-1.13-2.03-1.94l2.03,1.94Z"/>
  <polygon class="cls-7" points="296.78 172.9 297.6 173.8 296.78 174.71 295.97 173.8 296.78 172.9"/>
  <path class="cls-7" d="M434.42,225.03c.59-.52,1.42-1.34,2.17-1.38-.21,1.11-1.18,1.43-2.17,1.38Z"/>
  <path class="cls-9" d="M291.31,76.99l-1.8-1.84c.87-.09,1.63.87,1.8,1.84Z"/>
  <polygon class="cls-7" points="326.18 125.81 327 126.72 326.18 127.62 325.36 126.72 326.18 125.81"/>
  <path class="cls-5" d="M484.86,301.33c-6.66.66-12.03,10.58-27.45,7.49-4.18,9.94-8.25,24.61-16.66,23.09-6.66-1.21-.9-16.22,7.83-27.96-11.74-5.96-22.62-13.74-30.02-26.08l-3.27-7.18c-8,8.41-4.02,30.39-11.46,37.02.39,4.84.12,10.76,1.97,14.99,6.43,14.73,20.33,25.81,35.81,22.64,11.3-2.31,17.49-16.65,26.49-21.97,2.49-7.82,10.07-13.36,15.44-18.96l1.34-1.4-.02-1.68ZM414.4,324.42c-3.91-11.84,3.14-27.49,7.97-26.35,4.87,1.15,4.55,21.66-7.97,26.35Z"/>
  <path class="cls-5" d="M511.62,351.68c-13.18-8.27-18.43-27.28-16.69-42.69-3.34-.07-4.75,3.21-7.12,6.19l-8.33,10.5c-2.4,3.03-3.68,6.41-7.13,6.7-.63,2.99-2.08,5.56-1.98,9,.33,10.66,4.44,23.37,13.36,27.66.9.43,3.68.67,4.92,0,11.05-5.98,22.04-8.86,32.83-12.93-1.57-3.53-6.63-2.41-9.86-4.43ZM473.82,347.75c1.45-15.44,16.94-25.24,16.66-17.85-.4,10.44-8.37,18.53-16.66,17.85Z"/>
  <path class="cls-5" d="M522.62,366.39c.16,4.21-1.79,8.05-3.28,12.33-2.42,6.96-1.25,14.4-2.29,21.5-1.2,8.19-1.83,15.66,2.08,22.26l-22.23-8.47c-2.57-8.15-3.85-15.57-3.66-23.94,7.04.74,14.59-5.88,13.27-9.66-2.02-5.8-9.6,1.69-9.74-3.47,7.52-5.87,16.94-8.36,25.84-10.54Z"/>
  <path class="cls-8" d="M576.86,355.39c.23,1.21-1.55,3.06-3.37,2.59-13.94-3.65-27.95-3.04-41.36,2.43-1.96.8-2.79,2.91-2.71,4.31l-6.8,1.67c-8.9,2.18-18.32,4.68-25.84,10.54-1.43,1.12-3.28,2.2-3.33,4.23-9.67-.79-13.33,13.4-21.5,12.69l13.6-15.84c-2-1.32-3.51-3.16-3.35-4.47.19-1.52,1.26-3.11,1.52-4.5.9.43,3.68.67,4.92,0,11.05-5.98,22.04-8.86,32.83-12.93.8-.3,2.33-.79,3.17-.38,1.98.97,3.67-1.28,5.01-1.38l22.19-1.63,25.02,2.68Z"/>
  <path class="cls-1" d="M493.25,390.06l.2-8.9c.05-2.03,1.9-3.11,3.33-4.23.14,5.16,7.72-2.33,9.74,3.47,1.32,3.78-6.23,10.4-13.27,9.66Z"/>
  <path class="cls-8" d="M481.79,376.86c-4.34,3.59-8.19,8.76-13.3,10.99-.09-.43-.22-1.66-.44-2.04l10.14-10.02c1.23-1.22,3.09-.4,3.6,1.07Z"/>
  <path class="cls-8" d="M472.35,332.38c-.63,2.99-2.08,5.56-1.98,9-10.37,7.41-11.65,26.8-23.92,37.05-1.08-3.28,1.36-5.2,3.07-6.67,1.29-21.98,14.27-34.89,18.57-48.39,2.49-7.82,10.07-13.36,15.44-18.96.25,7.7-7.02,8.33-11.18,27.97Z"/>
  <path class="cls-5" d="M394.24,272.69c-8.84,6.32-19.06,8.77-29.77,9.36.61-13.35,1.77-24.97-3.98-25.49-4.61-.42-7.8,14.13-7.52,26.76l-16.27.19c.26,6.63-.2,11.69-2.21,17.3-1.26,3.56-7.42,6.71-9.28,2.97-3.1-6.24-3.42-14.13-2.93-20.04-17.95.55-35.91-.56-53.75-1.75l2.53,16.14c.64,4.09-4.93,10.61-7.78,7.43-6.44-7.23-6.58-18-8.23-27.63,4.95,1.21,7.8,2.25,12.08,2.11-.68-9.64-5.05-21.59-9.57-20.73-5.57,1.06-2.97,8.2-4.29,17.13l-14.05-7.81c3.45,9.8,2.37,21.31,4.83,32.39l4.52,20.31c3.45.13,5.05,3.38,7.82,6.05,13.89,13.4,64.12,11.24,87.42,7.16-.4-8.19-1.88-18.67,3.33-25.2,3.61-4.52,10.53,5.09,7.83,23.61,17.15-1.16,31.07-12.15,38.5-29.71,3.64-8.62,9.95-17.63,10.02-27.08l.07-9.87c-3.86.06-6.07,4.07-9.32,6.4ZM291.45,333.98c-5.2.73-5.7-13.99.07-14.66,4.6-.54,6.75,13.7-.07,14.66ZM371.61,301.51c-4.47.14-3.13-10.76,1.24-10.36,3.11.28,4.03,10.19-1.24,10.36Z"/>
  <path class="cls-4" d="M248.57,321.32c3.45.14,5.05,3.38,7.82,6.06,13.9,13.39,64.12,11.24,87.42,7.16,3.56-.62,7.63-1.35,11.17-1.59,17.14-1.16,31.06-12.15,38.49-29.71,3.07,2.03,1.35,5.08,1.29,7.61l-.94,37.87c-.15,5.87-1.04,11.81-7.68,13.31-13.66,3.08-28.21,6.52-42.69,6.46l-54.09-.24-39.37-6.6c1.38-12.16.36-32.29-1.42-40.32Z"/>
  <path class="cls-12" d="M403.86,239.68c-14.72.44-28.5.24-42.53,5.87-38.32,15.38-79.22,17.6-118.99,6.98-2.28-.61-3.95-1.74-4.98-2.84-1.79-.33-3.77-.44-5.65.56l5.65,13.11,1.86,5.27,14.05,7.81c1.32-8.93-1.28-16.07,4.29-17.13,4.52-.86,8.89,11.09,9.57,20.73.58-.02,1.29,1.24,1.4,1.95,17.84,1.19,35.8,2.3,53.75,1.75l1.84-18.31c.26-2.77,6.36-6.9,8.14-4.58,4.92,6.38,4.02,15.53,4.44,22.66l16.27-.19c-.28-12.63,2.91-27.18,7.52-26.76,5.75.52,4.59,12.14,3.98,25.49,10.71-.59,20.93-3.04,29.77-9.36,3.25-2.33,5.46-6.34,9.32-6.4l10.14-26.81-9.84.2ZM280.36,276.78c-2.68-.94-2.81-9.32.63-9.7,3.68-.4,3.46,2.48,3.55,4.56.09,1.86.05,6.62-4.18,5.14Z"/>
  <path class="cls-5" d="M234.28,303.17l-12.55-42.82-3.61-2.97c.11,9.56,1.28,20.68-3.63,30.01-8.84,16.81-26.34,27.06-42.86,27,2.03,11.15,11.89,20.98,13.31,34.26,1.43,1.12,3.01,3.9,4.4,5.18,15.2,1.8,31.94-3.1,41.42-17.66l6.3-14.64c-.14-5.85-.89-12-2.78-18.36ZM185,334.68c-3.74-2.07-7.52-11.07-4.79-14.08,3.08-3.39,6.09.95,6.78,3.01,1.18,3.57,3.31,7.47-1.99,11.07ZM227.08,316.77c-.16,4.95.33,14.01-5.5,13.59-7.03-1.14-12.08-21.69-5.65-26.53,5.85-4.39,11.37,6.31,11.15,12.94Z"/>
  <path class="cls-4" d="M220.9,230.48c-3.95,7.13,6.99,23.03,7.84,38.27-3.8-2.73-4.48-6.14-7-8.4l-3.61-2.98c-.08-6.99-2.04-14.82-6.77-19.35l-1.68-11.1c2.99,1.42,8.39,1.81,11.23,3.55Z"/>
  <path class="cls-7" d="M235.46,230.92c.84.24,2.53-.01,3.38-.22,5.86,4.71,13.6,1.74,13.01,7.32l-25.81-5.69c-1.46-.32-3.95-1.13-5.13-1.86-2.84-1.75-8.24-2.14-11.23-3.55-4.27-2.03-8.54-3.88-13.42-4.68l.05-2.75,39.15,11.43Z"/>
  <path class="cls-5" d="M237.36,249.69c-1.79-.34-3.77-.44-5.65.55l5.65,13.11c-1.31-.46-2.6.58-2.72,1.63s.55,2.66-1.67,4.26l-5-20.14c-.62-2.5,1.16-5.91-1.11-7.74,4.9-2.48,10.1-4.9,15.35-2.38l-7.32,1.77c2.39,3.8,3.08,6.34,2.46,8.93Z"/>
  <ellipse class="cls-5" cx="238.9" cy="285.22" rx="1.87" ry="2.07"/>
  <polygon class="cls-4" points="229.82 272.52 229.85 273.7 229.85 274.92 229.82 276.1 229.79 274.92 229.79 273.7 229.82 272.52"/>
  <path class="cls-13" d="M520.73,447.34c-2.47,13.4-28.18,14.87-31.97,4.82-3.26-8.65,9.72-22.47,19.88-19.6,4.83,1.37,13.75,5.82,12.1,14.78Z"/>
  <path class="cls-5" d="M489.11,423.41l3.12,2.84c-.6,5.6-5.86,8.07-8.88,12.27-5.75,8-11.49,14.67-17.92,21.93-3.36,3.79-6.32,7.24-11.02,5.06-.32-2.45.79-4.56,1.35-6.64,3.11.18,4.92-2.29,7.23-4.78,8.68-9.37,16.89-18.19,22.31-29.55,1.11-.24,2.89-.35,3.82-1.12Z"/>
  <path class="cls-4" d="M519.08,423.8l.81.39-.24,2.35c-.02,2.18,2.17,1.76,1.86-.33,4.94,2.04,9.46,6.05,11.81,11.33l-4.41,2.51c-10.5-9.65-23.3-14.95-36.68-13.8l-3.12-2.84c12.71-10.45,19.81,3.46,29.97.39Z"/>
  <path class="cls-6" d="M547.31,466.91l-8.26-.73c1.06-4.72-.79-9.27-1.64-13.95-.11-1.71,1.37-4.36,2.1-5.95,5.07,5.03,7.96,13.12,7.8,20.64Z"/>
  <path class="cls-1" d="M539.51,446.27c-.73,1.59-2.21,4.24-2.1,5.95l-8.5-12.16,4.41-2.51c2.76,2.27,4.69,5.34,6.19,8.73Z"/>
  <path class="cls-5" d="M157.44,318.32c-1.71-1.31-3.46-2.1-5.26-2.35,2.28,7.01,8.09,14.34,6.14,23.3-2.64,12.11-14.99,18.15-25.66,16.6-3.07-.44-5.02.28-6.45,1.75.64,1.45,1.68,2.4,3.77,3.04l18.16,5.48,17.8,11.55c7.6.83,13.06-3.26,15.93-11.1-3.42-17.71-15.36-33.4-24.43-48.27ZM167.13,365.58c-1.34.91-3.48.03-5.74-2.07-2.12-1.97-5.64-6.6-2.07-9.12,1.68-.98,6.44,1.4,8.26,3.17,2.82,2.74,1.72,6.54-.45,8.02Z"/>
  <path class="cls-8" d="M122.78,357.63l3.43-.02c.64,1.46,1.68,2.4,3.77,3.04l18.16,5.49,17.8,11.55c1.48,1.65,2.18,6.33,5.52,7.3.7,2.37-.81,3.66-2.57,2.58-2.58-3.01-5.37-7.86-10.24-6.8-.86,3.78.72,5.85,1.75,7.59l-3.86.09c-3.91-7.34-11.55-11.01-18.41-14.28-3.79-1.81-9.94-2.82-12.86-6.08-1.87-2.08-3.88-7.28-7.43-7.99.68-.85,1.23-1.5,1.81-1.65l3.13-.82Z"/>
  <path class="cls-8" d="M165.32,393.77l-1.73.11-1.55-3.65c1.05-.13,2.33.3,2.88,1.19.43.68.49,1.73.4,2.35Z"/>
  <path class="cls-8" d="M162.04,390.23l-1.65-1.88c.57.21,1.3,1.26,1.65,1.88Z"/>
  <path class="cls-8" d="M158.62,309.06c2.21,5,4.91,9.03,8.49,14.04,6.18,8.65,9.93,19.37,17.83,25.54,1.44,1.12,3.01,3.9,4.4,5.18.02,4.61,2.07,9.68,3.72,15.06.83,2.69-4.41,6.05-5.66,4.61-2.28-2.62-3.67-5.24-5.53-6.91-3.42-17.71-15.37-33.4-24.44-48.26-.47-7.45-9.15-18.14-16.68-24.5-1.27-1.79.64-4.32,2.42-3.28,2.54,6.46,11.84,10.37,15.44,18.51Z"/>
  <path class="cls-12" d="M622.9,388.61c-3.4-10.32-20.53-20.08-30.04-22.77-20.7-5.86-42.5-4.48-63.44-1.11l-6.8,1.67c.17,4.21-1.79,8.04-3.28,12.33-2.42,6.96-1.24,14.4-2.29,21.5-1.2,8.19-1.82,15.66,2.09,22.26l-.06,1.32.81.39,1.62,2.02c4.94,2.04,9.46,6.05,11.81,11.33,2.76,2.27,4.69,5.33,6.19,8.73,5.08,5.03,7.97,13.12,7.8,20.63l1.31-.14,5.67-.15c21.04-4.13,39.98-19.32,53.08-38.82,8.87-11.89,17.15-26.37,15.53-39.19ZM588.17,411.51c-13.3,12.75-34.11,12.92-48.25,1.7-8.89-7.06-10.72-20.04-6.92-30.65,7.56-21.16,41.44-18.47,53.87-9,5.81,4.43,10.15,11.03,10.27,17.58.13,7.63-2.7,14.35-8.97,20.37Z"/>
  <path class="cls-5" d="M624.33,382.97c-.14,1.51-1.08,4.17-1.43,5.63-3.4-10.32-20.53-20.07-30.04-22.77l.54-5.23c11.76,4.26,23.08,10.86,30.93,22.37Z"/>
  <path class="cls-6" d="M557.22,185.76c.4.84,1.04,2.61,1.74,3.22.23,3.56,1.24,7.62-3.16,11.84l-9.35-16.69c-1.39-1.43-1.04-5.91.88-6.29,3.64,3.07,6.24,6.73,9.89,7.91Z"/>
  <path class="cls-6" d="M598.53,237.8c-.49.7-.43,1.63-.57,2.61l-20.85-2.12c7.5-3.99,14.96-2.27,21.42-.5Z"/>
  <path class="cls-6" d="M554.29,466.61c-.77.58-1.77,1.3-2.83,1.48s-2.18-.4-2.84-1.32l5.67-.16Z"/>
  <path class="cls-12" d="M76.22,253.63c-10.08-1.84-20.68-3.6-29.18,1.87-11.3,7.28-17.09,19.75-20.75,32.99-3.99,14.43-9.44,32.6.71,40.56,3.15,2.47,8.32,3.42,12.74,2,36.79-11.83,65.5,7.47,74.01-14.41,7.27-18.72-.34-39.73-15.59-50.9,2.44-.63,5.25.11,7.78,2.01l16.93,12.72,24.82,27.85c2.25,2.52,3.59,4.9,4.49,7.65,2.28,7,8.09,14.34,6.14,23.3-2.64,12.1-14.99,18.15-25.66,16.6-3.07-.45-5.02.27-6.45,1.74l-3.43.02c.28-1.02.45-2.81-.79-3.62-.7-.46-2.2,1.23-2.71,1.78-5.56-.92-13.53-3.06-19.12-3.48.07-1.05-.36-1.64-1.03-1.97-1.3-.63-2.49.36-2.52,1.74l-14.53.34c-10.24-5.55-23.77,1.05-36.57,6.48-12.32,5.23-24.44,12.24-30.87,26.31,9.06-4.15,13.83-12.3,21.85-14.91.14,3.2-2.23,4.23-4.41,6.2-13.52,12.22,1.74,38.15,17.94,52.74,7.72,6.95,18.53,6.89,26.42-.1,13.59-12.03,27.71-21.98,44.1-28.65,4.87-3.33,7.42-9.06,4.84-15.07-4.26-9.89-12.81-16.28-22.46-18.4-2.06-.45-2.76-2.05-2.55-3.58,8.34.25,16.31,3.61,24.89,4.63,2.93,3.25,9.07,4.27,12.86,6.08-.27,2,.51,3.82,2.33,5.5,6.3,5.82,7.92,16.54,2.83,22.11-5.94-4.66-18.24-4.3-21.2,4.98-.95,2.97,6.26,6.37,9.3,4.6,1.5,2.37.04,3.56-.6,4.76-19.74,7.17-43.62,27.15-38.45,48.86,1.62-3.63,3.21-3.78,4.63-4.43,1.12,1.59,1.3,3.48.07,4.7-.77.76-1.97,1.27-3.52,1.41-16.32,1.47-30.1-6.15-43.09-16.05-13.27-10.12-34.91-39.09-35.42-56.49-.18-6.2-.17-8.25-3.06-13.17-10.86-18.48-9.85-52.51-5.78-76.39,3.91-22.92,17.65-58.96,31.88-62.68,5.28-1.38,10.55.3,16.56,1.16l9.59,1.37-10.64,1.67,21.52,5.21c.59.14.74,1.04,1.15,2.34Z"/>
  <path class="cls-12" d="M218.12,257.38c-.08-6.99-2.03-14.82-6.77-19.35l-15.02-4.81c3.01,12.39-4.72,23.92-15.82,29.07-8.89,4.13-19.22,6.83-27.59.29l-18.2-14.2c-14.24-11.12-28.5-18.24-44.94-24.18,11.89,1.38,21.4,3.61,32.84.73,29.7-7.48,45.41-6.35,73.36,6.84l.27-9.52.06-2.75c-.28.5-.81.37-1.17.37-.72.03-1.66.18-2.68-.18-.96-.34-1.61-1.96-1.21-3.4-1.56-.63-2.96-1.45-4.62-1.54-5.54-.31-11.42-7.7-19.73-7.62l-19.42.2c.45,2.29-.48,3.86-2.63,3.85-1.71-.01-2.82-1.19-4.13-1.78-2.25-1.02-5.42-.1-7.72-.12-.41,7.74-15.75.57-26.12,4.02-6.8,2.27-13.66,6.08-20.32,1.75-8.75-5.69-.55-12.35-2.91-18.63-5.93.55-8.04,7.37-8.51,15.11-3.47-4.74-3.25-10.32-3.49-15.84-10.33,8.28-31.1,32.54-32.15,42.4,16.39-3.64,33.11-.87,48.26,6.16,13.16,6.11,25.45,14.37,37.04,24.72-4.1-7.8-12.14-11.23-18.84-18,10.22-.21,17.24,6.75,24.28,13.42,13.34,12.67,24.41,27.04,35.04,42.54,1.22,1.77,1.57,3.86,1.88,5.45,1.26.58,2.65,2,4.47,2.01,16.52.06,34.02-10.19,42.86-27,4.91-9.33,3.74-20.45,3.63-30.01ZM78.67,215.17l-.76,2.91c-1.82-.63-1.24-3.89.76-2.91ZM78.84,219.07l.8-.81c2.29.58,5.81.09,8.16,4.22-3.92,2.42-6.77-1.09-8.96-3.41Z"/>
  <path class="cls-12" d="M147.34,423.94c16.32,6.53,30.31,37.06,26.1,49.61-24.71,7.17-50.55,4.07-74.86-7.67l1.41-7.13c1.21-6.14,5.35-10.99,9.65-14.86.7,3.59-2.23,7.79-2.22,11.49.02,10.98,23.63,19.69,32.97,8.45,7.85-9.45,9.68-27.3,1.73-33.24-5.47-4.09-11.75,3.96-16.21,1.63,5.11-7.27,14.18-6.52,21.43-8.28Z"/>
  <path class="cls-1" d="M87.76,244.25c-1.22.7-2.77,1.64-3.05,1.98,5.24,5.67,9.77,7.27,14.68,10.79l24.72,17.72c1.38.99,2.17,2.55,1.62,3.74-.45.98-1.34,1.52-2.85,1.98l-16.93-12.72c-2.54-1.91-5.35-2.64-7.78-2.01-6.61-4.84-14.33-10.72-21.95-12.1-.41-1.3-.56-2.2-1.15-2.34l-21.52-5.21,10.64-1.67-9.59-1.37c-6-.86-11.28-2.53-16.56-1.16-.02-1.15,1.35-2.74,1.46-3.81,16.38-3.64,33.11-.86,48.25,6.17Z"/>
  <path class="cls-15" d="M133.64,160.13c.83-3.91-1.53-8.93-2.71-12.59-2.67-1.15-5.27-2.49-8.1-2.71l-6.63,7.7c1.89-5.87,3.12-12.97-1.62-14.05-13.3,5.74-15.77,23.41-11.1,37.94,1.02,3.16,4.22,5.53,3.01,9.29,7.21,6.85,15.22,11.56,24.34,13.09-.09-6.88-7.14-9.28-6.36-16.94,4.94.6,8.02,3.4,11.61,4.89l8.82,3.67.95.27,6.29.07c7.98-7.11-21.61-16.04-18.5-30.63ZM113.27,165.84c-.75-3.93.42-5.9,2.3-9.22,1.68,2.97,1.38,7.36-2.3,9.22Z"/>
  <path class="cls-15" d="M96.99,153.34c-3.66,11.45-2.78,27.67,6.25,35.23-.61,4.51,2.34,7.18,4.11,10.51,1.36,2.57-2.15,4.3-3.66,4.18-8.18-.67-15.3-10.53-17.7-18.41-4.36-14.3,1.81-29.14,11.42-38.16,1.86,3.24.19,5.26-.42,6.65Z"/>
  <path class="cls-11" d="M133,209.27c-.41,7.75-15.75.57-26.11,4.02-6.81,2.27-13.66,6.08-20.33,1.75-8.75-5.69-.54-12.35-2.91-18.63l-.18-3.12c2.71-.22,3.17,3.7,4.77,5.27,5.84,5.74,13.63,10.35,21.49,10.44l23.27.27Z"/>
  <path class="cls-14" d="M132.61,106.45c-2.22,15.7-.49,25.98-.07,39.28-.15.94-.78,1.65-1.62,1.8-2.67-1.15-5.27-2.49-8.1-2.71l.1-2.83-5.02-19.71c3.58,1.68,8.09,1.11,11.55,1.01-.31-6.12.83-10.59-1.99-14.16-1.9-2.4-6.21-3.65-9.53-3.45l.16-4.22c2.41.64,4.72-1.13,6.2-3.34-.96,2.67-.22,5.26,2.2,6.43,1.83.88,3.98,1.58,6.12,1.9Z"/>
  <path class="cls-7" d="M106.49,185.7c7.21,6.85,15.22,11.57,24.33,13.09,4.47.75,8.68,2.22,15.29,1.23-8.89,8.58-31.4-1.84-42.88-11.45-9.03-7.57-9.91-23.79-6.25-35.23,2.57,3.85.06,8.22,0,12.4-.1,8.28,4.97,15.66,9.5,19.97Z"/>
  <path class="cls-7" d="M158.86,198.35c-1.35,0-2.45-.79-3.34-1.89,1.19.12,2.66.74,3.34,1.89Z"/>
  <path class="cls-7" d="M152.14,190.75l1.71,3.84c-4.7.5-7.72-.23-7.99-3.91l6.29.07Z"/>
  <path class="cls-7" d="M155.52,196.45l-1.67-1.86,1.67,1.86Z"/>
  <path class="cls-7" d="M186.63,214.74c-5.54-.31-11.43-7.7-19.73-7.61.75-5.44-5.12-3.85-8.04-8.78,2.49-.13,4.82.8,7.49,2.34l16.25,9.39c2.21,1.28,3.65,2.44,4.03,4.66Z"/>
  <path class="cls-7" d="M144.9,190.41c-5.17.62-10.49,1.54-15.61-.39,3.08-.79,5.57-.84,6.8-3.27l8.81,3.67Z"/>
  <path class="cls-11" d="M147.48,207.33c.44,2.29-.48,3.86-2.63,3.85-1.72,0-2.82-1.18-4.14-1.78,1.51-2.82,4.46-2.04,6.77-2.06Z"/>
  <path class="cls-16" d="M441.08,97.42c-.29-.27-.97-.41-1.36-.45-.5-1.54-1.9-2.28-3.36-2.21-.59-1.05-1.67-2.93-2.81-3.19-2.04-3.24,1.74-6.86,1.6-9.3l-.81-14.41c3.14-.6,5.72-2.96,7.14-7.67-3.32,2.06-5.44,2.35-8.22,1.93l-.03-3.5c2.05-2.34,1.19-7.49,6.18-15.27-2.36.49-5.16,1.15-7.39-.06.15-.48-.12-.93-.53-.77-.05-5.29,3.43-8.43,6.22-12.48l-11.48,3.58,4.01-12.76c1.16-3.69,4.43-6.08,6.5-9.18,3.34.4,5.85,4.07,7.08,8.56,6.16,22.41,8.84,60.81-2.73,77.18Z"/>
  <path class="cls-4" d="M421.82,76.97c-1.13-3.85,1.04-8.69-.89-12.89-2.1,7.3,1.27,13.54-3.25,15.42-5.81-4.18-11.79-7.49-18.35-9.5.16-4.2,4-5.79,6.6-8.67,5.09-5.62,8.48-12.79,15.93-15.94,1.54,11.49,2.49,26.17-.05,31.58Z"/>
  <path class="cls-6" d="M421.82,76.97l1.71,5.74c-3.08,1.09-4.24-2.07-5.84-3.22,4.53-1.88,1.15-8.12,3.25-15.42,1.92,4.21-.25,9.05.89,12.89Z"/>
  <path class="cls-16" d="M454.99,111.19l-2.67.12c-.37-2.42-2.14-5.15.5-7.27,1.34.36,2.95,1.42,4.05,3.49.59,1.11-.16,2.88-1.87,3.67Z"/>
  <path class="cls-10" d="M465.81,135.14c-1.18.12-2.53-.6-2.93-1.55-.6-1.45-.59-2.88-.28-4.35,1.5,1.79,3.72,2.62,3.21,5.91Z"/>
  <path class="cls-9" d="M439.72,96.97c-1.38-.14-2.61-.87-3.36-2.21,1.46-.07,2.87.67,3.36,2.21Z"/>
  <path class="cls-6" d="M426.81,84.06l-2.04-1.42,2.17-2.19c-.17.98-.56,2.76-.12,3.61Z"/>
  <path class="cls-14" d="M325.28,35.07c-.2,3.17-1.08,6.74,1.58,10.4l7.71-6.81c-.79,5.87-1.76,10.12-1.07,15.26-2.71-3.03-6.95-5.79-10.87-4.55-.14-3.74.59-8.39-2.33-10.56.86-2.29,2.76-3.59,4.99-3.73Z"/>
  <path class="cls-16" d="M322.62,49.36c-4.88,1.54-8.05,6.49-11.62,10.17.07-1.9-.48-3.98-2.09-4.63,1.78-7.92,9.61-11.38,11.38-16.11,2.92,2.17,2.19,6.82,2.33,10.56Z"/>
  <path class="cls-9" d="M323.37,22.93c-1.85,6.18-6.1,9.6-11.01,10.77-.2-5.2,3.49-6.82,5.89-9.81l1.92-2.4c.94-1.18,3.84-.74,3.19,1.44Z"/>
  <path class="cls-14" d="M311,59.54c-.68-.05-1.25-.26-1.74-.47-1.55-.67-2.11-2.55-1.87-4.32.45-.04,1.08-.01,1.52.17,1.61.64,2.17,2.73,2.09,4.63Z"/>
  <path class="cls-14" d="M325.7,28.45c.06-1.01.5-1.82,1.36-2.27l-1.36,2.27Z"/>
  <path class="cls-14" d="M430.24,20.86l-4.01,12.76,11.48-3.58c-2.79,4.05-6.26,7.2-6.22,12.48-3.67-6.38-9.82-10.19-16.9-5.81-2.33,1.44-5.52,1.94-7.53,2.54l.12-7.45c9.08-3.21,15.66-7.48,23.06-10.94Z"/>
  <path class="cls-9" d="M431.52,7.84c.73,4.17-6.17,8.11-10.76,8.78-1.28.19-2.51-1.74-2.32-3.4,3.59-3.4,8.34-5.3,13.09-5.38Z"/>
  <path class="cls-14" d="M151.86,79.22c-4.36-3.28-11.04-.28-13.55,5.81-2.03,4.93-3.54,9.65-5.11,14.12-.33-1.83-.79-3.8-2.21-4.97-.8-.65-2.22-.89-3.44-.92,5.18-7.77,7.53-17.76,9.74-27.25,3.18.98,4.75,4.7,5.48,9.38,4.44-.99,4.33-5.43,6.63-10.88,2.22,4.92,1.69,9.98,2.46,14.72Z"/>
  <path class="cls-16" d="M133.2,99.15c-.62,1.78-.28,5.17-.58,7.3-2.13-.32-4.28-1.01-6.12-1.9-2.41-1.16-3.16-3.75-2.2-6.43l3.25-4.87c1.22.03,2.64.27,3.44.92,1.42,1.17,1.88,3.14,2.21,4.97Z"/>
  <path class="cls-9" d="M132.97,54.6c-.04,7.8-2.44,13.59-5.35,12.58-.44-.15-.96-.84-1.32-1.14.38-4.83,2.37-10.62,6.66-11.44Z"/>
  <path class="cls-16" d="M279.83,56.93c-.42-.09-1.12,0-1.51.17-.8.36-1.33,1.23-2,1.78l-1.56,1.29-3.29.59c-.81-.11-2.26-.31-3-.07-1.52-1.05-1.88-5.15-2.42-7.18-4.23-2.75-7.44-6.9-10.42-11.75l-8.84-7.93,1.29-12.85c-2.79,2.18-4.2,5.46-6.52,8.6-2.98-2.46-3.64-5.62-4.46-8.41-1.32-4.49.24-10.37.26-14.82,14.34-.6,29.57,23.26,40.14,40.28,2.15,3.47,2.99,6.65,2.32,10.3Z"/>
  <path class="cls-14" d="M237.11,21.17c.82,2.79,1.48,5.95,4.46,8.41,2.31-3.14,3.72-6.42,6.52-8.6l-1.29,12.85c-10.99-3.58-16,7.31-20.92,21.37-1.65.49-3.33,1.48-5.06,1.86l-1.61-.07c-2.78,0-5.48.66-8.89,1.16-1.26-2.47-1.08-4.58-.94-6.61,7.66,2.73,21.48-18.54,23.63-26.38l.89-3.27c.25-.92,1.99-1.02,3.21-.73Z"/>
  <path class="cls-9" d="M222.77,19.76c2.24-5.23,4.67-13.2,9.73-13.37.02,5.94-2.97,15.2-9.73,13.37Z"/>
  <path class="cls-9" d="M246.8,33.83l8.84,7.93c2.98,4.85,6.19,8.99,10.42,11.75.54,2.03.9,6.13,2.42,7.18-2.42,1.43-5.33.38-7.81-.55-6.05-11.84-16.27-27.1-22.22-21.71-4.74,4.29-6.37,11.02-7.63,16.87-1.17-.52-3.69-.45-4.93-.08,4.92-14.07,9.93-24.96,20.92-21.37Z"/>
  <path class="cls-8" d="M288.02,73.13c-.85.39-2.87.11-3.28-.93-.35-.89,3.61-11.63,7.8-15.35.69,6.5-4.3,10.42-4.52,16.28Z"/>
  <path class="cls-9" d="M274.75,60.17c-.21.46-.48,1.56-1.14,1.98-.62.39-1.87-.42-2.14-1.39l3.29-.59Z"/>
  <path class="cls-8" d="M276.32,58.88c.67-.55,1.2-1.41,2-1.78l-2,1.78Z"/>
  <path class="cls-10" d="M203.68,63.37c-1.62,6.57-16.15,6.39-21.8,13.42-1.27-.71-3.26-1.55-3.89-3.2,8.21-4.23,16.86-10.18,25.69-10.22Z"/>
  <path class="cls-10" d="M196.44,105.85c-2-1.77-2.53-4.74-3.84-6.86l.49-4.22c2.1,3.36,3.16,6.87,3.35,11.08Z"/>
  <path class="cls-14" d="M142.51,53.01c-.84.2-1.87-.42-1.71-1.58.6-.05,1.37,1.03,1.71,1.58Z"/>
  <path class="cls-11" d="M513.7,62.29l-.55,4.23c-1.7,3.18-5.62,5.18-6.39,9.14-11.87,5.55-27.28,14.49-37.34,10.65,7.5-9.14,17.68-15.99,27.92-20.73-.24,1.3-.45,3.81.35,4.39.4.29,10.29-2.15,12.04-7.8l3.97.13Z"/>
  <path class="cls-10" d="M212.88,60.56c-.24,1.01-.66,2.94-1.56,3.36-1.18.54-3.32.13-4.27.01.55-2.97,3.26-4.04,5.83-3.37Z"/>
  <path class="cls-9" d="M237.09,56.63l1.77-1.32c-.27.91-.95,1.26-1.77,1.32Z"/>
  <path class="cls-9" d="M219.21,57l1.61.07c-.02,1.84-1.76,1.95-1.61-.07Z"/>
  <path class="cls-14" d="M506.76,75.66l-2.14,10.96c3.4,1.39,5.21-1.28,9.76-2.7l-6.64,11.31c-.77-4.3-5.8-8.19-10.59-6.78-12.53,3.69-21.86,13.01-31.34,21.2.31-3.82,3.69-6.46,6.55-9.13l-5.05-11.85.17-2.42,1.93.07c10.06,3.84,25.47-5.09,37.34-10.65Z"/>
  <path class="cls-9" d="M509.72,62.16c-1.75,5.65-11.64,8.09-12.04,7.8-.8-.58-.59-3.09-.35-4.39,4.04-1.87,7.87-3.56,12.39-3.41Z"/>
  <path class="cls-2" d="M165.68,402.89c-2.87-.19-2.91-3.59-.19-3.52-.19,1.05-.32,2.68.19,3.52Z"/>
  <path class="cls-16" d="M117.92,122.28l.03-16.6c3.32-.2,7.63,1.05,9.53,3.45,2.83,3.57,1.69,8.04,1.99,14.16-3.46.1-7.97.68-11.55-1.01Z"/>
  <path class="cls-16" d="M467.31,88.65l5.05,11.85c-2.86,2.67-6.23,5.31-6.55,9.13l-1.55,1.77c-2.75.55-4.27-4.75-7.68-10.95,1.89-5.04,6.27-9.79,10.73-11.8Z"/>
  <path class="cls-13" d="M604.84,285.02c-.87-10.42-.6-23.6-8.04-30.7-8.97-8.54-20.77-3.04-30.38.94-22.17,9.18-51.78,24.73-46.39,48.18,6.09,26.49,44.3,26.9,68.01,15.4,13.22-6.42,18.03-19.3,16.8-33.82ZM585.8,273.2c-2.03,5.54-11.27,2.46-14.74.78-4.59-2.23-6.4-4.79-5.79-9.56.51-3.92,3.92-5.76,8.46-5.72,6.26.05,15.51,5.09,12.07,14.5Z"/>
  <path class="cls-13" d="M431.61,236.56l1.98-.17c12.61-1.1,25.42-4.82,37.99-10.22l23.5-10.1c13.5-5.8,26.07-11.81,41-11.26,6.51.24,12.98-1.38,19.46-3-.97,26.61-39.1,10.53-71.21,40.57-12.74,11.92-28.46,32.46-44.61,18.51-6.51-5.62-8.75-14.98-8.13-24.32Z"/>
  <path class="cls-4" d="M521.06,274.76l-17.39,17.87c-4.75,4.88-7.96,9.44-8.74,16.35-3.34-.08-4.75,3.21-7.12,6.19l-8.34,10.51c-2.4,3.03-3.68,6.4-7.12,6.7,4.17-19.65,11.43-20.28,11.18-27.97l1.34-1.4c1.08.67,3.18.21,3.49-.85.33-1.13-.22-2.89-.35-3.6,2.39-6.73,9.02-12.62,14.94-17.32,5.8-6.75,10.85-13.37,18.32-15.91,1.61-.19,2.18,1.38.99,2.35-2.85,2.16-1.82,5.19-1.22,7.1Z"/>
  <path class="cls-5" d="M551.24,249.27c7.42-7.1,16.47-6.7,25.82-10.6-13.48-1.89-27.3,4.52-38.44,12.52,1.11.82,1.43,2.24.83,2.93-3.92,2.22-7.43,5.14-7.79,9.35,3.05-1.61,5.39-1.55,5.98.44,15.35-8.14,30.52-15.71,47.59-17.52-11.64-3.04-21.4,2.33-33.99,2.88ZM544.77,253.52h-1.11l-1.06-.03,1.06-.03h1.11l1.06.03-1.06.03ZM549.67,249.9h-1.11l-1.06-.03,1.06-.04h1.11l1.06.04-1.06.03Z"/>
  <path class="cls-1" d="M576.86,355.39c6.02.64,11.13,3.25,16.53,5.21l-.54,5.23c-20.7-5.86-42.5-4.48-63.44-1.11-.08-1.4.75-3.51,2.71-4.31,13.41-5.47,27.42-6.07,41.36-2.43,1.81.47,3.6-1.37,3.37-2.59Z"/>
  <path class="cls-1" d="M451.6,303.1c-.16,1.14.31,2.62,1.03,3.11,1.11.76,2.41.69,3.68.82,1.04.11,1.3,1.29,1.09,1.79-4.17,9.94-8.24,24.62-16.66,23.09-6.66-1.21-.9-16.22,7.83-27.95,1.47.19,2.29-.34,3.02-.85Z"/>
  <path class="cls-1" d="M538.62,251.19c1.11.82,1.43,2.24.84,2.93-3.93,2.21-7.43,5.14-7.79,9.34,3.05-1.61,5.39-1.55,5.98.44-5.62,2.98-9.93,9.36-16.57,10.86-.6-1.91-1.63-4.94,1.22-7.1,1.19-.97.61-2.54-.99-2.35,3.2-7.81,11.42-9.47,17.33-14.13Z"/>
  <path class="cls-5" d="M456.31,307.02c-1.27-.13-2.58-.06-3.68-.82-.72-.49-1.19-1.97-1.03-3.11,1.03-1.08,1.54-1.56,2.54-1.76,1.38-.27,3.2,1.6,2.78,2.87l-.6,2.82Z"/>
  <path class="cls-5" d="M529.66,354.35c-1.34.1-3.03,2.35-5.01,1.38-.61-2.17.17-3.82,2.42-3.72,1.35.06,2.36.21,2.59,2.34Z"/>
  <path class="cls-8" d="M484.88,303l-.02-1.68c1.22-.12,2.53-1.41,3.16-2.77.13.7.68,2.47.35,3.6-.31,1.07-2.41,1.52-3.49.85Z"/>
  <path class="cls-10" d="M196.61,113.42l-.1-6.09c1.3.33,1.47,1.78,1.42,3.12-.05,1.12-.1,2.45-1.32,2.98Z"/>
  <path class="cls-7" d="M271.54,241.57c-2.22.4-5.3.65-6.59-1.68,1.05-1.45,2.49-1.86,3.99-2.01,2.13-.21,3.12,1.51,2.6,3.69Z"/>
  <path class="cls-7" d="M260.15,239.82c-1.83-.03-4.38.45-5.02-1.9.73-1.28,2.56-2.2,4.01-1.6,1.11.46,1.32,2.41,1,3.5Z"/>
  <path class="cls-15" d="M279.7,196.6l3.77-.17c-1.05,6.18,11.4,7.71,15.33,18.56-7.96,3.79-14.95,1.49-22.69-.13-31.65-6.63-62.2-16.26-90.13-34.02-8.41-5.35-17.69-11.21-21.95-21.02-2.14-4.94,5.64-7.77,9.45-7.2,25.26,3.74,47.39,14.01,70.24,25.65l35.97,18.33Z"/>
  <path class="cls-14" d="M338.36,58.99c-1.59-.88-2.47-2.39-3.65-3.71,2.07-.28,3.92-.95,6.44-3.66,0,2.61-1.31,5.36-2.79,7.37Z"/>
  <path class="cls-9" d="M151.86,79.22c.38.07,1.2-.23,1.57-.32,2.68,3.26,7.09,4.48,10.04,7.36l1.47,1.43c.61,4.48,4.41,6.31,8.24,6.45,0,1.85,1.06,3.03,1.76,4.47,1.56,3.19,3.35,6.37,7.01,6.98-.62,2.55,1.3,5.87,2.49,7.62.48.7.26,2.92.75,4.06.34.79,1.17,1.6,2.43,1.07l-.24,4.31c-3.19.13-3.25,4.29-2.01,6.84l-6.99-1.06c4.61-16.69-24.84-47.79-33.12-45.73-7.56,1.88-10.89,34.92-6.04,52.88-2.68,2.19-4.5,6.57-4.89,10.12l-1.79.04c-.42-13.31-2.15-23.59.07-39.28.3-2.14-.04-5.53.58-7.3,1.56-4.47,3.07-9.2,5.11-14.12,2.51-6.09,9.19-9.09,13.55-5.81Z"/>
  <path class="cls-14" d="M173.17,94.13c-3.83-.13-7.63-1.96-8.24-6.45,2.45-.33,4.27-1.45,7.42-4.06.89,3.96.82,7.1.82,10.51Z"/>
  <path class="cls-14" d="M163.46,86.25c-2.94-2.88-7.36-4.09-10.04-7.36,2.47-.56,4.95-2.59,6.26-5.67.17,5.74,2.66,8.98,3.77,13.02Z"/>
  <path class="cls-14" d="M181.94,105.58c-3.66-.61-5.46-3.79-7.01-6.98,2.27.38,4.53-.35,6.48-1.06,1.25,4.14,1.03,5.98.53,8.03Z"/>
  <path class="cls-14" d="M187.61,118.33c-1.26.53-2.09-.28-2.43-1.07-.49-1.14-.27-3.36-.75-4.06,1.05,1.16,3.02,1.79,3.54.67.69-1.48.98-2.39,2.53-4.52,1.31,1.15,1.49,3.85.37,5.71-.67,1.11-1.82,2.36-3.26,3.27Z"/>
  <path class="cls-14" d="M511.56,105.44c-2.72-.98-2.8-4.48-3.24-6.96,1.8.47,3.69.7,6.17.23.27,3.8-2.25,5.03-2.93,6.73Z"/>
  <path class="cls-16" d="M178.38,128.42l-1.4-.37-1.95-.46-1.19.1c-1.35-9.83-9.11-16.22-13.8-24.54-2.41-4.28-2.98-9.67-7.97-11.51-1.28-.47-2.99-2.61-4.04-2.49-1.6.17-3.56,2.61-2.52,6.82.87,1.27,2.69.48,3.03-2.84l-2.59,32.28c-.06,1.48-.22,3.01-1.49,4.16-1.44-10.37.33-18.89,1.65-29.6.87-3.83-3.52-3.4-1.69.12-1.73,15.82-4.95,32.27,1.72,31.57-1.72,2.11-5.04,2.39-6.91,3.92-4.85-17.96-1.52-51.01,6.04-52.88,8.28-2.05,37.73,29.04,33.12,45.73Z"/>
  <path class="cls-4" d="M173.83,127.68l-5.03.35c-4.59.23-6.54-4.5-8.57-8.76-1.87-1.31-3.84.18-3.93,1.18l-.53,6.23c-.34,3.93-5.44,4.02-8.42,4.7.33-1.9.61-4.8-1.4-5.97l2.59-32.28c-.34,3.32-2.15,4.11-3.03,2.84-1.04-4.21.92-6.65,2.52-6.82,1.05-.11,2.76,2.02,4.04,2.49,4.98,1.84,5.55,7.23,7.97,11.51,4.69,8.32,12.45,14.72,13.8,24.54Z"/>
  <path class="cls-9" d="M168.79,128.04c-3.3,3.54-7.12-1.26-13.03-1.36l.53-6.23c.08-.99,2.06-2.49,3.93-1.18,2.04,4.26,3.98,8.99,8.57,8.76Z"/>
  <path class="cls-1" d="M145.94,125.41c2.01,1.17,1.73,4.07,1.4,5.97l-1.21.28c-6.68.71-3.46-15.74-1.72-31.57-1.83-3.52,2.57-3.95,1.69-.12-1.32,10.72-3.09,19.23-1.65,29.6,1.26-1.16,1.43-2.68,1.49-4.16Z"/>
  <path class="cls-7" d="M213.98,207.88l-28.65-8.95c-16.27-7.4-31.62-17.17-44.91-30.95-2.32-2.41-2.44-5.26-3.03-7.77,2.23-.84,4.67-2.16,7.12-1.56,1.94.47,3.16,3.01,4.89,4.77,12.67,12.94,27.28,21.78,42.27,31.04,12.79,7.91,24.61,5.63,22.31,13.43Z"/>
  <path class="cls-7" d="M134.16,149.51l3.22,10.69c-.94.35-2.41.08-3.75-.07.83-3.91-1.53-8.93-2.71-12.59.84-.15,1.47-.86,1.62-1.8l1.79-.04c-.12,1.11-.49,2.74-.17,3.82Z"/>
  <path class="cls-9" d="M175.02,127.59l1.95.46c-.39,1.97-2.37,1.42-1.95-.46Z"/>
  <path class="cls-16" d="M503.8,138.68c-2.15.06-5.29-2.58-7.26-2.79l1.52-16.13c.64-6.95,4.48-12.79.42-20.69-3.67,7.11-7.77,9.18-12.16,13.48l-12.59,12.71c-2.52-.32-5.67-1.3-7.89-3.03.2-2.71,1.6-4.68,3.56-6.93,10.18-11.73,25.01-27.35,32.28-21.52,6.15,4.94,4.61,29.26,2.12,44.89Z"/>
  <path class="cls-4" d="M496.55,135.89c-4.49,1-7.79-4.97-10.82-6.31s-10.14,1.35-11.99-4.31l12.59-12.71c4.39-4.31,8.48-6.37,12.16-13.48,4.06,7.9.22,13.74-.42,20.69l-1.52,16.13Z"/>
  <path class="cls-14" d="M433.22,58.61l-1.21-15.32c2.22,1.2,5.02.55,7.39.06-4.98,7.78-4.13,12.93-6.18,15.27Z"/>
  <path class="cls-14" d="M434.33,67.85l-1.08-5.74c2.79.42,4.9.13,8.22-1.93-1.42,4.72-4.01,7.07-7.14,7.67Z"/>
  <path class="cls-1" d="M422.37,298.06c4.87,1.15,4.54,21.66-7.97,26.35-3.91-11.84,3.14-27.49,7.97-26.35Z"/>
  <path class="cls-1" d="M490.48,329.9c-.4,10.44-8.36,18.52-16.66,17.84,1.45-15.44,16.94-25.24,16.66-17.84Z"/>
  <path class="cls-1" d="M267.13,280.03c.58-.02,1.29,1.24,1.4,1.95l2.53,16.14c.64,4.08-4.93,10.61-7.77,7.42-6.44-7.22-6.58-18-8.23-27.63,4.95,1.22,7.8,2.26,12.08,2.11Z"/>
  <path class="cls-1" d="M336.7,283.51c.26,6.62-.2,11.69-2.2,17.3-1.27,3.56-7.42,6.71-9.28,2.97-3.1-6.24-3.42-14.13-2.93-20.04,4.8-.15,9.57-.17,14.41-.23Z"/>
  <path class="cls-1" d="M354.97,332.94c-3.53.24-7.6.97-11.17,1.59-.4-8.19-1.88-18.67,3.33-25.2,3.61-4.52,10.53,5.09,7.83,23.61Z"/>
  <path class="cls-1" d="M291.45,333.98c-5.2.73-5.69-13.99.08-14.66,4.6-.54,6.75,13.7-.08,14.66Z"/>
  <path class="cls-12" d="M371.61,301.5c-4.47.14-3.12-10.76,1.24-10.36,3.11.28,4.03,10.19-1.24,10.36Z"/>
  <path class="cls-6" d="M336.7,283.51c-4.84.06-9.62.08-14.41.23l1.83-18.31c.27-2.77,6.36-6.9,8.15-4.59,4.92,6.38,4.02,15.54,4.43,22.67Z"/>
  <path class="cls-5" d="M280.36,276.77c-2.68-.94-2.81-9.31.63-9.69,3.68-.41,3.46,2.47,3.56,4.55.08,1.86.04,6.62-4.18,5.14Z"/>
  <path class="cls-1" d="M227.08,316.76c-.16,4.95.33,14.01-5.5,13.59-7.03-1.14-12.08-21.69-5.65-26.53,5.85-4.39,11.36,6.31,11.15,12.94Z"/>
  <path class="cls-1" d="M167.16,312.38c1.26.58,2.65,2,4.48,2.01,2.03,11.15,11.89,20.98,13.3,34.26-7.9-6.17-11.65-16.89-17.83-25.54-3.58-5.01-6.27-9.04-8.49-14.04l8.54,3.32Z"/>
  <path class="cls-1" d="M185,334.68c-3.74-2.07-7.52-11.07-4.78-14.08,3.08-3.39,6.09.95,6.78,3.01,1.18,3.57,3.32,7.47-1.99,11.07Z"/>
  <path class="cls-6" d="M209.67,226.92l1.68,11.1-15.02-4.81-.35-1.45.27-9.52c4.88.8,9.15,2.65,13.42,4.68Z"/>
  <path class="cls-15" d="M213.98,207.88l37.94,15.46c1.78.73,3.87,3.33,3.39,4.65-2.03,5.63-11.62-.25-16.48,2.72-.85.21-2.54.46-3.38.22.43-.91.07-3.34-1.57-3.72-17.34-3.93-32.94-12.19-47.31-23.49-1.31-1.03-1.47-3.56-1.25-4.79l28.65,8.95Z"/>
  <polygon class="cls-5" points="521.51 426.21 519.65 426.55 519.89 424.19 521.51 426.21"/>
  <path class="cls-8" d="M519.65,426.55l1.86-.33c.31,2.09-1.88,2.51-1.86.33Z"/>
  <path class="cls-4" d="M124.8,268.97c4.41,8.38,14.64,12.08,18.38,21.58-1.78-1.04-3.7,1.48-2.42,3.28,7.53,6.36,16.21,17.05,16.68,24.5-1.71-1.32-3.45-2.1-5.26-2.35-.9-2.76-2.24-5.13-4.49-7.65l-24.82-27.85c1.52-.46,2.41-1.01,2.85-1.98.54-1.19-.24-2.75-1.62-3.74l-24.72-17.72c-4.91-3.52-9.44-5.12-14.68-10.79.29-.34,1.83-1.28,3.05-1.98,13.16,6.11,25.45,14.37,37.04,24.72Z"/>
  <path class="cls-1" d="M167.58,357.55c2.82,2.74,1.71,6.55-.46,8.02-1.33.91-3.48.03-5.74-2.07-2.12-1.97-5.64-6.6-2.07-9.12,1.68-.98,6.45,1.39,8.27,3.16Z"/>
  <path class="cls-1" d="M82.09,352.43c-.45.01-11.81,1.96-13.22,3.3-1.85,1.76-5.16,1.06-8.17,3.16l39.23.54c1.13.02,1.85-1.19,1.74-1.61,5.28-.1,11.09,1.26,16.18,2.27,3.55.7,5.56,5.91,7.43,7.99-8.59-1.02-16.56-4.38-24.89-4.63-14.74-.44-29.71-1.44-44.33.56l.74-2.88c1.31-3.49-11.48.24-14.1,7.17l-6.18,2.01c-8.02,2.61-12.8,10.76-21.85,14.91,6.43-14.07,18.55-21.08,30.87-26.31,12.8-5.43,26.33-12.03,36.57-6.48Z"/>
  <path class="cls-5" d="M156.53,388.45c3.25,6.09,6.91,19.72-.35,23.94-5.69,3.3-16.41,1.21-21.74,3.88,1.99-5.87,7.74-7.35,8.83-14.48,5.09-5.57,3.48-16.29-2.83-22.11-1.81-1.68-2.6-3.5-2.33-5.5,6.86,3.27,14.5,6.94,18.41,14.28Z"/>
  <path class="cls-4" d="M96.61,352.09c.44.47,1.29,1.5,2.04,1.29.49-.14,1.21-.87,1.51-1.06,5.59.42,13.55,2.56,19.12,3.48l.37,2.65c-.58.15-1.13.8-1.81,1.65-5.09-1.01-10.89-2.37-16.18-2.27-5.89.11-11.31-1.52-18.09-2.05-5.05-.4-10.25,2.08-14.7-.04,1.41-1.35,12.77-3.29,13.22-3.3l14.53-.34Z"/>
  <path class="cls-5" d="M122.78,357.63l-3.13.82-.37-2.65c.51-.55,2.01-2.24,2.71-1.78,1.24.81,1.07,2.6.79,3.62Z"/>
  <path class="cls-5" d="M167.16,312.38l-8.54-3.32c-3.6-8.15-12.9-12.05-15.44-18.51-3.74-9.5-13.97-13.19-18.38-21.58-4.1-7.8-12.14-11.23-18.84-18.01,10.21-.21,17.24,6.75,24.27,13.43,13.34,12.66,24.41,27.03,35.05,42.53,1.21,1.77,1.57,3.87,1.88,5.45Z"/>
  <path class="cls-13" d="M588.17,411.5c-13.3,12.75-34.11,12.92-48.25,1.7-8.89-7.06-10.72-20.04-6.93-30.65,7.56-21.16,41.45-18.46,53.87-9,5.81,4.43,10.15,11.03,10.27,17.58.13,7.64-2.69,14.36-8.97,20.37Z"/>
  <path class="cls-13" d="M98.16,265.73c-6.6-4.83-14.33-10.71-21.94-12.1-10.08-1.84-20.68-3.6-29.18,1.87-11.3,7.28-17.09,19.75-20.75,32.99-3.99,14.43-9.44,32.6.71,40.56,3.15,2.47,8.32,3.41,12.74,1.99,36.79-11.82,65.51,7.48,74.01-14.41,7.28-18.72-.34-39.73-15.59-50.9ZM39.55,316.99c-2.48.6-7.11-.18-8.44-4.24-3.53-10.8-.95-22.16,5.37-31.01,4.06-5.69,13.79-9.66,17.85-2.14,6.4,11.86-5.7,35.2-14.78,37.39Z"/>
  <path class="cls-1" d="M100.16,352.32c-.3.19-1.01.93-1.51,1.06-.75.21-1.6-.82-2.04-1.29.03-1.38,1.21-2.37,2.52-1.74.67.32,1.1.92,1.03,1.97Z"/>
  <path class="cls-13" d="M195.98,231.76l.35,1.45c3.01,12.39-4.72,23.92-15.82,29.08-8.88,4.12-19.21,6.82-27.59.29l-18.2-14.21c-14.24-11.12-28.5-18.23-44.94-24.17,11.89,1.37,21.4,3.6,32.84.72,29.7-7.47,45.4-6.34,73.35,6.84Z"/>
  <path class="cls-13" d="M77.91,218.07c-1.82-.62-1.24-3.88.76-2.91-.36,2.12.7,2.98.96,3.1,2.29.58,5.81.09,8.16,4.21-3.91,2.42-6.76-1.09-8.95-3.41l-.93-.99Z"/>
  <path class="cls-7" d="M195.14,219.86c-.72.03-1.66.18-2.68-.18-.96-.34-1.61-1.96-1.2-3.4.81.32,2.37,0,3.21,1.23.41.6.66,1.5.67,2.35Z"/>
  <path class="cls-13" d="M125.38,385.45c-4.26-9.89-12.81-16.28-22.46-18.4-2.06-.46-2.76-2.05-2.56-3.59-14.73-.44-29.71-1.44-44.33.56l-13.36,4.29-6.18,2.02c.14,3.19-2.22,4.22-4.41,6.2-13.51,12.21,1.75,38.15,17.95,52.74,7.72,6.95,18.52,6.89,26.42-.1,13.59-12.03,27.71-21.98,44.1-28.65,4.86-3.33,7.42-9.06,4.83-15.07ZM59.97,411.73c-7.75,6.3-16.57-1.96-19.77-9.29-2.74-6.29-6.03-12.02-3.29-18.79,2.13-5.26,7-6.75,11.44-6.29,5.11.52,8.27,2.94,11.82,8.58,4.15,6.59,7.32,19.69-.2,25.79Z"/>
  <path class="cls-6" d="M143.27,401.78c-1.1,7.13-6.84,8.61-8.83,14.48l-3.67-.14c.64-1.21,2.1-2.4.6-4.76-3.04,1.77-10.25-1.63-9.3-4.6,2.96-9.28,15.26-9.64,21.2-4.98Z"/>
  <path class="cls-13" d="M109.64,443.89c.92-.82,2.39-2.12,3.39-2.8,4.44-.32,8.81-3.14,9.58-8.13.92-.33,2.31-1.26,3.3-.74,4.46,2.33,10.74-5.72,16.21-1.63,7.95,5.94,6.11,23.79-1.73,33.24-9.33,11.24-32.94,2.53-32.97-8.45,0-3.7,2.92-7.9,2.22-11.49Z"/>
  <path class="cls-12" d="M122.61,432.96c-.77,4.99-5.14,7.81-9.58,8.13,1.53-3.69,5.77-6.74,9.58-8.13Z"/>
  <path class="cls-10" d="M113.27,165.84c-.75-3.94.42-5.9,2.3-9.23,1.68,2.97,1.38,7.36-2.3,9.23Z"/>
  <path class="cls-3" d="M585.8,273.2c-2.03,5.54-11.27,2.46-14.74.78-4.59-2.23-6.4-4.79-5.79-9.56.5-3.92,3.92-5.76,8.45-5.72,6.26.05,15.51,5.1,12.07,14.5Z"/>
  <polygon class="cls-12" points="548.56 249.83 549.67 249.83 550.73 249.86 549.67 249.89 548.56 249.89 547.5 249.86 548.56 249.83"/>
  <polygon class="cls-12" points="543.66 253.45 544.77 253.45 545.83 253.48 544.77 253.52 543.66 253.52 542.6 253.48 543.66 253.45"/>
  <path class="cls-5" d="M101.66,357.83c.12.42-.6,1.63-1.74,1.61l-39.23-.54c3.02-2.11,6.33-1.4,8.17-3.16,4.45,2.12,9.65-.36,14.7.04,6.78.54,12.2,2.16,18.09,2.05Z"/>
  <path class="cls-5" d="M56.04,364.02l-13.36,4.29c2.62-6.93,15.41-10.66,14.1-7.17l-.74,2.88Z"/>
  <path class="cls-3" d="M54.33,279.6c6.41,11.86-5.7,35.2-14.77,37.39-2.48.6-7.11-.18-8.44-4.24-3.54-10.8-.96-22.17,5.37-31.02,4.06-5.69,13.79-9.65,17.85-2.13Z"/>
  <path class="cls-3" d="M59.97,411.73c-7.76,6.3-16.57-1.96-19.77-9.29-2.74-6.29-6.03-12.02-3.29-18.79,2.13-5.27,6.99-6.75,11.44-6.29,5.1.52,8.27,2.94,11.82,8.59,4.14,6.59,7.31,19.69-.2,25.79Z"/>
</svg>