<?xml version="1.0" encoding="UTF-8"?>
<svg id="Capa_1" data-name="Capa 1" xmlns="http://www.w3.org/2000/svg" viewBox="0 0 470.17 407.38">
  <defs>
    <style>
      .cls-1 {
        fill: #fafafa;
      }

      .cls-2 {
        fill: #f6f6f6;
      }

      .cls-3 {
        fill: #0f0f0f;
      }

      .cls-4 {
        fill: #f2f2f2;
      }

      .cls-5 {
        fill: #fefefe;
      }

      .cls-6 {
        fill: #f0f0f0;
      }

      .cls-7 {
        fill: #f8f8f8;
      }

      .cls-8 {
        fill: #fbfbfb;
      }

      .cls-9 {
        fill: #fdfdfd;
      }

      .cls-10 {
        fill: #020202;
      }

      .cls-11 {
        fill: red;
      }

      .cls-12 {
        fill: #030303;
      }

      .cls-13 {
        fill: #151515;
      }

      .cls-14 {
        fill: #d1d1d1;
      }

      .cls-15 {
        fill: #010101;
      }

      .cls-16 {
        fill: #fcfcfc;
      }

      .cls-17 {
        fill: #e1e1e1;
      }
    </style>
  </defs>
  <path class="cls-5" d="M111.39,0l-3.41,2.96C24.39,10.95-18.81,95.15,17.21,169.5c2.87,14.82,9.04,26.88,17.97,39.47,19.13,26.88,18.95,45.18,2.62,71.94l-17.61,26.23c-13.29,23.22-18.52,47.91,3.54,67.92,34.61,31.39,87.52,32.56,131.38,24.5,48.72-11.35,97.86-20.22,147.44-26.6,45.53-7.35,112.35-22.26,143.51-58.36,35.66-41.31,26.21-91.88-32.24-93.7-5.37-1-5.08-5.13.85-12.37l7.04-9.73c23.77-26.12,39.6-57.64,30.23-93.42-7.28-27.79-31.12-33.94-56.66-38.67-42.33-5.54-84.51-10.94-126.53-16.22l-15.38-3.5c-31.87-10.44-62.83-22.18-92.89-35.24-12.24-4.25-24.95-6.83-37.74-8.75l-4.3-3h351.75v407.38H0V0h111.39Z"/>
  <path class="cls-15" d="M118.42,0c17.91,2.54,34.87,5.82,51.53,12.9l42.39,17.63c24.58,10.22,49.09,17.53,75.62,20.56l71.69,8.18c20.39,2.33,40.06,5.02,59.55,10.63s32.07,19.61,36.01,39.14c5.61,27.75-2.83,55.25-20.55,77.3-8.4,10.45-16.63,20.04-23.39,32.17,30.4.12,60.62,15.66,57.76,49.4-2.9,34.2-28.25,61.93-58.52,76.24-36.23,17.13-82.97,28.45-122.87,33.24-35.5,4.26-69.43,10.56-104.22,18.82-20.08,4.77-39.17,7.93-59.67,9.54-34.79,2.74-79.04-5.42-104.32-31.62-22.95-23.79-12.02-53.2,4.3-76.88,15.81-22.95,34.43-44.53,16.74-74.59-5.37-9.12-10.61-18.43-16.46-27.19-6.25-9.36-6.7-19.82-10.49-29.42-7.42-18.76-12.33-36.23-11.42-57.01C4.01,65.23,30.73,25.98,71.66,9.77c13.4-5.31,26.37-7.5,39.73-9.77h7.03Z"/>
  <path class="cls-11" d="M414.18,328.81c-33.42,19.52-91.11,31.73-129.74,36.83-36.46,4.81-71.37,11.29-107.09,19.62-36.3,8.46-69.57,12.97-106.08,3.78-15.59-3.92-29.75-11.19-41.49-21.85-21.17-19.22-9.13-44.06,4.14-63.37,6.77-9.85,13.71-19.15,19.11-29.74,21.5-42.14-14.61-68.48-23.97-96.46-2.77-8.28-4.09-16.35-7.35-24.61C1.64,102.21,22.47,44.47,72.16,22.96c14.49-6.27,29.2-10.38,45.1-9.92,17.98.52,34.69,5.13,51.03,12.06l42.94,18.19c67.82,28.73,142.21,20.68,203.55,37.85,14.49,4.06,24.68,13.85,28.26,28.34,4.04,16.38,1.62,32.93-5.4,48.32-11.48,25.15-26.98,34.82-37.26,55.11-1.82,3.59-2.5,7.94-.2,11.58,5.9,9.33,20.92,3.63,39.44,12.61,22.85,11.08,20.42,35.61,10.35,54.87-8.2,15.68-20.55,27.95-35.8,36.85Z"/>
  <path d="M338.74,109.23c1.84,2.87,1.05,3.73-1.96,2.1-2.7.69-5.74-.35-9.1-3.13,16.33,13.47-19.07,22.91-28.9,25.08-46.92,10.35-91.6,16.27-140.12,20.02-11.62.9-76.24,4.84-86.76-6.22-.89-.94-1.5-1.63-1.44-3.09,1.88-4.56,1.73-7.43-.44-8.61-2.7,3.13-4.8.2-1.95-2.44l11.16-7.28c-2.19-7.5-18.16-7.67-18.47-19.49-.12-4.63,2.68-9.07,7.07-11.48,16.85-9.26,34.05,3.72,37.21-2.71,3.89-7.93-22.35-16.28-34.25-26.74-7.29-6.4-6.57-17.81.67-23.82,12.35-10.25,28.44-10.82,42.03-2.4l23.89,14.8c1.52.94,2.34.82,3.2-.38,2.32-3.25-5.48-4.71-7.93-12.52-.75-2.38-.1-4.99,1.15-5.93,9.5-7.12,21.06,14.1,30.99,23.95,1.1,1.09.22,2.42-.37,2.84-.45.32-1.49.91-2.48.45l-17.1-7.98c-5.99,2.14,6.63,10.62,9.56,12.9,7.74,6.01,16.13,4.15,22.04-3.27,3.94-4.94,9.11-8.32,15.22-7.87,11.06.8,10.49,7.34,23.31,17.46,19.19,15.14,27.34-9.01,46.55,3.85,8.92,5.98,16.3,16.66,23.52,17.27,13.06,1.1,47.24,3.17,53.7,14.61Z"/>
  <path class="cls-10" d="M68.07,132.96c.46.93.5,2.97,1.95,2.44l.96,2.36c-8.88,7.75,6.05,12.27,12.78,13.94,40.25,10,99.85,4.4,139.78-1.01,28.85-3.91,76.47-12.58,102.05-27.23,5.75-3.29,7.96-6.77,11.2-12.12.89-.44,1.48-1.25,1.96-2.1,1.34,2.37,2.17-2.99,4.44,12.94,10.09-3.56,18.7-7.47,28.7-9.09,13.3-2.15,26.87,2.87,33.78,14.69,8.08,13.82,8.2,30.17,2.51,44.95-9.8,25.43-22.68,41.37-49.87,49.86l-23.18,7.24-14.22,24.46c18.32.07,84.25-4.28,90.08,17.28,6.26,23.18-47.27,42.07-64.38,47.59-19.88,6.41-38.91,12.75-59.12,18.06-18.74,4.92-36.9,7.47-56.04,10.74-47.33,8.08-120.03,16.18-165.9,4.4-6.41-1.64-12.44-6.4-14.32-12.5-1.47-4.74.5-9.79,2.59-13.61,5.56-7.79,13.34-11.69,21.55-15.95,18.17-9.43,36.56-15.97,56.79-22.55-19.04-14.58-32.05-32.18-42.15-52.67-7.79-15.8-12.43-31.86-18.59-48.21-4.4-11.66-6.32-23.5-9.25-35.68-1.7-7.09-.32-14.71,5.9-18.2Z"/>
  <path class="cls-9" d="M336.79,111.33c5.42,17.04-60.28,32.05-72.57,34.62-43.65,9.14-87.47,13.4-132.01,13.01-17.08-.15-51.74-2.26-64.92-12.59-3.95-3.1.07-8.45,2.74-10.97,1.28-1.21,4.65-.72,5.89-2.97l-3.04,10.88c-2.58,9.23,44.89,9.24,50.42,9.11,54.97-1.31,109.15-6.95,162.76-18.44,3.98-.85,51.86-11.55,43.07-20.79l-8.88-9.34c6.29.3,11.78,3.65,16.55,7.48Z"/>
  <path class="cls-16" d="M142.19,72.92c2.24,6.24-6.97,10.4-16.85,10.54-3.59.05-9.84.74-10.87-4.24-.73-3.57,2.18-10.99,5.74-12.53,3.96-1.71,18.89-2.36,21.98,6.23Z"/>
  <path class="cls-8" d="M107.25,62.24c-12.55,6.16-28.19-2.93-25.52-10.26,3.71-10.19,27.56-2.31,28.52,3.87.34,2.2-.18,5.01-2.99,6.39Z"/>
  <path class="cls-16" d="M98.37,111.89c-6.56,7.18-17.63,5.62-22.46-2.14-1.94-3.12-.22-7.15,3.1-8.25,5.9-1.96,12.18-1.48,17.5,1.51,2.96,1.66,4.69,5.76,1.85,8.87Z"/>
  <path class="cls-6" d="M206.54,129.93c.68.38-1.73,3.15-2.66,2.39-13.58-11.05-28.74-22.23-36.93-38.77,14.42,12.5,23.5,27.31,39.59,36.38Z"/>
  <path class="cls-4" d="M129.06,113.74c17.99,13.93,25.01,15.54,39.99,25.39.51.33-.54,2.54-1.48,2.05-13.39-6.91-26.08-14.07-37.84-23.3-.71-.56-1.03-1.32-1.44-1.33-1.27-.03.22-3.24.77-2.81Z"/>
  <path class="cls-2" d="M133.85,58.04c3.36,6.39-21.96-4.24-18.47-9.92,2.27-3.69,17,7.14,18.47,9.92Z"/>
  <path class="cls-6" d="M245.17,117.89c-12.3-3.28-20.62-14.5-28.59-23.77-.33-1.38-.2-2.28.33-2.58.81-.47,2.02-.04,2.87.83,5.44,11.13,16.41,15.56,25.39,25.52Z"/>
  <path class="cls-17" d="M268.2,105.97c4.59,3.27,12.37,6.54,12.36,8.43-.02,4.31-16.44-6.82-15.12-8.03.53-.49,1.88-1.04,2.76-.41Z"/>
  <path class="cls-5" d="M71.98,173.9c-2.31-7.35-4.67-13.74-5.27-22.07,10.83,4.29,21.52,7.42,33.32,8.74,51.51,5.76,118.47-.65,169.01-11.79,20.05-4.42,49.83-12.35,65.7-24.24,5.18,27.91,3.34,54.88-1.22,82.19-3.64,21.78-12.27,39.86-25.39,57.14-15.39,20.27-34.77,33.04-59.6,39.39-67.14,17.16-124.98-7.81-155.32-70.34-9.3-19.17-14.76-38.47-21.22-59.01Z"/>
  <path class="cls-5" d="M56.83,328.67c4.84-6.94,11.55-10.24,18.45-13.94,19.3-10.34,39.39-17.54,60.83-24,7.89,5.05,15.25,9.2,23.81,12.86-.21,6.97,4.48,11.11,10.96,12.81,33.24,8.71,83.44,2.91,114.27-14.31,5.3-2.96,7.27-8.35,5.67-14.66,9.92-8.7,18.09-18.11,26.88-28.54,21.69-1.96,66.85-3.09,85.34,7.89,4.21,2.5,5.09,7.33,2.15,11.12-11.57,14.86-44.95,26.78-63.37,32.74-68.49,22.16-139.37,34.53-211.4,37.81-17.54.8-58.02.07-71.6-9.24-3.69-2.53-4.77-6.54-1.98-10.54Z"/>
  <path class="cls-9" d="M336.64,209.37l21.65-6.78c22.64-7.09,35.22-31.42,33.79-55.16-.61-10.09-8.99-17.1-19.43-16.76-11.13.36-21.3,4.84-31.63,8.54-1.24-3.77-1.6-7.21-.98-11.14,9.59-4.33,19.07-8.1,29.38-10.72,12.76-3.24,26.38,1.09,33.13,12.7s7.45,24.74,3.42,37.15c-13.12,40.46-34.08,48.75-72.85,58.72l3.51-16.56Z"/>
  <path class="cls-5" d="M358.21,198.45c-6.4,2.4-11.98,3.93-18.78,5.78,3.98-21.04,5.73-40.79,5.21-62.09,12.09-4.47,30.35-12.93,39.97-3.09,8.98,9.19,3.55,48.19-26.4,59.4Z"/>
  <path class="cls-7" d="M104.51,354.32c-4.15-.12-8.59-.52-12.18-2.43,83.1,2.89,162.19-12.07,242.12-34.04-32.67,14.08-67.15,20.55-102.3,26.16-42.55,7.4-84.53,11.56-127.64,10.31Z"/>
  <path class="cls-1" d="M251.84,310.98c-22.28,5.69-60.78,8.66-82.16.8-2.89-1.06-5.81-2.7-5.51-6.93,29.09,9.94,58.36,9.78,87.43,1.18,12.87-3.81,24.85-7.46,35.31-15.93,6.66,9.58-30.01,19.59-35.07,20.89Z"/>
  <path class="cls-14" d="M358.93,310.31c-3.76,3.22-7.71,3.48-12.44,4.09,2.75-4.03,7.8-4.36,12.44-4.09Z"/>
  <path class="cls-12" d="M208.69,276.74c-17.2-1.38-39.84-6.42-47.41-23.58-3.33-7.55-1.39-15.87,4.05-21.17,15.04-14.65,28.83,9.24,53.5,1.18,10.05-3.28,17.21-18.42,30.71-12.98,3.94,1.59,8.03,6.53,8.42,12.36,1.03,15.57-7.8,29.01-21.13,36.35-8.8,4.85-17.76,8.66-28.14,7.83Z"/>
  <path class="cls-15" d="M259.91,188.06c.48,9.48-6.54,24.97-16.5,24.12-15.18-1.3-21.43-30.56-10.61-49.35,4.07-7.06,12.81-9.39,18.82-3.81,3.71,3.44,7.97,10.22,7.05,15.16-3.85,4.6-10.57,6.11-14.83,9.76l16.08,4.12Z"/>
  <path d="M182.88,199.43c.59,9.51-5.85,24.22-15.81,24-3.81-.08-7.9-1.97-10.47-5.96-11.78-18.32-5.18-47.08,7.8-49.9,11.04-2.4,19.15,12.75,16.77,18.29-2.7,4.61-10.2,4.95-13.48,9.63l15.19,3.94Z"/>
  <path class="cls-3" d="M161.83,229.52c-5.34,2.2-5.48,7.09-9.76,11.02-4.94-13.29,19.04-18.03,10.87-13.31-.37.21-.23,1.92-1.12,2.29Z"/>
  <path class="cls-13" d="M263.57,224.01c.04,1.04-2.24,1.26-2.56.81-4.7-6.61-4.41-4.54-7.24-9.64,5.1-1.9,9.64,4.03,9.8,8.83Z"/>
  <path class="cls-9" d="M247.96,254.23c-5.93,8.1-13.88,12.3-22.21,15.76-2.51-11.39-4.57-21.51-6.39-32.63,3.85-1.87,7.08-3.6,10.74-6.5,6.6,7.12,11.88,14.64,17.85,23.37Z"/>
  <path class="cls-16" d="M221.89,271.45c-8.33,2.58-15.55,1.76-23.48-.04l6.17-32.48c3.8-.82,7.11-.98,11.1-.29l6.22,32.82Z"/>
  <path class="cls-16" d="M194.36,270.45c-7.43-1.28-12.78-3.02-18.1-6.54l15.21-27.7c3.13-.11,5.59.98,9.22,1.68l-6.33,32.55Z"/>
  <path class="cls-16" d="M173,261.37c-4.38-2.48-7.62-7.08-9.13-12.35-1.75-6.1,1.38-12.5,5.67-15.54,5.68-4.02,12.95-2.77,18.42,1.11l-14.96,26.78Z"/>
  <path class="cls-16" d="M250.11,250.02l-16.61-21.56c2.57-3.85,7.62-5.91,12.05-5.4,4.79.55,8.41,5.3,8.72,10.64.33,5.69-.89,11.01-4.17,16.32Z"/>
</svg>