<?xml version="1.0" encoding="UTF-8"?>
<svg id="Capa_1" data-name="Capa 1" xmlns="http://www.w3.org/2000/svg" width="1080" height="1080" viewBox="0 0 1080 1080">
  <defs>
    <style>
      .cls-1 {
        fill: #f6f6f6;
      }

      .cls-2 {
        fill: #b3424c;
      }

      .cls-3 {
        fill: #f3b0af;
      }
    </style>
  </defs>
  <path class="cls-2" d="M807.67,437.19c-.08-16.92-12.54-28.92-30.48-29.94-7.31-109.11-85.89-197.3-192.22-218.27l.26-23.25c.05-4.26,5.92-10.18,10.53-10.24l84.2-1.24c2.71-1.6,8.35-7.5,8.35-10.51l-.1-67.09c-.01-4.32-6.47-10.33-10.58-10.37l-70.79-.59c-51.86-.44-96.94,30.28-108.83,80.75-3.2,13.57-2.61,26.92-2.65,42.48-106.76,21.04-185.18,109.21-192.56,218.35-19.64,1.06-30.55,15.19-30.57,33.71v22.35c-.01,18.36,10.82,33.11,31.42,34.41l43.35,418.53c1.02,9.77,13.37,14.04,29.38,11.71l.73,48.41c.05,3.32,6.13,11.14,10.73,11.14h304.36c4.52,0,10.7-7.8,10.75-11.06l.73-48.55c16.02,2.53,28.47-2.05,29.46-11.66l43.24-418.51c20.6-1.24,31.48-16.07,31.4-34.41l-.1-26.13ZM747.5,407.77l-162.87.06.05-188.24c89.46,19.67,155.53,94.8,162.82,188.17ZM595.73,95.58l62.98-.29v29.57s-63.01.55-63.01.55c-25.85.23-45.46,27.16-40.78,59.66-11.01-.7-18.88-.59-29.42-.11-6.62-47.8,27.81-89.2,70.23-89.39ZM554.89,214.23v193.29h-29.74v-193.29h29.74ZM495.38,219.62l.04,188.21-162.87-.06c7.26-93.42,73.36-168.48,162.84-188.15ZM673.83,957.96h-267.63v-30.06h267.63v30.06ZM705.03,898.2h-330.03s-30.65-297.14-30.65-297.14l91.46-.26.74,33.67c.09,3.81,6.18,10.47,10.48,10.47h67.04c4.29,0,10.39-6.66,10.48-10.47l.73-33.62,84.23-.38,27.15,26.1c6.51,6.25,15.43,5.01,21.22-.83l24.43-24.73,53.35.29-30.63,296.9ZM465.68,615.99v-30.05h29.74v30.05h-29.74ZM625.19,573.58l21.23-21.01,21.34,21.57-21.23,21.01-21.34-21.57ZM738.9,571.46l-34.97-.1c-1.38-3.08-2.55-5.56-4.42-7.43l-44.73-44.78c-4.5-1.47-13.62-2.31-16.94.98l-44,43.51c-1.91,1.89-4.01,7.72-5.62,7.72l-62.45-.09c-.73-6.65-5.76-14.25-11.76-14.25l-66.9-.03c-5.98,0-11.22,7.67-11.55,14.29l-94.38.18-7.19-74.44h412.07l-7.15,74.44ZM777.91,467.32h-475.79v-30.06h475.79v30.06Z"/>
  <path class="cls-3" d="M682.3,601.01l-24.43,24.73c-5.78,5.84-14.7,7.08-21.22.83l-27.15-26.1-84.23.38-.73,33.62c-.09,3.81-6.2,10.47-10.48,10.47h-67.04c-4.3,0-10.39-6.66-10.48-10.47l-.74-33.67-91.46.26,30.65,297.13h330.03s30.63-296.89,30.63-296.89l-53.35-.29ZM376.47,630.54h29.74v29.74h-29.74v-29.74ZM450.81,868.44h-29.74v-29.74h29.74v29.74ZM487.65,745.72l-43.55,43.8c-6.98,7.01-16.3,5.44-21.94-.21l-40.91-40.9c-5.58-5.58-7.11-14.92-.82-21.2l44.42-44.3c3.88-3.88,10.44-2.98,15.6-1.21l48.44,48.44c1.73,5.15,2.65,11.69-1.23,15.58ZM525.15,808.96h-29.74v-29.74h29.74v29.74ZM554.89,704.88h-29.74v-29.74h29.74v29.74ZM629.23,883.3h-29.74v-29.74h29.74v29.74ZM663.72,823.68l-67.94.09c-5.08-2.17-8.92-6.02-11.07-11.09l-.13-66.96c2.29-5.03,6.12-8.91,11.17-11.02h66.95c5.05,2.14,8.91,6.01,11.07,11.06v66.93c-1.9,4.26-4.84,7.7-10.05,11ZM688.7,675.15h-29.74v-29.74h29.74v29.74Z"/>
  <path class="cls-1" d="M593.83,563.64c-1.91,1.88-4,7.72-5.61,7.71l-62.45-.09c-.72-6.64-5.76-14.25-11.76-14.26l-66.9-.02c-5.98,0-11.22,7.67-11.56,14.29l-94.37.17-7.19-74.43h412.06s-7.15,74.44-7.15,74.44l-34.97-.1c-1.38-3.07-2.55-5.55-4.42-7.43l-44.73-44.78c-4.5-1.47-13.62-2.32-16.95.97l-44,43.51Z"/>
  <path class="cls-1" d="M495.41,407.83l-162.87-.06c7.27-93.42,73.36-168.48,162.83-188.15l.04,188.22Z"/>
  <path class="cls-1" d="M747.49,407.76l-162.86.07.05-188.24c89.46,19.67,155.53,94.8,162.82,188.18Z"/>
  <rect class="cls-1" x="302.13" y="437.25" width="475.78" height="30.06"/>
  <rect class="cls-1" x="406.21" y="927.9" width="267.63" height="30.06"/>
  <rect class="cls-3" x="525.15" y="214.23" width="29.74" height="193.29"/>
  <path class="cls-3" d="M595.7,125.42c-25.85.23-45.45,27.15-40.78,59.66-11.01-.7-18.87-.59-29.42-.12-6.63-47.79,27.8-89.19,70.23-89.38l62.98-.29v29.58s-63.01.55-63.01.55Z"/>
  <rect class="cls-1" x="631.54" y="558.69" width="29.87" height="30.34" transform="translate(-216.69 620.67) rotate(-44.7)"/>
  <rect class="cls-1" x="465.68" y="585.94" width="29.74" height="30.06"/>
  <path class="cls-2" d="M488.88,730.13l-48.44-48.44c-5.15-1.77-11.71-2.68-15.6,1.21l-44.42,44.3c-6.3,6.28-4.76,15.62.82,21.2l40.91,40.9c5.64,5.66,14.97,7.23,21.94.21l43.55-43.8c3.88-3.9,2.97-10.43,1.23-15.58ZM432.92,758.25l-21.06-21.22,21.39-21.24,21.06,21.2-21.39,21.25Z"/>
  <path class="cls-2" d="M673.77,745.76c-2.16-5.05-6.02-8.92-11.07-11.06h-66.95c-5.05,2.11-8.89,6-11.17,11.02l.13,66.96c2.15,5.07,6,8.91,11.07,11.09l67.94-.09c5.22-3.29,8.16-6.74,10.07-11v-66.93ZM644.1,794.41h-29.74v-30.05h29.74v30.05Z"/>
  <rect class="cls-2" x="376.47" y="630.54" width="29.74" height="29.74"/>
  <rect class="cls-2" x="658.97" y="645.41" width="29.74" height="29.74"/>
  <rect class="cls-2" x="525.15" y="675.14" width="29.74" height="29.74"/>
  <rect class="cls-2" x="495.42" y="779.22" width="29.74" height="29.74"/>
  <rect class="cls-2" x="421.07" y="838.69" width="29.74" height="29.74"/>
  <rect class="cls-2" x="599.49" y="853.56" width="29.74" height="29.74"/>
  <rect class="cls-1" x="418.01" y="722.07" width="30.15" height="29.9" transform="translate(-393.59 519.36) rotate(-44.81)"/>
  <rect class="cls-1" x="614.36" y="764.35" width="29.74" height="30.06"/>
</svg>