<?xml version="1.0" encoding="UTF-8"?>
<svg id="Capa_1" data-name="Capa 1" xmlns="http://www.w3.org/2000/svg" viewBox="0 0 317 317">
  <defs>
    <style>
      .cls-1 {
        fill: #0b0b0b;
      }

      .cls-2 {
        fill: #0f0f0f;
      }

      .cls-3 {
        fill: #fefefe;
      }

      .cls-4 {
        fill: #141414;
      }

      .cls-5 {
        fill: #232323;
      }

      .cls-6 {
        fill: #262626;
      }

      .cls-7 {
        fill: #3fa9f5;
      }

      .cls-8 {
        fill: #030303;
      }

      .cls-9 {
        fill: #060606;
      }

      .cls-10 {
        fill: #282828;
      }

      .cls-11 {
        fill: #131313;
      }

      .cls-12 {
        fill: #eccfc9;
      }

      .cls-13 {
        fill: #1a1a1a;
      }

      .cls-14 {
        fill: #202020;
      }

      .cls-15 {
        fill: #0a0a0a;
      }

      .cls-16 {
        fill: #383838;
      }

      .cls-17 {
        fill: #1e1e1e;
      }

      .cls-18 {
        fill: #ff7bac;
      }

      .cls-19 {
        fill: #070707;
      }

      .cls-20 {
        fill: #040404;
      }

      .cls-21 {
        fill: #010101;
      }

      .cls-22 {
        fill: #111;
      }

      .cls-23 {
        fill: #1d1d1d;
      }

      .cls-24 {
        fill: #080808;
      }

      .cls-25 {
        fill: #0c0c0c;
      }

      .cls-26 {
        fill: #050505;
      }

      .cls-27 {
        fill: #161616;
      }
    </style>
  </defs>
  <path class="cls-3" d="M0,149.53V0h317v317h-149.53l4.11-2.41c131.33-13.81,190.17-172,95.49-266.34C174.1-44.4,15.54,15.24,2.42,145.4l-2.42,4.12Z"/>
  <path class="cls-3" d="M147.53,317H0v-148.53c1.2-1.81,1.55-1.5,2.63.04,4.66,77.12,67.12,140.6,144.4,145.68,1.46.45,1.48,1.6.51,2.81Z"/>
  <path class="cls-21" d="M167.47,317h-19.94c.1-.47-.21-.83-.88-.88C68.66,310.53,6.44,248.31.93,170.26c-.07-.98-.02-1.86-.93-1.79v-18.94C7.09,70.17,67.26,6.82,148.95,1.89c3.01-.18,6.22-.43,9.33-.31l9.06.34c84.68,3.22,153.52,79.59,147.75,167.14-5.35,81.17-68.68,141.02-147.62,147.93Z"/>
  <path class="cls-7" d="M156.53,6.62c84.59-.84,153.07,67.44,153.93,150.74.86,84.35-67.08,153.53-151.44,154.13-83.5.6-152.24-66.64-153.47-150.29C4.31,77.56,71.54,7.47,156.53,6.62Z"/>
  <path class="cls-7" d="M102.73,256.38l2.11.13c2.37,5.57,5.49,8.47,11.5,9.45,19.83,3.24,39.23,3.35,58.15-2.28,13.89-4.04,27.69-8.36,41.4-12.96,11.21-6.96,22.28-14.18,33.22-21.66,3.69-4.46,6.82-9.38,9.37-14.76-1.34-2.18-.49-2.83,1.85-1.75,3.67-5.94,6.91-12.3,9.72-19.1-3.46-1.41-1.96-12.33,2.1-12.01.55-3.98.88-7.96,1-11.96-.45-.08-.83-.2-.96-.45-.95-1.85.37-9.33.96-11.52.31-3.8-.23-8.08-1.64-12.83-3.06,1-3.93-1.51-1.35-3.12.08-13.35-4.6-24.52-11.52-35.52-3-7.21-5.32-12.74-10.63-18.44-7.21-7.75-14.38-13.61-22.71-19.88-10.37-4.78-20.35-8.08-32.15-9.95-11.82-5.81-20.84-5.9-33.14-3.92-13.58-1.28-27.03.36-39.87,4.95-4.86.51-9.64,1.42-14.35,2.72-11.82,5.56-23.39,11.39-34.72,17.49l-1.25-1.12-5.11-5.53c6.89-3.54,1.87-6.04,6.63-9.56,4.22-3.12,7.93,1.89,12.39-.48,1.24-.66.54-2.88,1.28-4.33,1.89-3.68,6.68-4.51,10.65-4.16,5.26.47,10.37-.98,15.31.8,1.32.47,4.03,4.26,4.87,1.37l2.49-8.57,27.18-.82c3.57-.11,6.41-.08,10.08.22-7.99-.66,31.95-.46,25.96-.26,6.74-.22,14.17-2.51,20.02,2.1,1.41,1.12.42,4.2,1.1,6.22,4.8-1.28,17.42-1.99,20.83.19,1.63,1.04,2.29,4.43,3.12,6.84,3.21.45,7.5-1,11,.52s5.06,4.35,4.73,8.12c2.63.75,4.91-.27,6.85.6-.31,2.89-1.14,4.76-.47,6.62,2.97-.39,4.68.27,6.62,1.24,1.77.89,1.11,4.31,2.71,5.66,2.55,2.17,6.24,3.12,7.28,5.46,1.57,3.56.76,6.8-.06,10.35,2.15,1.62,4.87,1.69,7.13,2.91,2.82,5.48,1.88,11.36.5,17.23-.57,2.4,1.26,5.31-.39,7.35-1.11,1.38-1.42,2.57-1.3,4.15.28,3.53,8.94-1.2,10.46,6.78,1.66,8.67-.83,17.01-.67,25.52l.19,9.82.94,11.01c.43,5.05-1.26,10.09-8.05,10.45-.03,3.38-.37,22.35-2.32,22.6l-5.05.64c-1.07,1.54-.35,4.81-1.83,6.52s-4.17,1.15-6.15,2.54c-1.17.83-.19,4.15-2.34,4.77-1.2.34-3.37.82-5.03.82-2.3,1.66-.58,6.95-3.37,7.75l-5.54,1.6c-2.08.6-1.04,3.93-2.09,5.68-3.78,6.33-17.61-3.18-15.08,9.27-4.55.48-10.99-.46-15.09,2.25-.34,2.35-.15,6.38-4.14,6.81-11.3,1.23-16.4-2.81-19.12.78-1.11,1.46-.49,6.43-3.08,6.89-12.37,2.22-29.05-1.74-34.12-.09-2.14.7-15.83.15-16.27.19-5.21.49-9.61.31-14.91-.34.8.1-14.69,1.14-15.93-2.02-.68-1.73-.54-3.77-1.66-5.72-2.95.77-5.89.54-7.16-1.96,3.2-3.24,5.81-5.99,8.91-8.3Z"/>
  <path class="cls-8" d="M225.28,67.71c1.96,1.17,3.24,2.46.46,1.88-2.44,2-11.65-.78-10.12-4.4-1.46.9-3.28.73-5.45-.51-11.66-1.82-23.07-4.76-34.24-8.83-10.3.84-20.56,1.21-30.78,1.11,0,0-12.12,2.4-36.36,7.19-21.5,8.86-41.91,21.5-57.93,38.34-5.88,11.74-10.3,23.95-13.27,36.63-.49,6.97,2.51,8.92,9.15,10.19,8.91-.37,17.52.35,25.82,2.16,4.5,2.21,7.73,6.17,9.68,11.87,4.61,2.61,9.66,2.62,15.15.05,6.39-.05,7.34,3.52,7.95,8.9,4.09,2.8,5.56,5.48,4.4,8.05.83,2.09,2.03,3.4,3.61,3.92,1.94,2.97,1.5,11.38.75,14.93,10.91,4.35,17.64,16.44,9.15,26.11.81,3.75,3.8,5.6,8.98,5.55,4.68,2.04,8.07,5.74,10.16,11.11,3.3,4.1,8.66,3.34,12.94,1.27l2.02,1.1c1.89-.15,1.62.25.38,1.55,1.74,7.76-15.35,7.04-18.87,2.01-2.18-3.35-4.46-6.59-6.84-9.71-4.62-.9-8.76-2.59-12.44-5.06l-1.4,5.66c.8,4.33.7,8.39-.31,12.2-4.49,5.57-4.79,9.39-.88,11.46,12.29,1.61,24.61,2.29,36.97,2.05,15.94-3.55,31.79-7.56,47.55-12.05,11.67-3.04,20.84-8.73,30.06-16.26,10.74-4.1,17.99-10.82,21.76-20.15,1.28-2.44,3.28-4.5,5.13-1.72.44,2.64-2.14,4.72-2.85,7.23-1.49,5.31-4.66,8.29-9.07,11.13-3.48,2.24-6.68,4.54-10.52,6.59-6.68,3.56-12.37,10.06-19.69,12.68l-15.5,5.55c-7.77,2.78-15.77,2.7-23.28,6.77-3.99,2.16-9.74,1.15-13.84,3.07-6.11,2.88-11.91,2.6-18.38,2.27-10.95-.56-21.64-.37-32.53-2.68-6.35-1.34-7.29-5.47-10.09-10.52-1.03-1.85-2-3.6-3.69-5.54-8.37-9.57-.05-20.23-5.06-27.84l-5.2-7.89c5.6-6.19,3.33-16.53-4.16-20.31-2.85-1.44-6.71.64-9.65-.41-4.34-1.55-8.28-3.88-12.95-4.25-2.02-.16-3.27-1.24-4.4-1.99-1.77-.7-1.65-1.48.27-1.69l1.98-1.73c5.83,1.24,11.51,2.98,17.04,5.2,15.55-3.98,23.08,13.72,18.08,26.3l3.52,4.37c2.07,7.12,2.8,14.71,2.18,22.76.64,1.48,6.34,10.17,7.15,10.77,1.89,1.41,4.77-13.16,3.64-14.59,1.99-8.37,5.08-16.33,9.26-23.86-2.52-5.69-6.98-10.4-13.4-14.11,3.65-15.74-3.62-25.59-18.72-29.85-5.25.02-9.57-1.33-12.97-4.04-.81-6.73-5.29-11.67-12.25-11.87-7.75,1.7-15.29,1.47-22.61-.67-.99-1.47-1.91-2.06-2.75-1.78.55,1.93.15,2.59-1.22,1.97-1.47-3.93-4.2-8.37-4.44-13.03-.78-15.28,8.51-25.76,12.67-39.51,1.45-4.79,5.35-7.1,8.83-10.17,4.11-3.63,7.34-7.8,12.22-10.64,1.73-1.01,3-2.64,3.69-4.14,3.45-.3,5.57-4.04,9.07-4.98,11.68-3.14,9.99-9.4,35.7-15.12,3.35-.74,6.14.08,9.29-1.71,2.51-1.42,22.57-5.03,27.59-4.04,15.81,3.11,18.68-4.33,31.08.7,9.39,3.8,18.72,5.68,28.73,7.5-2.53-.46,17.07,6.51,14.03,7.48Z"/>
  <path class="cls-25" d="M57.88,186.47l-.27,1.69c-12.17-3.87-8.86-10.27-17.55-23.82-1.73-2.69-2.2-6.25-3.22-8.99.53-.57.93-1.25,1.22-1.97.88-.3,1.73.03,2.57.99,2.74,11.34,11.31,15.11,22.24,15.68,2.01.13,4.71,2.03,4.06,4.03-1.23,3.78-13.27,2.56-16.68.93l2.68,5.1c2.66,1.98,4.32,4.09,4.95,6.35Z"/>
  <path class="cls-12" d="M225.75,69.58c.78-.54,1.24-.3,1.85.16,13.63,10.35,25.93,19.87,31.42,37.07,7.22,10.72,10.95,22.01,11.13,34.73.6.72.28,2.64,1.35,3.12,1.54,3.82,2.34,9.18.64,12.83.13,4.17.13,8.48,0,12.96,1.01,2.99,1.01,6.65,0,10.97-1.87,3.65-1.95,8.08-2.1,12.01-2.73,6.66-5.97,13.02-9.72,19.1-.57.41-.97,1.57-1.85,1.75-7.24,1.53,1.36,9.6-22.69,21.75-7.74,3.91-13.79,11.42-22.17,14.15-4.65,1.52-8.76,3.58-13.55,4.68l-12.88,2.95-10.36,3.47c-5.61,1.88-21.44,5.54-26.48,5.51s-9.71-1.57-14.79-.71-9.39-.71-14.12-1.29c-3.14-.38-6.48.1-7.99-2.24-1.6-2.48-1.55-6.1.19-8.44,7.72-10.39-1.52-8.96,5.06-24.38,10.84,9.82,12.58.95,18.49,12.13,4.68,8.87,8.94,7.99,16.16,7.28,2.54-.25,3.03-2.39,4.39-3.3,4.57-4.71,9.42-9.25,14.56-13.61,1.13-.71,1.21-.99.05-.77l-4.59,4.16c-2.73,4.34-6.2,7.23-10.4,8.68-3.04,2.09-7.47,2.95-10.79,2.36-10.33-1.84-4.75-14.04-20.05-14.83-2.85-.15-6.65-5.69-4.71-8.06,2.59-3.14,4.72-5.23,3.6-9.54-1.8-6.9-6.78-11.28-13.75-13.92,2.31-7.24.78-13.86-1.92-20,2.75.21,5.65.43,8.7.65,4.77,1.48,5.59,5.04,2.49,10.68l3.39,4.79c5.95,1.87,8.08,6.46,6.4,13.76l-1.1,9.48,5.36,3c4.02,8.44,5.99,7.31,5.93-1.6-10.62-2.02-10.29-6.91-7.57-16.24-2.48-8.82-1.61-13.63,7.57-16.7,1.22-3.94,2.53-6.8,6.94-7.71-.38-2.12.21-3.49,1.76-4.12,1.85-3.37,9.75-2.91,11.77.25,1.68.99,2.09,2.2,1.48,3.86,8.68-.5,9.15,7.35,8.54,14.33-.48,5.43-2.9,8.44-8.11,9.92-1.3,6.87-6.84,9.23-16.64,7.08,6.31,1.28,12.99,1.73,20.05,1.34,2.88,1.2,4.52,3.85,4.9,7.95l8.86-.02c2.68,1.49,4.95,1.57,6.83.24,10.54-.43,21.15-.74,31.85-.93l2.5-5.47c6.71-.17,8.77-4.78,6.18-13.83.38-3.63,1.04-7.19,1.97-10.67,4.25-.92,6.98-3.63,8.18-8.11,1.68-.9,3.5-1.5,5.48-1.8.26-3.49,1.63-5.95,4.1-7.37,4.33.4,5.5-2.85,3.5-9.75-3.22,1.36-7-.21-5.88-3.89l-.67-1.21c1.09-1.75,2.01-3.67,2.75-5.77,1.46-1.37,3.51-2.09,6.17-2.15l6.39-2.07c-.77-5.36.37-9.48,2.57-14.23-2.44-3.88-3.06-7.43-1.85-10.66-5.34,2.18-7.33-2.73-8.33-7.19,0-8.19-.98-9.98-2.94-5.37,4.19,10.77-3.71,13.5-12.76,13.87-4.52-.94-8.2-3.87-11.04-8.79-4.27-1.51-5.94-3.84-5-6.99-3.13-.19-5.71-1.21-7.76-3.06-2.52-11.86-2.41-23.16,13.77-20.41,11.99-.11,12.28-.78.88-2.01-4.41,1.54-7.17-.86-8.28-7.2-7.45,1.95-10.4-9.78-3.46-11.03,2.75,2.39,7.29,2.67,10.12,4.4Z"/>
  <path class="cls-15" d="M270.15,141.55c-2.66-3.23,1.15-1.66-3.15-13.65-1.33-3.71-1.41-7.89-3.76-11.32-4.85-7.08-7.53-14.92-11.69-22.38-4.86-8.73-18.3-18.77-25.81-24.62.99.21.32-.63.15-.9l-.61-.97c4.15,1.07,7.12,4.76,10.95,7.04,5.68,3.39,9.07,8.01,13.16,12.92,2.53,3.04,5.43,4.93,6.67,9.17,4.81,16.36,16.57,21.3,14.08,44.72Z"/>
  <path class="cls-13" d="M270.04,193.44c-.15,3.79-6.15,18.53-9.72,19.1-1.35-.91.1-2.07.84-3.26,3.32-5.33,7.36-17.01,8.88-15.84Z"/>
  <path class="cls-5" d="M273.14,157.5c-.28.87-.62.86-1,0,.19-4.31-.41-8.53-.64-12.83,3.95,1.79,1.9,16.79,1.64,12.83Z"/>
  <path class="cls-17" d="M273.14,169.47c.08.63-.29.94-1,1-2.37-2.49-.27-6.94,0-12.96h1c.24,3.64-.82,8.42,0,11.96Z"/>
  <path class="cls-4" d="M272.14,181.43c-2.17.91.99-7.35,0-10.97.3-.37.63-.7,1-1,.99,4.3,1.1,7.87-1,11.96Z"/>
  <path class="cls-18" d="M215.62,65.18c-.76,2.92-3.63,4.67-.55,8.32,1.35,1.6,2.99.94,5.17.31,2.67-.77-.35,2.03,2.92,7.43,1.27,2.1,2.93-.26,4.86.29,3.52,1,6.54,1.1,10.48,1.41,1.32.1-.26,3.69-2.39,3.84l-8.86.61c-4.25.29-10.52-1.76-13.01,3.18-1.51,2.98,0,7.58-.4,11.09-.99,8.58,11.68.82,7.93,10.61,5.38.31,7.18,5.14,9.91,8.23,4.04,4.57,13.76,1.22,17.2-2.16-.7-3.6-2.33-6.06-1.28-9,.68-1.9,2.06-2.69,3.2-2.8,5.99-.56-.06,8.36,6.47,15.67l7.27-2.04c-1.48,2.96-4.14,6.25-2.37,8.67,6.36,8.69-3.4,6.93.28,20.49-4.33,1.87-11.91,4.53-15.19,3.14l-1.84,1.39-20.24-8.6c-4.81,3.65-2.75,6.48,6.18,8.51l12.97,3.4.85,2.28c1.26.33,1.83,2.22,2.9,2.4,1.76.3,2.92-.93,5.11-1.48.22,4.41,1,8.74,0,13.14-.43,1.89-4.16.9-5.37,1.59-2.41,1.37-1.41,4.94-3.04,6.81-1.23,1.41-5.64.5-6.13,2.78-.87,4.12-2.57,6.42-7.62,6.79.3,4.2-1.9,8.41-1.03,12.49s1.64,9.34-2.72,11.75c-1.32.73-4.07-.36-4.9,1.15-.63,1.15-.37,2.99-.11,5.15-5.41.71-10.89.75-16.7.77l-9.62.04c-4.39.02-8.3-1.02-11.43,2.67-4.54-4.67-6.78-1.18-14.33-2.64-1.67-2.1-.83-5.38-2.29-6.84-2.22-2.24-5.94-.49-8.54-.71l-12.8-1.09c-1.42-.12-2.2-1.92-2.18-3.27.05-3.16,10.31,1.62,15.59-2.36,1.25-.94.51-5.26,2.88-5.88,5.09-1.33,7.23-5.06,6.33-10.38-.52-3.07.84-6.65-1.53-9.2l-7.21-.87c.34-2.16.95-3.9.9-5.66l1.42-2.36c16.29-1.99,30.21-23.52,21.68-38.94-9.25-16.73-28.8-18.2-45.2-11.51-31.66,12.9-21.67,47.32,8.91,50.61l1.42,1.95c.08,1.57,1.04,5.26-1.11,5.94-2.87.92-4.64,1.91-5.04,4.96-.48,3.68-4.86,3.81-6.87,5.14-4.87,3.23-1.2,8.87-1.27,12.56s-3.41,8.19-.51,12.19l7.84,2.22c.72,3.46.31,8.38-2.03,11.26-1.67.93-5.51-1.98-5.64-3.95-.31-4.85-8.9-2.96-7.14-8.69.55-1.79,1.56-14.51.85-16.27-1.65-4.1-4.16.78-9.41-8.87-1.52-2.78,1.89-5.06,1.68-7.01-.37-3.42-5.75-3.81-8.27-2.01-.9-1.56-2.59-2.42-2.96-3.47-1.06-2.98-3.99-4.34-6.01-6.91-1.26-1.6-.18-5.28-2.03-6.8-3.31-2.72-6.18-.51-9.53.46-2.85.82-9.48-.09-11.4-2.44-2.69-3.27-2.8-8.1-6.83-10.32-11.94-6.58-25.57,1.68-36.11-6.79-7.29-5.86,4.6-31.44,8.39-38.63,1.8-3.42,2.13-7.96,5.31-10.62,4.8-4.02,10.33-7.57,14.72-12.12,5.83-6.04,12.26-9.01,19.47-12.63,9.4-4.72,17.73-12.04,29.02-12.22,4.76-.07,8.37-2.34,12.78-3.38,23.96-5.68,22.25-1.33,45.94-4.06,6.16-.71,12.28,3.43,17.81,4.84l9.69,2.47c5.23,1.33,10.61.46,14.66,3.98Z"/>
  <path class="cls-12" d="M57.88,186.47c-6.18-2.79-9.43-8.31-10.64-14.98,6.1,3.28,12.44,3.95,18.65,2.07-4.15-3.09-8.57-.98-12.38-2.99s-9.33-3.23-10.87-6.74l-4.58-10.44c.12-.31-.07-.89.38-1.33,6.61,3.07,13.84,3.7,21.09,2.15,8.89-1.9,17.1,3.6,17.77,12.59,3.65,3.06,8.1,1.82,12.33,3.16,15.06,4.77,23.92,14.61,19.34,31.05,5.39,3.32,16.95,10.44,12.9,17.79l-3.45,6.27c-4.34,7.88-5.77,15.08-5.17,23.64-1.26,2.95-3.94,6.69-4.66,10.96-2.84-6.09-6.9-10.25-9.76-15.59-1.96-6.54,2.99-18.66-4.36-25.36-2.4-2.19-1.41-3.66-.57-6.23,2.38-7.25-1.19-16.14-7.64-20.39-3-1.98-7.46.72-10.41-.4-5.53-2.09-12.65-4.63-17.98-5.24Z"/>
  <path class="cls-27" d="M172.29,232.27l-7.07,8.56-7.49,5.05-.38-1.55c2.48-1.7,6.15-4.68,7.6-7.27,2.14-3.84,4.72-3.69,7.39-5.56.88.16.83.42-.05.77Z"/>
  <path class="cls-20" d="M161.39,176.59c-4.42-.27-8.1-.49-11.77-.25-4.21.28-7.12-.84-10.91-2.06-10.75-3.46-19.35-12.18-20.41-23.51-1.43-15.35,8.28-26.02,22.26-29.4,5.7-1.38,14.57-6.49,26.72-1.6,4.47,1.8,9.18,2.13,13,6.48,4.25,4.85,9.48,11.91,9.27,19.21-.13,4.46-2.27,10.8-4.56,14.52-3.07,5-7.74,9.03-11.79,12.99-3.07,3-8.35,2.6-11.81,3.61Z"/>
  <path class="cls-26" d="M244.71,108.66c1.68,2.44-2.4,3.79-3.7,4.4-1.84.86-3.89-.61-5.76-2.41-4.39-4.23-10.41-7.75-12.47-14.12-.9-2.76,6.37-7.17,8.62-5.04,5.27,4.97,9.04,10.98,13.31,17.18Z"/>
  <path class="cls-20" d="M141.12,208.68c-1.68,1.22-3.32-1.17-3.61-2.28-.4-1.52-.06-3.56,1.17-5l6.85-8.04c2.4-2.82,5.5-5.08,8.43-7.39,1.69-1.33,3.96.87,4.95,1.76s2.7,3.91,1.2,5.35c-5.83,5.55-12.03,10.57-18.98,15.6Z"/>
  <path class="cls-26" d="M247.27,152.47c1,1.01,1.35,2.68.66,4.24-.43.97-1.79,1.73-2.74,2.74l-13.51-3.52c-3.22-.84-6.29-2.38-9.32-3.64-2.2-.92-1.56-4.04-1.13-5.45.58-1.94,2.51-4.35,4.94-3.32l21.11,8.96Z"/>
  <path class="cls-26" d="M160.55,228.88c-.3,4.1-4.18,5.22-6.59,5.42-3.73.3-6.06-1.33-7-4.07-1.08-3.15-1.44-6.95,1.81-8.48,2.71-1.27,5.62-.87,8.3.3,1.87.81,3.76,3.02,3.48,6.84Z"/>
  <path class="cls-22" d="M172.29,232.27l.05-.77c13.07-9.19,29.99-1.42,44.06-.8-20.91,2.82-21.23-6.12-44.11,1.57Z"/>
  <path class="cls-6" d="M261.04,172.3c-2.46,4.42-2.89,8.86-6.89,11.28l4.94-11.66c-.08-2.27,2.78-2,1.95.38Z"/>
  <path class="cls-23" d="M233.24,217.34c-2.35,3.5-3.83,7.05-7.85,8.71,1.79-3.91,4.44-6.72,6.88-9.66,1.41-1.39,1.95-.82.97.95Z"/>
  <path class="cls-10" d="M233.24,217.34c-.25-.39-.57-.71-.97-.95l3.13-9.88c1.91,4.27-.27,8.01-2.16,10.83Z"/>
  <path class="cls-14" d="M235.67,206.5c-.35-3.09,1.46-6.25,4.58-7.73-.24,3.03-1.89,5.11-4.58,7.73Z"/>
  <path class="cls-3" d="M245.47,92.32c-.01,1.9-.59,2.43-1.73,2.39-.92-.03-1.45-.46-1.97-1.04-.83-.94-.78-2.45.66-3.09.82-.52.8-1,1.24-1.07,1.23-.19,1.82.71,1.81,2.8Z"/>
  <path class="cls-20" d="M117.12,94.33c-1.57,2.35-6.44-1.37-6.19-3.86.73-7.35,3.2-15.55,8.31-21.15,2.11-2.31,9.39,3.1,8.14,5.98-2.94,6.8-5.97,12.61-10.26,19.03Z"/>
  <path class="cls-26" d="M102.19,141.13c-.49,2.2-7.44,2.99-8.39.52-2.47-6.44-2.81-13.77-1.29-20.33.53-2.29,7.64-2.36,8.28-.23.58,1.91,2.35,15.73,1.39,20.04Z"/>
  <path class="cls-24" d="M210.56,126.38c-2.67,3.66-7.76,3.54-10.33,1.69-3-2.16-4.56-7.59-1.74-10.36,3.12-3.07,8.94-2.11,11.61.96,1.63,1.87,2.07,5.5.46,7.71Z"/>
  <path class="cls-9" d="M170.4,99.97c-4.97-1.99-9.87-3.65-14.23-6.13-1.4-.8-.24-5.76,1.34-5.88,4.96-.39,8.95,2.77,12.75,4.75,1.92,1,3.64,1.23,3.86,2.9.28,2.14-1.3,5.34-3.72,4.37Z"/>
  <path class="cls-9" d="M213.58,208.48c-5.83.45-10.92.12-16.26-1.18-1.45-.35-.68-3-.31-3.87,1.23-2.86,13.21-3.78,17.08-2.3,1.99.76.97,5.31-.51,7.36Z"/>
  <path class="cls-15" d="M64.65,130.1c-1.31,2.97-3.19,4.86-5.85,6.26-1.66-.52-4.78-2.52-3.96-4.49,1.86-4.5,6.43-6.53,9.8-9.3,1.77-1.45,3.13-2.61,5.29-1.44,1.27.69,2.69,3.13,1.28,4.77-1.67,1.95-3.76,3.27-6.56,4.2Z"/>
  <path class="cls-19" d="M90.27,95.32c.27,2.43-1.03,3.9-1.93,4.67-2.97,2.5-10.33-.92-10.4-4.9-.04-2.21.13-5.35,2.97-6.19,4.05-1.2,8.86,2,9.36,6.43Z"/>
  <path class="cls-1" d="M167.33,71.94c-.33-1.47-.98-2.48-.85-3.69s1.75-1.7,3.02-2.44c2.78-1.61,5.66-.71,7.02,1.48,1.5,2.42.17,5.59-1.41,6.81-2.6,2.01-7.04,1.17-7.79-2.16Z"/>
  <path class="cls-11" d="M209.58,177.38c-1.63,2.52-5.21,1.86-7.53,1.26-2.09-2.28-2.15-6.03.71-7.59,1.98-1.08,4.06-.24,5.4.99,1.02.93,2.79,3.23,1.42,5.34Z"/>
  <path class="cls-2" d="M99.39,193.52c-3.54-4.41-11.62-8.46-18.04-11.38,4.32-3.58,8.37.22,11.99,2.72,2.89,1.99,7.06,3.02,6.04,8.67Z"/>
  <path class="cls-12" d="M182.21,155.65c-1.89-.67-3.78-2.86-4.5-4.76-1.07-.79-1.23-2.78-2.95-3.6-7.59-3.61-15.63-5.28-24.19-4.88-3.76.18-7.58,2.16-11.57,2.59-7.29.79-12.01,5.54-14.68,12.92-4.79-6.59-3.15-14.24.02-21.74,2.71-6.41,9.4-9.36,16.44-12.35,9.05-3.84,17.29-4,26.75-1.32,8.03,2.28,13.42,7.37,16.61,15.37,2.02,5.07,3.61,9.26.24,14.83-.58.97-.06,4.27-2.16,2.93Z"/>
  <path class="cls-3" d="M176.5,151.44c2.5,1.01,4.99,3.31,4.88,6.15.59,2.53-1.59,3.75-3.24,5.64-2.65,3.03-4.35,6.86-8.29,8.5-7.73,3.23-25.64,2.81-33.24-1.61-3.08-1.79-9.4-4.43-9.73-8.55-.74-9.33,7.62-12.61,14.76-14.07,9.49-1.95,18.06-3.57,27.36.53,2.46,1.08,5.71,1.32,7.5,3.41Z"/>
  <path class="cls-16" d="M182.21,155.65c-.3.49-.98,1.32-.83,1.95-1.34-2.26-3.16-4.15-4.88-6.15.35.02,2.07.52,1.21-.55,1.79,1.32,3.56,2.63,4.5,4.76Z"/>
</svg>