<?xml version="1.0" encoding="UTF-8"?>
<svg id="Capa_1" data-name="Capa 1" xmlns="http://www.w3.org/2000/svg" width="972.86" height="956.5" viewBox="0 0 972.86 956.5">
  <defs>
    <style>
      .cls-1 {
        fill: #eb5f94;
      }

      .cls-2 {
        fill: #f8f5f6;
      }
    </style>
  </defs>
  <path class="cls-1" d="M924.78,264.45c-38.92-49.62-101.93-64.86-161.36-41.56-8.82-19.04-21.09-32.33-38.72-40.48l-55.89-25.84c-81.39-25.3-166.43-28.55-252.06-14.31l-31.97-51.54C316.97,19.39,217.44-12.37,119.42,4.39c-29.38,5.02-56.94,14.93-79.83,33.2-14.28,11.39-11.97,41.17-.01,51.88,15.27,13.68,31.63,12.42,52.1,19.95-30.55,15.67-55.47,27.94-73.83,53.2-5.39,7.43-9.69,15.24-17.85,17.44v46.02c8.17,13.9,24.08,21.42,40.13,13.75l64.21-30.69c-20.49,25.74-30.11,47.61-29.99,78.6l-14.17,32.43c-6.05,51.91-8.51,102-4.22,154.58,14.7,180.02,127.72,336.39,314.5,363.63,2.14,7.45,2.97,13.83.31,23.24-69.07-8.32-176.74-13.79-178.56,36.13-.61,16.82,10,31.54,29.82,38.06,74.28,24.47,219.82,35.93,246.6-15.86,12.47-24.12,4.06-50.21-6.92-75.59,45.98-3.3,85.29-10.98,127.4-29.67l30.79,58.25c38.57,72.97,161.42,7.48,223.74-49.91,35.66-32.84,55.59-79.93,33.01-103.61-30.28-31.74-121.59,18.98-172.54,53.26-6.66,4.48-13.49-8.48-14.33-13.25-1.45-8.22,4.95-13.95,12.44-20.68,46.45-41.71,71.13-97.52,94.26-155.41,67.96-21.2,144.28-70.01,166.84-133.82,22.81-64.55,2.65-132.57-38.54-185.07ZM748.17,246.17c2.82,27.91-24.82,46.69-46.15,67.11-21.85-93.59-127.93-103.44-224.17-141.44,76.94-17.1,265.68,28.53,270.32,74.33ZM118,223.99c-.82-8.04-7.71-12.27-15.58-15.91,35-17.15,66.53-29.89,101.69-32.68-1.06,9.76-1.35,24.74-8.63,31.37-16.81,6.32-40.5,1.73-55.1,15.71-17.21,16.49-14.64,45.5,2.01,66.12,14.45-9.15,11.45-24.14,5.43-38.95l45.16-6.35c12.11-1.7,23.2-9.53,22.97-22.43-.61-33.22,31.03-43.23,18.32-70.54-15.08-32.41-122,11.84-177.13,45.86-11.12,6.86-23.07,11.11-36.75,8.71,49.3-86.63,184.83-68.75,203.57-100.88,3.45-5.92,4-26.41-4.97-26.75l-84.97-3.23c-25.5-.97-48.78.95-75.96-12.27,103-56.03,254.2-19.61,322.11,68.27,18.08,23.4,22.91,53.69,54.83,64.27l122.35,40.6c53.69,17.82,126.21,44.19,123.3,93.29-127.06,71.6-275.71,96.9-418.17,60.97-63.54-16.02-160.15-63.92-167.49-107.03-4.31-25.32,25.42-34.5,23.01-58.15ZM453.29,894.89c-11.67,35.09-157.58,33.66-224.57,6.77,61.02-26.98,147.53,5.91,158.01-11.68,8-13.43,4.82-30.05,4.27-48.61l45.53,5.44c9.52,7.77,21.52,33.77,16.76,48.08ZM751.2,630.08c-53.18,95.13-108.34,108.63-111.35,121.78-2.16,9.38-1.51,17.54,5.01,26.43l23.57-10.16c8.82,19.09,15.88,34.11,32.22,47.4,43.87-35.73,114.85-77.5,165.13-67.07-28.24,69.74-186.62,152.96-224.91,109.24-13-14.84-18.07-33.23-27.47-51.67,10.22-4.48,15.49-9.04,18.54-16.7,2.42-6.06-4.25-26.53-12.72-22.5-86.11,41.02-173.14,53.06-265.13,33.49-222.78-47.4-315.05-264.58-271.76-481.72,36.27,42.63,77.21,72.08,129.08,90.47,145.02,51.43,301.91,38.35,439.26-29.31,45.98-22.64,86.51-48.71,111.34-94.2,36.03,124.91,53.57,229.35-10.81,344.52ZM922.05,469.51c-29.29,31.36-65.12,55.9-111.22,72.93l3.28-72.73c50.62-24.16,66.6-87.13,36.72-132.9-12.18-18.65-35.21-22.25-57.62-18.46-9.17-21.5-13.6-43.18-9.84-66.02,83.21-23.26,144.48,33.63,167.28,112.78,11.46,39.73-1.06,74.43-28.6,104.4ZM799.98,353.94c20.23-6.6,44.23,4.31,46.91,29.1,2.54,23.4-16.71,42.35-36.02,49.78-1.33-27.11-6.7-51.36-10.89-78.88Z"/>
  <path class="cls-2" d="M700.65,815.53c-16.34-13.29-23.4-28.31-32.22-47.4l-23.57,10.16c-6.52-8.89-7.17-17.05-5.01-26.43,3.01-13.15,58.17-26.65,111.35-121.78,64.38-115.17,46.84-219.61,10.81-344.52-24.83,45.49-65.36,71.56-111.34,94.2-137.35,67.66-294.24,80.74-439.26,29.31-51.87-18.39-92.81-47.84-129.08-90.47-43.29,217.14,48.98,434.32,271.76,481.72,91.99,19.57,179.02,7.53,265.13-33.49,8.47-4.03,15.14,16.44,12.72,22.5-3.05,7.66-8.32,12.22-18.54,16.7,9.4,18.44,14.47,36.83,27.47,51.67,38.29,43.72,196.67-39.5,224.91-109.24-50.28-10.43-121.26,31.34-165.13,67.07ZM164.26,577.7c-68.01-80.74-48.63-184.34-34.28-162.08,1.73,2.69,4.54,8.13,4.28,13.02-5.2,94.52,62.85,117.92,30,149.06ZM593.23,422.48l26.15,46.31c9.95-29.89-1.42-64.85,12.24-70.22,3.25-1.28,9.86,1,10.12,6.79,1.97,44.38-2.6,106.41-21.68,99.02-30.9-11.98-41.36-54.27-26.83-81.9ZM494.35,456.36c12.7-7.27,9.49,39.24,42.84,52.84,11.26-34.04,2.88-71.93,11.72-80.49,19.12-18.51,21.67,99.84-12.97,113.84-24.63,9.95-61.73-74.65-41.59-86.19ZM209.23,628.41c-15.71,4.55-17.94-13.48-19.02-20.42-1.43-9.09-.23-27.84,17.23-25.06,13.12,2.1,14.64,41.76,1.79,45.48ZM589.81,662.76c-90.81,29.07-175.64-19.68-213.62-113.19-35.97,10.83-35.94,56.66-49.08,56.91-20.22.39-3.2-84.78,70.54-106.73,11.4,5.26,6.25,26.39-.33,37.81,20.89,59.49,85.73,104.49,153.53,97.53,86.54-8.88,150.22-76.64,164.11-156.38-13.36-1.68-17.51-6.97-19.08-12.53-2.23-7.87-1.06-21.61,7.83-23.47,20.4-4.27,55.61,2.66,61.34,21.49,2.2,7.22,1.16,20.32-9.53,22.78-5.01,1.16-14.59-6.25-22.8-5.43-9.06,82.14-61.5,155.14-142.91,181.21Z"/>
  <path class="cls-2" d="M557.35,234.91l-122.35-40.6c-31.92-10.58-36.75-40.87-54.83-64.27C312.26,42.16,161.06,5.74,58.06,61.77c27.18,13.22,50.46,11.3,75.96,12.27l84.97,3.23c8.97.34,8.42,20.83,4.97,26.75-18.74,32.13-154.27,14.25-203.57,100.88,13.68,2.4,25.63-1.85,36.75-8.71,55.13-34.02,162.05-78.27,177.13-45.86,12.71,27.31-18.93,37.32-18.32,70.54.23,12.9-10.86,20.73-22.97,22.43l-45.16,6.35c6.02,14.81,9.02,29.8-5.43,38.95-16.65-20.62-19.22-49.63-2.01-66.12,14.6-13.98,38.29-9.39,55.1-15.71,7.28-6.63,7.57-21.61,8.63-31.37-35.16,2.79-66.69,15.53-101.69,32.68,7.87,3.64,14.76,7.87,15.58,15.91,2.41,23.65-27.32,32.83-23.01,58.15,7.34,43.11,103.95,91.01,167.49,107.03,142.46,35.93,291.11,10.63,418.17-60.97,2.91-49.1-69.61-75.47-123.3-93.29ZM393.65,341.64c-22.48.19-41.64-8.8-62.29-12.52-13.17-2.37-12.79-31.83-.51-33.45,12.48-1.64,56.96,8.24,68.1,22.11,3.67,4.56,3.96,23.78-5.3,23.86ZM467.81,326.58c-32.6-34.72-70.1-52.17-115.02-62.99-10.68-2.57-11.34-29.49-2.27-33.59,55.42,6.28,147.08,51.46,117.29,96.58Z"/>
  <path class="cls-2" d="M810.83,542.44l3.28-72.73c50.62-24.17,66.6-87.13,36.71-132.9-12.18-18.65-35.21-22.25-57.62-18.45-9.17-21.51-13.6-43.18-9.84-66.03,83.21-23.26,144.47,33.64,167.28,112.78,11.45,39.74-1.06,74.43-28.6,104.4-29.29,31.35-65.12,55.89-111.22,72.93Z"/>
  <path class="cls-2" d="M748.17,246.17c2.82,27.9-24.82,46.68-46.15,67.1-21.85-93.59-127.92-103.44-224.17-141.44,76.95-17.09,265.68,28.54,270.32,74.34Z"/>
  <path class="cls-2" d="M453.29,894.89c-11.67,35.09-157.58,33.67-224.57,6.77,61.03-26.97,147.54,5.92,158.01-11.67,8-13.43,4.82-30.05,4.27-48.61l45.52,5.44c9.52,7.77,21.52,33.77,16.76,48.08Z"/>
  <path class="cls-2" d="M846.89,383.04c2.54,23.4-16.72,42.35-36.03,49.78-1.32-27.12-6.7-51.36-10.88-78.88,20.22-6.6,44.22,4.31,46.91,29.1Z"/>
  <path class="cls-1" d="M376.19,549.57c-35.97,10.84-35.94,56.67-49.08,56.92-20.22.39-3.2-84.79,70.54-106.73,11.41,5.26,6.25,26.39-.32,37.81,20.88,59.5,85.73,104.5,153.53,97.54,86.54-8.88,150.22-76.64,164.11-156.39-13.36-1.67-17.51-6.96-19.08-12.53-2.23-7.87-1.06-21.61,7.83-23.47,20.39-4.26,55.61,2.66,61.34,21.49,2.2,7.22,1.15,20.32-9.53,22.78-5.01,1.15-14.59-6.25-22.8-5.43-9.06,82.14-61.5,155.14-142.92,181.21-90.8,29.07-175.63-19.68-213.61-113.19Z"/>
  <path class="cls-1" d="M535.94,542.55c-24.62,9.95-61.73-74.65-41.58-86.19,12.7-7.28,9.48,39.24,42.83,52.84,11.26-34.04,2.88-71.93,11.72-80.49,19.12-18.51,21.67,99.84-12.97,113.84Z"/>
  <path class="cls-1" d="M620.06,504.37c-30.9-11.97-41.36-54.26-26.83-81.89l26.15,46.3c9.96-29.88-1.42-64.85,12.24-70.22,3.25-1.28,9.86,1,10.12,6.79,1.98,44.38-2.6,106.41-21.68,99.01Z"/>
  <path class="cls-1" d="M134.26,428.64c-5.19,94.52,62.86,117.92,30.01,149.06-68.01-80.74-48.63-184.34-34.29-162.08,1.73,2.69,4.54,8.13,4.28,13.03Z"/>
  <path class="cls-1" d="M209.23,628.41c-15.71,4.55-17.94-13.49-19.02-20.42-1.42-9.09-.23-27.85,17.23-25.06,13.12,2.09,14.64,41.76,1.79,45.48Z"/>
  <path class="cls-1" d="M467.81,326.58c-32.6-34.72-70.1-52.17-115.02-62.99-10.67-2.57-11.33-29.5-2.26-33.59,55.41,6.28,147.08,51.46,117.29,96.58Z"/>
  <path class="cls-1" d="M393.65,341.64c-22.47.19-41.64-8.8-62.29-12.52-13.17-2.37-12.79-31.83-.51-33.44,12.48-1.64,56.97,8.24,68.11,22.1,3.67,4.56,3.96,23.79-5.31,23.87Z"/>
</svg>