<?xml version="1.0" encoding="UTF-8"?>
<svg id="Capa_1" data-name="Capa 1" xmlns="http://www.w3.org/2000/svg" width="1080" height="1080" viewBox="0 0 1080 1080">
  <defs>
    <style>
      .cls-1 {
        fill: #ff2e2e;
      }

      .cls-2 {
        fill: #93c572;
      }

      .cls-3 {
        fill: #fefefe;
      }

      .cls-4 {
        font-family: CooperBlackStd, 'Cooper Std';
        font-size: 72px;
      }

      .cls-5 {
        fill: #010101;
      }
    </style>
  </defs>
  <path class="cls-1" d="M773.55,570.83l-.72.13-6.55.47-12.23.9c.25.47.65.76,1.27.92,3.14.83,5.94,1.95,8.68,3.43,7.2,3.91,12.35,11.08,10.47,18.36-.91,3.49-3.51,6.17-7.45,6.75-9.88,1.43-18.17-4.51-25.26-11.22,1.57,8.46.84,16.35-2.94,23.71-2.14,4.16-6.17,6.56-9.92,4.51-6.65-3.62-8.17-16.37-8.2-24.94l-3.33,6.35c-1.43,2.73-2.76,5.35-4.67,7.75-4.95,6.24-12.4,9.4-19.02,5.47-1.89-1.12-3.54-2.56-4.66-4.45-4.29-7.26.01-16.54,7.09-21.45l5.53-3.84-12.53,2.35c-2.03.37-4.21.3-5.95-.51-5.02-2.37-6.81-7.47-4.71-12.3,3.91-8.98,13.83-11.64,24.15-11.22,2.27.09,4.32.51,6.45.09-1.88-2.16-4.93-2.42-6.83-3.25-11.24-4.91-26.14-13.72-19.57-25.03,2.13-3.69,5.77-6.12,10.16-6.9,9.74-1.71,18.17,3.9,23.56,12,.15-4.61.33-9,1.88-13.42l1.47-3.04c1.5-3.1,4.1-5.41,7.4-6.81,2.88-1.22,5.94-.57,7.31,2.2,2.4,4.88,2.01,14.81,1.41,21.4-.52.46.19,1.08.77.62,2.19-5.34,5.36-11.03,9.46-15.2.17-.18.35-.35.53-.51l-51.92-89.92c-.07.75-.2,1.5-.4,2.26-1.15,4.44-4.43,7.86-9.41,8.59-12.49,1.83-22.96-5.74-31.92-14.28,1.98,10.77,1.06,20.82-3.72,30.19-2.7,5.3-7.79,8.36-12.53,5.75-8.41-4.62-10.33-20.85-10.37-31.77l-4.21,8.09c-1.81,3.47-3.49,6.81-5.9,9.87-6.26,7.95-15.67,11.97-24.03,6.97-2.39-1.43-4.48-3.27-5.89-5.67-5.42-9.25.01-21.07,8.95-27.32l7-4.89-15.84,2.99c-2.56.48-5.32.39-7.52-.65-6.34-3.01-8.61-9.51-5.95-15.66,4.94-11.44,17.47-14.82,30.52-14.29,2.87.12,5.46.65,8.15.12-2.38-2.75-6.23-3.08-8.63-4.14-14.21-6.26-33.04-17.47-24.74-31.88,2.7-4.7,7.3-7.79,12.85-8.78,12.3-2.18,22.96,4.96,29.77,15.27.19-5.87.42-11.46,2.37-17.08l1.86-3.87c1.9-3.96,5.19-6.9,9.36-8.68.91-.39,1.84-.63,2.74-.71l-36.4-63.04c-6.6-11.43-15.62-20.07-25.88-25.91-2.03,7.52-9.49,16.65-15.11,21.16,1.6.75,2.89.02,4.23-.17,6.65-.98,14.17-2.06,20.06-.4,3.82,1.08,7.17,3.2,8.76,6.71,1.25,2.74,1.23,5.94-.6,8.34-1.79,2.35-4.4,3.61-7.31,4.12l-3.42.61-6.54.47-12.23.9c.24.47.65.76,1.26.92,3.14.83,5.95,1.95,8.68,3.43,7.2,3.91,12.35,11.08,10.47,18.36-.91,3.49-3.5,6.17-7.44,6.74-9.89,1.44-18.17-4.5-25.26-11.21,1.56,8.46.84,16.35-2.95,23.71-2.13,4.16-6.16,6.56-9.91,4.51-6.65-3.62-8.17-16.37-8.21-24.94l-3.33,6.35c-1.43,2.72-2.76,5.35-4.67,7.75-4.95,6.24-12.39,9.4-19.01,5.47-1.89-1.12-3.55-2.57-4.66-4.45-4.29-7.26.01-16.55,7.08-21.45l5.54-3.84-12.53,2.35c-2.03.37-4.21.3-5.95-.52-5.02-2.36-6.82-7.46-4.71-12.29,3.91-8.98,13.82-11.64,24.15-11.22,2.27.09,4.32.51,6.45.09-1.89-2.16-4.93-2.42-6.83-3.25-8.33-3.64-18.65-9.41-20.78-16.75-4.11,4.17-7.79,8.97-10.93,14.41l-132.81,230.02c1.09-1.53,2.28-2.97,3.55-4.27,4.97-5.05,11.61-7.69,17.45-3.93,9.34,6.03-3.73,24.04-12.43,31.02,1.61.75,2.9.02,4.24-.18,6.65-.98,14.17-2.05,20.06-.39,3.82,1.08,7.16,3.2,8.75,6.71,1.25,2.74,1.24,5.94-.6,8.34-1.78,2.34-4.4,3.61-7.3,4.12l-3.42.6-6.54.47-12.24.91c.25.47.65.76,1.27.92,3.14.83,5.94,1.94,8.68,3.43,7.2,3.91,12.35,11.08,10.47,18.36-.91,3.48-3.51,6.17-7.45,6.74-9.88,1.44-18.16-4.51-25.25-11.21,1.56,8.46.83,16.35-2.95,23.7-2.13,4.17-6.16,6.57-9.91,4.52-6.66-3.63-8.18-16.37-8.21-24.95l-3.33,6.36c-1.43,2.72-2.76,5.34-4.67,7.75-4.94,6.22-12.36,9.37-18.96,5.5l-87.78,152.02c-27.02,46.8,6.76,105.3,60.8,105.3h111.68c1.84-2.6,4.17-4.92,6.8-6.76l7-4.89-15.84,2.99c-2.56.48-5.32.39-7.52-.65-6.34-3.01-8.61-9.51-5.95-15.66,4.94-11.44,17.47-14.82,30.52-14.29,2.87.12,5.46.65,8.15.12-2.38-2.75-6.23-3.08-8.63-4.14-14.21-6.26-33.04-17.47-24.74-31.88,2.7-4.7,7.3-7.79,12.85-8.78,12.3-2.18,22.96,4.96,29.77,15.27.19-5.87.42-11.46,2.37-17.08l1.86-3.87c1.9-3.96,5.19-6.9,9.36-8.68,3.63-1.55,7.5-.73,9.23,2.8,3.04,6.22,2.54,18.87,1.79,27.26-.66.58.23,1.37.97.79,2.77-6.81,6.77-14.05,11.96-19.36,6.28-6.42,14.68-9.79,22.06-5,11.8,7.68-4.72,30.62-15.71,39.5,2.03.96,3.66.03,5.35-.22,8.41-1.25,17.91-2.62,25.35-.5,4.83,1.37,9.06,4.07,11.07,8.54,1.58,3.49,1.56,7.57-.76,10.62-2.26,2.99-5.56,4.6-9.23,5.25l-4.32.77-8.27.6-15.46,1.15c.31.6.82.97,1.6,1.17,3.97,1.06,7.51,2.48,10.97,4.37,8.17,4.47,14.26,12.3,13.68,20.56h304.26c2.57-5.81,7.13-11.11,12.68-14.87l9.44-6.37-21.36,3.9c-3.45.62-7.17.51-10.14-.85-8.54-3.93-11.6-12.4-8.02-20.42,6.66-14.92,23.55-19.33,41.15-18.64,3.87.16,7.36.85,10.99.16-3.21-3.59-8.4-4.02-11.64-5.4-19.16-8.16-44.54-22.78-33.35-41.57,3.64-6.13,9.84-10.16,17.32-11.45,16.58-2.84,30.96,6.47,40.14,19.91.25-7.65.56-14.94,3.19-22.27l2.51-5.05c1.95-3.93,4.99-7.08,8.81-9.39l-81.02-140.34ZM380.42,692.41c-1.79,2.35-4.4,3.61-7.31,4.12l-3.42.61-6.54.47-12.23.9c.24.47.65.76,1.26.92,3.14.83,5.95,1.95,8.68,3.43,7.2,3.91,12.35,11.08,10.47,18.36-.91,3.49-3.5,6.17-7.44,6.74-9.89,1.44-18.17-4.5-25.26-11.21,1.56,8.46.84,16.35-2.95,23.71-2.13,4.16-6.16,6.56-9.91,4.51-6.65-3.62-8.17-16.37-8.21-24.94l-3.33,6.35c-1.43,2.72-2.76,5.35-4.67,7.75-4.95,6.24-12.39,9.4-19.01,5.47-1.89-1.12-3.55-2.57-4.66-4.45-4.29-7.26,0-16.55,7.08-21.45l5.54-3.84-12.53,2.35c-2.03.37-4.21.3-5.95-.52-5.02-2.36-6.82-7.46-4.71-12.29,3.91-8.98,13.82-11.64,24.15-11.22,2.27.09,4.32.51,6.45.09-1.89-2.16-4.93-2.42-6.83-3.25-11.25-4.92-26.15-13.72-19.58-25.03,2.14-3.69,5.78-6.12,10.17-6.9,9.73-1.71,18.17,3.9,23.56,11.99.15-4.61.33-9,1.87-13.41l1.47-3.04c1.51-3.11,4.11-5.42,7.41-6.81,2.87-1.22,5.93-.58,7.3,2.2,2.41,4.88,2.01,14.81,1.42,21.4-.52.46.18,1.08.77.62,2.19-5.35,5.35-11.03,9.46-15.2,4.97-5.04,11.62-7.69,17.46-3.93,9.33,6.03-3.74,24.05-12.43,31.02,1.6.75,2.89.02,4.23-.17,6.65-.98,14.17-2.06,20.06-.4,3.82,1.08,7.17,3.2,8.76,6.71,1.25,2.74,1.23,5.94-.6,8.34ZM514.51,421.64c-1.72,2.37-4.23,3.65-7.02,4.17l-3.28.61-6.28.48-11.75.92c.23.47.62.77,1.21.93,3.02.84,5.71,1.97,8.34,3.47,6.91,3.96,11.86,11.23,10.05,18.6-.87,3.53-3.36,6.25-7.15,6.83-9.49,1.46-17.45-4.56-24.25-11.36,1.5,8.57.8,16.56-2.83,24.02-2.05,4.21-5.92,6.65-9.52,4.57-6.39-3.67-7.85-16.58-7.88-25.27l-3.2,6.44c-1.38,2.76-2.65,5.41-4.49,7.85-4.75,6.32-11.9,9.52-18.26,5.54-1.81-1.14-3.4-2.6-4.47-4.51-4.12-7.36.01-16.76,6.8-21.73l5.32-3.89-12.04,2.38c-1.94.38-4.04.31-5.71-.52-4.82-2.39-6.55-7.56-4.52-12.45,3.75-9.1,13.27-11.79,23.19-11.37,2.18.09,4.15.52,6.19.09-1.81-2.18-4.73-2.45-6.56-3.29-10.8-4.98-25.1-13.89-18.8-25.36,2.05-3.74,5.55-6.19,9.77-6.98,9.34-1.73,17.45,3.94,22.62,12.15.14-4.67.32-9.12,1.8-13.59l1.41-3.08c1.45-3.15,3.95-5.49,7.12-6.9,2.76-1.24,5.7-.58,7.01,2.22,2.31,4.95,1.93,15.01,1.36,21.69-.5.46.18,1.09.74.63,2.1-5.42,5.14-11.18,9.09-15.4,4.77-5.11,11.15-7.79,16.76-3.98,8.97,6.11-3.59,24.36-11.94,31.42,1.55.76,2.78.02,4.07-.18,6.39-.99,13.61-2.08,19.26-.39,3.67,1.09,6.89,3.23,8.41,6.79,1.2,2.77,1.19,6.02-.57,8.45ZM696.04,758.65c-2.26,2.99-5.56,4.6-9.23,5.25l-4.32.77-8.27.6-15.46,1.15c.31.6.82.97,1.6,1.17,3.97,1.06,7.51,2.48,10.97,4.37,9.1,4.98,15.61,14.11,13.23,23.38-1.15,4.44-4.43,7.86-9.41,8.59-12.49,1.83-22.96-5.74-31.92-14.28,1.98,10.77,1.06,20.82-3.72,30.19-2.7,5.3-7.79,8.36-12.53,5.75-8.41-4.62-10.33-20.85-10.37-31.77l-4.21,8.09c-1.81,3.47-3.49,6.81-5.9,9.87-6.26,7.95-15.67,11.97-24.03,6.97-2.39-1.43-4.48-3.27-5.89-5.67-5.42-9.25.01-21.07,8.95-27.32l7-4.89-15.84,2.99c-2.56.48-5.32.39-7.52-.65-6.34-3.01-8.61-9.51-5.95-15.66,4.94-11.44,17.47-14.82,30.52-14.29,2.87.12,5.46.65,8.15.12-2.38-2.75-6.23-3.08-8.63-4.14-14.21-6.26-33.04-17.47-24.74-31.88,2.7-4.7,7.3-7.79,12.85-8.78,12.3-2.18,22.96,4.96,29.77,15.27.19-5.87.42-11.46,2.37-17.08l1.86-3.87c1.9-3.96,5.19-6.9,9.36-8.68,3.63-1.55,7.5-.73,9.23,2.8,3.04,6.22,2.54,18.87,1.79,27.26-.66.58.23,1.37.97.79,2.77-6.81,6.77-14.05,11.96-19.36,6.28-6.42,14.68-9.79,22.06-5,11.8,7.68-4.72,30.62-15.71,39.5,2.03.96,3.66.03,5.35-.22,8.41-1.25,17.91-2.62,25.35-.5,4.83,1.37,9.06,4.07,11.07,8.54,1.58,3.49,1.56,7.57-.76,10.62Z"/>
  <path class="cls-2" d="M381.02,684.07c-1.59-3.51-4.94-5.63-8.76-6.71-5.89-1.66-13.41-.58-20.06.4-1.34.19-2.63.92-4.23.17,8.69-6.97,21.76-24.99,12.43-31.02-5.84-3.76-12.49-1.11-17.46,3.93-4.11,4.17-7.27,9.85-9.46,15.2-.59.46-1.29-.16-.77-.62.59-6.59.99-16.52-1.42-21.4-1.37-2.78-4.43-3.42-7.3-2.2-3.3,1.39-5.9,3.7-7.41,6.81l-1.47,3.04c-1.54,4.41-1.72,8.8-1.87,13.41-5.39-8.09-13.83-13.7-23.56-11.99-4.39.78-8.03,3.21-10.17,6.9-6.57,11.31,8.33,20.11,19.58,25.03,1.9.83,4.94,1.09,6.83,3.25-2.13.42-4.18,0-6.45-.09-10.33-.42-20.24,2.24-24.15,11.22-2.11,4.83-.31,9.93,4.71,12.29,1.74.82,3.92.89,5.95.52l12.53-2.35-5.54,3.84c-7.07,4.9-11.37,14.19-7.08,21.45,1.11,1.88,2.77,3.33,4.66,4.45,6.62,3.93,14.06.77,19.01-5.47,1.91-2.4,3.24-5.03,4.67-7.75l3.33-6.35c.04,8.57,1.56,21.32,8.21,24.94,3.75,2.05,7.78-.35,9.91-4.51,3.79-7.36,4.51-15.25,2.95-23.71,7.09,6.71,15.37,12.65,25.26,11.21,3.94-.57,6.53-3.25,7.44-6.74,1.88-7.28-3.27-14.45-10.47-18.36-2.73-1.48-5.54-2.6-8.68-3.43-.61-.16-1.02-.45-1.26-.92l12.23-.9,6.54-.47,3.42-.61c2.91-.51,5.52-1.77,7.31-4.12,1.83-2.4,1.85-5.6.6-8.34ZM331.62,675.89c1.23-1.96,2.14-3.92,3.15-5.96l3.84-7.8c1.62-3.27,3.81-6.08,6.56-8.67,4.93-4.63,11.97-6.06,14.38-2,3.3,5.55-4.55,13.99-9.49,19.17-4.71,4.93-12.48,13.97-16.43,12.22-2.92-1.28-3.63-4.41-2.01-6.96ZM333.99,696.19c-3.03,4-8.34,6.68-12.3,3.28-1.84-1.59-3.63-3.31-4.57-5.47-1.38-3.15-.34-6.1,2.31-8.16,2.87-2.23,6.52-2.99,9.92-1.13,4.47,2.45,7.66,7.5,4.64,11.48ZM316.09,656.36c.61-5.58,4.58-10.11,10.49-11.48,4.29-.99,4.49,13.19,3.12,21.11-.6,3.51-1.09,6.85-1.49,10.47-.11,1.11-.72,2.32-1.77,2.71-2.13.8-4.31.21-5.45-1.48-4.04-6.03-5.68-14.25-4.9-21.33ZM302.47,681.86l-8.39-4.2-3.32-1.83c-6.03-3.34-11.49-8.58-7.73-13.66,1.72-2.32,4.32-3.93,7.22-4.71,8.71-2.32,19.6,7.17,22.57,14.63l2.86,7.16c.92,2.3.67,4.85-.62,6.83-.73,1.12-2.12,1.56-3.33.84l-3.78-2.26-5.48-2.8ZM291.26,707.12c-4.94,1.51-11.33,1.5-13.52-2.15-1.16-1.93-.43-4.12,1-5.68,5.06-5.49,13.85-7.08,21.89-6.88l9.35.23c2.54.06,4.08,1.32,4.86,3.51.57,1.61.45,3.08-1.16,4.07-1.39.87-3.15,1.02-5.02,1.6l-17.4,5.3ZM314.23,718.76l-2.95,6.02c-3.09,6.29-8.92,12.25-16.53,11.36-1.99-.23-3.48-1.29-4.83-2.54-2.79-2.56-3.5-6.18-1.6-9.5,4.4-7.69,19.76-13.64,28.74-20.21,1.07-.79,2.79-1.11,3.94-.51,2,1.04,1.31,3.3-.82,5.62-2.65,2.9-4.25,6.28-5.95,9.76ZM333.58,737.36c-.91,1.7-2.34,3.07-4.39,3.89-3.83,1.54-6.59-3.73-7.72-8.72-1.88-8.25-1.31-17.37,3.68-24.34.94-1.31,2.46-2.6,4.19-2.76,1.24-.13,2.22,1.21,2.54,2.09l2.88,7.82c2.68,7.29,2.52,15.15-1.18,22.02ZM355.85,704.78c2.58,1.06,4.96,2.18,7.17,3.74,4.31,3.06,7.54,8.47,4.93,11.78-2.28,2.89-6.3,3.83-9.86,2.61l-2.96-1.01c-6.49-2.22-16.67-10.77-19.53-17.43-.96-2.23-.82-4.63,1.6-5.9.95-.49,2.69-.7,3.83-.18l7.08,3.23,7.74,3.16ZM378.49,689.18c-.36.85-1.32,1.78-2.68,2.3-3.6,1.37-19.06,1.93-26.49,2.2-5.57.21-10.48,1.35-11.67-2.8-1.1-3.83,2.29-5.39,7.09-7.14,8.09-2.96,16.78-3.84,25.4-2.68,5.52.74,9.89,4.53,8.35,8.12Z"/>
  <path class="cls-1" d="M327.19,555.53c-2.65,2.9-4.25,6.28-5.95,9.76l-2.95,6.01c-3.09,6.3-8.92,12.25-16.53,11.37-.67-.08-1.28-.25-1.85-.5l15.05-26.07c3.29-1.88,6.48-3.76,9.11-5.68,1.06-.79,2.79-1.11,3.94-.51,2,1.04,1.31,3.29-.82,5.62Z"/>
  <path class="cls-2" d="M388.02,530.6c-1.59-3.51-4.93-5.63-8.75-6.71-5.89-1.66-13.41-.59-20.06.39-1.34.2-2.63.93-4.24.18,8.7-6.98,21.77-24.99,12.43-31.02-5.84-3.76-12.48-1.12-17.45,3.93-1.27,1.3-2.46,2.74-3.55,4.27,0,.01,0,.02-.02.03l-4.65,8.06-1.73,3-4.48,7.76c-.11.82-.21,1.65-.3,2.5-.12,1.11-.73,2.31-1.77,2.71-.37.14-.73.23-1.1.28l-2.69,4.65c2.15-.71,4.47-.61,6.69.61,4.47,2.44,7.67,7.49,4.65,11.48-3.03,4-8.34,6.68-12.3,3.28-1.84-1.59-3.63-3.32-4.57-5.47-.03-.06-.05-.13-.07-.19l-1.95,3.37c.18,1.2-.17,2.26-1.42,3.04-.15.1-.31.18-.48.26l-5.25,9.09c3.29-1.88,6.48-3.76,9.11-5.68,1.06-.79,2.79-1.11,3.94-.51,2,1.04,1.31,3.29-.82,5.62-2.65,2.9-4.25,6.28-5.95,9.76l-2.95,6.01c-3.09,6.3-8.92,12.25-16.53,11.37-.67-.08-1.28-.25-1.85-.5l-2.3,3.99c6.6,3.87,14.02.72,18.96-5.5,1.91-2.41,3.24-5.03,4.67-7.75l3.33-6.36c.03,8.58,1.55,21.32,8.21,24.95,3.75,2.05,7.78-.35,9.91-4.52,3.78-7.35,4.51-15.24,2.95-23.7,7.09,6.7,15.37,12.65,25.25,11.21,3.94-.57,6.54-3.26,7.45-6.74,1.88-7.28-3.27-14.45-10.47-18.36-2.74-1.49-5.54-2.6-8.68-3.43-.62-.16-1.02-.45-1.27-.92l12.24-.91,6.54-.47,3.42-.6c2.9-.51,5.52-1.78,7.3-4.12,1.84-2.4,1.85-5.6.6-8.34ZM340.64,529.38c-2.92-1.29-3.63-4.41-2.01-6.96,1.23-1.96,2.14-3.92,3.15-5.96l3.84-7.8c1.61-3.28,3.81-6.09,6.56-8.67,4.93-4.63,11.96-6.06,14.38-2,3.3,5.55-4.55,13.99-9.49,19.16-4.71,4.94-12.48,13.98-16.43,12.23ZM340.59,583.89c-.91,1.7-2.34,3.06-4.39,3.89-3.83,1.54-6.59-3.73-7.73-8.72-1.87-8.25-1.3-17.38,3.69-24.34.94-1.31,2.46-2.6,4.19-2.76,1.24-.13,2.22,1.2,2.54,2.08l2.88,7.83c2.68,7.28,2.52,15.15-1.18,22.02ZM362.86,551.31c2.57,1.05,4.96,2.18,7.16,3.74,4.32,3.05,7.55,8.46,4.94,11.78-2.29,2.89-6.3,3.82-9.87,2.6l-2.96-1c-6.48-2.22-16.66-10.77-19.52-17.43-.96-2.23-.82-4.64,1.59-5.9.95-.49,2.69-.7,3.83-.18l7.09,3.23,7.74,3.16ZM385.5,535.71c-.36.85-1.32,1.78-2.68,2.3-3.6,1.37-19.06,1.93-26.49,2.2-5.57.2-10.48,1.35-11.68-2.8-1.09-3.84,2.3-5.39,7.09-7.14,8.1-2.96,16.79-3.84,25.4-2.68,5.53.74,9.9,4.53,8.36,8.12Z"/>
  <path class="cls-1" d="M335.52,520.49c-.11.82-.21,1.65-.3,2.5-.12,1.11-.73,2.31-1.77,2.71-.37.14-.73.23-1.1.28l3.17-5.49Z"/>
  <path class="cls-1" d="M320.69,546.75c-.15.1-.31.18-.48.26l1.9-3.3c.18,1.2-.17,2.26-1.42,3.04Z"/>
  <path class="cls-1" d="M341,542.72c-3.03,4-8.34,6.68-12.3,3.28-1.84-1.59-3.63-3.32-4.57-5.47-.03-.06-.05-.13-.07-.19l5.6-9.71c2.15-.71,4.47-.61,6.69.61,4.47,2.44,7.67,7.49,4.65,11.48Z"/>
  <path class="cls-2" d="M500.38,798.99c-2.01-4.47-6.24-7.17-11.07-8.54-7.44-2.12-16.94-.75-25.35.5-1.69.25-3.32,1.18-5.35.22,10.99-8.88,27.51-31.82,15.71-39.5-7.38-4.79-15.78-1.42-22.06,5-5.19,5.31-9.19,12.55-11.96,19.36-.74.58-1.63-.21-.97-.79.75-8.39,1.25-21.04-1.79-27.26-1.73-3.53-5.6-4.35-9.23-2.8-4.17,1.78-7.46,4.72-9.36,8.68l-1.86,3.87c-1.95,5.62-2.18,11.21-2.37,17.08-6.81-10.31-17.47-17.45-29.77-15.27-5.55.99-10.15,4.08-12.85,8.78-8.3,14.41,10.53,25.62,24.74,31.88,2.4,1.06,6.25,1.39,8.63,4.14-2.69.53-5.28,0-8.15-.12-13.05-.53-25.58,2.85-30.52,14.29-2.66,6.15-.39,12.65,5.95,15.66,2.2,1.04,4.96,1.13,7.52.65l15.84-2.99-7,4.89c-2.63,1.84-4.96,4.16-6.8,6.76h6.75c8.3-6.86,21.78-12.82,30.49-19.25,1.35-1,3.53-1.41,4.98-.65,2.53,1.33,1.66,4.2-1.03,7.16-3.35,3.69-5.37,8-7.52,12.43l-.15.31h8.53c.76-4.93,2.49-9.64,5.42-13.77,1.19-1.67,3.11-3.31,5.29-3.52,1.57-.16,2.81,1.54,3.21,2.66l3.64,9.96c.56,1.54,1.03,3.1,1.39,4.67h17.22c-7.16-4.67-14.88-12.25-17.55-18.51-1.21-2.84-1.03-5.9,2.02-7.51,1.2-.63,3.4-.89,4.84-.23l8.95,4.11,9.79,4.03c3.25,1.34,6.26,2.77,9.05,4.76,4.79,3.42,8.53,9.15,7.12,13.35h3.84c.58-8.26-5.51-16.09-13.68-20.56-3.46-1.89-7-3.31-10.97-4.37-.78-.2-1.29-.57-1.6-1.17l15.46-1.15,8.27-.6,4.32-.77c3.67-.65,6.97-2.26,9.23-5.25,2.32-3.05,2.34-7.13.76-10.62ZM418.33,763.7c.77-7.1,5.78-12.88,13.26-14.62,5.41-1.26,5.67,16.8,3.94,26.89-.76,4.47-1.38,8.72-1.88,13.33-.15,1.41-.92,2.95-2.24,3.45-2.69,1.02-5.45.27-6.89-1.89-5.1-7.67-7.18-18.14-6.19-27.16ZM415.28,819.56c-1.75,1.11-3.98,1.3-6.34,2.03l-21.99,6.76c-6.24,1.92-14.32,1.91-17.09-2.74-1.46-2.46-.54-5.25,1.27-7.24,6.39-6.99,17.5-9.01,27.66-8.76l11.82.29c3.2.08,5.15,1.68,6.14,4.47.72,2.05.56,3.92-1.47,5.19ZM417.03,801.55c-.93,1.43-2.69,1.98-4.21,1.07l-4.78-2.88-6.92-3.57-10.61-5.34-4.19-2.34c-7.62-4.25-14.52-10.92-9.77-17.39,2.17-2.95,5.45-5.01,9.12-6,11.01-2.95,24.77,9.13,28.53,18.63l3.61,9.12c1.16,2.93.85,6.18-.78,8.7ZM440.95,814.43c-3.83,5.09-10.54,8.5-15.54,4.17-2.33-2.02-4.59-4.22-5.78-6.96-1.74-4.01-.43-7.77,2.92-10.4,3.63-2.84,8.24-3.8,12.53-1.43,5.65,3.11,9.69,9.54,5.87,14.62ZM440.5,797.44c-3.7-1.64-4.59-5.62-2.55-8.87,1.56-2.49,2.71-4.99,3.99-7.59l4.85-9.93c2.04-4.17,4.81-7.75,8.29-11.04,6.23-5.9,15.12-7.72,18.17-2.55,4.17,7.07-5.75,17.82-11.99,24.41-5.95,6.28-15.77,17.8-20.76,15.57ZM497.19,805.5c-.46,1.08-1.67,2.27-3.39,2.93-4.55,1.74-24.09,2.46-33.48,2.8-7.04.26-13.24,1.72-14.75-3.57-1.38-4.88,2.9-6.86,8.96-9.09,10.23-3.77,21.21-4.89,32.1-3.41,6.98.94,12.5,5.77,10.56,10.34Z"/>
  <path class="cls-1" d="M423.5,830.74c-3.35,3.69-5.37,8-7.52,12.43l-.15.31h-26.77c8.3-6.86,21.78-12.82,30.49-19.25,1.35-1,3.53-1.41,4.98-.65,2.53,1.33,1.66,4.2-1.03,7.16Z"/>
  <path class="cls-1" d="M443.31,843.48h-18.95c.76-4.93,2.49-9.64,5.42-13.77,1.19-1.67,3.11-3.31,5.29-3.52,1.57-.16,2.81,1.54,3.21,2.66l3.64,9.96c.56,1.54,1.03,3.1,1.39,4.67Z"/>
  <path class="cls-1" d="M484.75,843.48h-24.22c-7.16-4.67-14.88-12.25-17.55-18.51-1.21-2.84-1.03-5.9,2.02-7.51,1.2-.63,3.4-.89,4.84-.23l8.95,4.11,9.79,4.03c3.25,1.34,6.26,2.77,9.05,4.76,4.79,3.42,8.53,9.15,7.12,13.35Z"/>
  <path class="cls-2" d="M515.08,413.19c-1.52-3.56-4.74-5.7-8.41-6.79-5.65-1.69-12.87-.6-19.26.39-1.29.2-2.52.94-4.07.18,8.35-7.06,20.91-25.31,11.94-31.42-5.61-3.81-11.99-1.13-16.76,3.98-3.95,4.22-6.99,9.98-9.09,15.4-.56.46-1.24-.17-.74-.63.57-6.68.95-16.74-1.36-21.69-1.31-2.8-4.25-3.46-7.01-2.22-3.17,1.41-5.67,3.75-7.12,6.9l-1.41,3.08c-1.48,4.47-1.66,8.92-1.8,13.59-5.17-8.21-13.28-13.88-22.62-12.15-4.22.79-7.72,3.24-9.77,6.98-6.3,11.47,8,20.38,18.8,25.36,1.83.84,4.75,1.11,6.56,3.29-2.04.43-4.01,0-6.19-.09-9.92-.42-19.44,2.27-23.19,11.37-2.03,4.89-.3,10.06,4.52,12.45,1.67.83,3.77.9,5.71.52l12.04-2.38-5.32,3.89c-6.79,4.97-10.92,14.37-6.8,21.73,1.07,1.91,2.66,3.37,4.47,4.51,6.36,3.98,13.51.78,18.26-5.54,1.84-2.44,3.11-5.09,4.49-7.85l3.2-6.44c.03,8.69,1.49,21.6,7.88,25.27,3.6,2.08,7.47-.36,9.52-4.57,3.63-7.46,4.33-15.45,2.83-24.02,6.8,6.8,14.76,12.82,24.25,11.36,3.79-.58,6.28-3.3,7.15-6.83,1.81-7.37-3.14-14.64-10.05-18.6-2.63-1.5-5.32-2.63-8.34-3.47-.59-.16-.98-.46-1.21-.93l11.75-.92,6.28-.48,3.28-.61c2.79-.52,5.3-1.8,7.02-4.17,1.76-2.43,1.77-5.68.57-8.45ZM467.64,404.9c1.19-1.98,2.06-3.97,3.03-6.04l3.69-7.9c1.55-3.31,3.66-6.16,6.3-8.78,4.73-4.69,11.49-6.14,13.81-2.03,3.17,5.63-4.37,14.18-9.11,19.42-4.53,5-11.99,14.16-15.78,12.39-2.81-1.31-3.49-4.47-1.94-7.06ZM469.92,425.47c-2.91,4.05-8.01,6.76-11.81,3.32-1.77-1.61-3.48-3.36-4.39-5.54-1.32-3.19-.33-6.18,2.22-8.27,2.76-2.26,6.26-3.02,9.52-1.14,4.3,2.47,7.37,7.59,4.46,11.63ZM452.73,385.12c.59-5.65,4.4-10.25,10.08-11.63,4.11-1,4.31,13.36,2.99,21.39-.57,3.55-1.04,6.93-1.42,10.6-.12,1.12-.7,2.35-1.71,2.75-2.04.81-4.14.21-5.23-1.51-3.88-6.1-5.46-14.43-4.71-21.6ZM439.66,410.95l-8.07-4.25-3.18-1.86c-5.79-3.38-11.04-8.69-7.43-13.84,1.65-2.34,4.15-3.98,6.93-4.77,8.37-2.34,18.83,7.26,21.68,14.82l2.75,7.25c.88,2.34.64,4.92-.59,6.92-.71,1.14-2.05,1.58-3.2.86l-3.64-2.29-5.25-2.84ZM428.89,436.54c-4.74,1.53-10.88,1.52-12.99-2.18-1.11-1.95-.41-4.17.97-5.76,4.85-5.56,13.29-7.16,21.01-6.96l8.99.23c2.43.06,3.91,1.33,4.66,3.55.55,1.63.43,3.12-1.11,4.13-1.33.88-3.03,1.03-4.82,1.62l-16.71,5.37ZM450.95,448.33l-2.84,6.09c-2.97,6.38-8.56,12.41-15.87,11.51-1.92-.23-3.35-1.3-4.64-2.57-2.68-2.59-3.36-6.26-1.54-9.62,4.23-7.8,18.98-13.82,27.6-20.47,1.03-.8,2.68-1.13,3.78-.52,1.93,1.06,1.27,3.34-.78,5.69-2.54,2.94-4.08,6.37-5.71,9.89ZM469.53,467.17c-.88,1.72-2.25,3.11-4.22,3.94-3.68,1.56-6.32-3.78-7.42-8.83-1.8-8.36-1.25-17.6,3.54-24.66.91-1.32,2.37-2.63,4.02-2.8,1.2-.12,2.14,1.23,2.44,2.12l2.77,7.92c2.58,7.38,2.42,15.35-1.13,22.31ZM490.92,434.17c2.47,1.07,4.76,2.21,6.88,3.79,4.14,3.09,7.25,8.57,4.74,11.93-2.2,2.93-6.05,3.87-9.48,2.64l-2.84-1.02c-6.23-2.25-16-10.91-18.76-17.66-.91-2.26-.78-4.69,1.54-5.97.91-.5,2.58-.71,3.68-.18l6.8,3.27,7.44,3.2ZM512.66,418.37c-.35.86-1.27,1.8-2.58,2.33-3.45,1.38-18.3,1.95-25.44,2.22-5.35.21-10.06,1.37-11.21-2.83-1.05-3.89,2.21-5.46,6.81-7.24,7.78-2.99,16.12-3.88,24.4-2.71,5.3.75,9.49,4.59,8.02,8.23Z"/>
  <path class="cls-1" d="M556.25,238.4c-.51.43-1,.9-1.48,1.38-4.11,4.17-7.27,9.85-9.46,15.2-.59.46-1.29-.16-.77-.62.47-5.2.81-12.48-.24-17.71,4.02.24,8.02.82,11.95,1.75Z"/>
  <path class="cls-1" d="M528.46,237.46s-.03.07-.05.11l-1.47,3.04c-1.54,4.41-1.72,8.8-1.87,13.41-3.52-5.3-8.36-9.53-14.01-11.34,5.58-2.51,11.43-4.25,17.4-5.22Z"/>
  <path class="cls-1" d="M541.53,254.93c-.6,3.51-1.09,6.85-1.49,10.47-.11,1.11-.72,2.32-1.77,2.71-2.13.8-4.31.21-5.45-1.48-4.04-6.03-5.68-14.25-4.9-21.33.36-3.3,1.89-6.23,4.31-8.35,3-.34,6.02-.47,9.04-.41,1.41,4.36,1.21,12.88.26,18.39Z"/>
  <path class="cls-1" d="M572.12,244.19c-.58,5.13-6.32,11.28-10.23,15.38-4.71,4.93-12.48,13.97-16.43,12.22-2.92-1.28-3.63-4.41-2.01-6.96,1.23-1.96,2.14-3.92,3.15-5.96l3.84-7.8c1.62-3.27,3.81-6.08,6.56-8.67,1.19-1.12,2.5-2.05,3.84-2.76,3.87,1.17,7.64,2.69,11.28,4.55Z"/>
  <path class="cls-2" d="M592.85,273.01c-1.59-3.51-4.94-5.63-8.76-6.71-5.89-1.66-13.41-.58-20.06.4-1.34.19-2.63.92-4.23.17,5.62-4.51,13.08-13.64,15.11-21.16-.92-.54-1.85-1.04-2.79-1.52-.58,5.13-6.32,11.28-10.23,15.38-4.71,4.93-12.48,13.97-16.43,12.22-2.92-1.28-3.63-4.41-2.01-6.96,1.23-1.96,2.14-3.92,3.15-5.96l3.84-7.8c1.62-3.27,3.81-6.08,6.56-8.67,1.19-1.12,2.5-2.05,3.84-2.76-1.51-.47-3.05-.89-4.59-1.24-.51.43-1,.9-1.48,1.38-4.11,4.17-7.27,9.85-9.46,15.2-.59.46-1.29-.16-.77-.62.47-5.2.81-12.48-.24-17.71-1.01-.06-2.02-.1-3.03-.11,1.41,4.36,1.21,12.88.26,18.39-.6,3.51-1.09,6.85-1.49,10.47-.11,1.11-.72,2.32-1.77,2.71-2.13.8-4.31.21-5.45-1.48-4.04-6.03-5.68-14.25-4.9-21.33.36-3.3,1.89-6.23,4.31-8.35-1.26.13-2.52.3-3.77.51-.01.04-.03.07-.05.11l-1.47,3.04c-1.54,4.41-1.72,8.8-1.87,13.41-3.52-5.3-8.36-9.53-14.01-11.34-2.24.99-4.43,2.11-6.56,3.37,8.2-.26,17.45,8.2,20.15,14.98l2.86,7.16c.92,2.3.67,4.85-.62,6.83-.73,1.12-2.12,1.56-3.33.84l-3.78-2.26-5.48-2.8-8.39-4.2-3.32-1.83c-4.94-2.74-9.49-6.75-8.92-10.9-1.21,1.06-2.39,2.17-3.53,3.34,2.13,7.34,12.45,13.11,20.78,16.75,1.9.83,4.94,1.09,6.83,3.25-2.13.42-4.18,0-6.45-.09-10.33-.42-20.24,2.24-24.15,11.22-2.11,4.83-.31,9.93,4.71,12.29,1.74.82,3.92.89,5.95.52l12.53-2.35-5.54,3.84c-7.07,4.9-11.37,14.19-7.08,21.45,1.11,1.88,2.77,3.33,4.66,4.45,6.62,3.93,14.06.77,19.01-5.47,1.91-2.4,3.24-5.03,4.67-7.75l3.33-6.35c.04,8.57,1.56,21.32,8.21,24.94,3.75,2.05,7.78-.35,9.91-4.51,3.79-7.36,4.51-15.25,2.95-23.71,7.09,6.71,15.37,12.65,25.26,11.21,3.94-.57,6.53-3.25,7.44-6.74,1.88-7.28-3.27-14.45-10.47-18.36-2.73-1.48-5.54-2.6-8.68-3.43-.61-.16-1.02-.45-1.26-.92l12.23-.9,6.54-.47,3.42-.61c2.91-.51,5.52-1.77,7.31-4.12,1.83-2.4,1.85-5.6.6-8.34ZM531.26,274.78c2.87-2.23,6.52-2.99,9.92-1.13,4.47,2.45,7.66,7.5,4.64,11.48-3.03,4-8.34,6.68-12.3,3.28-1.84-1.59-3.63-3.31-4.57-5.47-1.38-3.15-.34-6.1,2.31-8.16ZM503.09,296.06c-4.94,1.51-11.33,1.5-13.52-2.15-1.16-1.93-.43-4.12,1-5.68,5.06-5.49,13.85-7.08,21.89-6.88l9.35.23c2.54.06,4.08,1.32,4.86,3.51.57,1.61.45,3.08-1.16,4.07-1.39.87-3.15,1.02-5.02,1.6l-17.4,5.3ZM526.06,307.7l-2.95,6.02c-3.09,6.29-8.92,12.25-16.53,11.36-1.99-.23-3.48-1.29-4.83-2.54-2.79-2.56-3.5-6.18-1.6-9.5,4.4-7.69,19.76-13.64,28.74-20.21,1.07-.79,2.79-1.11,3.94-.51,2,1.04,1.31,3.3-.82,5.62-2.65,2.9-4.25,6.28-5.95,9.76ZM545.41,326.3c-.91,1.7-2.34,3.07-4.39,3.89-3.83,1.54-6.59-3.73-7.72-8.72-1.88-8.25-1.31-17.37,3.68-24.34.94-1.31,2.46-2.6,4.19-2.76,1.24-.13,2.22,1.21,2.54,2.09l2.88,7.82c2.68,7.29,2.52,15.15-1.18,22.02ZM567.68,293.72c2.58,1.06,4.96,2.18,7.17,3.74,4.31,3.06,7.54,8.47,4.93,11.78-2.28,2.89-6.3,3.83-9.86,2.61l-2.96-1.01c-6.49-2.22-16.67-10.77-19.53-17.43-.96-2.23-.82-4.63,1.6-5.9.95-.49,2.69-.7,3.83-.18l7.08,3.23,7.74,3.16ZM590.32,278.12c-.36.85-1.32,1.78-2.68,2.3-3.6,1.37-19.06,1.93-26.49,2.2-5.57.21-10.48,1.35-11.67-2.8-1.1-3.83,2.29-5.39,7.09-7.14,8.09-2.96,16.78-3.84,25.4-2.68,5.52.74,9.89,4.53,8.35,8.12Z"/>
  <path class="cls-1" d="M526.89,275.02c-.73,1.12-2.12,1.56-3.33.84l-3.78-2.26-5.48-2.8-8.39-4.2-3.32-1.83c-4.94-2.74-9.49-6.75-8.92-10.9,3.39-3,7.02-5.61,10.83-7.82,8.2-.26,17.45,8.2,20.15,14.98l2.86,7.16c.92,2.3.67,4.85-.62,6.83Z"/>
  <path class="cls-2" d="M683.24,414.41c-.71-.45-1.44-.89-2.19-1.3-3.46-1.89-7-3.31-10.97-4.37-.78-.2-1.29-.57-1.6-1.17l10.36-.77-3.32-5.74c-3.42.15-6.59.27-9.06.36-7.04.26-13.24,1.72-14.75-3.57-1.38-4.88,2.9-6.86,8.96-9.09,2.16-.8,4.36-1.48,6.58-2.03l-5.18-8.98c-5.44,5.69-11.75,11.52-15.43,9.88-3.7-1.64-4.59-5.62-2.55-8.87,1.56-2.49,2.71-4.99,3.99-7.59l4.67-9.56-2.25-3.89c-1.56,2.8-2.92,5.69-4.06,8.5-.74.58-1.63-.21-.97-.79.4-4.52.74-10.28.48-15.6l-8.76-15.17c-.9.08-1.83.32-2.74.71-4.17,1.78-7.46,4.72-9.36,8.68l-1.86,3.87c-1.95,5.62-2.18,11.21-2.37,17.08-6.81-10.31-17.47-17.45-29.77-15.27-5.55.99-10.15,4.08-12.85,8.78-8.3,14.41,10.53,25.62,24.74,31.88,2.4,1.06,6.25,1.39,8.63,4.14-2.69.53-5.28,0-8.15-.12-13.05-.53-25.58,2.85-30.52,14.29-2.66,6.15-.39,12.65,5.95,15.66,2.2,1.04,4.96,1.13,7.52.65l15.84-2.99-7,4.89c-8.94,6.25-14.37,18.07-8.95,27.32,1.41,2.4,3.5,4.24,5.89,5.67,8.36,5,17.77.98,24.03-6.97,2.41-3.06,4.09-6.4,5.9-9.87l4.21-8.09c.04,10.92,1.96,27.15,10.37,31.77,4.74,2.61,9.83-.45,12.53-5.75,4.78-9.37,5.7-19.42,3.72-30.19,8.96,8.54,19.43,16.11,31.92,14.28,4.98-.73,8.26-4.15,9.41-8.59.2-.76.33-1.51.4-2.26l-11.44-19.82ZM647.09,404.62c-3.83,5.09-10.54,8.5-15.54,4.17-2.33-2.02-4.59-4.22-5.78-6.96-1.74-4.01-.43-7.77,2.92-10.4,3.63-2.84,8.24-3.8,12.53-1.43,5.65,3.11,9.69,9.54,5.87,14.62ZM624.47,353.89c.77-7.1,5.78-12.88,13.26-14.62,5.41-1.26,5.67,16.8,3.94,26.89-.76,4.47-1.38,8.72-1.88,13.33-.15,1.41-.92,2.95-2.24,3.45-2.69,1.02-5.45.27-6.89-1.89-5.1-7.67-7.18-18.14-6.19-27.16ZM607.26,386.36l-10.61-5.34-4.19-2.34c-7.62-4.25-14.52-10.92-9.77-17.39,2.17-2.95,5.45-5.01,9.12-6,11.01-2.95,24.77,9.13,28.53,18.63l3.61,9.12c1.16,2.93.85,6.18-.78,8.7-.93,1.43-2.69,1.98-4.21,1.07l-4.78-2.88-6.92-3.57ZM593.09,418.54c-6.24,1.92-14.32,1.91-17.09-2.74-1.46-2.46-.54-5.25,1.27-7.24,6.39-6.99,17.5-9.01,27.66-8.76l11.82.29c3.2.08,5.15,1.68,6.14,4.47.72,2.05.56,3.92-1.47,5.19-1.75,1.11-3.98,1.3-6.34,2.03l-21.99,6.76ZM622.12,433.36l-3.73,7.66c-3.91,8.02-11.27,15.6-20.89,14.47-2.52-.29-4.4-1.64-6.11-3.23-3.52-3.26-4.42-7.87-2.02-12.1,5.56-9.8,24.98-17.37,36.32-25.74,1.35-1,3.53-1.41,4.98-.65,2.53,1.33,1.66,4.2-1.03,7.16-3.35,3.69-5.37,8-7.52,12.43ZM646.57,457.05c-1.15,2.16-2.96,3.9-5.55,4.95-4.84,1.96-8.32-4.75-9.76-11.1-2.37-10.51-1.65-22.13,4.66-31,1.19-1.67,3.11-3.31,5.29-3.52,1.57-.16,2.81,1.54,3.21,2.66l3.64,9.96c3.39,9.28,3.19,19.3-1.49,28.05ZM690.01,435.32c-2.89,3.68-7.96,4.87-12.47,3.32l-3.74-1.28c-8.2-2.83-21.06-13.72-24.68-22.2-1.21-2.84-1.03-5.9,2.02-7.51,1.2-.63,3.4-.89,4.84-.23l8.95,4.11,9.79,4.03c3.25,1.34,6.26,2.77,9.05,4.76,5.45,3.89,9.54,10.78,6.24,15Z"/>
  <path class="cls-1" d="M675.52,401.06c-3.42.15-6.59.27-9.06.36-7.04.26-13.24,1.72-14.75-3.57-1.38-4.88,2.9-6.86,8.96-9.09,2.16-.8,4.36-1.48,6.58-2.03l8.27,14.33Z"/>
  <path class="cls-1" d="M683.24,414.41c-.71-.45-1.44-.89-2.19-1.3-3.46-1.89-7-3.31-10.97-4.37-.78-.2-1.29-.57-1.6-1.17l10.36-.77,4.4,7.61Z"/>
  <path class="cls-1" d="M662.07,377.75c-5.44,5.69-11.75,11.52-15.43,9.88-3.7-1.64-4.59-5.62-2.55-8.87,1.56-2.49,2.71-4.99,3.99-7.59l4.67-9.56,9.32,16.14Z"/>
  <path class="cls-1" d="M650.5,357.72c-1.56,2.8-2.92,5.69-4.06,8.5-.74.58-1.63-.21-.97-.79.4-4.52.74-10.28.48-15.6l4.55,7.89Z"/>
  <path class="cls-2" d="M696.8,748.03c-2.01-4.47-6.24-7.17-11.07-8.54-7.44-2.12-16.94-.75-25.35.5-1.69.25-3.32,1.18-5.35.22,10.99-8.88,27.51-31.82,15.71-39.5-7.38-4.79-15.78-1.42-22.06,5-5.19,5.31-9.19,12.55-11.96,19.36-.74.58-1.63-.21-.97-.79.75-8.39,1.25-21.04-1.79-27.26-1.73-3.53-5.6-4.35-9.23-2.8-4.17,1.78-7.46,4.72-9.36,8.68l-1.86,3.87c-1.95,5.62-2.18,11.21-2.37,17.08-6.81-10.31-17.47-17.45-29.77-15.27-5.55.99-10.15,4.08-12.85,8.78-8.3,14.41,10.53,25.62,24.74,31.88,2.4,1.06,6.25,1.39,8.63,4.14-2.69.53-5.28,0-8.15-.12-13.05-.53-25.58,2.85-30.52,14.29-2.66,6.15-.39,12.65,5.95,15.66,2.2,1.04,4.96,1.13,7.52.65l15.84-2.99-7,4.89c-8.94,6.25-14.37,18.07-8.95,27.32,1.41,2.4,3.5,4.24,5.89,5.67,8.36,5,17.77.98,24.03-6.97,2.41-3.06,4.09-6.4,5.9-9.87l4.21-8.09c.04,10.92,1.96,27.15,10.37,31.77,4.74,2.61,9.83-.45,12.53-5.75,4.78-9.37,5.7-19.42,3.72-30.19,8.96,8.54,19.43,16.11,31.92,14.28,4.98-.73,8.26-4.15,9.41-8.59,2.38-9.27-4.13-18.4-13.23-23.38-3.46-1.89-7-3.31-10.97-4.37-.78-.2-1.29-.57-1.6-1.17l15.46-1.15,8.27-.6,4.32-.77c3.67-.65,6.97-2.26,9.23-5.25,2.32-3.05,2.34-7.13.76-10.62ZM634.37,737.61c1.56-2.49,2.71-4.99,3.99-7.59l4.85-9.93c2.04-4.17,4.81-7.75,8.29-11.04,6.23-5.9,15.12-7.72,18.17-2.55,4.17,7.07-5.75,17.82-11.99,24.41-5.95,6.28-15.77,17.8-20.76,15.57-3.7-1.64-4.59-5.62-2.55-8.87ZM637.37,763.47c-3.83,5.09-10.54,8.5-15.54,4.17-2.33-2.02-4.59-4.22-5.78-6.96-1.74-4.01-.43-7.77,2.92-10.4,3.63-2.84,8.24-3.8,12.53-1.43,5.65,3.11,9.69,9.54,5.87,14.62ZM614.75,712.74c.77-7.1,5.78-12.88,13.26-14.62,5.41-1.26,5.67,16.8,3.94,26.89-.76,4.47-1.38,8.72-1.88,13.33-.15,1.41-.92,2.95-2.24,3.45-2.69,1.02-5.45.27-6.89-1.89-5.1-7.67-7.18-18.14-6.19-27.16ZM597.54,745.21l-10.61-5.34-4.19-2.34c-7.62-4.25-14.52-10.92-9.77-17.39,2.17-2.95,5.45-5.01,9.12-6,11.01-2.95,24.77,9.13,28.53,18.63l3.61,9.12c1.16,2.93.85,6.18-.78,8.7-.93,1.43-2.69,1.98-4.21,1.07l-4.78-2.88-6.92-3.57ZM583.37,777.39c-6.24,1.92-14.32,1.91-17.09-2.74-1.46-2.46-.54-5.25,1.27-7.24,6.39-6.99,17.5-9.01,27.66-8.76l11.82.29c3.2.08,5.15,1.68,6.14,4.47.72,2.05.56,3.92-1.47,5.19-1.75,1.11-3.98,1.3-6.34,2.03l-21.99,6.76ZM612.4,792.21l-3.73,7.66c-3.91,8.02-11.27,15.6-20.89,14.47-2.52-.29-4.4-1.64-6.11-3.23-3.52-3.26-4.42-7.87-2.02-12.1,5.56-9.8,24.98-17.37,36.32-25.74,1.35-1,3.53-1.41,4.98-.65,2.53,1.33,1.66,4.2-1.03,7.16-3.35,3.69-5.37,8-7.52,12.43ZM636.85,815.9c-1.15,2.16-2.96,3.9-5.55,4.95-4.84,1.96-8.32-4.75-9.76-11.1-2.37-10.51-1.65-22.13,4.66-31,1.19-1.67,3.11-3.31,5.29-3.52,1.57-.16,2.81,1.54,3.21,2.66l3.64,9.96c3.39,9.28,3.19,19.3-1.49,28.05ZM665,774.41c3.25,1.34,6.26,2.77,9.05,4.76,5.45,3.89,9.54,10.78,6.24,15-2.89,3.68-7.96,4.87-12.47,3.32l-3.74-1.28c-8.2-2.83-21.06-13.72-24.68-22.2-1.21-2.84-1.03-5.9,2.02-7.51,1.2-.63,3.4-.89,4.84-.23l8.95,4.11,9.79,4.03ZM693.61,754.54c-.46,1.08-1.67,2.27-3.39,2.93-4.55,1.74-24.09,2.46-33.48,2.8-7.04.26-13.24,1.72-14.75-3.57-1.38-4.88,2.9-6.86,8.96-9.09,10.23-3.77,21.21-4.89,32.1-3.41,6.98.94,12.5,5.77,10.56,10.34Z"/>
  <path class="cls-1" d="M761.92,550.7c-2.23.24-4.45.57-6.59.88-1.33.2-2.62.93-4.23.17,2.27-1.82,4.83-4.38,7.22-7.29l3.6,6.24Z"/>
  <path class="cls-1" d="M756.35,541.05c-1.09,1.23-2.18,2.38-3.15,3.4-4.71,4.93-12.48,13.98-16.43,12.22-2.93-1.28-3.63-4.41-2.02-6.96,1.24-1.96,2.15-3.92,3.16-5.96l3.84-7.8c1.61-3.27,3.8-6.08,6.56-8.67.02-.02.04-.04.06-.05l7.98,13.82Z"/>
  <path class="cls-2" d="M764,576.68c-2.74-1.48-5.54-2.6-8.68-3.43-.62-.16-1.02-.45-1.27-.92l12.23-.9,6.55-.47.72-.13-2.49-4.31c-6.08.53-13.93.82-18.61.98-5.57.21-10.47,1.35-11.67-2.8-1.09-3.83,2.3-5.39,7.09-7.14,5.21-1.91,10.67-2.95,16.2-3.14l-2.15-3.72c-2.23.24-4.45.57-6.59.88-1.33.2-2.62.93-4.23.17,2.27-1.82,4.83-4.38,7.22-7.29l-1.97-3.41c-1.09,1.23-2.18,2.38-3.15,3.4-4.71,4.93-12.48,13.98-16.43,12.22-2.93-1.28-3.63-4.41-2.02-6.96,1.24-1.96,2.15-3.92,3.16-5.96l3.84-7.8c1.61-3.27,3.8-6.08,6.56-8.67.02-.02.04-.04.06-.05l-1.77-3.08c-.18.16-.36.33-.53.51-4.1,4.17-7.27,9.86-9.46,15.2-.58.46-1.29-.16-.77-.62.6-6.59.99-16.52-1.41-21.4-1.37-2.77-4.43-3.42-7.31-2.2-3.3,1.4-5.9,3.71-7.4,6.81l-1.47,3.04c-1.55,4.42-1.73,8.81-1.88,13.42-5.39-8.1-13.82-13.71-23.56-12-4.39.78-8.03,3.21-10.16,6.9-6.57,11.31,8.33,20.12,19.57,25.03,1.9.83,4.95,1.09,6.83,3.25-2.13.42-4.18,0-6.45-.09-10.32-.42-20.24,2.24-24.15,11.22-2.1,4.83-.31,9.93,4.71,12.3,1.74.81,3.92.88,5.95.51l12.53-2.35-5.53,3.84c-7.08,4.91-11.38,14.19-7.09,21.45,1.12,1.89,2.77,3.33,4.66,4.45,6.62,3.93,14.07.77,19.02-5.47,1.91-2.4,3.24-5.02,4.67-7.75l3.33-6.35c.03,8.57,1.55,21.32,8.2,24.94,3.75,2.05,7.78-.35,9.92-4.51,3.78-7.36,4.51-15.25,2.94-23.71,7.09,6.71,15.38,12.65,25.26,11.22,3.94-.58,6.54-3.26,7.45-6.75,1.88-7.28-3.27-14.45-10.47-18.36ZM737.13,570.02c-3.04,3.99-8.34,6.67-12.3,3.27-1.84-1.59-3.63-3.31-4.57-5.46-1.38-3.15-.34-6.11,2.31-8.17,2.87-2.23,6.52-2.99,9.91-1.12,4.47,2.44,7.67,7.49,4.65,11.48ZM719.23,530.18c.61-5.57,4.57-10.11,10.49-11.48,4.28-.99,4.49,13.19,3.12,21.12-.6,3.51-1.1,6.84-1.49,10.46-.12,1.11-.73,2.32-1.77,2.71-2.13.8-4.32.21-5.46-1.48-4.03-6.02-5.68-14.25-4.89-21.33ZM705.61,555.68l-8.4-4.2-3.31-1.83c-6.03-3.34-11.49-8.58-7.73-13.66,1.71-2.31,4.31-3.93,7.21-4.71,8.72-2.32,19.6,7.17,22.58,14.63l2.86,7.16c.91,2.3.67,4.85-.62,6.83-.74,1.13-2.13,1.56-3.33.84l-3.79-2.26-5.47-2.8ZM694.4,580.95c-4.94,1.5-11.33,1.5-13.53-2.16-1.15-1.93-.42-4.12,1.01-5.68,5.05-5.49,13.85-7.08,21.89-6.88l9.35.23c2.53.06,4.07,1.32,4.86,3.51.57,1.61.44,3.08-1.17,4.07-1.38.88-3.15,1.03-5.01,1.6l-17.4,5.31ZM717.37,592.58l-2.95,6.02c-3.1,6.3-8.92,12.25-16.53,11.36-2-.23-3.49-1.29-4.84-2.54-2.78-2.56-3.5-6.18-1.6-9.5,4.4-7.69,19.77-13.64,28.74-20.21,1.07-.78,2.8-1.11,3.94-.51,2,1.05,1.32,3.3-.81,5.62-2.65,2.9-4.25,6.28-5.95,9.76ZM736.71,611.19c-.91,1.69-2.34,3.06-4.39,3.88-3.83,1.54-6.58-3.73-7.72-8.71-1.88-8.26-1.31-17.38,3.69-24.35.94-1.31,2.46-2.59,4.18-2.76,1.24-.13,2.23,1.21,2.54,2.09l2.88,7.82c2.69,7.29,2.53,15.15-1.18,22.03ZM771.09,594.12c-2.29,2.89-6.3,3.83-9.87,2.61l-2.96-1.01c-6.49-2.22-16.66-10.77-19.53-17.43-.96-2.23-.81-4.63,1.6-5.89.95-.5,2.69-.7,3.83-.19l7.08,3.23,7.75,3.17c2.57,1.05,4.95,2.17,7.16,3.73,4.31,3.06,7.55,8.47,4.94,11.78Z"/>
  <path class="cls-1" d="M771.06,566.52c-6.08.53-13.93.82-18.61.98-5.57.21-10.47,1.35-11.67-2.8-1.09-3.83,2.3-5.39,7.09-7.14,5.21-1.91,10.67-2.95,16.2-3.14l6.99,12.1Z"/>
  <path class="cls-2" d="M850.61,782.35c4.9-3.71,11.11-4.96,16.9-1.87,4.75,2.53,8.65,6.73,9.67,11.15,1.29-4.69,2.1-9.53,2.38-14.45-1.78.66-3.4.79-4.75.21-4.99-2.14-6.19-7.33-3.44-11.56,2.11-3.25,3.66-6.51,5.38-9.9l.47-.94c-.6-2.23-1.33-4.45-2.19-6.66-.17.38-.33.76-.49,1.14-.99.76-2.19-.27-1.3-1.03.11-1.16.21-2.39.3-3.67-.99-2.22-2.12-4.42-3.37-6.59l-.83-1.44c-.14,4.52-.58,8.99-1.23,12.66-1.02,5.82-1.86,11.37-2.53,17.38-.2,1.84-1.24,3.85-3.02,4.5-3.63,1.33-7.35.35-9.29-2.47-6.88-10-9.68-23.65-8.35-35.41.84-7.51,5.45-13.89,12.54-17.24l-2.89-4.99c-3.82,2.31-6.86,5.46-8.81,9.39l-2.51,5.05c-2.63,7.33-2.94,14.62-3.19,22.27-9.18-13.44-23.56-22.75-40.14-19.91-7.48,1.29-13.68,5.32-17.32,11.45-11.19,18.79,14.19,33.41,33.35,41.57,3.24,1.38,8.43,1.81,11.64,5.4-3.63.69-7.12,0-10.99-.16-17.6-.69-34.49,3.72-41.15,18.64-3.58,8.02-.52,16.49,8.02,20.42,2.97,1.36,6.69,1.47,10.14.85l21.36-3.9-9.44,6.37c-5.55,3.76-10.11,9.06-12.68,14.87h6.41c9.14-11.63,33-20.94,47.31-31.15,1.82-1.31,4.76-1.84,6.71-.85,3.41,1.73,2.24,5.48-1.39,9.34-4.03,4.3-6.64,9.24-9.21,14.37,5.26-2.83,10.08-6.31,14.37-10.32.94-1.87,2.04-3.67,3.31-5.4,1.25-1.69,3.09-3.36,5.24-4.15,3.17-4.25,5.85-8.84,7.99-13.68-5.29,5.4-13.12,8.37-19.12,3.35-3.14-2.64-6.19-5.51-7.79-9.08-2.35-5.23-.58-10.13,3.93-13.56ZM840.81,806.24c-2.36,1.45-5.36,1.69-8.55,2.64l-29.64,8.82c-8.42,2.5-19.31,2.49-23.04-3.57-1.97-3.21-.73-6.85,1.71-9.44,8.61-9.12,23.59-11.75,37.29-11.43l15.94.38c4.31.11,6.94,2.19,8.27,5.83.97,2.67.76,5.11-1.98,6.77ZM843.17,782.75c-1.25,1.87-3.63,2.58-5.68,1.4l-6.44-3.76-9.33-4.65-14.3-6.97-5.65-3.05c-10.27-5.54-19.58-14.24-13.17-22.67,2.92-3.85,7.34-6.54,12.29-7.83,14.85-3.85,33.4,11.91,38.47,24.3l4.86,11.89c1.57,3.82,1.15,8.06-1.05,11.34Z"/>
  <path class="cls-1" d="M875.03,748.33c-.17.38-.33.76-.49,1.14-.99.76-2.19-.27-1.3-1.03.11-1.16.21-2.39.3-3.67.54,1.18,1.03,2.37,1.49,3.56Z"/>
  <path class="cls-1" d="M865.6,815.32c-2.55,3.43-5.41,6.63-8.55,9.55.94-1.87,2.04-3.67,3.31-5.4,1.25-1.69,3.09-3.36,5.24-4.15Z"/>
  <path class="cls-1" d="M851.89,820.82c-4.03,4.3-6.64,9.24-9.21,14.37-9.73,5.25-20.99,8.29-33.31,8.29h-10.11c9.14-11.63,33-20.94,47.31-31.15,1.82-1.31,4.76-1.84,6.71-.85,3.41,1.73,2.24,5.48-1.39,9.34Z"/>
  <path class="cls-1" d="M879.56,777.18c-1.78.66-3.4.79-4.75.21-4.99-2.14-6.19-7.33-3.44-11.56,2.11-3.25,3.66-6.51,5.38-9.9l.47-.94c2.04,7.4,2.77,14.88,2.34,22.19Z"/>
  <path class="cls-1" d="M869.34,736.74c-.14,4.52-.58,8.99-1.23,12.66-1.02,5.82-1.86,11.37-2.53,17.38-.2,1.84-1.24,3.85-3.02,4.5-3.63,1.33-7.35.35-9.29-2.47-6.88-10-9.68-23.65-8.35-35.41.84-7.51,5.45-13.89,12.54-17.24l11.88,20.58Z"/>
  <path class="cls-1" d="M877.18,791.63c-.95,3.43-2.14,6.77-3.59,10.01-5.29,5.4-13.12,8.37-19.12,3.35-3.14-2.64-6.19-5.51-7.79-9.08-2.35-5.23-.58-10.13,3.93-13.56,4.9-3.71,11.11-4.96,16.9-1.87,4.75,2.53,8.65,6.73,9.67,11.15Z"/>
  <text class="cls-4" transform="translate(448.24 576.53)"><tspan x="0" y="0">DEL </tspan><tspan x="-54.58" y="86.4">PRADO</tspan></text>
  <g>
    <path class="cls-3" d="M381.02,684.07c-1.59-3.51-4.94-5.63-8.76-6.71-5.89-1.66-13.41-.58-20.06.4-1.34.19-2.63.92-4.23.17,8.69-6.97,21.76-24.99,12.43-31.02-5.84-3.76-12.49-1.11-17.46,3.93-4.11,4.17-7.27,9.85-9.46,15.2-.59.46-1.29-.16-.77-.62.59-6.59.99-16.52-1.42-21.4-1.37-2.78-4.43-3.42-7.3-2.2-3.3,1.39-5.9,3.7-7.41,6.81l-1.47,3.04c-1.54,4.41-1.72,8.8-1.87,13.41-5.39-8.09-13.83-13.7-23.56-11.99-4.39.78-8.03,3.21-10.17,6.9-6.57,11.31,8.33,20.11,19.58,25.03,1.9.83,4.94,1.09,6.83,3.25-2.13.42-4.18,0-6.45-.09-10.33-.42-20.24,2.24-24.15,11.22-2.11,4.83-.31,9.93,4.71,12.29,1.74.82,3.92.89,5.95.52l12.53-2.35-5.54,3.84c-7.07,4.9-11.37,14.19-7.08,21.45,1.11,1.88,2.77,3.33,4.66,4.45,6.62,3.93,14.06.77,19.01-5.47,1.91-2.4,3.24-5.03,4.67-7.75l3.33-6.35c.04,8.57,1.56,21.32,8.21,24.94,3.75,2.05,7.78-.35,9.91-4.51,3.79-7.36,4.51-15.25,2.95-23.71,7.09,6.71,15.37,12.65,25.26,11.21,3.94-.57,6.53-3.25,7.44-6.74,1.88-7.28-3.27-14.45-10.47-18.36-2.73-1.48-5.54-2.6-8.68-3.43-.61-.16-1.02-.45-1.26-.92l12.23-.9,6.54-.47,3.42-.61c2.91-.51,5.52-1.77,7.31-4.12,1.83-2.4,1.85-5.6.6-8.34ZM331.62,675.89c1.23-1.96,2.14-3.92,3.15-5.96l3.84-7.8c1.62-3.27,3.81-6.08,6.56-8.67,4.93-4.63,11.97-6.06,14.38-2,3.3,5.55-4.55,13.99-9.49,19.17-4.71,4.93-12.48,13.97-16.43,12.22-2.92-1.28-3.63-4.41-2.01-6.96ZM333.99,696.19c-3.03,4-8.34,6.68-12.3,3.28-1.84-1.59-3.63-3.31-4.57-5.47-1.38-3.15-.34-6.1,2.31-8.16,2.87-2.23,6.52-2.99,9.92-1.13,4.47,2.45,7.66,7.5,4.64,11.48ZM316.09,656.36c.61-5.58,4.58-10.11,10.49-11.48,4.29-.99,4.49,13.19,3.12,21.11-.6,3.51-1.09,6.85-1.49,10.47-.11,1.11-.72,2.32-1.77,2.71-2.13.8-4.31.21-5.45-1.48-4.04-6.03-5.68-14.25-4.9-21.33ZM302.47,681.86l-8.39-4.2-3.32-1.83c-6.03-3.34-11.49-8.58-7.73-13.66,1.72-2.32,4.32-3.93,7.22-4.71,8.71-2.32,19.6,7.17,22.57,14.63l2.86,7.16c.92,2.3.67,4.85-.62,6.83-.73,1.12-2.12,1.56-3.33.84l-3.78-2.26-5.48-2.8ZM291.26,707.12c-4.94,1.51-11.33,1.5-13.52-2.15-1.16-1.93-.43-4.12,1-5.68,5.06-5.49,13.85-7.08,21.89-6.88l9.35.23c2.54.06,4.08,1.32,4.86,3.51.57,1.61.45,3.08-1.16,4.07-1.39.87-3.15,1.02-5.02,1.6l-17.4,5.3ZM314.23,718.76l-2.95,6.02c-3.09,6.29-8.92,12.25-16.53,11.36-1.99-.23-3.48-1.29-4.83-2.54-2.79-2.56-3.5-6.18-1.6-9.5,4.4-7.69,19.76-13.64,28.74-20.21,1.07-.79,2.79-1.11,3.94-.51,2,1.04,1.31,3.3-.82,5.62-2.65,2.9-4.25,6.28-5.95,9.76ZM333.58,737.36c-.91,1.7-2.34,3.07-4.39,3.89-3.83,1.54-6.59-3.73-7.72-8.72-1.88-8.25-1.31-17.37,3.68-24.34.94-1.31,2.46-2.6,4.19-2.76,1.24-.13,2.22,1.21,2.54,2.09l2.88,7.82c2.68,7.29,2.52,15.15-1.18,22.02ZM355.85,704.78c2.58,1.06,4.96,2.18,7.17,3.74,4.31,3.06,7.54,8.47,4.93,11.78-2.28,2.89-6.3,3.83-9.86,2.61l-2.96-1.01c-6.49-2.22-16.67-10.77-19.53-17.43-.96-2.23-.82-4.63,1.6-5.9.95-.49,2.69-.7,3.83-.18l7.08,3.23,7.74,3.16ZM378.49,689.18c-.36.85-1.32,1.78-2.68,2.3-3.6,1.37-19.06,1.93-26.49,2.2-5.57.21-10.48,1.35-11.67-2.8-1.1-3.83,2.29-5.39,7.09-7.14,8.09-2.96,16.78-3.84,25.4-2.68,5.52.74,9.89,4.53,8.35,8.12Z"/>
    <path class="cls-5" d="M381.02,684.07c-1.59-3.51-4.94-5.63-8.76-6.71-5.89-1.66-13.41-.58-20.06.4-1.34.19-2.63.92-4.23.17,8.69-6.97,21.76-24.99,12.43-31.02-5.84-3.76-12.49-1.11-17.46,3.93-4.11,4.17-7.27,9.85-9.46,15.2-.59.46-1.29-.16-.77-.62.59-6.59.99-16.52-1.42-21.4-1.37-2.78-4.43-3.42-7.3-2.2-3.3,1.39-5.9,3.7-7.41,6.81l-1.47,3.04c-1.54,4.41-1.72,8.8-1.87,13.41-5.39-8.09-13.83-13.7-23.56-11.99-4.39.78-8.03,3.21-10.17,6.9-6.57,11.31,8.33,20.11,19.58,25.03,1.9.83,4.94,1.09,6.83,3.25-2.13.42-4.18,0-6.45-.09-10.33-.42-20.24,2.24-24.15,11.22-2.11,4.83-.31,9.93,4.71,12.29,1.74.82,3.92.89,5.95.52l12.53-2.35-5.54,3.84c-7.07,4.9-11.37,14.19-7.08,21.45,1.11,1.88,2.77,3.33,4.66,4.45,6.62,3.93,14.06.77,19.01-5.47,1.91-2.4,3.24-5.03,4.67-7.75l3.33-6.35c.04,8.57,1.56,21.32,8.21,24.94,3.75,2.05,7.78-.35,9.91-4.51,3.79-7.36,4.51-15.25,2.95-23.71,7.09,6.71,15.37,12.65,25.26,11.21,3.94-.57,6.53-3.25,7.44-6.74,1.88-7.28-3.27-14.45-10.47-18.36-2.73-1.48-5.54-2.6-8.68-3.43-.61-.16-1.02-.45-1.26-.92l12.23-.9,6.54-.47,3.42-.61c2.91-.51,5.52-1.77,7.31-4.12,1.83-2.4,1.85-5.6.6-8.34ZM331.62,675.89c1.23-1.96,2.14-3.92,3.15-5.96l3.84-7.8c1.62-3.27,3.81-6.08,6.56-8.67,4.93-4.63,11.97-6.06,14.38-2,3.3,5.55-4.55,13.99-9.49,19.17-4.71,4.93-12.48,13.97-16.43,12.22-2.92-1.28-3.63-4.41-2.01-6.96ZM333.99,696.19c-3.03,4-8.34,6.68-12.3,3.28-1.84-1.59-3.63-3.31-4.57-5.47-1.38-3.15-.34-6.1,2.31-8.16,2.87-2.23,6.52-2.99,9.92-1.13,4.47,2.45,7.66,7.5,4.64,11.48ZM316.09,656.36c.61-5.58,4.58-10.11,10.49-11.48,4.29-.99,4.49,13.19,3.12,21.11-.6,3.51-1.09,6.85-1.49,10.47-.11,1.11-.72,2.32-1.77,2.71-2.13.8-4.31.21-5.45-1.48-4.04-6.03-5.68-14.25-4.9-21.33ZM302.47,681.86l-8.39-4.2-3.32-1.83c-6.03-3.34-11.49-8.58-7.73-13.66,1.72-2.32,4.32-3.93,7.22-4.71,8.71-2.32,19.6,7.17,22.57,14.63l2.86,7.16c.92,2.3.67,4.85-.62,6.83-.73,1.12-2.12,1.56-3.33.84l-3.78-2.26-5.48-2.8ZM291.26,707.12c-4.94,1.51-11.33,1.5-13.52-2.15-1.16-1.93-.43-4.12,1-5.68,5.06-5.49,13.85-7.08,21.89-6.88l9.35.23c2.54.06,4.08,1.32,4.86,3.51.57,1.61.45,3.08-1.16,4.07-1.39.87-3.15,1.02-5.02,1.6l-17.4,5.3ZM314.23,718.76l-2.95,6.02c-3.09,6.29-8.92,12.25-16.53,11.36-1.99-.23-3.48-1.29-4.83-2.54-2.79-2.56-3.5-6.18-1.6-9.5,4.4-7.69,19.76-13.64,28.74-20.21,1.07-.79,2.79-1.11,3.94-.51,2,1.04,1.31,3.3-.82,5.62-2.65,2.9-4.25,6.28-5.95,9.76ZM333.58,737.36c-.91,1.7-2.34,3.07-4.39,3.89-3.83,1.54-6.59-3.73-7.72-8.72-1.88-8.25-1.31-17.37,3.68-24.34.94-1.31,2.46-2.6,4.19-2.76,1.24-.13,2.22,1.21,2.54,2.09l2.88,7.82c2.68,7.29,2.52,15.15-1.18,22.02ZM355.85,704.78c2.58,1.06,4.96,2.18,7.17,3.74,4.31,3.06,7.54,8.47,4.93,11.78-2.28,2.89-6.3,3.83-9.86,2.61l-2.96-1.01c-6.49-2.22-16.67-10.77-19.53-17.43-.96-2.23-.82-4.63,1.6-5.9.95-.49,2.69-.7,3.83-.18l7.08,3.23,7.74,3.16ZM378.49,689.18c-.36.85-1.32,1.78-2.68,2.3-3.6,1.37-19.06,1.93-26.49,2.2-5.57.21-10.48,1.35-11.67-2.8-1.1-3.83,2.29-5.39,7.09-7.14,8.09-2.96,16.78-3.84,25.4-2.68,5.52.74,9.89,4.53,8.35,8.12Z"/>
    <path class="cls-1" d="M333.99,696.19c-3.03,4-8.34,6.68-12.3,3.28-1.84-1.59-3.63-3.31-4.57-5.47-1.38-3.15-.34-6.1,2.31-8.16,2.87-2.23,6.52-2.99,9.92-1.13,4.47,2.45,7.66,7.5,4.64,11.48Z"/>
    <path class="cls-1" d="M313.68,700.22c-1.39.87-3.15,1.02-5.02,1.6l-17.4,5.3c-4.94,1.51-11.33,1.5-13.52-2.15-1.16-1.93-.43-4.12,1-5.68,5.06-5.49,13.85-7.08,21.89-6.88l9.35.23c2.54.06,4.08,1.32,4.86,3.51.57,1.61.45,3.08-1.16,4.07Z"/>
    <path class="cls-1" d="M320.18,709c-2.65,2.9-4.25,6.28-5.95,9.76l-2.95,6.02c-3.09,6.29-8.92,12.25-16.53,11.36-1.99-.23-3.48-1.29-4.83-2.54-2.79-2.56-3.5-6.18-1.6-9.5,4.4-7.69,19.76-13.64,28.74-20.21,1.07-.79,2.79-1.11,3.94-.51,2,1.04,1.31,3.3-.82,5.62Z"/>
    <path class="cls-1" d="M333.58,737.36c-.91,1.7-2.34,3.07-4.39,3.89-3.83,1.54-6.59-3.73-7.72-8.72-1.88-8.25-1.31-17.37,3.68-24.34.94-1.31,2.46-2.6,4.19-2.76,1.24-.13,2.22,1.21,2.54,2.09l2.88,7.82c2.68,7.29,2.52,15.15-1.18,22.02Z"/>
    <path class="cls-1" d="M367.95,720.3c-2.28,2.89-6.3,3.83-9.86,2.61l-2.96-1.01c-6.49-2.22-16.67-10.77-19.53-17.43-.96-2.23-.82-4.63,1.6-5.9.95-.49,2.69-.7,3.83-.18l7.08,3.23,7.74,3.16c2.58,1.06,4.96,2.18,7.17,3.74,4.31,3.06,7.54,8.47,4.93,11.78Z"/>
    <path class="cls-1" d="M378.49,689.18c-.36.85-1.32,1.78-2.68,2.3-3.6,1.37-19.06,1.93-26.49,2.2-5.57.21-10.48,1.35-11.67-2.8-1.1-3.83,2.29-5.39,7.09-7.14,8.09-2.96,16.78-3.84,25.4-2.68,5.52.74,9.89,4.53,8.35,8.12Z"/>
    <path class="cls-1" d="M350.06,670.63c-4.71,4.93-12.48,13.97-16.43,12.22-2.92-1.28-3.63-4.41-2.01-6.96,1.23-1.96,2.14-3.92,3.15-5.96l3.84-7.8c1.62-3.27,3.81-6.08,6.56-8.67,4.93-4.63,11.97-6.06,14.38-2,3.3,5.55-4.55,13.99-9.49,19.17Z"/>
    <path class="cls-1" d="M329.7,665.99c-.6,3.51-1.09,6.85-1.49,10.47-.11,1.11-.72,2.32-1.77,2.71-2.13.8-4.31.21-5.45-1.48-4.04-6.03-5.68-14.25-4.9-21.33.61-5.58,4.58-10.11,10.49-11.48,4.29-.99,4.49,13.19,3.12,21.11Z"/>
    <path class="cls-1" d="M315.06,686.08c-.73,1.12-2.12,1.56-3.33.84l-3.78-2.26-5.48-2.8-8.39-4.2-3.32-1.83c-6.03-3.34-11.49-8.58-7.73-13.66,1.72-2.32,4.32-3.93,7.22-4.71,8.71-2.32,19.6,7.17,22.57,14.63l2.86,7.16c.92,2.3.67,4.85-.62,6.83Z"/>
  </g>
  <g>
    <path class="cls-3" d="M515.08,413.19c-1.52-3.56-4.74-5.7-8.41-6.79-5.65-1.69-12.87-.6-19.26.39-1.29.2-2.52.94-4.07.18,8.35-7.06,20.91-25.31,11.94-31.42-5.61-3.81-11.99-1.13-16.76,3.98-3.95,4.22-6.99,9.98-9.09,15.4-.56.46-1.24-.17-.74-.63.57-6.68.95-16.74-1.36-21.69-1.31-2.8-4.25-3.46-7.01-2.22-3.17,1.41-5.67,3.75-7.12,6.9l-1.41,3.08c-1.48,4.47-1.66,8.92-1.8,13.59-5.17-8.21-13.28-13.88-22.62-12.15-4.22.79-7.72,3.24-9.77,6.98-6.3,11.47,8,20.38,18.8,25.36,1.83.84,4.75,1.11,6.56,3.29-2.04.43-4.01,0-6.19-.09-9.92-.42-19.44,2.27-23.19,11.37-2.03,4.89-.3,10.06,4.52,12.45,1.67.83,3.77.9,5.71.52l12.04-2.38-5.32,3.89c-6.79,4.97-10.92,14.37-6.8,21.73,1.07,1.91,2.66,3.37,4.47,4.51,6.36,3.98,13.51.78,18.26-5.54,1.84-2.44,3.11-5.09,4.49-7.85l3.2-6.44c.03,8.69,1.49,21.6,7.88,25.27,3.6,2.08,7.47-.36,9.52-4.57,3.63-7.46,4.33-15.45,2.83-24.02,6.8,6.8,14.76,12.82,24.25,11.36,3.79-.58,6.28-3.3,7.15-6.83,1.81-7.37-3.14-14.64-10.05-18.6-2.63-1.5-5.32-2.63-8.34-3.47-.59-.16-.98-.46-1.21-.93l11.75-.92,6.28-.48,3.28-.61c2.79-.52,5.3-1.8,7.02-4.17,1.76-2.43,1.77-5.68.57-8.45ZM467.64,404.9c1.19-1.98,2.06-3.97,3.03-6.04l3.69-7.9c1.55-3.31,3.66-6.16,6.3-8.78,4.73-4.69,11.49-6.14,13.81-2.03,3.17,5.63-4.37,14.18-9.11,19.42-4.53,5-11.99,14.16-15.78,12.39-2.81-1.31-3.49-4.47-1.94-7.06ZM469.92,425.47c-2.91,4.05-8.01,6.76-11.81,3.32-1.77-1.61-3.48-3.36-4.39-5.54-1.32-3.19-.33-6.18,2.22-8.27,2.76-2.26,6.26-3.02,9.52-1.14,4.3,2.47,7.37,7.59,4.46,11.63ZM452.73,385.12c.59-5.65,4.4-10.25,10.08-11.63,4.11-1,4.31,13.36,2.99,21.39-.57,3.55-1.04,6.93-1.42,10.6-.12,1.12-.7,2.35-1.71,2.75-2.04.81-4.14.21-5.23-1.51-3.88-6.1-5.46-14.43-4.71-21.6ZM439.66,410.95l-8.07-4.25-3.18-1.86c-5.79-3.38-11.04-8.69-7.43-13.84,1.65-2.34,4.15-3.98,6.93-4.77,8.37-2.34,18.83,7.26,21.68,14.82l2.75,7.25c.88,2.34.64,4.92-.59,6.92-.71,1.14-2.05,1.58-3.2.86l-3.64-2.29-5.25-2.84ZM428.89,436.54c-4.74,1.53-10.88,1.52-12.99-2.18-1.11-1.95-.41-4.17.97-5.76,4.85-5.56,13.29-7.16,21.01-6.96l8.99.23c2.43.06,3.91,1.33,4.66,3.55.55,1.63.43,3.12-1.11,4.13-1.33.88-3.03,1.03-4.82,1.62l-16.71,5.37ZM450.95,448.33l-2.84,6.09c-2.97,6.38-8.56,12.41-15.87,11.51-1.92-.23-3.35-1.3-4.64-2.57-2.68-2.59-3.36-6.26-1.54-9.62,4.23-7.8,18.98-13.82,27.6-20.47,1.03-.8,2.68-1.13,3.78-.52,1.93,1.06,1.27,3.34-.78,5.69-2.54,2.94-4.08,6.37-5.71,9.89ZM469.53,467.17c-.88,1.72-2.25,3.11-4.22,3.94-3.68,1.56-6.32-3.78-7.42-8.83-1.8-8.36-1.25-17.6,3.54-24.66.91-1.32,2.37-2.63,4.02-2.8,1.2-.12,2.14,1.23,2.44,2.12l2.77,7.92c2.58,7.38,2.42,15.35-1.13,22.31ZM490.92,434.17c2.47,1.07,4.76,2.21,6.88,3.79,4.14,3.09,7.25,8.57,4.74,11.93-2.2,2.93-6.05,3.87-9.48,2.64l-2.84-1.02c-6.23-2.25-16-10.91-18.76-17.66-.91-2.26-.78-4.69,1.54-5.97.91-.5,2.58-.71,3.68-.18l6.8,3.27,7.44,3.2ZM512.66,418.37c-.35.86-1.27,1.8-2.58,2.33-3.45,1.38-18.3,1.95-25.44,2.22-5.35.21-10.06,1.37-11.21-2.83-1.05-3.89,2.21-5.46,6.81-7.24,7.78-2.99,16.12-3.88,24.4-2.71,5.3.75,9.49,4.59,8.02,8.23Z"/>
    <path class="cls-5" d="M515.08,413.19c-1.52-3.56-4.74-5.7-8.41-6.79-5.65-1.69-12.87-.6-19.26.39-1.29.2-2.52.94-4.07.18,8.35-7.06,20.91-25.31,11.94-31.42-5.61-3.81-11.99-1.13-16.76,3.98-3.95,4.22-6.99,9.98-9.09,15.4-.56.46-1.24-.17-.74-.63.57-6.68.95-16.74-1.36-21.69-1.31-2.8-4.25-3.46-7.01-2.22-3.17,1.41-5.67,3.75-7.12,6.9l-1.41,3.08c-1.48,4.47-1.66,8.92-1.8,13.59-5.17-8.21-13.28-13.88-22.62-12.15-4.22.79-7.72,3.24-9.77,6.98-6.3,11.47,8,20.38,18.8,25.36,1.83.84,4.75,1.11,6.56,3.29-2.04.43-4.01,0-6.19-.09-9.92-.42-19.44,2.27-23.19,11.37-2.03,4.89-.3,10.06,4.52,12.45,1.67.83,3.77.9,5.71.52l12.04-2.38-5.32,3.89c-6.79,4.97-10.92,14.37-6.8,21.73,1.07,1.91,2.66,3.37,4.47,4.51,6.36,3.98,13.51.78,18.26-5.54,1.84-2.44,3.11-5.09,4.49-7.85l3.2-6.44c.03,8.69,1.49,21.6,7.88,25.27,3.6,2.08,7.47-.36,9.52-4.57,3.63-7.46,4.33-15.45,2.83-24.02,6.8,6.8,14.76,12.82,24.25,11.36,3.79-.58,6.28-3.3,7.15-6.83,1.81-7.37-3.14-14.64-10.05-18.6-2.63-1.5-5.32-2.63-8.34-3.47-.59-.16-.98-.46-1.21-.93l11.75-.92,6.28-.48,3.28-.61c2.79-.52,5.3-1.8,7.02-4.17,1.76-2.43,1.77-5.68.57-8.45ZM467.64,404.9c1.19-1.98,2.06-3.97,3.03-6.04l3.69-7.9c1.55-3.31,3.66-6.16,6.3-8.78,4.73-4.69,11.49-6.14,13.81-2.03,3.17,5.63-4.37,14.18-9.11,19.42-4.53,5-11.99,14.16-15.78,12.39-2.81-1.31-3.49-4.47-1.94-7.06ZM469.92,425.47c-2.91,4.05-8.01,6.76-11.81,3.32-1.77-1.61-3.48-3.36-4.39-5.54-1.32-3.19-.33-6.18,2.22-8.27,2.76-2.26,6.26-3.02,9.52-1.14,4.3,2.47,7.37,7.59,4.46,11.63ZM452.73,385.12c.59-5.65,4.4-10.25,10.08-11.63,4.11-1,4.31,13.36,2.99,21.39-.57,3.55-1.04,6.93-1.42,10.6-.12,1.12-.7,2.35-1.71,2.75-2.04.81-4.14.21-5.23-1.51-3.88-6.1-5.46-14.43-4.71-21.6ZM439.66,410.95l-8.07-4.25-3.18-1.86c-5.79-3.38-11.04-8.69-7.43-13.84,1.65-2.34,4.15-3.98,6.93-4.77,8.37-2.34,18.83,7.26,21.68,14.82l2.75,7.25c.88,2.34.64,4.92-.59,6.92-.71,1.14-2.05,1.58-3.2.86l-3.64-2.29-5.25-2.84ZM428.89,436.54c-4.74,1.53-10.88,1.52-12.99-2.18-1.11-1.95-.41-4.17.97-5.76,4.85-5.56,13.29-7.16,21.01-6.96l8.99.23c2.43.06,3.91,1.33,4.66,3.55.55,1.63.43,3.12-1.11,4.13-1.33.88-3.03,1.03-4.82,1.62l-16.71,5.37ZM450.95,448.33l-2.84,6.09c-2.97,6.38-8.56,12.41-15.87,11.51-1.92-.23-3.35-1.3-4.64-2.57-2.68-2.59-3.36-6.26-1.54-9.62,4.23-7.8,18.98-13.82,27.6-20.47,1.03-.8,2.68-1.13,3.78-.52,1.93,1.06,1.27,3.34-.78,5.69-2.54,2.94-4.08,6.37-5.71,9.89ZM469.53,467.17c-.88,1.72-2.25,3.11-4.22,3.94-3.68,1.56-6.32-3.78-7.42-8.83-1.8-8.36-1.25-17.6,3.54-24.66.91-1.32,2.37-2.63,4.02-2.8,1.2-.12,2.14,1.23,2.44,2.12l2.77,7.92c2.58,7.38,2.42,15.35-1.13,22.31ZM490.92,434.17c2.47,1.07,4.76,2.21,6.88,3.79,4.14,3.09,7.25,8.57,4.74,11.93-2.2,2.93-6.05,3.87-9.48,2.64l-2.84-1.02c-6.23-2.25-16-10.91-18.76-17.66-.91-2.26-.78-4.69,1.54-5.97.91-.5,2.58-.71,3.68-.18l6.8,3.27,7.44,3.2ZM512.66,418.37c-.35.86-1.27,1.8-2.58,2.33-3.45,1.38-18.3,1.95-25.44,2.22-5.35.21-10.06,1.37-11.21-2.83-1.05-3.89,2.21-5.46,6.81-7.24,7.78-2.99,16.12-3.88,24.4-2.71,5.3.75,9.49,4.59,8.02,8.23Z"/>
    <path class="cls-1" d="M450.42,429.55c-1.33.88-3.03,1.03-4.82,1.62l-16.71,5.37c-4.74,1.53-10.88,1.52-12.99-2.18-1.11-1.95-.41-4.17.97-5.76,4.85-5.56,13.29-7.16,21.01-6.96l8.99.23c2.43.06,3.91,1.33,4.66,3.55.55,1.63.43,3.12-1.11,4.13Z"/>
    <path class="cls-1" d="M456.66,438.44c-2.54,2.94-4.08,6.37-5.71,9.89l-2.84,6.09c-2.97,6.38-8.56,12.41-15.87,11.51-1.92-.23-3.35-1.3-4.64-2.57-2.68-2.59-3.36-6.26-1.54-9.62,4.23-7.8,18.98-13.82,27.6-20.47,1.03-.8,2.68-1.13,3.78-.52,1.93,1.06,1.27,3.34-.78,5.69Z"/>
    <path class="cls-1" d="M469.53,467.17c-.88,1.72-2.25,3.11-4.22,3.94-3.68,1.56-6.32-3.78-7.42-8.83-1.8-8.36-1.25-17.6,3.54-24.66.91-1.32,2.37-2.63,4.02-2.8,1.2-.12,2.14,1.23,2.44,2.12l2.77,7.92c2.58,7.38,2.42,15.35-1.13,22.31Z"/>
    <path class="cls-1" d="M502.54,449.89c-2.2,2.93-6.05,3.87-9.48,2.64l-2.84-1.02c-6.23-2.25-16-10.91-18.76-17.66-.91-2.26-.78-4.69,1.54-5.97.91-.5,2.58-.71,3.68-.18l6.8,3.27,7.44,3.2c2.47,1.07,4.76,2.21,6.88,3.79,4.14,3.09,7.25,8.57,4.74,11.93Z"/>
    <path class="cls-1" d="M512.66,418.37c-.35.86-1.27,1.8-2.58,2.33-3.45,1.38-18.3,1.95-25.44,2.22-5.35.21-10.06,1.37-11.21-2.83-1.05-3.89,2.21-5.46,6.81-7.24,7.78-2.99,16.12-3.88,24.4-2.71,5.3.75,9.49,4.59,8.02,8.23Z"/>
    <path class="cls-1" d="M469.92,425.47c-2.91,4.05-8.01,6.76-11.81,3.32-1.77-1.61-3.48-3.36-4.39-5.54-1.32-3.19-.33-6.18,2.22-8.27,2.76-2.26,6.26-3.02,9.52-1.14,4.3,2.47,7.37,7.59,4.46,11.63Z"/>
    <path class="cls-1" d="M451.75,415.22c-.71,1.14-2.05,1.58-3.2.86l-3.64-2.29-5.25-2.84-8.07-4.25-3.18-1.86c-5.79-3.38-11.04-8.69-7.43-13.84,1.65-2.34,4.15-3.98,6.93-4.77,8.37-2.34,18.83,7.26,21.68,14.82l2.75,7.25c.88,2.34.64,4.92-.59,6.92Z"/>
    <path class="cls-1" d="M465.8,394.88c-.57,3.55-1.04,6.93-1.42,10.6-.12,1.12-.7,2.35-1.71,2.75-2.04.81-4.14.21-5.23-1.51-3.88-6.1-5.46-14.43-4.71-21.6.59-5.65,4.4-10.25,10.08-11.63,4.11-1,4.31,13.36,2.99,21.39Z"/>
    <path class="cls-1" d="M485.36,399.57c-4.53,5-11.99,14.16-15.78,12.39-2.81-1.31-3.49-4.47-1.94-7.06,1.19-1.98,2.06-3.97,3.03-6.04l3.69-7.9c1.55-3.31,3.66-6.16,6.3-8.78,4.73-4.69,11.49-6.14,13.81-2.03,3.17,5.63-4.37,14.18-9.11,19.42Z"/>
  </g>
  <g>
    <path class="cls-3" d="M683.24,414.41c-.71-.45-1.44-.89-2.19-1.3-3.46-1.89-7-3.31-10.97-4.37-.78-.2-1.29-.57-1.6-1.17l10.36-.77-3.32-5.74c-3.42.15-6.59.27-9.06.36-7.04.26-13.24,1.72-14.75-3.57-1.38-4.88,2.9-6.86,8.96-9.09,2.16-.8,4.36-1.48,6.58-2.03l-5.18-8.98c-5.44,5.69-11.75,11.52-15.43,9.88-3.7-1.64-4.59-5.62-2.55-8.87,1.56-2.49,2.71-4.99,3.99-7.59l4.67-9.56-2.25-3.89c-1.56,2.8-2.92,5.69-4.06,8.5-.74.58-1.63-.21-.97-.79.4-4.52.74-10.28.48-15.6l-8.76-15.17c-.9.08-1.83.32-2.74.71-4.17,1.78-7.46,4.72-9.36,8.68l-1.86,3.87c-1.95,5.62-2.18,11.21-2.37,17.08-6.81-10.31-17.47-17.45-29.77-15.27-5.55.99-10.15,4.08-12.85,8.78-8.3,14.41,10.53,25.62,24.74,31.88,2.4,1.06,6.25,1.39,8.63,4.14-2.69.53-5.28,0-8.15-.12-13.05-.53-25.58,2.85-30.52,14.29-2.66,6.15-.39,12.65,5.95,15.66,2.2,1.04,4.96,1.13,7.52.65l15.84-2.99-7,4.89c-8.94,6.25-14.37,18.07-8.95,27.32,1.41,2.4,3.5,4.24,5.89,5.67,8.36,5,17.77.98,24.03-6.97,2.41-3.06,4.09-6.4,5.9-9.87l4.21-8.09c.04,10.92,1.96,27.15,10.37,31.77,4.74,2.61,9.83-.45,12.53-5.75,4.78-9.37,5.7-19.42,3.72-30.19,8.96,8.54,19.43,16.11,31.92,14.28,4.98-.73,8.26-4.15,9.41-8.59.2-.76.33-1.51.4-2.26.82-7.71-4.22-15.1-11.44-19.82ZM647.09,404.62c-3.83,5.09-10.54,8.5-15.54,4.17-2.33-2.02-4.59-4.22-5.78-6.96-1.74-4.01-.43-7.77,2.92-10.4,3.63-2.84,8.24-3.8,12.53-1.43,5.65,3.11,9.69,9.54,5.87,14.62ZM624.47,353.89c.77-7.1,5.78-12.88,13.26-14.62,5.41-1.26,5.67,16.8,3.94,26.89-.76,4.47-1.38,8.72-1.88,13.33-.15,1.41-.92,2.95-2.24,3.45-2.69,1.02-5.45.27-6.89-1.89-5.1-7.67-7.18-18.14-6.19-27.16ZM607.26,386.36l-10.61-5.34-4.19-2.34c-7.62-4.25-14.52-10.92-9.77-17.39,2.17-2.95,5.45-5.01,9.12-6,11.01-2.95,24.77,9.13,28.53,18.63l3.61,9.12c1.16,2.93.85,6.18-.78,8.7-.93,1.43-2.69,1.98-4.21,1.07l-4.78-2.88-6.92-3.57ZM593.09,418.54c-6.24,1.92-14.32,1.91-17.09-2.74-1.46-2.46-.54-5.25,1.27-7.24,6.39-6.99,17.5-9.01,27.66-8.76l11.82.29c3.2.08,5.15,1.68,6.14,4.47.72,2.05.56,3.92-1.47,5.19-1.75,1.11-3.98,1.3-6.34,2.03l-21.99,6.76ZM622.12,433.36l-3.73,7.66c-3.91,8.02-11.27,15.6-20.89,14.47-2.52-.29-4.4-1.64-6.11-3.23-3.52-3.26-4.42-7.87-2.02-12.1,5.56-9.8,24.98-17.37,36.32-25.74,1.35-1,3.53-1.41,4.98-.65,2.53,1.33,1.66,4.2-1.03,7.16-3.35,3.69-5.37,8-7.52,12.43ZM646.57,457.05c-1.15,2.16-2.96,3.9-5.55,4.95-4.84,1.96-8.32-4.75-9.76-11.1-2.37-10.51-1.65-22.13,4.66-31,1.19-1.67,3.11-3.31,5.29-3.52,1.57-.16,2.81,1.54,3.21,2.66l3.64,9.96c3.39,9.28,3.19,19.3-1.49,28.05ZM690.01,435.32c-2.89,3.68-7.96,4.87-12.47,3.32l-3.74-1.28c-8.2-2.83-21.06-13.72-24.68-22.2-1.21-2.84-1.03-5.9,2.02-7.51,1.2-.63,3.4-.89,4.84-.23l8.95,4.11,9.79,4.03c3.25,1.34,6.26,2.77,9.05,4.76,5.45,3.89,9.54,10.78,6.24,15Z"/>
    <path class="cls-5" d="M683.24,414.41c-.71-.45-1.44-.89-2.19-1.3-3.46-1.89-7-3.31-10.97-4.37-.78-.2-1.29-.57-1.6-1.17l10.36-.77-3.32-5.74c-3.42.15-6.59.27-9.06.36-7.04.26-13.24,1.72-14.75-3.57-1.38-4.88,2.9-6.86,8.96-9.09,2.16-.8,4.36-1.48,6.58-2.03l-5.18-8.98c-5.44,5.69-11.75,11.52-15.43,9.88-3.7-1.64-4.59-5.62-2.55-8.87,1.56-2.49,2.71-4.99,3.99-7.59l4.67-9.56-2.25-3.89c-1.56,2.8-2.92,5.69-4.06,8.5-.74.58-1.63-.21-.97-.79.4-4.52.74-10.28.48-15.6l-8.76-15.17c-.9.08-1.83.32-2.74.71-4.17,1.78-7.46,4.72-9.36,8.68l-1.86,3.87c-1.95,5.62-2.18,11.21-2.37,17.08-6.81-10.31-17.47-17.45-29.77-15.27-5.55.99-10.15,4.08-12.85,8.78-8.3,14.41,10.53,25.62,24.74,31.88,2.4,1.06,6.25,1.39,8.63,4.14-2.69.53-5.28,0-8.15-.12-13.05-.53-25.58,2.85-30.52,14.29-2.66,6.15-.39,12.65,5.95,15.66,2.2,1.04,4.96,1.13,7.52.65l15.84-2.99-7,4.89c-8.94,6.25-14.37,18.07-8.95,27.32,1.41,2.4,3.5,4.24,5.89,5.67,8.36,5,17.77.98,24.03-6.97,2.41-3.06,4.09-6.4,5.9-9.87l4.21-8.09c.04,10.92,1.96,27.15,10.37,31.77,4.74,2.61,9.83-.45,12.53-5.75,4.78-9.37,5.7-19.42,3.72-30.19,8.96,8.54,19.43,16.11,31.92,14.28,4.98-.73,8.26-4.15,9.41-8.59.2-.76.33-1.51.4-2.26.82-7.71-4.22-15.1-11.44-19.82ZM647.09,404.62c-3.83,5.09-10.54,8.5-15.54,4.17-2.33-2.02-4.59-4.22-5.78-6.96-1.74-4.01-.43-7.77,2.92-10.4,3.63-2.84,8.24-3.8,12.53-1.43,5.65,3.11,9.69,9.54,5.87,14.62ZM624.47,353.89c.77-7.1,5.78-12.88,13.26-14.62,5.41-1.26,5.67,16.8,3.94,26.89-.76,4.47-1.38,8.72-1.88,13.33-.15,1.41-.92,2.95-2.24,3.45-2.69,1.02-5.45.27-6.89-1.89-5.1-7.67-7.18-18.14-6.19-27.16ZM607.26,386.36l-10.61-5.34-4.19-2.34c-7.62-4.25-14.52-10.92-9.77-17.39,2.17-2.95,5.45-5.01,9.12-6,11.01-2.95,24.77,9.13,28.53,18.63l3.61,9.12c1.16,2.93.85,6.18-.78,8.7-.93,1.43-2.69,1.98-4.21,1.07l-4.78-2.88-6.92-3.57ZM593.09,418.54c-6.24,1.92-14.32,1.91-17.09-2.74-1.46-2.46-.54-5.25,1.27-7.24,6.39-6.99,17.5-9.01,27.66-8.76l11.82.29c3.2.08,5.15,1.68,6.14,4.47.72,2.05.56,3.92-1.47,5.19-1.75,1.11-3.98,1.3-6.34,2.03l-21.99,6.76ZM622.12,433.36l-3.73,7.66c-3.91,8.02-11.27,15.6-20.89,14.47-2.52-.29-4.4-1.64-6.11-3.23-3.52-3.26-4.42-7.87-2.02-12.1,5.56-9.8,24.98-17.37,36.32-25.74,1.35-1,3.53-1.41,4.98-.65,2.53,1.33,1.66,4.2-1.03,7.16-3.35,3.69-5.37,8-7.52,12.43ZM646.57,457.05c-1.15,2.16-2.96,3.9-5.55,4.95-4.84,1.96-8.32-4.75-9.76-11.1-2.37-10.51-1.65-22.13,4.66-31,1.19-1.67,3.11-3.31,5.29-3.52,1.57-.16,2.81,1.54,3.21,2.66l3.64,9.96c3.39,9.28,3.19,19.3-1.49,28.05ZM690.01,435.32c-2.89,3.68-7.96,4.87-12.47,3.32l-3.74-1.28c-8.2-2.83-21.06-13.72-24.68-22.2-1.21-2.84-1.03-5.9,2.02-7.51,1.2-.63,3.4-.89,4.84-.23l8.95,4.11,9.79,4.03c3.25,1.34,6.26,2.77,9.05,4.76,5.45,3.89,9.54,10.78,6.24,15Z"/>
    <path class="cls-1" d="M690.01,435.32c-2.89,3.68-7.96,4.87-12.47,3.32l-3.74-1.28c-8.2-2.83-21.06-13.72-24.68-22.2-1.21-2.84-1.03-5.9,2.02-7.51,1.2-.63,3.4-.89,4.84-.23l8.95,4.11,9.79,4.03c3.25,1.34,6.26,2.77,9.05,4.76,5.45,3.89,9.54,10.78,6.24,15Z"/>
    <path class="cls-1" d="M647.09,404.62c-3.83,5.09-10.54,8.5-15.54,4.17-2.33-2.02-4.59-4.22-5.78-6.96-1.74-4.01-.43-7.77,2.92-10.4,3.63-2.84,8.24-3.8,12.53-1.43,5.65,3.11,9.69,9.54,5.87,14.62Z"/>
    <path class="cls-1" d="M641.67,366.16c-.76,4.47-1.38,8.72-1.88,13.33-.15,1.41-.92,2.95-2.24,3.45-2.69,1.02-5.45.27-6.89-1.89-5.1-7.67-7.18-18.14-6.19-27.16.77-7.1,5.78-12.88,13.26-14.62,5.41-1.26,5.67,16.8,3.94,26.89Z"/>
    <path class="cls-1" d="M623.17,391.74c-.93,1.43-2.69,1.98-4.21,1.07l-4.78-2.88-6.92-3.57-10.61-5.34-4.19-2.34c-7.62-4.25-14.52-10.92-9.77-17.39,2.17-2.95,5.45-5.01,9.12-6,11.01-2.95,24.77,9.13,28.53,18.63l3.61,9.12c1.16,2.93.85,6.18-.78,8.7Z"/>
    <path class="cls-1" d="M621.42,409.75c-1.75,1.11-3.98,1.3-6.34,2.03l-21.99,6.76c-6.24,1.92-14.32,1.91-17.09-2.74-1.46-2.46-.54-5.25,1.27-7.24,6.39-6.99,17.5-9.01,27.66-8.76l11.82.29c3.2.08,5.15,1.68,6.14,4.47.72,2.05.56,3.92-1.47,5.19Z"/>
    <path class="cls-1" d="M629.64,420.93c-3.35,3.69-5.37,8-7.52,12.43l-3.73,7.66c-3.91,8.02-11.27,15.6-20.89,14.47-2.52-.29-4.4-1.64-6.11-3.23-3.52-3.26-4.42-7.87-2.02-12.1,5.56-9.8,24.98-17.37,36.32-25.74,1.35-1,3.53-1.41,4.98-.65,2.53,1.33,1.66,4.2-1.03,7.16Z"/>
    <path class="cls-1" d="M646.57,457.05c-1.15,2.16-2.96,3.9-5.55,4.95-4.84,1.96-8.32-4.75-9.76-11.1-2.37-10.51-1.65-22.13,4.66-31,1.19-1.67,3.11-3.31,5.29-3.52,1.57-.16,2.81,1.54,3.21,2.66l3.64,9.96c3.39,9.28,3.19,19.3-1.49,28.05Z"/>
  </g>
  <g>
    <path class="cls-3" d="M850.61,782.35c4.9-3.71,11.11-4.96,16.9-1.87,4.75,2.53,8.65,6.73,9.67,11.15,1.29-4.69,2.1-9.53,2.38-14.45-1.78.66-3.4.79-4.75.21-4.99-2.14-6.19-7.33-3.44-11.56,2.11-3.25,3.66-6.51,5.38-9.9l.47-.94c-.6-2.23-1.33-4.45-2.19-6.66-.17.38-.33.76-.49,1.14-.99.76-2.19-.27-1.3-1.03.11-1.16.21-2.39.3-3.67-.99-2.22-2.12-4.42-3.37-6.59l-.83-1.44c-.14,4.52-.58,8.99-1.23,12.66-1.02,5.82-1.86,11.37-2.53,17.38-.2,1.84-1.24,3.85-3.02,4.5-3.63,1.33-7.35.35-9.29-2.47-6.88-10-9.68-23.65-8.35-35.41.84-7.51,5.45-13.89,12.54-17.24l-2.89-4.99c-3.82,2.31-6.86,5.46-8.81,9.39l-2.51,5.05c-2.63,7.33-2.94,14.62-3.19,22.27-9.18-13.44-23.56-22.75-40.14-19.91-7.48,1.29-13.68,5.32-17.32,11.45-11.19,18.79,14.19,33.41,33.35,41.57,3.24,1.38,8.43,1.81,11.64,5.4-3.63.69-7.12,0-10.99-.16-17.6-.69-34.49,3.72-41.15,18.64-3.58,8.02-.52,16.49,8.02,20.42,2.97,1.36,6.69,1.47,10.14.85l21.36-3.9-9.44,6.37c-5.55,3.76-10.11,9.06-12.68,14.87h6.41c9.14-11.63,33-20.94,47.31-31.15,1.82-1.31,4.76-1.84,6.71-.85,3.41,1.73,2.24,5.48-1.39,9.34-4.03,4.3-6.64,9.24-9.21,14.37,5.26-2.83,10.08-6.31,14.37-10.32.94-1.87,2.04-3.67,3.31-5.4,1.25-1.69,3.09-3.36,5.24-4.15,3.17-4.25,5.85-8.84,7.99-13.68-5.29,5.4-13.12,8.37-19.12,3.35-3.14-2.64-6.19-5.51-7.79-9.08-2.35-5.23-.58-10.13,3.93-13.56ZM840.81,806.24c-2.36,1.45-5.36,1.69-8.55,2.64l-29.64,8.82c-8.42,2.5-19.31,2.49-23.04-3.57-1.97-3.21-.73-6.85,1.71-9.44,8.61-9.12,23.59-11.75,37.29-11.43l15.94.38c4.31.11,6.94,2.19,8.27,5.83.97,2.67.76,5.11-1.98,6.77ZM843.17,782.75c-1.25,1.87-3.63,2.58-5.68,1.4l-6.44-3.76-9.33-4.65-14.3-6.97-5.65-3.05c-10.27-5.54-19.58-14.24-13.17-22.67,2.92-3.85,7.34-6.54,12.29-7.83,14.85-3.85,33.4,11.91,38.47,24.3l4.86,11.89c1.57,3.82,1.15,8.06-1.05,11.34Z"/>
    <path class="cls-5" d="M850.61,782.35c4.9-3.71,11.11-4.96,16.9-1.87,4.75,2.53,8.65,6.73,9.67,11.15,1.29-4.69,2.1-9.53,2.38-14.45-1.78.66-3.4.79-4.75.21-4.99-2.14-6.19-7.33-3.44-11.56,2.11-3.25,3.66-6.51,5.38-9.9l.47-.94c-.6-2.23-1.33-4.45-2.19-6.66-.17.38-.33.76-.49,1.14-.99.76-2.19-.27-1.3-1.03.11-1.16.21-2.39.3-3.67-.99-2.22-2.12-4.42-3.37-6.59l-.83-1.44c-.14,4.52-.58,8.99-1.23,12.66-1.02,5.82-1.86,11.37-2.53,17.38-.2,1.84-1.24,3.85-3.02,4.5-3.63,1.33-7.35.35-9.29-2.47-6.88-10-9.68-23.65-8.35-35.41.84-7.51,5.45-13.89,12.54-17.24l-2.89-4.99c-3.82,2.31-6.86,5.46-8.81,9.39l-2.51,5.05c-2.63,7.33-2.94,14.62-3.19,22.27-9.18-13.44-23.56-22.75-40.14-19.91-7.48,1.29-13.68,5.32-17.32,11.45-11.19,18.79,14.19,33.41,33.35,41.57,3.24,1.38,8.43,1.81,11.64,5.4-3.63.69-7.12,0-10.99-.16-17.6-.69-34.49,3.72-41.15,18.64-3.58,8.02-.52,16.49,8.02,20.42,2.97,1.36,6.69,1.47,10.14.85l21.36-3.9-9.44,6.37c-5.55,3.76-10.11,9.06-12.68,14.87h6.41c9.14-11.63,33-20.94,47.31-31.15,1.82-1.31,4.76-1.84,6.71-.85,3.41,1.73,2.24,5.48-1.39,9.34-4.03,4.3-6.64,9.24-9.21,14.37,5.26-2.83,10.08-6.31,14.37-10.32.94-1.87,2.04-3.67,3.31-5.4,1.25-1.69,3.09-3.36,5.24-4.15,3.17-4.25,5.85-8.84,7.99-13.68-5.29,5.4-13.12,8.37-19.12,3.35-3.14-2.64-6.19-5.51-7.79-9.08-2.35-5.23-.58-10.13,3.93-13.56ZM840.81,806.24c-2.36,1.45-5.36,1.69-8.55,2.64l-29.64,8.82c-8.42,2.5-19.31,2.49-23.04-3.57-1.97-3.21-.73-6.85,1.71-9.44,8.61-9.12,23.59-11.75,37.29-11.43l15.94.38c4.31.11,6.94,2.19,8.27,5.83.97,2.67.76,5.11-1.98,6.77ZM843.17,782.75c-1.25,1.87-3.63,2.58-5.68,1.4l-6.44-3.76-9.33-4.65-14.3-6.97-5.65-3.05c-10.27-5.54-19.58-14.24-13.17-22.67,2.92-3.85,7.34-6.54,12.29-7.83,14.85-3.85,33.4,11.91,38.47,24.3l4.86,11.89c1.57,3.82,1.15,8.06-1.05,11.34Z"/>
    <path class="cls-1" d="M843.17,782.75c-1.25,1.87-3.63,2.58-5.68,1.4l-6.44-3.76-9.33-4.65-14.3-6.97-5.65-3.05c-10.27-5.54-19.58-14.24-13.17-22.67,2.92-3.85,7.34-6.54,12.29-7.83,14.85-3.85,33.4,11.91,38.47,24.3l4.86,11.89c1.57,3.82,1.15,8.06-1.05,11.34Z"/>
    <path class="cls-1" d="M840.81,806.24c-2.36,1.45-5.36,1.69-8.55,2.64l-29.64,8.82c-8.42,2.5-19.31,2.49-23.04-3.57-1.97-3.21-.73-6.85,1.71-9.44,8.61-9.12,23.59-11.75,37.29-11.43l15.94.38c4.31.11,6.94,2.19,8.27,5.83.97,2.67.76,5.11-1.98,6.77Z"/>
  </g>
  <g>
    <path class="cls-3" d="M696.8,748.03c-2.01-4.47-6.24-7.17-11.07-8.54-7.44-2.12-16.94-.75-25.35.5-1.69.25-3.32,1.18-5.35.22,10.99-8.88,27.51-31.82,15.71-39.5-7.38-4.79-15.78-1.42-22.06,5-5.19,5.31-9.19,12.55-11.96,19.36-.74.58-1.63-.21-.97-.79.75-8.39,1.25-21.04-1.79-27.26-1.73-3.53-5.6-4.35-9.23-2.8-4.17,1.78-7.46,4.72-9.36,8.68l-1.86,3.87c-1.95,5.62-2.18,11.21-2.37,17.08-6.81-10.31-17.47-17.45-29.77-15.27-5.55.99-10.15,4.08-12.85,8.78-8.3,14.41,10.53,25.62,24.74,31.88,2.4,1.06,6.25,1.39,8.63,4.14-2.69.53-5.28,0-8.15-.12-13.05-.53-25.58,2.85-30.52,14.29-2.66,6.15-.39,12.65,5.95,15.66,2.2,1.04,4.96,1.13,7.52.65l15.84-2.99-7,4.89c-8.94,6.25-14.37,18.07-8.95,27.32,1.41,2.4,3.5,4.24,5.89,5.67,8.36,5,17.77.98,24.03-6.97,2.41-3.06,4.09-6.4,5.9-9.87l4.21-8.09c.04,10.92,1.96,27.15,10.37,31.77,4.74,2.61,9.83-.45,12.53-5.75,4.78-9.37,5.7-19.42,3.72-30.19,8.96,8.54,19.43,16.11,31.92,14.28,4.98-.73,8.26-4.15,9.41-8.59,2.38-9.27-4.13-18.4-13.23-23.38-3.46-1.89-7-3.31-10.97-4.37-.78-.2-1.29-.57-1.6-1.17l15.46-1.15,8.27-.6,4.32-.77c3.67-.65,6.97-2.26,9.23-5.25,2.32-3.05,2.34-7.13.76-10.62ZM634.37,737.61c1.56-2.49,2.71-4.99,3.99-7.59l4.85-9.93c2.04-4.17,4.81-7.75,8.29-11.04,6.23-5.9,15.12-7.72,18.17-2.55,4.17,7.07-5.75,17.82-11.99,24.41-5.95,6.28-15.77,17.8-20.76,15.57-3.7-1.64-4.59-5.62-2.55-8.87ZM637.37,763.47c-3.83,5.09-10.54,8.5-15.54,4.17-2.33-2.02-4.59-4.22-5.78-6.96-1.74-4.01-.43-7.77,2.92-10.4,3.63-2.84,8.24-3.8,12.53-1.43,5.65,3.11,9.69,9.54,5.87,14.62ZM614.75,712.74c.77-7.1,5.78-12.88,13.26-14.62,5.41-1.26,5.67,16.8,3.94,26.89-.76,4.47-1.38,8.72-1.88,13.33-.15,1.41-.92,2.95-2.24,3.45-2.69,1.02-5.45.27-6.89-1.89-5.1-7.67-7.18-18.14-6.19-27.16ZM597.54,745.21l-10.61-5.34-4.19-2.34c-7.62-4.25-14.52-10.92-9.77-17.39,2.17-2.95,5.45-5.01,9.12-6,11.01-2.95,24.77,9.13,28.53,18.63l3.61,9.12c1.16,2.93.85,6.18-.78,8.7-.93,1.43-2.69,1.98-4.21,1.07l-4.78-2.88-6.92-3.57ZM583.37,777.39c-6.24,1.92-14.32,1.91-17.09-2.74-1.46-2.46-.54-5.25,1.27-7.24,6.39-6.99,17.5-9.01,27.66-8.76l11.82.29c3.2.08,5.15,1.68,6.14,4.47.72,2.05.56,3.92-1.47,5.19-1.75,1.11-3.98,1.3-6.34,2.03l-21.99,6.76ZM612.4,792.21l-3.73,7.66c-3.91,8.02-11.27,15.6-20.89,14.47-2.52-.29-4.4-1.64-6.11-3.23-3.52-3.26-4.42-7.87-2.02-12.1,5.56-9.8,24.98-17.37,36.32-25.74,1.35-1,3.53-1.41,4.98-.65,2.53,1.33,1.66,4.2-1.03,7.16-3.35,3.69-5.37,8-7.52,12.43ZM636.85,815.9c-1.15,2.16-2.96,3.9-5.55,4.95-4.84,1.96-8.32-4.75-9.76-11.1-2.37-10.51-1.65-22.13,4.66-31,1.19-1.67,3.11-3.31,5.29-3.52,1.57-.16,2.81,1.54,3.21,2.66l3.64,9.96c3.39,9.28,3.19,19.3-1.49,28.05ZM665,774.41c3.25,1.34,6.26,2.77,9.05,4.76,5.45,3.89,9.54,10.78,6.24,15-2.89,3.68-7.96,4.87-12.47,3.32l-3.74-1.28c-8.2-2.83-21.06-13.72-24.68-22.2-1.21-2.84-1.03-5.9,2.02-7.51,1.2-.63,3.4-.89,4.84-.23l8.95,4.11,9.79,4.03ZM693.61,754.54c-.46,1.08-1.67,2.27-3.39,2.93-4.55,1.74-24.09,2.46-33.48,2.8-7.04.26-13.24,1.72-14.75-3.57-1.38-4.88,2.9-6.86,8.96-9.09,10.23-3.77,21.21-4.89,32.1-3.41,6.98.94,12.5,5.77,10.56,10.34Z"/>
    <path class="cls-5" d="M696.8,748.03c-2.01-4.47-6.24-7.17-11.07-8.54-7.44-2.12-16.94-.75-25.35.5-1.69.25-3.32,1.18-5.35.22,10.99-8.88,27.51-31.82,15.71-39.5-7.38-4.79-15.78-1.42-22.06,5-5.19,5.31-9.19,12.55-11.96,19.36-.74.58-1.63-.21-.97-.79.75-8.39,1.25-21.04-1.79-27.26-1.73-3.53-5.6-4.35-9.23-2.8-4.17,1.78-7.46,4.72-9.36,8.68l-1.86,3.87c-1.95,5.62-2.18,11.21-2.37,17.08-6.81-10.31-17.47-17.45-29.77-15.27-5.55.99-10.15,4.08-12.85,8.78-8.3,14.41,10.53,25.62,24.74,31.88,2.4,1.06,6.25,1.39,8.63,4.14-2.69.53-5.28,0-8.15-.12-13.05-.53-25.58,2.85-30.52,14.29-2.66,6.15-.39,12.65,5.95,15.66,2.2,1.04,4.96,1.13,7.52.65l15.84-2.99-7,4.89c-8.94,6.25-14.37,18.07-8.95,27.32,1.41,2.4,3.5,4.24,5.89,5.67,8.36,5,17.77.98,24.03-6.97,2.41-3.06,4.09-6.4,5.9-9.87l4.21-8.09c.04,10.92,1.96,27.15,10.37,31.77,4.74,2.61,9.83-.45,12.53-5.75,4.78-9.37,5.7-19.42,3.72-30.19,8.96,8.54,19.43,16.11,31.92,14.28,4.98-.73,8.26-4.15,9.41-8.59,2.38-9.27-4.13-18.4-13.23-23.38-3.46-1.89-7-3.31-10.97-4.37-.78-.2-1.29-.57-1.6-1.17l15.46-1.15,8.27-.6,4.32-.77c3.67-.65,6.97-2.26,9.23-5.25,2.32-3.05,2.34-7.13.76-10.62ZM634.37,737.61c1.56-2.49,2.71-4.99,3.99-7.59l4.85-9.93c2.04-4.17,4.81-7.75,8.29-11.04,6.23-5.9,15.12-7.72,18.17-2.55,4.17,7.07-5.75,17.82-11.99,24.41-5.95,6.28-15.77,17.8-20.76,15.57-3.7-1.64-4.59-5.62-2.55-8.87ZM637.37,763.47c-3.83,5.09-10.54,8.5-15.54,4.17-2.33-2.02-4.59-4.22-5.78-6.96-1.74-4.01-.43-7.77,2.92-10.4,3.63-2.84,8.24-3.8,12.53-1.43,5.65,3.11,9.69,9.54,5.87,14.62ZM614.75,712.74c.77-7.1,5.78-12.88,13.26-14.62,5.41-1.26,5.67,16.8,3.94,26.89-.76,4.47-1.38,8.72-1.88,13.33-.15,1.41-.92,2.95-2.24,3.45-2.69,1.02-5.45.27-6.89-1.89-5.1-7.67-7.18-18.14-6.19-27.16ZM597.54,745.21l-10.61-5.34-4.19-2.34c-7.62-4.25-14.52-10.92-9.77-17.39,2.17-2.95,5.45-5.01,9.12-6,11.01-2.95,24.77,9.13,28.53,18.63l3.61,9.12c1.16,2.93.85,6.18-.78,8.7-.93,1.43-2.69,1.98-4.21,1.07l-4.78-2.88-6.92-3.57ZM583.37,777.39c-6.24,1.92-14.32,1.91-17.09-2.74-1.46-2.46-.54-5.25,1.27-7.24,6.39-6.99,17.5-9.01,27.66-8.76l11.82.29c3.2.08,5.15,1.68,6.14,4.47.72,2.05.56,3.92-1.47,5.19-1.75,1.11-3.98,1.3-6.34,2.03l-21.99,6.76ZM612.4,792.21l-3.73,7.66c-3.91,8.02-11.27,15.6-20.89,14.47-2.52-.29-4.4-1.64-6.11-3.23-3.52-3.26-4.42-7.87-2.02-12.1,5.56-9.8,24.98-17.37,36.32-25.74,1.35-1,3.53-1.41,4.98-.65,2.53,1.33,1.66,4.2-1.03,7.16-3.35,3.69-5.37,8-7.52,12.43ZM636.85,815.9c-1.15,2.16-2.96,3.9-5.55,4.95-4.84,1.96-8.32-4.75-9.76-11.1-2.37-10.51-1.65-22.13,4.66-31,1.19-1.67,3.11-3.31,5.29-3.52,1.57-.16,2.81,1.54,3.21,2.66l3.64,9.96c3.39,9.28,3.19,19.3-1.49,28.05ZM665,774.41c3.25,1.34,6.26,2.77,9.05,4.76,5.45,3.89,9.54,10.78,6.24,15-2.89,3.68-7.96,4.87-12.47,3.32l-3.74-1.28c-8.2-2.83-21.06-13.72-24.68-22.2-1.21-2.84-1.03-5.9,2.02-7.51,1.2-.63,3.4-.89,4.84-.23l8.95,4.11,9.79,4.03ZM693.61,754.54c-.46,1.08-1.67,2.27-3.39,2.93-4.55,1.74-24.09,2.46-33.48,2.8-7.04.26-13.24,1.72-14.75-3.57-1.38-4.88,2.9-6.86,8.96-9.09,10.23-3.77,21.21-4.89,32.1-3.41,6.98.94,12.5,5.77,10.56,10.34Z"/>
    <path class="cls-1" d="M636.85,815.9c-1.15,2.16-2.96,3.9-5.55,4.95-4.84,1.96-8.32-4.75-9.76-11.1-2.37-10.51-1.65-22.13,4.66-31,1.19-1.67,3.11-3.31,5.29-3.52,1.57-.16,2.81,1.54,3.21,2.66l3.64,9.96c3.39,9.28,3.19,19.3-1.49,28.05Z"/>
    <path class="cls-1" d="M680.29,794.17c-2.89,3.68-7.96,4.87-12.47,3.32l-3.74-1.28c-8.2-2.83-21.06-13.72-24.68-22.2-1.21-2.84-1.03-5.9,2.02-7.51,1.2-.63,3.4-.89,4.84-.23l8.95,4.11,9.79,4.03c3.25,1.34,6.26,2.77,9.05,4.76,5.45,3.89,9.54,10.78,6.24,15Z"/>
    <path class="cls-1" d="M693.61,754.54c-.46,1.08-1.67,2.27-3.39,2.93-4.55,1.74-24.09,2.46-33.48,2.8-7.04.26-13.24,1.72-14.75-3.57-1.38-4.88,2.9-6.86,8.96-9.09,10.23-3.77,21.21-4.89,32.1-3.41,6.98.94,12.5,5.77,10.56,10.34Z"/>
    <path class="cls-1" d="M657.68,730.91c-5.95,6.28-15.77,17.8-20.76,15.57-3.7-1.64-4.59-5.62-2.55-8.87,1.56-2.49,2.71-4.99,3.99-7.59l4.85-9.93c2.04-4.17,4.81-7.75,8.29-11.04,6.23-5.9,15.12-7.72,18.17-2.55,4.17,7.07-5.75,17.82-11.99,24.41Z"/>
    <path class="cls-1" d="M631.95,725.01c-.76,4.47-1.38,8.72-1.88,13.33-.15,1.41-.92,2.95-2.24,3.45-2.69,1.02-5.45.27-6.89-1.89-5.1-7.67-7.18-18.14-6.19-27.16.77-7.1,5.78-12.88,13.26-14.62,5.41-1.26,5.67,16.8,3.94,26.89Z"/>
    <path class="cls-1" d="M637.37,763.47c-3.83,5.09-10.54,8.5-15.54,4.17-2.33-2.02-4.59-4.22-5.78-6.96-1.74-4.01-.43-7.77,2.92-10.4,3.63-2.84,8.24-3.8,12.53-1.43,5.65,3.11,9.69,9.54,5.87,14.62Z"/>
    <path class="cls-1" d="M613.45,750.59c-.93,1.43-2.69,1.98-4.21,1.07l-4.78-2.88-6.92-3.57-10.61-5.34-4.19-2.34c-7.62-4.25-14.52-10.92-9.77-17.39,2.17-2.95,5.45-5.01,9.12-6,11.01-2.95,24.77,9.13,28.53,18.63l3.61,9.12c1.16,2.93.85,6.18-.78,8.7Z"/>
    <path class="cls-1" d="M611.7,768.6c-1.75,1.11-3.98,1.3-6.34,2.03l-21.99,6.76c-6.24,1.92-14.32,1.91-17.09-2.74-1.46-2.46-.54-5.25,1.27-7.24,6.39-6.99,17.5-9.01,27.66-8.76l11.82.29c3.2.08,5.15,1.68,6.14,4.47.72,2.05.56,3.92-1.47,5.19Z"/>
    <path class="cls-1" d="M619.92,779.78c-3.35,3.69-5.37,8-7.52,12.43l-3.73,7.66c-3.91,8.02-11.27,15.6-20.89,14.47-2.52-.29-4.4-1.64-6.11-3.23-3.52-3.26-4.42-7.87-2.02-12.1,5.56-9.8,24.98-17.37,36.32-25.74,1.35-1,3.53-1.41,4.98-.65,2.53,1.33,1.66,4.2-1.03,7.16Z"/>
  </g>
  <g>
    <path class="cls-3" d="M500.38,798.99c-2.01-4.47-6.24-7.17-11.07-8.54-7.44-2.12-16.94-.75-25.35.5-1.69.25-3.32,1.18-5.35.22,10.99-8.88,27.51-31.82,15.71-39.5-7.38-4.79-15.78-1.42-22.06,5-5.19,5.31-9.19,12.55-11.96,19.36-.74.58-1.63-.21-.97-.79.75-8.39,1.25-21.04-1.79-27.26-1.73-3.53-5.6-4.35-9.23-2.8-4.17,1.78-7.46,4.72-9.36,8.68l-1.86,3.87c-1.95,5.62-2.18,11.21-2.37,17.08-6.81-10.31-17.47-17.45-29.77-15.27-5.55.99-10.15,4.08-12.85,8.78-8.3,14.41,10.53,25.62,24.74,31.88,2.4,1.06,6.25,1.39,8.63,4.14-2.69.53-5.28,0-8.15-.12-13.05-.53-25.58,2.85-30.52,14.29-2.66,6.15-.39,12.65,5.95,15.66,2.2,1.04,4.96,1.13,7.52.65l15.84-2.99-7,4.89c-2.63,1.84-4.96,4.16-6.8,6.76h6.75c8.3-6.86,21.78-12.82,30.49-19.25,1.35-1,3.53-1.41,4.98-.65,2.53,1.33,1.66,4.2-1.03,7.16-3.35,3.69-5.37,8-7.52,12.43l-.15.31h8.53c.76-4.93,2.49-9.64,5.42-13.77,1.19-1.67,3.11-3.31,5.29-3.52,1.57-.16,2.81,1.54,3.21,2.66l3.64,9.96c.56,1.54,1.03,3.1,1.39,4.67h3.96c-.13-.95-.28-1.91-.46-2.87,1.02.97,2.06,1.94,3.13,2.87h10.59c-7.16-4.67-14.88-12.25-17.55-18.51-1.21-2.84-1.03-5.9,2.02-7.51,1.2-.63,3.4-.89,4.84-.23l8.95,4.11,9.79,4.03c3.25,1.34,6.26,2.77,9.05,4.76,4.79,3.42,8.53,9.15,7.12,13.35h3.84c.58-8.26-5.51-16.09-13.68-20.56-3.46-1.89-7-3.31-10.97-4.37-.78-.2-1.29-.57-1.6-1.17l15.46-1.15,8.27-.6,4.32-.77c3.67-.65,6.97-2.26,9.23-5.25,2.32-3.05,2.34-7.13.76-10.62ZM418.33,763.7c.77-7.1,5.78-12.88,13.26-14.62,5.41-1.26,5.67,16.8,3.94,26.89-.76,4.47-1.38,8.72-1.88,13.33-.15,1.41-.92,2.95-2.24,3.45-2.69,1.02-5.45.27-6.89-1.89-5.1-7.67-7.18-18.14-6.19-27.16ZM415.28,819.56c-1.75,1.11-3.98,1.3-6.34,2.03l-21.99,6.76c-6.24,1.92-14.32,1.91-17.09-2.74-1.46-2.46-.54-5.25,1.27-7.24,6.39-6.99,17.5-9.01,27.66-8.76l11.82.29c3.2.08,5.15,1.68,6.14,4.47.72,2.05.56,3.92-1.47,5.19ZM417.03,801.55c-.93,1.43-2.69,1.98-4.21,1.07l-4.78-2.88-6.92-3.57-10.61-5.34-4.19-2.34c-7.62-4.25-14.52-10.92-9.77-17.39,2.17-2.95,5.45-5.01,9.12-6,11.01-2.95,24.77,9.13,28.53,18.63l3.61,9.12c1.16,2.93.85,6.18-.78,8.7ZM440.95,814.43c-3.83,5.09-10.54,8.5-15.54,4.17-2.33-2.02-4.59-4.22-5.78-6.96-1.74-4.01-.43-7.77,2.92-10.4,3.63-2.84,8.24-3.8,12.53-1.43,5.65,3.11,9.69,9.54,5.87,14.62ZM440.5,797.44c-3.7-1.64-4.59-5.62-2.55-8.87,1.56-2.49,2.71-4.99,3.99-7.59l4.85-9.93c2.04-4.17,4.81-7.75,8.29-11.04,6.23-5.9,15.12-7.72,18.17-2.55,4.17,7.07-5.75,17.82-11.99,24.41-5.95,6.28-15.77,17.8-20.76,15.57ZM497.19,805.5c-.46,1.08-1.67,2.27-3.39,2.93-4.55,1.74-24.09,2.46-33.48,2.8-7.04.26-13.24,1.72-14.75-3.57-1.38-4.88,2.9-6.86,8.96-9.09,10.23-3.77,21.21-4.89,32.1-3.41,6.98.94,12.5,5.77,10.56,10.34Z"/>
    <path class="cls-5" d="M500.38,798.99c-2.01-4.47-6.24-7.17-11.07-8.54-7.44-2.12-16.94-.75-25.35.5-1.69.25-3.32,1.18-5.35.22,10.99-8.88,27.51-31.82,15.71-39.5-7.38-4.79-15.78-1.42-22.06,5-5.19,5.31-9.19,12.55-11.96,19.36-.74.58-1.63-.21-.97-.79.75-8.39,1.25-21.04-1.79-27.26-1.73-3.53-5.6-4.35-9.23-2.8-4.17,1.78-7.46,4.72-9.36,8.68l-1.86,3.87c-1.95,5.62-2.18,11.21-2.37,17.08-6.81-10.31-17.47-17.45-29.77-15.27-5.55.99-10.15,4.08-12.85,8.78-8.3,14.41,10.53,25.62,24.74,31.88,2.4,1.06,6.25,1.39,8.63,4.14-2.69.53-5.28,0-8.15-.12-13.05-.53-25.58,2.85-30.52,14.29-2.66,6.15-.39,12.65,5.95,15.66,2.2,1.04,4.96,1.13,7.52.65l15.84-2.99-7,4.89c-2.63,1.84-4.96,4.16-6.8,6.76h6.75c8.3-6.86,21.78-12.82,30.49-19.25,1.35-1,3.53-1.41,4.98-.65,2.53,1.33,1.66,4.2-1.03,7.16-3.35,3.69-5.37,8-7.52,12.43l-.15.31h8.53c.76-4.93,2.49-9.64,5.42-13.77,1.19-1.67,3.11-3.31,5.29-3.52,1.57-.16,2.81,1.54,3.21,2.66l3.64,9.96c.56,1.54,1.03,3.1,1.39,4.67h3.96c-.13-.95-.28-1.91-.46-2.87,1.02.97,2.06,1.94,3.13,2.87h10.59c-7.16-4.67-14.88-12.25-17.55-18.51-1.21-2.84-1.03-5.9,2.02-7.51,1.2-.63,3.4-.89,4.84-.23l8.95,4.11,9.79,4.03c3.25,1.34,6.26,2.77,9.05,4.76,4.79,3.42,8.53,9.15,7.12,13.35h3.84c.58-8.26-5.51-16.09-13.68-20.56-3.46-1.89-7-3.31-10.97-4.37-.78-.2-1.29-.57-1.6-1.17l15.46-1.15,8.27-.6,4.32-.77c3.67-.65,6.97-2.26,9.23-5.25,2.32-3.05,2.34-7.13.76-10.62ZM418.33,763.7c.77-7.1,5.78-12.88,13.26-14.62,5.41-1.26,5.67,16.8,3.94,26.89-.76,4.47-1.38,8.72-1.88,13.33-.15,1.41-.92,2.95-2.24,3.45-2.69,1.02-5.45.27-6.89-1.89-5.1-7.67-7.18-18.14-6.19-27.16ZM415.28,819.56c-1.75,1.11-3.98,1.3-6.34,2.03l-21.99,6.76c-6.24,1.92-14.32,1.91-17.09-2.74-1.46-2.46-.54-5.25,1.27-7.24,6.39-6.99,17.5-9.01,27.66-8.76l11.82.29c3.2.08,5.15,1.68,6.14,4.47.72,2.05.56,3.92-1.47,5.19ZM417.03,801.55c-.93,1.43-2.69,1.98-4.21,1.07l-4.78-2.88-6.92-3.57-10.61-5.34-4.19-2.34c-7.62-4.25-14.52-10.92-9.77-17.39,2.17-2.95,5.45-5.01,9.12-6,11.01-2.95,24.77,9.13,28.53,18.63l3.61,9.12c1.16,2.93.85,6.18-.78,8.7ZM440.95,814.43c-3.83,5.09-10.54,8.5-15.54,4.17-2.33-2.02-4.59-4.22-5.78-6.96-1.74-4.01-.43-7.77,2.92-10.4,3.63-2.84,8.24-3.8,12.53-1.43,5.65,3.11,9.69,9.54,5.87,14.62ZM440.5,797.44c-3.7-1.64-4.59-5.62-2.55-8.87,1.56-2.49,2.71-4.99,3.99-7.59l4.85-9.93c2.04-4.17,4.81-7.75,8.29-11.04,6.23-5.9,15.12-7.72,18.17-2.55,4.17,7.07-5.75,17.82-11.99,24.41-5.95,6.28-15.77,17.8-20.76,15.57ZM497.19,805.5c-.46,1.08-1.67,2.27-3.39,2.93-4.55,1.74-24.09,2.46-33.48,2.8-7.04.26-13.24,1.72-14.75-3.57-1.38-4.88,2.9-6.86,8.96-9.09,10.23-3.77,21.21-4.89,32.1-3.41,6.98.94,12.5,5.77,10.56,10.34Z"/>
    <path class="cls-1" d="M415.28,819.56c-1.75,1.11-3.98,1.3-6.34,2.03l-21.99,6.76c-6.24,1.92-14.32,1.91-17.09-2.74-1.46-2.46-.54-5.25,1.27-7.24,6.39-6.99,17.5-9.01,27.66-8.76l11.82.29c3.2.08,5.15,1.68,6.14,4.47.72,2.05.56,3.92-1.47,5.19Z"/>
    <path class="cls-1" d="M497.19,805.5c-.46,1.08-1.67,2.27-3.39,2.93-4.55,1.74-24.09,2.46-33.48,2.8-7.04.26-13.24,1.72-14.75-3.57-1.38-4.88,2.9-6.86,8.96-9.09,10.23-3.77,21.21-4.89,32.1-3.41,6.98.94,12.5,5.77,10.56,10.34Z"/>
    <path class="cls-1" d="M440.95,814.43c-3.83,5.09-10.54,8.5-15.54,4.17-2.33-2.02-4.59-4.22-5.78-6.96-1.74-4.01-.43-7.77,2.92-10.4,3.63-2.84,8.24-3.8,12.53-1.43,5.65,3.11,9.69,9.54,5.87,14.62Z"/>
    <path class="cls-1" d="M417.03,801.55c-.93,1.43-2.69,1.98-4.21,1.07l-4.78-2.88-6.92-3.57-10.61-5.34-4.19-2.34c-7.62-4.25-14.52-10.92-9.77-17.39,2.17-2.95,5.45-5.01,9.12-6,11.01-2.95,24.77,9.13,28.53,18.63l3.61,9.12c1.16,2.93.85,6.18-.78,8.7Z"/>
    <path class="cls-1" d="M435.53,775.97c-.76,4.47-1.38,8.72-1.88,13.33-.15,1.41-.92,2.95-2.24,3.45-2.69,1.02-5.45.27-6.89-1.89-5.1-7.67-7.18-18.14-6.19-27.16.77-7.1,5.78-12.88,13.26-14.62,5.41-1.26,5.67,16.8,3.94,26.89Z"/>
    <path class="cls-1" d="M461.26,781.87c-5.95,6.28-15.77,17.8-20.76,15.57-3.7-1.64-4.59-5.62-2.55-8.87,1.56-2.49,2.71-4.99,3.99-7.59l4.85-9.93c2.04-4.17,4.81-7.75,8.29-11.04,6.23-5.9,15.12-7.72,18.17-2.55,4.17,7.07-5.75,17.82-11.99,24.41Z"/>
  </g>
  <g>
    <path class="cls-3" d="M764,576.68c-2.74-1.48-5.54-2.6-8.68-3.43-.62-.16-1.02-.45-1.27-.92l12.23-.9,6.55-.47.72-.13-2.49-4.31c-6.08.53-13.93.82-18.61.98-5.57.21-10.47,1.35-11.67-2.8-1.09-3.83,2.3-5.39,7.09-7.14,5.21-1.91,10.67-2.95,16.2-3.14l-2.15-3.72c-2.23.24-4.45.57-6.59.88-1.33.2-2.62.93-4.23.17,2.27-1.82,4.83-4.38,7.22-7.29l-1.97-3.41c-1.09,1.23-2.18,2.38-3.15,3.4-4.71,4.93-12.48,13.98-16.43,12.22-2.93-1.28-3.63-4.41-2.02-6.96,1.24-1.96,2.15-3.92,3.16-5.96l3.84-7.8c1.61-3.27,3.8-6.08,6.56-8.67.02-.02.04-.04.06-.05l-1.77-3.08c-.18.16-.36.33-.53.51-4.1,4.17-7.27,9.86-9.46,15.2-.58.46-1.29-.16-.77-.62.6-6.59.99-16.52-1.41-21.4-1.37-2.77-4.43-3.42-7.31-2.2-3.3,1.4-5.9,3.71-7.4,6.81l-1.47,3.04c-1.55,4.42-1.73,8.81-1.88,13.42-5.39-8.1-13.82-13.71-23.56-12-4.39.78-8.03,3.21-10.16,6.9-6.57,11.31,8.33,20.12,19.57,25.03,1.9.83,4.95,1.09,6.83,3.25-2.13.42-4.18,0-6.45-.09-10.32-.42-20.24,2.24-24.15,11.22-2.1,4.83-.31,9.93,4.71,12.3,1.74.81,3.92.88,5.95.51l12.53-2.35-5.53,3.84c-7.08,4.91-11.38,14.19-7.09,21.45,1.12,1.89,2.77,3.33,4.66,4.45,6.62,3.93,14.07.77,19.02-5.47,1.91-2.4,3.24-5.02,4.67-7.75l3.33-6.35c.03,8.57,1.55,21.32,8.2,24.94,3.75,2.05,7.78-.35,9.92-4.51,3.78-7.36,4.51-15.25,2.94-23.71,7.09,6.71,15.38,12.65,25.26,11.22,3.94-.58,6.54-3.26,7.45-6.75,1.88-7.28-3.27-14.45-10.47-18.36ZM737.13,570.02c-3.04,3.99-8.34,6.67-12.3,3.27-1.84-1.59-3.63-3.31-4.57-5.46-1.38-3.15-.34-6.11,2.31-8.17,2.87-2.23,6.52-2.99,9.91-1.12,4.47,2.44,7.67,7.49,4.65,11.48ZM719.23,530.18c.61-5.57,4.57-10.11,10.49-11.48,4.28-.99,4.49,13.19,3.12,21.12-.6,3.51-1.1,6.84-1.49,10.46-.12,1.11-.73,2.32-1.77,2.71-2.13.8-4.32.21-5.46-1.48-4.03-6.02-5.68-14.25-4.89-21.33ZM705.61,555.68l-8.4-4.2-3.31-1.83c-6.03-3.34-11.49-8.58-7.73-13.66,1.71-2.31,4.31-3.93,7.21-4.71,8.72-2.32,19.6,7.17,22.58,14.63l2.86,7.16c.91,2.3.67,4.85-.62,6.83-.74,1.13-2.13,1.56-3.33.84l-3.79-2.26-5.47-2.8ZM694.4,580.95c-4.94,1.5-11.33,1.5-13.53-2.16-1.15-1.93-.42-4.12,1.01-5.68,5.05-5.49,13.85-7.08,21.89-6.88l9.35.23c2.53.06,4.07,1.32,4.86,3.51.57,1.61.44,3.08-1.17,4.07-1.38.88-3.15,1.03-5.01,1.6l-17.4,5.31ZM717.37,592.58l-2.95,6.02c-3.1,6.3-8.92,12.25-16.53,11.36-2-.23-3.49-1.29-4.84-2.54-2.78-2.56-3.5-6.18-1.6-9.5,4.4-7.69,19.77-13.64,28.74-20.21,1.07-.78,2.8-1.11,3.94-.51,2,1.05,1.32,3.3-.81,5.62-2.65,2.9-4.25,6.28-5.95,9.76ZM736.71,611.19c-.91,1.69-2.34,3.06-4.39,3.88-3.83,1.54-6.58-3.73-7.72-8.71-1.88-8.26-1.31-17.38,3.69-24.35.94-1.31,2.46-2.59,4.18-2.76,1.24-.13,2.23,1.21,2.54,2.09l2.88,7.82c2.69,7.29,2.53,15.15-1.18,22.03ZM771.09,594.12c-2.29,2.89-6.3,3.83-9.87,2.61l-2.96-1.01c-6.49-2.22-16.66-10.77-19.53-17.43-.96-2.23-.81-4.63,1.6-5.89.95-.5,2.69-.7,3.83-.19l7.08,3.23,7.75,3.17c2.57,1.05,4.95,2.17,7.16,3.73,4.31,3.06,7.55,8.47,4.94,11.78Z"/>
    <path class="cls-5" d="M764,576.68c-2.74-1.48-5.54-2.6-8.68-3.43-.62-.16-1.02-.45-1.27-.92l12.23-.9,6.55-.47.72-.13-2.49-4.31c-6.08.53-13.93.82-18.61.98-5.57.21-10.47,1.35-11.67-2.8-1.09-3.83,2.3-5.39,7.09-7.14,5.21-1.91,10.67-2.95,16.2-3.14l-2.15-3.72c-2.23.24-4.45.57-6.59.88-1.33.2-2.62.93-4.23.17,2.27-1.82,4.83-4.38,7.22-7.29l-1.97-3.41c-1.09,1.23-2.18,2.38-3.15,3.4-4.71,4.93-12.48,13.98-16.43,12.22-2.93-1.28-3.63-4.41-2.02-6.96,1.24-1.96,2.15-3.92,3.16-5.96l3.84-7.8c1.61-3.27,3.8-6.08,6.56-8.67.02-.02.04-.04.06-.05l-1.77-3.08c-.18.16-.36.33-.53.51-4.1,4.17-7.27,9.86-9.46,15.2-.58.46-1.29-.16-.77-.62.6-6.59.99-16.52-1.41-21.4-1.37-2.77-4.43-3.42-7.31-2.2-3.3,1.4-5.9,3.71-7.4,6.81l-1.47,3.04c-1.55,4.42-1.73,8.81-1.88,13.42-5.39-8.1-13.82-13.71-23.56-12-4.39.78-8.03,3.21-10.16,6.9-6.57,11.31,8.33,20.12,19.57,25.03,1.9.83,4.95,1.09,6.83,3.25-2.13.42-4.18,0-6.45-.09-10.32-.42-20.24,2.24-24.15,11.22-2.1,4.83-.31,9.93,4.71,12.3,1.74.81,3.92.88,5.95.51l12.53-2.35-5.53,3.84c-7.08,4.91-11.38,14.19-7.09,21.45,1.12,1.89,2.77,3.33,4.66,4.45,6.62,3.93,14.07.77,19.02-5.47,1.91-2.4,3.24-5.02,4.67-7.75l3.33-6.35c.03,8.57,1.55,21.32,8.2,24.94,3.75,2.05,7.78-.35,9.92-4.51,3.78-7.36,4.51-15.25,2.94-23.71,7.09,6.71,15.38,12.65,25.26,11.22,3.94-.58,6.54-3.26,7.45-6.75,1.88-7.28-3.27-14.45-10.47-18.36ZM737.13,570.02c-3.04,3.99-8.34,6.67-12.3,3.27-1.84-1.59-3.63-3.31-4.57-5.46-1.38-3.15-.34-6.11,2.31-8.17,2.87-2.23,6.52-2.99,9.91-1.12,4.47,2.44,7.67,7.49,4.65,11.48ZM719.23,530.18c.61-5.57,4.57-10.11,10.49-11.48,4.28-.99,4.49,13.19,3.12,21.12-.6,3.51-1.1,6.84-1.49,10.46-.12,1.11-.73,2.32-1.77,2.71-2.13.8-4.32.21-5.46-1.48-4.03-6.02-5.68-14.25-4.89-21.33ZM705.61,555.68l-8.4-4.2-3.31-1.83c-6.03-3.34-11.49-8.58-7.73-13.66,1.71-2.31,4.31-3.93,7.21-4.71,8.72-2.32,19.6,7.17,22.58,14.63l2.86,7.16c.91,2.3.67,4.85-.62,6.83-.74,1.13-2.13,1.56-3.33.84l-3.79-2.26-5.47-2.8ZM694.4,580.95c-4.94,1.5-11.33,1.5-13.53-2.16-1.15-1.93-.42-4.12,1.01-5.68,5.05-5.49,13.85-7.08,21.89-6.88l9.35.23c2.53.06,4.07,1.32,4.86,3.51.57,1.61.44,3.08-1.17,4.07-1.38.88-3.15,1.03-5.01,1.6l-17.4,5.31ZM717.37,592.58l-2.95,6.02c-3.1,6.3-8.92,12.25-16.53,11.36-2-.23-3.49-1.29-4.84-2.54-2.78-2.56-3.5-6.18-1.6-9.5,4.4-7.69,19.77-13.64,28.74-20.21,1.07-.78,2.8-1.11,3.94-.51,2,1.05,1.32,3.3-.81,5.62-2.65,2.9-4.25,6.28-5.95,9.76ZM736.71,611.19c-.91,1.69-2.34,3.06-4.39,3.88-3.83,1.54-6.58-3.73-7.72-8.71-1.88-8.26-1.31-17.38,3.69-24.35.94-1.31,2.46-2.59,4.18-2.76,1.24-.13,2.23,1.21,2.54,2.09l2.88,7.82c2.69,7.29,2.53,15.15-1.18,22.03ZM771.09,594.12c-2.29,2.89-6.3,3.83-9.87,2.61l-2.96-1.01c-6.49-2.22-16.66-10.77-19.53-17.43-.96-2.23-.81-4.63,1.6-5.89.95-.5,2.69-.7,3.83-.19l7.08,3.23,7.75,3.17c2.57,1.05,4.95,2.17,7.16,3.73,4.31,3.06,7.55,8.47,4.94,11.78Z"/>
    <path class="cls-1" d="M716.81,574.04c-1.38.88-3.15,1.03-5.01,1.6l-17.4,5.31c-4.94,1.5-11.33,1.5-13.53-2.16-1.15-1.93-.42-4.12,1.01-5.68,5.05-5.49,13.85-7.08,21.89-6.88l9.35.23c2.53.06,4.07,1.32,4.86,3.51.57,1.61.44,3.08-1.17,4.07Z"/>
    <path class="cls-1" d="M723.32,582.82c-2.65,2.9-4.25,6.28-5.95,9.76l-2.95,6.02c-3.1,6.3-8.92,12.25-16.53,11.36-2-.23-3.49-1.29-4.84-2.54-2.78-2.56-3.5-6.18-1.6-9.5,4.4-7.69,19.77-13.64,28.74-20.21,1.07-.78,2.8-1.11,3.94-.51,2,1.05,1.32,3.3-.81,5.62Z"/>
    <path class="cls-1" d="M736.71,611.19c-.91,1.69-2.34,3.06-4.39,3.88-3.83,1.54-6.58-3.73-7.72-8.71-1.88-8.26-1.31-17.38,3.69-24.35.94-1.31,2.46-2.59,4.18-2.76,1.24-.13,2.23,1.21,2.54,2.09l2.88,7.82c2.69,7.29,2.53,15.15-1.18,22.03Z"/>
    <path class="cls-1" d="M771.09,594.12c-2.29,2.89-6.3,3.83-9.87,2.61l-2.96-1.01c-6.49-2.22-16.66-10.77-19.53-17.43-.96-2.23-.81-4.63,1.6-5.89.95-.5,2.69-.7,3.83-.19l7.08,3.23,7.75,3.17c2.57,1.05,4.95,2.17,7.16,3.73,4.31,3.06,7.55,8.47,4.94,11.78Z"/>
    <path class="cls-1" d="M737.13,570.02c-3.04,3.99-8.34,6.67-12.3,3.27-1.84-1.59-3.63-3.31-4.57-5.46-1.38-3.15-.34-6.11,2.31-8.17,2.87-2.23,6.52-2.99,9.91-1.12,4.47,2.44,7.67,7.49,4.65,11.48Z"/>
    <path class="cls-1" d="M718.2,559.9c-.74,1.13-2.13,1.56-3.33.84l-3.79-2.26-5.47-2.8-8.4-4.2-3.31-1.83c-6.03-3.34-11.49-8.58-7.73-13.66,1.71-2.31,4.31-3.93,7.21-4.71,8.72-2.32,19.6,7.17,22.58,14.63l2.86,7.16c.91,2.3.67,4.85-.62,6.83Z"/>
    <path class="cls-1" d="M732.84,539.82c-.6,3.51-1.1,6.84-1.49,10.46-.12,1.11-.73,2.32-1.77,2.71-2.13.8-4.32.21-5.46-1.48-4.03-6.02-5.68-14.25-4.89-21.33.61-5.57,4.57-10.11,10.49-11.48,4.28-.99,4.49,13.19,3.12,21.12Z"/>
  </g>
  <g>
    <path class="cls-3" d="M388.02,530.6c-1.59-3.51-4.93-5.63-8.75-6.71-5.89-1.66-13.41-.59-20.06.39-1.34.2-2.63.93-4.24.18,8.7-6.98,21.77-24.99,12.43-31.02-5.84-3.76-12.48-1.12-17.45,3.93-1.27,1.3-2.46,2.74-3.55,4.27,0,.01,0,.02-.02.03-1.8,2.52-3.35,5.29-4.65,8.06-.45.95-.86,1.9-1.25,2.84-.16.12-.33.17-.48.16l-4.48,7.76c-.11.82-.21,1.65-.3,2.5-.12,1.11-.73,2.31-1.77,2.71-.37.14-.73.23-1.1.28l-2.69,4.65c2.15-.71,4.47-.61,6.69.61,4.47,2.44,7.67,7.49,4.65,11.48-3.03,4-8.34,6.68-12.3,3.28-1.84-1.59-3.63-3.32-4.57-5.47-.03-.06-.05-.13-.07-.19l-1.95,3.37c.18,1.2-.17,2.26-1.42,3.04-.15.1-.31.18-.48.26l-5.25,9.09c3.29-1.88,6.48-3.76,9.11-5.68,1.06-.79,2.79-1.11,3.94-.51,2,1.04,1.31,3.29-.82,5.62-2.65,2.9-4.25,6.28-5.95,9.76l-2.95,6.01c-3.09,6.3-8.92,12.25-16.53,11.37-.67-.08-1.28-.25-1.85-.5l-2.3,3.99c6.6,3.87,14.02.72,18.96-5.5,1.91-2.41,3.24-5.03,4.67-7.75l3.33-6.36c.03,8.58,1.55,21.32,8.21,24.95,3.75,2.05,7.78-.35,9.91-4.52,3.78-7.35,4.51-15.24,2.95-23.7,7.09,6.7,15.37,12.65,25.25,11.21,3.94-.57,6.54-3.26,7.45-6.74,1.88-7.28-3.27-14.45-10.47-18.36-2.74-1.49-5.54-2.6-8.68-3.43-.62-.16-1.02-.45-1.27-.92l12.24-.91,6.54-.47,3.42-.6c2.9-.51,5.52-1.78,7.3-4.12,1.84-2.4,1.85-5.6.6-8.34ZM340.64,529.38c-2.92-1.29-3.63-4.41-2.01-6.96,1.23-1.96,2.14-3.92,3.15-5.96l3.84-7.8c1.61-3.28,3.81-6.09,6.56-8.67,4.93-4.63,11.96-6.06,14.38-2,3.3,5.55-4.55,13.99-9.49,19.16-4.71,4.94-12.48,13.98-16.43,12.23ZM340.59,583.89c-.91,1.7-2.34,3.06-4.39,3.89-3.83,1.54-6.59-3.73-7.73-8.72-1.87-8.25-1.3-17.38,3.69-24.34.94-1.31,2.46-2.6,4.19-2.76,1.24-.13,2.22,1.2,2.54,2.08l2.88,7.83c2.68,7.28,2.52,15.15-1.18,22.02ZM362.86,551.31c2.57,1.05,4.96,2.18,7.16,3.74,4.32,3.05,7.55,8.46,4.94,11.78-2.29,2.89-6.3,3.82-9.87,2.6l-2.96-1c-6.48-2.22-16.66-10.77-19.52-17.43-.96-2.23-.82-4.64,1.59-5.9.95-.49,2.69-.7,3.83-.18l7.09,3.23,7.74,3.16ZM385.5,535.71c-.36.85-1.32,1.78-2.68,2.3-3.6,1.37-19.06,1.93-26.49,2.2-5.57.2-10.48,1.35-11.68-2.8-1.09-3.84,2.3-5.39,7.09-7.14,8.1-2.96,16.79-3.84,25.4-2.68,5.53.74,9.9,4.53,8.36,8.12Z"/>
    <path class="cls-5" d="M388.02,530.6c-1.59-3.51-4.93-5.63-8.75-6.71-5.89-1.66-13.41-.59-20.06.39-1.34.2-2.63.93-4.24.18,8.7-6.98,21.77-24.99,12.43-31.02-5.84-3.76-12.48-1.12-17.45,3.93-1.27,1.3-2.46,2.74-3.55,4.27,0,.01,0,.02-.02.03-1.8,2.52-3.35,5.29-4.65,8.06-.45.95-.86,1.9-1.25,2.84-.16.12-.33.17-.48.16l-4.48,7.76c-.11.82-.21,1.65-.3,2.5-.12,1.11-.73,2.31-1.77,2.71-.37.14-.73.23-1.1.28l-2.69,4.65c2.15-.71,4.47-.61,6.69.61,4.47,2.44,7.67,7.49,4.65,11.48-3.03,4-8.34,6.68-12.3,3.28-1.84-1.59-3.63-3.32-4.57-5.47-.03-.06-.05-.13-.07-.19l-1.95,3.37c.18,1.2-.17,2.26-1.42,3.04-.15.1-.31.18-.48.26l-5.25,9.09c3.29-1.88,6.48-3.76,9.11-5.68,1.06-.79,2.79-1.11,3.94-.51,2,1.04,1.31,3.29-.82,5.62-2.65,2.9-4.25,6.28-5.95,9.76l-2.95,6.01c-3.09,6.3-8.92,12.25-16.53,11.37-.67-.08-1.28-.25-1.85-.5l-2.3,3.99c6.6,3.87,14.02.72,18.96-5.5,1.91-2.41,3.24-5.03,4.67-7.75l3.33-6.36c.03,8.58,1.55,21.32,8.21,24.95,3.75,2.05,7.78-.35,9.91-4.52,3.78-7.35,4.51-15.24,2.95-23.7,7.09,6.7,15.37,12.65,25.25,11.21,3.94-.57,6.54-3.26,7.45-6.74,1.88-7.28-3.27-14.45-10.47-18.36-2.74-1.49-5.54-2.6-8.68-3.43-.62-.16-1.02-.45-1.27-.92l12.24-.91,6.54-.47,3.42-.6c2.9-.51,5.52-1.78,7.3-4.12,1.84-2.4,1.85-5.6.6-8.34ZM340.64,529.38c-2.92-1.29-3.63-4.41-2.01-6.96,1.23-1.96,2.14-3.92,3.15-5.96l3.84-7.8c1.61-3.28,3.81-6.09,6.56-8.67,4.93-4.63,11.96-6.06,14.38-2,3.3,5.55-4.55,13.99-9.49,19.16-4.71,4.94-12.48,13.98-16.43,12.23ZM340.59,583.89c-.91,1.7-2.34,3.06-4.39,3.89-3.83,1.54-6.59-3.73-7.73-8.72-1.87-8.25-1.3-17.38,3.69-24.34.94-1.31,2.46-2.6,4.19-2.76,1.24-.13,2.22,1.2,2.54,2.08l2.88,7.83c2.68,7.28,2.52,15.15-1.18,22.02ZM362.86,551.31c2.57,1.05,4.96,2.18,7.16,3.74,4.32,3.05,7.55,8.46,4.94,11.78-2.29,2.89-6.3,3.82-9.87,2.6l-2.96-1c-6.48-2.22-16.66-10.77-19.52-17.43-.96-2.23-.82-4.64,1.59-5.9.95-.49,2.69-.7,3.83-.18l7.09,3.23,7.74,3.16ZM385.5,535.71c-.36.85-1.32,1.78-2.68,2.3-3.6,1.37-19.06,1.93-26.49,2.2-5.57.2-10.48,1.35-11.68-2.8-1.09-3.84,2.3-5.39,7.09-7.14,8.1-2.96,16.79-3.84,25.4-2.68,5.53.74,9.9,4.53,8.36,8.12Z"/>
    <path class="cls-1" d="M374.96,566.83c-2.29,2.89-6.3,3.82-9.87,2.6l-2.96-1c-6.48-2.22-16.66-10.77-19.52-17.43-.96-2.23-.82-4.64,1.59-5.9.95-.49,2.69-.7,3.83-.18l7.09,3.23,7.74,3.16c2.57,1.05,4.96,2.18,7.16,3.74,4.32,3.05,7.55,8.46,4.94,11.78Z"/>
    <path class="cls-1" d="M385.5,535.71c-.36.85-1.32,1.78-2.68,2.3-3.6,1.37-19.06,1.93-26.49,2.2-5.57.2-10.48,1.35-11.68-2.8-1.09-3.84,2.3-5.39,7.09-7.14,8.1-2.96,16.79-3.84,25.4-2.68,5.53.74,9.9,4.53,8.36,8.12Z"/>
    <path class="cls-1" d="M357.07,517.15c-4.71,4.94-12.48,13.98-16.43,12.23-2.92-1.29-3.63-4.41-2.01-6.96,1.23-1.96,2.14-3.92,3.15-5.96l3.84-7.8c1.61-3.28,3.81-6.09,6.56-8.67,4.93-4.63,11.96-6.06,14.38-2,3.3,5.55-4.55,13.99-9.49,19.16Z"/>
    <path class="cls-1" d="M340.59,583.89c-.91,1.7-2.34,3.06-4.39,3.89-3.83,1.54-6.59-3.73-7.73-8.72-1.87-8.25-1.3-17.38,3.69-24.34.94-1.31,2.46-2.6,4.19-2.76,1.24-.13,2.22,1.2,2.54,2.08l2.88,7.83c2.68,7.28,2.52,15.15-1.18,22.02Z"/>
  </g>
  <g>
    <path class="cls-3" d="M592.85,273.01c-1.59-3.51-4.94-5.63-8.76-6.71-5.89-1.66-13.41-.58-20.06.4-1.34.19-2.63.92-4.23.17,5.62-4.51,13.08-13.64,15.11-21.16-.92-.54-1.85-1.04-2.79-1.52-.58,5.13-6.32,11.28-10.23,15.38-4.71,4.93-12.48,13.97-16.43,12.22-2.92-1.28-3.63-4.41-2.01-6.96,1.23-1.96,2.14-3.92,3.15-5.96l3.84-7.8c1.62-3.27,3.81-6.08,6.56-8.67,1.19-1.12,2.5-2.05,3.84-2.76-1.51-.47-3.05-.89-4.59-1.24-.51.43-1,.9-1.48,1.38-4.11,4.17-7.27,9.85-9.46,15.2-.59.46-1.29-.16-.77-.62.47-5.2.81-12.48-.24-17.71-1.01-.06-2.02-.1-3.03-.11,1.41,4.36,1.21,12.88.26,18.39-.6,3.51-1.09,6.85-1.49,10.47-.11,1.11-.72,2.32-1.77,2.71-2.13.8-4.31.21-5.45-1.48-4.04-6.03-5.68-14.25-4.9-21.33.36-3.3,1.89-6.23,4.31-8.35-1.26.13-2.52.3-3.77.51-.01.04-.03.07-.05.11l-1.47,3.04c-1.54,4.41-1.72,8.8-1.87,13.41-3.52-5.3-8.36-9.53-14.01-11.34-2.24.99-4.43,2.11-6.56,3.37,8.2-.26,17.45,8.2,20.15,14.98l2.86,7.16c.92,2.3.67,4.85-.62,6.83-.73,1.12-2.12,1.56-3.33.84l-3.78-2.26-5.48-2.8-8.39-4.2-3.32-1.83c-4.94-2.74-9.49-6.75-8.92-10.9-1.21,1.06-2.39,2.17-3.53,3.34,2.13,7.34,12.45,13.11,20.78,16.75,1.9.83,4.94,1.09,6.83,3.25-2.13.42-4.18,0-6.45-.09-10.33-.42-20.24,2.24-24.15,11.22-2.11,4.83-.31,9.93,4.71,12.29,1.74.82,3.92.89,5.95.52l12.53-2.35-5.54,3.84c-7.07,4.9-11.37,14.19-7.08,21.45,1.11,1.88,2.77,3.33,4.66,4.45,6.62,3.93,14.06.77,19.01-5.47,1.91-2.4,3.24-5.03,4.67-7.75l3.33-6.35c.04,8.57,1.56,21.32,8.21,24.94,3.75,2.05,7.78-.35,9.91-4.51,3.79-7.36,4.51-15.25,2.95-23.71,7.09,6.71,15.37,12.65,25.26,11.21,3.94-.57,6.53-3.25,7.44-6.74,1.88-7.28-3.27-14.45-10.47-18.36-2.73-1.48-5.54-2.6-8.68-3.43-.61-.16-1.02-.45-1.26-.92l12.23-.9,6.54-.47,3.42-.61c2.91-.51,5.52-1.77,7.31-4.12,1.83-2.4,1.85-5.6.6-8.34ZM531.26,274.78c2.87-2.23,6.52-2.99,9.92-1.13,4.47,2.45,7.66,7.5,4.64,11.48-3.03,4-8.34,6.68-12.3,3.28-1.84-1.59-3.63-3.31-4.57-5.47-1.38-3.15-.34-6.1,2.31-8.16ZM503.09,296.06c-4.94,1.51-11.33,1.5-13.52-2.15-1.16-1.93-.43-4.12,1-5.68,5.06-5.49,13.85-7.08,21.89-6.88l9.35.23c2.54.06,4.08,1.32,4.86,3.51.57,1.61.45,3.08-1.16,4.07-1.39.87-3.15,1.02-5.02,1.6l-17.4,5.3ZM526.06,307.7l-2.95,6.02c-3.09,6.29-8.92,12.25-16.53,11.36-1.99-.23-3.48-1.29-4.83-2.54-2.79-2.56-3.5-6.18-1.6-9.5,4.4-7.69,19.76-13.64,28.74-20.21,1.07-.79,2.79-1.11,3.94-.51,2,1.04,1.31,3.3-.82,5.62-2.65,2.9-4.25,6.28-5.95,9.76ZM545.41,326.3c-.91,1.7-2.34,3.07-4.39,3.89-3.83,1.54-6.59-3.73-7.72-8.72-1.88-8.25-1.31-17.37,3.68-24.34.94-1.31,2.46-2.6,4.19-2.76,1.24-.13,2.22,1.21,2.54,2.09l2.88,7.82c2.68,7.29,2.52,15.15-1.18,22.02ZM567.68,293.72c2.58,1.06,4.96,2.18,7.17,3.74,4.31,3.06,7.54,8.47,4.93,11.78-2.28,2.89-6.3,3.83-9.86,2.61l-2.96-1.01c-6.49-2.22-16.67-10.77-19.53-17.43-.96-2.23-.82-4.63,1.6-5.9.95-.49,2.69-.7,3.83-.18l7.08,3.23,7.74,3.16ZM590.32,278.12c-.36.85-1.32,1.78-2.68,2.3-3.6,1.37-19.06,1.93-26.49,2.2-5.57.21-10.48,1.35-11.67-2.8-1.1-3.83,2.29-5.39,7.09-7.14,8.09-2.96,16.78-3.84,25.4-2.68,5.52.74,9.89,4.53,8.35,8.12Z"/>
    <path class="cls-5" d="M592.85,273.01c-1.59-3.51-4.94-5.63-8.76-6.71-5.89-1.66-13.41-.58-20.06.4-1.34.19-2.63.92-4.23.17,5.62-4.51,13.08-13.64,15.11-21.16-.92-.54-1.85-1.04-2.79-1.52-.58,5.13-6.32,11.28-10.23,15.38-4.71,4.93-12.48,13.97-16.43,12.22-2.92-1.28-3.63-4.41-2.01-6.96,1.23-1.96,2.14-3.92,3.15-5.96l3.84-7.8c1.62-3.27,3.81-6.08,6.56-8.67,1.19-1.12,2.5-2.05,3.84-2.76-1.51-.47-3.05-.89-4.59-1.24-.51.43-1,.9-1.48,1.38-4.11,4.17-7.27,9.85-9.46,15.2-.59.46-1.29-.16-.77-.62.47-5.2.81-12.48-.24-17.71-1.01-.06-2.02-.1-3.03-.11,1.41,4.36,1.21,12.88.26,18.39-.6,3.51-1.09,6.85-1.49,10.47-.11,1.11-.72,2.32-1.77,2.71-2.13.8-4.31.21-5.45-1.48-4.04-6.03-5.68-14.25-4.9-21.33.36-3.3,1.89-6.23,4.31-8.35-1.26.13-2.52.3-3.77.51-.01.04-.03.07-.05.11l-1.47,3.04c-1.54,4.41-1.72,8.8-1.87,13.41-3.52-5.3-8.36-9.53-14.01-11.34-2.24.99-4.43,2.11-6.56,3.37,8.2-.26,17.45,8.2,20.15,14.98l2.86,7.16c.92,2.3.67,4.85-.62,6.83-.73,1.12-2.12,1.56-3.33.84l-3.78-2.26-5.48-2.8-8.39-4.2-3.32-1.83c-4.94-2.74-9.49-6.75-8.92-10.9-1.21,1.06-2.39,2.17-3.53,3.34,2.13,7.34,12.45,13.11,20.78,16.75,1.9.83,4.94,1.09,6.83,3.25-2.13.42-4.18,0-6.45-.09-10.33-.42-20.24,2.24-24.15,11.22-2.11,4.83-.31,9.93,4.71,12.29,1.74.82,3.92.89,5.95.52l12.53-2.35-5.54,3.84c-7.07,4.9-11.37,14.19-7.08,21.45,1.11,1.88,2.77,3.33,4.66,4.45,6.62,3.93,14.06.77,19.01-5.47,1.91-2.4,3.24-5.03,4.67-7.75l3.33-6.35c.04,8.57,1.56,21.32,8.21,24.94,3.75,2.05,7.78-.35,9.91-4.51,3.79-7.36,4.51-15.25,2.95-23.71,7.09,6.71,15.37,12.65,25.26,11.21,3.94-.57,6.53-3.25,7.44-6.74,1.88-7.28-3.27-14.45-10.47-18.36-2.73-1.48-5.54-2.6-8.68-3.43-.61-.16-1.02-.45-1.26-.92l12.23-.9,6.54-.47,3.42-.61c2.91-.51,5.52-1.77,7.31-4.12,1.83-2.4,1.85-5.6.6-8.34ZM531.26,274.78c2.87-2.23,6.52-2.99,9.92-1.13,4.47,2.45,7.66,7.5,4.64,11.48-3.03,4-8.34,6.68-12.3,3.28-1.84-1.59-3.63-3.31-4.57-5.47-1.38-3.15-.34-6.1,2.31-8.16ZM503.09,296.06c-4.94,1.51-11.33,1.5-13.52-2.15-1.16-1.93-.43-4.12,1-5.68,5.06-5.49,13.85-7.08,21.89-6.88l9.35.23c2.54.06,4.08,1.32,4.86,3.51.57,1.61.45,3.08-1.16,4.07-1.39.87-3.15,1.02-5.02,1.6l-17.4,5.3ZM526.06,307.7l-2.95,6.02c-3.09,6.29-8.92,12.25-16.53,11.36-1.99-.23-3.48-1.29-4.83-2.54-2.79-2.56-3.5-6.18-1.6-9.5,4.4-7.69,19.76-13.64,28.74-20.21,1.07-.79,2.79-1.11,3.94-.51,2,1.04,1.31,3.3-.82,5.62-2.65,2.9-4.25,6.28-5.95,9.76ZM545.41,326.3c-.91,1.7-2.34,3.07-4.39,3.89-3.83,1.54-6.59-3.73-7.72-8.72-1.88-8.25-1.31-17.37,3.68-24.34.94-1.31,2.46-2.6,4.19-2.76,1.24-.13,2.22,1.21,2.54,2.09l2.88,7.82c2.68,7.29,2.52,15.15-1.18,22.02ZM567.68,293.72c2.58,1.06,4.96,2.18,7.17,3.74,4.31,3.06,7.54,8.47,4.93,11.78-2.28,2.89-6.3,3.83-9.86,2.61l-2.96-1.01c-6.49-2.22-16.67-10.77-19.53-17.43-.96-2.23-.82-4.63,1.6-5.9.95-.49,2.69-.7,3.83-.18l7.08,3.23,7.74,3.16ZM590.32,278.12c-.36.85-1.32,1.78-2.68,2.3-3.6,1.37-19.06,1.93-26.49,2.2-5.57.21-10.48,1.35-11.67-2.8-1.1-3.83,2.29-5.39,7.09-7.14,8.09-2.96,16.78-3.84,25.4-2.68,5.52.74,9.89,4.53,8.35,8.12Z"/>
    <path class="cls-1" d="M545.41,326.3c-.91,1.7-2.34,3.07-4.39,3.89-3.83,1.54-6.59-3.73-7.72-8.72-1.88-8.25-1.31-17.37,3.68-24.34.94-1.31,2.46-2.6,4.19-2.76,1.24-.13,2.22,1.21,2.54,2.09l2.88,7.82c2.68,7.29,2.52,15.15-1.18,22.02Z"/>
    <path class="cls-1" d="M532.01,297.94c-2.65,2.9-4.25,6.28-5.95,9.76l-2.95,6.02c-3.09,6.29-8.92,12.25-16.53,11.36-1.99-.23-3.48-1.29-4.83-2.54-2.79-2.56-3.5-6.18-1.6-9.5,4.4-7.69,19.76-13.64,28.74-20.21,1.07-.79,2.79-1.11,3.94-.51,2,1.04,1.31,3.3-.82,5.62Z"/>
    <path class="cls-1" d="M525.51,289.16c-1.39.87-3.15,1.02-5.02,1.6l-17.4,5.3c-4.94,1.51-11.33,1.5-13.52-2.15-1.16-1.93-.43-4.12,1-5.68,5.06-5.49,13.85-7.08,21.89-6.88l9.35.23c2.54.06,4.08,1.32,4.86,3.51.57,1.61.45,3.08-1.16,4.07Z"/>
    <path class="cls-1" d="M545.82,285.13c-3.03,4-8.34,6.68-12.3,3.28-1.84-1.59-3.63-3.31-4.57-5.47-1.38-3.15-.34-6.1,2.31-8.16,2.87-2.23,6.52-2.99,9.92-1.13,4.47,2.45,7.66,7.5,4.64,11.48Z"/>
    <path class="cls-1" d="M579.78,309.24c-2.28,2.89-6.3,3.83-9.86,2.61l-2.96-1.01c-6.49-2.22-16.67-10.77-19.53-17.43-.96-2.23-.82-4.63,1.6-5.9.95-.49,2.69-.7,3.83-.18l7.08,3.23,7.74,3.16c2.58,1.06,4.96,2.18,7.17,3.74,4.31,3.06,7.54,8.47,4.93,11.78Z"/>
    <path class="cls-1" d="M590.32,278.12c-.36.85-1.32,1.78-2.68,2.3-3.6,1.37-19.06,1.93-26.49,2.2-5.57.21-10.48,1.35-11.67-2.8-1.1-3.83,2.29-5.39,7.09-7.14,8.09-2.96,16.78-3.84,25.4-2.68,5.52.74,9.89,4.53,8.35,8.12Z"/>
  </g>
</svg>