<?xml version="1.0" encoding="UTF-8"?>
<svg id="Capa_1" data-name="Capa 1" xmlns="http://www.w3.org/2000/svg" width="1080" height="1080" viewBox="0 0 1080 1080">
  <defs>
    <style>
      .cls-1 {
        fill: none;
        stroke: #8a8aff;
        stroke-miterlimit: 10;
        stroke-width: 85px;
      }

      .cls-2 {
        font-family: CooperBlackStd, 'Cooper Std';
        font-size: 78px;
      }
    </style>
  </defs>
  <circle class="cls-1" cx="540" cy="521.53" r="346.68"/>
  <text class="cls-2" transform="translate(219.78 522.48) rotate(-88.01)"><tspan x="0" y="0"> </tspan></text>
  <text class="cls-2" transform="translate(224.61 459.54) rotate(-73.64)"><tspan x="0" y="0">C</tspan></text>
  <text class="cls-2" transform="translate(239.05 407.34) rotate(-63.13)"><tspan x="0" y="0">A</tspan></text>
  <text class="cls-2" transform="translate(267.7 351.21) rotate(-53.09)"><tspan x="0" y="0">F</tspan></text>
  <text class="cls-2" transform="translate(297.35 311.02) rotate(-44.01)"><tspan x="0" y="0">É</tspan></text>
  <text class="cls-2" transform="translate(336.28 274.45) rotate(-37.35)"><tspan x="0" y="0"> </tspan></text>
  <text class="cls-2" transform="translate(387.7 238.1) rotate(-22.41)"><tspan x="0" y="0">D</tspan></text>
  <text class="cls-2" transform="translate(444.04 214.85) rotate(-12.26)"><tspan x="0" y="0">E</tspan></text>
  <text class="cls-2" transform="translate(495.25 203.59) rotate(-3.32)"><tspan x="0" y="0">L</tspan></text>
  <text class="cls-2" transform="translate(544.06 201.33) rotate(2.87)"><tspan x="0" y="0"> </tspan></text>
  <text class="cls-2" transform="translate(607 207.29) rotate(17.02)"><tspan x="0" y="0">P</tspan></text>
  <text class="cls-2" transform="translate(656.43 221.67) rotate(26.95)"><tspan x="0" y="0">R</tspan></text>
  <text class="cls-2" transform="translate(709 247.65) rotate(37.77)"><tspan x="0" y="0">A</tspan></text>
  <text class="cls-2" transform="translate(758.81 285.75) rotate(48.7)"><tspan x="0" y="0">D</tspan></text>
  <text class="cls-2" transform="translate(799.23 331.2) rotate(59.35)"><tspan x="0" y="0">O</tspan></text>
  <text class="cls-2" transform="translate(829.07 383.55) rotate(66.65)"><tspan x="0" y="0"> </tspan></text>
  <text class="cls-2" transform="translate(851.57 442.52) rotate(81.11)"><tspan x="0" y="0">C</tspan></text>
  <text class="cls-2" transform="translate(860.56 496.07) rotate(91.13)"><tspan x="0" y="0">O</tspan></text>
  <text class="cls-2" transform="translate(860.1 554.87) rotate(101.96)"><tspan x="0" y="0">N</tspan></text>
  <text class="cls-2" transform="translate(845.59 617.57) rotate(109.65)"><tspan x="0" y="0"> </tspan></text>
  <text class="cls-2" transform="translate(821.48 676.14) rotate(123.56)"><tspan x="0" y="0">S</tspan></text>
  <text class="cls-2" transform="translate(795.65 716.96) rotate(133.45)"><tspan x="0" y="0">A</tspan></text>
  <text class="cls-2" transform="translate(752.38 762.68) rotate(143.83)"><tspan x="0" y="0">B</tspan></text>
  <text class="cls-2" transform="translate(709.09 795.13) rotate(153.93)"><tspan x="0" y="0">O</tspan></text>
  <text class="cls-2" transform="translate(656.38 821.42) rotate(164.5)"><tspan x="0" y="0">R</tspan></text>
  <text class="cls-2" transform="translate(598.19 836.49) rotate(171.81)"><tspan x="0" y="0"> </tspan></text>
  <text class="cls-2" transform="translate(535.54 843.17) rotate(-173.42)"><tspan x="0" y="0">D</tspan></text>
  <text class="cls-2" transform="translate(474.95 836.2) rotate(-163.29)"><tspan x="0" y="0">E</tspan></text>
  <text class="cls-2" transform="translate(424.04 820.13) rotate(-156.55)"><tspan x="0" y="0"> </tspan></text>
  <text class="cls-2" transform="translate(367.26 792.55) rotate(-142.18)"><tspan x="0" y="0">C</tspan></text>
  <text class="cls-2" transform="translate(323.95 759.98) rotate(-131.8)"><tspan x="0" y="0">A</tspan></text>
  <text class="cls-2" transform="translate(282.05 712.76) rotate(-121.89)"><tspan x="0" y="0">S</tspan></text>
  <text class="cls-2" transform="translate(255.66 672.34) rotate(-111.92)"><tspan x="0" y="0">A</tspan></text>
  <text class="cls-2" transform="translate(232.86 612.47) rotate(-104.25)"><tspan x="0" y="0"> </tspan></text>
  <text class="cls-2" transform="translate(220.98 549.22) rotate(-92.82)"><tspan x="0" y="0">-</tspan></text>
</svg>