<?xml version="1.0" encoding="UTF-8"?>
<svg id="Capa_1" data-name="Capa 1" xmlns="http://www.w3.org/2000/svg" viewBox="0 0 565.37 331.01">
  <defs>
    <style>
      .cls-1 {
        fill: #d48953;
      }

      .cls-2 {
        fill: #995339;
      }

      .cls-3 {
        fill: #fefdfe;
      }

      .cls-4 {
        fill: #4c8c53;
      }

      .cls-5 {
        fill: #fbeaba;
      }
    </style>
  </defs>
  <path class="cls-2" d="M565.19,161.38c-1.9-32-14.14-61.74-34.34-86.46l-11.56-11.39-5.91-6.21c-17.54-15.36-37.98-25.71-59.92-33.98-21.9-8.25-44.33-12.31-66.86-16.7-3.45-.67-6.33-.77-10-1.09-23.77-2.11-46.87-4.02-70.91-4.6-25.64-.61-50.62-1.76-76.1-.07l-17.8,1.19c-31.01,2.07-61.06,7.14-90.46,17.47C74.36,36.05,35.08,67.86,14.02,113.3c-22.74,49.09-19.22,98.56,20.99,136.56,18.56,17.54,39.62,31.33,62.83,41.95l22,10.06c44.35,18.28,90.92,27.25,138.7,29.14l31.43-.03c58.51-2.21,118.05-15.02,171.74-39.12,53.25-23.91,107.25-67.1,103.48-130.48ZM537.06,231.46c-16.44,19.82-36.94,35.81-60.34,47.68-87.76,44.53-189.1,58.05-286.36,39.01-32.65-6.39-62.53-16.88-91.64-30.98-14.8-7.17-27.93-15.46-41.19-24.91-10.42-7.44-19.33-15.58-28.01-25.04C7.6,213.33.13,181.16,7.14,149.25c6.27-28.52,19.96-54.49,39.66-76.27,19.34-21.37,43.54-36.2,70.47-46.54C174.83,4.34,239.85,3.5,301.25,5.48c63.35,2.04,135.39,5.69,189.83,40.22,37.93,24.06,63.53,63.48,68.86,108.05,3.42,28.63-4.49,55.55-22.88,77.71Z"/>
  <path class="cls-5" d="M559.94,153.75c-5.33-44.57-30.93-83.99-68.86-108.05C436.64,11.17,364.6,7.52,301.25,5.48c-61.4-1.98-126.42-1.14-183.98,20.96-26.93,10.34-51.13,25.17-70.47,46.54C27.1,94.76,13.41,120.73,7.14,149.25c-7.01,31.91.46,64.08,22.38,87.97,8.68,9.46,17.59,17.6,28.01,25.04,13.26,9.45,26.39,17.74,41.19,24.91,29.11,14.1,58.99,24.59,91.64,30.98,97.26,19.04,198.6,5.52,286.36-39.01,23.4-11.87,43.9-27.86,60.34-47.68,18.39-22.16,26.3-49.08,22.88-77.71ZM79.44,61.95c1.47-1.71,3.17-2.24,4.72-1.07,2.65,2.01-4.17,11.38-7.56,7.99-1.78-1.78,1.56-5.44,2.84-6.92ZM65.68,81.01c1.13.05,2.48,2.18,1.64,3.54l-5.5,8.95c-1.05,1.7-2.88,1.43-3.82.69-.67-.53-1.19-2.1-.41-3.36l5.4-8.63c.69-1.11,1.97-1.23,2.69-1.19ZM51.82,76.96l4.79-7.01c.61-.9,2.38-.57,2.96-.11,2.28,1.79-.61,7.03-4.52,10.95-1.05,1.05-2.69.08-3.14-.51-.54-.7-.81-2.26-.09-3.32ZM437.97,269.14c-42.18,20.37-95.31,32.32-141.97,34.71l-41.29-.06c-30.67-1.59-59.93-7.2-89.19-16.68-35.4-11.46-77.13-33.34-100.52-62.25-17.96-22.2-23.15-50.33-16.18-78.04,13.68-54.39,55.49-91.18,108.67-107.05,25.72-7.67,51.58-11.14,78.44-12.31l66.64-.08,31.37,1.55c26.07,1.3,51.42,5.14,76.6,12.4,23.16,6.67,44.68,16.4,63.2,31.67l17.02,16.96c15.91,19.38,25.68,42.59,28.12,67.43,5.27,53.71-35.96,90.05-80.91,111.75ZM514.01,214.46c.66-4.73,4.73-11,7.57-8.68.77.62,1.11,1.87.37,3.36l-2.79,5.71c-.74,1.51-1.78,1.58-2.39,1.75-1.24.35-3.01-.33-2.76-2.14ZM526.74,228.1l-4.38,6.49c-.61.91-2.53,1.07-3.29.72-.84-.39-1.92-2.22-1.12-3.39l4.76-6.9c.72-1.05,2.94-.7,3.57-.15.61.54,1.27,2.02.46,3.23ZM533.24,205.06c-.66-.77-1.49-1.85-.83-3.38l3.35-7.76c.68-1.59,1.82-2.09,2.87-1.98,4.72.5-2.12,16.89-5.39,13.12Z"/>
  <path class="cls-2" d="M518.88,157.39c-2.44-24.84-12.21-48.05-28.12-67.43l-17.02-16.96c-18.52-15.27-40.04-25-63.2-31.67-25.18-7.26-50.53-11.1-76.6-12.4l-31.37-1.55-66.64.08c-26.86,1.17-52.72,4.64-78.44,12.31-53.18,15.87-94.99,52.66-108.67,107.05-6.97,27.71-1.78,55.84,16.18,78.04,23.39,28.91,65.12,50.79,100.52,62.25,29.26,9.48,58.52,15.09,89.19,16.68l41.29.06c46.66-2.39,99.79-14.34,141.97-34.71,44.95-21.7,86.18-58.04,80.91-111.75ZM498.68,214.86l-10.75,13.33c-33.7,33.88-86.75,53.23-133.33,62.98-56.96,11.92-113.66,10.73-170.01-3.87-32.59-8.44-62.8-22.47-90.01-41.94-8.86-6.33-16.35-12.75-23.39-20.82-35.7-40.93-19.12-96.89,14.14-135.08,14.07-16.16,32-27.6,51.55-36.34,41.6-18.58,93.8-21.73,139.41-20.92l26.7.47c28.35.5,56.1,2.46,84.04,7.71,34.91,6.56,69.15,19.63,93.75,45.78,20.82,22.14,33.64,51.57,33.47,82.14-.09,17.37-5.78,32.91-15.57,46.56Z"/>
  <path class="cls-2" d="M61.82,93.5c-1.05,1.7-2.88,1.43-3.82.69-.67-.53-1.19-2.1-.4-3.36l5.39-8.62c.69-1.11,1.97-1.23,2.69-1.2,1.13.05,2.49,2.19,1.65,3.55l-5.5,8.94Z"/>
  <path class="cls-2" d="M538.62,191.94c4.72.5-2.12,16.89-5.39,13.12-.66-.76-1.49-1.84-.83-3.38l3.35-7.76c.69-1.59,1.82-2.09,2.87-1.98Z"/>
  <path class="cls-2" d="M55.04,80.79c-1.05,1.05-2.69.08-3.14-.51-.54-.71-.81-2.27-.09-3.32l4.79-7.01c.61-.9,2.38-.57,2.96-.11,2.28,1.8-.61,7.03-4.52,10.95Z"/>
  <path class="cls-2" d="M522.36,234.6c-.61.9-2.53,1.07-3.29.72-.84-.39-1.93-2.23-1.12-3.39l4.76-6.9c.72-1.05,2.94-.7,3.57-.15s1.27,2.02.46,3.23l-4.38,6.49Z"/>
  <path class="cls-2" d="M519.16,214.85c-.74,1.51-1.78,1.58-2.39,1.75-1.24.35-3.01-.33-2.76-2.13.66-4.73,4.73-11,7.57-8.69.77.62,1.1,1.87.37,3.37l-2.79,5.71Z"/>
  <path class="cls-2" d="M84.15,60.88c2.65,2.01-4.16,11.38-7.56,7.99-1.78-1.78,1.56-5.45,2.84-6.93,1.47-1.71,3.18-2.24,4.72-1.07Z"/>
  <path class="cls-5" d="M480.78,86.16c-24.6-26.15-58.84-39.22-93.75-45.78-27.94-5.25-55.69-7.21-84.04-7.71l-26.7-.47c-45.61-.81-97.81,2.34-139.41,20.92-19.55,8.74-37.48,20.18-51.55,36.34-33.26,38.19-49.84,94.15-14.14,135.08,7.04,8.07,14.53,14.49,23.39,20.82,27.21,19.47,57.42,33.5,90.01,41.94,56.35,14.6,113.05,15.79,170.01,3.87,46.58-9.75,99.63-29.1,133.33-62.98l10.75-13.33c9.79-13.65,15.48-29.19,15.57-46.56.17-30.57-12.65-60-33.47-82.14ZM456.38,92.71c.5-2.29,1.83-3.21,3.43-3.2,2.14.03,3.07,1.61,2.62,3.96-.28,1.45-.72,2.61-1.43,3.26-1,.91-2.82.88-3.74.21-1.3-.94-1.23-2.64-.88-4.23ZM442.61,75.88c.76-.96,3.24-.68,3.94-.13.68.54,1.25,2.22.63,3.58l-3.98,8.61c-.74,1.6-2.62,1.82-3.53,1.65-3.22-.6-.89-8.87,2.94-13.71ZM251.55,44.09c1.49-.82,3.19.37,3.41,1.28.64,2.67-1.25,7.2-2.88,8.37-.93.67-3.43.68-4-1.11-.92-2.86.87-7.13,3.47-8.54ZM235.61,44.75c1.66.6,2.03,2.35,1.1,4.88-.98,2.66-3.29,6.52-6.35,4.56-2.79-1.8,1.29-10.85,5.25-9.44ZM97.22,118.47c.71-.99,3.2-.8,3.96-.25,2.63,1.87-2.02,13.71-6.2,12.89-2.99-.59-1.26-7.73,2.24-12.64ZM85.23,124.33l-3.8,7.8c-.81,1.66-2.53,1.88-3.66,1.51-1.19-.39-2.25-2.28-1.35-4.02l4.74-9.19c.55-1.05,2.29-.51,2.9-.06,1.11.81,1.91,2.44,1.17,3.96ZM215.14,259.31c-2.48,4.79-5.23,7.78-7.8,5.68-2.76-2.23,3.21-12.04,6.92-9.77,1.04.63,1.62,2.66.88,4.09ZM238.72,261.09l-3.52,7.83c-.67,1.47-2.65,1.65-3.45,1.47-4.24-.98.95-15.16,5.48-13.21,1.31.57,2.22,2.28,1.49,3.91ZM326.28,251.52c-1.53,4.37-.62,8.94-3.67,12.64-1.07,1.29-3.63-1.21-5.19-2.81-1.89,2.53-2.69,8.82-6.53,8.89-4.68.09-4.44-8.47-1.39-11.7-2.19.19-6.31,1.56-6.68-.12.2-4.96,4.59-7.8,6.86-11.75-2.13-.39-4.02-.31-4.94-1.19-4.22-4.01,12.79-13.46,24.62-14.1,2.28,12.64,4.22,24.06-3.08,20.14ZM405.5,219.78l-5.8,11.64c-.97,1.94-3.19,2.64-4.7,1.97-1.05-.48-1.76-2.65-.98-4.29l5.47-11.46c.85-1.79,2.12-2.6,4.06-2.06,1.34.38,2.97,2.16,1.95,4.2ZM412.2,235.91c-3.39-1.75,1.83-11.3,3.86-12.26,1.6-.76,4.48-.49,4.42,1.8-.14,5.07-5.88,11.7-8.28,10.46ZM473.97,204.52c-4.11,2.66-7.07,2.89-12.86,4.21.61,2.04,2.71,3.3,2.49,6.34-9.85,1.8-19.66-1.39-28.41-6.8,6.45-10.9,12.95-22.56,15.99-13.14,3.78-3.66,6.04-7.23,11.37-7.97l1.57,5.65c3.17-1.5,7.78-4.48,11.22-2.81,2.62,2.84-1.57,9.22-6.3,9.58l4.93,4.94ZM483.25,136.52l-5.67,12.3c-6.14,13.3-23.08,27.41-37.86,30.28-6.02,1.17-11.62,3.65-17.37,1.17-1.03-.44-3.18.09-4.63-.31-1.71,2.05-4.51,3.06-6.28,5.89-7.32,11.75-17.69,22.16-30.05,28.38-6.37,3.21-12.82,5.02-19.67,6.57-7.46,1.68-15.5.44-23.16.43-2.84,0-4.55-1.85-6.26-2.57-2.85-1.21-6.4-1.08-9.54-2.75l-1.18-3.79c-.11,1.84-.77,3.28-2.06,4.5-5.92,5.6-13.66,9.09-20.83,13.37-.66-.89-.63-1.46-.58-1.5l-1.1.29c.3.86.1,1.93-.47,2.4-1.42,1.19-10.23,5.13-13.38,5.19-1.1.02-1.85.71-2.7,1.29-4.62,3.18-10.7,4.27-16.06,6.03-.31-.22-.65-.34-.9-.33-.57,1.36-1.94,1.35-3.43,1.77-8.56,2.43-16.79,4.02-25.71,5.11-.94-1.85,1.21-3.34,1.48-4.51.58-2.48-1.62-3.62-3.08-3.37-1.94.32-2.83,1.71-2.82,3.66.01,1.22.99,2.24,2.6,4.11-31.28,4.01-63.72-3.78-93.22-14.11-.61,3.05-2.74,5.59-6.14,5.91-1.48-1.49-1.34-3.57-2.28-5.51-2.48,2.29-6.5,7.58-10.57,5.58-2.88-1.42-.2-9.28,3.46-9.82-1.11-2.8-4.54-1.56-4.64-4.17-.03-.84.32-1.45,1.51-1.88l-12.05-9.86c-31.55-29.4-17.79-72.64,12.04-100.4,3.88-3.61,7.34-7.35,11.87-9.13,2.32-2.1,3.95-3.59,6.78-5.46,5.12-3.37,9.31-8.77,15.23-11.29,2.3-.97,3.47.74,4.85,1.19l31.86,10.34c.85-.51,1.69-.88,2.57-1.08l3.82-8.82c-1.96-.31-4.04-.5-5.62-1.86-1.01-.87-.57-2.39.36-2.66.71-.21,1.67-.45,2.14-1.38-5.2-1.47-10.78-1.27-14.11-5.39-.38-1.28,2.49-3.35,4.12-4.18-3.38-2.29-7.17-3.8-9.4-7.83,2.63-4.16,8.2-3.67,12.47-.45l1.16-6.63c5.13,1.82,6.61,5.73,10.96,8.89.06-2.11,1.23-6.42,3.43-5.44,3.98,1.79,5.7,7.4,6.7,11.01,7.19-3.88,15.13-11.28,24.46-10.74l40.43,15.26c-.42-.89-.75-3.04.24-3.41,1.03-.39,2.35-.2,3.28-.22,11.58-15.44,29.25-25.09,48.2-27.86.78-.5,2.09-1.62,3.19-1.12,1.14.51,1.55,1.75,1.68,2.82,13.99,3.7,28.06,8.32,41.6,13.58,3.09-1.45,6.39-1.96,9.75-1.36.22.18.38.4.43.51.89,1.14,1.98-.34.87-.96l-.44-.43c-.74-.69-1.53-4.71-.05-4.87,4.33-.45,8,2.95,12.05,4.89,1.19-1.5.62-3.34.81-5.43.48-5.37,15.7,8.79,19.02,22.72-2.59.21-4.03,1.78-5.36,2.11,25.46,13.1,49.12,29.38,70.66,48.06.99.86,2.49,1.01,2.9,2.57.38,1.48.47,3.01-.31,4.7Z"/>
  <path class="cls-1" d="M233.53,128.3c-12.76-8.32-25.43-15.14-38.8-22.22-2.07-1.1-3.15-2.81-3.49-4.56l-31.86-10.34c.44,2.73-.97,4.63-3.29,6.17-9.02,6-16.79,12.89-24.91,20.01-27.42,24.03-40.65,59.66-15.32,88.64,13.48,15.42,30.1,23.87,50.44,28.49,30.69,6.96,61.77,3.41,91.09-7.71,13.64-5.18,25.93-11.45,38.55-18.6,3.87-2.19,7.62-3.96,12.09-5.49-19.41-30.73-44.68-54.98-74.5-74.39ZM290.95,200.49c-2.62,10.71-23.6,19.1-36.36,22.48-25.45,6.74-51.68,8.44-77.85,5.06-19.54-2.51-42.54-10.48-53.28-26.65-10.01-15.06-7.75-33.84-3.41-50.45.68-2.62.51-5.34,3.29-7.19,6.6-17.45,18.92-33.34,37.68-38.43,20.69-5.62,46.68,12.94,63.7,26.7l34.32,27.74c10.4,8.4,20.13,16.95,28.63,27.29,2.98,3.63,4.44,8.72,3.28,13.45Z"/>
  <path class="cls-3" d="M226.19,115.68l4.99,1.77c-.06.67.27,1.64,1.04,2.11,18.86,11.47,41.47,29.63,55.89,46.08l16.55,18.14c1.67,3.95,5.41,8.5,8.61,11.3,2.21,6.09,6.14,10.14,8.3,17.04-.11,1.84-.77,3.27-2.06,4.5-4.85-.96-4.56-6.41-8.44-8.65-4.92-.08-9.12,2.48-13.07,5.24-15.04,10.49-31.06,17.65-48.82,23.34,2.39,5.2-2.3,11.63-5.04,10.53-1.45-.58-2.69-1.71-2-3.59l2.06-5.59c-42.49,13.16-103.83,8.4-133.44-26.81-14.65-17.42-18.64-39.74-10.8-61.7,6.14-17.2,19.44-30.72,32.56-42.65,2.31-2.1,3.94-3.6,6.77-5.46,5.12-3.37,9.31-8.77,15.24-11.29,2.3-.98,3.47.73,4.85,1.18.44,2.74-.98,4.63-3.29,6.17-9.03,6-16.79,12.9-24.91,20.02-27.41,24.03-40.65,59.65-15.32,88.64,13.48,15.42,30.1,23.87,50.44,28.48,30.69,6.97,61.77,3.42,91.09-7.71,13.64-5.18,25.93-11.45,38.55-18.6,3.87-2.19,7.62-3.96,12.09-5.49-19.41-30.73-44.67-54.98-74.49-74.39-12.77-8.31-25.44-15.13-38.81-22.22-2.07-1.1-3.14-2.81-3.49-4.55.85-.52,1.68-.88,2.57-1.08,1.87.89,3.68,2.01,6.54,2.12,6.2-14.96,34.48-42.26,37.98-33.44.5,1.25.07,3.2-1.34,4.18-12.38,8.61-23.46,18.65-31.34,31.89l20.55,10.49Z"/>
  <path class="cls-3" d="M483.56,131.82c-.41-1.56-1.91-1.71-2.9-2.57l-8.2.45c-7.47,1.77-13.18,6.4-19.04,11-12.98,10.2-25.51,19.61-37.98,31.99,1.17-15.53-5.47-29.37-16.11-41.28-.18-.2-.35-.39-.54-.57-.18-.19-.36-.37-.55-.55-1.13-1.07-2.31-1.98-3.45-2.97-.31-.28-.62-.55-.92-.84-.44-.41-.87-.85-1.28-1.33-.31-.37-.62-.77-.92-1.2-.32-.46-.63-.95-.91-1.49-.05-.01-.11-.02-.16-.03-.22-.03-.43-.08-.65-.14-.25-.06-.5-.14-.74-.22-.23-.08-.45-.17-.67-.27-.06-.02-.13-.05-.19-.08-.18-.09-.35-.17-.52-.27-.24-.12-.47-.26-.7-.41-.18-.11-.35-.23-.52-.35-.31-.22-.61-.45-.91-.7-.18-.15-.36-.3-.54-.45-.93-.8-1.82-1.66-2.76-2.46-.16-.13-.31-.26-.47-.39-.16-.13-.32-.26-.48-.38-26.21-17.18-53.5-27.24-83.74-35.41,10.81-10.1,21.18-18.4,32.83-26.19,1.16-.77.89-3.46.78-4.28-.13-1.07-.54-2.31-1.68-2.82-1.1-.5-2.41.62-3.19,1.12-.31.47-.84,1.48-1.84,2.13-12.42,8.12-23.35,17.54-33.56,28.33-4.73-.27-8.83-1.2-12.8-2.6-.93.02-2.25-.17-3.28.22-.99.37-.66,2.52-.24,3.41,15.46,4.23,30.54,8.88,45.97,14.66,14.61,5.47,28.62,10.34,42.17,18.01,12.83,7.27,25.05,15.12,34.33,26.54,6,7.39,11.05,15.33,11.31,25.53-6.38-2.13-12.33-2.08-17.64,1.22l-30.18,18.73c-12.77,7.93-24.93,15.9-36.68,25.32-1.43,1.14-.55,3.46.78,4.21,1.36.76,2.33.8,4.08-.32l26.61-17.01.66.89c-3.59,6.45-6.73,11.31-2.03,12.15,1.12.2,3.19.43,3.8-.98l2.74-6.35c.64-1.48.44-2.94-.32-3.89-.81-1.01-2.16-1.31-3.41-1.14l-1.13-1.25,38.99-25.44c3.28-2.14,7.94-2.85,10.26-.12,2.56,3,2.8,6.3.74,9.98-4.99,8.92-11.84,16.22-19.58,22.13-.2.4-.67,1.09-1.16,1.21-1.42.36-2.68,1.07-3.72,2.11-.34.35-.86.79-1.3.98l-4.71,2.07c-.28.48-.76.93-1.32.95l-.71.03c-.08.56-.75,1.04-1.33.7-11.65,4.29-23.76,5.42-36.73,4.09-1.04-.1-2.4.28-2.77.89-.3.51-.2,1.62-.15,2.54,1.71.72,3.42,2.57,6.26,2.57,7.66.01,15.7,1.25,23.16-.43,6.85-1.55,13.3-3.36,19.67-6.57,12.36-6.22,22.73-16.63,30.05-28.38,1.77-2.83,4.57-3.84,6.28-5.89,2.03-2.44,4.39-4.51,7.17-6.86l18.35-15.48c-.19,2.25-1.63,3.51-1.49,4.39.22,1.39,1.45,2.24,2.37,2.46,2.7.66,5.47-3.63,4.66-6.03-.42-1.24-1.74-1.65-3.84-2.25l13.92-11.14c5.48-4.39,10.19-9.54,17.69-11.8-1.68,9.34-12.46,25.17-17.23,26.24-.46.26-.86,1.38-1.84,1.12-.72,3.61-13.12,10.31-19.79,12.35l-14.38,4.41c-.21.44-.57.68-.96.75v2.15c5.75,2.48,11.35,0,17.37-1.17,14.78-2.87,31.72-16.98,37.86-30.28l5.67-12.3c.78-1.69.69-3.22.31-4.7ZM408.26,98.91c-7.79-1.45-16.05.56-20.76,6.91-.96,1.28-1.74,4.24-1.92,5.85-.51,4.35,2.8,7.39,6,10.88-.12-.01-.23-.02-.34-.04,0,0,0,.01.01.01,2.35.83,4.02,1.66,5.66,2.22.18.06.36.12.54.18.18.05.36.11.55.16.23.06.46.11.7.16.2.04.4.08.6.11.29.04.58.08.89.1.25.02.5.03.77.03,8.41.07,17.98-4.25,18.89-14.11.59-6.42-6.07-11.43-11.59-12.46ZM414.24,117.49c-6.63,6.78-17.79,6.24-23.05-1.89-1.81-2.8-1.07-6.58,1.39-8.39,1.65-3.16,5.33-4.12,8.78-4.62,7.63-1.11,14.82,2.72,15.29,8.46.19,2.39-.58,4.56-2.41,6.44ZM390.68,122.32s.05.1.08.14c.15.02.3.04.46.05-.17-.06-.35-.13-.54-.19Z"/>
  <path class="cls-3" d="M459.32,159.49c-.6.04-1.74.56-1.85,1.12-1.38-.3-2.74-.88-3.05-1.89-.86-2.84.77-6.93,3.38-7.47,1.27-.27,3.89.64,3.37,2.32l-1.85,5.93Z"/>
  <path class="cls-1" d="M394.78,171.1l-38.99,25.44c.35.41-.06.73-.31.57l-26.61,17.01c-1.75,1.12-2.72,1.08-4.08.32-1.33-.75-2.21-3.07-.78-4.21,11.75-9.42,23.91-17.39,36.68-25.32l30.18-18.73c5.31-3.3,11.26-3.35,17.64-1.22-.26-10.2-5.31-18.14-11.31-25.53-9.28-11.42-21.5-19.27-34.33-26.54-13.55-7.67-27.56-12.54-42.17-18.01-15.43-5.78-30.51-10.43-45.97-14.66l-40.43-15.26c-9.33-.54-17.27,6.86-24.46,10.74l-12.21,15.92-3.82,8.82c1.87.89,3.67,2.01,6.54,2.12,6.2-14.96,34.48-42.26,37.98-33.44.49,1.25.07,3.2-1.34,4.18-12.38,8.61-23.46,18.65-31.34,31.89l20.55,10.49c-.17-2.09-1.91-3.15-3.64-4.45-5.5-4.14-7.58-11.11-3.71-17.42,6.29-10.26,17.87-17.79,30.41-18.06,6.56-.14,12.96,2.41,18.98,4.86,19.71,8.04,38.63,16.27,58.87,23.01,8.55,2.85,16.73,5.34,24.79,9.36,14.31,7.14,45.79,26.64,47.22,39.65.9,8.28-22.88,4.27-41,21.82l-20.7,20.06c-6.74,6.53-17.12,6.75-24.15.57,2.21,6.09,6.14,10.14,8.31,17.04l1.18,3.79c3.14,1.67,6.69,1.54,9.54,2.75-.05-.92-.15-2.03.15-2.54.37-.61,1.73-.99,2.77-.89,12.97,1.33,25.08.2,36.73-4.09l1.33-.7.71-.03,1.32-.95,4.71-2.07,1.3-.98c1.04-1.04,2.3-1.75,3.72-2.11l1.16-1.21c7.74-5.91,14.59-13.21,19.58-22.13,2.06-3.68,1.82-6.98-.74-9.98-2.32-2.73-6.98-2.02-10.26.12ZM360.65,202.82l-2.74,6.35c-.61,1.41-2.68,1.18-3.8.98-4.7-.84-1.56-5.7,2.03-12.15l.78-.21c1.25-.17,2.6.13,3.41,1.14.76.95.96,2.41.32,3.89ZM379.41,194.59c-.47,2.7-1.63,6.4-4.25,8.35-2.37,1.76-5.06-1.37-4.38-3.42l2.12-6.42c.7-2.13,2.15-2.77,3.87-2.62,1.84.17,3.07,1.67,2.64,4.11ZM396.12,185.3l-2.85,6.67c-.9,2.09-2.13,2.57-3.46,2.49-4.02-.24-2.93-5.84.55-11.91.98-1.7,2.8-2.06,4.01-1.56,1.63.69,2.53,2.48,1.75,4.31Z"/>
  <path class="cls-1" d="M372.92,64.01c-.15.18-.34.4-.4.66-1.7.14-3.42.26-5.01.85-18.66-9.07-35.07-13.19-51.27,2.03-2.95,2.77-7.61,6.66-5.15,11.32,1.93,3.67,7.77,4.41,11.78,5.1,17.65,3.01,33.86,9.74,49.32,18.96,3.47-5.77-4.27-3.8-5.16-8.02-.37-1.76.52-3.37,1.74-4.58,7.51,1.65,15.9.08,21.02-6.12,1.35-1.63,1.91-4.13.29-4.99,1.33-.1,2.43-.03,4.37-.56-.56,1.78-1.14,2.8-1.08,4.79l6.84.03c-.09.42-.14,1.25.12,1.55.43.48,1.84.88,3.46.33.71-.24-.57-2.04-1.61-2.06,2.42-1.42,5.19-1.46,7.8-2.11,25.46,13.1,49.13,29.38,70.66,48.06l-8.2.46c-7.47,1.77-13.18,6.4-19.04,11-12.99,10.2-25.51,19.61-37.99,31.99,1.17-15.53-5.47-29.37-16.11-41.28-2.87-3.21-6.36-4.67-8.65-9.1,4.56,1.55,6.63,3.14,10.28,3.17,6.91,7.59,12.02,16.32,18.6,24.62,2.41,3.04,8.18,5.69,11.24,3,6.78-5.95,12.34-12.56,20.64-16.37,1.58-.73,2.38-2.32,3.04-3.09,1.65-.26,3.45-.99,5.09-1.68,2.13-.9,5.07-1.5,6.14-3.63,3.37-6.71-10.83-12.32-20.71-17.62-15.56-8.34-24.93-18.05-39.67-25.26-.28,2.09-.72,5.02.38,6.57,1.64,2.3,3.3,3.94,2.54,6.9-7.78-1.45-16.05.57-20.76,6.91-5.29-3-6.74-2.06-11.92-.85,4.13,2.9,6.54,5.14,10,6.7-.5,4.35,2.8,7.39,6,10.88-4.59-.3-6.96-3.83-10.13-6.24-26.21-17.18-53.5-27.24-83.74-35.41,10.81-10.1,21.18-18.4,32.83-26.19,1.16-.78.89-3.46.79-4.28,13.98,3.69,28.06,8.32,41.6,13.58Z"/>
  <path class="cls-1" d="M319.52,216.62c-5.92,5.6-13.66,9.09-20.83,13.37-.66-.89-.63-1.45-.58-1.5,3.31-.89,5.51-6.91,5.08-9.25-.15-.8-1.64-2.35-2.95-1.68-4.08,2.1-7.45,11.11-3.22,11.22.3.86.09,1.93-.47,2.4-1.42,1.19-10.23,5.12-13.38,5.19,1.23-2.92,3.71-6.03,3.1-9.95-.21-1.3-3.08-1.48-4.2-.77-2.17,1.38-6.31,10.86-1.59,12.01-4.62,3.18-10.7,4.28-16.07,6.04l2.01-5.03c.86-2.03.18-4.02-1.14-4.74-2.24-1.22-4.04.39-4.88,2.7-.62,1.72-1.2,3.25-.54,4.8.57,1.33,2.13,2,3.65,1.95-.57,1.36-1.94,1.35-3.42,1.77-8.57,2.43-16.79,4.02-25.71,5.11-.94-1.85,1.2-3.34,1.48-4.51.58-2.48-1.62-3.61-3.08-3.37-1.94.32-2.83,1.71-2.82,3.67,0,1.22.99,2.24,2.6,4.11-31.28,4.01-63.72-3.78-93.22-14.1-3.71-2.88-8.28-4.51-12.95-6.54-1.09-2.7-4.44-2.31-5.72-3.35l-12.05-9.87c-31.55-29.39-17.79-72.63,12.04-100.4,3.88-3.61,7.34-7.35,11.87-9.12-13.12,11.93-26.42,25.44-32.56,42.65-7.84,21.96-3.86,44.28,10.8,61.7,29.62,35.21,90.96,39.97,133.44,26.81l-2.06,5.59c-.69,1.88.55,3.01,2,3.59,2.74,1.1,7.43-5.33,5.04-10.53,17.76-5.69,33.78-12.85,48.82-23.34,3.95-2.76,8.15-5.32,13.07-5.24,3.88,2.24,3.59,7.69,8.44,8.65Z"/>
  <path class="cls-4" d="M396.34,56.36c-.19,2.09.38,3.93-.81,5.43-4.05-1.94-7.72-5.34-12.05-4.89-1.48.16-.69,4.18.05,4.87l-.86.88c-3.36-.6-6.66-.09-9.75,1.36-.15.18-.33.4-.39.66-.31,1.22-.27,2.51.01,3.9,3.25.08,6.29,2.77,9.56,4,.01,1.89-.58,2.95-1.09,4.17.96,2.55,3.8,2.86,6.38,2.68l2.69-.2c1.34-.1,2.43-.03,4.37-.57-.56,1.78-1.14,2.8-1.08,4.79l6.85.03c.51,0,1.53.09,1.97-.17,2.42-1.42,5.19-1.46,7.81-2.11,1.33-.33,2.77-1.9,5.36-2.11-3.32-13.93-18.54-28.09-19.02-22.72ZM383.1,63.16l.87-.96c1.11.62.02,2.1-.87.96Z"/>
  <path class="cls-4" d="M461.11,208.73c.61,2.04,2.7,3.31,2.49,6.34-9.86,1.8-19.67-1.39-28.42-6.8,6.45-10.9,12.95-22.56,16-13.14,3.78-3.66,6.04-7.23,11.37-7.96l1.57,5.65c3.17-1.5,7.78-4.48,11.22-2.82,2.62,2.84-1.57,9.22-6.3,9.58l4.93,4.94c-4.11,2.66-7.07,2.89-12.86,4.21Z"/>
  <path class="cls-4" d="M317.42,261.36c-1.89,2.53-2.69,8.82-6.54,8.89-4.68.09-4.43-8.48-1.38-11.71-2.19.19-6.31,1.56-6.68-.11.2-4.96,4.59-7.8,6.86-11.75-2.13-.39-4.02-.32-4.94-1.19-4.22-4.01,12.79-13.46,24.62-14.1,2.28,12.64,4.22,24.06-3.08,20.14-1.53,4.37-.62,8.94-3.67,12.64-1.07,1.29-3.63-1.21-5.19-2.8Z"/>
  <path class="cls-4" d="M209.83,75.7l-12.21,15.92c-1.96-.31-4.04-.49-5.62-1.86-1.01-.87-.57-2.39.36-2.66.71-.21,1.67-.45,2.14-1.38-5.2-1.46-10.78-1.26-14.12-5.38-.37-1.29,2.5-3.35,4.12-4.18-3.38-2.29-7.17-3.81-9.39-7.83,2.63-4.16,8.2-3.68,12.46-.45l1.17-6.63c5.12,1.82,6.6,5.73,10.96,8.89.06-2.11,1.23-6.42,3.42-5.44,3.98,1.79,5.7,7.4,6.7,11.01Z"/>
  <path class="cls-1" d="M459.32,159.49c-.46.26-.86,1.38-1.85,1.12.11-.56,1.25-1.08,1.85-1.12Z"/>
  <path class="cls-1" d="M459.32,159.49l1.85-5.93c.52-1.68-2.09-2.59-3.37-2.32-2.61.55-4.24,4.63-3.38,7.47.31,1.01,1.67,1.59,3.05,1.89-.72,3.61-13.11,10.31-19.79,12.36l-14.38,4.41c-.32.1-.88.46-.96.75v2.15c-1.02-.44-3.18.08-4.62-.31,2.03-2.43,4.39-4.51,7.17-6.85l18.34-15.48c-.19,2.24-1.62,3.51-1.48,4.39.22,1.38,1.45,2.23,2.37,2.46,2.7.66,5.46-3.63,4.65-6.03-.42-1.24-1.74-1.65-3.84-2.25l13.92-11.15c5.48-4.39,10.19-9.54,17.69-11.79-1.68,9.34-12.47,25.16-17.23,26.24Z"/>
  <path class="cls-1" d="M278.24,76.59c11.58-15.44,29.26-25.09,48.2-27.87-.31.48-.84,1.48-1.84,2.14-12.42,8.12-23.35,17.54-33.56,28.33-4.73-.27-8.82-1.2-12.8-2.6Z"/>
  <path class="cls-4" d="M139.32,236.03c-.61,3.04-2.75,5.59-6.14,5.91-1.48-1.49-1.35-3.57-2.28-5.51-2.48,2.29-6.5,7.57-10.57,5.57-2.89-1.42-.2-9.28,3.45-9.81-1.1-2.8-4.53-1.56-4.63-4.18-.03-.83.32-1.44,1.5-1.87,1.28,1.05,4.63.65,5.72,3.35,4.67,2.03,9.24,3.66,12.95,6.54Z"/>
  <path class="cls-2" d="M399.7,231.42c-.97,1.95-3.19,2.65-4.7,1.97-1.05-.47-1.76-2.64-.98-4.28l5.47-11.47c.85-1.79,2.12-2.6,4.06-2.05,1.34.38,2.97,2.16,1.95,4.2l-5.8,11.64Z"/>
  <path class="cls-2" d="M101.17,118.22c2.63,1.87-2.02,13.72-6.2,12.89-2.99-.59-1.26-7.73,2.24-12.64.71-.99,3.19-.8,3.96-.25Z"/>
  <path class="cls-2" d="M443.2,87.94c-.74,1.61-2.62,1.82-3.53,1.65-3.23-.6-.9-8.87,2.93-13.71.76-.96,3.24-.68,3.94-.13s1.26,2.22.63,3.58l-3.97,8.61Z"/>
  <path class="cls-2" d="M235.19,268.92c-.66,1.48-2.64,1.65-3.44,1.47-4.25-.98.95-15.16,5.47-13.2,1.32.57,2.22,2.28,1.49,3.9l-3.52,7.83Z"/>
  <path class="cls-2" d="M81.42,132.13c-.81,1.65-2.53,1.88-3.66,1.51s-2.24-2.28-1.35-4.02l4.74-9.19c.54-1.05,2.29-.51,2.9-.06,1.11.81,1.91,2.44,1.17,3.97l-3.8,7.8Z"/>
  <path class="cls-2" d="M420.47,225.45c-.14,5.07-5.88,11.7-8.28,10.46-3.39-1.75,1.83-11.31,3.86-12.26,1.6-.76,4.48-.49,4.42,1.8Z"/>
  <path class="cls-2" d="M215.13,259.32c-2.48,4.78-5.23,7.77-7.8,5.68-2.75-2.24,3.21-12.05,6.93-9.78,1.03.63,1.62,2.67.88,4.1Z"/>
  <path class="cls-3" d="M283.16,236.37c-1.1.02-1.85.71-2.7,1.29-4.72-1.15-.59-10.63,1.59-12.01,1.13-.71,4-.53,4.2.77.62,3.92-1.86,7.03-3.1,9.95Z"/>
  <path class="cls-3" d="M298.1,228.49l-1.09.29c-4.23-.11-.86-9.13,3.22-11.22,1.3-.67,2.8.88,2.95,1.68.43,2.34-1.77,8.37-5.08,9.25Z"/>
  <path class="cls-2" d="M254.95,45.37c.64,2.67-1.25,7.2-2.88,8.37-.93.67-3.43.68-4-1.11-.91-2.85.87-7.13,3.47-8.54,1.49-.81,3.19.38,3.41,1.29Z"/>
  <path class="cls-2" d="M236.71,49.63c-.98,2.67-3.29,6.52-6.35,4.56-2.79-1.79,1.29-10.85,5.25-9.43,1.66.6,2.03,2.35,1.1,4.87Z"/>
  <path class="cls-3" d="M264.39,243.7c-.31-.23-.65-.34-.9-.34-1.52.06-3.08-.62-3.65-1.95-.66-1.54-.08-3.07.54-4.8.83-2.3,2.64-3.92,4.88-2.7,1.32.72,2,2.71,1.14,4.74l-2.01,5.03Z"/>
  <path class="cls-2" d="M462.42,93.48c-.28,1.45-.72,2.61-1.43,3.26-1,.91-2.81.88-3.74.21-1.3-.94-1.22-2.64-.88-4.23.5-2.29,1.83-3.22,3.43-3.2,2.14.02,3.07,1.6,2.62,3.96Z"/>
  <path class="cls-2" d="M287.67,187.04c-8.5-10.34-18.23-18.89-28.63-27.29l-34.32-27.74c-17.02-13.76-43.01-32.32-63.7-26.7-18.76,5.09-31.08,20.98-37.68,38.43,6.46-4.29,14.07-7.48,22.3-8.09,1.93,7.58,2.36,14.73,1,21.76-7.8-3.1-2.76,5.05-8.25,12.42-1.87-1.34-2.62-3.38-5.28-3.31-.88,2.53-3.26,9.35-6.65,8.67-3.94-.79-3.25-7.92-2.22-10.88-2.27-.57-4.32-.6-4.89-1.48-.56-.86-.3-3.08.33-3.91l5.03-6.6c-1.29-1.41-2.97-1.32-4.66-1.39-4.34,16.61-6.6,35.39,3.41,50.45,10.74,16.17,33.74,24.14,53.28,26.65,26.17,3.38,52.4,1.68,77.85-5.06,12.76-3.38,33.74-11.77,36.36-22.48,1.16-4.73-.3-9.82-3.28-13.45ZM165.84,126.58c.62-1.38,1.51-3.22,3.61-3.68,1.73-.37,3.51.32,4.08,1.68,1.33,3.18-4.01,8.45-6.42,7.06-1.85-1.07-2.01-3.4-1.27-5.06ZM154.92,116.31c1.8-1.94,3.75-2.75,5.89-.92,3.3,2.83-4.1,12.08-7.49,9.77-2.92-2-.35-6.74,1.6-8.85ZM229.64,202.43c-1.13,1.69-4.01,2.82-5.66,1.36-1.48-1.3-.34-4.31.48-5.61.93-1.49,3.68-2.78,5.69-1.04,1.97,1.71.24,4.18-.51,5.29ZM250.8,176.82c-1.27,7.5-12.7,13.63-24.83,9.37.68,2.46,0,4.66-1.34,6.26-1.37,1.64-3.83,2.57-6.36,2.35l-6.96-.62c2.28,5.11-3.47,11.1-6.48,10.54-1.05-.19-2.12-1.28-2.55-2.48-4.93.57-5.71-4.12-9.51-6.83-5.41,14.58-27.14,18.03-38.63,9.38-8.28-6.23-9.1-17.26-2.18-24.6,3.06-3.23,6.42-5.61,10.85-6.71l-4.31-3.2c-1.94-1.56-2.5-4.53-1.82-6.78.52-1.73,2.11-3.34,4.19-4.96-2.62-3.82-2.17-6.57-.04-9.84,1.58-2.43,4.95-3.12,7.85-3.51.55-4.13,2.42-7.35,4.92-9.81,3.23-3.17,6.81-1.37,9.75-1.29,8.36-1.04,17.53-2.13,24.2,5.32,2.32,2.58,1.75,7.42.74,10.36,3.67-.74,7.97.46,9.89,3.37,2.31,3.5,1.19,7.36-1.12,11.1l5.59.42c7.35-5.04,17.82-5.01,24.81.54,3.57,2.85,4.12,7.05,3.34,11.62Z"/>
  <path class="cls-4" d="M120.04,150.93c.68-2.62.51-5.34,3.29-7.19,6.46-4.29,14.07-7.49,22.3-8.09,1.93,7.57,2.35,14.73,1,21.76-7.8-3.1-2.76,5.05-8.25,12.42-1.87-1.34-2.62-3.38-5.28-3.31-.88,2.52-3.26,9.35-6.65,8.67-3.94-.79-3.24-7.92-2.22-10.89-2.27-.56-4.32-.59-4.89-1.48s-.3-3.08.34-3.91l5.02-6.6c-1.29-1.4-2.96-1.31-4.66-1.39Z"/>
  <path class="cls-2" d="M399.12,152.63c-1.43-13.01-32.91-32.51-47.22-39.65-8.06-4.02-16.24-6.51-24.79-9.36-20.24-6.74-39.16-14.97-58.87-23.01-6.02-2.45-12.42-5-18.98-4.86-12.54.27-24.12,7.8-30.41,18.06-3.87,6.31-1.79,13.28,3.71,17.42,1.73,1.3,3.47,2.36,3.64,4.45l4.98,1.77c18.26,8.06,41.57,22.87,54.62,38.55,7.34,8.83,14.52,17.46,18.87,27.78,1.66,3.95,5.41,8.49,8.6,11.3,7.03,6.18,17.41,5.96,24.15-.57l20.7-20.06c18.12-17.55,41.9-13.54,41-21.82ZM246.32,114.15c-1.01.7-3.65.75-4.26-.57-1.11-2.4.55-6.03,2.48-7.7,1.1-.96,2.93-.64,3.74.06,1.88,1.62.06,6.81-1.96,8.21ZM253.3,87.03c-1.85,2.01-3.99,2.81-5.51,1.46-1.82-1.62-1.62-3.61-.11-5.62,1.04-1.38,2.01-2.71,3.39-3.02,1.6-.36,3.1.57,3.61,1.73.83,1.91.28,3.65-1.38,5.45ZM262.88,116.89c-.49,2.33-2.93,6-5.58,4.21-2.38-1.6-.58-7.37,1.89-8.25,1.31-.47,2.46-.23,3.04.21.81.63,1.12,1.66.65,3.83ZM265.7,91.78c-1.67,1.5-3.6,2.34-5.16.96-1.44-1.27-1.1-3.18-.1-5.18,1.22-2.43,4.37-5.38,7.11-2.75,2.23,2.13-.25,5.53-1.85,6.97ZM333.74,179.42c-.96,2.08-2.02,3.28-3.31,3.74-1.75.62-3.95,0-4.64-2.05-.5-1.46,2.11-7.74,5.8-7.15,2.55.4,3.41,2.71,2.15,5.46ZM344.41,163.75c-6.6,4.96-14.81,5.1-23.23,3.37,2.66,4.1-.46,9.68-3.52,10.55-1.16.34-3.76.05-4.03-1.57-.66-4.04,2.42-7.29,6.35-9.63-7.48-3.31-11.82-9.14-10.45-16.02-2,.56-3.84-2.17-5.36-3.14-4.8.67-9.78.06-11.8-5.15-4.38,1.49-9.41,2.57-13.23.36-2.13-1.23-1.9-5.51-1.96-7.83-3.98-.18-6.62-1.48-8.12-4.46-1.36-2.67.28-5.18,2.09-7.7-1.43-1.67-3.27-3.62-2.33-6.04.62-1.61.86-4.04,3.54-3.78-.07-5.23,3.71-10.91,9.08-12.9,5.22-1.95,11.14-1.64,15.96-.08-.03-.35-.14-1.57.35-1.98,2.42-.6,6.41-1.05,8.67.67,2.57,1.95,2.05,5.9,1.68,9.02,3.73-1.2,6.94-.69,9.19,1.51,2.27,2.23,1.93,5.43,1.23,8.66,3.63-.53,5.28.3,6.77,2.37,1.15,1.61.11,4.5-.88,6.69,2.9,2.33,5.88,5.13,4.78,9.07,10.83.18,20.66,4.53,21.59,14.62.47,5.1-1.93,10.05-6.37,13.39ZM353.15,124.43l-4.47,6.02c-1.06,1.43-3.12,1.17-4.08.29-.97-.88-1.47-2.71-.27-4.22l3.96-5.04c1.16-1.46,2.36-2.36,3.97-1.51,1.39.73,2.22,2.68.89,4.46ZM367.92,132.11c-.87,1.8-1.64,3.61-3.19,5.4-1.19,1.36-3.12,1.1-4.14.23-.74-.63-1.36-2.17-.5-3.53l3.07-4.86c.91-1.45,2.24-1.51,3.16-1.24,1.82.55,2.46,2.2,1.6,4ZM375.74,146.18c-1.16.11-2.33-.55-2.81-1.73-.8-1.96,4.3-9.47,7-8.29,3.95,1.72-2.15,9.84-4.19,10.02Z"/>
  <path class="cls-1" d="M304.66,183.78l-16.55-18.14c-14.42-16.44-37.03-34.61-55.89-46.08-.78-.47-1.11-1.44-1.04-2.11,18.26,8.06,41.57,22.87,54.61,38.55,7.34,8.83,14.52,17.46,18.87,27.78Z"/>
  <path class="cls-5" d="M385.04,204.3l1.16-1.21c-.2.4-.67,1.09-1.16,1.21Z"/>
  <path class="cls-5" d="M380.02,207.39l1.3-.98c-.34.34-.86.78-1.3.98Z"/>
  <path class="cls-5" d="M371.95,211.14l1.33-.71c-.08.56-.75,1.04-1.33.71Z"/>
  <path class="cls-5" d="M422.34,178.12c.08-.29.64-.66.96-.75-.21.44-.57.68-.96.75Z"/>
  <path class="cls-5" d="M373.99,210.41l1.31-.95c-.28.48-.76.93-1.31.95Z"/>
  <path class="cls-3" d="M393.26,191.97c-.9,2.1-2.12,2.58-3.46,2.5-4.02-.24-2.93-5.85.55-11.92.97-1.7,2.8-2.06,4.01-1.55,1.63.69,2.53,2.48,1.75,4.31l-2.85,6.67Z"/>
  <path class="cls-3" d="M375.15,202.94c-2.37,1.76-5.05-1.37-4.38-3.42l2.12-6.42c.7-2.13,2.15-2.78,3.87-2.62,1.84.17,3.06,1.67,2.64,4.11-.47,2.7-1.63,6.4-4.25,8.35Z"/>
  <path class="cls-2" d="M445.02,110.71c-15.56-8.35-24.93-18.06-39.68-25.27-.27,2.09-.71,5.02.38,6.57,1.64,2.3,3.3,3.94,2.54,6.9,5.52,1.03,12.18,6.04,11.59,12.46-.91,9.86-10.48,14.18-18.89,14.11,6.91,7.59,12.03,16.32,18.61,24.62,2.41,3.05,8.17,5.7,11.24,3.01,6.78-5.95,12.34-12.56,20.64-16.38,1.58-.72,2.38-2.31,3.04-3.09-2.62-1.08-1.79-3.48-1.21-4.87,1-2.42,3.67-3.36,5.6-1.78,1.33,1.08.85,3.64.7,4.97,2.13-.9,5.07-1.5,6.15-3.63,3.37-6.71-10.83-12.32-20.71-17.62ZM446.06,129.91c-1.57,2.36-4.5,4.76-6.88,2.52-2.1-1.97.28-5.35,1.75-7.11,1.56-1.87,3.7-2.44,5.28-1.24,1.79,1.36,1.43,3.47-.15,5.83Z"/>
  <path class="cls-2" d="M367.03,94.91c-.37-1.76.52-3.37,1.74-4.58-4.64-1.02-9.49-4.14-10.89-9.21-2.06-7.42,3.23-13.23,9.63-15.6-18.66-9.07-35.07-13.19-51.27,2.03-2.95,2.77-7.6,6.66-5.15,11.32,1.94,3.67,7.77,4.41,11.78,5.1,17.65,3.01,33.86,9.74,49.32,18.96,3.47-5.76-4.27-3.79-5.16-8.02ZM344.4,66.43c-1.38,2.24-4.83,5.9-7.17,3.03-2.18-2.68,1.16-7.79,4.04-8.77,1.83-.63,3.07,0,3.98,1.22.84,1.12.58,2.21-.85,4.52ZM355.37,69.05c-1.57,2.98-3.95,4.21-6.87,3.03-.93-3.58,1.06-7.06,4.72-8.3,2.42.57,3.43,2.84,2.15,5.27Z"/>
  <path class="cls-3" d="M372.52,64.67c-.3,1.23-.27,2.51.01,3.9-4.38-.11-9.07,3.56-10.25,7.96-1.27,4.75,2.39,7.56,5.64,9.27,7.54,3.96,19.32.77,19.46-6.38l2.7-.2c1.61.85,1.05,3.35-.29,4.99-5.12,6.2-13.5,7.78-21.02,6.12-4.64-1.02-9.49-4.13-10.9-9.21-2.05-7.42,3.24-13.23,9.64-15.6,1.6-.59,3.31-.71,5.01-.85Z"/>
  <path class="cls-2" d="M387.49,105.82c-.95,1.28-1.74,4.25-1.92,5.85-3.46-1.56-5.87-3.8-10-6.7,5.18-1.21,6.63-2.15,11.92.85Z"/>
  <path class="cls-3" d="M459.58,131.96c-1.64.69-3.45,1.42-5.09,1.68-2.62-1.08-1.79-3.48-1.21-4.87,1-2.42,3.67-3.36,5.6-1.79,1.33,1.09.86,3.65.71,4.97Z"/>
  <path class="cls-2" d="M402.19,83.3c1.04.02,2.32,1.81,1.61,2.06-1.62.54-3.03.15-3.46-.33-.26-.3-.21-1.13-.12-1.55.52,0,1.53.09,1.97-.17Z"/>
  <path class="cls-1" d="M381.01,76.74c.95,2.55,3.8,2.86,6.37,2.67-.14,7.15-11.92,10.34-19.46,6.38l2.6-5.24c1.24-2.35,1.32-5.16,3.51-5.99,2.7-1.02,5.99-.46,6.98,2.18Z"/>
  <path class="cls-2" d="M372.53,68.57c3.25.08,6.29,2.77,9.56,4,.01,1.89-.57,2.95-1.09,4.17-.99-2.63-4.28-3.2-6.98-2.18-2.19.83-2.27,3.64-3.51,5.99l-2.6,5.24c-3.25-1.71-6.91-4.52-5.64-9.27,1.18-4.4,5.87-8.08,10.25-7.96Z"/>
  <path class="cls-1" d="M183.34,134.09c-5.08,2.79-9.78,7.97-8.75,14.12,1.35,8.09,9.1,11.44,16.64,11.47s14.6-2.75,17.06-9.9c3.67-.75,7.97.46,9.89,3.36,2.31,3.5,1.19,7.36-1.12,11.1l5.59.43c-4.11,2.82-5.98,7.44-5.16,12.16.66,3.76,4.19,7.87,8.48,9.37.68,2.46,0,4.65-1.34,6.26s-3.82,2.57-6.36,2.35l-6.96-.61c-2.43-.21-4.36-.87-6.42,2.13-1.21,1.76-2.81,3.68-2.61,5.93-4.93.58-5.71-4.12-9.51-6.83,3.37-9.09-2.68-18.37-11.91-21.56-5.76-1.99-12.18-1.82-18.04-.37l-4.32-3.2c-1.93-1.56-2.49-4.53-1.81-6.78.52-1.72,2.11-3.34,4.19-4.96-2.62-3.82-2.17-6.57-.04-9.84,1.58-2.43,4.95-3.12,7.85-3.52.56-4.13,2.42-7.35,4.93-9.81,3.23-3.17,6.81-1.37,9.74-1.29Z"/>
  <path class="cls-3" d="M180.86,173.84c-5.76-1.99-12.18-1.82-18.05-.36-4.43,1.1-7.79,3.48-10.85,6.71-6.92,7.34-6.1,18.37,2.18,24.6,11.49,8.65,33.22,5.2,38.63-9.38,3.37-9.09-2.68-18.37-11.91-21.57ZM186.76,194.14c-2.15,7.34-8.71,11.46-16.52,11.72-7.85.25-15.85-4.16-16.91-12.44-.94-7.29,4.86-13.15,11.39-15.1,6.68-1.99,14.4-.78,19.12,4.39,3.08,3.38,4.08,7.44,2.92,11.43Z"/>
  <path class="cls-3" d="M207.55,139.41c-6.67-7.45-15.84-6.36-24.2-5.32-5.08,2.79-9.78,7.97-8.76,14.11,1.35,8.1,9.1,11.45,16.64,11.48,7.64.03,14.6-2.75,17.06-9.91,1.01-2.94,1.58-7.78-.74-10.36ZM201.58,153.42c-7.06,4.85-17.49,3.83-21.65-3.37-1.97-3.41-.12-6.58,1.98-9.06,3.6-4.22,16.1-6.56,22.04.86,2.89,3.61,1.81,8.71-2.37,11.57Z"/>
  <path class="cls-3" d="M247.46,165.2c-6.99-5.55-17.46-5.58-24.81-.54-4.12,2.83-5.99,7.44-5.16,12.16.66,3.76,4.19,7.87,8.48,9.37,12.13,4.26,23.56-1.87,24.83-9.37.78-4.57.23-8.77-3.34-11.62ZM245.61,180.51c-5.8,5.24-14.96,5.24-20.58.41-1.97-1.7-2.75-4-2.97-5.96-.27-2.4,1.11-4.68,3.26-6.59,5.18-4.58,13.11-4.65,18.98-1.02,2.39,1.48,3.71,3.67,3.95,5.8.27,2.39-.26,5.21-2.64,7.36Z"/>
  <path class="cls-3" d="M160.8,115.4c3.3,2.83-4.1,12.08-7.49,9.76-2.92-2-.35-6.74,1.6-8.84,1.8-1.94,3.75-2.75,5.89-.92Z"/>
  <path class="cls-3" d="M211.31,194.18c2.27,5.11-3.47,11.09-6.48,10.54-1.05-.19-2.12-1.29-2.54-2.48-.21-2.25,1.39-4.17,2.61-5.93,2.06-3,3.99-2.34,6.42-2.13Z"/>
  <path class="cls-3" d="M173.53,124.59c1.33,3.18-4.01,8.45-6.42,7.05-1.84-1.07-2.01-3.4-1.27-5.06.61-1.38,1.5-3.22,3.61-3.67,1.73-.38,3.51.32,4.08,1.68Z"/>
  <path class="cls-3" d="M230.14,197.14c1.97,1.71.24,4.18-.5,5.29-1.14,1.69-4.02,2.82-5.67,1.36-1.48-1.3-.34-4.31.48-5.62.94-1.49,3.68-2.78,5.69-1.03Z"/>
  <path class="cls-3" d="M329.19,135.74c10.83.17,20.66,4.53,21.59,14.62.47,5.1-1.93,10.05-6.37,13.39-6.59,4.96-14.81,5.1-23.23,3.37,2.66,4.1-.46,9.68-3.51,10.55-1.17.33-3.77.04-4.03-1.58-.67-4.03,2.42-7.28,6.35-9.63-7.48-3.31-11.82-9.14-10.44-16.02l.78-3.91c.74-.15,2.1-.3,2.54-1.04.5-.86.65-2.64.94-3.64,1.98-.85,4.86.43,7.03.69-2.4,2.39-4.55,5.59-5.46,9.12-.84,3.26,1.13,6.18,3.62,8.29,6.85,5.8,17.45,5.43,24.15-.46,2.48-2.17,3.52-4.75,3.68-7.49.45-7.63-9.02-13.54-21.37-10.8-.07-1.63-.45-3.27-1.07-4.92,1.62.52,3.39-.56,4.83-.54Z"/>
  <path class="cls-1" d="M272.36,112.72c.1,7.51,7.65,11.71,16.12,12.66,1.79,6.35,3.68,13.27,8.66,18.17.7.69,2.8.05,3.05-.58.31-.78.54-1.92,1.55-3.85l8.58,7.42-.78,3.91c-2,.56-3.84-2.18-5.37-3.14-4.8.67-9.78.06-11.79-5.15-4.38,1.49-9.41,2.58-13.23.36-2.14-1.24-1.9-5.51-1.96-7.84-3.98-.18-6.62-1.48-8.12-4.45-1.36-2.68.28-5.19,2.09-7.71-1.43-1.66-3.27-3.61-2.33-6.03.62-1.61.86-4.04,3.55-3.78Z"/>
  <path class="cls-1" d="M329.19,135.74c-1.44-.02-3.2,1.06-4.83.54-2.18-.7-5.87-2.47-7.07-4.67.2-.91,1.7-2.19,1.94-2.9,1.22-3.5-5.16-4.76-12.16-6.41.9-.83,2.11-2.06,2.04-3.11-.06-.95-1.82-2.46-2.82-2.46l-.1-8.21c-.04-4.48-4.84-7.51-8.81-8.79-.03-.35-.14-1.57.36-1.98,2.41-.59,6.41-1.04,8.66.67,2.57,1.95,2.05,5.9,1.68,9.02,3.74-1.2,6.95-.68,9.2,1.52s1.93,5.42,1.22,8.65c3.63-.53,5.29.3,6.77,2.37,1.16,1.62.12,4.5-.87,6.7,2.9,2.33,5.88,5.13,4.78,9.07Z"/>
  <path class="cls-3" d="M297.39,99.73c3.97,1.28,8.77,4.32,8.81,8.79l.1,8.21h-3.92c2.11-4.71.93-9.84-4.04-12.46-5.44-2.87-12.24-2.72-17.27.93-3.67,2.66-5.28,7.38-2.76,11.23,2.08,3.19,5.75,4.65,9.23,5.03.47,1.28.57,2.6.94,3.92-8.47-.95-16.01-5.15-16.12-12.66-.07-5.23,3.71-10.91,9.07-12.91s11.14-1.63,15.96-.08Z"/>
  <path class="cls-3" d="M348.68,130.45c-1.06,1.43-3.12,1.17-4.09.29s-1.46-2.71-.27-4.23l3.97-5.03c1.16-1.47,2.35-2.37,3.97-1.52,1.39.73,2.22,2.68.89,4.47l-4.47,6.02Z"/>
  <path class="cls-3" d="M333.73,179.42c-.96,2.08-2.01,3.28-3.3,3.74-1.75.62-3.96,0-4.64-2.05-.5-1.47,2.12-7.74,5.81-7.16,2.54.4,3.41,2.71,2.14,5.46Z"/>
  <path class="cls-3" d="M267.55,84.81c2.22,2.13-.26,5.53-1.85,6.97-1.67,1.51-3.6,2.34-5.16.97-1.45-1.27-1.1-3.19-.1-5.18,1.22-2.43,4.37-5.39,7.11-2.76Z"/>
  <path class="cls-3" d="M364.72,137.51c-1.19,1.36-3.11,1.1-4.14.23-.74-.63-1.36-2.17-.5-3.52l3.07-4.86c.91-1.45,2.24-1.51,3.16-1.24,1.82.54,2.46,2.2,1.6,4s-1.64,3.61-3.19,5.4Z"/>
  <path class="cls-3" d="M253.3,87.03c-1.86,2.01-3.99,2.8-5.51,1.46-1.82-1.61-1.62-3.61-.11-5.62,1.04-1.38,2.01-2.7,3.38-3.01,1.6-.36,3.11.57,3.61,1.73.83,1.9.29,3.65-1.38,5.45Z"/>
  <path class="cls-3" d="M379.92,136.16c3.95,1.73-2.14,9.84-4.19,10.03-1.16.1-2.32-.55-2.81-1.74-.8-1.95,4.31-9.47,7-8.29Z"/>
  <path class="cls-3" d="M248.28,105.94c1.87,1.62.05,6.81-1.96,8.21-1.01.7-3.65.75-4.26-.57-1.11-2.4.55-6.03,2.48-7.71,1.1-.95,2.92-.64,3.74.07Z"/>
  <path class="cls-5" d="M262.88,116.89c-.5,2.33-2.93,6-5.59,4.21-2.37-1.6-.57-7.37,1.9-8.25,1.3-.46,2.46-.23,3.03.21.81.63,1.12,1.66.65,3.83Z"/>
  <path class="cls-3" d="M446.06,129.92c-1.58,2.36-4.5,4.75-6.89,2.51-2.09-1.97.28-5.35,1.75-7.11,1.56-1.87,3.7-2.43,5.28-1.23,1.79,1.36,1.43,3.47-.15,5.83Z"/>
  <path class="cls-3" d="M344.4,66.43c-1.38,2.24-4.84,5.9-7.17,3.03-2.18-2.68,1.16-7.79,4.03-8.77,1.83-.63,3.08,0,3.99,1.22.83,1.12.58,2.21-.85,4.52Z"/>
  <path class="cls-3" d="M355.37,69.05c-1.57,2.98-3.95,4.22-6.87,3.03-.93-3.58,1.06-7.06,4.72-8.3,2.43.57,3.43,2.84,2.15,5.27Z"/>
  <path class="cls-2" d="M392.58,107.22c1.59,1.44,3.88,2.09,5.99,1.25s3.23-3.48,2.79-5.87c7.64-1.1,14.82,2.73,15.29,8.46.19,2.39-.57,4.57-2.4,6.44-6.64,6.79-17.8,6.24-23.06-1.89-1.81-2.8-1.06-6.58,1.4-8.38Z"/>
  <path class="cls-1" d="M401.35,102.59c.44,2.39-.65,5.02-2.79,5.87s-4.4.19-5.99-1.25c1.65-3.17,5.33-4.13,8.78-4.63Z"/>
  <path class="cls-2" d="M186.75,194.15c-2.14,7.34-8.71,11.46-16.52,11.71s-15.85-4.16-16.91-12.44c-.93-7.29,4.87-13.14,11.39-15.1-.99,3.19.17,6.05,3.48,7.31,4.14,1.58,8.38,1.75,13.15.95.15,3.85,1.93,6.53,5.41,7.57Z"/>
  <path class="cls-1" d="M186.75,194.15c-3.47-1.03-5.26-3.72-5.41-7.57-4.77.8-9.01.64-13.15-.95-3.3-1.26-4.47-4.12-3.48-7.31,6.68-2,14.4-.79,19.12,4.39,3.08,3.37,4.08,7.44,2.91,11.43Z"/>
  <path class="cls-1" d="M201.58,153.42c-7.06,4.85-17.5,3.83-21.65-3.37-1.97-3.41-.12-6.58,1.98-9.06,3.59-4.22,16.09-6.57,22.03.85,2.89,3.61,1.81,8.71-2.36,11.58Z"/>
  <path class="cls-2" d="M245.61,180.51c-5.81,5.24-14.96,5.24-20.58.41-1.97-1.7-2.75-4-2.97-5.96-.27-2.4,1.11-4.68,3.26-6.59,5.18-4.58,13.11-4.65,18.98-1.02,2.39,1.48,3.71,3.66,3.95,5.8.27,2.38-.26,5.21-2.64,7.36Z"/>
  <path class="cls-4" d="M302.37,116.72h3.92c1.01.01,2.76,1.51,2.82,2.47.07,1.05-1.15,2.28-2.04,3.11,7,1.65,13.38,2.91,12.16,6.41-.25.71-1.74,1.99-1.94,2.9,1.19,2.2,4.88,3.97,7.07,4.67.62,1.65,1,3.29,1.07,4.92-1.44.32-3.45.18-4.62,1.35-2.17-.25-5.05-1.54-7.03-.69-.29,1-.43,2.78-.94,3.64-.44.75-1.79.89-2.54,1.04l-8.58-7.42c-1.01,1.94-1.24,3.08-1.55,3.85-.25.63-2.34,1.27-3.05.58-4.98-4.91-6.87-11.83-8.66-18.17-.37-1.32-.47-2.64-.94-3.92-.42-1.15.02-3.41.65-4.73h14.19Z"/>
  <path class="cls-2" d="M320.81,142.55c1.17-1.16,3.17-1.03,4.62-1.35,12.35-2.74,21.82,3.17,21.37,10.8-.16,2.74-1.2,5.32-3.68,7.49-6.71,5.88-17.3,6.26-24.15.46-2.49-2.11-4.47-5.03-3.62-8.29.91-3.53,3.06-6.73,5.46-9.12Z"/>
  <path class="cls-1" d="M302.37,116.72h-14.19c-.63,1.33-1.07,3.58-.65,4.73-3.48-.38-7.15-1.84-9.23-5.03-2.51-3.85-.91-8.57,2.76-11.23,5.02-3.65,11.83-3.8,17.27-.93,4.96,2.62,6.14,7.75,4.04,12.45Z"/>
</svg>