<?xml version="1.0" encoding="UTF-8"?>
<svg id="Capa_1" data-name="Capa 1" xmlns="http://www.w3.org/2000/svg" width="1080" height="1080" viewBox="0 0 1080 1080">
  <defs>
    <style>
      .cls-1 {
        fill: #fbc89a;
      }

      .cls-2 {
        fill: #6f403b;
      }
    </style>
  </defs>
  <path class="cls-2" d="M991.17,502.82l-2.01-61.9-4.96-11.6c-2.63-6.11-2.34-13.46-6.25-18.34-21.1-26.44-53.7-59.33-79.88-70.67l-56.66-24.54-32.43-9.12c-17.74-4.99-18.88-43.11-62.52-60.31l-29.64-11.69-71.62-14.28-52.69-5.23c-31.3-3.11-62.02-3.45-93.26.2l-46.83,5.5-42.79,7.96c-36.14,6.74-71.26,20.43-91.72,54.28-18.84,31.18-75.4,30.1-128.71,70.52l-23.33,17.69c-26.15,19.84-42.75,42.31-49,73.23-1.88,9.24-4.4,17.95.47,27.71,13.44,26.92-14.3,43.14-29.8,75.78-22.4,47.16-37.1,98.37-24.5,149.03l7.84,31.53c11.31,45.41,51.1,72.64,95.16,56.19l25.05-9.34c5-1.88,10.54-4.37,15.58-7.8l17.44-11.91,21.85-14.61c5.81-3.91,13.97-16.97,24.99-16.87,24.95.26,46.01,3.3,73.15-6.04l39.28-13.52c34.5,23.25,73.33,32.77,114.16,35.6,76.2,5.27,165.27,7.1,224.44-34.32l51.64,14.04c22.49,6.11,42.25,5.36,64.95,1.98,12.56-1.88,23.28,14.06,30.4,18.97l22.07,15.19c10.86,7.47,21.57,12.81,33.77,19.06l14.96,7.66c27.7,14.19,69.62,5,84.81-19.78l9.07-14.83c49.45-129.55-42.24-238.02-42.48-245.44ZM225.7,705.16c-32.88,19.72-65.88,52.24-98.28,37.97-16.31-7.18-19.56-29.34-22.56-42.75-11.61-51.91,3.21-100.82,25.79-149.68,2.22-5.9,10.27-7.65,13.52-1.26l25.88,50.92,13.14,21.57,11.73,17.63,11.99,17.86,22.77,27.5c6.65,8.05,3.09,16-3.98,20.23ZM368.83,667.19c-10.47,9.97-45.3,15.19-72.53,17.68-14.21,1.29-29.82-16.36-42.79-33.59l-17.48-23.21-11.82-17.47-13.31-22.16-44.67-89.6c-16.36-32.82-6.62-71.05,22.61-93.19l23.36-17.68,30.36-16.55c20.82-11.37,47.63-24.65,62.44-23.16,6.49,12.63,3.32,28.22,4.88,41.47l7.44,62.82c9.88,83.44,59.51,207.03,51.54,214.63ZM697.17,650.2c-5.12,12.92-8.07,30.81-21.93,37.01-22.65,10.15-47.45,6.76-69.92,12.65l-12.53,3.29-77.61-1.4-43.54-5.51-28.97-5.74c-12.81-2.52-21.09-10.98-25.05-22.95l-32.32-97.48c-25.61-77.21-38.39-157.27-39.74-240.4-.72-43.81,56.51-62.47,108.43-68.63l46.92-5.56c65.53-7.77,162.87,1.94,222.82,24.63,47.06,17.83,44.25,59.66,35.27,120.68-12.66,86.07-29.88,168.74-61.81,249.42ZM861.03,646.17c-32.17,47.8-64.48,43.92-126.53,18.28,37.45-100.49,63.73-212.3,68.18-318.75l57.12,21.21,25.43,15.02,17.62,11.84c29.65,19.95,51.9,49.85,44.51,80.13l-5.62,23.01-5.75,17.77-37.7,73.65-13.1,22.28-11.75,17.14-12.41,18.43ZM991.69,740.08c-8.14,14.16-24.14,11.88-36.35,5.29l-42.22-22.77-17.18-11.82-19.17-18.28,13.95-17.96,17.78-23.39c7.99-10.51,12.72-21.9,19.93-33.18l11.04-17.3,19.89-39.62c1.44-2.88,1.71-8.08,5.03-9.49,6.4-2.72,11.24-1.11,14.04,6.31,22.85,60.38,48.02,121.73,13.25,182.23Z"/>
  <path class="cls-1" d="M723.71,280.11c-59.95-22.7-157.28-32.4-222.82-24.63l-46.92,5.56c-51.93,6.16-109.15,24.81-108.43,68.63,1.35,83.14,14.13,163.2,39.74,240.4l32.32,97.48c3.97,11.97,12.24,20.43,25.05,22.95l28.97,5.74,43.54,5.51,77.61,1.4,12.53-3.29c22.47-5.89,47.27-2.49,69.92-12.65,13.86-6.2,16.81-24.09,21.93-37.01,31.93-80.68,49.15-163.35,61.81-249.42,8.98-61.01,11.79-102.85-35.27-120.68ZM394.94,305.04l38.86.33-.3,36.27-38.86-.32.3-36.29ZM421.47,524.76l-6.14-18.08c-3.24-9.52-3.82-19.42-5.5-29.14l-6.08-35.3c-4.03-23.37-4.13-46.31-3.2-70.31l32.01-.32c8.13,12.93,8.01,25.19,9.79,37.88l5.81,41.2,6.11,29.18,7.12,31.74c1.71,7.66,1.46,14.43-3.14,19.65-3.54,4.04-8.73,6.01-17.47,7.83-12.35,2.55-16.36-5.62-19.32-14.33ZM480.14,595.01c-9.25,9.75-25.61,10.41-32.4,5.11-6.58-10.26-10.45-20.04-5.36-29.21l20.08-9.24c3.14-1.46,9.84-1.55,12.14,1.82,5.81,8.53,11.01,25.76,5.54,31.53Z"/>
  <path class="cls-1" d="M296.29,684.87c-14.21,1.3-29.81-16.35-42.79-33.59l-17.48-23.2-11.82-17.46-13.31-22.16-44.66-89.61c-16.36-32.81-6.63-71.04,22.61-93.18l23.35-17.68,30.35-16.56c20.83-11.36,47.64-24.65,62.44-23.16,6.5,12.64,3.32,28.23,4.89,41.48l7.44,62.81c9.88,83.43,59.5,207.03,51.53,214.63-10.46,9.97-45.29,15.18-72.53,17.68Z"/>
  <path class="cls-1" d="M898.28,588.33l-13.1,22.28-11.75,17.13-12.4,18.43c-32.17,47.8-64.48,43.93-126.54,18.29,37.45-100.49,63.72-212.31,68.18-318.75l57.12,21.21,25.44,15.02,17.61,11.84c29.66,19.95,51.9,49.84,44.51,80.13l-5.61,23.02-5.76,17.77-37.71,73.64Z"/>
  <path class="cls-1" d="M229.68,684.93c6.67,8.05,3.09,16-3.97,20.23-32.88,19.72-65.88,52.25-98.29,37.98-16.31-7.18-19.55-29.34-22.56-42.76-11.62-51.91,3.21-100.81,25.78-149.67,2.23-5.91,10.28-7.65,13.52-1.27l25.88,50.93,13.14,21.56,11.74,17.64,11.98,17.86,22.77,27.5Z"/>
  <path class="cls-1" d="M913.13,722.6l-17.2-11.82-19.16-18.28,13.95-17.97,17.79-23.39c7.99-10.51,12.73-21.9,19.94-33.19l11.04-17.3,19.89-39.63c1.44-2.88,1.71-8.08,5.03-9.49,6.4-2.71,11.24-1.1,14.04,6.31,22.85,60.39,48.02,121.74,13.25,182.23-8.14,14.17-24.14,11.89-36.35,5.3l-42.22-22.78Z"/>
  <path class="cls-2" d="M461.39,511.62c1.72,7.65,1.45,14.44-3.14,19.65-3.55,4.04-8.73,6.01-17.47,7.82-12.35,2.55-16.35-5.61-19.32-14.32l-6.15-18.08c-3.24-9.53-3.82-19.43-5.49-29.15l-6.08-35.3c-4.03-23.37-4.13-46.31-3.2-70.32l32-.31c8.13,12.93,8.02,25.19,9.8,37.88l5.8,41.2,6.12,29.19,7.12,31.74Z"/>
  <path class="cls-2" d="M480.14,595.01c-9.26,9.75-25.61,10.41-32.41,5.11-6.57-10.26-10.45-20.03-5.36-29.21l20.09-9.25c3.14-1.45,9.84-1.54,12.13,1.83,5.82,8.53,11.02,25.76,5.55,31.52Z"/>
  <rect class="cls-2" x="396.08" y="303.92" width="36.28" height="38.86" transform="translate(87.43 734.86) rotate(-89.52)"/>
</svg>