<?xml version="1.0" encoding="UTF-8"?>
<svg id="Capa_1" data-name="Capa 1" xmlns="http://www.w3.org/2000/svg" width="1080" height="1080" viewBox="0 0 1080 1080">
  <defs>
    <style>
      .cls-1 {
        fill: #f8edeb;
      }

      .cls-2 {
        fill: none;
      }

      .cls-2, .cls-3 {
        stroke: #36364c;
        stroke-linecap: round;
        stroke-linejoin: round;
      }

      .cls-4 {
        fill: #ddbea9;
      }

      .cls-3 {
        fill: #fff;
      }

      .cls-5 {
        fill: #ffc9c8;
      }
    </style>
  </defs>
  <path class="cls-4" d="M725.81,642.51c-1.95,10.19-6.08,19.57-11.66,28.19-2.17,3.37-4.57,6.63-7.14,9.76-8.81,10.78-19.7,20.24-30.86,28.5-2.32,1.72-4.67,3.41-7.04,5.08-20.82,14.72-42.93,28.03-59.71,47.14,3.71-35.82,42.44-56.67,69.05-82.11,7.17-6.85,13.46-14.03,17.95-21.94,4.46-7.85,7.15-16.41,7.15-26.05,0-4.3-.72-8.89-3.59-12.09-3.05-3.39-7.89-4.53-12.45-4.67-17.2-.54-32.98,10.7-42.89,24.76-2.7,3.83-5.05,7.85-7.16,12.01-5.65,11.12-9.56,23.18-13.78,34.97-2.12,5.9-4.39,11.81-6.84,17.7-5.51,13.31-11.87,26.49-19.09,39.11-27.11,47.39-66.35,86.93-118.77,95.57-.31.05-.62.1-.93.14-.08.02-.17.03-.25.04-32.21,5-64.72-3.17-93.03-19.66-.04-.01-.07-.03-.1-.05-22.43-13.08-42.22-31.37-57.16-52.48-3.51-4.96-6.8-10.05-9.86-15.26-15.94-27.05-26.06-57.17-32.33-88.31-4.22-20.96-6.69-42.37-8-63.6-3.03-48.88,11.52-79.9,63.36-88.08-15.71,2.47-31.65,20.53-41.04,39.63-6.07,12.31-9.4,25.06-8.2,34.33,2.76,21.34,16.1,39.91,33.51,52.91.02.01.04.02.06.04,4.47,3.35,9.21,6.31,14.11,8.87,6.36,3.32,12.96,6.03,19.74,8.27,18.78,6.22,38.88,8.8,58.7,10.4,60.34,4.86,125.2.09,176.6-29.82,9.07-5.28,17.73-11.34,25.86-18.27,3.09-2.63,6.18-5.42,9.29-8.23,6.51-5.89,13.11-11.9,20.04-16.96,10.76-7.88,22.3-13.45,35.47-12.69,28.27,1.65,46.31,35.03,40.99,62.85Z"/>
  <path class="cls-1" d="M645.2,377.7c1.37,4.24,1.61,8.7.25,13.28-.88,2.96-2.39,5.65-4.27,8.11-2.09,2.77-4.64,5.25-7.26,7.52-40.1,34.71-100.44,32.92-146.49,59.23-7.4,4.23-14.87,9.8-17.27,17.99-2.17,7.39.12,14.24,4.05,20.89,0,.02,0,.03.02.04.11.18.22.37.33.55,3.42,5.64,7.95,11.13,11.86,16.7.46.66.92,1.31,1.35,1.97.84,1.23,1.62,2.46,2.35,3.7,7.37,12.52,10.34,65.62-13.11,54.75-1.26-.59-2.94-4.46-4.75-9.35-3.06-8.25-6.49-19.43-8.86-22.64-7.87-10.67-20.57-18.97-32.92-23.84-.02-.02-.05-.03-.07-.03-.6-.24-1.19-.47-1.79-.69-28.12-10.35-61.34-13.72-80.69-36.61-21.15-25.01-10.63-67.52,16.25-84.17,4.73-2.93,9.97-5.06,15.64-6.15,6.99-1.35,14.05-1.33,21.13-.76,10.97.86,22.01,3.03,33.01,3.48,16.68.67,35.91-4.72,43.59-18.89.69-1.24,1.27-2.54,1.76-3.91,2.91-8.19,1.54-16.48-2.46-23.93-5.79-10.83-17.13-19.91-28.93-24.41-19.92-7.58-42.31-7.86-61.37-17.4-28.15-14.07-43.97-49.07-35.94-79.5,7.24-27.42,33.13-48.51,61.18-51.21,3.08-.31,6.19-.38,9.3-.22,12.55.65,24.75,4.71,37.31,5.25,12.56.53,26.63-3.59,32.6-14.66,11.69-21.69-15.6-49.81-4.15-71.63,4.59-8.76,14.01-13.31,23.52-16.72,1.67-.61,3.35-1.17,5.01-1.72,11.33-3.74,22.66-7.48,33.99-11.21,16.93-5.59,33.86-11.17,50.79-16.76.22-.07.44-.14.66-.22,1.95-.64,3.91-1.29,5.86-1.93.31,5.08-1,9.84-3.39,14.16-4.58,8.32-13.16,15.04-21.91,19.39-5.07,2.51-10.4,4.61-15.67,6.78-8.57,3.52-17,7.24-23.95,13.27-7.14,6.2-11.85,16.24-11.52,25.33.18,5.19,2.02,10.08,5.98,13.75,3.94,3.65,8.7,5.2,13.87,5.59,9.08.71,19.41-2.15,28.73-3.54,16.53-2.46,33.91,1.3,48.14,9.95,9.09,5.52,16.9,13.05,22.38,22.22,14.05,23.52,10.65,56.65-9.17,75.56-10.63,10.14-24.67,15.82-36.63,24.34-8.15,5.81-15.63,13.95-18.86,23.14h0c-1.51,4.3-2.09,8.82-1.38,13.44,2.64,17.12,20.71,26.47,35.84,34.91,1.73.97,3.48,2.02,5.21,3.15,9.18,6.03,17.78,14.28,20.84,23.64,0,0,.01.01.01.02Z"/>
  <path class="cls-5" d="M715.64,937.71c-.26,2.33-1.05,4.39-2.25,6.21-4.15,6.34-13.11,9.84-20.94,12.08-4.05,1.15-8.09,2.3-12.14,3.46-13.11,3.73-26.22,7.47-39.33,11.21h-.01c-6.9,1.97-13.8,3.93-20.69,5.9-.33.09-.65.19-.98.28-.01,0-.01,0-.02,0s-.02.01-.03.01c-10.99,3.12-22.16,6.17-33.57,5.97-10.41-.18-20.6-3.07-30.99-3.91-23.33-1.87-49.42,6.08-68.64-7.28-3.66-2.54-6.62-5.32-8.96-8.28h0c-18.76-23.64,1.67-58.85,19.18-77.66,20.76-22.31,46.83-39.73,75.44-50.23.02-.01.04-.01.06-.02t.02-.01s.05-.02.07-.02c7.2-2.65,14.56-4.85,22.04-6.58,9.26-2.14,19.09-3.57,28.16-.72,2.51.79,4.94,1.99,7.13,3.51,2.38,1.66,4.48,3.7,6.11,6.02h0c2.29,3.26,3.64,7.04,3.52,11.05-.02.48-.06.96-.13,1.44-.26,1.83-.96,3.61-2.38,4.76-2.14,1.73-5.21,1.53-7.95,1.18-6.03-.78-12.19-1.88-18.3-2.41h-.01c-7.3-.62-14.52-.43-21.35,2.09-3.18,1.18-6.13,3.14-8.62,5.59-6,5.88-9.32,14.55-6.75,21.67v.02c.56,1.56,1.41,3.04,2.57,4.41,1.75,2.06,3.81,3.49,6.07,4.41h.01c2.84,1.15,6.01,1.5,9.32,1.27h.05c7.66-.54,16.07-4.16,22.91-8,5.18-2.9,10.35-5.81,15.53-8.73,1.86-1.04,3.73-2.09,5.59-3.14,3.24-1.82,6.65-3.69,10.36-3.8,1.73-.05,3.32.25,4.8.81h.01c5.95,2.3,10.07,9.01,13.77,15.26.66,1.11,1.3,2.21,1.94,3.26,5.75,9.48,13.98,17.43,23.65,22.84,11.38,6.37,27.16,13.1,25.73,26.07Z"/>
  <path class="cls-5" d="M926.47,864.17s0,.01,0,.02c-.67,2.98-1.8,5.93-3.29,8.77-.01.02-.01.03-.02.05-.01.02-.02.04-.03.06h-.01s-.01.02-.01.03,0,0,0,.02c-2.6,4.93-6.25,9.56-10.44,13.56t-.02.01c-2.89,2.77-6.03,5.23-9.27,7.29-17.92,11.42-39.68,16.57-60.83,14.74h-.06c-5.17-.45-10.31-1.31-15.34-2.61-1.43-.37-2.85-.77-4.27-1.19-.01,0-.01-.01-.02-.01-7.84-2.35-15.52-5.5-23.25-8.26-10.08-3.6-20.23-6.54-30.85-6.21-9.74.3-19.88,3.33-28.97-.18-6.82-2.64-12.55-7.1-18.14-11.97h-.01c-4.45-3.87-8.8-7.99-13.54-11.65-4.2-3.23-8.7-6.11-13.84-8.13-16.2-6.38-33.85-9.28-45.62-23.42-17.39-20.89-11.2-49.3,5.89-68.27,5.64-6.25,11.95-11.15,18.75-14.94,13.89-7.76,29.79-10.96,46.03-11.92h.07s.03,0,.05-.01c10.18-.58,20.5-.3,30.53.3,5.73.34,11.52.81,17.34,1.44,38.77,4.14,78.77,14.81,111.06,36.43.05.04.1.07.15.11.06.04.13.08.19.13,15.33,10.3,28.91,23.09,39.79,38.84.85,1.24,1.64,2.64,2.3,4.13.01,0,.01,0,.01,0,0,.01,0,.01,0,.02.01.01.01.03.02.04h0c3.15,7.05,3.69,15.89-3.14,17.96-2.99.9-6.18-.18-9.12-1.26-20.93-7.66-41.86-15.32-62.8-22.98-4.67-1.71-9.48-3.51-13.03-7-1.93-1.9-3.38-4.21-4.85-6.51h0c-1.11-1.74-2.23-3.46-3.58-5-3.08-3.51-7.08-5.82-11.47-7.45h-.02c-4.33-1.6-9.04-2.54-13.59-3.29-8.09-1.33-17.9-1.77-22.85,4.77-.83,1.1-1.42,2.27-1.79,3.49-.16.53-.28,1.06-.36,1.6-.01.01-.01.03-.01.04v.04c-.44,3.06.32,6.3,1.91,9.26,2.2,4.15,6.01,7.75,10.33,9.52,9.27,3.79,19.72,2.32,29.73,2.79,30.99,1.46,58.76,21.9,88.57,28.22h.01s.01,0,.01,0c3.96.84,7.95,1.43,12,1.69h.03c2.68.18,5.39.21,8.12.07,2.53,5.47,2.84,11.2,1.56,16.8Z"/>
  <path class="cls-3" d="M593.25,592.47c-20.52,19.12-48.63,29.87-76.22,33.19-13.8,1.67-61.93,3.05-42.6-22.69,8.12-10.82,18.6-17.05,23.59-30.55,4.57-12.36,4.05-26.47-2.62-38-1.94-3.35-4.33-6.56-6.85-9.74,13.02,11.53,32.69,21.05,49.62,17.27,13.13-2.93,52.09-22.47,41.72-4.74-21.12,36.08-63.95,29.32-71.48,40.39,13,14.31,54.71,5.74,77.16-8.7,7.29-4.69,14.57-10.54,23.22-10.89,2.91,12.89-5.88,25.46-15.54,34.46Z"/>
  <path class="cls-3" d="M649.06,587.72c-4.24,2.46-8.22,5.48-11.82,9.09-3.29,3.3-5.91,7.66-7.93,12.5-3.11,2.81-6.2,5.6-9.29,8.23-8.13,6.93-16.79,12.99-25.86,18.27,13.72-11.38,24.66-27.97,17.92-43.65-25.6,36.98-74.22,49.51-119,53.8-50.76,4.86-121.83,1.76-157.34-41.63-7.74-9.46-16.85-27.83-7.71-39.45.6-.77,1.58-1.51,2.48-1.13.61.26.92.92,1.12,1.54,1.09,3.34.67,6.99,1.54,10.39,2.81,10.96,20.43,16.03,30.39,16.18,5.46.08,23.78-1.08,24.84-9.01,1.12-8.35-14.31-10.23-20.75-12.96-9.75-4.12-14.35-13.72-11.38-23.87,1.42-4.82,4.35-9.17,7.99-12.59,1.25-1.17,12.18-9.59,12.33-5.24.08,2.14-3.53,5.44-4.46,7.36-1.36,2.83-2.06,6.01-2.13,9.14-.11,5.91,2.15,11.68,6.28,15.92,10.02,10.3,40.74,18.91,68.77,8-.26,12.53-12.65,19.77-23.86,21.19-1.89.24-30.44,2.36-30.46,2.8-.27,6.04,6.99,11.91,12.09,14.14,6.71,2.94,14.18,4.19,21.47,3.47,19.15-1.88,44.96-16.05,47.97-37.13,1.81,4.89,3.49,8.76,4.75,9.35,23.45,10.87,20.48-42.23,13.11-54.75-.73-1.24-1.51-2.47-2.35-3.7.26.23.52.47.78.7,2.52,3.18,4.91,6.39,6.85,9.74,6.67,11.53,7.19,25.64,2.62,38-4.99,13.5-15.47,19.73-23.59,30.55-19.33,25.74,28.8,24.36,42.6,22.69,27.59-3.32,55.7-14.07,76.22-33.19,9.66-9,18.45-21.57,15.54-34.46-8.65.35-15.93,6.2-23.22,10.89-22.45,14.44-64.16,23.01-77.16,8.7,7.53-11.07,50.36-4.31,71.48-40.39,10.37-17.73-28.59,1.81-41.72,4.74-16.93,3.78-36.6-5.74-49.62-17.27-.7-.89-1.41-1.78-2.13-2.67-3.91-5.57-8.44-11.06-11.86-16.7-1.74-6.96,2.07-11.89,14.39-11.23,45.93,2.46,115.63,21.98,141.39,49.76,12.6,13.6,17.43,28.33,18.72,43.88Z"/>
  <path class="cls-3" d="M488.55,524.68c-.26-.23-.52-.47-.78-.7-6.84-6.22-11.7-12.95-13.15-18.45-.01,0,0-.01,0-.01-.03-.07-.05-.14-.06-.21,3.42,5.64,7.95,11.13,11.86,16.7.72.89,1.43,1.78,2.13,2.67Z"/>
  <path class="cls-3" d="M357.82,503.23c-18.3,11-46.92,28.67-58.18,47.58,9.39-19.1,25.33-37.16,41.04-39.63-51.84,8.18-66.39,39.2-63.36,88.08,1.31,21.23,3.78,42.64,8,63.6-4.24-16.46-8.04-36.53-11.35-62.38-7.71-60.15,30.26-85.79,83.31-97.58.18.12.36.23.54.33Z"/>
  <path class="cls-3" d="M359,502.52c-.39.23-.78.47-1.18.71-.18-.1-.36-.21-.54-.33.57-.13,1.14-.26,1.72-.38Z"/>
  <path class="cls-2" d="M324.95,638.05c-28.73-19.64-42.52-47.29-28.07-81.82.76-1.82,1.69-3.63,2.76-5.42"/>
  <path class="cls-2" d="M358.86,655.23c68.35,25.76,171.61,23.39,228.08-14.05,2.44-1.62,4.87-3.42,7.22-5.37"/>
  <path class="cls-2" d="M470.53,952.56c-1.76-.13-3.53-.26-5.29-.41"/>
  <path class="cls-2" d="M285.32,662.86c10.57,40.97,23.91,59.62,39.43,89.5,1.78,3.41-1.43,3.87-7.1-1.19"/>
  <path class="cls-3" d="M641.18,399.09c-1.61,3.44-3.6,6.73-5.87,9.73-49.56,65.51-161.96,31.7-164,83.31-.18,4.47.97,8.62,2.9,12.59-3.93-6.65-6.22-13.5-4.05-20.89,2.4-8.19,9.87-13.76,17.27-17.99,46.05-26.31,106.39-24.52,146.49-59.23,2.62-2.27,5.17-4.75,7.26-7.52Z"/>
  <path class="cls-2" d="M486.42,522.01c-4.58-5.66-9.27-11.25-12.19-17.25-.01-.01-.02-.02-.02-.04"/>
  <path class="cls-3" d="M430.41,526.57c-5.38-1.95-10.64-3.5-15.33-4.74-19.58-5.16-40.56-8.33-57.26-18.6-.18-.1-.36-.21-.54-.33-.49-.3-.98-.62-1.47-.94-39.32-26.08-31.54-78.17,8.37-96.86-26.88,16.65-37.4,59.16-16.25,84.17,19.35,22.89,52.57,26.26,80.69,36.61.6.22,1.19.45,1.79.69Z"/>
  <path class="cls-3" d="M594.16,635.81c-51.4,29.91-116.26,34.68-176.6,29.82-19.82-1.6-39.92-4.18-58.7-10.4-12.65-4.76-24.11-10.49-33.85-17.14-.02-.02-.04-.03-.06-.04-17.41-13-30.75-31.57-33.51-52.91-1.2-9.27,2.13-22.02,8.2-34.33,11.26-18.91,39.88-36.58,58.18-47.58,16.7,10.27,37.68,13.44,57.26,18.6,4.69,1.24,9.95,2.79,15.33,4.74.02,0,.05.01.07.03,12.35,4.87,25.05,13.17,32.92,23.84,2.37,3.21,5.8,14.39,8.86,22.64-3.01,21.08-28.82,35.25-47.97,37.13-7.29.72-14.76-.53-21.47-3.47-5.1-2.23-12.36-8.1-12.09-14.14.02-.44,28.57-2.56,30.46-2.8,11.21-1.42,23.6-8.66,23.86-21.19-28.03,10.91-58.75,2.3-68.77-8-4.13-4.24-6.39-10.01-6.28-15.92.07-3.13.77-6.31,2.13-9.14.93-1.92,4.54-5.22,4.46-7.36-.15-4.35-11.08,4.07-12.33,5.24-3.64,3.42-6.57,7.77-7.99,12.59-2.97,10.15,1.63,19.75,11.38,23.87,6.44,2.73,21.87,4.61,20.75,12.96-1.06,7.93-19.38,9.09-24.84,9.01-9.96-.15-27.58-5.22-30.39-16.18-.87-3.4-.45-7.05-1.54-10.39-.2-.62-.51-1.28-1.12-1.54-.9-.38-1.88.36-2.48,1.13-9.14,11.62-.03,29.99,7.71,39.45,35.51,43.39,106.58,46.49,157.34,41.63,44.78-4.29,93.4-16.82,119-53.8,6.74,15.68-4.2,32.27-17.92,43.65Z"/>
  <path class="cls-2" d="M430.48,526.6c19.2,6.94,39.92,18.91,41.93,39.48.24,2.41.17,4.74-.15,7"/>
  <path class="cls-3" d="M593.8,292.42c-3.49,2.9-6.61,6.36-9.12,10.12,3.23-9.19,10.71-17.33,18.86-23.14,11.96-8.52,26-14.2,36.63-24.34,19.82-18.91,23.22-52.04,9.17-75.56-5.48-9.17-13.29-16.7-22.38-22.22,23.51,6.47,40.49,27.35,42.23,49.16,4.25,53.17-56.42,70.17-75.39,85.98Z"/>
  <path class="cls-2" d="M641.18,399.09c3.22-6.9,4.86-14.4,4.02-21.39,0,0-.01-.02-.01-.02-.66-5.55-2.91-10.77-7.17-15.12-3.72-3.78-8.47-6.41-13.67-8.52-14.54-5.89-32.61-7.71-41.48-19.33-7.28-9.54-5-21.95,1.81-32.16h0"/>
  <path class="cls-3" d="M476.85,354.94c-6.8-7.81-19.56-14.7-39.05-18.63-114.08-23.04-105.05-107.86-62.21-140.61,12.31-9.41,24.05-13.05,36.2-13.28-28.05,2.7-53.94,23.79-61.18,51.21-8.03,30.43,7.79,65.43,35.94,79.5,19.06,9.54,41.45,9.82,61.37,17.4,11.8,4.5,23.14,13.58,28.93,24.41Z"/>
  <path class="cls-3" d="M477.55,382.78c-7.68,14.17-26.91,19.56-43.59,18.89-11-.45-22.04-2.62-33.01-3.48,7.76.07,15.57.68,23.33.99,26.34,1.04,44.8-6.28,53.27-16.4Z"/>
  <path class="cls-2" d="M476.85,354.94c7.92,9.08,7.76,19.43.7,27.84"/>
  <path class="cls-2" d="M364.18,405.1c5.41-2.53,11.41-4.45,17.97-5.61,6.2-1.09,12.48-1.38,18.8-1.3"/>
  <path class="cls-3" d="M603.29,66.76c-.73,5.2-3.44,10.32-7.5,14.16-8.28,7.86-19.32,9.92-30.08,12.01,5.27-2.17,10.6-4.27,15.67-6.78,8.75-4.35,17.33-11.07,21.91-19.39Z"/>
  <path class="cls-2" d="M626.96,157.28c-.88-.25-1.77-.47-2.67-.67-16.02-3.59-32.88-.69-49.4-.92-8.5-.11-17.27-1.73-24.8-4.82-9.77-4-17.47-10.47-19.85-19.34-1.17-4.34-1.06-9.26.71-14.74,5.81-18.04,20.02-20.99,34.76-23.86"/>
  <path class="cls-3" d="M549.37,71.51c-11.33,3.73-22.66,7.47-33.99,11.21-1.66.55-3.34,1.11-5.01,1.72,6.3-4.94,13.83-8.79,22.1-11.19,4.54-1.31,10.45-1.66,16.9-1.74Z"/>
  <path class="cls-2" d="M411.79,182.42c10.21-.19,20.7,2.02,32.04,5.22,19.42,5.49,45.68-.26,51.7-23.64,3.46-13.45-3.9-27.15-4.44-40.94-.6-15.25,7.02-29.01,19.28-38.62"/>
  <path class="cls-2" d="M549.37,71.51c20.84-.28,47.24,2.15,50.79-16.76.06-.31.11-.63.16-.95.17.24.34.48.5.73,2.36,3.7,3.08,7.99,2.47,12.23"/>
  <path class="cls-2" d="M597.75,742.87c-6.88.81-12.09-3.96-7.26-13.65,6.08-12.2,15.48-19.85,26.35-25.46"/>
  <path class="cls-2" d="M629.31,609.31c-7.66,18.27-6.84,43.53-1.38,45.76,3.23,1.32,6.45-1.39,9.53-3.98"/>
  <path class="cls-2" d="M678.45,679.07c9.47-5.64,16.65-12.24,21.71-19.07,18.74-25.28,8.44-53.72-22.13-48.54-13.4,2.27-24.57,12.19-31.36,23.97,1.39-14.85,3.24-29.27,2.68-43.08-.06-1.55-.16-3.09-.29-4.63"/>
  <path class="cls-3" d="M639.49,694.67c-24.5,41.46-43.48,93.27-110.36,127.2-17.96,9.11-34.62,14.3-50.15,16.57,52.42-8.64,91.66-48.18,118.77-95.57,1.7-.2,3.51-.74,5.29-1.64,9.58-4.81,21.14-23.62,29.41-44.11,2.33-.85,4.68-1.66,7.04-2.45Z"/>
  <path class="cls-3" d="M632.45,697.12c-8.27,20.49-19.83,39.3-29.41,44.11-1.78.9-3.59,1.44-5.29,1.64,7.22-12.62,13.58-25.8,19.09-39.11,4.96-2.57,10.22-4.7,15.61-6.64Z"/>
  <path class="cls-3" d="M632.45,697.12c-5.39,1.94-10.65,4.07-15.61,6.64,2.45-5.89,4.72-11.8,6.84-17.7,4.22-11.79,8.13-23.85,13.78-34.97,1.91-1.61,3.77-3.19,5.55-3.72,1.47,12.24-3.26,31.65-10.56,49.75Z"/>
  <path class="cls-3" d="M696.4,657.13c-4.49,7.91-10.78,15.09-17.95,21.94-2.78,1.66-5.75,3.23-8.93,4.7-9.43,4.37-19.82,7.48-30.03,10.9,9.16-15.52,19.1-29.58,32.6-40.72,8.05-6.64,12.64-5.87,21.28.84,1,.78,2.01,1.56,3.03,2.34Z"/>
  <path class="cls-3" d="M703.55,631.08c0,9.64-2.69,18.2-7.15,26.05-1.02-.78-2.03-1.56-3.03-2.34-8.64-6.71-13.23-7.48-21.28-.84-13.5,11.14-23.44,25.2-32.6,40.72-2.36.79-4.71,1.6-7.04,2.45,7.3-18.1,12.03-37.51,10.56-49.75-1.78.53-3.64,2.11-5.55,3.72,2.11-4.16,4.46-8.18,7.16-12.01,9.91-14.06,25.69-25.3,42.89-24.76,4.56.14,9.4,1.28,12.45,4.67,2.87,3.2,3.59,7.79,3.59,12.09Z"/>
  <path class="cls-3" d="M669.11,714.04c-117.77,103.34-146.76,135.45-214.05,134.19-30.75-.57-103.18-22.41-108.56-51.17,11.7,6.6,24.31,14.58,38.17,21.85.03.02.06.04.1.05,28.31,16.49,60.82,24.66,93.03,19.66.08-.01.17-.02.25-.04.31-.04.62-.09.93-.14,15.53-2.27,32.19-7.46,50.15-16.57,66.88-33.93,85.86-85.74,110.36-127.2,10.21-3.42,20.6-6.53,30.03-10.9,3.18-1.47,6.15-3.04,8.93-4.7-26.61,25.44-65.34,46.29-69.05,82.11,16.78-19.11,38.89-32.42,59.71-47.14Z"/>
  <path class="cls-3" d="M708.08,866.64c-.5-.29-1.01-.57-1.55-.84-11.62-5.93-27.45-2.97-52.63-23.94-24.04-20.03-26.81-43.88-13.01-65.91,5.82-9.3,17.21-17.62,32.37-24.07-6.8,3.79-13.11,8.69-18.75,14.94-17.09,18.97-23.28,47.38-5.89,68.27,11.77,14.14,29.42,17.04,45.62,23.42,5.14,2.02,9.64,4.9,13.84,8.13Z"/>
  <path class="cls-3" d="M799.59,896.65c-4.01-.53-8.88-.8-15.03-.69-43.24.75-53.95-8.34-62.93-17.67,5.59,4.87,11.32,9.33,18.14,11.97,9.09,3.51,19.23.48,28.97.18,10.62-.33,20.77,2.61,30.85,6.21Z"/>
  <path class="cls-3" d="M894.95,935.08c-63.33,42.38-177.07,2.05-230.63-49.54-3.7-6.25-7.82-12.96-13.77-15.25h-.01c-5.16-6.7-9.18-13.46-11.85-20.14.07-.48.11-.96.13-1.44.12-4.01-1.23-7.79-3.52-11.04h0c-.08-.56-.15-1.11-.2-1.65-.46-4.73-3.46-5.42-5.91-4.38-2.19-1.52-4.62-2.72-7.13-3.51-9.07-2.85-18.9-1.42-28.16.72-7.48,1.73-14.84,3.93-22.04,6.58-.02,0-.05.01-.07.02t-.02.01s-.04.01-.06.02c-15.55,5.05-32.92,13.64-55.18,30.04-38.81,28.6-53.17,59.53-51.29,86.63-106.2-8.61-220.13-45.74-269.16-85.08-90.46-72.58-50.8-187.2,77.68-237.72,10.53,78.14,32.33,111.48,43.89,121.82,3.06,5.21,6.35,10.3,9.86,15.26,14.94,21.11,34.73,39.4,57.16,52.48-13.86-7.27-26.47-15.25-38.17-21.85,5.38,28.76,77.81,50.6,108.56,51.17,67.29,1.26,96.28-30.85,214.05-134.19,2.37-1.67,4.72-3.36,7.04-5.08,11.16-8.26,22.05-17.72,30.86-28.5,3.02-3,5.78-5.95,8.29-8.85,23.07,18.03,45.05,38.27,51.4,67.16-16.48-1.24-32.47-.73-47.29,1.18-.02.01-.03.01-.05.01h-.07c-16.24.96-32.14,4.16-46.03,11.92-15.16,6.45-26.55,14.77-32.37,24.07-13.8,22.03-11.03,45.88,13.01,65.91,25.18,20.97,41.01,18.01,52.63,23.94.54.27,1.05.55,1.55.84,4.74,3.66,9.09,7.78,13.54,11.64h.01c8.98,9.34,19.69,18.43,62.93,17.68,6.15-.11,11.02.16,15.03.69,7.73,2.76,15.41,5.91,23.25,8.26,0,0,0,.01.02.01,2.87,1.23,6.17,2.41,10.45,3.39,2.26.52,5.42.62,9.16.41h.06c21.15,1.83,42.91-3.32,60.83-14.74,3.24-2.06,6.38-4.52,9.27-7.29t.02-.01c5.49-4.38,8.33-8.77,10.44-13.56,0-.01,0-.01,0-.02,0-.01.01-.01.01-.02h.01s.02-.05.03-.07c0-.02,0-.03.02-.05,1.49-2.84,2.62-5.79,3.29-8.77t0-.02c.91-2.53,1.9-5.2,3.2-8.03,13.22,1.18-3.82,58.27-34.72,78.94Z"/>
  <path class="cls-2" d="M696.4,657.13c1.25.96,2.5,1.91,3.76,2.87,4.62,3.52,9.32,7.07,13.99,10.7.38.3.77.6,1.15.91"/>
  <path class="cls-3" d="M827.87,801.6h0c-.19.78-.52,1.59-1,2.43-2.89,5.05-12.21,7.97-22.86,8.05-12.26-3.12-29.91-9.24-29.81-16.27v-.04s0-.03.01-.04c.08-.54.2-1.07.36-1.6.74-1.76,2.67-3.56,6.11-5.38,4.7-2.49,20.13-2.53,32.12.41h.02c4.39,1.63,8.39,3.94,11.47,7.45,1.35,1.54,2.47,3.26,3.58,4.99Z"/>
  <path class="cls-3" d="M916.79,847.3h-.03c-4.05-.26-8.04-.85-12-1.69,0,0-.01,0-.01,0h-.01c-14.01-7.21-41.08-26.63-90.1-31.34-1.71-.17-5.74-.94-10.63-2.18,10.65-.08,19.97-3,22.86-8.05.48-.84.81-1.65,1-2.42,1.47,2.3,2.92,4.61,4.85,6.51,3.55,3.49,8.36,5.29,13.03,7,20.94,7.66,41.87,15.32,62.8,22.98,2.94,1.08,6.13,2.16,9.12,1.26,6.83-2.07,6.29-10.91,3.14-17.95,7.9,14.41,2.09,23.09-4.02,25.89Z"/>
  <path class="cls-3" d="M904.74,845.6c-29.81-6.32-57.58-26.76-88.57-28.22-10.01-.47-20.46,1-29.73-2.79-4.32-1.77-8.13-5.37-10.33-9.52,7.95,4.91,18.45,7.08,27.9,7.01,4.89,1.24,8.92,2.01,10.63,2.18,49.02,4.71,76.09,24.13,90.1,31.34Z"/>
  <path class="cls-2" d="M776.11,805.07c-7.67-4.72-12.97-11.98-12.69-22.22.27-9.71,5.27-18.74,5.09-28.56-.08-4.38-.5-8.57-1.23-12.6-.17-.98-.37-1.96-.58-2.92,37.46,2.79,77.41,14.58,111.64,39.35.05.04.1.07.15.11.06.04.13.08.19.13,13.19,9.59,25.53,21.12,36.54,34.82,2.33,2.89,4.16,5.61,5.55,8.15.01,0,.01.01.01.01,0,.01.01.01.01.02,0,0,0,.03.02.04h0"/>
  <path class="cls-2" d="M904.76,845.61c3.29,1.68,5.84,2.7,7.81,2.7,1.3,0,2.74-.34,4.19-1.01"/>
  <path class="cls-2" d="M812.82,789.16c9.29,2.28,16.51,6.34,15.05,12.44"/>
  <path class="cls-2" d="M774.57,794.13c-.23.54-.35,1.07-.36,1.6"/>
  <path class="cls-2" d="M673.26,751.88c12.96-5.52,28.68-9.67,46.03-11.92"/>
  <path class="cls-2" d="M708.08,866.64c5.95,3.38,9.57,7.53,13.54,11.64"/>
  <path class="cls-2" d="M799.59,896.65c11.3,1.49,15.82,5.06,23.25,8.26"/>
  <path class="cls-2" d="M842.53,908.72c16.59-.97,44.66-8.23,57.29-14.3,5.45-2.61,9.58-5.17,12.81-7.73"/>
  <path class="cls-2" d="M926.46,864.19c-1.12,3.1-2.11,6.01-3.29,8.77"/>
  <path class="cls-2" d="M664.32,885.54c-5.2-5-9.82-10.1-13.77-15.25"/>
  <path class="cls-2" d="M638.69,850.15c-1.69-4.21-2.84-8.37-3.39-12.48"/>
  <path class="cls-3" d="M729.57,958.97c-4.01,6.89-117.75,86.73-198.19,64.55-36.55-10.08-63.81-37.79-66.14-71.37-1.88-27.1,12.48-58.03,51.29-86.63,22.26-16.4,39.63-24.99,55.18-30.04-28.61,10.5-54.68,27.92-75.44,50.23-17.51,18.81-37.94,54.02-19.18,77.65h0c2.14,7.37,7.92,13.7,18.31,18.35,19.59,8.77,42.23-2.95,63.61-1.08,11.55,1.01,22.73,6.03,34.29,5.12,9.18-.71,17.48-5.07,25.95-8.88.01,0,.02-.01.03-.01s0,0,.02,0c.33-.09.65-.19.98-.28,6.89-1.97,13.79-3.93,20.69-5.9h.01c4.61-.38,9.25-.45,13.82-1.15,7.68-1.16,16.59-5.36,25.51-10.06,4.05-1.16,8.09-2.31,12.14-3.46,7.83-2.24,16.79-5.74,20.94-12.08,1.99-.43,3.83-.61,5.49-.47,7.46.64,14.45,9.05,10.69,15.52Z"/>
  <path class="cls-2" d="M680.31,959.46c12.02-6.33,24.05-13.57,33.08-15.54"/>
  <path class="cls-2" d="M619.3,976.85c4.9-2.23,9.87-4.25,15.1-5.3,2.18-.43,4.37-.69,6.57-.88"/>
  <path class="cls-3" d="M629.79,876.41c-5.18,2.92-10.35,5.83-15.53,8.73-6.84,3.84-15.25,7.46-22.91,8h-.05c-1.31-.06-2.64-.17-3.99-.34-1.77-.22-3.6-.47-5.33-.93h-.01c-2.26-.92-4.32-2.35-6.07-4.41-1.16-1.37-2.01-2.85-2.57-4.41v-.02c-.59-3.2-.01-6.72,1.58-9.59,5.94-10.73,20.52-12.26,30.26-16.99.1-.05.19-.09.29-.15,6.2-.24,11.86.46,16.72,2.27,9.8,3.65,11.49,10.9,7.61,17.84Z"/>
  <path class="cls-3" d="M650.54,870.28c-1.48-.56-3.07-.86-4.8-.81-3.71.11-7.12,1.98-10.36,3.8-1.86,1.05-3.73,2.1-5.59,3.14,3.88-6.94,2.19-14.19-7.61-17.84-4.86-1.81-10.52-2.51-16.72-2.27,1.68-.82,3.2-1.7,4.59-2.62h.01c6.11.53,12.27,1.63,18.3,2.41,2.74.35,5.81.55,7.95-1.18,1.42-1.15,2.12-2.93,2.38-4.76,2.67,6.68,6.69,13.44,11.85,20.13Z"/>
  <path class="cls-2" d="M610.06,853.68c12.13-7.93,14.12-18.43,17.77-21.25.42-.32.88-.59,1.36-.79"/>
  <path class="cls-3" d="M605.46,856.3c-.1.06-.19.1-.29.15-9.74,4.73-24.32,6.26-30.26,16.99-1.59,2.87-2.17,6.39-1.58,9.59-2.57-7.12.75-15.79,6.75-21.67,9-2.95,17.62-4.75,25.38-5.06Z"/>
  <path class="cls-3" d="M610.05,853.68c-1.39.92-2.91,1.8-4.59,2.62-7.76.31-16.38,2.11-25.38,5.06,2.49-2.45,5.44-4.41,8.62-5.59,6.83-2.52,14.05-2.71,21.35-2.09Z"/>
  <path class="cls-2" d="M477.09,963.36c-9.51-32.63,52.66-85.48,102.99-102"/>
  <path class="cls-2" d="M573.33,883.05c.48,2.56,1.71,4.91,3.77,6.54,1.43,1.13,3.1,1.82,4.87,2.28"/>
  <path class="cls-2" d="M591.35,893.14c18.58.99,33.34-7.59,38.44-16.73"/>
  <path class="cls-2" d="M571.86,835.43c12.03-3.9,22.98-5.67,34.25-7.35"/>
  <path class="cls-2" d="M384.77,818.96c25.97,13.63,56.29,24.75,93.03,19.66"/>
  <path class="cls-2" d="M649.06,587.72c47.06-27.27,125.61,15.27,66.24,83.89"/>
  <path class="cls-2" d="M669.11,714.04c8.84-7.76,18.18-15.92,28.07-24.49,3.54-3.07,6.82-6.1,9.83-9.09"/>
</svg>