<?xml version="1.0" encoding="UTF-8"?>
<svg id="Capa_1" data-name="Capa 1" xmlns="http://www.w3.org/2000/svg" width="1080" height="1080" viewBox="0 0 1080 1080">
  <defs>
    <style>
      .cls-1 {
        fill: #f8f5f6;
      }

      .cls-2 {
        fill: #e5aa70;
      }
    </style>
  </defs>
  <path class="cls-2" d="M1026.28,117.9c-1.61-10.68-26.06-8.78-34.46-.46-.24-15.97,4.23-38.15-8.92-48.28-9.19-7.09-24.14,7.91-28.39,14.67-6.12-17.16-12.52-23.08-22.54-23.61-6.28-.34-12.26,11.89-16.37,16.07-8.32-1.81-18.39-9.48-26.45-7.01-10.6,3.25-14.7,13.66-19.61,21.53-13.77,22.06,10.31,39.59,10.36,55.81.12,36.46-17.11,69.11-24.94,108.62-27.89-54.02-49.44-104.44-89.27-147.4-47.48-51.21-113.92-82.16-181.82-61.53-4.82,1.47-19.35,11.95-28.6,19.89,2.26-8.73-.82-20.74-8.09-25-50.54-29.63-165.29-15.84-220.92,10.95-54.48,26.24-100.46,61.13-140.17,107.51-29.45-60.31-5.29-120.22-27.31-132.46-5.05-2.81-17.95,4.94-23.53,3.28-14.03-4.15-25.48.8-34.9,5.06-7.09,3.21-28.2-10.36-30.7-3.07-7.43,21.67-15.28,20.97-31.14,29-13.63,6.91-12.17,30.35-8.41,43.91,3.23,11.63,21.94,18.36,29.32,30.76,24.15,40.6,32.25,86.59,61.1,128.3-30.03,70.59-36.48,140.63-32.64,216.92,3.78,74.95,10.88,149.39,50.41,214.41,57.73,94.97,148.28,159.65,249.18,202.83l24.81,62.39c-57.38-9.41-136.33-6.21-138.71,32.53-3.64,59.09,123.61,53.13,201.69,47.21,12.8-.97,22.81-9.35,22.88-22.16l.44-88.96c13.19-2.77,24.11-1.63,37.31,1.72,5.54,45.69-36.4,70.35-17.39,100.64,69.25,10.88,197.25,27.25,231.79-1.34,10.25-8.49,7.58-27.41.32-37.14-22.35-29.96-76.76-25.64-124-30.42-.82-14.11,2.58-25.42,8.4-37.43,155.93-24.22,268.33-153.87,283.19-309.73l-2.03-168.16c-.51-41.77,31.76-83.88,43.61-126.45l36.56-131.3c6.76-24.27,34.35-42.92,29.94-72.1ZM400.13,1010.95c-33.68,1.79-62.61-.77-93.48-12.68,37.28-12.57,77.32-9.25,119.71-.42,12.71-30.18.08-57.05-12.22-89.33l66.18,16.16.2,81.99-80.39,4.28ZM717.07,1011.11c-57.67,4.22-114.13,0-175.08-9.4,5.9-23.92,10.88-43.23,11.14-69.78l60.81-2.71-9.29,39.44c-10.38,44.11,65.64,17.71,112.42,42.45ZM221.23,757.88c-92.47-81.12-127.14-197.69-112.23-322.6,5.77,37.14,18.48,66.95,48.82,90.29l68.91,53c21.78,43.51,34.53,88.85,61.35,128.95,59.19,88.45,144.37,43.24,209.57,69.03,45.92,18.16,60.42,93.1,154.65,111.02-165.56,33.24-310.47-23.9-431.07-129.69ZM902.2,588.01c-4,96.11-48.34,192.41-130.07,245.26-44.89,29.03-110.15,23.72-157.41,7.45-30.47-10.49-49.99-38.01-67.64-60.87-61.48-79.6-150.4-27.22-210.96-64.28-40.12-24.56-61-70.27-75.55-113.52-13.56-40.32-32-67.4-69.62-88.95-25.91-14.84-55.65-40.16-59.86-71.84-6.62-49.76-6.33-98.69.19-149.04,23.2,22.68,32.47,48.91,55.58,65.3,7.53-1.95,10.53-14.5,8.05-23.42-1.59-5.75-9.31-9.41-14.73-17.1-44.51-63.14-82.35-135.79-105.57-207.59,10.37-12.06,16.74-26.74,3.7-41.63,16.1-4.4,19.34,8.04,28.39,16.5,6.31,2.04,13.94-14.23,11.7-23.13,5.96,4.9,11.46,12.06,17.64,10.84,4.8-.94,7.87-7.64,16.1-10.78-4.24,66.16,17.38,124.15,48.39,180.05,16.73,30.17,33.15,57.71,63.55,80.16,13.56-18.88,4.08-35.58-11.05-48.63-25.88-22.32-39.08-54.06-55.86-84.65,64.9-79.58,157.4-127.41,261.44-129.34,31.13-.58,60.57,2.82,88.63,15.98-.02.41.31.59,1.05.49,64.46-11.49,166.22,12.12,208.96,63.53,96.45,116.04,151.26,297.61,144.95,449.21ZM905.66,418.5c-4.71-46.59-32.09-86.24-33.69-128.27-2.16-56.62,26.13-110.74,35.59-162.11,4.76,9.76,13.44,13.74,17.52,11.29,3.49-2.1,5.25-9.92,12.32-17.28l4.13,23.44c17.45-9.27,18.95-26.51,24.41-45.93,12.8,18.04,1.1,33.34.91,52.36l35.25-6.57c-48.64,74.71-52.53,184.25-96.44,273.07Z"/>
  <path class="cls-1" d="M757.25,138.8c-42.74-51.41-144.5-75.02-208.96-63.53-.74.1-1.07-.08-1.05-.49-28.06-13.16-57.5-16.56-88.63-15.98-104.04,1.93-196.54,49.76-261.44,129.34,16.78,30.59,29.98,62.33,55.86,84.65,15.13,13.05,24.61,29.75,11.05,48.63-30.4-22.45-46.82-49.99-63.55-80.16-31.01-55.9-52.63-113.89-48.39-180.05-8.23,3.14-11.3,9.84-16.1,10.78-6.18,1.22-11.68-5.94-17.64-10.84,2.24,8.9-5.39,25.17-11.7,23.13-9.05-8.46-12.29-20.9-28.39-16.5,13.04,14.89,6.67,29.57-3.7,41.63,23.22,71.8,61.06,144.45,105.57,207.59,5.42,7.69,13.14,11.35,14.73,17.1,2.48,8.92-.52,21.47-8.05,23.42-23.11-16.39-32.38-42.62-55.58-65.3-6.52,50.35-6.81,99.28-.19,149.04,4.21,31.68,33.95,57,59.86,71.84,37.62,21.55,56.06,48.63,69.62,88.95,14.55,43.25,35.43,88.96,75.55,113.52,60.56,37.06,149.48-15.32,210.96,64.28,17.65,22.86,37.17,50.38,67.64,60.87,47.26,16.27,112.52,21.58,157.41-7.45,81.73-52.85,126.07-149.15,130.07-245.26,6.31-151.6-48.5-333.17-144.95-449.21ZM243.87,406.05l-38.5,53.4c-26.34-21.74,10.17-49.66,35.46-93.29,14.27,11.16,10.96,27.37,3.04,39.89ZM756.01,328.45c18.15-7.47,22.43-.38,35.33,17.08,11.7,15.84,27.07,39.04,7.24,60.4-10.92,11.76-32.19,3.89-40.44-2.7-12.35-9.87-18.81-22.65-20.75-39.22-2.19-18.73,2.34-28.86,18.62-35.56ZM524.29,112.99c18.94,42.62,44.31,99.3,71.21,88.67,8.31-3.28,11.25-15.66,7.92-27.6-1.6-17.75-18.06-33.84,2.28-55.29,21.29,40.55,23.49,104.83-6.2,116.38-10.46,4.07-27.59.61-36.45-9.45-32.31-36.68-67.85-105.48-38.76-112.71ZM403.04,133.57c20.8,40.44,60.36,92.45,73.09,81.93,16.55-13.67-19.75-51.9-.52-79.69,27.19,36.96,32.33,99.48,4.16,111.97-27.65,12.24-64.21-44.58-86.43-87.15-5.25-10.06-.86-25.87,9.7-27.06ZM358.3,453.98c-1.12,12.01-11.19,35.77-27.84,31.17-25.62-7.07-31.32-49.08-13.42-66.91,10.41-10.37,24.06-2.55,31.77,2.73,10.51,7.2,10.96,17.13,9.49,33.01ZM324.51,319.96c28.24,3.2,53.14,25.4,75.49,40.77,6.89,4.74,5.72,22.11-3.77,30.44-47.49-29.82-96.51-40.84-71.72-71.21ZM375.54,526.94l50.08-31.94c5.71-3.64,10.64,12.2,9.67,17.16-3.19,16.31-44.47,44.24-59.82,46.03-9.09,1.07-9.31-25.27.07-31.25ZM466.95,660.53c-17.75,14.02-44.24,4-54.31-12.26-9.22-14.88-14.79-39.2,3.06-53.69,15.81-12.83,41.09-6.45,52.52,8.49,11.16,14.59,19.68,40.92-1.27,57.46ZM602.43,341.84c5.27,6.14-.02,25.35,4.71,30.05,20.11,19.97,35.51,42.91,41.62,71.1,16.83,77.63,23.02,175.75-47.04,203.53-68.37,27.12-145.47-127.83-123.16-241.29,8.2-41.73,54.12-61.8,87.63-70.48-74.92-3.16-144.94-30.04-204.56-80.87-34.93-29.77-75.04-61.14-62.78-91.22,1.19-2.92,5.47-6.77,11.09-5.17,4.08,1.16,5.17,10.86,9.48,16.19,75.34,93.33,225.61,163.86,316.55,93.33,32.91-25.52,51.29-58.8,66.24-98.79,21.04,14.27,9.81,30.14,3.88,44.96-23.92,59.81-69.58,103.36-130.22,114.99,9.13,5.81,21.48,7.76,26.56,13.67ZM695.12,488.07c-3.31-7.1,1.62-23.43,9.52-24.34,37.98,28.43,76.98,53.44,58.17,85.81l-52.23-45.47c-7.1-6.19-12.61-9.9-15.46-16ZM772.94,705.84l-49.36,30.83c-11.47-8.39-10.04-19.77-6.36-30.67l53.24-35.12c11.25,11.35,10.1,24.48,2.48,34.96ZM842.23,644.01c-9.82,12.63-28.1,14.83-42.12,7.91-13.96-6.88-19.19-24.39-16.66-41.68,2.15-14.71,12.49-23.15,21.32-26.73,16.99-6.89,29.26-2.75,38.53,14.14,9.91,18.08,8.59,33.93-1.07,46.36Z"/>
  <path class="cls-2" d="M575.87,328.17c-2.01,3.07-5.73,5.55-9.68,6.58l9.68-6.58Z"/>
  <path class="cls-2" d="M575.87,328.17l-9.68,6.58c-2.23-13.7-2.05-14.02,9.68-6.58Z"/>
  <path class="cls-2" d="M243.87,406.05l-38.5,53.4c-26.34-21.74,10.17-49.66,35.46-93.29,14.27,11.16,10.96,27.37,3.04,39.89Z"/>
  <path class="cls-2" d="M396.23,391.17c-47.49-29.82-96.51-40.84-71.72-71.21,28.24,3.2,53.14,25.4,75.49,40.77,6.89,4.74,5.72,22.11-3.77,30.44Z"/>
  <path class="cls-2" d="M358.3,453.98c-1.12,12.01-11.19,35.77-27.84,31.17-25.62-7.07-31.32-49.08-13.42-66.91,10.41-10.37,24.06-2.55,31.77,2.73,10.51,7.2,10.96,17.13,9.49,33.01Z"/>
  <path class="cls-2" d="M435.29,512.16c-3.19,16.31-44.47,44.24-59.82,46.03-9.09,1.07-9.31-25.27.07-31.25l50.08-31.94c5.71-3.64,10.64,12.2,9.67,17.16Z"/>
  <path class="cls-2" d="M466.95,660.53c-17.75,14.02-44.24,4-54.31-12.26-9.22-14.88-14.79-39.2,3.06-53.69,15.81-12.83,41.09-6.45,52.52,8.49,11.16,14.59,19.68,40.92-1.27,57.46Z"/>
  <path class="cls-2" d="M842.23,644.01c-9.82,12.63-28.1,14.83-42.12,7.91-13.96-6.88-19.19-24.39-16.66-41.68,2.15-14.71,12.49-23.15,21.32-26.73,16.99-6.89,29.26-2.75,38.53,14.14,9.91,18.08,8.59,33.93-1.07,46.36Z"/>
  <path class="cls-2" d="M762.81,549.54l-52.23-45.47c-7.1-6.19-12.61-9.9-15.46-16-3.31-7.1,1.62-23.43,9.52-24.34,37.98,28.43,76.98,53.44,58.17,85.81Z"/>
  <path class="cls-2" d="M798.58,405.93c-10.92,11.76-32.19,3.89-40.44-2.7-12.35-9.87-18.81-22.65-20.75-39.22-2.19-18.73,2.34-28.86,18.62-35.56,18.15-7.47,22.43-.38,35.33,17.08,11.7,15.84,27.07,39.04,7.24,60.4Z"/>
  <path class="cls-2" d="M479.77,247.78c-27.65,12.24-64.21-44.58-86.43-87.15-5.25-10.06-.86-25.87,9.7-27.06,20.8,40.44,60.36,92.45,73.09,81.93,16.55-13.67-19.75-51.9-.52-79.69,27.19,36.96,32.33,99.48,4.16,111.97Z"/>
  <path class="cls-2" d="M599.5,235.15c-10.46,4.07-27.59.61-36.45-9.45-32.31-36.68-67.85-105.48-38.76-112.71,18.94,42.62,44.31,99.3,71.21,88.67,8.31-3.28,11.25-15.66,7.92-27.6-1.6-17.75-18.06-33.84,2.28-55.29,21.29,40.55,23.49,104.83-6.2,116.38Z"/>
  <path class="cls-2" d="M648.76,442.99c-6.11-28.19-21.51-51.13-41.62-71.1-4.73-4.7.56-23.91-4.71-30.05-5.08-5.91-17.43-7.86-26.56-13.67-2.01,3.07-5.73,5.55-9.68,6.58-33.51,8.68-79.43,28.75-87.63,70.48-22.31,113.46,54.79,268.41,123.16,241.29,70.06-27.78,63.87-125.9,47.04-203.53ZM594.41,614.07c-53.82,13.12-106.01-92-102.65-183.7.81-22.12,26.46-48.91,45.89-45.41,29.48,5.31,61.97,9.8,78.06,34.94,36.57,57.13,45.01,178.02-21.3,194.17Z"/>
  <path class="cls-2" d="M706.09,213.18c-23.92,59.81-69.58,103.36-130.22,114.99-11.73-7.44-11.91-7.12-9.68,6.58-74.92-3.16-144.94-30.04-204.56-80.87-34.93-29.77-75.04-61.14-62.78-91.22,1.19-2.92,5.47-6.77,11.09-5.17,4.08,1.16,5.17,10.86,9.48,16.19,75.34,93.33,225.61,163.86,316.55,93.33,32.91-25.52,51.29-58.8,66.24-98.79,21.04,14.27,9.81,30.14,3.88,44.96Z"/>
  <path class="cls-2" d="M772.94,705.84l-49.36,30.83c-11.47-8.39-10.04-19.77-6.36-30.67l53.24-35.12c11.25,11.35,10.1,24.48,2.48,34.96Z"/>
  <path class="cls-1" d="M652.3,887.57c-165.56,33.24-310.47-23.9-431.07-129.69-92.47-81.12-127.14-197.69-112.23-322.6,5.77,37.14,18.48,66.95,48.82,90.29l68.91,53c21.78,43.51,34.53,88.85,61.35,128.95,59.19,88.45,144.37,43.24,209.57,69.03,45.92,18.16,60.42,93.1,154.65,111.02Z"/>
  <path class="cls-1" d="M1002.1,145.43c-48.64,74.71-52.53,184.25-96.44,273.07-4.71-46.59-32.09-86.24-33.69-128.27-2.16-56.62,26.13-110.74,35.59-162.11,4.76,9.76,13.44,13.74,17.52,11.29,3.49-2.1,5.25-9.92,12.32-17.28l4.13,23.44c17.45-9.27,18.95-26.51,24.41-45.93,12.8,18.04,1.1,33.34.91,52.36l35.25-6.57Z"/>
  <path class="cls-1" d="M480.52,1006.67l-80.39,4.28c-33.68,1.79-62.61-.77-93.48-12.68,37.28-12.57,77.32-9.25,119.71-.42,12.71-30.18.08-57.05-12.22-89.33l66.18,16.16.2,81.99Z"/>
  <path class="cls-1" d="M717.07,1011.11c-57.67,4.22-114.13,0-175.08-9.4,5.9-23.92,10.88-43.23,11.14-69.78l60.81-2.71-9.29,39.44c-10.38,44.11,65.64,17.71,112.42,42.45Z"/>
  <path class="cls-1" d="M594.41,614.07c-53.82,13.12-106.01-92-102.65-183.7.81-22.12,26.46-48.91,45.89-45.41,29.48,5.31,61.97,9.8,78.06,34.94,36.57,57.13,45.01,178.02-21.3,194.17Z"/>
</svg>